<svg xmlns="http://www.w3.org/2000/svg" width="72.177" height="72.177" viewBox="0 0 72.177 72.177">
    <path fill="#566b6b" d="M81.805 161.04a5.921 5.921 0 0 0-4.419-9.814l-1.613-3.895H81.8a1.561 1.561 0 0 0 1.559-1.642 9.853 9.853 0 0 0-5.37-8.272 5.932 5.932 0 1 0-8.942 0c-.253.129-.5.273-.737.423l-11.672-4.835a5.871 5.871 0 0 0 .378-2.074 5.931 5.931 0 0 0-11.863 0 5.871 5.871 0 0 0 .378 2.074l-11.667 4.835c-.241-.15-.485-.293-.738-.423a5.932 5.932 0 1 0-8.942 0 9.853 9.853 0 0 0-5.37 8.272 1.561 1.561 0 0 0 1.559 1.642H26.4l-1.613 3.895a5.921 5.921 0 0 0-4.419 9.814A9.852 9.852 0 0 0 15 169.311a1.56 1.56 0 0 0 1.559 1.642h8.231l1.773 4.28a5.913 5.913 0 0 0-2.381 9.429 9.854 9.854 0 0 0-5.37 8.272 1.561 1.561 0 0 0 1.559 1.642h16.566a1.561 1.561 0 0 0 1.559-1.642 9.854 9.854 0 0 0-5.37-8.272c.132-.152.254-.313.371-.477l10.986 4.551a9.826 9.826 0 0 0-3.236 6.8 1.561 1.561 0 0 0 1.559 1.642H59.37a1.561 1.561 0 0 0 1.559-1.642 9.826 9.826 0 0 0-3.236-6.8l10.986-4.551a6.034 6.034 0 0 0 .371.477 9.854 9.854 0 0 0-5.37 8.272 1.561 1.561 0 0 0 1.559 1.642H81.8a1.561 1.561 0 0 0 1.559-1.642 9.854 9.854 0 0 0-5.37-8.272 5.913 5.913 0 0 0-2.381-9.429l1.773-4.28h8.231a1.56 1.56 0 0 0 1.559-1.642 9.852 9.852 0 0 0-5.366-8.271zm-1.661-3.886a2.8 2.8 0 0 1-.062.581 2.76 2.76 0 0 1-.148.479c-.026.064-.062.122-.092.184a2.81 2.81 0 0 1-.146.269c-.04.062-.086.119-.13.178a2.641 2.641 0 0 1-.185.223c-.05.054-.1.1-.158.154a2.912 2.912 0 0 1-.225.186c-.058.043-.116.084-.178.122a2.621 2.621 0 0 1-.269.146c-.062.03-.122.061-.185.086a2.773 2.773 0 0 1-.33.1c-.057.014-.111.034-.168.046a2.821 2.821 0 0 1-.533.053 2.778 2.778 0 0 1-.492-.049c-.06-.011-.12-.025-.179-.04a2.717 2.717 0 0 1-.27-.084 2.9 2.9 0 0 1-.549-.263 2.784 2.784 0 0 1-.278-4.539 3 3 0 0 1 .371-.257l.047-.026a2.923 2.923 0 0 1 .365-.173c.058-.021.118-.037.177-.055a2.669 2.669 0 0 1 .289-.081 2.789 2.789 0 0 1 .52-.053 2.832 2.832 0 0 1 .5.051c.055.01.109.024.163.037a2.913 2.913 0 0 1 .313.1c.058.022.117.042.173.067a2.78 2.78 0 0 1 .385.209 2.806 2.806 0 0 1 1.274 2.349zm-5.8-5.114a5.928 5.928 0 0 0-2.942 5.114 5.858 5.858 0 0 0 .505 2.373H56.515a5.844 5.844 0 0 0 .495-2.154l10.043-10.043h5.342zm-18.72 15.792H44.655a6.733 6.733 0 0 1 12.867 0zM51.6 180.619c.051.009.1.023.15.034a2.878 2.878 0 0 1 .341.106c.049.019.1.036.145.057a2.835 2.835 0 0 1 .417.226 2.807 2.807 0 0 1 0 4.669 2.83 2.83 0 0 1-.417.226c-.047.021-.1.038-.145.057a2.87 2.87 0 0 1-.341.106c-.05.012-.1.025-.15.034a2.536 2.536 0 0 1-1.016 0c-.051-.009-.1-.022-.15-.034a2.869 2.869 0 0 1-.344-.1c-.048-.019-.1-.036-.145-.057a2.8 2.8 0 0 1 0-5.123c.047-.021.1-.038.145-.057a2.851 2.851 0 0 1 .341-.106c.049-.012.1-.025.15-.034a2.536 2.536 0 0 1 1.016 0zm-13.171-34.4a1.558 1.558 0 0 0 .071-.529 9.817 9.817 0 0 0-2.063-5.535l7.181-2.974a9.816 9.816 0 0 0-2.366 5.908 1.561 1.561 0 0 0 1.559 1.642h6.722v6.709a5.949 5.949 0 0 0-3.4 2.479zm11.794-9.294l.142-.018a6.1 6.1 0 0 1 1.455 0l.142.018a6.684 6.684 0 0 1 5.563 4.685h-12.87a6.682 6.682 0 0 1 5.564-4.685zm13.533 9.294l-7.7 7.7a5.95 5.95 0 0 0-3.4-2.479v-6.71h6.714a1.561 1.561 0 0 0 1.559-1.642 9.816 9.816 0 0 0-2.366-5.908l7.181 2.974a9.817 9.817 0 0 0-2.063 5.535 1.558 1.558 0 0 0 .071.529zm-9.9 10.453a2.767 2.767 0 0 1 .049.484 2.81 2.81 0 1 1-5.619 0 2.766 2.766 0 0 1 .049-.484 3.03 3.03 0 0 1 .118-.432 2.812 2.812 0 0 1 1.5-1.645c.047-.021.1-.038.145-.057a2.85 2.85 0 0 1 .341-.107c.049-.012.1-.025.15-.034a2.536 2.536 0 0 1 1.016 0c.051.01.1.023.15.035a2.758 2.758 0 0 1 .341.106c.049.018.1.036.145.057a2.9 2.9 0 0 1 .417.227 2.817 2.817 0 0 1 1.082 1.418 3.129 3.129 0 0 1 .109.431zm26.099-12.462H67.088a6.8 6.8 0 0 1 .306-.792l.052-.116a6.653 6.653 0 0 1 .39-.7l.077-.118a6.553 6.553 0 0 1 .488-.651l.052-.058a6.674 6.674 0 0 1 .6-.607 6.752 6.752 0 0 1 .68-.525l.069-.047a6.744 6.744 0 0 1 .735-.424l.065-.031a6.687 6.687 0 0 1 1.725-.561 6.723 6.723 0 0 1 7.625 4.638zm-6.433-13.488a2.81 2.81 0 1 1-2.81 2.81 2.813 2.813 0 0 1 2.81-2.81zm-25.243.209a2.81 2.81 0 1 1 5.467.875 2.841 2.841 0 0 1-.929 1.325c-.03.024-.057.051-.089.073-.072.053-.149.1-.226.142s-.142.083-.217.118-.135.061-.2.088a2.656 2.656 0 0 1-.3.094c-.057.015-.113.033-.172.044a2.575 2.575 0 0 1-1.03 0c-.059-.011-.115-.029-.172-.043a2.8 2.8 0 0 1-.3-.095c-.07-.027-.138-.056-.2-.088s-.146-.076-.217-.118-.154-.09-.226-.142c-.031-.022-.058-.049-.088-.073a2.834 2.834 0 0 1-.929-1.325 2.77 2.77 0 0 1-.172-.875zm-19.624-.209a2.81 2.81 0 1 1-2.81 2.81 2.813 2.813 0 0 1 2.81-2.81zm-6.433 13.488a6.726 6.726 0 0 1 9.35-4.078l.066.032a6.629 6.629 0 0 1 .735.423l.07.047a6.752 6.752 0 0 1 .68.525 6.676 6.676 0 0 1 .6.607l.052.058a6.622 6.622 0 0 1 .488.65l.077.118a6.655 6.655 0 0 1 .39.7c.018.038.034.078.052.117a6.752 6.752 0 0 1 .306.791H22.222zm12.9 3.121l10.044 10.043a5.841 5.841 0 0 0 .495 2.154H30.269a5.858 5.858 0 0 0 .505-2.373 5.928 5.928 0 0 0-2.942-5.114l1.951-4.709zm-11.816 7.475a2.759 2.759 0 0 1 .386-.21c.056-.025.114-.045.172-.066a2.853 2.853 0 0 1 .315-.1c.053-.013.107-.027.161-.037a2.846 2.846 0 0 1 .5-.051 2.789 2.789 0 0 1 .52.053 2.722 2.722 0 0 1 .289.081c.059.018.118.033.176.055a2.764 2.764 0 0 1 .365.174l.047.025a2.978 2.978 0 0 1 .371.257 2.784 2.784 0 0 1-.278 4.539 2.905 2.905 0 0 1-.549.263 2.718 2.718 0 0 1-.271.084c-.059.015-.118.029-.179.04a2.778 2.778 0 0 1-.492.049 2.822 2.822 0 0 1-.533-.053c-.058-.011-.112-.031-.168-.046a2.86 2.86 0 0 1-.33-.1c-.063-.025-.123-.057-.184-.086a2.938 2.938 0 0 1-.27-.147c-.06-.038-.119-.079-.176-.122a2.687 2.687 0 0 1-.226-.187c-.054-.049-.107-.1-.157-.153a2.77 2.77 0 0 1-.185-.224c-.044-.058-.09-.115-.13-.177a2.845 2.845 0 0 1-.147-.271c-.031-.06-.066-.118-.092-.182a2.821 2.821 0 0 1-.149-.479 2.793 2.793 0 0 1 1.213-2.928zm-4.9 13.026a6.746 6.746 0 0 1 3.42-4.031 7.079 7.079 0 0 1 .676-.293l.043-.016a6.669 6.669 0 0 1 .717-.218l.027-.005a6.529 6.529 0 0 1 .663-.12l.168-.021a6.685 6.685 0 0 1 7.155 4.7H18.409zm14.716 3.121a1.56 1.56 0 0 0 1.559-1.642 9.819 9.819 0 0 0-3.093-6.662h12.753a9.814 9.814 0 0 0-3.037 6.017l-8.2 8.2a5.927 5.927 0 0 0-3.272-1.9l-1.661-4.011zm-5.363 7.172a3.217 3.217 0 0 1 .419-.111 2.776 2.776 0 0 1 .474-.048 2.813 2.813 0 0 1 2.81 2.81 2.784 2.784 0 0 1-.051.508c-.005.029-.009.06-.016.089a2.718 2.718 0 0 1-.127.408c-.022.056-.044.112-.07.167a2.777 2.777 0 0 1-.163.3c-.051.08-.105.157-.163.231l-.031.038a2.9 2.9 0 0 1-.4.4 2.781 2.781 0 0 1-1.793.665 2.8 2.8 0 0 1-.893-5.462zm7.326 13.329H22.222a6.733 6.733 0 0 1 12.867 0zm-.578-11.581l8.92-8.921h6.1v6.709a5.938 5.938 0 0 0-4.371 5.716 5.858 5.858 0 0 0 .555 2.488l-11.148-4.617c.013-.156.022-.313.022-.471a5.9 5.9 0 0 0-.075-.903zm10.144 14.182a6.725 6.725 0 0 1 3.926-4.258l.068-.026a6.62 6.62 0 0 1 .738-.242h.015a6.682 6.682 0 0 1 .752-.146c.053-.008.107-.014.16-.02a6.1 6.1 0 0 1 1.55 0c.053.007.107.012.16.02a6.682 6.682 0 0 1 .752.146h.016a6.745 6.745 0 0 1 .737.242l.068.026a6.725 6.725 0 0 1 3.926 4.258zm11.81-8.19a5.858 5.858 0 0 0 .555-2.488 5.938 5.938 0 0 0-4.37-5.716v-6.709h6.1l8.921 8.921a5.91 5.91 0 0 0-.076.9c0 .159.009.315.022.471zm23.491 5.589H67.088a6.733 6.733 0 0 1 12.867 0zm-3.624-10.678a2.813 2.813 0 0 1-2.81 2.81 2.781 2.781 0 0 1-1.793-.665 2.9 2.9 0 0 1-.4-.4l-.031-.038c-.058-.075-.112-.152-.163-.231a2.774 2.774 0 0 1-.163-.3c-.026-.055-.048-.111-.07-.167a2.72 2.72 0 0 1-.127-.408c-.007-.029-.01-.06-.016-.089a2.784 2.784 0 0 1-.051-.508 2.813 2.813 0 0 1 2.81-2.81 2.776 2.776 0 0 1 .474.048 3.208 3.208 0 0 1 .418.111 2.805 2.805 0 0 1 1.925 2.648zm-3.987-5.813a5.931 5.931 0 0 0-3.271 1.9l-8.2-8.2a9.816 9.816 0 0 0-3.037-6.017h12.753a9.819 9.819 0 0 0-3.093 6.662 1.56 1.56 0 0 0 1.559 1.642h4.954zm6.333-7.131H70.9a6.732 6.732 0 0 1 6.363-4.743h.07a6.8 6.8 0 0 1 .722.043l.166.021a6.542 6.542 0 0 1 .663.12l.026.005a6.725 6.725 0 0 1 .718.218l.042.016a6.657 6.657 0 0 1 .676.293 6.743 6.743 0 0 1 3.42 4.031z" transform="translate(-15 -125)"/>
</svg>
