<svg xmlns="http://www.w3.org/2000/svg" width="72.177" height="72.177" viewBox="0 0 72.177 72.177">
    <path fill="#566c6c" d="M147.271 54.766a8.019 8.019 0 1 0-12.832 6.416 8.01 8.01 0 0 0-3.207 6.415v3.208a1.608 1.608 0 0 0 1.6 1.6h12.832a1.608 1.608 0 0 0 1.6-1.6V67.6a8.01 8.01 0 0 0-3.207-6.415 8.012 8.012 0 0 0 3.214-6.419zM144.064 67.6v1.6h-9.624v-1.6a4.812 4.812 0 0 1 9.624 0zm-4.812-8.02a4.812 4.812 0 1 1 4.812-4.812 4.826 4.826 0 0 1-4.812 4.809zm8.019-40.1a8.019 8.019 0 1 0-12.832 6.42 8.01 8.01 0 0 0-3.207 6.415v3.208a1.608 1.608 0 0 0 1.6 1.6h12.832a1.608 1.608 0 0 0 1.6-1.6v-3.212a8.01 8.01 0 0 0-3.207-6.415 8.012 8.012 0 0 0 3.214-6.417zm-3.207 12.832v1.6h-9.624v-1.6a4.812 4.812 0 0 1 9.624 0zm-4.812-8.02a4.812 4.812 0 1 1 4.812-4.812 4.826 4.826 0 0 1-4.812 4.811zm60.95 1.6a8.02 8.02 0 1 0-9.624 0 8.01 8.01 0 0 0-3.207 6.415v3.208a1.608 1.608 0 0 0 1.6 1.6h12.832a1.608 1.608 0 0 0 1.6-1.6v-3.204A8.01 8.01 0 0 0 200.2 25.9zm-9.624-6.416a4.812 4.812 0 1 1 4.812 4.812 4.826 4.826 0 0 1-4.813-4.809zm9.622 14.438h-9.624v-1.6a4.812 4.812 0 0 1 9.624 0zm3.207 20.851a8.019 8.019 0 1 0-12.832 6.416 8.01 8.01 0 0 0-3.205 6.419v3.208a1.608 1.608 0 0 0 1.6 1.6h12.832a1.608 1.608 0 0 0 1.6-1.6V67.6a8.01 8.01 0 0 0-3.207-6.415 8.012 8.012 0 0 0 3.214-6.419zM200.2 67.6v1.6h-9.624v-1.6a4.812 4.812 0 0 1 9.624 0zm-4.812-8.02a4.812 4.812 0 1 1 4.812-4.812 4.826 4.826 0 0 1-4.811 4.809zm-16.039-32.4a1.638 1.638 0 0 0-1.6-1.283h-2.409v-4.814a8.011 8.011 0 0 0-3.208-6.416 8.02 8.02 0 1 0-9.624 0 8.011 8.011 0 0 0-3.208 6.416V25.9h-2.4a1.638 1.638 0 0 0-1.6 1.283l-8.02 43.306a1.54 1.54 0 0 0 1.524 1.844h36.89a1.54 1.54 0 0 0 1.524-1.844zm-16.84-18.928a4.812 4.812 0 1 1 4.812 4.812 4.826 4.826 0 0 1-4.812-4.812zm0 12.832a4.812 4.812 0 1 1 9.624 0V25.9h-9.624zM150.8 69.2l7.459-40.1h18.124l7.459 40.1zm14.917-30.8v6.737a1.6 1.6 0 0 1-3.208 0v-5.769l-2.727-2.727a1.588 1.588 0 0 1 2.246-2.246l3.208 3.208.24.241.08.08c0 .08.08.08.08.161s0 .08.08.161c-.08.079-.08.079.001.159zm9.142-4.01a1.551 1.551 0 0 1 0 2.246l-2.727 2.727v5.774a1.6 1.6 0 0 1-3.208 0v-6.732c0-.08 0-.08.08-.16 0-.08 0-.08.08-.161 0-.08.08-.08.08-.161a.078.078 0 0 1 .08-.08l.24-.241 3.208-3.208a1.458 1.458 0 0 1 2.167.006zm-9.142 21.653v6.737a1.6 1.6 0 0 1-3.208 0v-5.769l-2.727-2.727a1.588 1.588 0 0 1 2.246-2.246l3.208 3.208.24.241.08.08c0 .08.08.08.08.161s0 .08.08.161c-.08.079-.08.079.001.16zm9.142-4.01a1.551 1.551 0 0 1 0 2.246l-2.727 2.727v5.774a1.6 1.6 0 0 1-3.208 0v-6.731c0-.08 0-.08.08-.16 0-.08 0-.08.08-.161 0-.08.08-.08.08-.161a.078.078 0 0 1 .08-.08l.24-.241 3.208-3.208a1.458 1.458 0 0 1 2.167.001z" transform="translate(-131.232 -0.232)"/>
</svg>
