<svg xmlns="http://www.w3.org/2000/svg" width="25.013" height="25.013" viewBox="0 0 25.013 25.013">
    <g>
        <path fill="#fff" d="M-51.493-377.091a9.609 9.609 0 0 1 9.6 9.6 9.609 9.609 0 0 1-9.6 9.6 9.609 9.609 0 0 1-9.6-9.6 9.609 9.609 0 0 1 9.6-9.6m0-2.909A12.507 12.507 0 0 0-64-367.493a12.507 12.507 0 0 0 12.507 12.507 12.507 12.507 0 0 0 12.507-12.507A12.507 12.507 0 0 0-51.493-380z" opacity="0.501" transform="translate(64 380)"/>
        <path fill="#f7e082" d="M-51.493-377.091V-380A12.507 12.507 0 0 0-64-367.493h2.909a9.609 9.609 0 0 1 9.598-9.598z" transform="translate(64 380)"/>
    </g>
</svg>
