<svg id="圖層_1" data-name="圖層 1" xmlns="http://www.w3.org/2000/svg" viewBox="0 0 658.71 58.88"><g id="Group_322" data-name="Group 322"><g id="什麼是天下永續會-2" style="isolation:isolate"><g style="isolation:isolate"><path d="M325.79,45.51l5.85,1.88c-.19.54-.72.79-1.61.76a54.79,54.79,0,0,1-4.28,8.61l1.88.76c-.16.35-.59.6-1.28.76V82.35c-.05.18-.42.43-1.1.74a5.09,5.09,0,0,1-2.06.46h-.76v-22A37.47,37.47,0,0,1,317,67l-.52-.36a53.4,53.4,0,0,0,5.33-9.59A69.78,69.78,0,0,0,325.79,45.51Zm22.66,14.37,2.48-3.16q2.65,2.2,4.33,3.69a1,1,0,0,1-1.12.68H343.41v20.7c0,.26-.38.58-1.12.94a5.09,5.09,0,0,1-2.21.54h-.76V61.09H329.15l-.32-1.21h10.49V46.11l5.57.56c-.08.67-.58,1.07-1.48,1.2v12Z" transform="translate(-16.52 -24.98)" style="fill:#fff"/><path d="M399.53,51.24H369.3v9.49c0,2.21-.05,4.1-.16,5.66A50.76,50.76,0,0,1,368.4,72a21.46,21.46,0,0,1-2,6,19.54,19.54,0,0,1-3.62,5l-.52-.32a28.87,28.87,0,0,0,2.26-7.13,50.71,50.71,0,0,0,.92-7.13q.13-3,.14-7.68V48.35L369.9,50h10.65V45.59l5.17.44c-.08.64-.57,1-1.48,1.16V50h10.13l2.24-2.89c1.68,1.34,3,2.48,4,3.45C400.55,51,400.17,51.24,399.53,51.24ZM388.68,75.5l.36-.36c4.54.69,7.57,2.14,9.09,4.32.86,1.23,1,2.31.48,3.25a1.73,1.73,0,0,1-2.32.68,2.08,2.08,0,0,1-.32-.12,14.73,14.73,0,0,0-2.52-3.61q-4.65.89-20.1,3.09a1.63,1.63,0,0,1-1,.84l-2.49-4.21q1.41,0,9.09-.24a80.63,80.63,0,0,0,9.65-9.81l4.13,2.29c-.27.42-.79.56-1.57.4a87.46,87.46,0,0,1-10.24,7q5.64-.19,11.53-.48A28.54,28.54,0,0,0,388.68,75.5Zm-18.26-6-.56-.64a7.43,7.43,0,0,0,.44-.94c.14-.33.25-.63.35-.9a7.43,7.43,0,0,0,.26-1c.08-.43.14-.75.2-1a8.75,8.75,0,0,0,.14-1.1c0-.51.06-.84.08-1s0-.54,0-1.12a10.17,10.17,0,0,1,0-1c0-.1,0-.47,0-1.13v-1l3.64.32q-.07.81-1.2,1c-.11,1.45-.21,2.56-.3,3.35a12.56,12.56,0,0,1-.94,3.08A8.9,8.9,0,0,1,370.42,69.45Zm5.05-17.33,4.28.44c-.08.53-.53.87-1.36,1v2.28h1.16l1.61-2.08a38.24,38.24,0,0,1,3,2.6c-.08.43-.42.64-1,.64h-4.73V67.93c0,.16-.26.36-.8.58a3.89,3.89,0,0,1-1.56.34h-.56V57h-5l-.32-1.16h5.29Zm6.09,15.09,4.2,2.12c-.24.46-.73.63-1.48.52a46.71,46.71,0,0,1-4.41,3.05,3.2,3.2,0,0,1,1.33,2,1.66,1.66,0,0,1-.63,1.7,1.91,1.91,0,0,1-1.94.14,12.59,12.59,0,0,0-2.34-2.8,17.62,17.62,0,0,0-3.14-2.4l.32-.32a12.58,12.58,0,0,1,5.2.92A31.94,31.94,0,0,0,381.56,67.21ZM380,66.49V58.56l3.49.44c-.06.43-.39.68-1,.76v5.93c0,.16-.23.33-.68.52a3.45,3.45,0,0,1-1.33.28Zm5.33-8,3.72.36c-.05.51-.42.82-1.12.92a27.13,27.13,0,0,1-.32,2.93,8.64,8.64,0,0,1-1.08,2.62,7.6,7.6,0,0,1-2.44,2.58l-.6-.6a7.46,7.46,0,0,0,1.3-2.84,15.22,15.22,0,0,0,.46-2.66C385.31,61.2,385.33,60.1,385.36,58.52Zm4.84,10.37h-.6V57h-5.12l-.36-1.16h5.48V52.12l4.33.44c-.08.53-.52.87-1.32,1v2.28h2.28l1.8-2.4a43.31,43.31,0,0,1,3.2,2.92c-.1.43-.44.64-1,.64h-6.28V68c0,.16-.27.36-.8.58A4.05,4.05,0,0,1,390.2,68.89ZM399.73,63l.08,2.4c.59.21.88.51.88.88q0,1.68-2.52,1.68h-1.36c-1.07,0-1.76-.2-2.08-.62a4.44,4.44,0,0,1-.48-2.5V58.4l3.72.48c-.05.51-.44.8-1.16.88V65a2.16,2.16,0,0,0,0,.58c0,.07.12.1.28.1h1a.54.54,0,0,0,.44-.28,9,9,0,0,0,.64-2.44Z" transform="translate(-16.52 -24.98)" style="fill:#fff"/><path d="M429.63,72.3v6.88q1.53.12,3.21.12,8.88,0,13.73-.12v.56c-1.25.24-1.91,1.26-2,3.05H432.76q-5.85,0-9.05-1.68t-5-6.37a20.76,20.76,0,0,1-10.33,8.81l-.36-.44a19,19,0,0,0,6.09-7,27.62,27.62,0,0,0,2.76-8.73l5.61,1.16c-.19.62-.7.92-1.52.92a21,21,0,0,1-1.77,4.33,9.45,9.45,0,0,0,6.41,4.84V65.49H408.81l-.32-1.16h31.23l2.41-3.12c1.76,1.41,3.16,2.63,4.2,3.64-.11.43-.49.64-1.16.64H429.63v5.69h6.29l2.44-3.25q2.73,2.2,4.41,3.73c-.11.42-.5.64-1.16.64ZM419.54,60.53v1.24c0,.13-.16.3-.5.5a5.62,5.62,0,0,1-1.34.54,6,6,0,0,1-1.64.24h-.56V46.31l4.32,1.76H435l2-2.12,4.17,3.16a2.72,2.72,0,0,1-1.69.85V61.45c0,.13-.44.34-1.26.64a6.52,6.52,0,0,1-2.14.44h-.68v-2Zm15.94-11.26H419.54v4.45h15.94ZM419.54,59.36h15.94V54.84H419.54Z" transform="translate(-16.52 -24.98)" style="fill:#fff"/><path d="M489.32,63H474.75q2.76,11.54,17.62,16.73l-.08.44a3.89,3.89,0,0,0-3.57,3.49Q476.43,77.7,474,63h-.2a27.1,27.1,0,0,1-1.66,6.38,21.12,21.12,0,0,1-3.31,5.43,21.93,21.93,0,0,1-5.74,4.8,44,44,0,0,1-8.67,3.89l-.4-.6a37.53,37.53,0,0,0,7-4.17A21.47,21.47,0,0,0,465.68,74a21.76,21.76,0,0,0,2.64-5.13A29.68,29.68,0,0,0,469.66,63H456.49l-.32-1.2h13.61q.29-2.89.37-10.77h-15.1l-.36-1.21H484.6l2.48-3.2a54.61,54.61,0,0,1,4.65,3.77c-.11.42-.5.64-1.17.64h-16c-.05,4.69-.23,8.28-.52,10.77h9.37l2.48-3.13q2.85,2.16,4.6,3.69C490.38,62.79,490,63,489.32,63Z" transform="translate(-16.52 -24.98)" style="fill:#fff"/><path d="M530.52,49.43l2.6-3.36c2,1.52,3.65,2.82,4.88,3.89-.13.45-.53.68-1.2.68H520.19v6.6c5.44.86,9.14,2.52,11.09,5,1.06,1.33,1.34,2.52.84,3.56-.43.88-1.23,1.16-2.41.84a1.81,1.81,0,0,1-.48-.16,20.28,20.28,0,0,0-3.78-4.28,43.71,43.71,0,0,0-5.26-4.05V82.35c0,.13-.14.29-.41.48a4.37,4.37,0,0,1-1.22.52,6.1,6.1,0,0,1-1.74.24h-.76V50.64H500.21l-.32-1.21Z" transform="translate(-16.52 -24.98)" style="fill:#fff"/><path d="M557.57,59.88l3.61,3.17a2.05,2.05,0,0,1-1.61.56q-3.36,11.9-13.93,16.73l-.36-.52a23,23,0,0,0,6.63-7.18,32.47,32.47,0,0,0,3.74-9.47h-9.09L546.2,62h9.25Zm19.54-4.64,4.77,3c-.27.46-.8.58-1.61.36a53.25,53.25,0,0,1-10.13,6.73Q574.6,72.66,584,76.26l-.12.44a3.84,3.84,0,0,0-2.08,1.18,5.28,5.28,0,0,0-1.25,2.38,29.35,29.35,0,0,1-8.76-8.2q-3.37-4.84-5-13V78.58a5,5,0,0,1-1.08,3.51c-.72.76-2.26,1.24-4.6,1.46A4.63,4.63,0,0,0,560,80.71a8.21,8.21,0,0,0-4-1.37V78.7q4.85.36,5.89.36c.66,0,1-.3,1-.92V56.08H552.65l-.36-1.2h10.17l1.88-2.16,4.16,3.2a3,3,0,0,1-1.72.8v.12a28.21,28.21,0,0,0,2.92,7.77,56.77,56.77,0,0,0,4.21-4.81A41.3,41.3,0,0,0,577.11,55.24Zm-19.78-9.05.16-.56c5.74,0,9.61,1.14,11.61,3.24q1.53,1.6.84,3.09a1.67,1.67,0,0,1-2,1,3.38,3.38,0,0,1-.6-.16,18.67,18.67,0,0,0-3.94-3.45A28.61,28.61,0,0,0,557.33,46.19Z" transform="translate(-16.52 -24.98)" style="fill:#fff"/><path d="M624.47,55.84l1.64-1.72,3.48,2.6a2.24,2.24,0,0,1-1.32.68v6.33c0,.13-.33.32-.92.56a6,6,0,0,1-1.68.44L628,66.45a2,2,0,0,1-1.36.68V77.3c0,.16-.41.38-1.16.66a5.78,5.78,0,0,1-2,.42h-.68V77h-11v.8c0,.11-.16.26-.46.44a4.88,4.88,0,0,1-1.22.5,5.27,5.27,0,0,1-1.49.22h-.52V64.69a7,7,0,0,1-1.24.24,2,2,0,0,1-.88,2.16,1.71,1.71,0,0,1-2.2-.44,17,17,0,0,0-.56-2.68l-2.28.64V82.55c0,.1-.12.24-.34.4a3.85,3.85,0,0,1-1,.44,5.42,5.42,0,0,1-1.49.2h-.64v-13a1.62,1.62,0,0,1-1.08.44,24.23,24.23,0,0,1-4.48,9.4l-.64-.32a42.94,42.94,0,0,0,2-11l4.16.8V65.61l-1.6.4-2,.52a1.42,1.42,0,0,1-1,.88l-1.44-3.92c.93,0,2.2,0,3.8-.12a119.71,119.71,0,0,0,6.21-13l4.92,1.84c-.24.56-.79.79-1.64.68a91.3,91.3,0,0,1-8.13,10.41q1.89-.07,6.37-.32a28.06,28.06,0,0,0-1.6-3.25l.44-.16a10,10,0,0,1,4.48,3.49V54.32l3.65,1.52ZM597,45.47l5.13,1.76c-.19.54-.71.79-1.56.76a49.38,49.38,0,0,1-4.85,6c1.28,1,1.79,2,1.52,3.16a1.62,1.62,0,0,1-1.4,1.32,2,2,0,0,1-1.56-.48,10,10,0,0,0-3-5.52l.4-.28a12.82,12.82,0,0,1,3.08,1.12C595.67,50.54,596.42,47.93,597,45.47Zm4.69,23.46.48-.16q4.08,2.45,4.48,5.49a2.42,2.42,0,0,1-1,2.56c-.72.46-1.45.3-2.2-.48A18.66,18.66,0,0,0,601.69,68.93Zm2.6,14.7-.36-.56a31.77,31.77,0,0,0,5.3-2.58,22.06,22.06,0,0,0,4.19-3.11l3.88,2.68c-.29.4-.79.5-1.48.28A32.45,32.45,0,0,1,604.29,83.63Zm1.48-33.55-.32-1.17h9.89v-3.2l5.09.44c-.06.59-.5.94-1.33,1v1.72h4.53l2.12-2.56c1.58,1.18,2.87,2.2,3.88,3.08-.1.43-.46.65-1.08.65H619.1V52.6h3.49l2-2.48a41.19,41.19,0,0,1,3.64,3c-.08.45-.41.68-1,.68H607.81l-.32-1.2h7.85V50.08Zm18.42,13.53.6.48v-1H609.54v.72c0,.16-.18.32-.53.48l3,1.16h10.41ZM618.26,57h-2.08a4.1,4.1,0,0,1-1.62,2.62,12,12,0,0,1-4.66,1.71l-.36-.36v1h15.25V60.49a21.91,21.91,0,0,1-2.64.12h-1.6a2.73,2.73,0,0,1-1.87-.44,2.45,2.45,0,0,1-.42-1.65Zm-4.92,0h-3.8v3.65a7.12,7.12,0,0,0,2.82-1.55A3.68,3.68,0,0,0,613.34,57Zm-1.56,11.89h11v-2.2h-11Zm0,1.2V72.3h11V70.09Zm0,5.77h11V73.5h-11Zm6.64,2.84.2-.6q8.61.48,10.25,3a1.33,1.33,0,0,1-.32,2,2.42,2.42,0,0,1-2.6.32,3.76,3.76,0,0,1-.72-.48A15.76,15.76,0,0,0,618.42,78.7ZM624.79,57h-4v1.12a.51.51,0,0,0,.1.38c.06.07.22.1.46.1h2.12a1.43,1.43,0,0,0,.48,0,3,3,0,0,0,.64-.08h.2Z" transform="translate(-16.52 -24.98)" style="fill:#fff"/><path d="M653.73,45.31l6.13,1.44q-.24.69-1.89.84A23.91,23.91,0,0,0,665.36,52a59.88,59.88,0,0,0,9.87,3v.64a3.86,3.86,0,0,0-2,1.36,4.78,4.78,0,0,0-1,2.24,37.22,37.22,0,0,1-4.41-2l3,2.28a2.41,2.41,0,0,1-1.17.52v8c0,.16-.39.38-1.1.64a5.25,5.25,0,0,1-1.86.4H666V67.89H646.2v.48c0,.22-.19.44-.56.68l3.93,1.57h13l1.76-1.85L668,71.54a2,2,0,0,1-1.24.64V82.27c0,.18-.42.43-1.18.74a5.79,5.79,0,0,1-2.1.46h-.64v-2H649.33v.88q0,.31-1.11.78a5.81,5.81,0,0,1-2.22.46h-.52V69.17a4.14,4.14,0,0,1-2.16.56h-.6V58.32q-3,1.32-5.21,2l-.24-.57A45.44,45.44,0,0,0,647.34,53Q652.29,48.72,653.73,45.31Zm12,13.37,1.6-1.6a25.3,25.3,0,0,1-10-9,29.94,29.94,0,0,1-5.54,5,53.52,53.52,0,0,1-7.63,4.58l2.56,1ZM646.2,59.84v6.85h8.21V59.84Zm1.56.73.44-.28q3.64,1.44,4.17,3.64a1.72,1.72,0,0,1-.72,2,1.53,1.53,0,0,1-2.08-.36A8.89,8.89,0,0,0,647.76,60.57Zm15.1,11.21H649.33v3.68h13.53ZM649.33,80.3h13.53V76.66H649.33Zm8.4-25.1L659.62,53q2.07,1.6,3.36,2.8c-.11.43-.46.64-1,.64H650l-.32-1.2Zm2.65,11.49H666V59.84h-8.25v6.85h1.56a49.94,49.94,0,0,0,2.17-6.4l4.32,1.44c-.19.58-.71.84-1.56.76A32.27,32.27,0,0,1,660.38,66.69Z" transform="translate(-16.52 -24.98)" style="fill:#fff"/></g></g><g id="Group_310" data-name="Group 310"><g id="Group_308" data-name="Group 308"><path id="Path_410-2" data-name="Path 410-2" d="M60,25.7,67.28,76c.31,2,.92,3.38,1.82,4a4.94,4.94,0,0,0,2.7,1.08l-.43,1.6c-1.11-.1-2.48-.17-4.12-.2s-3.29,0-4.94,0c-2.22,0-4.3,0-6.24,0s-3.52.1-4.75.2l.43-1.6q4.39-.15,5.92-1.4c1-.82,1.33-2.6.92-5.32L53.37,34.66l1.65-1L30.48,69.78A22.8,22.8,0,0,0,27,76.54c-.38,1.63,0,2.79,1,3.48a10.15,10.15,0,0,0,5.16,1.12l-.43,1.6c-1.57-.11-3.21-.17-4.94-.2s-3.33,0-4.81,0-2.63,0-3.63,0-2,.09-2.83.2l.43-1.6a11.93,11.93,0,0,0,4-1.88,18.6,18.6,0,0,0,4.6-5.08l33-48.48Zm1.3,34-.43,1.6H35.4l1.28-1.6Z" transform="translate(-16.52 -24.98)" style="fill:#fff"/><path id="Path_411-2" data-name="Path 411-2" d="M87.91,26.1c1.18.06,2.73.11,4.65.16s3.82.08,5.69.08c2.68,0,5.24,0,7.7-.08s4.2-.08,5.23-.08q9,0,12.53,3.52t2.1,9a16.51,16.51,0,0,1-2.7,5.48,19.5,19.5,0,0,1-5.4,4.88,30.37,30.37,0,0,1-8.59,3.56l0,.16q6.53.81,9.73,3a9,9,0,0,1,4,5.16,12.22,12.22,0,0,1-.14,6.24,19.08,19.08,0,0,1-8.41,11.16Q107.63,82.75,98,82.74c-1.25,0-3.12,0-5.6-.12s-5.48-.12-9-.12c-2,0-4,0-5.9,0s-3.52.1-4.74.2l.42-1.6a20.06,20.06,0,0,0,4.57-.64,4.33,4.33,0,0,0,2.52-1.92,16.68,16.68,0,0,0,1.67-4.32L92.55,34.58a14,14,0,0,0,.66-4.36,2.19,2.19,0,0,0-1.49-1.92,13.85,13.85,0,0,0-4.24-.6Zm20.73,1.6c-2.62,0-4.45.46-5.49,1.36s-1.93,2.75-2.67,5.52L89.85,74.26q-1.12,4.17-.21,5.4t4.83,1.24q8.36,0,13.13-3.64a18.6,18.6,0,0,0,6.57-10.36q1.65-6.15-1-9.52T102.44,54H93.65L94,52.66h7.34a16.63,16.63,0,0,0,8.25-1.8,13.5,13.5,0,0,0,5-4.8,24.27,24.27,0,0,0,2.74-6.44Q119,33.71,117,30.7T108.64,27.7Z" transform="translate(-16.52 -24.98)" style="fill:#fff"/><path id="Path_412-2" data-name="Path 412-2" d="M169.42,25q8.1,0,13.28,3.44a16.18,16.18,0,0,1,6.82,9.88q1.65,6.45-.82,15.64a43.41,43.41,0,0,1-7.65,15.68A38.22,38.22,0,0,1,168.64,80.1a31.86,31.86,0,0,1-15.08,3.76q-8.12,0-13.28-3.44a16.13,16.13,0,0,1-6.82-9.92q-1.62-6.48.81-15.6A43.12,43.12,0,0,1,142,39.22a39,39,0,0,1,12.4-10.48A31.74,31.74,0,0,1,169.42,25Zm-.73,1.44a18.1,18.1,0,0,0-10.6,3.6,34.16,34.16,0,0,0-9,9.92,53.49,53.49,0,0,0-6.18,14.64,38.18,38.18,0,0,0-1.44,14.76q.82,6.28,4.23,9.68a11.58,11.58,0,0,0,8.6,3.4,17.94,17.94,0,0,0,10.6-3.6,34.11,34.11,0,0,0,9-10,53.4,53.4,0,0,0,6.17-14.6q2.29-8.55,1.45-14.8t-4.2-9.64A11.68,11.68,0,0,0,168.69,26.42Z" transform="translate(-16.52 -24.98)" style="fill:#fff"/><path id="Path_413-2" data-name="Path 413-2" d="M256.05,26.1l-.43,1.6a13.2,13.2,0,0,0-4.61.8,5.5,5.5,0,0,0-2.63,2.32,19.05,19.05,0,0,0-1.73,4.56L240.2,59.46a63.27,63.27,0,0,1-3.38,9.76,27.54,27.54,0,0,1-4.66,7.2,22.13,22.13,0,0,1-7.68,5.4,24.39,24.39,0,0,1-9.93,2,29.64,29.64,0,0,1-7.56-.92,11,11,0,0,1-5.61-3.4,13.21,13.21,0,0,1-2.62-4.72,15,15,0,0,1-.29-6.08,71.55,71.55,0,0,1,1.91-9l6.73-25.12a13.45,13.45,0,0,0,.66-4.36,2.19,2.19,0,0,0-1.49-1.92,13.78,13.78,0,0,0-4.23-.6l.42-1.6c1.19.06,2.74.11,4.65.16s4,.08,6.21.08c2,0,4,0,5.95-.08s3.63-.11,4.95-.16l-.43,1.6a17.44,17.44,0,0,0-4.55.6,4.53,4.53,0,0,0-2.52,1.92,16.41,16.41,0,0,0-1.68,4.36L208,61.06a56.76,56.76,0,0,0-1.83,10,10.17,10.17,0,0,0,1.76,7.28c1.42,1.82,4.15,2.72,8.19,2.72a19.73,19.73,0,0,0,10.74-2.68,20.33,20.33,0,0,0,6.93-7.4A44.93,44.93,0,0,0,238,60.34l6.69-25a11.18,11.18,0,0,0,.5-4.56,3.08,3.08,0,0,0-1.81-2.32,11.39,11.39,0,0,0-4.39-.8l.42-1.6c1,.06,2.35.11,4,.16s3.21.08,4.63.08,2.95,0,4.42-.08S255.12,26.15,256.05,26.1Z" transform="translate(-16.52 -24.98)" style="fill:#fff"/><path id="Path_414-2" data-name="Path 414-2" d="M308.85,26.1q-1.16,3-2,5.88c-.59,1.9-1,3.35-1.3,4.36-.35,1.28-.64,2.48-.88,3.6l-.63,3h-2a45.11,45.11,0,0,0,.75-8.84,5.53,5.53,0,0,0-2.33-4.68c-1.45-1-4-1.44-7.55-1.44h-4.6l-12.2,45.52a13.73,13.73,0,0,0-.65,4.8,2.52,2.52,0,0,0,1.94,2.16,21.32,21.32,0,0,0,5.27.72l-.43,1.6c-1.45-.11-3.31-.17-5.58-.2s-4.57,0-6.9,0c-2.56,0-5,0-7.22,0s-4.07.09-5.47.2l.43-1.6a26.82,26.82,0,0,0,5.65-.72,5.24,5.24,0,0,0,3.1-2.16,16.37,16.37,0,0,0,1.92-4.8l12.2-45.52h-4.6a19.4,19.4,0,0,0-8.28,1.44,11.42,11.42,0,0,0-4.88,4.68,59.48,59.48,0,0,0-4,8.84h-2a30.79,30.79,0,0,0,1-3c.33-1.12.67-2.32,1-3.6.27-1,.62-2.46,1-4.36s.79-3.85,1.11-5.88q3.56.09,7.76.16t8.47.08h15.48c2.82,0,5.65,0,8.51-.08S306.5,26.16,308.85,26.1Z" transform="translate(-16.52 -24.98)" style="fill:#fff"/></g></g></g></svg>