<svg id="e12aae3c-1aae-46c1-a245-e358f5df5012" data-name="圖層 1" xmlns="http://www.w3.org/2000/svg" viewBox="0 0 1004.74 116.99"><g style="isolation:isolate"><path d="M253.71,14.2a11,11,0,0,0,7.6,6.82,6.79,6.79,0,0,0-1.2,1.64,12.34,12.34,0,0,1-7.61-7c-.95,2.66-3.06,5.26-7.6,7a6.57,6.57,0,0,0-1.16-1.5c4.63-1.78,6.5-4.42,7.22-7h-6.67V12.4h7a15,15,0,0,0,.09-1.85V8.48H245V6.66h14.92V8.48h-6.65v2.09c0,.57,0,1.2-.08,1.83h7.51v1.8Z" transform="translate(-55.58 -5.1)" style="fill:#f6f6f6"/><path d="M273.91,8.47v3.21l.32-.38a43.9,43.9,0,0,1,6.61,3.87l-1.29,1.62a41.09,41.09,0,0,0-5.64-3.65v9.55H272V8.47h-7V6.66h16.78V8.47Z" transform="translate(-55.58 -5.1)" style="fill:#f6f6f6"/><path d="M292.26,13.25a13.62,13.62,0,0,1-5.39,8.32,8.08,8.08,0,0,0-1.41-1.33A11,11,0,0,0,290,14.49h-4.14V12.82h4.9l.31-.06Zm10.17-1.54a46.36,46.36,0,0,1-4.83,3.94A11.75,11.75,0,0,0,303.09,20a8.07,8.07,0,0,0-1.23,1.55,13.2,13.2,0,0,1-6.58-6.63v5.65c0,1-.22,1.52-.91,1.8a9.47,9.47,0,0,1-3.32.32,6.31,6.31,0,0,0-.63-1.76c1.05,0,2.2,0,2.53,0s.43-.11.43-.43V10.82h-5V9.13h6.91v1.52a19,19,0,0,0,1.49,3.65,29.41,29.41,0,0,0,4-3.76Zm-5.51-2.33A32.93,32.93,0,0,0,290,6.79l.88-1.46a32.65,32.65,0,0,1,7,2.39Z" transform="translate(-55.58 -5.1)" style="fill:#f6f6f6"/><path d="M308.6,17.75a26.39,26.39,0,0,1-.93,4.87,7.43,7.43,0,0,0-1.33-.46,21.49,21.49,0,0,0,.88-4.65Zm3.08-.77c0-.31-.11-.65-.19-1.05-3.55.53-4.12.67-4.5.87a10,10,0,0,0-.49-1.46c.4-.11.79-.57,1.34-1.29a20,20,0,0,0,1.33-2,9,9,0,0,0-2.31.42,13.15,13.15,0,0,0-.5-1.44c.35-.08.63-.46,1-1.05a22.88,22.88,0,0,0,2.19-4.77l1.48.61a29.61,29.61,0,0,1-2.53,4.89l1.6-.14c.43-.82.89-1.71,1.27-2.56l1.37.8a36.06,36.06,0,0,1-3.84,6l2.32-.31c-.15-.57-.33-1.16-.5-1.67l1.22-.32a28,28,0,0,1,1,4Zm-1.38.49a40.51,40.51,0,0,1,.49,4.35l-1.31.25a37.65,37.65,0,0,0-.4-4.39ZM312,17a30.38,30.38,0,0,1,1,3.45l-1.2.38a28.44,28.44,0,0,0-.93-3.51Zm8.17,3c1.35.47,2.77,1,3.7,1.46l-.72,1.25c-1-.47-2.6-1.19-4-1.73l.57-1h-3.08l1.05,1c-1.44.66-3.29,1.36-4.62,1.86a6.82,6.82,0,0,0-.66-1.24A34.22,34.22,0,0,0,316.18,20h-2.77V14.41h9.42V20ZM317.36,7.42h-4.67V6.22h4.67V5.29h1.73v.93h4.45v1.2h-4.45v.84h3.78V9.4h-9.44V8.26h3.93ZM312.78,10h10.68v3.65H312.78Zm1.47,2.51H316V11.18h-1.78Zm.74,3.53h6.21V15.4H315Zm0,1.45h6.21v-.71H315Zm0,1.5h6.21v-.76H315Zm4-6.48V11.18h-1.65v1.37Zm2.89-1.37h-1.54v1.37h1.54Z" transform="translate(-55.58 -5.1)" style="fill:#f6f6f6"/><path d="M337.37,5.75a4.57,4.57,0,0,1-.29.36A18.23,18.23,0,0,0,345,9.81a7.36,7.36,0,0,0-1.13,1.35c-.45-.13-.95-.28-1.42-.45v4.92H329.64V10.84c-.48.17-.93.32-1.41.46a6.15,6.15,0,0,0-1-1.35c3.44-.88,6.8-2.53,8.53-4.75Zm5,4.94a19.05,19.05,0,0,1-3-1.35v.55h-6.57V9.43A19,19,0,0,1,330,10.69Zm-11.68,5.7h10.83v6.25h-1.81v-.52h-7.27v.59h-1.75ZM333.3,12a7.73,7.73,0,0,1,1,2.09l-1.25.42h2.24V11.85h-4.12v2.62H333a8.15,8.15,0,0,0-.89-2.13Zm-.83,5.64v1h7.27v-1Zm7.27,3.33V19.86h-7.27v1.07Zm-1.5-12.26a12.62,12.62,0,0,1-2.09-1.59,13.83,13.83,0,0,1-2.07,1.59Zm2.68,3.18H336.7v2.62h2.13l-1.18-.36a12.77,12.77,0,0,0,1-2.23l1.49.42c-.42.82-.84,1.62-1.18,2.17h2Z" transform="translate(-55.58 -5.1)" style="fill:#f6f6f6"/><path d="M354.09,14.85l-2,.63v5.3c0,.87-.17,1.34-.68,1.63a5.75,5.75,0,0,1-2.47.32,5.56,5.56,0,0,0-.48-1.63c.76,0,1.47,0,1.68,0s.34-.06.34-.32V16c-.74.23-1.45.44-2.07.65l-.4-1.71c.68-.18,1.54-.42,2.47-.69V10.61h-2.21V9h2.21V5.31h1.61V9H354v1.63h-1.9v3.14l1.73-.52Zm7.58,1.31A12.23,12.23,0,0,0,366,20.32a7.66,7.66,0,0,0-1.16,1.31,14.12,14.12,0,0,1-4.1-4.27V22.6h-1.67V17.32a13.46,13.46,0,0,1-4.58,4.39,6.45,6.45,0,0,0-1.2-1.35,11.94,11.94,0,0,0,4.77-4.2h-3.63V14.62h4.64v-2h1.67v2h4.73v1.54ZM365,6.89a52.58,52.58,0,0,1-10.26,1.42,6,6,0,0,0-.46-1.44,50.8,50.8,0,0,0,9.54-1.35Zm-9.2,6a13.41,13.41,0,0,0-1.25-3.59l1.4-.4a13.53,13.53,0,0,1,1.37,3.52Zm3.31-.66a13,13,0,0,0-.82-3.52l1.48-.26a12.07,12.07,0,0,1,.91,3.44Zm2.47.55a30.64,30.64,0,0,0,2.31-4.62l1.66.61a36.62,36.62,0,0,1-2.61,4.58Z" transform="translate(-55.58 -5.1)" style="fill:#f6f6f6"/><path d="M385.19,17.91c-.36-.31-.76-.61-1.23-.95v5.66h-1.73v-.5h-8.67v.55h-1.67V17.11a16.17,16.17,0,0,1-1.82.74A6.93,6.93,0,0,0,369,16.48a19.9,19.9,0,0,0,5.74-2.71h-5.13V12.3H373a6.76,6.76,0,0,0-.67-1.38l1.14-.27-.82,0a4.85,4.85,0,0,0-.34-1.24,83,83,0,0,0,10.07-.74l.95,1.24c-1.31.19-2.94.36-4.65.49V12.3h2.24a13.07,13.07,0,0,0,.93-2l1.69.45c-.32.54-.67,1.09-1,1.54h3.61v1.47H381.7A46.18,46.18,0,0,1,386.6,17Zm-13.7-7.68h-1.65V6.7h7c-.15-.36-.32-.7-.49-1l1.8-.49c.25.44.56,1,.78,1.52h7v3.53h-1.73v-2H371.49Zm5.49,7h-3.42v1.24H377Zm-3.42,3.61H377V19.58h-3.42ZM377,10.52c-1,.05-2.1.11-3.09.13a6.46,6.46,0,0,1,.8,1.63l-.08,0H377Zm-.09,3.25A17.26,17.26,0,0,1,374,16h3V13.77Zm5.34,3.47h-3.59v1.24h3.59Zm0,3.61V19.58h-3.59v1.27Zm.34-4.86c-1.16-.74-2.45-1.54-3.72-2.22h-.19V16Z" transform="translate(-55.58 -5.1)" style="fill:#f6f6f6"/><path d="M395.6,15.78c-.22-.55-.68-1.5-1.14-2.38v9.33h-1.69V14.58a18.26,18.26,0,0,1-2,4.49,10,10,0,0,0-.89-1.75,19,19,0,0,0,2.81-6.8h-2.34V8.88h2.41V5.31h1.69V8.88h2v1.64h-2v.7c.5.7,1.87,2.81,2.19,3.32Zm11.56-.95a15,15,0,0,1-2.93,3.61,35.29,35.29,0,0,1,3.36,2.94l-1.37,1.18A29.52,29.52,0,0,0,403,19.5a20.71,20.71,0,0,1-6.19,3.25,9,9,0,0,0-1-1.48c4.39-1.33,8-4,9.56-7.09Zm-1.41-3.55a18.18,18.18,0,0,1-8,7.27,7.43,7.43,0,0,0-1-1.37,16.22,16.22,0,0,0,4.89-3.26,20.69,20.69,0,0,0-4.11.47,14.85,14.85,0,0,0-.47-1.61,2.81,2.81,0,0,0,1.35-.59c.32-.34,1.23-1.82,1.88-2.85h-3.44V7.72h4.71a11.07,11.07,0,0,0-.82-2l1.66-.51a9.19,9.19,0,0,1,1.06,2.54h3.95V9.34h-5.26c-.61,1-1.39,2.24-2,3.21l2.9-.15a12.7,12.7,0,0,0,1.07-1.67Z" transform="translate(-55.58 -5.1)" style="fill:#f6f6f6"/><path d="M415.4,15.65a19.25,19.25,0,0,0-.91-2.07v9.15H413V14.51a20.39,20.39,0,0,1-1.56,4.23,8.6,8.6,0,0,0-.74-1.76,21.79,21.79,0,0,0,2.21-6.46h-1.75V8.88H413V5.31h1.52V8.88h1.43v1.64h-1.43v1c.44.63,1.5,2.4,1.73,2.85ZM427.16,17a10.58,10.58,0,0,1-2.2,2.94A2.31,2.31,0,0,0,426.59,21c.36,0,.59-.64.74-2a5,5,0,0,0,1.14.89c-.4,2.22-1.06,2.87-1.86,2.83A3.77,3.77,0,0,1,423.74,21a14,14,0,0,1-3.17,1.71,8.15,8.15,0,0,0-.93-1.14A11.94,11.94,0,0,0,423,19.67a17,17,0,0,1-1-3.28h-2.88a5.82,5.82,0,0,1,0,.59,24.73,24.73,0,0,1,2.51,2.18l-1.09,1.06a18.25,18.25,0,0,0-1.69-1.61,7.12,7.12,0,0,1-2.7,4.14,5.52,5.52,0,0,0-1.17-1,6.32,6.32,0,0,0,2.66-5.32H416.3V15h5.45a75.2,75.2,0,0,1-.8-9.57h1.48a64.47,64.47,0,0,0,.82,9.57h2.28a14.42,14.42,0,0,0-1.37-1l.78-.7a5.62,5.62,0,0,0-1.35.34,10.41,10.41,0,0,0-.44-1.29c.31-.07.59-.38.93-.85a16.86,16.86,0,0,0,1-1.54,4.82,4.82,0,0,0-1.73.36A8.84,8.84,0,0,0,423,9c.22-.06.43-.31.66-.65a12.72,12.72,0,0,0,1.25-2.91l1.31.36a18.56,18.56,0,0,1-1.55,3l1.12-.11a13.08,13.08,0,0,0,.61-1.25l1.31.47A26.79,26.79,0,0,1,425,12.09l1.54-.19c-.14-.32-.27-.68-.38-1l1-.29a19.56,19.56,0,0,1,1,2.77l-1.1.38c-.06-.22-.14-.51-.21-.81l-1.71.26a12.63,12.63,0,0,1,1.75,1.3l-.5.47h1.54v1.39h-4.41a14.8,14.8,0,0,0,.69,2.18,8.68,8.68,0,0,0,1.46-2.13Zm-7.06-2.95c0-.21-.08-.46-.14-.72-2.52.34-3,.45-3.23.61a8.75,8.75,0,0,0-.43-1.28c.3-.05.62-.38,1-.85a17.77,17.77,0,0,0,1.06-1.56,5.87,5.87,0,0,0-1.79.38,13,13,0,0,0-.41-1.25,1.37,1.37,0,0,0,.7-.69,13.39,13.39,0,0,0,1.44-3.17l1.31.38a21.86,21.86,0,0,1-1.76,3.31L419,9.09q.35-.6.63-1.23l1.27.47a28.82,28.82,0,0,1-2.75,4.11l1.52-.19c-.12-.37-.25-.73-.36-1.05l1.06-.28a16.93,16.93,0,0,1,.91,2.75Z" transform="translate(-55.58 -5.1)" style="fill:#f6f6f6"/><path d="M438.09,11.26h4.37v1.61h-4.37v1.69h3.8v5c0,.72-.12,1.18-.61,1.44a4.67,4.67,0,0,1-2.2.27,4.45,4.45,0,0,0-.48-1.5c.69,0,1.26,0,1.45,0s.24-.06.24-.25V16.14h-2.2v6.57h-1.67V16.14h-2.07v5.07h-1.58V14.56h3.65V12.87H432V11.26h1.31a10.92,10.92,0,0,0-1.48-.61,14.64,14.64,0,0,0,1.83-4.94l1.65.34c-.15.63-.32,1.28-.5,1.88h1.66V5.41h1.67V7.93h3.63v1.6h-3.63Zm-1.67,0V9.53h-2.23a10,10,0,0,1-.83,1.73Zm8.83,6.21h-1.63V7h1.63Zm3.42-11.91V20.47c0,1.07-.23,1.56-.85,1.86a8,8,0,0,1-3.1.34,7.94,7.94,0,0,0-.57-1.8c1.06,0,2.09,0,2.41,0s.4-.1.4-.4V5.56Z" transform="translate(-55.58 -5.1)" style="fill:#f6f6f6"/><path d="M454.64,16.65c1.46-.55,2.32-1.42,2.41-2.56a1.14,1.14,0,0,1-.27,0,1.48,1.48,0,0,1-1.59-1.52,1.5,1.5,0,0,1,1.61-1.52c1.2,0,1.83.93,1.83,2.37a4.63,4.63,0,0,1-3.5,4.45Z" transform="translate(-55.58 -5.1)" style="fill:#f6f6f6"/><path d="M472.17,17.36c-2.58,1.17-5.37,2.37-7.48,3.26L464,18.78l2.59-1-.36-11.41,1.84-.08.32,10.75c1.1-.45,2.22-.93,3.33-1.4Zm8.12,5.33a42.57,42.57,0,0,0-3.94-4.8,13.54,13.54,0,0,1-6.17,4.88,8.88,8.88,0,0,0-1.43-1.56c6.31-2.33,8.29-6.91,9.07-14.91l1.93.19a28.83,28.83,0,0,1-2.41,9.73,46.38,46.38,0,0,1,4.43,5.05ZM473.09,13a19.07,19.07,0,0,0-2.89-4.65l1.61-.78a18.09,18.09,0,0,1,3,4.52Z" transform="translate(-55.58 -5.1)" style="fill:#f6f6f6"/><path d="M484.79,19.56l1.07-1.41a4.49,4.49,0,0,0,3.3,1.54c1.58,0,2.66-.87,2.66-2.31s-1-2.57-4.14-2.57V13.2c2.75,0,3.67-1,3.67-2.45a2,2,0,0,0-2.15-2A4.08,4.08,0,0,0,486.41,10l-1.14-1.37a5.91,5.91,0,0,1,4-1.69c2.51,0,4.28,1.3,4.28,3.61a3.38,3.38,0,0,1-2.41,3.29V14a3.54,3.54,0,0,1,2.88,3.5c0,2.53-2.1,4-4.67,4A5.83,5.83,0,0,1,484.79,19.56Z" transform="translate(-55.58 -5.1)" style="fill:#f6f6f6"/><path d="M503,5.84a28.86,28.86,0,0,1-1.5,3.65V22.75h-1.69V12.49a18.71,18.71,0,0,1-1.58,2.09,12.33,12.33,0,0,0-.87-1.86,21.29,21.29,0,0,0,4-7.35Zm11.59.52V22.54h-1.67v-.95H505.1v1.12h-1.61V6.36ZM512.93,20V7.9H505.1V20Zm-3.19-8.26v1.9h2v5h-5.32v-5h1.9v-1.9h-2.54V10.46h2.54V8.41h1.41v2.05h2.64v1.31Zm.64,3.17h-2.64v2.51h2.64Z" transform="translate(-55.58 -5.1)" style="fill:#f6f6f6"/><path d="M533.56,20.34c0,1.14-.3,1.69-1.06,2a12.38,12.38,0,0,1-4.07.36,7.15,7.15,0,0,0-.76-1.86c1.49.08,3,.06,3.46,0s.57-.15.57-.55V17h-8.62a10.58,10.58,0,0,1-3.25,5.77,6.89,6.89,0,0,0-1.35-1.29c3-2.55,3.25-6.27,3.25-9.25v-6h11.83Zm-1.86-5.07V12.46h-8.17a23.47,23.47,0,0,1-.17,2.81ZM523.53,8v2.81h8.17V8Z" transform="translate(-55.58 -5.1)" style="fill:#f6f6f6"/><path d="M540.48,15.29a18,18,0,0,1,2.81-9.71l1.37.59a17.84,17.84,0,0,0-2.39,9.12,17.73,17.73,0,0,0,2.39,9.11l-1.37.61A18,18,0,0,1,540.48,15.29Z" transform="translate(-55.58 -5.1)" style="fill:#f6f6f6"/><path d="M565.62,12.85v1.94H548.33V12.85Z" transform="translate(-55.58 -5.1)" style="fill:#f6f6f6"/><path d="M576.92,11a18.53,18.53,0,0,1-6.74,4.22,7.44,7.44,0,0,0-1.12-1.35,17.9,17.9,0,0,0,6-3.17h-5.57V9.17h7.39V7.61c-2,.15-4,.25-5.81.29a5.51,5.51,0,0,0-.4-1.41,72.08,72.08,0,0,0,12.12-1.14l1.46,1.25a43.64,43.64,0,0,1-5.64.88V9.17h7.52v1.5H581a42.46,42.46,0,0,1,5.56,3.68l-1.14,1.24A48.61,48.61,0,0,0,578.65,11v2.57h-1.73Zm1.83,6.5h7.44V19h-7.44v1.88c0,.93-.23,1.35-1,1.6a14.37,14.37,0,0,1-3.49.22,6.6,6.6,0,0,0-.61-1.53c1.26,0,2.53,0,2.87,0s.46-.09.46-.34V19h-7.51V17.47H577V16.39a20.34,20.34,0,0,0,2.2-.93h-6.48V14.07h8.63l.38-.1,1.08.94a19.23,19.23,0,0,1-4.08,2.18Z" transform="translate(-55.58 -5.1)" style="fill:#f6f6f6"/><path d="M590.11,24.4a17.73,17.73,0,0,0,2.39-9.11,17.84,17.84,0,0,0-2.39-9.12l1.37-.59a17.8,17.8,0,0,1,2.83,9.71A17.8,17.8,0,0,1,591.48,25Z" transform="translate(-55.58 -5.1)" style="fill:#f6f6f6"/><path d="M615.6,15.44a6.56,6.56,0,0,1-.05.7c-.33,3.8-.67,5.38-1.24,6a1.78,1.78,0,0,1-1.31.56,16.66,16.66,0,0,1-2.3,0,3.72,3.72,0,0,0-.45-1.57,18.53,18.53,0,0,0,2,.09.86.86,0,0,0,.67-.21c.36-.32.64-1.44.89-4H602.52a20.41,20.41,0,0,1-3,1.93,10.39,10.39,0,0,0-.94-1.5,18.58,18.58,0,0,0,7.64-7.25h-6.42V8.56h3.5A14.56,14.56,0,0,0,602,6l1.5-.59A11.85,11.85,0,0,1,605,8.14l-1,.42h3.08a24.6,24.6,0,0,0,1.33-3.29l1.76.5Q609.64,7.2,609,8.56h3.8c-.21,1.12-.43,2.43-.68,3.44h2.16c-.17,1.12-.41,2.43-.64,3.44Zm-16.31,6.25a6.85,6.85,0,0,0,2.14-3.86l1.5.5a7.8,7.8,0,0,1-2.26,4.25Zm6.08-3.36a13.12,13.12,0,0,1,.53,3.45l-1.56.21a13.34,13.34,0,0,0-.4-3.48Zm.6-4.81a24,24,0,0,1-1.73,1.92H612c.14-.57.27-1.24.38-1.92ZM608.16,18a14,14,0,0,1,1,3l-1.42.38a15.71,15.71,0,0,0-.93-3.09Zm0-7.86c-.35.64-.73,1.25-1.12,1.86h3.45c.14-.55.27-1.2.38-1.86Zm2.62,10.37a10.7,10.7,0,0,0-1.26-2.58l1.22-.42A10.36,10.36,0,0,1,612.13,20Z" transform="translate(-55.58 -5.1)" style="fill:#f6f6f6"/><path d="M637,12.85v1.94H619.67V12.85Z" transform="translate(-55.58 -5.1)" style="fill:#f6f6f6"/><path d="M644.62,18.93a13.24,13.24,0,0,1-2.81,3.82,9,9,0,0,0-1.41-1A9.43,9.43,0,0,0,643,18.48Zm5.09-.76h-9.25V16.63h1.77V9.23h-1.54V7.69h1.54V5.5h1.59V7.69h3V5.5h1.63V7.69h1.37V9.23h-1.37v7.4h1.29Zm-5.89-8.94v1.42h3V9.23Zm0,4.38h3V12h-3Zm0,3h3V15h-3ZM647,18.42a18,18,0,0,1,2.05,2.77l-1.42.86a19,19,0,0,0-2-2.89Zm10.26,2.22c0,.93-.21,1.45-.8,1.71a6.5,6.5,0,0,1-2.89.32,5.84,5.84,0,0,0-.51-1.67c.89,0,1.84,0,2.09,0s.4-.09.4-.4V16.41h-3.5a15,15,0,0,1-1.74,6.4,5.78,5.78,0,0,0-1.41-1c1.5-2.49,1.64-6,1.64-8.76V6.21h6.72Zm-1.71-5.83V12h-3.34v1c0,.55,0,1.16,0,1.77Zm-3.34-7v2.68h3.34V7.8Z" transform="translate(-55.58 -5.1)" style="fill:#f6f6f6"/><path d="M663.26,16.65c1.46-.55,2.32-1.42,2.41-2.56a1.14,1.14,0,0,1-.27,0,1.48,1.48,0,0,1-1.59-1.52,1.5,1.5,0,0,1,1.61-1.52c1.2,0,1.83.93,1.83,2.37a4.63,4.63,0,0,1-3.5,4.45Z" transform="translate(-55.58 -5.1)" style="fill:#f6f6f6"/><path d="M677.22,8.71a22.48,22.48,0,0,1-2.92,3.78,9.6,9.6,0,0,0-1.58-1,17.44,17.44,0,0,0,4.35-6.25l1.77.51c-.21.46-.44.93-.7,1.41H689.5V8.71Zm10.2,7.39c0,1-.11,1.88-.18,2.61h2.2v1.53H687a3.75,3.75,0,0,1-.53,1.69,1.74,1.74,0,0,1-1.42.78,16.79,16.79,0,0,1-2.47,0,3.48,3.48,0,0,0-.42-1.4c.91.07,1.71.09,2.09.09a.74.74,0,0,0,.68-.28,2.22,2.22,0,0,0,.33-.88H674.75c.25-1.14.48-2.6.71-4.14h-2.64V14.51h2.88c.19-1.43.36-2.85.48-4.09h11.44s0,.57,0,.8c0,1.24-.08,2.32-.12,3.29h2.68V16.1ZM677.24,16c-.13,1-.26,1.85-.38,2.67H682a15.83,15.83,0,0,0-2.92-1.91l.78-.76Zm.55-4.08c-.11.84-.22,1.73-.34,2.6h4.86a15.63,15.63,0,0,0-2.86-1.8l.83-.8Zm7.72,6.75c.07-.71.13-1.58.19-2.67h-5.27a14,14,0,0,1,3,2l-.67.69Zm.24-4.15c0-.78.06-1.65.08-2.6h-5.07a11.76,11.76,0,0,1,2.92,1.86l-.72.74Z" transform="translate(-55.58 -5.1)" style="fill:#f6f6f6"/><path d="M697.82,18.93A13.24,13.24,0,0,1,695,22.75a9,9,0,0,0-1.41-1,9.43,9.43,0,0,0,2.55-3.23Zm5.09-.76h-9.25V16.63h1.77V9.23h-1.54V7.69h1.54V5.5H697V7.69h3V5.5h1.63V7.69H703V9.23h-1.37v7.4h1.29ZM697,9.23v1.42h3V9.23Zm0,4.38h3V12h-3Zm0,3h3V15h-3Zm3.21,1.79a18,18,0,0,1,2,2.77l-1.42.86a19,19,0,0,0-2-2.89Zm10.26,2.22c0,.93-.21,1.45-.8,1.71a6.5,6.5,0,0,1-2.89.32,5.84,5.84,0,0,0-.51-1.67c.89,0,1.84,0,2.09,0s.4-.09.4-.4V16.41h-3.49a15.16,15.16,0,0,1-1.75,6.4,5.78,5.78,0,0,0-1.41-1c1.5-2.49,1.64-6,1.64-8.76V6.21h6.72Zm-1.71-5.83V12h-3.34v1c0,.55,0,1.16,0,1.77Zm-3.34-7v2.68h3.34V7.8Z" transform="translate(-55.58 -5.1)" style="fill:#f6f6f6"/><path d="M720.3,5.86a31.69,31.69,0,0,1-1.88,4V22.69h-1.68V12.49a22.36,22.36,0,0,1-1.63,2,13.11,13.11,0,0,0-1-1.79,20.91,20.91,0,0,0,4.5-7.31ZM732,21.08v1.33h-12.2V21.08H725v-1.2H721V18.61H725V17.53h-4.48V16.2H725v-.91h-4.21V11.35H725v-.8h-2.6V8.26h-2.37V6.93h2.37V5.29h1.66V6.93h3.66V5.29h1.71V6.93h2.43V8.26h-2.43v2.29h-2.7v.8h4.41v3.94h-4.41v.91h4.6v1.33h-4.6v1.08H731v1.27h-4.18v1.2Zm-7-7V12.55h-2.58v1.54Zm-.94-4.71h3.66V8.26H724.1Zm2.67,3.17v1.54h2.66V12.55Z" transform="translate(-55.58 -5.1)" style="fill:#f6f6f6"/><path d="M741.59,15l-2.18.69v5c0,.91-.17,1.41-.68,1.67a5.13,5.13,0,0,1-2.51.36,7.35,7.35,0,0,0-.51-1.71c.74,0,1.46,0,1.67,0s.34-.07.34-.34V16.16l-2.05.64-.4-1.7c.68-.18,1.52-.42,2.45-.69V10.63h-2.18V9h2.18V5.33h1.69V9h2.2v1.63h-2.2v3.31l1.94-.57Zm10.64-8.74s0,.48,0,.71c-.19,4.12-.38,5.73-.87,6.3a1.65,1.65,0,0,1-1.25.63,17.65,17.65,0,0,1-2.17,0,4.13,4.13,0,0,0-.49-1.67c.78.07,1.52.07,1.82.07a.71.71,0,0,0,.61-.21c.28-.3.45-1.46.61-4.27H746.9c-.38,2.83-1.32,5.17-4.34,6.55A4.5,4.5,0,0,0,741.48,13c2.57-1.09,3.33-3,3.63-5.17h-3V6.22Zm-9.55,8.69H752v7.73H750.2v-.78h-5.81v.85h-1.71Zm1.71,1.57v3.78h5.81V16.48Z" transform="translate(-55.58 -5.1)" style="fill:#f6f6f6"/><path d="M761.66,5.6h1.75V22.75h-1.75V17.7c-3.25,1.14-3.84,1.46-4.24,1.76a7.26,7.26,0,0,0-.68-1.61,1.42,1.42,0,0,0,.66-1.29V7.38h1.73v9.41l2.53-.8Zm10.81,5A21.58,21.58,0,0,1,770,17.87a11.16,11.16,0,0,0,3.89,3.36,5.38,5.38,0,0,0-1.21,1.43A12.43,12.43,0,0,1,769,19.37,12.74,12.74,0,0,1,765,22.79a7.36,7.36,0,0,0-1.16-1.46,10.9,10.9,0,0,0,4.23-3.5A24.8,24.8,0,0,1,766,13a10.1,10.1,0,0,1-1.25,1.92,12.86,12.86,0,0,0-1.26-1.5c1.62-1.88,2.57-4.92,3.08-8.15l1.81.31a31.29,31.29,0,0,1-.74,3.28h6.15v1.67Zm-5.57.4a22.08,22.08,0,0,0,2.07,5.3,19.12,19.12,0,0,0,1.73-5.7h-3.65Z" transform="translate(-55.58 -5.1)" style="fill:#f6f6f6"/><path d="M777,19.56l1.07-1.41a4.49,4.49,0,0,0,3.3,1.54c1.58,0,2.66-.87,2.66-2.31s-1-2.57-4.14-2.57V13.2c2.75,0,3.67-1,3.67-2.45a2,2,0,0,0-2.15-2A4.08,4.08,0,0,0,778.63,10l-1.14-1.37a5.92,5.92,0,0,1,4-1.69c2.5,0,4.27,1.3,4.27,3.61a3.38,3.38,0,0,1-2.41,3.29V14a3.55,3.55,0,0,1,2.89,3.5c0,2.53-2.11,4-4.68,4A5.83,5.83,0,0,1,777,19.56Z" transform="translate(-55.58 -5.1)" style="fill:#f6f6f6"/><path d="M790.1,14.18c0-4.84,1.77-7.2,4.52-7.2s4.53,2.38,4.53,7.2-1.79,7.3-4.53,7.3S790.1,19.05,790.1,14.18Zm7,0c0-4-1-5.47-2.44-5.47s-2.43,1.46-2.43,5.47,1,5.57,2.43,5.57S797.06,18.23,797.06,14.18Z" transform="translate(-55.58 -5.1)" style="fill:#f6f6f6"/><path d="M808.87,5.88A29.15,29.15,0,0,1,807,9.81V22.69h-1.78V12.59a16.74,16.74,0,0,1-1.56,1.88,12.28,12.28,0,0,0-1-1.79,20.48,20.48,0,0,0,4.5-7.31ZM820,20.26V22H808.17V20.26h6.59a69.17,69.17,0,0,0,1.71-9.14l1.85.31c-.52,2.87-1.24,6.4-1.92,8.83Zm-.7-9.93H808.93V8.62h10.36Zm-8,9.21a78,78,0,0,0-1.2-7.94l1.58-.36A75.76,75.76,0,0,1,813.07,19Zm2.16-11a18.15,18.15,0,0,0-.87-3l1.67-.42a24.74,24.74,0,0,1,1,2.93Z" transform="translate(-55.58 -5.1)" style="fill:#f6f6f6"/><path d="M833.65,5.75a4.39,4.39,0,0,1-.28.36,18.14,18.14,0,0,0,7.94,3.7,7.31,7.31,0,0,0-1.12,1.35c-.46-.13-1-.28-1.43-.45v4.92H825.92V10.84c-.48.17-.93.32-1.41.46a6.15,6.15,0,0,0-1-1.35c3.44-.88,6.8-2.53,8.53-4.75Zm5,4.94a19.05,19.05,0,0,1-3-1.35v.55h-6.57V9.43a19,19,0,0,1-2.75,1.26ZM827,16.39h10.83v6.25H836v-.52h-7.27v.59H827ZM829.58,12a7.73,7.73,0,0,1,1,2.09l-1.25.42h2.24V11.85h-4.12v2.62h1.82a8.15,8.15,0,0,0-.89-2.13Zm-.83,5.64v1H836v-1ZM836,20.93V19.86h-7.27v1.07Zm-1.5-12.26a13.06,13.06,0,0,1-2.09-1.59,13.83,13.83,0,0,1-2.07,1.59Zm2.68,3.18H833v2.62h2.12l-1.17-.36a13.53,13.53,0,0,0,.94-2.23l1.49.42c-.42.82-.84,1.62-1.18,2.17h2Z" transform="translate(-55.58 -5.1)" style="fill:#f6f6f6"/><path d="M856.43,19.54a54.18,54.18,0,0,1,5.6,2l-1.55,1.23a51.81,51.81,0,0,0-6-2.18l1.39-1h-5.49l1.33.89a23.39,23.39,0,0,1-5.89,2.3,10.1,10.1,0,0,0-1.33-1.27,22.41,22.41,0,0,0,5.28-1.92H846.5V11.31h13.56v8.23Zm2.89-9.14h-12V6h12Zm-11.08,3.27h10V12.59h-10Zm0,2.3h10v-1.1h-10Zm0,2.3h10V17.15h-10Zm9.22-10.91h-8.38V9h8.38Z" transform="translate(-55.58 -5.1)" style="fill:#f6f6f6"/><path d="M867.32,16.65c1.46-.55,2.32-1.42,2.41-2.56a1.1,1.1,0,0,1-.27,0,1.48,1.48,0,0,1-1.59-1.52,1.5,1.5,0,0,1,1.61-1.52c1.2,0,1.83.93,1.83,2.37a4.63,4.63,0,0,1-3.5,4.45Z" transform="translate(-55.58 -5.1)" style="fill:#f6f6f6"/><path d="M260.74,41.71a22.48,22.48,0,0,1-2.92,3.78,9.6,9.6,0,0,0-1.58-1,17.44,17.44,0,0,0,4.35-6.25l1.77.51c-.21.46-.44.93-.7,1.41H273v1.59Zm10.2,7.39c-.05,1-.11,1.88-.19,2.61H273v1.53h-2.4a3.75,3.75,0,0,1-.53,1.69,1.74,1.74,0,0,1-1.42.78,16.79,16.79,0,0,1-2.47,0,3.48,3.48,0,0,0-.42-1.4c.91.07,1.71.09,2.09.09a.74.74,0,0,0,.68-.28,2.22,2.22,0,0,0,.33-.88H258.27c.25-1.14.48-2.6.71-4.14h-2.64V47.51h2.88c.19-1.43.36-2.85.48-4.09h11.43s0,.57,0,.8c0,1.24-.08,2.32-.12,3.29h2.68V49.1ZM260.76,49c-.13,1-.26,1.85-.38,2.67h5.11a15.83,15.83,0,0,0-2.92-1.91l.78-.76Zm.55-4.08c-.11.84-.23,1.73-.34,2.6h4.86a15.63,15.63,0,0,0-2.86-1.8l.83-.8ZM269,51.71c.07-.71.13-1.58.19-2.67H264a14,14,0,0,1,3,2l-.67.69Zm.24-4.15c0-.78.06-1.65.08-2.6h-5.07a11.76,11.76,0,0,1,2.92,1.86l-.72.74Z" transform="translate(-55.58 -5.1)" style="fill:#f6f6f6"/><path d="M283.33,38.88a29.15,29.15,0,0,1-1.84,3.93V55.69h-1.78V45.59a16.74,16.74,0,0,1-1.56,1.88,12.28,12.28,0,0,0-1-1.79,20.48,20.48,0,0,0,4.5-7.31Zm11.12,14.38V55H282.63V53.26h6.59a69.17,69.17,0,0,0,1.71-9.14l1.85.31c-.52,2.87-1.24,6.4-1.92,8.83Zm-.71-9.93H283.39V41.62h10.35Zm-8,9.21a75.06,75.06,0,0,0-1.19-7.94l1.57-.36A73.39,73.39,0,0,1,287.53,52Zm2.17-11a18.15,18.15,0,0,0-.87-3l1.67-.42A24.74,24.74,0,0,1,289.7,41Z" transform="translate(-55.58 -5.1)" style="fill:#f6f6f6"/><path d="M308.11,38.75a4.57,4.57,0,0,1-.29.36,18.23,18.23,0,0,0,7.95,3.7,7.36,7.36,0,0,0-1.13,1.35c-.45-.13-.95-.28-1.42-.45v4.92H300.38V43.84c-.48.17-.93.32-1.41.46A6.15,6.15,0,0,0,298,43c3.44-.88,6.8-2.53,8.53-4.75Zm5,4.94a19.05,19.05,0,0,1-3-1.35v.55h-6.57v-.46a19,19,0,0,1-2.75,1.26Zm-11.68,5.7h10.83v6.25h-1.81v-.52h-7.27v.59h-1.75ZM304,45a7.73,7.73,0,0,1,1,2.09l-1.25.42H306V44.85h-4.12v2.62h1.82a8.15,8.15,0,0,0-.89-2.13Zm-.83,5.64v1h7.27v-1Zm7.27,3.33V52.86h-7.27v1.07ZM309,41.67a12.62,12.62,0,0,1-2.09-1.59,13.83,13.83,0,0,1-2.07,1.59Zm2.68,3.18h-4.22v2.62h2.13l-1.18-.36a12.77,12.77,0,0,0,.95-2.23l1.49.42c-.42.82-.84,1.62-1.18,2.17h2Z" transform="translate(-55.58 -5.1)" style="fill:#f6f6f6"/><path d="M330.89,52.54a54.18,54.18,0,0,1,5.6,2l-1.55,1.23a51.81,51.81,0,0,0-6-2.18l1.39-1h-5.49l1.33.89a23.39,23.39,0,0,1-5.89,2.3A10.1,10.1,0,0,0,319,54.46a22.41,22.41,0,0,0,5.28-1.92H321V44.31h13.57v8.23Zm2.89-9.14h-12V39h12ZM322.7,46.67h10V45.59h-10Zm0,2.3h10v-1.1h-10Zm0,2.3h10V50.15h-10Zm9.22-10.91h-8.38V42h8.38Z" transform="translate(-55.58 -5.1)" style="fill:#f6f6f6"/><path d="M357.05,41.37h-2.26v12c0,1.14-.28,1.73-1.08,2a13,13,0,0,1-4,.34,7.61,7.61,0,0,0-.74-1.9c1.45.08,3,.06,3.48.06s.55-.13.55-.53v-12H340.18V39.6h16.87ZM343.75,51v1.48H342V43.86h7.83V51Zm0-5.47v3.8h4.37v-3.8Z" transform="translate(-55.58 -5.1)" style="fill:#f6f6f6"/><path d="M376.57,46.42a8.25,8.25,0,0,0-.42-.85c-1.94.15-3,.23-3.69.3a20.62,20.62,0,0,0,6,2.57,8.15,8.15,0,0,0-1.12,1.38,18.8,18.8,0,0,1-8-4.61A16.83,16.83,0,0,1,361.75,50a9.18,9.18,0,0,0-1-1.39,16.17,16.17,0,0,0,5.68-2.7l-.06-.13c-3.28.19-3.85.27-4.2.4a10.89,10.89,0,0,0-.55-1.43,1.38,1.38,0,0,0,.71-.47,9.78,9.78,0,0,0,1.48-2.07l1.58.66A13.63,13.63,0,0,1,364,44.54l1.8-.07c-.17-.29-.32-.54-.49-.78l1.25-.4a13.22,13.22,0,0,1,1,1.63A9.69,9.69,0,0,0,369,43l1.61.47c-.09.19-.21.38-.32.57a9.08,9.08,0,0,0,.76.76l-.06-.13a1.13,1.13,0,0,0,.61-.46,6.71,6.71,0,0,0,1.12-1.94l1.58.65a13.69,13.69,0,0,1-1.11,1.58l2.13-.12a9.73,9.73,0,0,0-.68-.85l1.25-.53a12.06,12.06,0,0,1,2,2.86Zm-2-3.89a10.65,10.65,0,0,0-.83-.87c-8.48.36-9.43.34-10.13.57a11,11,0,0,0-.49-1.47,3.8,3.8,0,0,0,1.19-.47,15.63,15.63,0,0,0,3.25-2.13l1.56.8a27.63,27.63,0,0,1-2.56,1.63l5.75-.17a18,18,0,0,0-1.56-1.16l1.32-.64a25.12,25.12,0,0,1,3.91,3.17Zm1,8.68c-2.39,2.53-6.73,3.88-11.53,4.54a4.67,4.67,0,0,0-.82-1.42c4.58-.52,8.82-1.66,10.9-3.82Zm-2.24-1.92a20.94,20.94,0,0,1-8.3,3.57,5.72,5.72,0,0,0-.92-1.25c2.89-.55,6.16-1.61,7.87-3Zm-2.11-1.8a20.21,20.21,0,0,1-6.06,2.83,6.39,6.39,0,0,0-1-1.08,18.4,18.4,0,0,0,5.76-2.4Z" transform="translate(-55.58 -5.1)" style="fill:#f6f6f6"/><path d="M390.38,41.69s0,.63,0,.88c-.34,8.11-.63,11-1.31,11.85a1.87,1.87,0,0,1-1.35.84,12.84,12.84,0,0,1-2.11,0,4.71,4.71,0,0,0-.51-1.8c.74.06,1.4.08,1.75.08a.73.73,0,0,0,.66-.35c.48-.57.8-3.07,1.07-9.8h-2.32c-.23,4.75-.91,9.33-3.23,12.27a5.65,5.65,0,0,0-1.41-1.25c2.13-2.58,2.72-6.72,2.89-11h-2.43V41.69h2.49c0-1.12,0-2.26,0-3.34h1.78c0,1.08,0,2.22,0,3.34Zm7.92-1.14V55.26h-1.82V54h-3.17v1.37h-1.75V40.55Zm-1.82,11.8V42.26h-3.17V52.35Z" transform="translate(-55.58 -5.1)" style="fill:#f6f6f6"/><path d="M420,45.85v1.94H402.69V45.85Z" transform="translate(-55.58 -5.1)" style="fill:#f6f6f6"/><path d="M429.65,50.58h-6V48.82h6Zm-.49-7.73h-5.07V41.14h5.07ZM435,45.42V46c.82,3.86,2.58,6.84,6,8a5.86,5.86,0,0,0-1.19,1.58,9.83,9.83,0,0,1-5.36-6,10.59,10.59,0,0,1-5.72,6.18,6.32,6.32,0,0,0-1.31-1.43c5.26-2.56,5.72-6.38,5.72-9V43.8H435Zm-3.15-2.25a17.42,17.42,0,0,1-2,4,12.35,12.35,0,0,0-1.78-1c1.52-1.8,2.58-4.79,3.15-7.81l1.94.36c-.19,1-.44,1.87-.71,2.76h6.35l.36-.1,1.27.73a25.73,25.73,0,0,1-2,5.28c-.36-.19-1.07-.55-1.49-.74a24.9,24.9,0,0,0,1.26-3.41Z" transform="translate(-55.58 -5.1)" style="fill:#f6f6f6"/><path d="M461.23,41.05v4h-1.75V42.55H446.83v2.54h-1.67v-4h2.75a12.6,12.6,0,0,0-1.25-1.92l1.54-.63a10.78,10.78,0,0,1,1.59,2.28l-.59.27h3V38.29h1.76v2.76h2.85l-.41-.15a15.68,15.68,0,0,0,1.52-2.46l1.86.57c-.52.73-1.08,1.45-1.56,2ZM446.47,48.8H460v6.93h-1.78v-.45H448.16v.49h-1.69Zm1.69,1.31V51.4h4.08V50.11ZM452.24,54V52.64h-4.08V54Zm5.89-10.22v4.12h-9.91V43.73ZM456.37,45h-6.5v1.5h6.5Zm1.88,5.07H454V51.4h4.28Zm0,3.84V52.64H454V54Z" transform="translate(-55.58 -5.1)" style="fill:#f6f6f6"/><path d="M473.09,44a18.48,18.48,0,0,1-6.75,4.22,7,7,0,0,0-1.12-1.35,17.8,17.8,0,0,0,6-3.17H465.7v-1.5h7.39V40.61c-2,.15-4,.25-5.82.29a4.81,4.81,0,0,0-.4-1.41A71.87,71.87,0,0,0,479,38.35l1.47,1.25a43.92,43.92,0,0,1-5.64.88v1.69h7.52v1.5h-5.19a43.34,43.34,0,0,1,5.57,3.68l-1.14,1.24A48.61,48.61,0,0,0,474.82,44v2.57h-1.73Zm1.82,6.5h7.45V52h-7.45v1.88c0,.93-.23,1.35-1,1.6a14.42,14.42,0,0,1-3.49.22,7.63,7.63,0,0,0-.61-1.53c1.25,0,2.52,0,2.87,0s.45-.09.45-.34V52h-7.5V50.47h7.5V49.39a21.36,21.36,0,0,0,2.21-.93h-6.48V47.07h8.62l.38-.1,1.08.94a19.23,19.23,0,0,1-4.08,2.18Z" transform="translate(-55.58 -5.1)" style="fill:#f6f6f6"/><path d="M503.07,41.24s0,.61,0,.83c-.27,8.57-.5,11.52-1.26,12.47a2.14,2.14,0,0,1-1.65.89,20.88,20.88,0,0,1-2.87,0,3.89,3.89,0,0,0-.57-1.71c1.22.09,2.32.11,2.8.11a.83.83,0,0,0,.79-.32c.61-.63.86-3.5,1.11-10.66h-4.49A18.5,18.5,0,0,1,495.18,46a9.25,9.25,0,0,0-1.38-1v8.72h-5.15v1.44H487V41.33h2.13a22.3,22.3,0,0,0,.67-3.08l1.92.33c-.33,1-.69,2-1,2.75h3v3.59a18.17,18.17,0,0,0,2.83-6.67l1.71.4c-.23.88-.48,1.75-.78,2.59Zm-14.42,1.63v3.61h3.53V42.87Zm3.53,9.35V48h-3.53v4.2Zm6.33-1.48a30.63,30.63,0,0,0-2.78-4.39l1.39-.78A33.76,33.76,0,0,1,500,49.8Z" transform="translate(-55.58 -5.1)" style="fill:#f6f6f6"/><path d="M512.91,49.39l.32,1.61c-2,.84-4,1.69-5.68,2.36L507,51.55c.65-.21,1.41-.49,2.26-.8V44.52h-2.11V42.85h2.11V38.52h1.58v4.33h2v1.67h-2v5.65Zm11.59-3.75v1.6H512.8v-1.6h7A24.57,24.57,0,0,0,521,42l1.64.43c-.38,1.07-.84,2.27-1.24,3.21ZM523.87,42H513.52V40.4h4.41a17.22,17.22,0,0,0-.5-1.94l1.6-.26a21.63,21.63,0,0,1,.61,2.2h4.23Zm-9.5,6.7H523v7h-1.67V55H516v.74h-1.62Zm1.31-3.11a12,12,0,0,0-.93-3.06l1.45-.44a14.93,14.93,0,0,1,1,3Zm.31,4.69v3.16h5.34V50.26Z" transform="translate(-55.58 -5.1)" style="fill:#f6f6f6"/><path d="M544.43,42.32s0,.63,0,.87c-.42,7.7-.78,10.51-1.61,11.48a2.28,2.28,0,0,1-1.75.87,21.48,21.48,0,0,1-3,0,4.51,4.51,0,0,0-.63-1.82c1.26.11,2.42.11,2.89.11a1,1,0,0,0,.87-.28c.65-.61,1.05-3.21,1.37-9.43h-5.94c-.29,3.92-1.58,8.52-7,11.71a7.67,7.67,0,0,0-1.36-1.43,12.21,12.21,0,0,0,6.46-10.28H528.8v-1.8h6v-4h1.86v4Z" transform="translate(-55.58 -5.1)" style="fill:#f6f6f6"/><path d="M566.13,52.58v1.77h-17V52.58h7.42V42.17h-6.42V40.34h15v1.83h-6.61V52.58Z" transform="translate(-55.58 -5.1)" style="fill:#f6f6f6"/><path d="M580.78,45.74v.15h5.47s0,.53,0,.78c-.23,5.41-.44,7.47-1,8.15a1.83,1.83,0,0,1-1.47.72,21.68,21.68,0,0,1-2.62,0,3.89,3.89,0,0,0-.57-1.75c1,.1,2,.12,2.4.12a.93.93,0,0,0,.74-.25c.36-.4.59-2,.78-6.14H580.7a10.48,10.48,0,0,1-4.88,8.21,7.05,7.05,0,0,0-1.33-1.21A9.7,9.7,0,0,0,579,45.7V43.23h-2.92V44.6H574v5.09l2.25-.82.32,1.66c-2.22.85-4.62,1.78-6.46,2.47l-.42-1.83c.72-.22,1.62-.55,2.61-.89V44.6H570V42.93h2.28V38.6H574v4.33h2V41.54H587.2v1.69h-6.42Zm.47-4.29a23.67,23.67,0,0,0-.85-2.91l1.67-.36c.32.89.76,2.07.93,2.79Z" transform="translate(-55.58 -5.1)" style="fill:#f6f6f6"/><path d="M592.58,49.65c1.46-.55,2.32-1.42,2.41-2.56a1.14,1.14,0,0,1-.27,0,1.48,1.48,0,0,1-1.59-1.52,1.5,1.5,0,0,1,1.61-1.52c1.2,0,1.83.93,1.83,2.37a4.63,4.63,0,0,1-3.5,4.45Z" transform="translate(-55.58 -5.1)" style="fill:#f6f6f6"/><path d="M619.25,53.15V55H602.38v-1.8h5.49V43.61h-5V41.86h4.08a14.27,14.27,0,0,0-1.61-2.94l1.57-.59a12.36,12.36,0,0,1,1.81,3.14l-.93.39h5.49l-.38-.13a19.74,19.74,0,0,0,1.84-3.46l2,.56c-.61,1.06-1.29,2.18-1.9,3h4v1.75h-5.13v9.54Zm-14-7.9A22,22,0,0,1,607,51.12l-1.71.45a22,22,0,0,0-1.67-5.91Zm4.41,7.9h2.26V43.61h-2.26Zm4.67-2a34.62,34.62,0,0,0,1.94-6l1.9.44a57.38,57.38,0,0,1-2.24,6Z" transform="translate(-55.58 -5.1)" style="fill:#f6f6f6"/><path d="M640.15,52.18h-7.56V54c0,.91-.26,1.31-1,1.52a15.83,15.83,0,0,1-3.58.21,6.22,6.22,0,0,0-.62-1.46c1.19.06,2.58,0,2.88,0s.48-.1.48-.38V52.18h-7.45v-1.5h7.45v-1h0l0,0a27.24,27.24,0,0,0,3.23-1h-8.89V47.34H636.3v0h.47l.42-.08,1.12,1a27.5,27.5,0,0,1-5.72,2.18v.25h7.56Zm-.26-10.85H623.47v-1.5h7.32c-.16-.45-.36-.93-.55-1.35l1.82-.32a12.36,12.36,0,0,1,.72,1.67h7.11Zm-14.1,5v-4h12v4Zm1.75-1.26h8.34V43.67h-8.34Z" transform="translate(-55.58 -5.1)" style="fill:#f6f6f6"/><path d="M650.76,42.32c-.33.65-.65,1.29-1,1.9h9v9.46c0,1-.19,1.48-.87,1.75a10,10,0,0,1-3.31.28A6.42,6.42,0,0,0,654,54c1.12.06,2.26.06,2.59,0s.42-.09.42-.38V52h-7.66a6.91,6.91,0,0,1-2,3.84,6.55,6.55,0,0,0-1.28-1.39c1.6-1.46,1.75-3.53,1.75-5.3V46.94a14.69,14.69,0,0,1-2.75,2.54,10.65,10.65,0,0,0-1.16-1.37,15.37,15.37,0,0,0,4.88-5.79h-4.47V40.67h5.21a21.48,21.48,0,0,0,.8-2.38l1.8.42c-.21.65-.42,1.31-.68,2h9.46v1.65ZM657,50.55V48.89H649.6v.33c0,.41,0,.87-.06,1.33Zm0-4.77H649.6v1.63H657Z" transform="translate(-55.58 -5.1)" style="fill:#f6f6f6"/><path d="M682.18,45.85v1.94H664.89V45.85Z" transform="translate(-55.58 -5.1)" style="fill:#f6f6f6"/><path d="M689.63,46a10.21,10.21,0,0,1-2.93,2.17,6.22,6.22,0,0,0-1-1.12,9.85,9.85,0,0,0,3.36-2.2h-2.51v-3.4h3.08v-.82h-3.57V39.36h3.57V38.29h1.56v1.07h3.46v1.29h-3.46v.82h3.06v1.44a9.6,9.6,0,0,0,2.62-4.62l1.57.38a14.73,14.73,0,0,1-.56,1.66h5v1.42h-1.24a9.42,9.42,0,0,1-1.8,3.48,9.73,9.73,0,0,0,3.29,1.69,6.85,6.85,0,0,0-1,1.37,9.61,9.61,0,0,1-3.36-2,11,11,0,0,1-3.52,2,6.6,6.6,0,0,0-1-1.28,9.67,9.67,0,0,0,3.48-1.76A12.91,12.91,0,0,1,696.35,43a11.2,11.2,0,0,1-1,1.14A8.73,8.73,0,0,0,694.25,43v1.87H692a10.89,10.89,0,0,1,2.26,1.44l-.74,1a12.24,12.24,0,0,0-2.3-1.56V48h-1.56Zm5.6,7.74H703v1.48H685.85V53.76h3v-3h1.67v3h3V49.9h-6.42V48.44h14.7V49.9h-6.54v1.22h5.17v1.34h-5.17Zm-7.29-10h1.69V42.57h-1.69Zm3.25-1.19v1.19h1.59V42.57Zm.57,2.3h-.57v.66Zm5.45-3.12a9.68,9.68,0,0,0,1.54,2.41A7.17,7.17,0,0,0,700,41.75Z" transform="translate(-55.58 -5.1)" style="fill:#f6f6f6"/><path d="M723.87,51.53H717.2v4.2h-1.83v-4.2h-8.64V49.82h3.06v-5h5.58V42.19H711a17.15,17.15,0,0,1-2.73,3.61,12.29,12.29,0,0,0-1.54-1.14,15.35,15.35,0,0,0,4.14-6.44l1.79.47c-.23.59-.5,1.22-.74,1.79h11v1.71H717.2v2.62h5.3v1.65h-5.3v3.36h6.67Zm-8.5-1.71V46.46h-3.81v3.36Z" transform="translate(-55.58 -5.1)" style="fill:#f6f6f6"/><path d="M730.8,45.13c0,3.08-.22,7.58-1.8,10.58a7.94,7.94,0,0,0-1.6-.79c1.52-2.85,1.67-6.94,1.67-9.79V40.08h7.17a11.65,11.65,0,0,0-.63-1.46l1.77-.42a15.9,15.9,0,0,1,.87,1.88h6.42v1.63H730.8Zm12.52,4.5a9,9,0,0,1-3.66,3.61,24.61,24.61,0,0,0,5.28.95,8.31,8.31,0,0,0-1,1.52,22.49,22.49,0,0,1-6.29-1.52,26.8,26.8,0,0,1-6.36,1.43,5.44,5.44,0,0,0-.72-1.5,25.53,25.53,0,0,0,5.2-.9A10.07,10.07,0,0,1,733,50.81l.74-.28h-2.3V49.12h10.47l.3-.06Zm-9.27-1.52v-3h-2.81V43.65h2.81V42.19h1.67v1.46h4.11V42.19h1.73v1.46h2.9v1.43h-2.9v3Zm.74,2.42a8.78,8.78,0,0,0,2.91,2,9.18,9.18,0,0,0,3-2Zm.93-5.45v1.67h4.11V45.08Z" transform="translate(-55.58 -5.1)" style="fill:#f6f6f6"/><path d="M765.27,41.24s0,.61,0,.83c-.27,8.57-.5,11.52-1.26,12.47a2.14,2.14,0,0,1-1.65.89,20.88,20.88,0,0,1-2.87,0,3.89,3.89,0,0,0-.57-1.71c1.22.09,2.32.11,2.8.11a.82.82,0,0,0,.79-.32c.61-.63.86-3.5,1.11-10.66h-4.49A18.5,18.5,0,0,1,757.38,46a9.25,9.25,0,0,0-1.38-1v8.72h-5.15v1.44h-1.62V41.33h2.13a22.3,22.3,0,0,0,.67-3.08l1.92.33c-.33,1-.69,2-1,2.75h3v3.59a18.17,18.17,0,0,0,2.83-6.67l1.71.4c-.23.88-.48,1.75-.78,2.59Zm-14.42,1.63v3.61h3.53V42.87Zm3.53,9.35V48h-3.53v4.2Zm6.33-1.48a30.63,30.63,0,0,0-2.78-4.39l1.39-.78a33.76,33.76,0,0,1,2.87,4.23Z" transform="translate(-55.58 -5.1)" style="fill:#f6f6f6"/><path d="M786.41,53v1.74H769.64V53h4.52c.34-1.66.7-3.67,1.06-5.74h-3.38V45.55h3.67c.19-1.27.36-2.53.53-3.72H770.8V40.1h14.32v1.73H778c-.17,1.19-.36,2.45-.55,3.72h4.18l.34-.08,1.37.12c-.14,2.13-.38,5-.67,7.43Zm-9.29-5.74c-.34,2.09-.7,4.1-1,5.74h4.69c.23-1.9.42-4.07.53-5.74Z" transform="translate(-55.58 -5.1)" style="fill:#f6f6f6"/><path d="M800.3,45.38c1.3,3.95,3.69,7.16,7.28,8.66a6.81,6.81,0,0,0-1.31,1.65c-3.55-1.65-5.85-4.73-7.33-8.75a13.12,13.12,0,0,1-7.34,8.75,6,6,0,0,0-1.35-1.48,11.79,11.79,0,0,0,7.13-8.83h-6.75V43.55h7.07a47.27,47.27,0,0,0,.23-5.24h1.92a47.66,47.66,0,0,1-.27,5.24h7.66v1.83Z" transform="translate(-55.58 -5.1)" style="fill:#f6f6f6"/><path d="M816.49,48.55c-.23-.49-.64-1.35-1.08-2.11v9.29h-1.54V46.84A21.33,21.33,0,0,1,811.76,52a10.76,10.76,0,0,0-.83-1.79,20.14,20.14,0,0,0,2.69-6.66H811.4V41.88h2.47V38.29h1.54v3.59h1.92v1.64h-1.92v.91c.44.57,1.75,2.43,2.05,2.89Zm7.39,5.24h4.49v1.32h-8.5v.64H818.3V50c-.33.33-.65.67-1,.95a8.17,8.17,0,0,0-.89-1.44,10.71,10.71,0,0,0,2.86-3.61h-1.51V42.21h4.48v3.72h-2.15l.72.25c-.19.38-.4.79-.62,1.17h2.09c-.1-.32-.21-.64-.33-.93l1.52-.4c.16.4.34.9.5,1.33h4v1.16h-4.12v1h3.37v1.18h-3.37v1h3.37v1.2h-3.37ZM820.31,41h-3.17V39.7h3.17V38.29h1.54v3.57h-1.54Zm-1.2,3.76h1.79V43.35h-1.79Zm3.23,4.69v-1h-2.47v1Zm0,1.18h-2.47v1h2.47Zm-2.47,3.13h2.47v-1h-2.47Zm7.83-7.86h-4.56V42.21h4.56Zm.8-6.23V41h-3.4v.82h-1.54V38.29h1.54V39.7Zm-2.17,3.65h-1.86v1.44h1.86Z" transform="translate(-55.58 -5.1)" style="fill:#f6f6f6"/><path d="M849.29,53.59v1.55H832.13V53.59h2.34V47.87H847v5.72Zm-.35-10.09H832.43V41.94h4.72A19.65,19.65,0,0,0,835.34,39l1.5-.67a14.27,14.27,0,0,1,2,3.1l-1,.51h5.85l-1-.38a20.86,20.86,0,0,0,1.86-3.25l1.79.53a29.78,29.78,0,0,1-2.08,3.1h4.77Zm-10,1.4a30.43,30.43,0,0,1-5.49,3.31,7.51,7.51,0,0,0-1.07-1.43,21.27,21.27,0,0,0,5.34-2.73Zm-3,8.69h2V49.37h-2Zm3.63-4.22v4.22h2V49.37Zm3.54-5.3A51.85,51.85,0,0,1,849,46.48l-1,1.41a47.91,47.91,0,0,0-5.76-2.57Zm.11,5.3v4.22h2V49.37Z" transform="translate(-55.58 -5.1)" style="fill:#f6f6f6"/><path d="M856.91,44.07a3,3,0,1,1-3,3A3,3,0,0,1,856.91,44.07Zm0,4.79A1.83,1.83,0,1,0,855.08,47,1.83,1.83,0,0,0,856.91,48.86Z" transform="translate(-55.58 -5.1)" style="fill:#f6f6f6"/><path d="M63.81,87.44H59.06v1H57.41V81.74a7.92,7.92,0,0,1-.65.55A6.12,6.12,0,0,0,55.58,81,13,13,0,0,0,60,74.9l1.5.46c-.08.23-.17.43-.27.66a42.77,42.77,0,0,1,4,4.6L64,81.8l-.21-.32ZM60.14,72.15A16.22,16.22,0,0,1,57,76.65a10.07,10.07,0,0,0-1.3-1.08,12.09,12.09,0,0,0,2.8-3.9Zm3.25,8.77a42.14,42.14,0,0,0-2.83-3.36,16.08,16.08,0,0,1-2.34,3.36Zm-1.24,1.6H59.06v3.34h3.09Zm1.54-6.69a28.43,28.43,0,0,0-2.64-3.44l1.33-.77a27.4,27.4,0,0,1,2.7,3.32Zm3.23.29a14,14,0,0,1-1.57,3.27,8.28,8.28,0,0,0-1.5-1,16.19,16.19,0,0,0,2.46-7.17l1.73.29c-.17,1-.38,2-.62,2.94h4.44l.27,0,1.2.32a41.76,41.76,0,0,1-1.11,5l-1.42-.4c.23-.82.44-2,.63-3.21Zm2.74.55c-.06,1-.15,1.88-.25,2.77.67,3.73,1.69,6,3.92,7.91a4.49,4.49,0,0,0-1.2,1.4,12.41,12.41,0,0,1-3.44-5.62,10,10,0,0,1-3.53,5.6,6.81,6.81,0,0,0-1.22-1.31c2.85-2.07,3.82-5.74,4.08-10.94Z" transform="translate(-55.58 -5.1)" style="fill:#f6f6f6"/><path d="M93,73.63a28.63,28.63,0,0,1-6.53,5.15v7.81c0,1.08-.29,1.61-1.11,1.86a13.6,13.6,0,0,1-4,.3,5.6,5.6,0,0,0-.7-1.78c1.48,0,3,0,3.4,0s.55-.11.55-.45V77.88a22.84,22.84,0,0,0,4.85-3.43H77.85V72.7H91.19l.39-.1Z" transform="translate(-55.58 -5.1)" style="fill:#f6f6f6"/><path d="M110.34,73.71a6,6,0,0,1-3.59,5,4.88,4.88,0,0,0-.84-1.1v9.29c0,.76-.15,1.25-.66,1.52a6.77,6.77,0,0,1-2.53.26,5.66,5.66,0,0,0-.55-1.48c.91,0,1.71,0,1.94,0s.34-.09.34-.34v-3.1h-4.22a11.23,11.23,0,0,1-1.46,5A6.67,6.67,0,0,0,97.51,88c1.28-2,1.41-4.79,1.41-6.91V78l-.17.21a12.27,12.27,0,0,0-1.29-1,13.72,13.72,0,0,0,2.87-5.93l1.61.36c-.13.46-.27.92-.42,1.37h2l.24-.07,1,.64a23.2,23.2,0,0,1-1.14,2.51h2.26v1.37a4.59,4.59,0,0,0,2.79-3.74h-2.35V72.24h8.26s0,.42,0,.61c-.13,3.08-.3,4.35-.7,4.81a1.45,1.45,0,0,1-1.08.53,11.63,11.63,0,0,1-1.92,0,4.22,4.22,0,0,0-.4-1.46,14.63,14.63,0,0,0,1.54.07.5.5,0,0,0,.51-.17c.21-.23.34-1,.44-2.94Zm-9.35.66c-.25.59-.51,1.18-.8,1.71h1.94a15.19,15.19,0,0,0,.7-1.71Zm-.64,6.71c0,.43,0,.89,0,1.36h1.46V80.53h-1.44Zm0-1.87h1.44v-1.8h-1.44Zm2.67,0h1.43v-1.8H103Zm1.43,3.23V80.53H103v1.91Zm10.67,2.85h-3.45v3.35H110V85.29h-3.77V83.75H110v-2h-1.87a8.88,8.88,0,0,1-.89,1.69,8.39,8.39,0,0,0-1.33-.7,10.64,10.64,0,0,0,1.63-4.18l1.47.31c-.1.45-.21.91-.34,1.36H110V78.36h1.67v1.82h3.09V81.7h-3.09v2h3.45Z" transform="translate(-55.58 -5.1)" style="fill:#f6f6f6"/><path d="M128.07,82.69a5.91,5.91,0,0,1-1.58,3c2.43,1,5.62,1.16,9.65,1.2a4.38,4.38,0,0,0-.74,1.75c-4.26-.15-7.71-.48-10.37-1.79a16.35,16.35,0,0,1-5.29,1.92,7.31,7.31,0,0,0-1.08-1.56,17.88,17.88,0,0,0,4.71-1.38,9.48,9.48,0,0,1-2.2-2.45l1.54-.61a7.7,7.7,0,0,0,2.13,2.09,4.42,4.42,0,0,0,1.34-2.15h-5.47V75.21h5.76V73.84H119v-1.6h16.43v1.6h-7.16v1.37h6v7.48Zm-5.68-4.43h4.08V76.65h-4.08Zm4,3a7.16,7.16,0,0,0,0-.93v-.69h-4.08v1.62Zm6.1-1.62h-4.22v.71a6.85,6.85,0,0,1,0,.91h4.26Zm-4.22-3v1.61h4.22V76.65Z" transform="translate(-55.58 -5.1)" style="fill:#f6f6f6"/><path d="M156.58,80.3c-2.64,5.64-9,7.75-15.88,8.49a6,6,0,0,0-.7-1.71,30.85,30.85,0,0,0,8.57-1.82,23,23,0,0,0-2.38-2.11c-.83.43-1.75.85-2.73,1.25A5.26,5.26,0,0,0,142.35,83a16.58,16.58,0,0,0,7.91-5.15l1.93.44A15.12,15.12,0,0,1,151,79.67h4.06l.31-.08Zm-2.66-6.78c-2.41,4.27-7.86,6.7-13,7.73a6.93,6.93,0,0,0-.84-1.56,26.22,26.22,0,0,0,6-1.75,15.38,15.38,0,0,0-2.27-2c-.62.34-1.29.7-2,1a5.37,5.37,0,0,0-1.2-1.27,16.25,16.25,0,0,0,6.52-4.47l1.92.44a11.2,11.2,0,0,1-1.18,1.22h4.54l.3-.1Zm-7.82,1c-.29.22-.59.43-.9.62a20.66,20.66,0,0,1,2.49,2,13,13,0,0,0,3.5-2.67Zm3.07,6.78c-.45.36-1,.7-1.48,1a23.05,23.05,0,0,1,2.55,2.17,10.71,10.71,0,0,0,3.7-3.21Z" transform="translate(-55.58 -5.1)" style="fill:#f6f6f6"/><path d="M162.68,71.12h6.12v1.64h-4.35V83.34h-1.77Z" transform="translate(-55.58 -5.1)" style="fill:#f6f6f6"/><path d="M181.7,80.2A11,11,0,0,0,189.3,87a6.79,6.79,0,0,0-1.2,1.64,12.31,12.31,0,0,1-7.61-7c-1,2.66-3.06,5.26-7.6,7a6.57,6.57,0,0,0-1.16-1.5c4.63-1.78,6.5-4.42,7.22-7h-6.67V78.4h7a15,15,0,0,0,.09-1.85V74.48H173V72.66h14.92v1.82h-6.65v2.09c0,.57,0,1.2-.08,1.83h7.51v1.8Z" transform="translate(-55.58 -5.1)" style="fill:#f6f6f6"/><path d="M201.9,74.47v3.21l.32-.38a43.9,43.9,0,0,1,6.61,3.87l-1.29,1.62a41.09,41.09,0,0,0-5.64-3.65v9.55H200V74.47H193V72.66h16.78v1.81Z" transform="translate(-55.58 -5.1)" style="fill:#f6f6f6"/><path d="M220.25,79.25a13.62,13.62,0,0,1-5.39,8.32,8.08,8.08,0,0,0-1.41-1.33A11,11,0,0,0,218,80.49h-4.14V78.82h4.9l.31-.06Zm10.17-1.54a46.36,46.36,0,0,1-4.83,3.94A11.75,11.75,0,0,0,231.08,86a8.07,8.07,0,0,0-1.23,1.55,13.2,13.2,0,0,1-6.58-6.63v5.65c0,1-.22,1.52-.91,1.8a9.47,9.47,0,0,1-3.32.32,6.31,6.31,0,0,0-.63-1.76c1.05,0,2.2,0,2.53,0s.43-.11.43-.43V76.82h-5V75.13h6.91v1.52a19,19,0,0,0,1.49,3.65,29.41,29.41,0,0,0,4-3.76Zm-5.51-2.33A32.93,32.93,0,0,0,218,72.79l.88-1.46a32.65,32.65,0,0,1,7,2.39Z" transform="translate(-55.58 -5.1)" style="fill:#f6f6f6"/><path d="M236.59,83.75a26.39,26.39,0,0,1-.93,4.87,7.71,7.71,0,0,0-1.33-.46,21.49,21.49,0,0,0,.88-4.65Zm3.08-.77c0-.31-.11-.65-.19-1-3.55.53-4.12.67-4.5.87a10,10,0,0,0-.49-1.46c.39-.11.79-.57,1.34-1.29a20,20,0,0,0,1.33-2,9,9,0,0,0-2.31.42,13.15,13.15,0,0,0-.5-1.44c.34-.08.63-.46,1-1a22.88,22.88,0,0,0,2.19-4.77l1.48.61a29.61,29.61,0,0,1-2.53,4.89l1.6-.14c.43-.82.89-1.71,1.27-2.56l1.37.8a36.06,36.06,0,0,1-3.84,6l2.32-.31c-.16-.57-.33-1.16-.5-1.67l1.22-.32a28,28,0,0,1,1,4Zm-1.38.49a40.51,40.51,0,0,1,.49,4.35l-1.31.25a37.65,37.65,0,0,0-.4-4.39Zm1.65-.47a32.59,32.59,0,0,1,1,3.45l-1.2.38a28.44,28.44,0,0,0-.93-3.51Zm8.17,3c1.35.47,2.77,1,3.7,1.46l-.72,1.25c-1-.47-2.6-1.19-4-1.73l.57-1h-3.08l1,1c-1.44.66-3.29,1.36-4.62,1.86a7.51,7.51,0,0,0-.66-1.24A34.22,34.22,0,0,0,244.17,86H241.4V80.41h9.42V86Zm-2.76-12.58h-4.67v-1.2h4.67v-.93h1.73v.93h4.45v1.2h-4.45v.84h3.78V75.4h-9.44V74.26h3.93ZM240.77,76h10.68v3.65H240.77Zm1.47,2.51H244V77.18h-1.78Zm.74,3.53h6.21V81.4H243Zm0,1.45h6.21v-.71H243Zm0,1.5h6.21v-.76H243Zm4-6.48V77.18h-1.65v1.37Zm2.89-1.37h-1.54v1.37h1.54Z" transform="translate(-55.58 -5.1)" style="fill:#f6f6f6"/><path d="M265.36,71.75a4.57,4.57,0,0,1-.29.36,18.23,18.23,0,0,0,7.95,3.7,7.36,7.36,0,0,0-1.13,1.35c-.45-.13-.95-.28-1.42-.45v4.92H257.63V76.84c-.48.17-.93.32-1.41.46a6.15,6.15,0,0,0-1-1.35c3.44-.88,6.8-2.53,8.53-4.75Zm5,4.94a19.05,19.05,0,0,1-3-1.35v.55h-6.57v-.46A19,19,0,0,1,258,76.69Zm-11.68,5.7h10.83v6.25h-1.81v-.52h-7.27v.59h-1.75ZM261.29,78a7.73,7.73,0,0,1,1,2.09l-1.25.42h2.24V77.85h-4.12v2.62H261a8.15,8.15,0,0,0-.89-2.13Zm-.83,5.64v1.05h7.27V83.6Zm7.27,3.33V85.86h-7.27v1.07Zm-1.5-12.26a12.62,12.62,0,0,1-2.09-1.59,13.83,13.83,0,0,1-2.07,1.59Zm2.68,3.18h-4.22v2.62h2.13l-1.18-.36a12.77,12.77,0,0,0,.95-2.23l1.49.42c-.42.82-.84,1.62-1.18,2.17h2Z" transform="translate(-55.58 -5.1)" style="fill:#f6f6f6"/><path d="M281.81,88.9H275.7V87.27h4.35V76.69h1.76Z" transform="translate(-55.58 -5.1)" style="fill:#f6f6f6"/><path d="M289.53,82.65c1.46-.55,2.32-1.42,2.41-2.56a1.14,1.14,0,0,1-.27,0,1.48,1.48,0,0,1-1.59-1.52,1.5,1.5,0,0,1,1.61-1.52c1.2,0,1.83.93,1.83,2.37a4.63,4.63,0,0,1-3.5,4.45Z" transform="translate(-55.58 -5.1)" style="fill:#f6f6f6"/><path d="M305.7,75.83h-6.56v-1.4h6.56Zm-.54,2.43H299.6V76.9h5.56Zm-5.54,1.2h5.56v1.37h-5.56Zm5.53,8.21h-4v.8h-1.5V82.08h5.49Zm-4-4.18v2.75h2.47V83.49Zm1-9.12a18.33,18.33,0,0,0-.91-2.58l1.48-.44a17.85,17.85,0,0,1,1,2.49ZM315.46,87c0,.78-.17,1.2-.72,1.43a6.79,6.79,0,0,1-2.57.24,5.57,5.57,0,0,0-.49-1.42c.8,0,1.58,0,1.81,0s.32-.08.32-.29V85.75h-5.57a6.35,6.35,0,0,1-1.37,3.17,5.77,5.77,0,0,0-1.23-1.14,7.3,7.3,0,0,0,1.23-4.71V79.65h8.59Zm1-9.67v1.33h-10.6V77.35h4.33V76.29h-3.63V75h3.63v-1h-4.09v-1.3h4.09V71.31h1.71v1.46h4.35v1.3h-4.35v1h4v1.25h-4v1.06Zm-2.66,7.2V83.38h-5.34c0,.36,0,.77-.06,1.17ZM308.47,81v1.16h5.34V81Z" transform="translate(-55.58 -5.1)" style="fill:#f6f6f6"/><path d="M327.34,78.34s0,.51,0,.72c-.17,5.85-.36,7.92-.86,8.59a1.52,1.52,0,0,1-1.16.68,9.75,9.75,0,0,1-1.8.06,4.4,4.4,0,0,0-.44-1.6c.61,0,1.1.06,1.39.06a.59.59,0,0,0,.55-.26c.3-.42.46-2.09.63-6.65H323.5c-.23,3.66-.8,6.68-2.45,8.73a6.16,6.16,0,0,0-1.29-1.31c1.93-2.39,2.09-6.44,2.14-11.41h-1.71V74.31h3.59a11,11,0,0,0-1.4-2.48L324,71.2a12,12,0,0,1,1.53,2.6l-1.29.51h3.73V76h-4.3c0,.81,0,1.63-.05,2.39Zm6.19-6.67c-.11.38-.23.78-.38,1.16a12.53,12.53,0,0,0,4.46,4.92,8,8,0,0,0-1.29,1.43,13.9,13.9,0,0,1-3.93-4.62,13.15,13.15,0,0,1-4,4.77,5.7,5.7,0,0,0-1.23-1.43,11.57,11.57,0,0,0,4.73-6.7Zm-3.32,12a32.14,32.14,0,0,1,5.26,3.25l-1.18,1.52A29.51,29.51,0,0,0,329.07,85Zm3.3-1.27a22.56,22.56,0,0,0-3.25-2.7l1.16-1.12a24.19,24.19,0,0,1,3.31,2.51Z" transform="translate(-55.58 -5.1)" style="fill:#f6f6f6"/><path d="M350.1,74.47v3.21l.32-.38A43.9,43.9,0,0,1,357,81.17l-1.29,1.62a41.09,41.09,0,0,0-5.64-3.65v9.55h-1.88V74.47h-7.05V72.66H358v1.81Z" transform="translate(-55.58 -5.1)" style="fill:#f6f6f6"/><path d="M369.14,76.17c-.06.9-.12,1.81-.23,2.7H377a7.25,7.25,0,0,1-.07.8c-.36,5.24-.72,7.33-1.48,8.11a2.58,2.58,0,0,1-1.81.74,27.09,27.09,0,0,1-3.21,0,3.48,3.48,0,0,0-.63-1.73c1.35.11,2.64.13,3.18.13a1.35,1.35,0,0,0,.91-.23c.53-.44.87-2.2,1.18-6.08h-6.41c-.6,3.27-2,6.33-5.51,8.23a5.33,5.33,0,0,0-1.29-1.45c4.71-2.39,5.15-7,5.34-11.19h-5V74.45h8.13a18.51,18.51,0,0,0-1.19-2.66l1.73-.65a19.21,19.21,0,0,1,1.34,2.76l-1.27.55h7.81v1.72Z" transform="translate(-55.58 -5.1)" style="fill:#f6f6f6"/><path d="M399.17,81.68a37.18,37.18,0,0,1-3.53,2.45,11.17,11.17,0,0,0,4.54,2.51A7.77,7.77,0,0,0,399,88.18a12.46,12.46,0,0,1-7.86-8,17.22,17.22,0,0,1-2.72,2.29v3.77L392.81,85a9.6,9.6,0,0,0,.3,1.56c-5.3,1.63-6.06,1.88-6.55,2.22a5.69,5.69,0,0,0-.76-1.59,1.45,1.45,0,0,0,.82-1.35V83.6A21.54,21.54,0,0,1,383.67,85a8.17,8.17,0,0,0-1.17-1.42,19.75,19.75,0,0,0,6.45-3.5H383.1V78.53h7.32V77.11h-5.59V75.68h5.59V74.35h-6.54V72.83h6.54V71.31h1.76v1.52H399v1.52h-6.77v1.33h6v1.43h-6v1.42h7.38v1.52h-6.67a11.89,11.89,0,0,0,1.74,3,20.47,20.47,0,0,0,3.08-2.45Z" transform="translate(-55.58 -5.1)" style="fill:#f6f6f6"/><path d="M420.13,73.71a13,13,0,0,1-3.44,4.61,15.54,15.54,0,0,0,4.45,1.75,6.47,6.47,0,0,0-.63,1.63,17.21,17.21,0,0,1-5.13-2.35,20.69,20.69,0,0,1-5.49,2.56,6.41,6.41,0,0,0-.61-1.14l-.19.23c-.24-.51-.74-1.41-1.21-2.2v9.93h-1.67V80.11a19.08,19.08,0,0,1-2,4.88,10,10,0,0,0-.86-1.77,19.44,19.44,0,0,0,2.66-6.7h-2.24V74.88h2.49V71.31h1.67v3.57h1.92v1.26A12.58,12.58,0,0,0,413,71.2l1.56.43a14,14,0,0,1-.65,1.49h4.85L419,73Zm-10.31,6.4A19.59,19.59,0,0,0,414,78.25a10.87,10.87,0,0,1-1.88-2.15,14.84,14.84,0,0,1-1.37,1.54,9.1,9.1,0,0,0-.93-1.29v.17h-1.92v.23c.47.47,2,2.43,2.32,2.9Zm1,1.56h8.59v7H417.7v-1h-5.17v1h-1.67Zm1.67,1.55v2.91h5.17V83.22Zm.52-8.55,0,0a9.59,9.59,0,0,0,2.28,2.62,10.31,10.31,0,0,0,2.41-2.66Z" transform="translate(-55.58 -5.1)" style="fill:#f6f6f6"/><path d="M441.87,85.24h-3.69a25,25,0,0,1,3.54,2.3l-1.16,1.19a25,25,0,0,0-3.76-2.54l.95-1H434.1l1.23.87a23,23,0,0,1-4.52,2.6,8.9,8.9,0,0,0-1.12-1.19,19.89,19.89,0,0,0,4-2.28h-3.57V84.12c-1.79.74-3.71,1.52-5.21,2.1l-.64-1.76c.62-.19,1.38-.44,2.2-.72V77.43h-2V75.76h2V71.52h1.67v4.24h2.05v1.67h-2.05v5.72l1.86-.71.25,1.3h1.48V75.47h2.77c.08-.36.14-.72.21-1.12h-3.91V72.93H435c.08-.55.15-1.1.19-1.58l1.88.08c-.09.47-.21,1-.32,1.5h4.67v1.42h-5c-.1.4-.19.76-.31,1.12h4.18v8.27h1.6Zm-8.57-8.57v1h5.36v-1Zm5.36,2H433.3v1h5.36Zm-5.36,3h5.36v-1H433.3Zm0,2.09h5.36V82.65H433.3Z" transform="translate(-55.58 -5.1)" style="fill:#f6f6f6"/><path d="M461.59,82.44s0,.44,0,.67c-.19,3.15-.4,4.46-.87,5a1.83,1.83,0,0,1-1.29.53,16.93,16.93,0,0,1-2.32,0,3.7,3.7,0,0,0-.49-1.54,19.46,19.46,0,0,0,2,.09.83.83,0,0,0,.65-.17c.24-.25.41-1.14.55-3.19h-9.83A15.11,15.11,0,0,1,446.43,86a8.92,8.92,0,0,0-1-1.37,12,12,0,0,0,4.89-3.23h-2.06V75.91a28.45,28.45,0,0,0,4.37-1.24l1.07,1.11a27.5,27.5,0,0,1-3.88,1v1h3.44v1.21h-3.44v1.07h8.42V79.06h-3.4V77.85h3.4v-1H454.5V75.59h5.32v5.79h-7.56a10.77,10.77,0,0,1-.83,1.06Zm.51-9.7v3.55h-1.67v-2H447.61v2H446V72.74h7a11.84,11.84,0,0,0-.51-1.07l1.8-.49a12,12,0,0,1,.8,1.56ZM447.78,87.59a9.8,9.8,0,0,0,1.63-3.28l1.41.57a13.34,13.34,0,0,1-1.63,3.4Zm5-3.09a11.21,11.21,0,0,1,.64,3.3L452,88a11.9,11.9,0,0,0-.55-3.32Zm2.28-.14a9.92,9.92,0,0,1,1.16,2.81l-1.33.38a10.67,10.67,0,0,0-1.09-2.84Zm2.52,2.32a8.75,8.75,0,0,0-1.44-2l1.16-.52a8.08,8.08,0,0,1,1.48,2Z" transform="translate(-55.58 -5.1)" style="fill:#f6f6f6"/><path d="M471.07,78.38c.67.68,2.36,2.68,2.74,3.17L472.74,83a25,25,0,0,0-1.67-2.59v8.32h-1.69V80.34a18.85,18.85,0,0,1-2.47,5,10.71,10.71,0,0,0-.87-1.61,19.19,19.19,0,0,0,3.11-6.79h-2.67V75.26h2.9v-4h1.69v4h2.55v1.67h-2.55Zm11.95-6V88.49h-1.76v-1h-5.17v1.12H474.4V72.36ZM476.09,74v2.79h5.17V74Zm0,7.29h5.17V78.44h-5.17Zm5.17,4.52v-2.9h-5.17v2.9Z" transform="translate(-55.58 -5.1)" style="fill:#f6f6f6"/><path d="M494.82,80.92c.34.67.74,1.56.93,2.06l-.74.28h.25V85c0,1.44-.34,2.79-2.72,3.63a4,4,0,0,0-.8-1,3.09,3.09,0,0,0,2-1.33h-2.36V83.57h1.14v1.69H494v-2h.77c0-.17-.13-.34-.19-.53a17.15,17.15,0,0,0-3.53.49,10,10,0,0,0-.34-1.08,2.2,2.2,0,0,0,1-.49,10.53,10.53,0,0,0,1-.88,6.43,6.43,0,0,0-1.59.23,5.87,5.87,0,0,0-.36-1.1,1.32,1.32,0,0,0,.6-.34A8.68,8.68,0,0,0,492.66,78h-3V88.75H488V72.05h7V78h-2l.71.36a13.77,13.77,0,0,1-1.41,1.6l1.23-.06c.27-.3.54-.61.78-.93l.93.64A21,21,0,0,1,492.68,82l1.57-.14c-.11-.24-.23-.49-.32-.7Zm-5.11-7.61v1.17h3.73V73.31Zm0,3.44h3.73V75.62h-3.73Zm14.06,9.87c0,.92-.15,1.43-.7,1.71a5.8,5.8,0,0,1-2.61.34A6.05,6.05,0,0,0,500,87c.76,0,1.56,0,1.79,0s.34-.1.34-.37V78h-3.91l.72.38a14.27,14.27,0,0,1-1.37,1.58l1.2-.06a9.22,9.22,0,0,0,.81-.95l.93.65A22.69,22.69,0,0,1,497.79,82l1.55-.13a6.15,6.15,0,0,0-.34-.68l.88-.31a14.07,14.07,0,0,1,1,2.08l-.91.36c-.06-.18-.15-.38-.25-.63a15.61,15.61,0,0,0-3.55.53,5.28,5.28,0,0,0-.32-1.06,2.55,2.55,0,0,0,1-.55,11.1,11.1,0,0,0,1-.88,4.77,4.77,0,0,0-1.59.25c-.08-.25-.23-.8-.36-1.1a1.26,1.26,0,0,0,.61-.34,7.38,7.38,0,0,0,1.27-1.6h-1.18V72.05h7.2Zm-4.65.23V86.3H497.6v2.17h-1.28V83.26h1.28v2h1.52V83.57h1.19v3.28Zm-.88-13.54v1.17h3.84V73.31Zm3.84,3.44V75.62h-3.84v1.13Z" transform="translate(-55.58 -5.1)" style="fill:#f6f6f6"/><path d="M519.9,74.14a1.91,1.91,0,0,1,0,.46c1,1,3.06,1.69,5.57,1.84a5.22,5.22,0,0,0-.95,1.44,9.18,9.18,0,0,1-5.09-2.09c-.69.88-2.19,1.7-5.45,2.15a4.79,4.79,0,0,0-.9-1.31h-4.82V75.24h5.51V76.5c4.12-.53,4.56-1.6,4.56-2.42v-.24h-1.58a9.08,9.08,0,0,1-1.39,1.77,7.37,7.37,0,0,0-1.33-.9,7.8,7.8,0,0,0,2.19-3.49l1.57.34c-.11.32-.22.63-.36,1h5.93l.25-.08,1.21.4a17,17,0,0,1-1.65,2.81l-1.39-.49a13.23,13.23,0,0,0,.8-1.31H519.9Zm-.15,11.51a49.77,49.77,0,0,1,5.36,2.08l-1.6,1a37.26,37.26,0,0,0-5.11-2.14l1.1-.9h-5.68l1.58.73a26,26,0,0,1-5.81,2.37,14.92,14.92,0,0,0-1.31-1.33,20.32,20.32,0,0,0,5.47-1.77h-3.06V78h12.38v7.63Zm-6.48-12h-4.65V72.34h4.65Zm-.87,6.55h8.91V79.14H512.4Zm0,2.13h8.91V81.29H512.4Zm0,2.18h8.91v-1.1H512.4Z" transform="translate(-55.58 -5.1)" style="fill:#f6f6f6"/><path d="M535.9,75.87h-6.82v-1.4h3.23A21.28,21.28,0,0,0,531,71.9l1.27-.7a18.37,18.37,0,0,1,1.31,2.49l-1.25.78h3.55Zm-6.06,2.51V77h5.38v1.39Zm0,1.12h5.4v1.37h-5.4Zm5.4,8.13h-4v.86h-1.39V82.06h5.4Zm-4-4.14v2.72h2.6V83.49Zm13.26-11.17c-.14,7-.16,14.1.74,14.36a8.48,8.48,0,0,0,.3-2.47,9.27,9.27,0,0,0,1,1.35c-.23,2.7-1,3.31-2,2.89-1.85-.65-1.81-7-1.79-14.46h-2.81v5.36h2.22V81h-2.22v7.75h-1.65V81H535.9V79.35h2.36V74h-2.13V72.32Z" transform="translate(-55.58 -5.1)" style="fill:#f6f6f6"/><path d="M551.73,82.65c1.46-.55,2.32-1.42,2.41-2.56a1.14,1.14,0,0,1-.27,0,1.48,1.48,0,0,1-1.59-1.52,1.5,1.5,0,0,1,1.61-1.52c1.2,0,1.83.93,1.83,2.37a4.63,4.63,0,0,1-3.5,4.45Z" transform="translate(-55.58 -5.1)" style="fill:#f6f6f6"/><path d="M566.62,80.24a23.28,23.28,0,0,1-1.82,5c.3.19.65.46,1.14.76,1.29.8,3,.92,5.24.92a68.61,68.61,0,0,0,7.6-.44,6.73,6.73,0,0,0-.51,1.82c-1.48.1-4.92.21-7.16.21-2.47,0-4.09-.21-5.47-1-.76-.44-1.45-1.11-1.85-1.11s-1.08,1.24-1.57,2.4L561,87.17A6.87,6.87,0,0,1,563.28,85a17.57,17.57,0,0,0,1.33-3.57H562c.47-1.11,1-2.63,1.54-4.07H561.3v-1.6h4.43c-.44,1.32-1,2.84-1.5,4.13h1.35l.26-.08.78.34V78.74h4.75V76.29h-4.25v-1.6h2.6a30.79,30.79,0,0,0-1.5-2.75l1.5-.59c.55.87,1.27,2.07,1.63,2.79l-1.25.55h3.4a22.09,22.09,0,0,0,1.71-3.4l1.79.55c-.55,1-1.16,2-1.71,2.85h2.56v1.6H573.2v2.45h5.24v1.61h-5.17c1.62,1.47,3.63,3.27,4.68,4.39L576.69,86a57.65,57.65,0,0,0-4.16-4.18A8.89,8.89,0,0,1,567.8,86a8,8,0,0,0-1.23-1.34c3.07-1.2,4.19-2.82,4.57-4.34h-4.52Zm-3.15-5.15c-.21-.81-.68-2.11-1-3.09l1.62-.46c.32,1,.79,2.2,1,3Z" transform="translate(-55.58 -5.1)" style="fill:#f6f6f6"/><path d="M598.39,80.7v8h-2v-1H583.25v-7h2v5.2h4.6V79.59h-5.66V73H586v4.93h3.8V71.31h2v6.57h3.91V73h2v6.64h-5.87V85.9h4.65V80.7Z" transform="translate(-55.58 -5.1)" style="fill:#f6f6f6"/><path d="M608.73,75.76a21.27,21.27,0,0,1-1.58,2.58V88.77h-1.67V80.41a15.16,15.16,0,0,1-1.54,1.48,8.48,8.48,0,0,0-1-1.59,16.55,16.55,0,0,0,4.2-5.07Zm-.38-3.88a19.64,19.64,0,0,1-4.28,4.58,8.08,8.08,0,0,0-.93-1.29,14.82,14.82,0,0,0,3.61-3.88Zm10.5,9.56a10.35,10.35,0,0,1-3.4,4.33,18.07,18.07,0,0,0,4.75,1.46,7.14,7.14,0,0,0-1.06,1.54,16.89,16.89,0,0,1-5.26-2,18.55,18.55,0,0,1-5.38,2,6.61,6.61,0,0,0-.86-1.5,18.43,18.43,0,0,0,4.7-1.48,15.41,15.41,0,0,1-1.75-1.58,11.66,11.66,0,0,1-1.35,1.14,9.75,9.75,0,0,0-1.2-1.31,8.87,8.87,0,0,0,1.5-1.14,13.48,13.48,0,0,1-.95-1.52l1.45-.48a6.92,6.92,0,0,0,.59,1,13.23,13.23,0,0,0,1.55-2.1,12.54,12.54,0,0,0-3.32.38,11.45,11.45,0,0,0-.51-1.64,6.65,6.65,0,0,0,2.11-.89c.4-.21,1.16-.67,2.09-1.27a12,12,0,0,0-3.25.32,15.76,15.76,0,0,0-.59-1.69,3.92,3.92,0,0,0,1.27-.65,19.23,19.23,0,0,0,3.21-2.92l1.75.78a25.9,25.9,0,0,1-3.4,2.83l3-.08A26.86,26.86,0,0,0,616.86,73l1.61.89A39.56,39.56,0,0,1,612,78.32l5-.28c-.34-.48-.71-1-1-1.35l1.39-.72a34,34,0,0,1,3,4.1l-1.46.84a12.58,12.58,0,0,0-.93-1.54l-3.9.26a10.53,10.53,0,0,1-.79,1.37h4.18l.3-.08Zm-6.59,1a6.53,6.53,0,0,1-.59.71,11.64,11.64,0,0,0,2.22,1.78,8.77,8.77,0,0,0,2.61-2.49Z" transform="translate(-55.58 -5.1)" style="fill:#f6f6f6"/><path d="M625.83,82.65c1.46-.55,2.31-1.42,2.41-2.56a1.14,1.14,0,0,1-.27,0,1.48,1.48,0,0,1-1.59-1.52A1.5,1.5,0,0,1,628,77.07c1.2,0,1.83.93,1.83,2.37a4.63,4.63,0,0,1-3.5,4.45Z" transform="translate(-55.58 -5.1)" style="fill:#f6f6f6"/><path d="M639.6,71.31h1.64V88.73H639.6V82.22h-1.74v.26c0,1.6-.19,4.39-1.39,6.29a7.75,7.75,0,0,0-1.31-.85,11.5,11.5,0,0,0,1.16-5.5v-.2h-1V80.68h4.27V78.21h-3.47V72.05h1.54v4.62h1.93ZM652.69,82.5h-2.32v4c0,.91-.17,1.42-.79,1.69a8.92,8.92,0,0,1-3.06.3,6,6,0,0,0-.52-1.71c1,0,2,0,2.3,0s.4-.08.4-.34v-4h-6.87V80.94h.83a6.63,6.63,0,0,0-.87-1.27,14.9,14.9,0,0,0,5.43-2.47,14.15,14.15,0,0,0-2.17-2.35,16.09,16.09,0,0,1-2.58,1.46,7.87,7.87,0,0,0-1.08-1.08,12.88,12.88,0,0,0,5.3-3.94l1.71.46a10.67,10.67,0,0,1-.95,1.1h3.34l.29-.06,1.08.54c-1.62,4.1-5.36,6.44-9.35,7.61h5.89V78.46h1.67v2.48h2.32Zm-6.91-4.92c-1.31.23-2.57.42-3.69.61l-.28-1.27c1-.12,2.39-.33,3.87-.54Zm-1.37,5.15a14,14,0,0,1,2.39,3l-1.44.89A15.18,15.18,0,0,0,643,83.53Zm1.79-8.63a13.7,13.7,0,0,1,2.1,2.17A7.73,7.73,0,0,0,650,74.1Z" transform="translate(-55.58 -5.1)" style="fill:#f6f6f6"/><path d="M663.11,75.32c-.33.65-.65,1.29-1,1.9h9v9.46c0,.95-.19,1.48-.87,1.75a10,10,0,0,1-3.31.28,6.42,6.42,0,0,0-.55-1.71c1.12.06,2.26.06,2.59,0s.42-.09.42-.38V85H661.7a6.91,6.91,0,0,1-2,3.84,6.55,6.55,0,0,0-1.28-1.39c1.6-1.46,1.75-3.53,1.75-5.3V79.94a14.44,14.44,0,0,1-2.76,2.54,9.83,9.83,0,0,0-1.15-1.37,15.37,15.37,0,0,0,4.88-5.79h-4.47V73.67h5.21a21.48,21.48,0,0,0,.8-2.38l1.8.42c-.21.65-.42,1.31-.68,2h9.46v1.65Zm6.25,8.23V81.89H662v.33c0,.41,0,.87-.06,1.33Zm0-4.77H662v1.63h7.41Z" transform="translate(-55.58 -5.1)" style="fill:#f6f6f6"/><path d="M694.42,84.61H690V87c0,.83-.17,1.29-.86,1.54a11.3,11.3,0,0,1-3.11.22,6.47,6.47,0,0,0-.55-1.52c1,0,2.12,0,2.41,0s.38-.09.38-.32V84.61H682a15.2,15.2,0,0,1,2.59,2.07l-1.3,1.14a15.51,15.51,0,0,0-3-2.47l.86-.74H677.3V83.18h11v-1c-3.8.09-7.49.17-10.18.2l-.06-1.32c1.82,0,4.25,0,6.9,0v-.9h-5.67V74.9H685V74h-7.13V72.64H685V71.31h1.72v1.33h7V74h-7v.89h5.86v5.26h-1.77a16,16,0,0,1,2.94,1.71l-1,.95c-.27-.22-.61-.45-1-.7l-1.65,0v1h4.39ZM681,77h4V76h-4Zm4,2.07v-1h-4v1Zm1.72-3V77h4.13V76Zm4.13,2h-4.13v1h4.13Zm-4.13,3,3.06,0a9.57,9.57,0,0,0-1.16-.49l.44-.37h-2.34Z" transform="translate(-55.58 -5.1)" style="fill:#f6f6f6"/><path d="M709.94,85.54a54.18,54.18,0,0,1,5.6,2L714,88.75a51.81,51.81,0,0,0-6-2.18l1.39-1H703.9l1.33.89a23.39,23.39,0,0,1-5.89,2.3A10.1,10.1,0,0,0,698,87.46a22.41,22.41,0,0,0,5.28-1.92H700V77.31h13.57v8.23Zm2.89-9.14h-12V72h12Zm-11.08,3.27h10V78.59h-10Zm0,2.3h10v-1.1h-10Zm0,2.3h10V83.15h-10ZM711,73.36h-8.37V75H711Z" transform="translate(-55.58 -5.1)" style="fill:#f6f6f6"/><path d="M736.23,84.34H719.1V82.71h1.8l-.34-9.9a30,30,0,0,0,3.54-1.4l.81,1.42a26.87,26.87,0,0,1-2.71.89l0,2h2.36v1.46h-2.3l.08,2h2.29V80.7h-2.26l.08,2h10.33c0-.59.08-1.25.12-2h-2.24V79.29H733c0-.66,0-1.35.06-2h-2.24V75.79h2.28c0-.68,0-1.38,0-2.05h-2.51V72.21h4.12c0,3.34-.11,7.69-.28,10.5h1.74ZM726,85.56a32.9,32.9,0,0,1-5.72,3.13,11.4,11.4,0,0,0-1-1.33,21.33,21.33,0,0,0,5.26-2.92Zm1.35-7.07a9.63,9.63,0,0,1-1.09,3.42,8.77,8.77,0,0,0-1.16-.72,6.35,6.35,0,0,0,.88-2.91Zm1.12-.89h-3V71.44H727V73h3v1.47h-3v1.74h2.32v0h.59v4.88c0,.67-.14,1-.57,1.16a5.59,5.59,0,0,1-2.07.21,4.35,4.35,0,0,0-.42-1.14c.61,0,1.16,0,1.33,0s.25,0,.25-.21Zm6.15,11a38.36,38.36,0,0,0-5.28-3l1-1.26a50.26,50.26,0,0,1,5.45,3Z" transform="translate(-55.58 -5.1)" style="fill:#f6f6f6"/><path d="M742.47,76.44A16.48,16.48,0,0,1,740.85,78a9.34,9.34,0,0,0-1.12-1.41,16.17,16.17,0,0,0,4.47-5.33l1.56.53a20.7,20.7,0,0,1-1.6,2.58v7.83h-1.69ZM740,87.19a20.1,20.1,0,0,0,1.86-4.08l1.56.64A33.18,33.18,0,0,1,741.61,88Zm11.12-.41c1,0,1.13-.27,1.25-2.15a4.22,4.22,0,0,0,1.61.64c-.22,2.51-.76,3.12-2.73,3.12h-4.14c-2.44,0-3.06-.49-3.06-2.22v-3.1h1.76v3.06c0,.55.23.65,1.41.65Zm-2.93-12.31a13.77,13.77,0,0,1-1.9,2.41,7.72,7.72,0,0,0-1.31-1.1,10.64,10.64,0,0,0,2.89-4.47l1.61.4A12.48,12.48,0,0,1,749,73h6.55l.27,0,1.23.3c-.47,1.12-1,2.43-1.5,3.25l-1.5-.32c.23-.44.51-1.07.76-1.67ZM749.4,77a12.32,12.32,0,0,1-2.66,3.93,12.74,12.74,0,0,0-1.31-1,8.76,8.76,0,0,0,2.36-3.33Zm.06,8.63a15,15,0,0,0-2.55-3.29l1.37-.74a15,15,0,0,1,2.66,3.17Zm2.79-3.52h-1.69v-7h1.69Zm2.24-5.58a16.51,16.51,0,0,1,2.32,3.64l-1.48.78a20.44,20.44,0,0,0-2.26-3.76Zm.48,6.23A17.6,17.6,0,0,1,757,87l-1.69.67a17.23,17.23,0,0,0-1.94-4.35Z" transform="translate(-55.58 -5.1)" style="fill:#f6f6f6"/><path d="M766.54,73.67V88.73h-1.48v-3.4l-4,.72-.34-1.57,1.06-.15V73.67h-.83v-1.6h6.29v1.6Zm-1.48,0H763.2V76h1.86Zm0,3.82H763.2v2.39h1.86Zm0,6.34V81.34H763.2V84.1Zm6.59-6.71c.34,1,.76,2.34.93,3.12l-1.1.36c-.06-.26-.13-.61-.23-.95-3.21.4-3.68.51-4,.67a16,16,0,0,0-.38-1.56,2.69,2.69,0,0,0,1.11-.91,16.64,16.64,0,0,0,1.06-1.39,5.18,5.18,0,0,0-1.65.3c-.06-.36-.27-1.15-.4-1.61a1.71,1.71,0,0,0,.76-.65,15.64,15.64,0,0,0,1.69-3.09l1.31.57a22.23,22.23,0,0,1-2.09,3.36l1.2-.06a16.89,16.89,0,0,0,1-1.65l1.2.63a29.26,29.26,0,0,1-3.23,4.46l2.13-.21c-.1-.4-.23-.76-.34-1.12Zm.34,3.54v2.87a5.4,5.4,0,0,1-3.36,5.32,5.13,5.13,0,0,0-1-1.22A4.31,4.31,0,0,0,770.34,85h-2.56V80.66h1.44v2.85h1.31V80.66Zm5.25-.17c-.08-.27-.19-.63-.29-1-3.19.49-3.68.63-4,.8a15.64,15.64,0,0,0-.38-1.54,2,2,0,0,0,1-.89,11,11,0,0,0,1.06-1.52,5,5,0,0,0-1.86.34c-.07-.34-.26-1.1-.4-1.52.25,0,.48-.27.75-.61a14.14,14.14,0,0,0,1.67-3l1.17.59a20.8,20.8,0,0,1-1.9,3.12l1.28-.08c.26-.48.55-1,.78-1.52l1.17.61a29.07,29.07,0,0,1-2.77,4.4l2-.26c-.13-.4-.28-.78-.41-1.14l1-.32a28,28,0,0,1,1.18,3.13Zm-1.33.3h1.44v4.86h-1.44V85H774.6v3.76h-1.52V80.64h1.52v2.83h1.31Z" transform="translate(-55.58 -5.1)" style="fill:#f6f6f6"/><path d="M788,86.13a21.27,21.27,0,0,1-4.86,2.18c-.28-.26-.87-.79-1.22-1a17.64,17.64,0,0,0,4.54-1.71Zm3.54-.95V87c0,.76-.19,1.16-.92,1.37a10,10,0,0,1-3.05.25,5.07,5.07,0,0,0-.65-1.43c1.08,0,2.15,0,2.45,0s.4-.08.4-.27V85.31c-4.86.33-5.6.4-6.16.59a10.08,10.08,0,0,0-.45-1.29,12.51,12.51,0,0,0,2.51-.59c.51-.15,1.55-.49,2.77-1a17.49,17.49,0,0,0-3.65.42,6.55,6.55,0,0,0-.43-1.18,4.47,4.47,0,0,0,1.21-.38,17.78,17.78,0,0,0,2.79-1.5h-5.71v-1.8H784v.89h1.45V78.36H782v-.91h3.46V77H782.6V73.57h2.81V73h-3.27v-.89h3.27v-.88h1.5v.88h3.34V73h-3.34v.53h2.91V77h-2.91v.5h3.48v.91h-3.48v1.12h1.63v-.89h1.39v1.8h-.47l.66.38a22.59,22.59,0,0,1-2.43,1.29l3.51-.2c.78-.37,1.56-.75,2.28-1.14l1.14,1a43.12,43.12,0,0,1-6.15,2.55l5.89-.34c-.38-.27-.8-.5-1.18-.73l1.18-.7a22,22,0,0,1,4,2.81l-1.27.8a14,14,0,0,0-1.37-1.2Zm-7.62-10.3h1.52v-.57h-1.52Zm1.52,1.33v-.6h-1.52v.6Zm1.5-1.9v.57h1.56v-.57Zm1.56,1.3h-1.56v.6h1.56Zm9.32.32a6.45,6.45,0,0,1-2.29,3,12.81,12.81,0,0,0,3.51.85A5.58,5.58,0,0,0,798.1,81a12.2,12.2,0,0,1-4-1.29,14.09,14.09,0,0,1-3.25,1,4.13,4.13,0,0,0-.7-1.17,12.92,12.92,0,0,0,2.74-.69A6.82,6.82,0,0,1,791.37,77l.88-.21H791V75.74a7.73,7.73,0,0,0-.84-.86c1.27-.59,1.48-1.23,1.48-1.93V71.83h4.88v2c0,.36,0,.47.27.47h1a5.19,5.19,0,0,0,.87-.07c0,.34.06.8.1,1.14a5,5,0,0,1-.93.07h-1.18c-1.23,0-1.48-.47-1.48-1.63V73h-2a3,3,0,0,1-1.35,2.66h4.87l.28,0Zm-4,9.53a27.12,27.12,0,0,1,4.61,1.85l-1.23.93a23,23,0,0,0-4.54-1.94Zm-1-8.66a4.67,4.67,0,0,0,1.38,1.43,5.45,5.45,0,0,0,1.58-1.43Z" transform="translate(-55.58 -5.1)" style="fill:#f6f6f6"/><path d="M819.7,86.15V88H802.83v-1.8h5.49V76.61h-5V74.86h4.08a13.81,13.81,0,0,0-1.61-2.94l1.57-.59a12.36,12.36,0,0,1,1.81,3.14l-.93.39h5.49l-.38-.13a19.74,19.74,0,0,0,1.84-3.46l2,.56c-.61,1.06-1.29,2.18-1.9,3h4v1.75h-5.13v9.54Zm-14-7.9a21.63,21.63,0,0,1,1.81,5.87l-1.71.45a22,22,0,0,0-1.67-5.91Zm4.41,7.9h2.26V76.61h-2.26Zm4.67-2a34.62,34.62,0,0,0,1.94-6l1.9.44a57.38,57.38,0,0,1-2.24,6Z" transform="translate(-55.58 -5.1)" style="fill:#f6f6f6"/><path d="M827.27,81.68V86.6c0,.88-.17,1.35-.67,1.62a5.44,5.44,0,0,1-2.47.34,5.85,5.85,0,0,0-.47-1.63c.76,0,1.46,0,1.67,0s.32-.08.32-.35V82.2l-2,.6-.4-1.7,2.39-.65V76.63h-2.2V75h2.2V71.33h1.62V75h2v1.63h-2V80l1.82-.53.25,1.6Zm8.49,5.15a10,10,0,0,0,1.57.1c.56,0,3,0,3.73,0a5.58,5.58,0,0,0-.5,1.56H837.3c-2.64,0-4.62-.48-5.85-3a8.3,8.3,0,0,1-2.15,3.25A8,8,0,0,0,828,87.67c1.65-1.31,2.47-3.44,2.77-6.12l1.6.19c-.1.7-.21,1.37-.36,2a4.29,4.29,0,0,0,2.13,2.62V80.81h-4.56V79.37h11v1.44h-4.75v2h3.8v1.4h-3.8Zm3.76-8.62h-9.08V71.9h9.08Zm-1.69-5h-5.78v1.26h5.78Zm0,2.45h-5.78V76.9h5.78Z" transform="translate(-55.58 -5.1)" style="fill:#f6f6f6"/><path d="M850.16,71.86a28.52,28.52,0,0,1-1.88,4v12.9h-1.73V78.53A19.49,19.49,0,0,1,845,80.45a13.15,13.15,0,0,0-1-1.81,21,21,0,0,0,4.5-7.31Zm4.22,12.45a16.69,16.69,0,0,1-3.69,4.36,12.05,12.05,0,0,0-1.4-1.12,12.25,12.25,0,0,0,3.42-3.78Zm7.39-3.18v1.73H849.53V81.13h2.74V76.86H850V75.17h2.28V71.48H854v3.69h3.27V71.44H859v3.73h2.59v1.69H859v4.27Zm-7.77,0h3.27V76.86H854Zm4.33,2.68a23.89,23.89,0,0,1,3.27,4l-1.48,1a21.82,21.82,0,0,0-3.21-4.14Z" transform="translate(-55.58 -5.1)" style="fill:#f6f6f6"/><path d="M875.2,80.2A11,11,0,0,0,882.8,87a6.79,6.79,0,0,0-1.2,1.64,12.34,12.34,0,0,1-7.61-7c-1,2.66-3.06,5.26-7.6,7a6.57,6.57,0,0,0-1.16-1.5c4.63-1.78,6.5-4.42,7.22-7h-6.67V78.4h7a15,15,0,0,0,.09-1.85V74.48h-6.42V72.66h14.92v1.82h-6.65v2.09c0,.57,0,1.2-.08,1.83h7.51v1.8Z" transform="translate(-55.58 -5.1)" style="fill:#f6f6f6"/><path d="M895.4,74.47v3.21l.32-.38a43.9,43.9,0,0,1,6.61,3.87L901,82.79a41.09,41.09,0,0,0-5.64-3.65v9.55h-1.88V74.47h-7V72.66h16.78v1.81Z" transform="translate(-55.58 -5.1)" style="fill:#f6f6f6"/><path d="M913.75,79.25a13.62,13.62,0,0,1-5.39,8.32A8.08,8.08,0,0,0,907,86.24a11,11,0,0,0,4.56-5.75h-4.14V78.82h4.9l.31-.06Zm10.17-1.54a45.34,45.34,0,0,1-4.83,3.94A11.75,11.75,0,0,0,924.58,86a8.07,8.07,0,0,0-1.23,1.55,13.24,13.24,0,0,1-6.58-6.63v5.65c0,1-.22,1.52-.91,1.8a9.47,9.47,0,0,1-3.32.32,6.31,6.31,0,0,0-.63-1.76c1.05,0,2.21,0,2.53,0s.44-.11.44-.43V76.82h-5V75.13h6.91v1.52a19,19,0,0,0,1.49,3.65,29.41,29.41,0,0,0,4-3.76Zm-5.51-2.33a32.93,32.93,0,0,0-6.92-2.59l.88-1.46a32.65,32.65,0,0,1,7,2.39Z" transform="translate(-55.58 -5.1)" style="fill:#f6f6f6"/><path d="M930.09,83.75a25.58,25.58,0,0,1-.93,4.87,7.43,7.43,0,0,0-1.33-.46,21.49,21.49,0,0,0,.88-4.65Zm3.08-.77c0-.31-.11-.65-.19-1-3.55.53-4.12.67-4.5.87a10,10,0,0,0-.49-1.46c.39-.11.79-.57,1.34-1.29a21.49,21.49,0,0,0,1.34-2,9,9,0,0,0-2.32.42,13.15,13.15,0,0,0-.5-1.44c.35-.08.63-.46,1-1A22.88,22.88,0,0,0,931,71.25l1.48.61A29.61,29.61,0,0,1,930,76.75l1.6-.14c.43-.82.89-1.71,1.27-2.56l1.37.8a36.06,36.06,0,0,1-3.84,6l2.32-.31c-.15-.57-.32-1.16-.5-1.67l1.22-.32a28,28,0,0,1,1,4Zm-1.38.49a40.51,40.51,0,0,1,.49,4.35l-1.31.25a37.65,37.65,0,0,0-.4-4.39Zm1.65-.47a32.59,32.59,0,0,1,1,3.45l-1.2.38a28.44,28.44,0,0,0-.93-3.51Zm8.17,3c1.35.47,2.77,1,3.7,1.46l-.72,1.25c-1-.47-2.6-1.19-4-1.73l.57-1h-3.08l1.05,1c-1.44.66-3.29,1.36-4.62,1.86a6.82,6.82,0,0,0-.66-1.24A34.22,34.22,0,0,0,937.67,86H934.9V80.41h9.42V86Zm-2.76-12.58h-4.67v-1.2h4.67v-.93h1.73v.93H945v1.2h-4.45v.84h3.78V75.4h-9.44V74.26h3.93ZM934.27,76H945v3.65H934.27Zm1.47,2.51h1.78V77.18h-1.78Zm.74,3.53h6.21V81.4h-6.21Zm0,1.45h6.21v-.71h-6.21Zm0,1.5h6.21v-.76h-6.21Zm4-6.48V77.18h-1.65v1.37Zm2.89-1.37h-1.54v1.37h1.54Z" transform="translate(-55.58 -5.1)" style="fill:#f6f6f6"/><path d="M958.86,71.75a4.57,4.57,0,0,1-.29.36,18.25,18.25,0,0,0,7.94,3.7,7.73,7.73,0,0,0-1.12,1.35c-.45-.13-.95-.28-1.42-.45v4.92H951.13V76.84c-.48.17-.93.32-1.41.46a6.15,6.15,0,0,0-1-1.35c3.44-.88,6.8-2.53,8.53-4.75Zm5,4.94a19.05,19.05,0,0,1-3-1.35v.55h-6.57v-.46a19,19,0,0,1-2.75,1.26Zm-11.68,5.7H963v6.25h-1.81v-.52H954v.59h-1.75ZM954.79,78a7.73,7.73,0,0,1,1,2.09l-1.25.42h2.24V77.85h-4.12v2.62h1.82a8.15,8.15,0,0,0-.89-2.13ZM954,83.6v1.05h7.27V83.6Zm7.27,3.33V85.86H954v1.07Zm-1.5-12.26a12.62,12.62,0,0,1-2.09-1.59,13.83,13.83,0,0,1-2.07,1.59Zm2.68,3.18h-4.22v2.62h2.13l-1.18-.36a13.58,13.58,0,0,0,1-2.23l1.49.42c-.42.82-.84,1.62-1.18,2.17h2Z" transform="translate(-55.58 -5.1)" style="fill:#f6f6f6"/><path d="M979.82,72.13a4,4,0,0,1-.33.47,15.83,15.83,0,0,0,8,5,7.89,7.89,0,0,0-1.25,1.65A17.58,17.58,0,0,1,978.45,74a21.2,21.2,0,0,1-7.87,5.61,6.22,6.22,0,0,0-1.08-1.69,17.13,17.13,0,0,0,8.89-6.75Zm-5.72,6.74h1.84v2.3c0,2.51-.42,5.51-4.18,7.6a6.43,6.43,0,0,0-1.46-1.33,6.35,6.35,0,0,0,3.8-6.31Zm7,0H983v9.92h-1.86Z" transform="translate(-55.58 -5.1)" style="fill:#f6f6f6"/><path d="M996.78,78.46A26.06,26.06,0,0,1,998,82.37l-1.45.49c-.05-.3-.13-.64-.22-1-4.13.6-4.77.74-5.17,1a16.5,16.5,0,0,0-.55-1.63c.43-.09.87-.55,1.46-1.23.29-.31.84-1,1.48-1.86a9.21,9.21,0,0,0-2.52.43,15.4,15.4,0,0,0-.54-1.56c.33-.07.69-.47,1.09-1a24.65,24.65,0,0,0,2.49-4.73l1.61.68a31,31,0,0,1-2.89,4.83l1.77-.16A27.88,27.88,0,0,0,996,74.1l1.52,1a35.31,35.31,0,0,1-4.24,5.8l2.73-.36c-.19-.57-.38-1.14-.56-1.66Zm-3.89,5.31a21.42,21.42,0,0,1-.91,4.58,12.2,12.2,0,0,0-1.41-.51,17.94,17.94,0,0,0,.86-4.33Zm2.07-.32c.23,1.31.46,3,.53,4l-1.42.3a33.77,33.77,0,0,0-.48-4.08Zm2-.51a28.57,28.57,0,0,1,1,3.4l-1.39.47a26.72,26.72,0,0,0-1-3.47Zm10.58-10.7s0,.46,0,.71c-.21,4-.42,5.6-.9,6.15a1.65,1.65,0,0,1-1.23.61,14.09,14.09,0,0,1-2.11,0,4.34,4.34,0,0,0-.49-1.62,17.52,17.52,0,0,0,1.8.08.71.71,0,0,0,.61-.21c.27-.3.44-1.41.61-4.18H1003c-.34,2.74-1.18,5.07-3.92,6.5A4.58,4.58,0,0,0,998,79c2.3-1.12,3-3,3.25-5.17h-3.06V72.24ZM998.65,81H1007v7.66h-1.8v-.76h-4.82v.85h-1.73Zm1.73,1.56v3.78h4.82V82.54Z" transform="translate(-55.58 -5.1)" style="fill:#f6f6f6"/><path d="M1028.82,82.73h-7.62v3.72c0,1.16-.32,1.66-1.12,1.92a13.17,13.17,0,0,1-4,.3,7.64,7.64,0,0,0-.74-1.74c1.52,0,3,0,3.48,0s.57-.14.57-.54v-3.7h-7.64V81h7.64V78.3H1013V76.61h6.35V74c-2,.17-4.11.3-6,.38a5.31,5.31,0,0,0-.41-1.54c4.48-.21,9.84-.7,12.8-1.56l1.31,1.45a40.55,40.55,0,0,1-5.83,1.06v2.79h6.53V78.3h-6.53V81h7.62Z" transform="translate(-55.58 -5.1)" style="fill:#f6f6f6"/><path d="M1049.91,80.92h-1.69v5.8c0,.83-.14,1.35-.67,1.67a5.26,5.26,0,0,1-2.37.32,6.45,6.45,0,0,0-.56-1.73c.69,0,1.35,0,1.56,0s.29-.09.29-.34V80.92H1044v7.57h-1.65V80.92h-2.42v7.57h-1.63V80.92H1036v7.85h-1.75V80.92h-1.82V79.18h1.82V72.41h14v6.77h1.69Zm-11.61-1.74v-5H1036v5Zm4,0v-5h-2.42v5Zm4.12,0v-5H1044v5Z" transform="translate(-55.58 -5.1)" style="fill:#f6f6f6"/><path d="M1057.36,77.07a3,3,0,1,1-3,3A3,3,0,0,1,1057.36,77.07Zm0,4.79a1.83,1.83,0,1,0-1.83-1.83A1.83,1.83,0,0,0,1057.36,81.86Z" transform="translate(-55.58 -5.1)" style="fill:#f6f6f6"/><path d="M185.32,112.31a17.25,17.25,0,0,1-1.42,2.26h9.59v7.12h-1.86v-.85h-8v.87h-1.76v-4.88a15,15,0,0,1-3,2.22,10.62,10.62,0,0,0-1.29-1.42,14,14,0,0,0,5.68-5.32h-5.22v-1.65h6.08a15.32,15.32,0,0,0,.81-2.11l1.79.45a15.87,15.87,0,0,1-.65,1.66h8.82v1.65Zm-3.91-4.83h-3.25v-1.59h3.25v-1.6h1.79v1.6h2.92v1.59H183.2v1.83h-1.79Zm10.22,8.67h-8v3.09h8Zm-1.88-8.67h-2.91v-1.59h2.91v-1.6h1.79v1.6h3.36v1.59h-3.36v1.85h-1.79Z" transform="translate(-55.58 -5.1)" style="fill:#f6f6f6"/><path d="M205.54,108.32c-.32.65-.65,1.29-1,1.9h9v9.46c0,.95-.19,1.48-.87,1.75a10,10,0,0,1-3.31.28,6.8,6.8,0,0,0-.55-1.71c1.12.06,2.26.06,2.58,0s.42-.09.42-.38V118h-7.66a6.91,6.91,0,0,1-2,3.84,6.51,6.51,0,0,0-1.27-1.39c1.59-1.46,1.74-3.53,1.74-5.3v-2.24a14.09,14.09,0,0,1-2.75,2.54,10.65,10.65,0,0,0-1.16-1.37,15.28,15.28,0,0,0,4.88-5.79h-4.46v-1.65h5.2a19.59,19.59,0,0,0,.8-2.38l1.81.42c-.21.65-.42,1.31-.69,2h9.46v1.65Zm6.25,8.23v-1.66h-7.41v.33c0,.41,0,.87-.06,1.33Zm0-4.77h-7.41v1.63h7.41Z" transform="translate(-55.58 -5.1)" style="fill:#f6f6f6"/><path d="M226,105a31,31,0,0,1-2,3.91v12.78h-1.75V111.49a19.19,19.19,0,0,1-2,2.24,13,13,0,0,0-1.07-1.82,20.65,20.65,0,0,0,5-7.48Zm6,9.08v5.28h4.69V121H225.57v-1.69h4.61v-5.28H225v-1.71h5.18v-4.62h-4v-1.67h10.15v1.67H232v4.62h5.11v1.71Z" transform="translate(-55.58 -5.1)" style="fill:#f6f6f6"/><path d="M246.31,104.81a25.6,25.6,0,0,1-1.63,3.68v13.22h-1.75V111.34a19,19,0,0,1-1.57,2,14.37,14.37,0,0,0-1-1.81,20.92,20.92,0,0,0,4.25-7.2Zm11.63,2.92h-1.27v11.76c0,1.12-.27,1.63-1,1.92a12.1,12.1,0,0,1-3.8.32,6.61,6.61,0,0,0-.61-1.8c1.37,0,2.74,0,3.12,0s.53-.12.53-.5V107.73h-8.64V106h11.68Zm-9.59,9v1.3h-1.67v-7.93h6.06v6.63Zm0-5.09v3.58h2.75v-3.58Z" transform="translate(-55.58 -5.1)" style="fill:#f6f6f6"/><path d="M264.06,111.85v9.88h-1.75V105.05h7v6.8Zm0-5.39v1.33h3.57v-1.33Zm3.57,4V109h-3.57v1.43Zm.44,8.6v1.1h-1.63v-6.8h7.16v5.7Zm0-4.21v2.75h3.87v-2.75Zm9.9,4.63c0,1.06-.25,1.62-.93,1.92a11.16,11.16,0,0,1-3.54.3,5.81,5.81,0,0,0-.61-1.8c1.2.06,2.44,0,2.82,0s.45-.14.45-.48v-7.6h-5.35v-6.82H278Zm-5.47-13v1.35h3.66v-1.35Zm3.66,4V109H272.5v1.45Z" transform="translate(-55.58 -5.1)" style="fill:#f6f6f6"/><path d="M287.58,119.3a15.17,15.17,0,0,0,5.06.59c1,0,5.9,0,7.2,0a4.68,4.68,0,0,0-.59,1.48h-6.61c-3.86,0-6.44-.41-8.06-2.75a7.39,7.39,0,0,1-1.4,3.23,5,5,0,0,0-1.07-1.2c1.1-1.33,1.37-3.72,1.43-6H285c0,.72-.06,1.42-.13,2.13a5,5,0,0,0,1.21,1.69V113.7h-3.63v-1.35h8.48v1.35h-3.33v1.78h3v1.33h-3Zm2.32-8.21h-6.46v-6h6.46Zm-1.63-4.8H285v1.19h3.27Zm0,2.35H285v1.22h3.27Zm6.21,8.19a11.57,11.57,0,0,1-3.33,2.77,9,9,0,0,0-1.15-1.06,9.06,9.06,0,0,0,3-2.16Zm-.61-9.14q.19-.6.36-1.23h-3.44v-1.31h8.63v1.31h-3.55c-.18.42-.35.85-.52,1.23h3.38v8.44h-7.27v-8.44Zm3.21,1.26h-4v1.17h4Zm0,2.35h-4v1.18h4Zm0,2.38h-4v1.19h4Zm-.21,2.62a14.83,14.83,0,0,1,2.87,2.41l-1.27.8a16.24,16.24,0,0,0-2.83-2.55Z" transform="translate(-55.58 -5.1)" style="fill:#f6f6f6"/><path d="M305.06,115.65c1.46-.55,2.32-1.42,2.41-2.56a1.06,1.06,0,0,1-.26,0,1.48,1.48,0,0,1-1.6-1.52,1.5,1.5,0,0,1,1.62-1.52c1.19,0,1.82.93,1.82,2.37a4.64,4.64,0,0,1-3.49,4.45Z" transform="translate(-55.58 -5.1)" style="fill:#f6f6f6"/><path d="M328.43,110.58c0,.68,0,1.43-.08,2.24.59,3.27,1.79,6.2,3.84,7.53a5.83,5.83,0,0,0-1.14,1.48,10.47,10.47,0,0,1-3.26-5.49,12.47,12.47,0,0,1-3.06,5.49,4.39,4.39,0,0,0-1.09-1v.06h-6.15v.89H316.1v-6.15a10.65,10.65,0,0,1-.91,1.1,8.34,8.34,0,0,0-.8-1.2,11.81,11.81,0,0,0,2.55-4h-1.69v-3.46H319v3.46h-2l1.18.36c-.15.36-.3.7-.49,1.07h2.07a8.35,8.35,0,0,0-.5-.94l1.14-.45a6,6,0,0,1,.76,1.39h2.61v1.23h-2.7v1h2.32v1.18h-2.32v1h2.43v1.15h-2.43v1.13h2.56v.87c3-3.19,3.23-7.2,3.23-9.92v-1.1h1.56Zm-11.38-3.89h-2.53v-1.31h2.53v-1.11h1.5v3.46h-1.5Zm-.7,3.87h1.54V109h-1.54Zm3.29,3.63h-2.15v1h2.15Zm0,2.13h-2.15v1h2.15Zm-2.15,3.27h2.15v-1.13h-2.15Zm6.19-8.06h-3.74v-3.46h3.74Zm-1.76-3.8H320.4v-3.46h1.52v1.11h2.48v1.29h-2.48Zm.64,1.33H321v1.48h1.54Zm3.88-.36a18.11,18.11,0,0,1-1.64,4.41,12.74,12.74,0,0,0-1.38-1.09c1.15-1.82,1.8-4.74,2.14-7.75l1.64.27c-.12.87-.25,1.73-.4,2.56h3.93L331,107l1.08.34a36.08,36.08,0,0,1-1.35,5l-1.29-.41a30.11,30.11,0,0,0,.83-3.29Z" transform="translate(-55.58 -5.1)" style="fill:#f6f6f6"/><path d="M340.4,113.24a23.4,23.4,0,0,1-1.54,4.9c.35.21.76.51,1.37.89,1.33.8,3.06.92,5.3.92a68.89,68.89,0,0,0,7.6-.44,6.54,6.54,0,0,0-.51,1.82c-1.48.1-5,.21-7.16.21-2.51,0-4.15-.21-5.51-1-.78-.44-1.47-1.09-1.87-1.09s-1.08,1.22-1.61,2.38l-1.18-1.64a8.4,8.4,0,0,1,1.92-2,18.78,18.78,0,0,0,1.24-3.69H336c.46-1.12,1-2.66,1.51-4.14H335.6v-1.6h4.1c-.42,1.35-.95,2.91-1.43,4.22h1.07l.26-.07ZM337.57,108c-.23-.84-.68-2.17-1-3.17l1.56-.48c.34,1,.8,2.26,1,3.08Zm8.1,6.1a12.9,12.9,0,0,0,.09,1.57c-3.5,1.08-4.08,1.35-4.45,1.62a4.29,4.29,0,0,0-.68-1.39,1.56,1.56,0,0,0,.76-1.41v-8.35a16.13,16.13,0,0,0,3.72-1.87l1.26,1.31h5.77v9.67c0,.78-.15,1.22-.66,1.49a5.87,5.87,0,0,1-2.4.28,5.38,5.38,0,0,0-.53-1.5c.74,0,1.47,0,1.66,0s.3-.08.3-.28v-8.16h-2.58v12h-1.62V105.62a23,23,0,0,1-3.29,1.43v7.79Z" transform="translate(-55.58 -5.1)" style="fill:#f6f6f6"/><path d="M365.08,119.36c-3,.53-6.19,1-8.47,1.42l-.28-1.78,3.62-.54v-2.69h-3.09v-1.6H360v-2h1.77v2h3v1.6h-3v2.43c1.08-.15,2.2-.34,3.27-.51Zm-1.55-7.24c-.1-.23-.21-.49-.37-.78-4.86.42-5.58.49-6.06.7-.09-.34-.38-1.17-.55-1.59a2,2,0,0,0,.88-.82,20,20,0,0,0,1.42-2.6h-2.3v-1.62H365V107h-4.24a23.67,23.67,0,0,1-1.86,3.11l3.46-.24c-.31-.55-.65-1.09-.95-1.56l1.34-.63a32.52,32.52,0,0,1,2.17,3.67Zm9.82-4.07a21.63,21.63,0,0,1-3.19,9.22,11.05,11.05,0,0,0,3.64,3.09,5.74,5.74,0,0,0-1.21,1.41,12.53,12.53,0,0,1-3.46-3.12,13.63,13.63,0,0,1-4,3.18,7.38,7.38,0,0,0-1.16-1.62,11.09,11.09,0,0,0,4-3.15,18.37,18.37,0,0,1-1.5-3.12c-.25.48-.52.92-.78,1.33a9.75,9.75,0,0,0-1-1.65,15.77,15.77,0,0,0,1-1.88,37,37,0,0,1-1-3.8l1.33-.27c.13.59.27,1.2.42,1.79a38.84,38.84,0,0,0,1-5.07l1.65.26c-.17,1-.38,2.07-.58,3.12h3.26l.31-.06Zm-5.15,1.37a22.7,22.7,0,0,1-.86,2.64,21.65,21.65,0,0,0,1.69,3.59,18.2,18.2,0,0,0,2.38-6.23Z" transform="translate(-55.58 -5.1)" style="fill:#f6f6f6"/><path d="M379.56,111.38h-1.67v-4.14h7.16v-1h-6.34V105H393.2v1.23h-6.42v1h7.33v4.14h-1.76v-2.95h-5.57v4.15h-1.73v-4.15h-5.49ZM392,120.1c1,0,1.16-.31,1.28-2.07a4.56,4.56,0,0,0,1.48.57c-.23,2.28-.72,2.89-2.64,2.89H388c-2.34,0-3-.46-3-2.17V119h-3.73v.91h-1.69v-6.69h12.88V119h-5.77v.34c0,.67.23.8,1.4.8Zm-12.31-8.66c1.2-.16,2.82-.4,4.51-.65l.05,1c-1.44.35-2.85.65-4.08.88Zm1.05-2.82a20.74,20.74,0,0,1,3.48.93l-.48,1a22.94,22.94,0,0,0-3.51-1Zm.51,5.8v1.08H385v-1.08Zm3.73,3.3v-1.1h-3.73v1.1Zm5.73-3.3h-4v1.08h4Zm0,3.3v-1.1h-4v1.1Zm1.07-5a29.6,29.6,0,0,0-4.41-1l.38-1a22.3,22.3,0,0,1,4.39.91Zm0-3.25a24,24,0,0,1-3.58,1l-.58-.86c1-.24,2.52-.78,3.42-1.1Z" transform="translate(-55.58 -5.1)" style="fill:#f6f6f6"/><path d="M415.45,117.89h-4.22v2c0,.89-.17,1.35-.85,1.6a10.69,10.69,0,0,1-3.14.24,5.37,5.37,0,0,0-.59-1.57c1.11,0,2.15,0,2.46,0s.39-.09.39-.34v-1.94h-6.36a28.25,28.25,0,0,1,2.83,2l-1.1,1.22a25.78,25.78,0,0,0-3.21-2.36l.8-.82h-4.13v-1.42H409.5v-1h-9.3v-6.81h4.31v-1H398.7v-1.39h4.36a10.61,10.61,0,0,0-1.14-1.44l1.45-.63a13.44,13.44,0,0,1,1.5,1.86l-.48.21H409a11.32,11.32,0,0,0,1.14-2l1.85.5c-.4.53-.82,1-1.18,1.5H415v1.39h-5.89v1h4.54v6.81h-2.45v1h4.22Zm-13.66-3.57H412v-2.64h-2.47c-1.52,0-1.9-.28-1.9-1.42v-.55H406c-.15,1.1-.91,2.11-3.13,2.71a4.63,4.63,0,0,0-.84-1.12c1.81-.28,2.34-.91,2.49-1.59h-2.68Zm1.58-1.84h7.27v1h-7.27Zm2.62-3.87h1.63v-1H406Zm3.15,1.1v.57c0,.38.08.43.59.43h1.81c.28,0,.4,0,.45-.09v-.91Z" transform="translate(-55.58 -5.1)" style="fill:#f6f6f6"/><path d="M426.17,117.44a13.53,13.53,0,0,1-6,3.72A6.93,6.93,0,0,0,419,119.7a12.6,12.6,0,0,0,5.74-2.83Zm-6.12-6.52a5.11,5.11,0,0,0-.82-1.14c3.33-.83,3.78-2.3,3.92-5.49h1.56a13.77,13.77,0,0,1-.46,3.33,28.81,28.81,0,0,1,2.77,1.86l-1.16,1.08c-.51-.44-1.42-1.08-2.24-1.65a5.54,5.54,0,0,1-3,2h14c-.76-.59-2-1.42-3-2.13a5.76,5.76,0,0,1-3.34,2.11,4.41,4.41,0,0,0-.89-1.31c3.13-.83,3.61-2.31,3.74-5.3h1.6a13.25,13.25,0,0,1-.46,3.19c1.21.75,2.87,1.79,3.74,2.44l-1,1h.76v3.18H434v-1.64H421.59v1.64H419.9v-3.18Zm1-3.11c-.34-.5-1-1.35-1.58-2l1.06-.76c.54.59,1.24,1.39,1.58,1.84Zm7.58,8.37v5.51h-1.75v-5.51h-6.42v-1.55h6.42V112.9h1.75v1.73h6.63v1.55Zm-1-10.37c-.59.74-1.2,1.52-1.67,2l-1.09-.44a16.23,16.23,0,0,0,1.3-2.13Zm1.46,1.86c-.34-.47-1-1.25-1.46-1.84l1-.76c.52.55,1.16,1.27,1.49,1.71Zm1.73,9.08a37.55,37.55,0,0,1,5.53,3.33l-1.31,1.18a35.86,35.86,0,0,0-5.45-3.48Zm5.15-11c-.63.78-1.33,1.58-1.86,2.11l-1.09-.47a14,14,0,0,0,1.41-2.19Z" transform="translate(-55.58 -5.1)" style="fill:#f6f6f6"/><path d="M446.84,119.74c0,.85-.15,1.38-.68,1.67a5.42,5.42,0,0,1-2.59.32,5.36,5.36,0,0,0-.47-1.69c.78,0,1.54,0,1.78,0s.33-.09.33-.36v-4.28h-2.57a18.61,18.61,0,0,1-1.37,6.35,5.93,5.93,0,0,0-1.44-.82c1.25-2.62,1.35-6.42,1.35-9.19V105h5.66Zm-1.63-6V111h-2.44v.8c0,.61,0,1.29,0,2Zm-2.44-7.14v2.7h2.44v-2.7Zm14.29,5.17a16.39,16.39,0,0,1-2.45,6.32,9.68,9.68,0,0,0,3,2.28,6.25,6.25,0,0,0-1.14,1.37,10.94,10.94,0,0,1-2.89-2.33,10.86,10.86,0,0,1-2.66,2.24,5.42,5.42,0,0,0-1-1.28v1.35h-1.67V105h8.26v3.65c0,.82-.17,1.27-.84,1.5a10,10,0,0,1-3.07.25,6.75,6.75,0,0,0-.55-1.5c1,0,2.1,0,2.37,0s.4-.06.4-.29v-2h-4.9v4.8h5.83l.29,0Zm-7.14,8.57a9.19,9.19,0,0,0,2.7-2.25,17.81,17.81,0,0,1-2.36-5h-.34Zm1.84-7.26a14.36,14.36,0,0,0,1.81,3.66,14.31,14.31,0,0,0,1.59-3.66Z" transform="translate(-55.58 -5.1)" style="fill:#f6f6f6"/><path d="M476.76,107.71a9.08,9.08,0,0,1-2.1,3,13.45,13.45,0,0,0,3.83,1.43,6.48,6.48,0,0,0-1.1,1.48,13.38,13.38,0,0,1-4.12-1.83,16,16,0,0,1-4,1.79,4.75,4.75,0,0,0-.49-.78,27.66,27.66,0,0,1-1,3.06l-1.21-.61a21.72,21.72,0,0,0,.83-2.85h-1.46v7.3c0,.85-.13,1.33-.7,1.63a6.52,6.52,0,0,1-2.51.29,6.74,6.74,0,0,0-.51-1.68c.76,0,1.51,0,1.74,0s.31,0,.31-.28v-5.15a13.59,13.59,0,0,1-2.57,4.12,8.82,8.82,0,0,0-.89-1.69,12.57,12.57,0,0,0,2.91-4.56H461V110.9h4.84a23.76,23.76,0,0,0-4.07-2.24l1.11-1.14c.53.21,1.14.48,1.71.76a11.13,11.13,0,0,0,1.63-1.59h-5v-1.5h6.25l.29-.06,1.14.7a13.06,13.06,0,0,1-3,3.17,13.77,13.77,0,0,1,1.52,1l-.81.89h1.18l.26-.09,1.07.38c-.06.25-.12.49-.18.76a12.4,12.4,0,0,0,2.91-1.2,11.35,11.35,0,0,1-1.69-2,12.92,12.92,0,0,1-1.14,1.1,10.46,10.46,0,0,0-1.46-1,11.3,11.3,0,0,0,3.61-4.58l1.65.46a15.27,15.27,0,0,1-.78,1.5h6v1.48Zm1,7.13s0,.45-.05.7c-.33,3.4-.67,4.86-1.2,5.43a2,2,0,0,1-1.27.57,18.25,18.25,0,0,1-2.11,0,4.56,4.56,0,0,0-.48-1.63c.74.07,1.45.09,1.77.09a.71.71,0,0,0,.61-.21c.32-.28.59-1.25.83-3.47h-2.75a7.62,7.62,0,0,1-5,5.41,5.34,5.34,0,0,0-1-1.37,6.23,6.23,0,0,0,4.21-4h-2.66v-1.48h3c.1-.59.17-1.18.23-1.81h1.75c-.06.63-.13,1.22-.23,1.81Zm-6.42-7.13a8.78,8.78,0,0,0,1.92,2.09,6.82,6.82,0,0,0,1.6-2.09Z" transform="translate(-55.58 -5.1)" style="fill:#f6f6f6"/><path d="M499.05,117.61h-4.39V120c0,.83-.17,1.29-.85,1.54a11.43,11.43,0,0,1-3.12.22,5.69,5.69,0,0,0-.55-1.52c1.05,0,2.13,0,2.41,0s.38-.09.38-.32v-2.28h-6.3a14.71,14.71,0,0,1,2.58,2.07l-1.29,1.14a15.82,15.82,0,0,0-3-2.47l.85-.74h-3.86v-1.43h11v-1c-3.8.09-7.48.17-10.18.2l-.06-1.32c1.83,0,4.26,0,6.9,0v-.9h-5.66V107.9h5.66V107h-7.12v-1.37h7.12v-1.33h1.73v1.33h7V107h-7v.89h5.85v5.26H495.4a16.47,16.47,0,0,1,3,1.71l-1.05.95a10.89,10.89,0,0,0-1-.7l-1.65,0v1h4.39ZM485.6,110h4V109h-4Zm4,2.07v-1h-4v1Zm1.73-3V110h4.12V109Zm4.12,2h-4.12v1h4.12Zm-4.12,3,3.06,0a9.57,9.57,0,0,0-1.16-.49l.44-.37h-2.34Z" transform="translate(-55.58 -5.1)" style="fill:#f6f6f6"/><path d="M508,115.9c0-.28-.09-.61-.17-1-3.61.55-4.22.69-4.6.87-.09-.34-.36-1.17-.55-1.63a3.56,3.56,0,0,0,1.45-1.25c.24-.29.78-1,1.36-1.84a10.09,10.09,0,0,0-2.39.43,13.1,13.1,0,0,0-.53-1.56c.34-.07.65-.47,1-1a23.73,23.73,0,0,0,2.27-4.69l1.64.66a31.43,31.43,0,0,1-2.68,4.79l1.65-.14a17.36,17.36,0,0,0,1.39-2.54l1.52.95a34.36,34.36,0,0,1-4.09,5.87l2.25-.27c-.16-.6-.33-1.21-.52-1.73l1.31-.34a23.07,23.07,0,0,1,1.05,4Zm-3.15.85a24,24,0,0,1-.91,4.72,7.24,7.24,0,0,0-1.33-.48,19.72,19.72,0,0,0,.85-4.48Zm1.8-.26a32.05,32.05,0,0,1,.46,4l-1.35.26a35.78,35.78,0,0,0-.38-4Zm1.71-.49a18.5,18.5,0,0,1,.88,2.84l-1.24.42a17.51,17.51,0,0,0-.81-2.9Zm5.51-1.26a9,9,0,0,1-4.1,6.1,9.13,9.13,0,0,0-1-1.24,7.27,7.27,0,0,0,3.14-3.72h-2.09v-1.44h2.77l.27-.06Zm6-.13c-.86.74-1.79,1.54-2.59,2.14a8.18,8.18,0,0,0,2.95,2.82A6.48,6.48,0,0,0,519,121a9.53,9.53,0,0,1-3.19-3.78v2.72c0,.84-.17,1.31-.72,1.58a6.85,6.85,0,0,1-2.61.28,5.76,5.76,0,0,0-.49-1.61c.8,0,1.6,0,1.82,0s.31-.08.31-.29V113h-3.69v-6.74h2.81a15.22,15.22,0,0,0,.61-2l2,.4c-.27.55-.54,1.12-.82,1.62h4.18V113h-3.4v.67a12.46,12.46,0,0,0,.74,1.88,23.91,23.91,0,0,0,1.94-2ZM512.1,109h5.4v-1.34h-5.4Zm0,2.64h5.4v-1.36h-5.4Z" transform="translate(-55.58 -5.1)" style="fill:#f6f6f6"/><path d="M525.94,108.55a1.6,1.6,0,1,1,3.19,0,1.6,1.6,0,0,1-3.19,0Zm0,9.21a1.6,1.6,0,1,1,1.59,1.56A1.55,1.55,0,0,1,525.94,117.76Z" transform="translate(-55.58 -5.1)" style="fill:#f6f6f6"/><path d="M535.08,113.18c0-4.84,1.76-7.2,4.52-7.2s4.52,2.38,4.52,7.2-1.79,7.3-4.52,7.3S535.08,118.05,535.08,113.18Zm6.95,0c0-4-1-5.47-2.43-5.47s-2.43,1.46-2.43,5.47,1,5.57,2.43,5.57S542,117.23,542,113.18Z" transform="translate(-55.58 -5.1)" style="fill:#f6f6f6"/><path d="M547.75,119c4.12-3.65,6.25-6.37,6.25-8.66a2.28,2.28,0,0,0-2.37-2.57,3.77,3.77,0,0,0-2.76,1.56l-1.23-1.22a5.48,5.48,0,0,1,4.25-2.09,4,4,0,0,1,4.22,4.2c0,2.7-2.15,5.49-5.11,8.32.72-.07,1.59-.13,2.28-.13h3.49v1.86h-9Z" transform="translate(-55.58 -5.1)" style="fill:#f6f6f6"/><path d="M560.54,114.06h5v1.61h-5Z" transform="translate(-55.58 -5.1)" style="fill:#f6f6f6"/><path d="M569.16,119c4.13-3.65,6.25-6.37,6.25-8.66a2.28,2.28,0,0,0-2.37-2.57,3.79,3.79,0,0,0-2.76,1.56l-1.23-1.22A5.49,5.49,0,0,1,573.3,106a4,4,0,0,1,4.22,4.2c0,2.7-2.14,5.49-5.11,8.32.72-.07,1.6-.13,2.28-.13h3.5v1.86h-9Z" transform="translate(-55.58 -5.1)" style="fill:#f6f6f6"/><path d="M589.64,108.81a3,3,0,0,0-2.18-1c-1.79,0-3.27,1.35-3.36,5.34a4.18,4.18,0,0,1,3-1.62c2.35,0,3.93,1.45,3.93,4.41a4.27,4.27,0,0,1-4.18,4.58c-2.66,0-4.83-2.22-4.83-7,0-5.38,2.53-7.53,5.28-7.53a4.73,4.73,0,0,1,3.5,1.5Zm-.6,7.09c0-1.8-.8-2.81-2.3-2.81a3.28,3.28,0,0,0-2.61,1.63c.23,2.78,1.24,4.09,2.74,4.09C588.09,118.81,589,117.71,589,115.9Z" transform="translate(-55.58 -5.1)" style="fill:#f6f6f6"/><path d="M602.37,108.81a3,3,0,0,0-2.18-1c-1.79,0-3.27,1.35-3.36,5.34a4.18,4.18,0,0,1,3-1.62c2.35,0,3.93,1.45,3.93,4.41a4.27,4.27,0,0,1-4.18,4.58c-2.66,0-4.83-2.22-4.83-7,0-5.38,2.53-7.53,5.29-7.53a4.72,4.72,0,0,1,3.49,1.5Zm-.6,7.09c0-1.8-.8-2.81-2.3-2.81a3.25,3.25,0,0,0-2.6,1.63c.22,2.78,1.23,4.09,2.73,4.09C600.82,118.81,601.77,117.71,601.77,115.9Z" transform="translate(-55.58 -5.1)" style="fill:#f6f6f6"/><path d="M607.35,119c4.13-3.65,6.25-6.37,6.25-8.66a2.28,2.28,0,0,0-2.37-2.57,3.79,3.79,0,0,0-2.76,1.56l-1.23-1.22a5.49,5.49,0,0,1,4.25-2.09,4,4,0,0,1,4.22,4.2c0,2.7-2.14,5.49-5.11,8.32.72-.07,1.6-.13,2.28-.13h3.5v1.86h-9Z" transform="translate(-55.58 -5.1)" style="fill:#f6f6f6"/><path d="M620.14,114.06h5v1.61h-5Z" transform="translate(-55.58 -5.1)" style="fill:#f6f6f6"/><path d="M628.82,113.18c0-4.84,1.77-7.2,4.52-7.2s4.53,2.38,4.53,7.2-1.79,7.3-4.53,7.3S628.82,118.05,628.82,113.18Zm7,0c0-4-1-5.47-2.44-5.47s-2.43,1.46-2.43,5.47,1,5.57,2.43,5.57S635.78,117.23,635.78,113.18Z" transform="translate(-55.58 -5.1)" style="fill:#f6f6f6"/><path d="M641.19,118.56l1.07-1.41a4.49,4.49,0,0,0,3.3,1.54c1.58,0,2.66-.87,2.66-2.31s-1-2.57-4.14-2.57V112.2c2.75,0,3.67-1,3.67-2.45a2,2,0,0,0-2.15-2,4.08,4.08,0,0,0-2.79,1.33l-1.14-1.37a5.91,5.91,0,0,1,4-1.69c2.51,0,4.28,1.3,4.28,3.61a3.38,3.38,0,0,1-2.41,3.29V113a3.54,3.54,0,0,1,2.88,3.5c0,2.53-2.1,4-4.67,4A5.83,5.83,0,0,1,641.19,118.56Z" transform="translate(-55.58 -5.1)" style="fill:#f6f6f6"/><path d="M653.92,118.56l1.07-1.41a4.49,4.49,0,0,0,3.3,1.54c1.58,0,2.66-.87,2.66-2.31s-1-2.57-4.14-2.57V112.2c2.75,0,3.67-1,3.67-2.45a2,2,0,0,0-2.15-2,4.08,4.08,0,0,0-2.79,1.33l-1.14-1.37a5.92,5.92,0,0,1,4-1.69c2.5,0,4.27,1.3,4.27,3.61a3.38,3.38,0,0,1-2.41,3.29V113a3.55,3.55,0,0,1,2.89,3.5c0,2.53-2.11,4-4.68,4A5.83,5.83,0,0,1,653.92,118.56Z" transform="translate(-55.58 -5.1)" style="fill:#f6f6f6"/><path d="M667,119c4.12-3.65,6.25-6.37,6.25-8.66a2.29,2.29,0,0,0-2.38-2.57,3.77,3.77,0,0,0-2.75,1.56l-1.24-1.22A5.5,5.5,0,0,1,671.1,106a4,4,0,0,1,4.22,4.2c0,2.7-2.15,5.49-5.11,8.32.72-.07,1.59-.13,2.27-.13H676v1.86h-9Z" transform="translate(-55.58 -5.1)" style="fill:#f6f6f6"/><path d="M683,113a12.7,12.7,0,0,1,3.76-9.08l1.45.69a11.82,11.82,0,0,0,0,16.79l-1.45.68A12.66,12.66,0,0,1,683,113Z" transform="translate(-55.58 -5.1)" style="fill:#f6f6f6"/><path d="M696.16,113.18a25.16,25.16,0,0,1-1.75,5c.32.19.74.51,1.33.89,1.31.8,3,.92,5.24.92a68.61,68.61,0,0,0,7.6-.44,6.73,6.73,0,0,0-.51,1.82c-1.48.1-4.92.21-7.16.21-2.47,0-4.09-.21-5.45-1-.78-.44-1.47-1.11-1.85-1.11s-1.08,1.24-1.59,2.4l-1.18-1.66a8.6,8.6,0,0,1,1.84-1.9,19,19,0,0,0,1.46-3.81h-2.31c.47-1.11,1-2.63,1.55-4.07h-2.27v-1.6h4.42c-.44,1.32-1,2.84-1.5,4.13h1.08l.27-.08Zm-2.87-5.09c-.23-.81-.7-2.13-1-3.11l1.62-.44c.34,1,.8,2.18,1,3Zm5.17,3.65a20.81,20.81,0,0,1-1.2,7,6.92,6.92,0,0,0-1.46-.83c1-2.36,1.1-5.65,1.1-8V105h10.49v12.14c0,.84-.18,1.28-.71,1.52A6.71,6.71,0,0,1,704,119a6.24,6.24,0,0,0-.48-1.48c.84,0,1.65,0,1.9,0s.34-.1.34-.37v-5.39Zm0-5.28v1.33h2.84v-1.33Zm0,4h2.84V109H698.5v1.47Zm6,2.2V117h-5v-4.33Zm-1.31,1.14h-2.47v2h2.47Zm2.52-7.37h-2.94v1.33h2.94Zm0,4V109h-2.94v1.47Z" transform="translate(-55.58 -5.1)" style="fill:#f6f6f6"/><path d="M729.33,111.85v1.94H712v-1.94Z" transform="translate(-55.58 -5.1)" style="fill:#f6f6f6"/><path d="M740.87,113.68a3.67,3.67,0,0,0-6.39.93l-1.67-.91c1.23-2.24,3-3.4,5-3.4a5.81,5.81,0,0,1,4.39,2,3.93,3.93,0,0,0,3,1.48,4,4,0,0,0,3.35-2.41l1.67.91c-1.24,2.24-3,3.4-5,3.4A5.81,5.81,0,0,1,740.87,113.68Z" transform="translate(-55.58 -5.1)" style="fill:#f6f6f6"/><path d="M758.86,113.18a25.16,25.16,0,0,1-1.75,5c.32.19.74.51,1.33.89,1.31.8,3,.92,5.24.92a68.61,68.61,0,0,0,7.6-.44,6.73,6.73,0,0,0-.51,1.82c-1.48.1-4.92.21-7.16.21-2.47,0-4.09-.21-5.45-1-.78-.44-1.47-1.11-1.85-1.11s-1.08,1.24-1.59,2.4l-1.18-1.66a8.6,8.6,0,0,1,1.84-1.9,19,19,0,0,0,1.46-3.81h-2.31c.47-1.11,1-2.63,1.55-4.07h-2.27v-1.6h4.42c-.44,1.32-1,2.84-1.5,4.13h1.08l.27-.08ZM756,108.09c-.23-.81-.7-2.13-1-3.11l1.62-.44c.34,1,.8,2.18,1,3Zm5.17,3.65a20.81,20.81,0,0,1-1.2,7,6.92,6.92,0,0,0-1.46-.83c1-2.36,1.1-5.65,1.1-8V105h10.49v12.14c0,.84-.17,1.28-.71,1.52a6.71,6.71,0,0,1-2.69.29,6.24,6.24,0,0,0-.48-1.48c.84,0,1.65,0,1.9,0s.34-.1.34-.37v-5.39Zm0-5.28v1.33H764v-1.33Zm0,4H764V109H761.2v1.47Zm6,2.2V117h-5v-4.33Zm-1.31,1.14h-2.47v2h2.47Zm2.52-7.37h-2.94v1.33h2.94Zm0,4V109h-2.94v1.47Z" transform="translate(-55.58 -5.1)" style="fill:#f6f6f6"/><path d="M791.76,119v1.74H775V119h4.52c.34-1.66.7-3.67,1.07-5.74h-3.39v-1.73h3.67c.19-1.27.36-2.53.53-3.72h-5.24V106.1h14.32v1.73h-7.14c-.17,1.19-.36,2.45-.55,3.72H787l.34-.08,1.37.12c-.13,2.13-.38,5-.67,7.43Zm-9.28-5.74c-.35,2.09-.71,4.1-1,5.74h4.69c.23-1.9.42-4.07.53-5.74Z" transform="translate(-55.58 -5.1)" style="fill:#f6f6f6"/><path d="M801.82,113.18c0-4.84,1.76-7.2,4.52-7.2s4.52,2.38,4.52,7.2-1.78,7.3-4.52,7.3S801.82,118.05,801.82,113.18Zm6.95,0c0-4-1-5.47-2.43-5.47s-2.43,1.46-2.43,5.47,1,5.57,2.43,5.57S808.77,117.23,808.77,113.18Z" transform="translate(-55.58 -5.1)" style="fill:#f6f6f6"/><path d="M815.88,117.65a3.13,3.13,0,0,0,2.3,1c1.69,0,3.15-1.36,3.28-5.35a4.2,4.2,0,0,1-3.07,1.63c-2.34,0-3.92-1.46-3.92-4.39a4.28,4.28,0,0,1,4.16-4.6c2.68,0,4.85,2.17,4.85,6.79,0,5.5-2.51,7.71-5.21,7.71A4.83,4.83,0,0,1,814.7,119Zm5.54-6c-.2-2.75-1.25-4-2.77-4-1.19,0-2.15,1.09-2.15,2.91s.8,2.81,2.27,2.81A3.33,3.33,0,0,0,821.42,111.68Z" transform="translate(-55.58 -5.1)" style="fill:#f6f6f6"/><path d="M827.75,111.49a1.47,1.47,0,1,1,2.93,0,1.47,1.47,0,1,1-2.93,0Zm0,7.47a1.47,1.47,0,1,1,2.93,0,1.47,1.47,0,1,1-2.93,0Z" transform="translate(-55.58 -5.1)" style="fill:#f6f6f6"/><path d="M834.84,113.18c0-4.84,1.77-7.2,4.52-7.2s4.52,2.38,4.52,7.2-1.78,7.3-4.52,7.3S834.84,118.05,834.84,113.18Zm6.95,0c0-4-1-5.47-2.43-5.47s-2.43,1.46-2.43,5.47,1,5.57,2.43,5.57S841.79,117.23,841.79,113.18Z" transform="translate(-55.58 -5.1)" style="fill:#f6f6f6"/><path d="M847.57,113.18c0-4.84,1.77-7.2,4.52-7.2s4.52,2.38,4.52,7.2-1.78,7.3-4.52,7.3S847.57,118.05,847.57,113.18Zm6.95,0c0-4-1-5.47-2.43-5.47s-2.43,1.46-2.43,5.47,1,5.57,2.43,5.57S854.52,117.23,854.52,113.18Z" transform="translate(-55.58 -5.1)" style="fill:#f6f6f6"/><path d="M862.92,113.11c-.61,0-1.14.4-1.61,1.27l-1.18-.85a3.39,3.39,0,0,1,2.83-2c1.71,0,2.56,1.75,3.76,1.75.61,0,1.12-.4,1.6-1.27l1.19.87a3.49,3.49,0,0,1-2.83,2C865,114.86,864.12,113.11,862.92,113.11Z" transform="translate(-55.58 -5.1)" style="fill:#f6f6f6"/><path d="M873.77,118.43h3.06V108.7h-2.51v-1.39a8.56,8.56,0,0,0,3-1.06H879v12.18h2.74v1.8h-8Z" transform="translate(-55.58 -5.1)" style="fill:#f6f6f6"/><path d="M892.37,108.09H885.8v-1.84h9v1.33c-3.28,4.1-3.8,7.18-4,12.65h-2.25C888.78,115.12,889.67,111.85,892.37,108.09Z" transform="translate(-55.58 -5.1)" style="fill:#f6f6f6"/><path d="M899,111.49a1.46,1.46,0,1,1,2.92,0,1.46,1.46,0,1,1-2.92,0Zm0,7.47a1.46,1.46,0,1,1,2.92,0,1.46,1.46,0,1,1-2.92,0Z" transform="translate(-55.58 -5.1)" style="fill:#f6f6f6"/><path d="M905.69,118.56l1.06-1.41a4.53,4.53,0,0,0,3.31,1.54c1.58,0,2.66-.87,2.66-2.31s-1-2.57-4.14-2.57V112.2c2.75,0,3.67-1,3.67-2.45a2,2,0,0,0-2.15-2,4.08,4.08,0,0,0-2.79,1.33l-1.14-1.37a5.91,5.91,0,0,1,4-1.69c2.51,0,4.28,1.3,4.28,3.61a3.38,3.38,0,0,1-2.41,3.29V113a3.54,3.54,0,0,1,2.88,3.5c0,2.53-2.1,4-4.67,4A5.83,5.83,0,0,1,905.69,118.56Z" transform="translate(-55.58 -5.1)" style="fill:#f6f6f6"/><path d="M918.78,113.18c0-4.84,1.77-7.2,4.52-7.2s4.53,2.38,4.53,7.2-1.79,7.3-4.53,7.3S918.78,118.05,918.78,113.18Zm7,0c0-4-1-5.47-2.44-5.47s-2.43,1.46-2.43,5.47,1,5.57,2.43,5.57S925.74,117.23,925.74,113.18Z" transform="translate(-55.58 -5.1)" style="fill:#f6f6f6"/><path d="M936,113a12.63,12.63,0,0,1-3.77,9.08l-1.44-.68a11.82,11.82,0,0,0,0-16.79l1.44-.69A12.66,12.66,0,0,1,936,113Z" transform="translate(-55.58 -5.1)" style="fill:#f6f6f6"/></g></svg>