<svg id="b7a22138-673d-42a9-bc1e-6fa78d35d1c3" data-name="圖層 1" xmlns="http://www.w3.org/2000/svg" viewBox="0 0 300.32 118.37"><g style="isolation:isolate"><path d="M49.86,8.49a6.37,6.37,0,0,0,4.4,3.95,3.86,3.86,0,0,0-.69,1,7.15,7.15,0,0,1-4.41-4.07,6.94,6.94,0,0,1-4.4,4.08,4,4,0,0,0-.67-.87c2.68-1,3.76-2.56,4.18-4H44.4v-1h4.06a8.12,8.12,0,0,0,.06-1.07V5.18H44.8V4.12h8.64V5.18H49.59V6.39a9.86,9.86,0,0,1-.05,1.06h4.35v1Z" transform="translate(-10.46 -3.27)" style="fill:#fff"/><path d="M61,5.17V7l.19-.22A25.33,25.33,0,0,1,65,9.05l-.75.94A23.32,23.32,0,0,0,61,7.88v5.53H59.92V5.17H55.83v-1h9.72v1Z" transform="translate(-10.46 -3.27)" style="fill:#fff"/><path d="M71.08,7.94A7.89,7.89,0,0,1,68,12.76a4.6,4.6,0,0,0-.82-.77,6.4,6.4,0,0,0,2.64-3.33h-2.4v-1h2.84l.18,0ZM77,7.05a27.44,27.44,0,0,1-2.8,2.28,6.81,6.81,0,0,0,3.18,2.53,4.77,4.77,0,0,0-.71.9,7.66,7.66,0,0,1-3.81-3.84v3.27c0,.58-.13.88-.53,1a5.32,5.32,0,0,1-1.92.19,3.58,3.58,0,0,0-.37-1c.61,0,1.28,0,1.47,0s.25-.07.25-.25V6.53h-2.9v-1h4v.88a11.19,11.19,0,0,0,.86,2.12A17,17,0,0,0,76,6.37ZM73.78,5.7a19.05,19.05,0,0,0-4-1.5l.51-.85a18.61,18.61,0,0,1,4,1.39Z" transform="translate(-10.46 -3.27)" style="fill:#fff"/><path d="M80,10.55a15.55,15.55,0,0,1-.54,2.82,4.66,4.66,0,0,0-.77-.27,12.87,12.87,0,0,0,.51-2.69Zm1.78-.45a6.18,6.18,0,0,0-.11-.61,10.4,10.4,0,0,0-2.61.51,4.94,4.94,0,0,0-.28-.85c.23-.06.46-.33.78-.75a11.53,11.53,0,0,0,.77-1.13A5.46,5.46,0,0,0,79,7.51a8.37,8.37,0,0,0-.29-.83c.2,0,.36-.27.57-.61a13.51,13.51,0,0,0,1.27-2.76l.86.35a17.15,17.15,0,0,1-1.47,2.83l.93-.08c.25-.47.52-1,.73-1.48l.8.46a20.44,20.44,0,0,1-2.23,3.5l1.35-.18c-.09-.33-.19-.67-.29-1l.71-.18a17.16,17.16,0,0,1,.6,2.3Zm-.8.28a22.29,22.29,0,0,1,.28,2.52l-.75.15a24.34,24.34,0,0,0-.23-2.55Zm1-.27a17.76,17.76,0,0,1,.57,2l-.69.22a16.75,16.75,0,0,0-.54-2Zm4.73,1.74c.78.27,1.6.6,2.14.84l-.42.73c-.58-.27-1.5-.69-2.33-1l.33-.57H84.6l.6.56c-.83.38-1.9.79-2.67,1.08a4.57,4.57,0,0,0-.38-.72,19.72,19.72,0,0,0,2.23-.92H82.77V8.61h5.46v3.24Zm-1.6-7.29h-2.7V3.87h2.7V3.33h1v.54h2.58v.69H86.06v.49h2.19v.66H82.78V5.05h2.28ZM82.41,6.08h6.18V8.2H82.41Zm.85,1.46h1v-.8h-1Zm.43,2h3.59v-.4H83.69Zm0,.84h3.59V10H83.69Zm0,.87h3.59v-.44H83.69ZM86,7.54v-.8h-1v.8Zm1.67-.8h-.89v.8h.89Z" transform="translate(-10.46 -3.27)" style="fill:#fff"/><path d="M96.09,3.6a2.35,2.35,0,0,1-.16.21A10.57,10.57,0,0,0,100.53,6a4.08,4.08,0,0,0-.65.78c-.26-.08-.55-.16-.83-.26V9.32H91.62V6.54c-.28.1-.54.19-.82.27A3.58,3.58,0,0,0,90.25,6a9.41,9.41,0,0,0,4.94-2.75ZM99,6.46a12,12,0,0,1-1.76-.78V6H93.44V5.73a10.92,10.92,0,0,1-1.59.73Zm-6.77,3.3h6.28v3.62h-1v-.3H93.26v.34h-1Zm1.5-2.57A4.78,4.78,0,0,1,94.3,8.4l-.72.25h1.29V7.13H92.49V8.65h1.05A4.53,4.53,0,0,0,93,7.41Zm-.48,3.27v.61h4.21v-.61Zm4.21,1.93v-.62H93.26v.62Zm-.87-7.1a7.13,7.13,0,0,1-1.21-.92,7.93,7.93,0,0,1-1.2.92Zm1.55,1.84H95.71V8.65h1.23l-.68-.21a8.47,8.47,0,0,0,.55-1.29l.86.24c-.24.48-.49.94-.68,1.26h1.16Z" transform="translate(-10.46 -3.27)" style="fill:#fff"/><path d="M105.22,8.87l-1.13.36V12.3c0,.5-.1.78-.39.94a3.22,3.22,0,0,1-1.44.19,3.2,3.2,0,0,0-.27-.94h1c.14,0,.2,0,.2-.19V9.51l-1.2.38-.23-1,1.43-.4V6.41h-1.28V5.47h1.28V3.34h.93V5.47h1.1v.94h-1.1V8.23l1-.3Zm4.39.75a7.1,7.1,0,0,0,2.5,2.41,4.4,4.4,0,0,0-.67.76,8.17,8.17,0,0,1-2.38-2.47v3h-1v-3a7.92,7.92,0,0,1-2.66,2.54,3.68,3.68,0,0,0-.69-.78,6.91,6.91,0,0,0,2.76-2.44h-2.1V8.73h2.69V7.56h1V8.73h2.74v.89Zm1.92-5.36a30.63,30.63,0,0,1-5.94.82,3.66,3.66,0,0,0-.27-.83,29.9,29.9,0,0,0,5.53-.79ZM106.2,7.72a7.59,7.59,0,0,0-.72-2.08l.81-.23a8,8,0,0,1,.79,2Zm1.92-.38a7.27,7.27,0,0,0-.48-2l.86-.15a7,7,0,0,1,.53,2Zm1.43.32A17.64,17.64,0,0,0,110.89,5l1,.35A22.12,22.12,0,0,1,110.34,8Z" transform="translate(-10.46 -3.27)" style="fill:#fff"/><path d="M122.68,10.64c-.21-.18-.44-.35-.71-.55v3.28h-1v-.29h-5v.32h-1V10.17a7.85,7.85,0,0,1-1.06.43,4,4,0,0,0-.64-.79,11.5,11.5,0,0,0,3.32-1.57h-3V7.39h2a3.7,3.7,0,0,0-.39-.8l.66-.16-.47,0a3,3,0,0,0-.2-.72A48.21,48.21,0,0,0,121,5.3l.55.72c-.76.11-1.7.21-2.69.28V7.39h1.3a8.32,8.32,0,0,0,.53-1.15l1,.26c-.18.31-.38.63-.56.89h2.09v.85h-2.58a27.69,27.69,0,0,1,2.84,1.85Zm-7.93-4.45h-1v-2h4c-.09-.21-.19-.41-.29-.6l1-.28c.14.25.32.59.45.88h4v2h-1V5h-7.33Zm3.18,4.06h-2V11h2Zm-2,2.09h2v-.73h-2Zm2-6c-.61,0-1.22.06-1.79.07a4.12,4.12,0,0,1,.46,1h1.33Zm-.06,1.88a9.8,9.8,0,0,1-1.68,1.29h1.74V8.24Zm3.1,2h-2.08V11H121Zm0,2.09v-.73h-2.08v.73Zm.19-2.81c-.67-.43-1.42-.9-2.15-1.29h-.11V9.53Z" transform="translate(-10.46 -3.27)" style="fill:#fff"/><path d="M128.16,9.41c-.13-.32-.4-.87-.66-1.38v5.4h-1V8.71a10.82,10.82,0,0,1-1.15,2.6,6,6,0,0,0-.52-1,11,11,0,0,0,1.63-3.94h-1.36v-1h1.4V3.34h1V5.41h1.17v1H127.5v.4c.29.41,1.08,1.63,1.26,1.93Zm6.69-.56a8.67,8.67,0,0,1-1.7,2.1,19.26,19.26,0,0,1,1.95,1.7l-.79.68a19.37,19.37,0,0,0-1.86-1.77,12,12,0,0,1-3.59,1.88,5.26,5.26,0,0,0-.59-.86,9.18,9.18,0,0,0,5.53-4.1Zm-.82-2A10.5,10.5,0,0,1,129.38,11a4.21,4.21,0,0,0-.56-.79,9.42,9.42,0,0,0,2.83-1.89,12.79,12.79,0,0,0-2.38.27c0-.23-.2-.71-.27-.93a1.64,1.64,0,0,0,.78-.34c.18-.2.71-1.06,1.09-1.65h-2V4.74h2.73a6.74,6.74,0,0,0-.47-1.18l1-.29a5.11,5.11,0,0,1,.61,1.47H135v.94h-3.05c-.35.57-.8,1.29-1.17,1.86l1.68-.09a7.91,7.91,0,0,0,.62-1Z" transform="translate(-10.46 -3.27)" style="fill:#fff"/><path d="M139.07,9.33a11.54,11.54,0,0,0-.53-1.2v5.3h-.88V8.67a11.9,11.9,0,0,1-.9,2.45,5.48,5.48,0,0,0-.43-1,12.78,12.78,0,0,0,1.28-3.74h-1v-1h1.06V3.34h.88V5.41h.83v1h-.83V7c.26.37.87,1.39,1,1.65Zm6.81.78a5.94,5.94,0,0,1-1.28,1.7,1.36,1.36,0,0,0,1,.62c.21,0,.34-.37.43-1.15a3,3,0,0,0,.66.51c-.23,1.29-.62,1.66-1.08,1.64a2.19,2.19,0,0,1-1.66-1,8.52,8.52,0,0,1-1.84,1,4.11,4.11,0,0,0-.54-.66,7,7,0,0,0,2-1.07,9.74,9.74,0,0,1-.58-1.9h-1.67c0,.11,0,.23,0,.34a14.11,14.11,0,0,1,1.45,1.26L142,12a10.17,10.17,0,0,0-1-.94,4.13,4.13,0,0,1-1.56,2.4,3.53,3.53,0,0,0-.68-.6,3.67,3.67,0,0,0,1.54-3.08h-.77V9h3.16a43.52,43.52,0,0,1-.47-5.54h.86A38.77,38.77,0,0,0,143.61,9h1.33c-.25-.2-.54-.42-.8-.59l.45-.41a3.47,3.47,0,0,0-.78.2,6.57,6.57,0,0,0-.25-.75c.18,0,.34-.22.54-.49a9.53,9.53,0,0,0,.59-.89,2.59,2.59,0,0,0-1,.21,4.86,4.86,0,0,0-.25-.73c.13,0,.25-.18.38-.38a7.33,7.33,0,0,0,.73-1.68l.76.21a10.62,10.62,0,0,1-.9,1.75l.65-.07a6.82,6.82,0,0,0,.35-.72l.76.27a15.11,15.11,0,0,1-1.54,2.39l.89-.11c-.08-.19-.16-.4-.22-.57l.59-.17A10.49,10.49,0,0,1,146.46,8l-.63.22c0-.13-.08-.3-.12-.47l-1,.15a6.93,6.93,0,0,1,1,.75l-.29.27h.89v.81h-2.55a7.81,7.81,0,0,0,.4,1.26A5.06,5.06,0,0,0,145,9.79ZM141.79,8.4c0-.12,0-.26-.08-.41a6.37,6.37,0,0,0-1.87.35,4.61,4.61,0,0,0-.25-.74c.17,0,.36-.22.56-.49s.35-.48.62-.91a3.56,3.56,0,0,0-1,.22,6.07,6.07,0,0,0-.24-.72.85.85,0,0,0,.41-.4,7.91,7.91,0,0,0,.83-1.84l.76.22a12.78,12.78,0,0,1-1,1.92l.68-.07c.13-.23.25-.47.36-.71l.74.27a16.42,16.42,0,0,1-1.59,2.38l.88-.11c-.07-.21-.15-.42-.21-.61l.61-.16a10.19,10.19,0,0,1,.53,1.59Z" transform="translate(-10.46 -3.27)" style="fill:#fff"/><path d="M151.66,6.79h2.53v.93h-2.53v1h2.2v2.89c0,.42-.07.69-.36.84a2.66,2.66,0,0,1-1.27.15,2.55,2.55,0,0,0-.28-.86h.84c.11,0,.14,0,.14-.15v-2h-1.27v3.81h-1V9.61h-1.2v2.94h-.91V8.7h2.11v-1H148.1V6.79h.76a6.72,6.72,0,0,0-.86-.36,8.27,8.27,0,0,0,1.06-2.86l1,.2c-.09.37-.19.74-.29,1.09h1V3.4h1V4.86h2.1v.93h-2.1Zm-1,0v-1H149.4a6.21,6.21,0,0,1-.48,1Zm5.11,3.59h-.94V4.3h.94Zm2-6.89v8.63c0,.62-.13.9-.49,1.08a4.56,4.56,0,0,1-1.79.2,5.07,5.07,0,0,0-.33-1.05,13,13,0,0,0,1.39,0c.18,0,.23,0,.23-.23V3.49Z" transform="translate(-10.46 -3.27)" style="fill:#fff"/><path d="M160.69,9.91c.84-.32,1.34-.82,1.39-1.48h-.15a.88.88,0,1,1,0-1.76c.69,0,1.06.54,1.06,1.37a2.69,2.69,0,0,1-2,2.58Z" transform="translate(-10.46 -3.27)" style="fill:#fff"/><path d="M170.29,10.32c-1.5.68-3.11,1.37-4.33,1.89l-.38-1.07,1.5-.57L166.87,4l1.07,0,.18,6.22,1.93-.81Zm4.7,3.09a24.32,24.32,0,0,0-2.28-2.78,7.84,7.84,0,0,1-3.58,2.82,5.18,5.18,0,0,0-.82-.9c3.65-1.35,4.8-4,5.25-8.63l1.12.11a16.6,16.6,0,0,1-1.4,5.63,27.53,27.53,0,0,1,2.57,2.92Zm-4.17-5.6a11,11,0,0,0-1.68-2.7l.94-.45a10.85,10.85,0,0,1,1.73,2.62Z" transform="translate(-10.46 -3.27)" style="fill:#fff"/><path d="M177,11.59l.62-.81a2.63,2.63,0,0,0,1.91.89c.92,0,1.54-.5,1.54-1.34s-.57-1.49-2.4-1.49V7.91c1.6,0,2.13-.61,2.13-1.42a1.13,1.13,0,0,0-1.24-1.18,2.37,2.37,0,0,0-1.62.77l-.66-.79a3.41,3.41,0,0,1,2.32-1c1.45,0,2.48.75,2.48,2.09a1.94,1.94,0,0,1-1.4,1.9v.06a2,2,0,0,1,1.67,2,2.43,2.43,0,0,1-2.71,2.33A3.36,3.36,0,0,1,177,11.59Z" transform="translate(-10.46 -3.27)" style="fill:#fff"/><path d="M187,3.65a16.14,16.14,0,0,1-.87,2.11v7.68h-1V7.5a9.79,9.79,0,0,1-.91,1.21,8.57,8.57,0,0,0-.5-1.08,12.44,12.44,0,0,0,2.32-4.25Zm6.71.3v9.37h-1v-.55h-4.54v.65h-.93V4Zm-1,7.92v-7h-4.54v7Zm-1.85-4.79v1.1h1.16v2.93H189V8.18h1.1V7.08h-1.47V6.32h1.47V5.14h.82V6.32h1.53v.76Zm.37,1.84h-1.53v1.45h1.53Z" transform="translate(-10.46 -3.27)" style="fill:#fff"/><path d="M204.18,12.05c0,.66-.18,1-.62,1.14a7.15,7.15,0,0,1-2.35.21,4.31,4.31,0,0,0-.44-1.08c.86,0,1.74,0,2,0s.33-.09.33-.32V10.1h-5a6.12,6.12,0,0,1-1.88,3.34,4.27,4.27,0,0,0-.78-.75c1.71-1.47,1.88-3.63,1.88-5.35V3.88h6.85ZM203.1,9.11V7.48h-4.73a13.43,13.43,0,0,1-.1,1.63Zm-4.73-4.24V6.5h4.73V4.87Z" transform="translate(-10.46 -3.27)" style="fill:#fff"/><path d="M207.63,9.12a10.38,10.38,0,0,1,1.63-5.62l.79.34a10.36,10.36,0,0,0-1.38,5.28,10.31,10.31,0,0,0,1.38,5.28l-.79.35A10.39,10.39,0,0,1,207.63,9.12Z" transform="translate(-10.46 -3.27)" style="fill:#fff"/><path d="M221.64,7.71V8.83h-10V7.71Z" transform="translate(-10.46 -3.27)" style="fill:#fff"/><path d="M227.63,6.62a10.59,10.59,0,0,1-3.9,2.44,4.72,4.72,0,0,0-.65-.78,10.36,10.36,0,0,0,3.5-1.83h-3.23V5.58h4.28V4.67c-1.13.09-2.3.15-3.36.17A3.75,3.75,0,0,0,224,4a43,43,0,0,0,7-.66l.85.72a25.1,25.1,0,0,1-3.27.51v1H233v.87h-3a23.93,23.93,0,0,1,3.22,2.13l-.66.71a29.41,29.41,0,0,0-3.92-2.65V8.13h-1Zm1.06,3.76H233v.88h-4.31v1.09c0,.54-.13.78-.55.93a8.24,8.24,0,0,1-2,.13,3.92,3.92,0,0,0-.35-.89c.73,0,1.46,0,1.66,0s.27-.06.27-.2V11.26h-4.35v-.88h4.35V9.76A13.4,13.4,0,0,0,229,9.22h-3.75v-.8h5l.22-.06.62.54a11,11,0,0,1-2.36,1.26Z" transform="translate(-10.46 -3.27)" style="fill:#fff"/><path d="M234.71,14.4a10.22,10.22,0,0,0,1.39-5.28,10.27,10.27,0,0,0-1.39-5.28l.8-.34a10.3,10.3,0,0,1,1.64,5.62,10.31,10.31,0,0,1-1.64,5.63Z" transform="translate(-10.46 -3.27)" style="fill:#fff"/><path d="M248.93,9.21s0,.27,0,.4c-.19,2.2-.39,3.12-.72,3.46a1,1,0,0,1-.76.33,11.12,11.12,0,0,1-1.33,0,2.12,2.12,0,0,0-.26-.91,11.13,11.13,0,0,0,1.14.05.5.5,0,0,0,.39-.12c.2-.19.37-.84.51-2.34h-6.52a12.44,12.44,0,0,1-1.75,1.12,5.69,5.69,0,0,0-.54-.87,10.74,10.74,0,0,0,4.42-4.2h-3.72V5.22h2a8.22,8.22,0,0,0-.77-1.5l.87-.34a7,7,0,0,1,.88,1.6l-.57.24H244a13,13,0,0,0,.77-1.9l1,.29c-.2.55-.42,1.09-.66,1.61h2.2c-.12.65-.25,1.41-.39,2h1.25c-.1.65-.24,1.4-.37,2Zm-9.45,3.62a3.93,3.93,0,0,0,1.24-2.24l.87.29a4.48,4.48,0,0,1-1.31,2.46ZM243,10.88a7.51,7.51,0,0,1,.31,2l-.9.12a7.74,7.74,0,0,0-.24-2Zm.35-2.78c-.31.38-.65.75-1,1.11h4.51c.08-.33.15-.72.22-1.11Zm1.27,2.59a8.39,8.39,0,0,1,.58,1.76l-.82.22a9.67,9.67,0,0,0-.54-1.79Zm0-4.55c-.2.37-.42.72-.65,1.08h2c.08-.32.16-.7.22-1.08Zm1.52,6a6.37,6.37,0,0,0-.73-1.49l.7-.24a6.26,6.26,0,0,1,.79,1.43Z" transform="translate(-10.46 -3.27)" style="fill:#fff"/><path d="M260.74,7.71V8.83h-10V7.71Z" transform="translate(-10.46 -3.27)" style="fill:#fff"/><path d="M264.62,11.23A7.58,7.58,0,0,1,263,13.44a5.78,5.78,0,0,0-.82-.6A5.48,5.48,0,0,0,263.66,11Zm2.95-.44h-5.35V9.9h1V5.61h-.89V4.72h.89V3.45h.92V4.72h1.72V3.45h.95V4.72h.79v.89h-.79V9.9h.74Zm-3.41-5.18v.82h1.72V5.61Zm0,2.54h1.72V7.24h-1.72Zm0,1.75h1.72V9h-1.72Zm1.86,1a10.66,10.66,0,0,1,1.19,1.61l-.83.5a10.64,10.64,0,0,0-1.14-1.68ZM272,12.22c0,.54-.12.84-.46,1a3.76,3.76,0,0,1-1.67.19,3.41,3.41,0,0,0-.3-1c.52,0,1.07,0,1.21,0s.23,0,.23-.23V9.77h-2a8.88,8.88,0,0,1-1,3.71,3.35,3.35,0,0,0-.82-.59,10.25,10.25,0,0,0,.95-5.07v-4H272Zm-1-3.38V7.24H269v.58c0,.32,0,.67,0,1ZM269,4.78V6.34H271V4.78Z" transform="translate(-10.46 -3.27)" style="fill:#fff"/><path d="M274.87,9.91c.84-.32,1.34-.82,1.39-1.48h-.15a.88.88,0,1,1,0-1.76c.69,0,1.06.54,1.06,1.37a2.69,2.69,0,0,1-2,2.58Z" transform="translate(-10.46 -3.27)" style="fill:#fff"/><path d="M13.07,23.31a13.42,13.42,0,0,1-1.7,2.19,6,6,0,0,0-.91-.6A10.14,10.14,0,0,0,13,21.28l1,.29a9,9,0,0,1-.41.82h6.58v.92ZM19,27.59c0,.6-.06,1.09-.11,1.51h1.28V30H18.75a2.2,2.2,0,0,1-.3,1,1,1,0,0,1-.83.45,11.25,11.25,0,0,1-1.43,0,2,2,0,0,0-.24-.81c.53,0,1,.05,1.21.05a.42.42,0,0,0,.39-.16,1.22,1.22,0,0,0,.19-.51h-6.1c.14-.66.27-1.51.4-2.4H10.51v-.92h1.68c.11-.83.21-1.65.27-2.37h6.62s0,.33,0,.46c0,.72,0,1.35-.06,1.91h1.55v.92Zm-5.89,0c-.08.55-.16,1.07-.22,1.54h3a9.21,9.21,0,0,0-1.7-1.1l.45-.44Zm.32-2.37c-.07.49-.14,1-.2,1.51H16a8.52,8.52,0,0,0-1.66-1l.49-.47Zm4.46,3.91c.05-.41.08-.91.11-1.54h-3a8,8,0,0,1,1.72,1.14l-.38.4ZM18,26.7c0-.45,0-1,0-1.51H15.11a7.12,7.12,0,0,1,1.7,1.08l-.42.43Z" transform="translate(-10.46 -3.27)" style="fill:#fff"/><path d="M24.44,29.23a7.6,7.6,0,0,1-1.63,2.21,5.16,5.16,0,0,0-.81-.6A5.58,5.58,0,0,0,23.47,29Zm2.95-.44H22V27.9h1V23.61h-.89v-.89h.89V21.45H24v1.27h1.71V21.45h.95v1.27h.79v.89h-.79V27.9h.75ZM24,23.61v.82h1.71v-.82Zm0,2.54h1.71v-.91H24Zm0,1.75h1.71V27H24Zm1.86,1A11.39,11.39,0,0,1,27,30.54l-.83.5a12.21,12.21,0,0,0-1.14-1.68Zm5.94,1.29c0,.54-.12.84-.46,1a3.79,3.79,0,0,1-1.68.19,3.38,3.38,0,0,0-.29-1c.51,0,1.06,0,1.21,0s.23-.05.23-.23V27.77h-2a8.73,8.73,0,0,1-1,3.71,3.12,3.12,0,0,0-.81-.59,10.25,10.25,0,0,0,.94-5.07v-4h3.9Zm-1-3.38v-1.6H28.85v.58c0,.32,0,.67,0,1Zm-1.94-4.06v1.56h1.94V22.78Z" transform="translate(-10.46 -3.27)" style="fill:#fff"/><path d="M36.9,21.66A16.29,16.29,0,0,1,35.81,24v7.43h-1V25.5a14.19,14.19,0,0,1-1,1.15,8.09,8.09,0,0,0-.56-1A12.39,12.39,0,0,0,36,21.38Zm6.79,8.81v.77H36.63v-.77h3v-.69H37.29V29h2.36v-.62H37.06v-.77h2.59v-.53H37.21V24.84h2.44v-.46h-1.5V23.05H36.77v-.77h1.38v-1h1v1h2.13v-1h1v1h1.41v.77H42.22v1.33H40.65v.46h2.56v2.28H40.65v.53h2.67v.77H40.65V29h2.43v.74H40.65v.69Zm-4-4v-.89H38.16v.89ZM39.1,23.7h2.13v-.65H39.1Zm1.55,1.84v.89H42.2v-.89Z" transform="translate(-10.46 -3.27)" style="fill:#fff"/><path d="M48.68,26.93l-1.26.4v2.92c0,.53-.1.82-.4,1a2.9,2.9,0,0,1-1.45.21,3.6,3.6,0,0,0-.3-1h1c.14,0,.2,0,.2-.2V27.62L45.25,28,45,27c.4-.1.88-.24,1.42-.4V24.42H45.17v-.94h1.27V21.35h1v2.13H48.7v.94H47.42v1.92L48.54,26Zm6.17-5.06a3.88,3.88,0,0,1,0,.41c-.11,2.39-.22,3.32-.5,3.65a1,1,0,0,1-.73.36,9.22,9.22,0,0,1-1.25,0,2.23,2.23,0,0,0-.29-1c.45,0,.88,0,1.06,0a.41.41,0,0,0,.35-.12,6.36,6.36,0,0,0,.35-2.48H51.75a4.31,4.31,0,0,1-2.5,3.8,2.72,2.72,0,0,0-.63-.8,3.36,3.36,0,0,0,2.1-3H49v-.92Zm-5.54,5h5.38v4.48h-1v-.45H50.3v.49h-1Zm1,.91V30h3.37V27.81Z" transform="translate(-10.46 -3.27)" style="fill:#fff"/><path d="M59.75,21.51h1v9.93h-1V28.52a9.48,9.48,0,0,0-2.45,1,4.83,4.83,0,0,0-.4-.94.8.8,0,0,0,.39-.74V22.54h1V28l1.46-.46ZM66,24.38a12.73,12.73,0,0,1-1.42,4.24,6.55,6.55,0,0,0,2.26,1.94,3.16,3.16,0,0,0-.71.83A7.17,7.17,0,0,1,64,29.48a7.28,7.28,0,0,1-2.36,2,4.26,4.26,0,0,0-.67-.84,6.32,6.32,0,0,0,2.46-2,13.79,13.79,0,0,1-1.2-2.78,6.09,6.09,0,0,1-.73,1.11,7,7,0,0,0-.73-.87,9.82,9.82,0,0,0,1.79-4.72l1,.18a16.9,16.9,0,0,1-.43,1.9h3.57v1Zm-3.22.23A12.27,12.27,0,0,0,64,27.68a11.25,11.25,0,0,0,1-3.3H62.88Z" transform="translate(-10.46 -3.27)" style="fill:#fff"/><path d="M68.09,29.59l.61-.81a2.65,2.65,0,0,0,1.92.89,1.36,1.36,0,0,0,1.54-1.34c0-.9-.57-1.49-2.4-1.49v-.93c1.6,0,2.12-.61,2.12-1.42a1.13,1.13,0,0,0-1.24-1.18,2.37,2.37,0,0,0-1.62.77l-.66-.79a3.43,3.43,0,0,1,2.32-1c1.46,0,2.48.75,2.48,2.09a1.94,1.94,0,0,1-1.4,1.9v.06a2,2,0,0,1,1.67,2,2.43,2.43,0,0,1-2.7,2.33A3.34,3.34,0,0,1,68.09,29.59Z" transform="translate(-10.46 -3.27)" style="fill:#fff"/><path d="M75.12,26.48c0-2.8,1-4.17,2.61-4.17s2.62,1.38,2.62,4.17-1,4.23-2.62,4.23S75.12,29.3,75.12,26.48Zm4,0c0-2.32-.58-3.17-1.41-3.17s-1.4.85-1.4,3.17.58,3.22,1.4,3.22S79.14,28.82,79.14,26.48Z" transform="translate(-10.46 -3.27)" style="fill:#fff"/><path d="M85.44,21.67A18.84,18.84,0,0,1,84.37,24v7.46h-1V25.56a9,9,0,0,1-.9,1.09,6.27,6.27,0,0,0-.57-1,12.09,12.09,0,0,0,2.61-4.23ZM91.87,30v1H85V30h3.82a42.4,42.4,0,0,0,1-5.29l1.06.18c-.29,1.66-.71,3.7-1.11,5.11Zm-.41-5.75h-6v-1h6Zm-4.61,5.33a41.3,41.3,0,0,0-.69-4.6l.91-.2a40.19,40.19,0,0,1,.8,4.51Zm1.26-6.38a11,11,0,0,0-.51-1.74l1-.24a13.87,13.87,0,0,1,.55,1.7Z" transform="translate(-10.46 -3.27)" style="fill:#fff"/><path d="M99.23,21.6c-.06.06-.1.14-.17.21a10.68,10.68,0,0,0,4.6,2.14,4.49,4.49,0,0,0-.65.78c-.26-.08-.55-.16-.82-.26v2.85H94.75V24.54q-.41.15-.81.27a4,4,0,0,0-.55-.78,9.41,9.41,0,0,0,4.94-2.75Zm2.92,2.86a12.06,12.06,0,0,1-1.77-.78V24h-3.8v-.26a11.55,11.55,0,0,1-1.6.73Zm-6.77,3.3h6.27v3.62H100.6v-.3H96.39v.34h-1Zm1.5-2.57a4.78,4.78,0,0,1,.56,1.21l-.73.25H98V25.13H95.62v1.52h1.06a4.91,4.91,0,0,0-.52-1.24Zm-.49,3.27v.61h4.21v-.61Zm4.21,1.93v-.62H96.39v.62Zm-.86-7.1a6.75,6.75,0,0,1-1.21-.92,8.46,8.46,0,0,1-1.2.92Zm1.55,1.84H98.84v1.52h1.24l-.69-.21a8.47,8.47,0,0,0,.55-1.29l.86.24c-.24.48-.48.94-.68,1.26h1.17Z" transform="translate(-10.46 -3.27)" style="fill:#fff"/><path d="M111.87,29.58a32.24,32.24,0,0,1,3.24,1.15l-.9.71a30,30,0,0,0-3.46-1.26l.8-.6h-3.18l.77.52a13.61,13.61,0,0,1-3.41,1.33,6.8,6.8,0,0,0-.77-.74A12.86,12.86,0,0,0,108,29.58h-1.91V24.82H114v4.76Zm1.67-5.29h-7V21.72h7Zm-6.41,1.89h5.77v-.62h-5.77Zm0,1.33h5.77v-.63h-5.77Zm0,1.34h5.77V28.2h-5.77Zm5.33-6.32h-4.85v.95h4.85Z" transform="translate(-10.46 -3.27)" style="fill:#fff"/><path d="M117.62,27.91c.85-.32,1.34-.82,1.4-1.48h-.16a.86.86,0,0,1-.92-.88.87.87,0,0,1,.94-.88c.69,0,1.05.54,1.05,1.37a2.69,2.69,0,0,1-2,2.58Z" transform="translate(-10.46 -3.27)" style="fill:#fff"/><path d="M125.16,23.31a13.42,13.42,0,0,1-1.7,2.19,6,6,0,0,0-.91-.6,10.14,10.14,0,0,0,2.52-3.62l1,.29a9,9,0,0,1-.41.82h6.58v.92Zm5.9,4.28c0,.6-.06,1.09-.11,1.51h1.28V30h-1.39a2.2,2.2,0,0,1-.3,1,1,1,0,0,1-.83.45,11.25,11.25,0,0,1-1.43,0,2,2,0,0,0-.24-.81c.53,0,1,.05,1.21.05a.42.42,0,0,0,.39-.16,1.22,1.22,0,0,0,.19-.51h-6.1c.14-.66.27-1.51.4-2.4H122.6v-.92h1.68c.11-.83.2-1.65.27-2.37h6.62s0,.33,0,.46c0,.72,0,1.35-.06,1.91h1.55v.92Zm-5.89,0c-.08.55-.16,1.07-.22,1.54h3a9.21,9.21,0,0,0-1.7-1.1l.45-.44Zm.32-2.37c-.07.49-.14,1-.2,1.51h2.81a8.52,8.52,0,0,0-1.66-1l.49-.47ZM130,29.1c.05-.41.08-.91.11-1.54h-3a8,8,0,0,1,1.72,1.14l-.38.4Zm.15-2.4c0-.45,0-1,0-1.51H127.2a7.12,7.12,0,0,1,1.7,1.08l-.42.43Z" transform="translate(-10.46 -3.27)" style="fill:#fff"/><path d="M137.69,21.67A18.84,18.84,0,0,1,136.62,24v7.46h-1V25.56a9,9,0,0,1-.9,1.09,6.27,6.27,0,0,0-.57-1,12.09,12.09,0,0,0,2.61-4.23ZM144.12,30v1h-6.84V30h3.82a42.4,42.4,0,0,0,1-5.29l1.06.18c-.29,1.66-.71,3.7-1.11,5.11Zm-.41-5.75h-6v-1h6Zm-4.61,5.33a41.3,41.3,0,0,0-.69-4.6l.91-.2a40.19,40.19,0,0,1,.8,4.51Zm1.26-6.38a11,11,0,0,0-.51-1.74l1-.24a13.87,13.87,0,0,1,.55,1.7Z" transform="translate(-10.46 -3.27)" style="fill:#fff"/><path d="M151.48,21.6c-.06.06-.1.14-.17.21a10.68,10.68,0,0,0,4.6,2.14,4.49,4.49,0,0,0-.65.78c-.26-.08-.55-.16-.82-.26v2.85H147V24.54q-.41.15-.81.27a4,4,0,0,0-.55-.78,9.41,9.41,0,0,0,4.94-2.75Zm2.92,2.86a12.06,12.06,0,0,1-1.77-.78V24h-3.8v-.26a11.55,11.55,0,0,1-1.6.73Zm-6.77,3.3h6.27v3.62h-1.05v-.3h-4.21v.34h-1Zm1.5-2.57a4.78,4.78,0,0,1,.56,1.21l-.73.25h1.3V25.13h-2.39v1.52h1.06a4.91,4.91,0,0,0-.52-1.24Zm-.49,3.27v.61h4.21v-.61Zm4.21,1.93v-.62h-4.21v.62Zm-.86-7.1a6.75,6.75,0,0,1-1.21-.92,8.46,8.46,0,0,1-1.2.92Zm1.55,1.84h-2.45v1.52h1.24l-.69-.21a8.47,8.47,0,0,0,.55-1.29l.86.24c-.24.48-.48.94-.68,1.26h1.17Z" transform="translate(-10.46 -3.27)" style="fill:#fff"/><path d="M164.12,29.58a32.24,32.24,0,0,1,3.24,1.15l-.9.71A30,30,0,0,0,163,30.18l.8-.6h-3.18l.77.52A13.61,13.61,0,0,1,158,31.43a6.8,6.8,0,0,0-.77-.74,12.86,12.86,0,0,0,3.06-1.11h-1.91V24.82h7.86v4.76Zm1.67-5.29h-6.95V21.72h6.95Zm-6.41,1.89h5.77v-.62h-5.77Zm0,1.33h5.77v-.63h-5.77Zm0,1.34h5.77V28.2h-5.77Zm5.33-6.32h-4.85v.95h4.85Z" transform="translate(-10.46 -3.27)" style="fill:#fff"/><path d="M178.72,23.11h-1.31v7c0,.66-.17,1-.63,1.15a7.33,7.33,0,0,1-2.34.2,5,5,0,0,0-.43-1.1c.83,0,1.75,0,2,0s.32-.07.32-.3V23.11H169v-1h9.77ZM171,28.69v.86h-1v-5h4.53v4.13Zm0-3.17v2.2h2.52v-2.2Z" transform="translate(-10.46 -3.27)" style="fill:#fff"/><path d="M189.46,26a3.12,3.12,0,0,0-.24-.49l-2.13.17a11.77,11.77,0,0,0,3.48,1.49,4.41,4.41,0,0,0-.64.8,11,11,0,0,1-4.64-2.67,9.82,9.82,0,0,1-4.41,2.75,5,5,0,0,0-.57-.81,9.29,9.29,0,0,0,3.29-1.56l0-.08a10.65,10.65,0,0,0-2.44.24,5.72,5.72,0,0,0-.31-.83.82.82,0,0,0,.4-.27,5.17,5.17,0,0,0,.86-1.2L183,24a7.61,7.61,0,0,1-.81,1l1,0a3.85,3.85,0,0,0-.28-.45l.73-.23a10.6,10.6,0,0,1,.56.94,5.35,5.35,0,0,0,.84-1.13l.94.27c-.06.11-.12.22-.19.33a4.57,4.57,0,0,0,.44.44l0-.07a.67.67,0,0,0,.35-.27,4,4,0,0,0,.65-1.12l.91.37a6.09,6.09,0,0,1-.64.92l1.24-.07c-.12-.17-.27-.34-.4-.49l.73-.31a6.88,6.88,0,0,1,1.16,1.66Zm-1.17-2.25c-.14-.16-.29-.32-.49-.51-4.91.21-5.45.2-5.86.33a7.81,7.81,0,0,0-.29-.85,2.31,2.31,0,0,0,.7-.27,9.09,9.09,0,0,0,1.88-1.24l.9.47a14.36,14.36,0,0,1-1.49.94l3.34-.1c-.3-.24-.61-.47-.91-.67l.76-.37a14.26,14.26,0,0,1,2.27,1.84Zm.59,5c-1.39,1.47-3.89,2.25-6.68,2.63a2.63,2.63,0,0,0-.47-.82c2.65-.3,5.1-1,6.31-2.21Zm-1.3-1.11a12.13,12.13,0,0,1-4.81,2.07,3.78,3.78,0,0,0-.52-.73,11.51,11.51,0,0,0,4.55-1.72Zm-1.22-1a11.56,11.56,0,0,1-3.51,1.64,3.25,3.25,0,0,0-.56-.63,10.74,10.74,0,0,0,3.33-1.39Z" transform="translate(-10.46 -3.27)" style="fill:#fff"/><path d="M196.91,23.3s0,.36,0,.51c-.2,4.69-.36,6.35-.76,6.86a1.08,1.08,0,0,1-.78.49,7.83,7.83,0,0,1-1.22,0,2.78,2.78,0,0,0-.3-1.05c.43,0,.81.05,1,.05a.44.44,0,0,0,.39-.2c.27-.33.46-1.78.61-5.68h-1.34c-.13,2.75-.53,5.4-1.87,7.11a3.53,3.53,0,0,0-.81-.73c1.23-1.49,1.57-3.89,1.67-6.38h-1.41v-1h1.44c0-.65,0-1.31,0-1.93h1c0,.62,0,1.28,0,1.93Zm4.59-.66v8.52h-1.06v-.71H198.6v.79h-1v-8.6Zm-1.06,6.83V23.63H198.6v5.84Z" transform="translate(-10.46 -3.27)" style="fill:#fff"/><path d="M213.5,25.71v1.12h-10V25.71Z" transform="translate(-10.46 -3.27)" style="fill:#fff"/><path d="M218.55,28.45h-3.46v-1h3.46ZM218.26,24h-2.94V23h2.94Zm3.4,1.49v.35c.47,2.23,1.5,4,3.46,4.65a3.76,3.76,0,0,0-.69.92,5.68,5.68,0,0,1-3.1-3.48A6.13,6.13,0,0,1,218,31.48a3.51,3.51,0,0,0-.76-.83,5.24,5.24,0,0,0,3.31-5.21v-.92h1.09Zm-1.83-1.3a10.19,10.19,0,0,1-1.15,2.29,7.44,7.44,0,0,0-1-.6,10.31,10.31,0,0,0,1.83-4.52l1.12.21c-.11.55-.25,1.08-.4,1.6h3.67l.21-.06.74.42a15,15,0,0,1-1.15,3.06c-.21-.11-.61-.32-.86-.43a13.56,13.56,0,0,0,.73-2Z" transform="translate(-10.46 -3.27)" style="fill:#fff"/><path d="M236.28,22.93v2.34h-1V23.8h-7.33v1.47h-1V22.93h1.6a8.48,8.48,0,0,0-.73-1.11l.89-.37a6.18,6.18,0,0,1,.93,1.32l-.34.16H231v-1.6h1v1.6h1.66l-.25-.09a8.79,8.79,0,0,0,.88-1.42l1.08.33c-.3.42-.63.84-.9,1.18Zm-8.55,4.49h7.86v4h-1v-.26h-5.84v.28h-1Zm1,.75v.75h2.37v-.75Zm2.37,2.23v-.76h-2.37v.76Zm3.41-5.92v2.39h-5.75V24.48Zm-1,.76H229.7v.87h3.76Zm1.09,2.93h-2.47v.75h2.47Zm0,2.23v-.76h-2.47v.76Z" transform="translate(-10.46 -3.27)" style="fill:#fff"/><path d="M242.59,24.62a10.59,10.59,0,0,1-3.9,2.44,4.72,4.72,0,0,0-.65-.78,10.36,10.36,0,0,0,3.5-1.83h-3.23v-.87h4.28v-.91c-1.13.09-2.3.15-3.36.17A3.28,3.28,0,0,0,239,22a43,43,0,0,0,7-.66l.85.72a25.1,25.1,0,0,1-3.27.51v1H248v.87h-3a23.93,23.93,0,0,1,3.22,2.13l-.66.71a29.41,29.41,0,0,0-3.92-2.65v1.49h-1Zm1.06,3.76H248v.88h-4.31v1.09c0,.54-.13.78-.55.93a8.24,8.24,0,0,1-2,.13,3.92,3.92,0,0,0-.35-.89c.73,0,1.47,0,1.66,0s.27-.06.27-.2V29.26H238.3v-.88h4.35v-.62a12.38,12.38,0,0,0,1.27-.54h-3.75v-.8h5l.22-.06.62.54a10.76,10.76,0,0,1-2.36,1.26Z" transform="translate(-10.46 -3.27)" style="fill:#fff"/><path d="M259.4,23s0,.35,0,.48c-.15,5-.29,6.67-.73,7.22a1.25,1.25,0,0,1-1,.52,13.14,13.14,0,0,1-1.67,0,2.28,2.28,0,0,0-.33-1c.71.05,1.35.06,1.62.06a.48.48,0,0,0,.46-.19c.36-.36.5-2,.64-6.17h-2.59a11.3,11.3,0,0,1-1,1.85,5.45,5.45,0,0,0-.81-.57V30.3h-3v.83h-.93v-8h1.23a12.56,12.56,0,0,0,.38-1.78l1.11.19c-.18.55-.39,1.13-.57,1.59H254v2.08a10.4,10.4,0,0,0,1.64-3.86l1,.23a15.25,15.25,0,0,1-.45,1.5Zm-8.35.94v2.09h2V24Zm2,5.42V27h-2V29.4Zm3.66-.86A17.47,17.47,0,0,0,255.15,26l.81-.45A19.32,19.32,0,0,1,257.62,28Z" transform="translate(-10.46 -3.27)" style="fill:#fff"/><path d="M264.55,27.76l.19.93c-1.14.49-2.35,1-3.29,1.37l-.32-1,1.31-.46V24.94h-1.23V24h1.23V21.46h.91V24h1.17v1h-1.17v3.27Zm6.71-2.17v.92h-6.78v-.92h4a14.45,14.45,0,0,0,.69-2.11l.95.25c-.22.62-.48,1.31-.71,1.86Zm-.36-2.12h-6v-.92h2.55a8.34,8.34,0,0,0-.28-1.12l.92-.15a9.72,9.72,0,0,1,.35,1.27h2.46Zm-5.5,3.88h5v4h-1V31h-3.09v.43h-.93Zm.75-1.8a7,7,0,0,0-.53-1.78l.83-.25a8.32,8.32,0,0,1,.59,1.74Zm.18,2.71v1.83h3.09V28.26Z" transform="translate(-10.46 -3.27)" style="fill:#fff"/><path d="M282.25,23.66s0,.37,0,.51c-.25,4.46-.45,6.08-.94,6.65a1.32,1.32,0,0,1-1,.5,12.63,12.63,0,0,1-1.75,0,2.58,2.58,0,0,0-.36-1.05c.72.06,1.39.06,1.67.06a.61.61,0,0,0,.5-.16c.38-.36.61-1.86.8-5.46h-3.45a8,8,0,0,1-4,6.78,4.19,4.19,0,0,0-.8-.83,7,7,0,0,0,3.74-5.95h-3.41V23.66h3.47V21.35h1.08v2.31Z" transform="translate(-10.46 -3.27)" style="fill:#fff"/><path d="M294.26,29.61v1h-9.85v-1h4.3v-6H285V22.52h8.69v1.06h-3.83v6Z" transform="translate(-10.46 -3.27)" style="fill:#fff"/><path d="M302.19,25.64v.09h3.17s0,.31,0,.45c-.13,3.14-.26,4.33-.61,4.72a1,1,0,0,1-.85.42,14.42,14.42,0,0,1-1.51,0,2.27,2.27,0,0,0-.33-1c.59.06,1.15.07,1.38.07a.54.54,0,0,0,.43-.15c.21-.23.34-1.18.45-3.55h-2.15a6.08,6.08,0,0,1-2.83,4.75,4.72,4.72,0,0,0-.77-.7,5.63,5.63,0,0,0,2.62-5.12V24.19h-1.7V25h-1.2v2.95l1.3-.47.19,1L296,29.85l-.24-1.06c.42-.13.93-.32,1.5-.52V25H296V24h1.32V21.51h1V24h1.17v-.81h6.47v1h-3.72Zm.28-2.48a13.29,13.29,0,0,0-.5-1.68l1-.21a16.92,16.92,0,0,1,.54,1.61Z" transform="translate(-10.46 -3.27)" style="fill:#fff"/><path d="M308.47,27.91c.85-.32,1.34-.82,1.4-1.48h-.16a.88.88,0,1,1,0-1.76c.7,0,1.06.54,1.06,1.37a2.69,2.69,0,0,1-2,2.58Z" transform="translate(-10.46 -3.27)" style="fill:#fff"/><path d="M32.75,47.94v1H23v-1h3.18V42.41H23.24v-1h2.37a8.21,8.21,0,0,0-.94-1.7l.91-.35a7.5,7.5,0,0,1,1.05,1.82l-.54.23h3.18l-.22-.08a12,12,0,0,0,1.07-2l1.13.32c-.35.62-.75,1.27-1.1,1.76h2.33v1h-3v5.53Zm-8.12-4.58a12.83,12.83,0,0,1,1,3.4l-1,.26a12.28,12.28,0,0,0-1-3.42Zm2.55,4.58h1.31V42.41H27.18Zm2.71-1.18A21,21,0,0,0,31,43.27l1.1.25a34.07,34.07,0,0,1-1.3,3.5Z" transform="translate(-10.46 -3.27)" style="fill:#fff"/><path d="M44.3,47.37H39.92v1.07c0,.53-.16.76-.6.88a9.26,9.26,0,0,1-2.07.12,3.43,3.43,0,0,0-.36-.84c.69,0,1.5,0,1.67,0s.28-.06.28-.22v-1H34.53V46.5h4.31v-.57h0a14.4,14.4,0,0,0,1.87-.55H35.56v-.8h6.78l.24-.05.65.59a16,16,0,0,1-3.31,1.26v.14H44.3Zm-.16-6.28h-9.5v-.87h4.23c-.09-.26-.21-.54-.32-.78l1.06-.19a9.16,9.16,0,0,1,.42,1h4.11ZM36,44V41.71H42.9V44Zm1-.73h4.83v-.82H37Z" transform="translate(-10.46 -3.27)" style="fill:#fff"/><path d="M49.88,41.66c-.18.38-.37.75-.58,1.1h5.2v5.48c0,.55-.11.86-.5,1a5.88,5.88,0,0,1-1.92.16,3.57,3.57,0,0,0-.32-1c.65,0,1.31,0,1.5,0s.24-.05.24-.22v-.94H49.07a4.06,4.06,0,0,1-1.16,2.22,3.5,3.5,0,0,0-.73-.8,3.93,3.93,0,0,0,1-3.07v-1.3a8.27,8.27,0,0,1-1.6,1.47,5.5,5.5,0,0,0-.67-.79,8.9,8.9,0,0,0,2.83-3.36H46.17v-.95h3a11.16,11.16,0,0,0,.46-1.38l1,.24c-.12.38-.25.76-.4,1.14h5.48v.95Zm3.62,4.77v-1H49.21v.19c0,.24,0,.5,0,.77Zm0-2.76H49.21v.94H53.5Z" transform="translate(-10.46 -3.27)" style="fill:#fff"/><path d="M67.53,43.71v1.12h-10V43.71Z" transform="translate(-10.46 -3.27)" style="fill:#fff"/><path d="M71.29,43.81a5.82,5.82,0,0,1-1.7,1.25,3.5,3.5,0,0,0-.58-.64A5.7,5.7,0,0,0,71,43.14H69.51v-2h1.78V40.7H69.22V40h2.07v-.62h.9V40h2v.75h-2v.47H74V42a5.53,5.53,0,0,0,1.52-2.68l.91.22a5.74,5.74,0,0,1-.33,1H79v.82h-.72a5.52,5.52,0,0,1-1,2,5.78,5.78,0,0,0,1.9,1,4.19,4.19,0,0,0-.57.79,5.61,5.61,0,0,1-2-1.17,6.28,6.28,0,0,1-2,1.15,4,4,0,0,0-.59-.74,5.65,5.65,0,0,0,2-1,7.12,7.12,0,0,1-.82-1.26,6.15,6.15,0,0,1-.57.66,5.1,5.1,0,0,0-.65-.68v1.08H72.64A6.18,6.18,0,0,1,74,44l-.43.59a6.39,6.39,0,0,0-1.33-.9v1.27h-.9Zm3.24,4.48H79v.86H69.1v-.86h1.73V46.55h1v1.74h1.72V46.05H69.8v-.84h8.52v.84H74.53v.71h3v.78h-3ZM70.31,42.5h1v-.69h-1Zm1.88-.69v.69h.93v-.69Zm.33,1.33h-.33v.38Zm3.16-1.81a5.77,5.77,0,0,0,.89,1.4,4.34,4.34,0,0,0,.73-1.4Z" transform="translate(-10.46 -3.27)" style="fill:#fff"/><path d="M90.56,47H86.7v2.43H85.64V47h-5V46h1.77v-2.9h3.23V41.59H83.12a10,10,0,0,1-1.58,2.09,7.6,7.6,0,0,0-.89-.66,9,9,0,0,0,2.4-3.73l1,.27c-.13.34-.28.71-.43,1H90v1H86.7v1.52h3.07v1H86.7V46h3.86Zm-4.92-1V44.06H83.43V46Z" transform="translate(-10.46 -3.27)" style="fill:#fff"/><path d="M94,43.29a14.41,14.41,0,0,1-1,6.13,4.94,4.94,0,0,0-.92-.46,12.86,12.86,0,0,0,1-5.67V40.37h4.15a7.49,7.49,0,0,0-.36-.85l1-.24a8.25,8.25,0,0,1,.51,1.09h3.72v.94H94Zm7.25,2.61A5.35,5.35,0,0,1,99.15,48a14.39,14.39,0,0,0,3.06.55,4.51,4.51,0,0,0-.59.88A12.87,12.87,0,0,1,98,48.54a16.07,16.07,0,0,1-3.69.83,3,3,0,0,0-.42-.87,15.72,15.72,0,0,0,3-.52,6,6,0,0,1-1.59-1.4l.43-.16H94.4V45.6h6.06l.18,0ZM95.91,45V43.26H94.28v-.83h1.63v-.84h1v.84h2.37v-.84h1v.84h1.69v.83h-1.69V45Zm.43,1.4A5.1,5.1,0,0,0,98,47.58a5.25,5.25,0,0,0,1.74-1.16Zm.54-3.16v1h2.37v-1Z" transform="translate(-10.46 -3.27)" style="fill:#fff"/><path d="M113.43,41s0,.35,0,.48c-.15,5-.29,6.67-.73,7.22a1.25,1.25,0,0,1-1,.52,13,13,0,0,1-1.66,0,2.57,2.57,0,0,0-.33-1c.7,0,1.34.06,1.61.06a.5.5,0,0,0,.47-.19c.35-.36.49-2,.63-6.17h-2.59a11.3,11.3,0,0,1-1,1.85,5.45,5.45,0,0,0-.81-.57v5h-3v.83h-.93v-8h1.23a12.56,12.56,0,0,0,.38-1.78l1.11.19c-.18.55-.39,1.13-.57,1.59h1.76v2.08a10.4,10.4,0,0,0,1.64-3.86l1,.23a15.25,15.25,0,0,1-.45,1.5Zm-8.35.94v2.09h2V42Zm2,5.42V45h-2V47.4Zm3.66-.86A17.47,17.47,0,0,0,109.18,44l.81-.45A19.32,19.32,0,0,1,111.65,46Z" transform="translate(-10.46 -3.27)" style="fill:#fff"/><path d="M125.12,47.86v1h-9.71v-1H118c.2-1,.41-2.12.61-3.32h-2v-1h2.12c.11-.74.21-1.47.31-2.16h-3v-1h8.3v1h-4.14c-.1.69-.21,1.42-.32,2.16h2.42l.2,0,.79.07c-.08,1.23-.22,2.88-.38,4.3Zm-5.38-3.32c-.19,1.21-.4,2.37-.59,3.32h2.72c.13-1.1.24-2.36.31-3.32Z" transform="translate(-10.46 -3.27)" style="fill:#fff"/><path d="M132.61,43.44a7.78,7.78,0,0,0,4.22,5,4,4,0,0,0-.76,1,8.44,8.44,0,0,1-4.25-5.07,7.62,7.62,0,0,1-4.24,5.07,3.55,3.55,0,0,0-.79-.86,6.83,6.83,0,0,0,4.13-5.11H127V42.38h4.09a27.87,27.87,0,0,0,.13-3h1.11a28,28,0,0,1-.15,3h4.43v1.06Z" transform="translate(-10.46 -3.27)" style="fill:#fff"/><path d="M141.44,45.27c-.14-.28-.38-.78-.63-1.22v5.38h-.89V44.28a12.32,12.32,0,0,1-1.22,3,5.71,5.71,0,0,0-.49-1,11.51,11.51,0,0,0,1.56-3.86h-1.28v-1h1.43V39.33h.89v2.08h1.11v1h-1.11v.53c.25.33,1,1.4,1.19,1.67Zm4.28,3h2.59v.76h-4.92v.37h-.91V46.13c-.19.19-.37.39-.56.55a4.57,4.57,0,0,0-.52-.84,6.06,6.06,0,0,0,1.66-2.09h-.88V41.6h2.6v2.15h-1.24l.42.15c-.11.22-.24.46-.37.68h1.21c-.05-.19-.12-.37-.18-.54l.88-.23.28.77h2.32v.67h-2.38v.56h1.94v.68h-1.94v.57h1.94v.69h-1.94Zm-2.07-7.39h-1.84v-.77h1.84v-.82h.89V41.4h-.89Zm-.7,2.17h1v-.83h-1Zm1.87,2.72v-.56h-1.43v.56Zm0,.68h-1.43v.57h1.43Zm-1.43,1.82h1.43v-.56h-1.43Zm4.54-4.56h-2.64V41.6h2.64Zm.46-3.6v.77h-2v.47h-.89V39.33h.89v.82Zm-1.26,2.11h-1.07v.83h1.07Z" transform="translate(-10.46 -3.27)" style="fill:#fff"/><path d="M159.87,48.19v.9h-9.93v-.9h1.35V44.88h7.27v3.31Zm-.2-5.84h-9.56v-.91h2.73a12.15,12.15,0,0,0-1-1.7l.87-.39a8.35,8.35,0,0,1,1.14,1.8l-.59.29h3.39l-.61-.22a11.61,11.61,0,0,0,1.08-1.88l1,.31a15.45,15.45,0,0,1-1.2,1.79h2.76Zm-5.76.81a18.14,18.14,0,0,1-3.18,1.92,4.08,4.08,0,0,0-.62-.83,12.54,12.54,0,0,0,3.1-1.58Zm-1.71,5h1.17V45.75H152.2Zm2.11-2.44v2.44h1.17V45.75Zm2-3.07a30.77,30.77,0,0,1,3.37,1.39l-.56.82a29.29,29.29,0,0,0-3.34-1.49Zm.07,3.07v2.44h1.19V45.75Z" transform="translate(-10.46 -3.27)" style="fill:#fff"/><path d="M163.73,42.68A1.72,1.72,0,1,1,162,44.39,1.71,1.71,0,0,1,163.73,42.68Zm0,2.77a1.06,1.06,0,1,0-1-1.06A1.05,1.05,0,0,0,163.73,45.45Z" transform="translate(-10.46 -3.27)" style="fill:#fff"/><path d="M172.07,48.68h-2.75v.61h-1V45.38c-.12.12-.25.22-.37.32a3.62,3.62,0,0,0-.68-.74,7.44,7.44,0,0,0,2.56-3.54l.87.27c0,.13-.1.25-.15.38a26.48,26.48,0,0,1,2.29,2.66l-.69.69-.12-.19ZM170,39.83a9.35,9.35,0,0,1-1.82,2.6,5.89,5.89,0,0,0-.75-.62A6.91,6.91,0,0,0,169,39.55Zm1.88,5.08c-.44-.59-1.06-1.32-1.64-1.95a9.91,9.91,0,0,1-1.35,1.95Zm-.72.92h-1.79v1.94h1.79ZM172,42a16.43,16.43,0,0,0-1.53-2l.77-.45a16.28,16.28,0,0,1,1.56,1.92Zm1.87.17A8.53,8.53,0,0,1,173,44a4.28,4.28,0,0,0-.87-.55,9.38,9.38,0,0,0,1.43-4.15l1,.17c-.09.58-.22,1.15-.36,1.7h2.58l.15,0,.69.19a23.12,23.12,0,0,1-.63,2.87l-.83-.23c.13-.48.25-1.19.36-1.86Zm1.58.32c0,.56-.09,1.09-.14,1.6a7,7,0,0,0,2.26,4.58,2.68,2.68,0,0,0-.69.81,7.18,7.18,0,0,1-2-3.25,5.74,5.74,0,0,1-2.05,3.24,3.83,3.83,0,0,0-.7-.76c1.65-1.2,2.21-3.32,2.36-6.33Z" transform="translate(-10.46 -3.27)" style="fill:#fff"/><path d="M188.42,40.69a16.6,16.6,0,0,1-3.79,3v4.52c0,.63-.16.93-.63,1.08a8.11,8.11,0,0,1-2.31.17,3.76,3.76,0,0,0-.41-1c.86,0,1.71,0,2,0s.32-.07.32-.26v-5a13.92,13.92,0,0,0,2.8-2h-6.72v-1h7.72l.23-.06Z" transform="translate(-10.46 -3.27)" style="fill:#fff"/><path d="M197.91,40.73a3.46,3.46,0,0,1-2.08,2.9,3,3,0,0,0-.48-.63v5.38c0,.44-.09.72-.39.88a3.87,3.87,0,0,1-1.46.15,3.21,3.21,0,0,0-.32-.86h1.12c.15,0,.2-.05.2-.2V46.57h-2.44a6.46,6.46,0,0,1-.85,2.87,4.08,4.08,0,0,0-.73-.45,7.64,7.64,0,0,0,.82-4V43.24l-.1.12a7.93,7.93,0,0,0-.75-.61,7.92,7.92,0,0,0,1.66-3.43l.94.21-.24.79H194l.14,0,.6.37A15.5,15.5,0,0,1,194,42.1h1.31v.8A2.68,2.68,0,0,0,197,40.73H195.6v-.85h4.79s0,.24,0,.35C200.3,42,200.2,42.75,200,43a.85.85,0,0,1-.63.31,7.77,7.77,0,0,1-1.11,0,2.44,2.44,0,0,0-.23-.85,8.59,8.59,0,0,0,.89,0,.31.31,0,0,0,.3-.1c.12-.13.19-.58.25-1.7Zm-5.41.38a10.13,10.13,0,0,1-.46,1h1.12a8.48,8.48,0,0,0,.4-1ZM192.12,45c0,.25,0,.51,0,.79H193V44.68h-.84Zm0-1.08H193v-1h-.84Zm1.56,0h.82v-1h-.82Zm.82,1.87V44.68h-.82v1.11Zm6.18,1.65h-2v1.94h-1V47.44h-2.18v-.89h2.18V45.36h-1.08a5.25,5.25,0,0,1-.51,1,5.14,5.14,0,0,0-.77-.41,6.07,6.07,0,0,0,.94-2.42l.85.18a7.62,7.62,0,0,1-.2.79h.77V43.42h1v1.06h1.79v.88h-1.79v1.19h2Z" transform="translate(-10.46 -3.27)" style="fill:#fff"/><path d="M207.62,45.93a3.36,3.36,0,0,1-.91,1.73,16.47,16.47,0,0,0,5.59.69,2.46,2.46,0,0,0-.43,1,15.19,15.19,0,0,1-6-1,9.27,9.27,0,0,1-3.06,1.11,4.4,4.4,0,0,0-.62-.9,10.36,10.36,0,0,0,2.73-.8,5.31,5.31,0,0,1-1.28-1.42l.89-.35a4.56,4.56,0,0,0,1.23,1.21,2.6,2.6,0,0,0,.78-1.25h-3.16V41.6h3.33v-.79h-4.3v-.93h9.51v.93h-4.14v.79h3.45v4.33Zm-3.29-2.56h2.37v-.94h-2.37Zm2.35,1.73a4.78,4.78,0,0,0,0-.54v-.4h-2.37v.94Zm3.53-.94h-2.44v.41a3.08,3.08,0,0,1,0,.53h2.47Zm-2.44-1.73v.94h2.44v-.94Z" transform="translate(-10.46 -3.27)" style="fill:#fff"/><path d="M223.58,44.55c-1.52,3.26-5.19,4.49-9.19,4.91a3.57,3.57,0,0,0-.41-1,17.59,17.59,0,0,0,5-1,12.86,12.86,0,0,0-1.37-1.22q-.73.38-1.59.72a3.22,3.22,0,0,0-.63-.79,9.58,9.58,0,0,0,4.57-3l1.12.25a8.54,8.54,0,0,1-.69.78h2.36l.17,0ZM222,40.62c-1.39,2.47-4.55,3.88-7.51,4.48a4.32,4.32,0,0,0-.48-.9,15.17,15.17,0,0,0,3.47-1A8.79,8.79,0,0,0,216.21,42c-.36.2-.74.41-1.15.59a3.2,3.2,0,0,0-.69-.73,9.38,9.38,0,0,0,3.77-2.59l1.11.25a6.46,6.46,0,0,1-.68.71h2.63l.17-.06Zm-4.53.55a5.88,5.88,0,0,1-.51.36,14.49,14.49,0,0,1,1.44,1.19,7.62,7.62,0,0,0,2-1.55Zm1.78,3.93c-.26.21-.56.4-.85.6A13.71,13.71,0,0,1,219.91,47a6.28,6.28,0,0,0,2.15-1.86Z" transform="translate(-10.46 -3.27)" style="fill:#fff"/><path d="M226.57,39.23h3.54v1h-2.52v6.13h-1Z" transform="translate(-10.46 -3.27)" style="fill:#fff"/><path d="M237,44.49a6.37,6.37,0,0,0,4.4,3.95,4.17,4.17,0,0,0-.7,1,7.15,7.15,0,0,1-4.41-4.07,6.94,6.94,0,0,1-4.4,4.08,3.68,3.68,0,0,0-.67-.87c2.69-1,3.76-2.56,4.18-4h-3.86v-1h4.06a10.16,10.16,0,0,0,.05-1.07v-1.2H232V40.12h8.63v1.06h-3.85v1.21c0,.33,0,.69,0,1.06h4.34v1Z" transform="translate(-10.46 -3.27)" style="fill:#fff"/><path d="M248.17,41.17V43l.19-.22a25.84,25.84,0,0,1,3.83,2.24l-.75.94a23.93,23.93,0,0,0-3.27-2.11v5.53h-1.09V41.17H243V40.12h9.71v1.05Z" transform="translate(-10.46 -3.27)" style="fill:#fff"/><path d="M258.25,43.94a7.9,7.9,0,0,1-3.13,4.82,4.54,4.54,0,0,0-.81-.77A6.4,6.4,0,0,0,257,44.66h-2.4v-1h2.84l.17,0Zm5.88-.89a27.35,27.35,0,0,1-2.79,2.28,6.76,6.76,0,0,0,3.18,2.53,5.27,5.27,0,0,0-.72.9A7.66,7.66,0,0,1,260,44.92v3.27c0,.58-.13.88-.52,1a5.38,5.38,0,0,1-1.93.19,3.55,3.55,0,0,0-.36-1c.6,0,1.27,0,1.46,0s.25-.07.25-.25V42.53H256v-1h4v.88a11.19,11.19,0,0,0,.86,2.12,17.11,17.11,0,0,0,2.35-2.18Zm-3.19-1.35a19,19,0,0,0-4-1.5l.5-.85a18.9,18.9,0,0,1,4,1.39Z" transform="translate(-10.46 -3.27)" style="fill:#fff"/><path d="M267.15,46.55a15.61,15.61,0,0,1-.53,2.82,5,5,0,0,0-.77-.27,12.91,12.91,0,0,0,.5-2.69Zm1.79-.45c0-.18-.07-.38-.11-.61a10.4,10.4,0,0,0-2.61.51,5,5,0,0,0-.29-.85c.24-.06.47-.33.78-.75a10,10,0,0,0,.77-1.13,5.74,5.74,0,0,0-1.34.24,6.25,6.25,0,0,0-.28-.83c.19,0,.36-.27.57-.61a13.08,13.08,0,0,0,1.26-2.76l.86.35a16.39,16.39,0,0,1-1.46,2.83l.92-.08c.26-.47.52-1,.74-1.48l.79.46a20.4,20.4,0,0,1-2.22,3.5l1.34-.18c-.09-.33-.19-.67-.28-1l.7-.18a17.33,17.33,0,0,1,.61,2.3Zm-.81.28a20.32,20.32,0,0,1,.29,2.52l-.76.15a21.91,21.91,0,0,0-.23-2.55Zm1-.27a17.76,17.76,0,0,1,.57,2l-.69.22a16.75,16.75,0,0,0-.54-2Zm4.73,1.74c.78.27,1.61.6,2.15.84l-.42.73c-.58-.27-1.51-.69-2.33-1l.33-.57h-1.79l.61.56c-.84.38-1.9.79-2.67,1.08a4.66,4.66,0,0,0-.39-.72,19,19,0,0,0,2.23-.92h-1.6V44.61h5.45v3.24Zm-1.59-7.29h-2.71v-.69h2.71v-.54h1v.54h2.57v.69h-2.57v.49h2.19v.66H270v-.66h2.28Zm-2.65,1.52h6.18V44.2h-6.18Zm.84,1.46h1v-.8h-1Zm.43,2h3.6v-.4h-3.6Zm0,.84h3.6V46h-3.6Zm0,.87h3.6v-.44h-3.6Zm2.35-3.75v-.8h-1v.8Zm1.67-.8H274v.8h.89Z" transform="translate(-10.46 -3.27)" style="fill:#fff"/><path d="M283.26,39.6a2.62,2.62,0,0,1-.17.21,10.68,10.68,0,0,0,4.6,2.14,4.49,4.49,0,0,0-.65.78c-.26-.08-.55-.16-.82-.26v2.85h-7.44V42.54l-.81.27a4,4,0,0,0-.55-.78,9.41,9.41,0,0,0,4.94-2.75Zm2.91,2.86a12.43,12.43,0,0,1-1.76-.78V42h-3.8v-.26a11.55,11.55,0,0,1-1.6.73Zm-6.76,3.3h6.27v3.62h-1.05v-.3h-4.21v.34h-1Zm1.5-2.57a4.78,4.78,0,0,1,.56,1.21l-.73.25H282V43.13h-2.39v1.52h1.06a4.91,4.91,0,0,0-.52-1.24Zm-.49,3.27v.61h4.21v-.61Zm4.21,1.93v-.62h-4.21v.62Zm-.86-7.1a7.22,7.22,0,0,1-1.22-.92,7.84,7.84,0,0,1-1.19.92Zm1.55,1.84h-2.44v1.52h1.23l-.69-.21a8.47,8.47,0,0,0,.55-1.29l.86.24c-.24.48-.48.94-.68,1.26h1.17Z" transform="translate(-10.46 -3.27)" style="fill:#fff"/><path d="M292.24,49.53h-3.55v-1h2.52V42.46h1Z" transform="translate(-10.46 -3.27)" style="fill:#fff"/><path d="M296.15,45.91c.85-.32,1.34-.82,1.4-1.48h-.16a.86.86,0,0,1-.92-.88.87.87,0,0,1,.94-.88c.69,0,1,.54,1,1.37a2.69,2.69,0,0,1-2,2.58Z" transform="translate(-10.46 -3.27)" style="fill:#fff"/><path d="M73.14,60h-3.8v-.81h3.8Zm-.31,1.41H69.61v-.79h3.22Zm-3.21.69h3.22v.79H69.62Zm3.2,4.76H70.51v.46h-.87v-3.7h3.18ZM70.51,64.4V66h1.43V64.4Zm.59-5.29a10.83,10.83,0,0,0-.53-1.49l.86-.25A10.21,10.21,0,0,1,72,58.81Zm7.69,7.33c0,.45-.1.69-.42.83a3.88,3.88,0,0,1-1.48.14,3.91,3.91,0,0,0-.29-.83,10.31,10.31,0,0,0,1.05,0c.14,0,.18,0,.18-.17V65.7H74.61a3.64,3.64,0,0,1-.79,1.84,3.21,3.21,0,0,0-.72-.66,4.23,4.23,0,0,0,.72-2.73v-2h5Zm.59-5.6v.77H73.24v-.77h2.5v-.61h-2.1V59.5h2.1v-.56H73.38v-.75h2.36v-.85h1v.85h2.52v.75H76.73v.56h2.32v.73H76.73v.61ZM77.83,65v-.68H74.74c0,.21,0,.45,0,.68ZM74.74,63v.67h3.09V63Z" transform="translate(-10.46 -3.27)" style="fill:#fff"/><path d="M85.12,61.41a3.94,3.94,0,0,1,0,.42c-.09,3.39-.2,4.59-.49,5a.88.88,0,0,1-.67.4,6.62,6.62,0,0,1-1,0,2.53,2.53,0,0,0-.25-.92l.8,0a.34.34,0,0,0,.32-.15c.18-.24.27-1.21.37-3.85H82.89c-.13,2.12-.46,3.87-1.42,5.06a3.14,3.14,0,0,0-.74-.76C81.85,65.25,81.94,62.91,82,60H81v-1h2.08a6.9,6.9,0,0,0-.82-1.44l.92-.36a6.92,6.92,0,0,1,.89,1.5l-.75.3h2.16v1H83c0,.47,0,.94,0,1.38Zm3.58-3.86a5.82,5.82,0,0,1-.22.67,7.23,7.23,0,0,0,2.59,2.85,4.21,4.21,0,0,0-.75.83A8.1,8.1,0,0,1,88,59.22,7.57,7.57,0,0,1,85.73,62a3.27,3.27,0,0,0-.71-.83,6.74,6.74,0,0,0,2.74-3.88Zm-1.92,6.94a18.27,18.27,0,0,1,3,1.89l-.68.88a17,17,0,0,0-3-2Zm1.91-.73a12.64,12.64,0,0,0-1.88-1.56l.67-.65A13.72,13.72,0,0,1,89.4,63Z" transform="translate(-10.46 -3.27)" style="fill:#fff"/><path d="M97.74,59.17V61l.19-.22a25.33,25.33,0,0,1,3.83,2.24L101,64a23.32,23.32,0,0,0-3.27-2.11v5.53H96.66V59.17H92.57V58.12h9.72v1.05Z" transform="translate(-10.46 -3.27)" style="fill:#fff"/><path d="M108.22,60.16c0,.52-.07,1.05-.14,1.56h4.68a3.79,3.79,0,0,1,0,.46c-.21,3-.42,4.25-.86,4.7a1.48,1.48,0,0,1-1,.43,17.07,17.07,0,0,1-1.86,0,2,2,0,0,0-.36-1c.78.06,1.53.07,1.84.07a.79.79,0,0,0,.53-.13c.3-.25.5-1.27.68-3.52h-3.71a6.32,6.32,0,0,1-3.19,4.77,3,3,0,0,0-.75-.84c2.73-1.39,3-4.06,3.09-6.48H104.2v-1h4.71a10.78,10.78,0,0,0-.69-1.54l1-.38a12.94,12.94,0,0,1,.78,1.6l-.74.32h4.52v1Z" transform="translate(-10.46 -3.27)" style="fill:#fff"/><path d="M125.06,63.35c-.63.49-1.39,1-2,1.42a6.6,6.6,0,0,0,2.63,1.45,4.37,4.37,0,0,0-.66.89,7.2,7.2,0,0,1-4.55-4.65,10,10,0,0,1-1.58,1.33V66l2.52-.73a5.51,5.51,0,0,0,.18.9c-3.07,1-3.51,1.09-3.8,1.29a3.12,3.12,0,0,0-.44-.92.84.84,0,0,0,.48-.78V64.46a12.94,12.94,0,0,1-1.71.79,4.7,4.7,0,0,0-.68-.82,11.39,11.39,0,0,0,3.74-2h-3.39v-.88H120V60.7h-3.24v-.83H120V59.1H116.2v-.88H120v-.88h1v.88h3.92v.88H121v.77h3.47v.83H121v.82h4.27v.88h-3.86a6.83,6.83,0,0,0,1,1.74,12.18,12.18,0,0,0,1.78-1.42Z" transform="translate(-10.46 -3.27)" style="fill:#fff"/><path d="M136.64,58.73a7.37,7.37,0,0,1-2,2.67,9.14,9.14,0,0,0,2.57,1,4,4,0,0,0-.36.94,10.09,10.09,0,0,1-3-1.36,12,12,0,0,1-3.18,1.48,3.55,3.55,0,0,0-.35-.66l-.11.13c-.14-.29-.43-.81-.71-1.27v5.75h-1v-5a11.06,11.06,0,0,1-1.19,2.82,5.07,5.07,0,0,0-.5-1,11.17,11.17,0,0,0,1.54-3.88h-1.29v-1h1.44V57.34h1v2.07h1.12v.73a7.27,7.27,0,0,0,1.83-2.86l.91.25a9.37,9.37,0,0,1-.38.86h2.81l.16,0Zm-6,3.71a11.2,11.2,0,0,0,2.41-1.08A6.34,6.34,0,0,1,132,60.12a10,10,0,0,1-.79.89,6,6,0,0,0-.54-.75v.1h-1.12v.13c.28.27,1.14,1.41,1.35,1.68Zm.6.9h5v4h-1v-.55h-3v.57h-1Zm1,.9v1.68h3V64.24Zm.3-4.95,0,0a5.59,5.59,0,0,0,1.32,1.52,6,6,0,0,0,1.39-1.54Z" transform="translate(-10.46 -3.27)" style="fill:#fff"/><path d="M148.67,65.41h-2.13a14.88,14.88,0,0,1,2.05,1.33l-.67.69A14.69,14.69,0,0,0,145.74,66l.55-.55h-2.11l.71.5a13.32,13.32,0,0,1-2.62,1.51,4.67,4.67,0,0,0-.65-.69A11.89,11.89,0,0,0,144,65.41h-2.07v-.65c-1,.43-2.15.88-3,1.22l-.37-1,1.27-.42V60.89H138.6v-1h1.17V57.46h1v2.46h1.19v1h-1.19V64.2l1.08-.41.14.75h.86V59.75h1.61c0-.21.08-.42.12-.65h-2.27v-.82h2.4c0-.32.09-.64.11-.91l1.09,0c0,.27-.12.58-.19.87h2.71v.82h-2.89c-.06.23-.11.44-.18.65h2.42v4.79h.92Zm-5-5V61h3.11v-.58Zm3.11,1.15h-3.11v.55h3.11Zm-3.11,1.73h3.11v-.58h-3.11Zm0,1.21h3.11v-.63h-3.11Z" transform="translate(-10.46 -3.27)" style="fill:#fff"/><path d="M159.54,63.79s0,.25,0,.38c-.11,1.83-.23,2.59-.5,2.9a1.09,1.09,0,0,1-.75.31,9.62,9.62,0,0,1-1.35,0,2.1,2.1,0,0,0-.28-.89c.49,0,1,0,1.15,0s.29,0,.38-.1.24-.66.32-1.85H152.8a8.77,8.77,0,0,1-2,1.24,5.21,5.21,0,0,0-.58-.8A6.82,6.82,0,0,0,153,63.17h-1.19V60a17.84,17.84,0,0,0,2.53-.72l.62.64a15.59,15.59,0,0,1-2.25.6v.6h2v.7h-2v.62h4.88v-.62h-2v-.7h2v-.59h-2.16v-.72h3.08v3.35h-4.38a7.31,7.31,0,0,1-.48.62Zm.3-5.62v2.06h-1V59.05h-7.42v1.18h-.93V58.17h4.06c-.1-.22-.19-.43-.3-.62l1.05-.28a7.59,7.59,0,0,1,.46.9Zm-8.3,8.6a5.65,5.65,0,0,0,1-1.9l.82.33a7.81,7.81,0,0,1-.95,2ZM154.43,65a6.48,6.48,0,0,1,.37,1.91L154,67a6.81,6.81,0,0,0-.32-1.92Zm1.32-.08a5.57,5.57,0,0,1,.67,1.63l-.77.22A6.21,6.21,0,0,0,155,65.1Zm1.46,1.34a5.27,5.27,0,0,0-.83-1.17l.67-.3a4.4,4.4,0,0,1,.85,1.13Z" transform="translate(-10.46 -3.27)" style="fill:#fff"/><path d="M164.48,61.44c.39.39,1.37,1.55,1.59,1.83l-.62.83a15.66,15.66,0,0,0-1-1.5v4.82h-1V62.57a10.66,10.66,0,0,1-1.43,2.89,6.32,6.32,0,0,0-.5-.93,11.32,11.32,0,0,0,1.8-3.93h-1.55v-1h1.68v-2.3h1v2.3H166v1h-1.48ZM171.4,58v9.34h-1v-.6h-3v.65h-1V58Zm-4,1v1.61h3V58.92Zm0,4.22h3V61.47h-3Zm3,2.62V64.08h-3v1.68Z" transform="translate(-10.46 -3.27)" style="fill:#fff"/><path d="M177.68,62.91a12.66,12.66,0,0,1,.54,1.19l-.43.16h.14v1a2,2,0,0,1-1.57,2.1,2.46,2.46,0,0,0-.46-.59A1.74,1.74,0,0,0,177,66h-1.36V64.44h.66v1h.87V64.26h.45c0-.1-.08-.19-.11-.3a9.52,9.52,0,0,0-2.05.28,4.46,4.46,0,0,0-.2-.63,1.25,1.25,0,0,0,.59-.28,5.23,5.23,0,0,0,.58-.51,4.35,4.35,0,0,0-.92.13,3.58,3.58,0,0,0-.21-.63.85.85,0,0,0,.35-.2,5.54,5.54,0,0,0,.74-.91h-1.71v6.23h-1V57.77h4.09v3.44h-1.15l.41.2a7.37,7.37,0,0,1-.82.93l.72,0c.15-.17.31-.35.45-.53l.54.37a12,12,0,0,1-1.55,1.41l.91-.08c-.06-.14-.13-.29-.19-.41Zm-3-4.41v.68h2.16V58.5Zm0,2h2.16v-.65h-2.16Zm8.14,5.72c0,.53-.08.83-.4,1a3.35,3.35,0,0,1-1.51.2,3.6,3.6,0,0,0-.3-1h1c.15,0,.19-.06.19-.21v-5h-2.26l.42.21a9.1,9.1,0,0,1-.8.92l.7,0a5,5,0,0,0,.47-.55l.54.38a13.75,13.75,0,0,1-1.55,1.43l.9-.08c-.07-.14-.13-.28-.2-.39l.51-.18a8,8,0,0,1,.57,1.2l-.53.21c0-.1-.09-.22-.14-.36a9.59,9.59,0,0,0-2.06.3,2.66,2.66,0,0,0-.19-.61,1.58,1.58,0,0,0,.59-.32,5.43,5.43,0,0,0,.57-.51,3.13,3.13,0,0,0-.92.14c-.05-.14-.14-.46-.21-.63a.79.79,0,0,0,.35-.2,4.55,4.55,0,0,0,.74-.92h-.69V57.77h4.17Zm-2.69.13V66h-.88v1.26h-.74v-3h.74v1.16h.88v-1h.69v1.9Zm-.51-7.84v.68h2.22V58.5Zm2.22,2v-.65h-2.22v.65Z" transform="translate(-10.46 -3.27)" style="fill:#fff"/><path d="M191.65,59a1.32,1.32,0,0,1,0,.27,5.07,5.07,0,0,0,3.22,1.06,3.29,3.29,0,0,0-.55.84,5.43,5.43,0,0,1-3-1.21c-.39.51-1.26,1-3.15,1.24a2.94,2.94,0,0,0-.52-.76h-2.79v-.8h3.19v.73c2.38-.31,2.64-.93,2.64-1.4v-.14h-.92a5.24,5.24,0,0,1-.8,1,4.5,4.5,0,0,0-.77-.52,4.6,4.6,0,0,0,1.27-2l.91.2c-.07.18-.13.36-.21.55h3.43l.15,0,.7.23a10.17,10.17,0,0,1-1,1.63l-.8-.28c.14-.2.31-.49.46-.76h-1.53Zm-.09,6.67a28.09,28.09,0,0,1,3.11,1.2l-.93.56a20.85,20.85,0,0,0-3-1.24l.64-.52h-3.29l.91.42a15.06,15.06,0,0,1-3.36,1.37,9.18,9.18,0,0,0-.76-.77,11.93,11.93,0,0,0,3.17-1h-1.77V61.23h7.17v4.42Zm-3.75-6.94h-2.69v-.77h2.69Zm-.5,3.79h5.16v-.62h-5.16Zm0,1.24h5.16v-.62h-5.16Zm0,1.26h5.16v-.64h-5.16Z" transform="translate(-10.46 -3.27)" style="fill:#fff"/><path d="M200.36,60h-4v-.81h1.87a12.09,12.09,0,0,0-.74-1.49l.73-.4a10.15,10.15,0,0,1,.76,1.44l-.72.45h2.05Zm-3.51,1.46v-.81H200v.81Zm0,.64H200v.8h-3.13ZM200,66.79h-2.32v.5h-.81V63.57H200Zm-2.32-2.39V66h1.5V64.4Zm7.68-6.47c-.08,4.07-.09,8.16.43,8.31a4.86,4.86,0,0,0,.17-1.43,5.47,5.47,0,0,0,.56.78c-.13,1.57-.58,1.92-1.15,1.68-1.07-.38-1-4.06-1-8.38h-1.63V62H204v.94h-1.29v4.49h-1V62.94h-1.37V62h1.37V58.89H200.5v-1Z" transform="translate(-10.46 -3.27)" style="fill:#fff"/><path d="M209,63.91c.84-.32,1.34-.82,1.39-1.48h-.15a.88.88,0,1,1,0-1.76c.69,0,1.06.54,1.06,1.37a2.69,2.69,0,0,1-2,2.58Z" transform="translate(-10.46 -3.27)" style="fill:#fff"/><path d="M217.05,62.51A13.58,13.58,0,0,1,216,65.43l.66.44a5.87,5.87,0,0,0,3,.53,38.84,38.84,0,0,0,4.4-.26,4,4,0,0,0-.3,1.06c-.85.06-2.84.12-4.14.12a6.13,6.13,0,0,1-3.17-.58c-.44-.25-.84-.64-1.07-.64s-.63.72-.91,1.39l-.7-1a4.08,4.08,0,0,1,1.31-1.24,9.68,9.68,0,0,0,.77-2.07h-1.49c.27-.64.6-1.52.89-2.36H214v-.92h2.56c-.25.76-.58,1.64-.87,2.39h.79l.15,0,.45.2v-.84h2.75V60.23h-2.46V59.3h1.5a17.17,17.17,0,0,0-.87-1.59l.87-.34c.32.5.74,1.19.95,1.61l-.73.32h2a12.11,12.11,0,0,0,1-2l1,.32c-.32.55-.67,1.16-1,1.65h1.48v.93h-2.69v1.41h3v.94h-3c.94.85,2.1,1.89,2.71,2.54l-.73.73a33.88,33.88,0,0,0-2.41-2.42,5.17,5.17,0,0,1-2.74,2.44,4.64,4.64,0,0,0-.71-.78c1.78-.69,2.43-1.63,2.65-2.51h-2.62Zm-1.83-3c-.12-.47-.39-1.22-.57-1.79l.94-.26c.18.56.46,1.27.6,1.73Z" transform="translate(-10.46 -3.27)" style="fill:#fff"/><path d="M234.89,62.78v4.64h-1.13v-.6h-7.64v-4h1.15v3h2.66V62.14h-3.28V58.29h1.08v2.86h2.2V57.34h1.13v3.81h2.27V58.29h1.13v3.85h-3.4v3.65h2.7v-3Z" transform="translate(-10.46 -3.27)" style="fill:#fff"/><path d="M240.33,59.92a13,13,0,0,1-.92,1.49v6h-1V62.61a9,9,0,0,1-.9.86,4.54,4.54,0,0,0-.56-.92,9.45,9.45,0,0,0,2.43-2.94Zm-.22-2.25a11.38,11.38,0,0,1-2.48,2.65,4.65,4.65,0,0,0-.54-.74,8.68,8.68,0,0,0,2.09-2.25Zm6.08,5.54a6,6,0,0,1-2,2.51,10.52,10.52,0,0,0,2.75.84,4.13,4.13,0,0,0-.61.89,9.79,9.79,0,0,1-3.05-1.13,10.69,10.69,0,0,1-3.12,1.14,3.35,3.35,0,0,0-.49-.86,10.94,10.94,0,0,0,2.72-.86,8.92,8.92,0,0,1-1-.92,5.25,5.25,0,0,1-.78.66,5.33,5.33,0,0,0-.69-.75,5.87,5.87,0,0,0,.87-.66,6.64,6.64,0,0,1-.55-.89l.84-.27a3.87,3.87,0,0,0,.34.55,8.35,8.35,0,0,0,.9-1.22,7.62,7.62,0,0,0-1.93.22,6.16,6.16,0,0,0-.29-1,3.87,3.87,0,0,0,1.22-.51c.23-.12.67-.39,1.21-.74a6.6,6.6,0,0,0-1.88.19,9.67,9.67,0,0,0-.34-1,2.33,2.33,0,0,0,.73-.38,11.31,11.31,0,0,0,1.86-1.69l1,.45a14.44,14.44,0,0,1-2,1.64l1.73-.05A15.92,15.92,0,0,0,245,58.33l.93.52a23.16,23.16,0,0,1-3.74,2.55l2.91-.16a8.41,8.41,0,0,0-.6-.78l.8-.42a18.57,18.57,0,0,1,1.73,2.38l-.85.48a6.41,6.41,0,0,0-.54-.89l-2.25.15A6.25,6.25,0,0,1,243,63h2.42l.17,0Zm-3.82.57c-.1.14-.22.27-.34.41a7.2,7.2,0,0,0,1.29,1,5.34,5.34,0,0,0,1.51-1.44Z" transform="translate(-10.46 -3.27)" style="fill:#fff"/><path d="M249.68,63.91c.84-.32,1.34-.82,1.39-1.48h-.15a.88.88,0,1,1,0-1.76c.69,0,1.06.54,1.06,1.37a2.69,2.69,0,0,1-2,2.58Z" transform="translate(-10.46 -3.27)" style="fill:#fff"/><path d="M45.9,75.34h1V85.43h-1V81.66h-1v.15a7.35,7.35,0,0,1-.8,3.64,4.94,4.94,0,0,0-.76-.49A6.64,6.64,0,0,0,44,81.78v-.12h-.57v-.89H45.9V79.34h-2V75.77h.89v2.68H45.9Zm7.58,6.48H52.14v2.35c0,.52-.1.82-.46,1a5.23,5.23,0,0,1-1.77.17,3.86,3.86,0,0,0-.3-1c.6,0,1.18,0,1.33,0s.23,0,.23-.19V81.82h-4v-.9h.48a4.18,4.18,0,0,0-.5-.74,8.38,8.38,0,0,0,3.14-1.43,8.17,8.17,0,0,0-1.25-1.36,9.3,9.3,0,0,1-1.5.85,4.6,4.6,0,0,0-.62-.63A7.35,7.35,0,0,0,50,75.33l1,.27a4.6,4.6,0,0,1-.55.63h1.94l.17,0,.62.31a7.83,7.83,0,0,1-5.41,4.41h3.41V79.48h1v1.44h1.34Zm-4-2.85c-.76.14-1.49.25-2.14.36l-.16-.74c.6-.07,1.38-.19,2.24-.31Zm-.8,3a8,8,0,0,1,1.39,1.73l-.84.52a8.58,8.58,0,0,0-1.34-1.79Zm1-5a8.38,8.38,0,0,1,1.22,1.25,4.48,4.48,0,0,0,1-1.25Z" transform="translate(-10.46 -3.27)" style="fill:#fff"/><path d="M59,77.66c-.19.38-.38.75-.58,1.1h5.2v5.48c0,.55-.11.86-.51,1a5.81,5.81,0,0,1-1.91.16,3.93,3.93,0,0,0-.32-1c.65,0,1.31,0,1.5,0s.24,0,.24-.22v-.94H58.14A4,4,0,0,1,57,85.51a3.54,3.54,0,0,0-.74-.8,3.89,3.89,0,0,0,1-3.07v-1.3a8.52,8.52,0,0,1-1.59,1.47A6.23,6.23,0,0,0,55,81a8.88,8.88,0,0,0,2.82-3.36H55.24v-1h3a11.25,11.25,0,0,0,.47-1.38l1,.24c-.12.38-.24.76-.39,1.14h5.47v1Zm3.62,4.77v-1H58.29v.19a7,7,0,0,1,0,.77Zm0-2.76H58.29v.94h4.29Z" transform="translate(-10.46 -3.27)" style="fill:#fff"/><path d="M76.54,83H74V84.4c0,.48-.1.75-.5.89a6.43,6.43,0,0,1-1.8.13,3.73,3.73,0,0,0-.32-.88c.6,0,1.23,0,1.39,0s.22,0,.22-.19V83H69.34a9.13,9.13,0,0,1,1.5,1.2l-.75.66a9.4,9.4,0,0,0-1.73-1.43l.5-.43H66.62v-.82H73v-.56c-2.2,0-4.33.1-5.89.12l0-.77,4,0v-.52H67.78v-3h3.28v-.51H66.93v-.8h4.13v-.77h1v.77h4.06v.8H72.06v.51h3.39v3h-1a9.33,9.33,0,0,1,1.71,1l-.61.55A6.64,6.64,0,0,0,75,81.6l-1,0v.6h2.54Zm-7.79-4.41h2.31v-.55H68.75Zm2.31,1.2v-.57H68.75v.57Zm1-1.75v.55h2.39v-.55Zm2.39,1.18H72.06v.57h2.39ZM72.06,81l1.77,0a6.35,6.35,0,0,0-.67-.28l.25-.21H72.06Z" transform="translate(-10.46 -3.27)" style="fill:#fff"/><path d="M85,83.58a33.4,33.4,0,0,1,3.25,1.15l-.9.71a30.16,30.16,0,0,0-3.47-1.26l.8-.6H81.48l.77.52a13.53,13.53,0,0,1-3.42,1.33,5.45,5.45,0,0,0-.77-.74,12.55,12.55,0,0,0,3.06-1.11h-1.9V78.82h7.85v4.76Zm1.68-5.29h-7V75.72h7Zm-6.42,1.89H86v-.62H80.23Zm0,1.33H86v-.63H80.23Zm0,1.34H86V82.2H80.23Zm5.34-6.32H80.72v1h4.85Z" transform="translate(-10.46 -3.27)" style="fill:#fff"/><path d="M99.65,82.89H89.73v-1h1l-.2-5.73a16.85,16.85,0,0,0,2.05-.81l.47.82a14.44,14.44,0,0,1-1.57.52l0,1.18h1.37v.84H91.58l0,1.16H93v.86H91.65l0,1.16h6c0-.34,0-.72.07-1.13h-1.3V80h1.34l0-1.17h-1.3v-.85h1.32c0-.4,0-.8,0-1.19H96.41v-.89H98.8c0,1.94-.06,4.46-.16,6.08h1Zm-5.94.7a19.64,19.64,0,0,1-3.31,1.82,6.59,6.59,0,0,0-.59-.77,12.57,12.57,0,0,0,3-1.69Zm.78-4.09a5.37,5.37,0,0,1-.63,2,5.46,5.46,0,0,0-.67-.42,3.69,3.69,0,0,0,.51-1.68Zm.65-.52H93.43V75.42h.88v.9h1.76v.85H94.31v1H96V81c0,.39-.08.56-.33.67a3.29,3.29,0,0,1-1.2.12,2.64,2.64,0,0,0-.25-.66H95c.11,0,.15,0,.15-.12Zm3.56,6.4a21.94,21.94,0,0,0-3.06-1.76l.58-.73a29.08,29.08,0,0,1,3.15,1.72Z" transform="translate(-10.46 -3.27)" style="fill:#fff"/><path d="M102.71,78.31a11.17,11.17,0,0,1-.94.9,5.3,5.3,0,0,0-.65-.82,9.42,9.42,0,0,0,2.59-3.09l.9.31a13.12,13.12,0,0,1-.93,1.49v4.54h-1Zm-1.46,6.23a11.56,11.56,0,0,0,1.08-2.37l.9.38a19.71,19.71,0,0,1-1,2.45Zm6.44-.24c.56,0,.66-.16.72-1.24a2.53,2.53,0,0,0,.94.37c-.13,1.45-.44,1.8-1.58,1.8h-2.4c-1.41,0-1.77-.28-1.77-1.28v-1.8h1v1.77c0,.32.13.38.81.38ZM106,77.17a7.66,7.66,0,0,1-1.1,1.4,4.61,4.61,0,0,0-.75-.64,6.18,6.18,0,0,0,1.67-2.59l.93.23c-.09.26-.17.49-.28.73h3.79l.16,0,.71.17a18.87,18.87,0,0,1-.87,1.88l-.87-.18c.13-.26.3-.62.44-1Zm.73,1.46a7.26,7.26,0,0,1-1.54,2.28,9.64,9.64,0,0,0-.76-.61,5,5,0,0,0,1.37-1.92Zm0,5a8.68,8.68,0,0,0-1.47-1.91l.79-.43a9,9,0,0,1,1.54,1.84Zm1.62-2h-1V77.52h1Zm1.3-3.23A9.42,9.42,0,0,1,111,80.47l-.86.45a11.33,11.33,0,0,0-1.31-2.18Zm.27,3.61a9.82,9.82,0,0,1,1.2,2.48l-1,.39A9.68,9.68,0,0,0,109,82.32Z" transform="translate(-10.46 -3.27)" style="fill:#fff"/><path d="M116.09,76.71v8.72h-.86v-2l-2.33.42-.2-.91.62-.09V76.71h-.48v-.93h3.64v.93Zm-.86,0h-1.07v1.36h1.07Zm0,2.21h-1.07V80.3h1.07Zm0,3.67V81.15h-1.07v1.6Zm3.82-3.88c.2.58.44,1.35.54,1.8l-.64.21c0-.15-.07-.35-.13-.55a9.23,9.23,0,0,0-2.31.39,9,9,0,0,0-.22-.9,1.68,1.68,0,0,0,.64-.53,7.64,7.64,0,0,0,.61-.81,3.12,3.12,0,0,0-1,.18c0-.21-.16-.67-.23-.93a1.1,1.1,0,0,0,.44-.38,9.27,9.27,0,0,0,1-1.79l.75.33a12.49,12.49,0,0,1-1.21,2l.7,0c.2-.29.39-.64.56-1l.69.36a16.48,16.48,0,0,1-1.87,2.58l1.23-.12c0-.23-.13-.44-.19-.65Zm.2,2.05v1.66a3.12,3.12,0,0,1-2,3.08,3.14,3.14,0,0,0-.55-.71,2.46,2.46,0,0,0,1.54-1.53h-1.48v-2.5h.83v1.65h.76V80.76Zm3-.1c-.05-.16-.11-.37-.17-.59a9.09,9.09,0,0,0-2.31.47c0-.21-.15-.65-.22-.9.17,0,.36-.22.57-.51a6.07,6.07,0,0,0,.62-.88,2.72,2.72,0,0,0-1.08.2c0-.2-.15-.64-.23-.88a.89.89,0,0,0,.43-.36,8,8,0,0,0,1-1.75l.68.35a13.2,13.2,0,0,1-1.1,1.8l.74,0c.15-.28.31-.59.45-.88l.68.35a17.71,17.71,0,0,1-1.61,2.55l1.18-.15c-.08-.23-.17-.46-.24-.66l.58-.19a16.88,16.88,0,0,1,.68,1.81Zm-.77.17h.83v2.82h-.83v-.39h-.76v2.18h-.88V80.75h.88v1.63h.76Z" transform="translate(-10.46 -3.27)" style="fill:#fff"/><path d="M128,83.92a12.48,12.48,0,0,1-2.82,1.27c-.16-.15-.5-.46-.7-.61a10.09,10.09,0,0,0,2.63-1Zm2-.55v1.07c0,.44-.11.67-.53.79a5.62,5.62,0,0,1-1.77.15,2.82,2.82,0,0,0-.38-.83c.63,0,1.25,0,1.42,0s.23,0,.23-.15v-1a19.81,19.81,0,0,0-3.56.34,7.58,7.58,0,0,0-.26-.75,6.7,6.7,0,0,0,1.45-.34,15.33,15.33,0,0,0,1.6-.57,10.67,10.67,0,0,0-2.11.24,3.81,3.81,0,0,0-.25-.68,2.64,2.64,0,0,0,.7-.22,10.62,10.62,0,0,0,1.62-.87h-3.31v-1h.78v.51h.83v-.65h-2V78.9h2v-.29h-1.62v-2h1.62v-.31h-1.89v-.51h1.89v-.51h.87v.51h1.94v.51h-1.94v.31H129v2h-1.69v.29h2v.52h-2v.65h1v-.51h.8v1h-.27l.38.22a12.55,12.55,0,0,1-1.4.75l2-.12c.45-.21.9-.43,1.32-.66l.66.57a25,25,0,0,1-3.56,1.47l3.41-.19c-.22-.16-.47-.29-.69-.42l.69-.41A12.7,12.7,0,0,1,134,83.44l-.74.46a6.58,6.58,0,0,0-.79-.69Zm-4.42-6h.88v-.33h-.88Zm.88.77v-.35h-.88v.35Zm.87-1.1v.33h.91v-.33Zm.91.75h-.91v.35h.91Zm5.4.19a3.84,3.84,0,0,1-1.33,1.75,7.65,7.65,0,0,0,2,.49,3.43,3.43,0,0,0-.53.72,7.19,7.19,0,0,1-2.32-.75,8.29,8.29,0,0,1-1.88.57,2.37,2.37,0,0,0-.41-.68,7.25,7.25,0,0,0,1.59-.4,4,4,0,0,1-.87-1.08l.51-.12h-.75v-.61a4.71,4.71,0,0,0-.49-.5c.74-.34.86-.71.86-1.12v-.65h2.83v1.17c0,.21,0,.27.15.27h.55a3,3,0,0,0,.51,0c0,.2,0,.46,0,.66a2.77,2.77,0,0,1-.54,0h-.68c-.71,0-.86-.27-.86-.95v-.47h-1.14a1.75,1.75,0,0,1-.78,1.54H133l.16,0Zm-2.31,5.52A14.84,14.84,0,0,1,134,84.61l-.71.54A13.64,13.64,0,0,0,130.66,84Zm-.56-5a2.62,2.62,0,0,0,.8.83,3.16,3.16,0,0,0,.91-.83Z" transform="translate(-10.46 -3.27)" style="fill:#fff"/><path d="M145.77,83.94v1H136v-1h3.18V78.41h-2.91v-1h2.36a8.15,8.15,0,0,0-.93-1.7l.91-.35a7.13,7.13,0,0,1,1,1.82l-.53.23h3.17l-.22-.08a10.67,10.67,0,0,0,1.07-2l1.13.32a18.54,18.54,0,0,1-1.1,1.76h2.34v1h-3v5.53Zm-8.12-4.58a12.52,12.52,0,0,1,1,3.4l-1,.26a12.63,12.63,0,0,0-1-3.42Zm2.55,4.58h1.31V78.41H140.2Zm2.71-1.18A20.08,20.08,0,0,0,144,79.27l1.1.25a31.88,31.88,0,0,1-1.3,3.5Z" transform="translate(-10.46 -3.27)" style="fill:#fff"/><path d="M149.6,81.35V84.2c0,.51-.1.78-.39.93a3,3,0,0,1-1.43.2,3.2,3.2,0,0,0-.27-.94h1c.13,0,.18-.05.18-.2V81.65l-1.15.35-.23-1,1.38-.38V78.42h-1.27v-.94h1.27V75.35h.94v2.13h1.16v.94H149.6v1.94l1.05-.31.15.93Zm4.92,3a5.35,5.35,0,0,0,.91.06h2.16a2.79,2.79,0,0,0-.29.9h-1.89c-1.53,0-2.68-.28-3.39-1.73a4.87,4.87,0,0,1-1.24,1.88,4.81,4.81,0,0,0-.77-.61,5,5,0,0,0,1.6-3.55l.93.11c-.06.41-.13.79-.21,1.16a2.49,2.49,0,0,0,1.23,1.52V80.84h-2.64V80h6.35v.83h-2.75V82h2.2v.81h-2.2Zm2.17-5h-5.25V75.68h5.25Zm-1-2.91h-3.34v.73h3.34Zm0,1.42h-3.34v.73h3.34Z" transform="translate(-10.46 -3.27)" style="fill:#fff"/><path d="M162.3,75.66A16,16,0,0,1,161.21,78v7.47h-1v-5.9a10.38,10.38,0,0,1-.91,1.11,8.09,8.09,0,0,0-.56-1,12.24,12.24,0,0,0,2.61-4.24Zm2.45,7.21a9.7,9.7,0,0,1-2.14,2.53,6.4,6.4,0,0,0-.81-.65,7.15,7.15,0,0,0,2-2.19ZM169,81v1h-7.09V81h1.58V78.56H162.2v-1h1.32V75.44h1v2.14h1.89V75.42h1v2.16h1.5v1h-1.5V81Zm-4.5,0h1.89V78.56h-1.89Zm2.5,1.55a13.71,13.71,0,0,1,1.9,2.3l-.86.55a12.8,12.8,0,0,0-1.86-2.4Z" transform="translate(-10.46 -3.27)" style="fill:#fff"/><path d="M176.25,80.49a6.37,6.37,0,0,0,4.4,4,3.86,3.86,0,0,0-.69,1,7.15,7.15,0,0,1-4.41-4.07,6.94,6.94,0,0,1-4.4,4.08,4,4,0,0,0-.67-.87c2.68-1,3.76-2.56,4.18-4h-3.87v-1h4.06a8.12,8.12,0,0,0,.06-1.07v-1.2h-3.72V76.12h8.64v1.06H176v1.21c0,.33,0,.69,0,1.06h4.35v1Z" transform="translate(-10.46 -3.27)" style="fill:#fff"/><path d="M187.39,77.17V79l.19-.22a25.33,25.33,0,0,1,3.83,2.24l-.75.94a23.32,23.32,0,0,0-3.27-2.11v5.53H186.3V77.17h-4.08v-1h9.72v1Z" transform="translate(-10.46 -3.27)" style="fill:#fff"/><path d="M197.47,79.94a7.89,7.89,0,0,1-3.12,4.82,4.6,4.6,0,0,0-.82-.77,6.4,6.4,0,0,0,2.64-3.33h-2.4v-1h2.84l.18,0Zm5.89-.89a27.44,27.44,0,0,1-2.8,2.28,6.81,6.81,0,0,0,3.18,2.53,4.77,4.77,0,0,0-.71.9,7.66,7.66,0,0,1-3.81-3.84v3.27c0,.58-.13.88-.53,1a5.32,5.32,0,0,1-1.92.19,3.58,3.58,0,0,0-.37-1c.61,0,1.28,0,1.47,0s.25-.07.25-.25V78.53h-2.91v-1h4v.88a11.19,11.19,0,0,0,.86,2.12,17,17,0,0,0,2.34-2.18Zm-3.19-1.35a19.05,19.05,0,0,0-4-1.5l.51-.85a18.9,18.9,0,0,1,4,1.39Z" transform="translate(-10.46 -3.27)" style="fill:#fff"/><path d="M206.38,82.55a15.55,15.55,0,0,1-.54,2.82,4.36,4.36,0,0,0-.77-.27,12.87,12.87,0,0,0,.51-2.69Zm1.78-.45a6.18,6.18,0,0,0-.11-.61,10.37,10.37,0,0,0-2.6.51,6.12,6.12,0,0,0-.29-.85c.23-.06.46-.33.78-.75a11.53,11.53,0,0,0,.77-1.13,5.46,5.46,0,0,0-1.34.24,8.37,8.37,0,0,0-.29-.83c.2-.05.37-.27.57-.61a13.51,13.51,0,0,0,1.27-2.76l.86.35a17.15,17.15,0,0,1-1.47,2.83l.93-.08c.25-.47.52-1,.73-1.48l.8.46a20.44,20.44,0,0,1-2.23,3.5l1.35-.18c-.09-.33-.19-.67-.29-1l.7-.18a15.92,15.92,0,0,1,.61,2.3Zm-.8.28a22.29,22.29,0,0,1,.28,2.52l-.75.15a21.91,21.91,0,0,0-.23-2.55Zm1-.27a17.76,17.76,0,0,1,.57,2l-.69.22a16.75,16.75,0,0,0-.54-2Zm4.73,1.74c.78.27,1.6.6,2.14.84l-.42.73c-.58-.27-1.5-.69-2.33-1l.33-.57H211l.6.56c-.83.38-1.9.79-2.67,1.08a4.57,4.57,0,0,0-.38-.72,19.72,19.72,0,0,0,2.23-.92h-1.61V80.61h5.46v3.24Zm-1.6-7.29h-2.7v-.69h2.7v-.54h1v.54H215v.69h-2.58v.49h2.19v.66h-5.47v-.66h2.28Zm-2.65,1.52H215V80.2H208.8Zm.85,1.46h1v-.8h-1Zm.43,2h3.59v-.4h-3.59Zm0,.84h3.59V82h-3.59Zm0,.87h3.59v-.44h-3.59Zm2.34-3.75v-.8h-1v.8Zm1.67-.8h-.89v.8h.89Z" transform="translate(-10.46 -3.27)" style="fill:#fff"/><path d="M222.48,75.6a2.35,2.35,0,0,1-.16.21,10.57,10.57,0,0,0,4.6,2.14,4.08,4.08,0,0,0-.65.78c-.27-.08-.55-.16-.83-.26v2.85H218V78.54c-.28.1-.54.19-.82.27a3.58,3.58,0,0,0-.55-.78,9.41,9.41,0,0,0,4.94-2.75Zm2.92,2.86a12,12,0,0,1-1.76-.78V78h-3.81v-.26a10.92,10.92,0,0,1-1.59.73Zm-6.77,3.3h6.27v3.62h-1v-.3h-4.21v.34h-1Zm1.5-2.57a4.78,4.78,0,0,1,.56,1.21l-.73.25h1.3V79.13h-2.38v1.52h1.05a4.53,4.53,0,0,0-.51-1.24Zm-.48,3.27v.61h4.21v-.61Zm4.21,1.93v-.62h-4.21v.62Zm-.87-7.1a7.13,7.13,0,0,1-1.21-.92,7.93,7.93,0,0,1-1.2.92Zm1.55,1.84H222.1v1.52h1.23l-.68-.21a8.47,8.47,0,0,0,.55-1.29l.86.24c-.24.48-.49.94-.68,1.26h1.16Z" transform="translate(-10.46 -3.27)" style="fill:#fff"/><path d="M234.07,75.82a2.61,2.61,0,0,1-.19.27A9.2,9.2,0,0,0,238.52,79a4.67,4.67,0,0,0-.72.95,10.08,10.08,0,0,1-4.52-3.09,12.31,12.31,0,0,1-4.56,3.25,3.56,3.56,0,0,0-.63-1,9.92,9.92,0,0,0,5.15-3.91Zm-3.31,3.9h1.06v1.33a4.47,4.47,0,0,1-2.42,4.4,3.89,3.89,0,0,0-.84-.77,3.67,3.67,0,0,0,2.2-3.65Zm4.08,0h1.08v5.74h-1.08Z" transform="translate(-10.46 -3.27)" style="fill:#fff"/><path d="M243.34,79.48a15.07,15.07,0,0,1,.73,2.27l-.84.28c0-.17-.08-.37-.13-.59a12.23,12.23,0,0,0-3,.56c-.06-.21-.21-.69-.32-1,.25,0,.5-.32.84-.71a12.39,12.39,0,0,0,.86-1.08,5.82,5.82,0,0,0-1.46.25,8.81,8.81,0,0,0-.31-.9c.19,0,.4-.27.63-.59a14.64,14.64,0,0,0,1.44-2.74l.93.39a17.56,17.56,0,0,1-1.67,2.8l1-.09c.28-.45.57-.94.81-1.42l.88.55a20.41,20.41,0,0,1-2.45,3.36l1.58-.21c-.11-.33-.22-.66-.33-1Zm-2.26,3.08a12.07,12.07,0,0,1-.52,2.65,7.81,7.81,0,0,0-.82-.3,10.14,10.14,0,0,0,.5-2.5Zm1.2-.19a22.77,22.77,0,0,1,.31,2.35l-.82.17a19.54,19.54,0,0,0-.28-2.36Zm1.16-.29a15.44,15.44,0,0,1,.6,2l-.8.27a15.86,15.86,0,0,0-.56-2Zm6.13-6.2s0,.27,0,.41c-.12,2.31-.25,3.25-.52,3.56a1,1,0,0,1-.72.36,9.38,9.38,0,0,1-1.22,0,2.48,2.48,0,0,0-.28-.94,9.4,9.4,0,0,0,1,0,.42.42,0,0,0,.35-.12,6.18,6.18,0,0,0,.36-2.43h-1.65a4.4,4.4,0,0,1-2.27,3.77,2.6,2.6,0,0,0-.63-.77,3.42,3.42,0,0,0,1.88-3h-1.77v-.9Zm-5.15,5.06h4.84v4.44h-1v-.44h-2.79v.49h-1Zm1,.9V84h2.79V81.84Z" transform="translate(-10.46 -3.27)" style="fill:#fff"/><path d="M261.34,82h-4.41v2.15c0,.67-.19,1-.65,1.11a7.58,7.58,0,0,1-2.34.18,3.84,3.84,0,0,0-.43-1c.88,0,1.77,0,2,0s.33-.08.33-.31V82h-4.42V81h4.42V79.39h-3.68v-1h3.68V76.92c-1.18.1-2.38.17-3.49.22a2.85,2.85,0,0,0-.24-.89,39,39,0,0,0,7.41-.91l.76.84a22.75,22.75,0,0,1-3.37.61v1.62h3.78v1h-3.78V81h4.41Z" transform="translate(-10.46 -3.27)" style="fill:#fff"/><path d="M273,80.91h-1v3.36c0,.48-.08.78-.39,1a2.9,2.9,0,0,1-1.37.19,4,4,0,0,0-.32-1c.39,0,.78,0,.9,0s.17,0,.17-.2V80.91h-1.43v4.38h-1V80.91h-1.4v4.38h-.94V80.91h-1.34v4.54h-1V80.91h-1.05v-1h1.05V76H272V79.9h1Zm-6.72-1V77h-1.34V79.9Zm2.34,0V77h-1.4V79.9Zm2.39,0V77h-1.43V79.9Z" transform="translate(-10.46 -3.27)" style="fill:#fff"/><path d="M276.76,78.68A1.72,1.72,0,1,1,275,80.39,1.71,1.71,0,0,1,276.76,78.68Zm0,2.77a1.06,1.06,0,0,0,0-2.11,1.06,1.06,0,1,0,0,2.11Z" transform="translate(-10.46 -3.27)" style="fill:#fff"/><path d="M29.3,98a10,10,0,0,1-.82,1.31H34v4.13H33v-.5H28.33v.51h-1v-2.83a8.66,8.66,0,0,1-1.73,1.29,5.65,5.65,0,0,0-.74-.82A8.15,8.15,0,0,0,28.13,98h-3V97h3.52a9,9,0,0,0,.47-1.22l1,.26a8,8,0,0,1-.38,1h5.11v1ZM27,95.18H25.16v-.92H27v-.93h1v.93h1.7v.92h-1.7v1.06H27Zm5.92,5H28.33V102H33Zm-1.09-5H30.18v-.92h1.69v-.93h1v.93h2v.92h-2v1.07h-1Z" transform="translate(-10.46 -3.27)" style="fill:#fff"/><path d="M40.46,95.66c-.19.38-.38.75-.59,1.1h5.21v5.48c0,.55-.11.86-.51,1a5.81,5.81,0,0,1-1.91.16,4.38,4.38,0,0,0-.32-1c.65,0,1.31,0,1.49,0s.25,0,.25-.22v-.94H39.64a4,4,0,0,1-1.15,2.22,3.54,3.54,0,0,0-.74-.8,3.93,3.93,0,0,0,1-3.07v-1.3a8.52,8.52,0,0,1-1.59,1.47A6.23,6.23,0,0,0,36.5,99a8.88,8.88,0,0,0,2.82-3.36H36.74v-1h3a11.16,11.16,0,0,0,.46-1.38l1,.24c-.12.38-.24.76-.4,1.14h5.48v1Zm3.62,4.77v-1H39.79v.19c0,.24,0,.5,0,.77Zm0-2.76H39.79v.94h4.29Z" transform="translate(-10.46 -3.27)" style="fill:#fff"/><path d="M51.72,93.73A17.65,17.65,0,0,1,50.59,96v7.41h-1V97.5a10.63,10.63,0,0,1-1.15,1.3,8.4,8.4,0,0,0-.61-1.06,12,12,0,0,0,2.89-4.33ZM55.21,99v3.06h2.72v1H51.5v-1h2.67V99h-3V98h3V95.32H51.85v-1h5.88v1H55.21V98h3v1Z" transform="translate(-10.46 -3.27)" style="fill:#fff"/><path d="M63,93.63A15,15,0,0,1,62,95.76v7.66H61v-6a9.81,9.81,0,0,1-.91,1.15,7.61,7.61,0,0,0-.55-1A12.17,12.17,0,0,0,62,93.34Zm6.74,1.69H69v6.81c0,.65-.16,1-.58,1.11a6.81,6.81,0,0,1-2.2.19,4,4,0,0,0-.36-1c.8,0,1.59,0,1.81,0s.31-.07.31-.29v-6.8h-5v-1H69.7Zm-5.56,5.23v.75h-1V96.71h3.51v3.84Zm0-3v2.07h1.59V97.6Z" transform="translate(-10.46 -3.27)" style="fill:#fff"/><path d="M72.69,97.71v5.72h-1V93.77h4v3.94Zm0-3.12v.77h2.06v-.77Zm2.06,2.32v-.83H72.69v.83Zm.26,5v.64h-1V98.59h4.15v3.3Zm0-2.44V101h2.24V99.45Zm5.73,2.68c0,.62-.14.94-.54,1.11a6.19,6.19,0,0,1-2,.18,3.2,3.2,0,0,0-.35-1c.7,0,1.41,0,1.63,0s.26-.08.26-.28v-4.4h-3.1v-4h4.15Zm-3.17-7.55v.78h2.12v-.78Zm2.12,2.34v-.84H77.57v.84Z" transform="translate(-10.46 -3.27)" style="fill:#fff"/><path d="M85.75,102a8.63,8.63,0,0,0,2.93.34c.61,0,3.42,0,4.17,0a2.81,2.81,0,0,0-.34.86H88.68c-2.23,0-3.73-.24-4.66-1.59a4.32,4.32,0,0,1-.82,1.87,2.87,2.87,0,0,0-.61-.7,6.09,6.09,0,0,0,.82-3.49h.84c0,.42,0,.83-.08,1.24a3.15,3.15,0,0,0,.7,1V98.78h-2.1V98h4.91v.78H85.75v1h1.73v.77H85.75Zm1.35-4.75H83.36v-3.5H87.1Zm-.95-2.78H84.26v.69h1.89Zm0,1.36H84.26v.71h1.89Zm3.6,4.74a6.66,6.66,0,0,1-1.93,1.61,5,5,0,0,0-.67-.62,5.13,5.13,0,0,0,1.75-1.25ZM89.4,95.3c.07-.23.14-.47.2-.71h-2v-.76h5v.76H90.55c-.1.24-.2.49-.3.71h2v4.89H88V95.3Zm1.86.73H88.92v.68h2.34Zm0,1.36H88.92v.68h2.34Zm0,1.38H88.92v.69h2.34Zm-.13,1.52a8.55,8.55,0,0,1,1.67,1.39l-.74.46a9.2,9.2,0,0,0-1.64-1.47Z" transform="translate(-10.46 -3.27)" style="fill:#fff"/><path d="M95.32,99.91c.85-.32,1.35-.82,1.4-1.48h-.15a.88.88,0,1,1,0-1.76c.69,0,1,.54,1,1.37a2.69,2.69,0,0,1-2,2.58Z" transform="translate(-10.46 -3.27)" style="fill:#fff"/><path d="M108.31,97c0,.4,0,.83,0,1.3.34,1.89,1,3.59,2.22,4.36a3.57,3.57,0,0,0-.66.86,6.1,6.1,0,0,1-1.89-3.18,7.15,7.15,0,0,1-1.77,3.18,2.63,2.63,0,0,0-.63-.61v0H102v.52h-.8V99.87a7.28,7.28,0,0,1-.53.63,6.36,6.36,0,0,0-.46-.69,6.89,6.89,0,0,0,1.47-2.29h-1v-2h2.19v2h-1.17l.69.21c-.09.21-.18.41-.29.62h1.2a5.44,5.44,0,0,0-.29-.54l.66-.26a3.53,3.53,0,0,1,.44.8h1.51v.71h-1.56v.55h1.34v.69h-1.34v.57h1.41v.67h-1.41v.65h1.48v.5A8,8,0,0,0,107.4,97v-.64h.91Zm-6.59-2.25h-1.47V94h1.47v-.64h.86v2h-.86ZM101.31,97h.89v-.88h-.89Zm1.9,2.1H102v.55h1.24Zm0,1.24H102v.57h1.24ZM102,102.19h1.24v-.65H102Zm3.59-4.67h-2.17v-2h2.17Zm-1-2.2h-.88v-2h.88V94H106v.75h-1.44Zm.38.77H104V97h.9Zm2.24-.21a10.1,10.1,0,0,1-1,2.56,6.35,6.35,0,0,0-.8-.63,11.28,11.28,0,0,0,1.24-4.49l1,.16c-.07.5-.14,1-.23,1.48h2.28l.15,0,.63.19a21.71,21.71,0,0,1-.78,2.92l-.75-.24a18.23,18.23,0,0,0,.48-1.91Z" transform="translate(-10.46 -3.27)" style="fill:#fff"/><path d="M114.68,98.51a12.92,12.92,0,0,1-.89,2.84c.2.12.44.3.8.52a6,6,0,0,0,3.06.53,39.16,39.16,0,0,0,4.41-.26,3.61,3.61,0,0,0-.3,1.06c-.86.06-2.87.12-4.15.12a6.15,6.15,0,0,1-3.19-.58c-.45-.25-.85-.63-1.08-.63s-.62.71-.93,1.38l-.68-.95a4.65,4.65,0,0,1,1.11-1.14,11,11,0,0,0,.71-2.14h-1.41c.27-.65.6-1.54.87-2.4H111.9v-.92h2.38c-.24.78-.55,1.68-.83,2.44h.62l.15,0Zm-1.63-3c-.14-.49-.4-1.26-.58-1.84l.91-.27c.19.57.46,1.3.59,1.78ZM117.73,99a6.52,6.52,0,0,0,.06.91,10.29,10.29,0,0,0-2.58.94,2.64,2.64,0,0,0-.39-.81.91.91,0,0,0,.44-.81V94.4a9.17,9.17,0,0,0,2.15-1.08l.73.76h3.34v5.6c0,.45-.08.7-.38.86a3.43,3.43,0,0,1-1.39.16,3,3,0,0,0-.31-.87c.43,0,.85,0,1,0s.18,0,.18-.16V95H119v7h-.93V94.1a13.25,13.25,0,0,1-1.91.83v4.51Z" transform="translate(-10.46 -3.27)" style="fill:#fff"/><path d="M128.42,102.06c-1.73.3-3.58.6-4.9.82l-.17-1,2.1-.31V100h-1.79v-.93h1.79V97.91h1v1.14h1.71V100h-1.71v1.41l1.89-.3Zm-.9-4.19a3.55,3.55,0,0,0-.21-.46,18.09,18.09,0,0,0-3.51.41,9.27,9.27,0,0,0-.32-.92,1.18,1.18,0,0,0,.51-.48,12.45,12.45,0,0,0,.83-1.5h-1.34V94h4.91v.94h-2.45a14,14,0,0,1-1.08,1.8l2-.14c-.17-.32-.37-.63-.55-.9l.78-.37a19.88,19.88,0,0,1,1.26,2.13Zm5.69-2.36a12.54,12.54,0,0,1-1.85,5.34,6.53,6.53,0,0,0,2.11,1.79,3.44,3.44,0,0,0-.7.81,7.14,7.14,0,0,1-2-1.8,7.82,7.82,0,0,1-2.31,1.84,4.13,4.13,0,0,0-.67-.94,6.36,6.36,0,0,0,2.34-1.82,11.21,11.21,0,0,1-.87-1.81c-.14.28-.3.53-.45.77a5.91,5.91,0,0,0-.57-1,8.55,8.55,0,0,0,.57-1.09,20.8,20.8,0,0,1-.56-2.2l.77-.15c.08.34.15.69.24,1a23.33,23.33,0,0,0,.61-2.93l.95.15c-.1.61-.22,1.2-.34,1.81h1.89l.18,0Zm-3,.79a12.47,12.47,0,0,1-.5,1.53,12.9,12.9,0,0,0,1,2.08,10.58,10.58,0,0,0,1.38-3.61Z" transform="translate(-10.46 -3.27)" style="fill:#fff"/><path d="M136.26,97.44h-1V95h4.15v-.59h-3.68v-.71h8.39v.71h-3.71V95h4.24v2.4h-1V95.73h-3.22v2.4h-1v-2.4h-3.18Zm7.2,5c.56,0,.67-.18.74-1.2a2.7,2.7,0,0,0,.86.33c-.14,1.32-.42,1.67-1.53,1.67h-2.41c-1.35,0-1.73-.27-1.73-1.26v-.2h-2.16v.52h-1V98.48h7.45v3.35h-3.34V102c0,.39.13.47.81.47Zm-7.13-5c.7-.09,1.63-.23,2.61-.38l0,.61c-.83.2-1.65.37-2.36.51Zm.61-1.63a11.39,11.39,0,0,1,2,.54l-.27.58a13.25,13.25,0,0,0-2-.59Zm.29,3.36v.62h2.16V99.2Zm2.16,1.91v-.64h-2.16v.64Zm3.32-1.91h-2.34v.62h2.34Zm0,1.91v-.64h-2.34v.64Zm.62-2.89a16.52,16.52,0,0,0-2.55-.61L141,97a13.19,13.19,0,0,1,2.54.53Zm0-1.88a13.94,13.94,0,0,1-2.07.57l-.34-.5a20,20,0,0,0,2-.64Z" transform="translate(-10.46 -3.27)" style="fill:#fff"/><path d="M156.49,101.21H154v1.14c0,.52-.1.78-.49.93a6.17,6.17,0,0,1-1.82.14,3.25,3.25,0,0,0-.34-.91c.64,0,1.24,0,1.42,0s.23-.06.23-.2v-1.12h-3.68a16.35,16.35,0,0,1,1.64,1.13l-.64.71a14.75,14.75,0,0,0-1.86-1.37l.46-.47h-2.39v-.83H153v-.6h-5.39v-4h2.5v-.55h-3.37v-.8h2.53a6,6,0,0,0-.66-.84l.84-.36a7.77,7.77,0,0,1,.87,1.08l-.28.12h2.65a6.22,6.22,0,0,0,.66-1.16l1.07.29c-.23.31-.47.6-.68.87h2.46v.8h-3.41v.55h2.63v4H154v.6h2.45Zm-7.91-2.07h5.9V97.61h-1.43c-.88,0-1.1-.16-1.1-.82v-.32h-1c-.08.64-.52,1.22-1.81,1.57a3,3,0,0,0-.48-.65c1-.16,1.35-.53,1.44-.92h-1.55Zm.91-1.07h4.21v.6h-4.21ZM151,95.83H152v-.55H151Zm1.82.64v.33c0,.22,0,.25.34.25h1.05c.16,0,.23,0,.26,0v-.53Z" transform="translate(-10.46 -3.27)" style="fill:#fff"/><path d="M162.14,101a7.8,7.8,0,0,1-3.49,2.15,4,4,0,0,0-.68-.85,7.25,7.25,0,0,0,3.32-1.63Zm-3.54-3.78a2.94,2.94,0,0,0-.48-.66c1.93-.48,2.19-1.33,2.27-3.18h.9a7.9,7.9,0,0,1-.26,1.93,15.78,15.78,0,0,1,1.6,1.08L162,97c-.29-.25-.82-.62-1.3-.95a3.19,3.19,0,0,1-1.76,1.16H167c-.44-.34-1.13-.82-1.76-1.23a3.34,3.34,0,0,1-1.93,1.22,2.57,2.57,0,0,0-.52-.76c1.81-.48,2.09-1.34,2.17-3.07h.92a7.84,7.84,0,0,1-.26,1.85c.7.43,1.66,1,2.16,1.41l-.56.58h.44V99h-1v-1h-7.17v1h-1V97.17Zm.58-1.8c-.2-.29-.59-.78-.91-1.15l.61-.44c.31.34.72.81.92,1.07Zm4.39,4.85v3.19h-1v-3.19h-3.72v-.9h3.72v-1h1v1h3.84v.9Zm-.56-6c-.34.43-.7.88-1,1.18l-.63-.25a8.19,8.19,0,0,0,.75-1.24Zm.85,1.08c-.2-.27-.57-.73-.85-1.07l.6-.44c.3.32.67.74.86,1Zm1,5.26a22.16,22.16,0,0,1,3.2,1.92l-.76.69a20.67,20.67,0,0,0-3.16-2Zm3-6.36c-.37.45-.77.91-1.08,1.22l-.63-.27a9.08,9.08,0,0,0,.82-1.27Z" transform="translate(-10.46 -3.27)" style="fill:#fff"/><path d="M173.56,102.28c0,.49-.09.8-.4,1a3.07,3.07,0,0,1-1.5.19,3.35,3.35,0,0,0-.27-1c.45,0,.89,0,1,0s.19,0,.19-.21V99.78h-1.49a10.46,10.46,0,0,1-.79,3.67,3.51,3.51,0,0,0-.83-.47,13.45,13.45,0,0,0,.78-5.32V93.73h3.28Zm-.95-3.47V97.19H171.2v.47c0,.35,0,.74,0,1.15Zm-1.41-4.14v1.57h1.41V94.67Zm8.28,3a9.57,9.57,0,0,1-1.42,3.66,5.62,5.62,0,0,0,1.75,1.32,3.3,3.3,0,0,0-.66.79,6.21,6.21,0,0,1-1.68-1.35,6.3,6.3,0,0,1-1.54,1.3,3.2,3.2,0,0,0-.59-.74v.78h-1V93.75h4.79v2.11c0,.48-.1.74-.49.87a5.59,5.59,0,0,1-1.78.15,3.37,3.37,0,0,0-.32-.87c.61,0,1.22,0,1.38,0s.23,0,.23-.17V94.71h-2.84v2.78h3.38l.16,0Zm-4.14,5a5.28,5.28,0,0,0,1.56-1.3,10.61,10.61,0,0,1-1.36-2.9h-.2Zm1.07-4.2a8.2,8.2,0,0,0,1,2.12,8.16,8.16,0,0,0,.93-2.12Z" transform="translate(-10.46 -3.27)" style="fill:#fff"/><path d="M190.33,95.31a5,5,0,0,1-1.22,1.76,7.73,7.73,0,0,0,2.22.83,3.6,3.6,0,0,0-.63.86,7.85,7.85,0,0,1-2.39-1.06,8.93,8.93,0,0,1-2.32,1,4.05,4.05,0,0,0-.29-.45,17.25,17.25,0,0,1-.6,1.77l-.71-.35a12.3,12.3,0,0,0,.49-1.65H184v4.23c0,.49-.08.77-.41.94a3.65,3.65,0,0,1-1.45.17,3.51,3.51,0,0,0-.3-1c.44,0,.88,0,1,0s.18,0,.18-.16v-3a7.82,7.82,0,0,1-1.48,2.39,5.42,5.42,0,0,0-.52-1,7.18,7.18,0,0,0,1.68-2.64h-1.53v-.89H184a13.52,13.52,0,0,0-2.36-1.3l.64-.66c.31.12.66.28,1,.44a6.35,6.35,0,0,0,1-.92h-2.9v-.87H185l.17,0,.66.4a7.85,7.85,0,0,1-1.72,1.84,9,9,0,0,1,.88.58l-.47.52h.68l.16,0,.61.22c0,.14-.06.28-.1.44a7.39,7.39,0,0,0,1.69-.7,5.92,5.92,0,0,1-1-1.15,7.85,7.85,0,0,1-.66.64A5.83,5.83,0,0,0,185,96a6.46,6.46,0,0,0,2.09-2.65l1,.26a8.93,8.93,0,0,1-.45.87h3.46v.86Zm.56,4.13s0,.26,0,.4c-.19,2-.38,2.82-.69,3.15a1.15,1.15,0,0,1-.74.33,12.16,12.16,0,0,1-1.22,0,2.48,2.48,0,0,0-.28-.94c.43,0,.84.05,1,.05a.42.42,0,0,0,.35-.12c.19-.17.34-.73.48-2H188.2a4.42,4.42,0,0,1-2.88,3.13,3.1,3.1,0,0,0-.61-.79,3.64,3.64,0,0,0,2.44-2.34h-1.54v-.86h1.76c.06-.34.1-.68.14-1h1c0,.37-.08.71-.14,1Zm-3.71-4.13a4.86,4.86,0,0,0,1.11,1.21,4,4,0,0,0,.92-1.21Z" transform="translate(-10.46 -3.27)" style="fill:#fff"/><path d="M202.69,101h-2.55v1.36c0,.48-.1.75-.49.89a6.47,6.47,0,0,1-1.81.13,3.31,3.31,0,0,0-.31-.88c.6,0,1.23,0,1.39,0s.22,0,.22-.19V101h-3.65a9.13,9.13,0,0,1,1.5,1.2l-.75.66a9.4,9.4,0,0,0-1.73-1.43l.5-.43h-2.24v-.82h6.37v-.56c-2.2,0-4.33.1-5.89.12l0-.77,4,0v-.52h-3.28v-3h3.28v-.51h-4.13v-.8h4.13v-.77h1v.77h4.06v.8h-4.06v.51h3.39v3h-1a9.33,9.33,0,0,1,1.71,1l-.61.55a6.64,6.64,0,0,0-.57-.41l-1,0v.6h2.55Zm-7.79-4.41h2.31v-.55H194.9Zm2.31,1.2v-.57H194.9v.57Zm1-1.75v.55h2.39v-.55Zm2.39,1.18h-2.39v.57h2.39ZM198.21,99,200,99a6.35,6.35,0,0,0-.67-.28l.25-.21h-1.35Z" transform="translate(-10.46 -3.27)" style="fill:#fff"/><path d="M207.3,100.05c0-.16-.05-.35-.09-.56a12.52,12.52,0,0,0-2.67.51,9.67,9.67,0,0,0-.32-1c.25-.06.5-.32.84-.72.14-.17.45-.56.79-1.07a6.11,6.11,0,0,0-1.38.25,8.81,8.81,0,0,0-.31-.9c.2,0,.37-.27.59-.59a13.69,13.69,0,0,0,1.32-2.72l1,.38a18.51,18.51,0,0,1-1.55,2.78l.95-.08a10.52,10.52,0,0,0,.81-1.47l.88.55a19.94,19.94,0,0,1-2.37,3.39l1.3-.15c-.09-.35-.19-.7-.3-1l.76-.2a13.53,13.53,0,0,1,.61,2.31Zm-1.82.5a14.21,14.21,0,0,1-.53,2.73,4.69,4.69,0,0,0-.77-.28,11.45,11.45,0,0,0,.5-2.59Zm1-.15a16.72,16.72,0,0,1,.27,2.32l-.78.15a20.2,20.2,0,0,0-.22-2.34Zm1-.29a10.91,10.91,0,0,1,.51,1.65l-.72.24a9.54,9.54,0,0,0-.47-1.68Zm3.19-.73a5.18,5.18,0,0,1-2.37,3.53,5.55,5.55,0,0,0-.59-.71,4.19,4.19,0,0,0,1.82-2.16h-1.21v-.83H210l.15,0Zm3.46-.07c-.5.43-1,.89-1.5,1.24a4.75,4.75,0,0,0,1.71,1.63,3.48,3.48,0,0,0-.67.8,5.45,5.45,0,0,1-1.85-2.19v1.57c0,.49-.1.76-.42.92a4,4,0,0,1-1.51.16,3.44,3.44,0,0,0-.28-.93c.46,0,.92,0,1.05,0s.18,0,.18-.17v-4h-2.14v-3.9h1.63a7.63,7.63,0,0,0,.35-1.17l1.16.23c-.15.32-.31.65-.47.94h2.42v3.9h-2v.39a6.5,6.5,0,0,0,.43,1.09,14.93,14.93,0,0,0,1.12-1.19Zm-4.47-3.25h3.13v-.78h-3.13Zm0,1.53h3.13V96.8h-3.13Z" transform="translate(-10.46 -3.27)" style="fill:#fff"/><path d="M217.15,95.8a.93.93,0,1,1,1.85,0,.93.93,0,0,1-1.85,0Zm0,5.33a.93.93,0,1,1,.92.9A.9.9,0,0,1,217.15,101.13Z" transform="translate(-10.46 -3.27)" style="fill:#fff"/><path d="M221.89,98.48c0-2.8,1-4.17,2.62-4.17s2.62,1.38,2.62,4.17-1,4.23-2.62,4.23S221.89,101.3,221.89,98.48Zm4,0c0-2.32-.59-3.17-1.41-3.17s-1.41.85-1.41,3.17.58,3.22,1.41,3.22S225.92,100.82,225.92,98.48Z" transform="translate(-10.46 -3.27)" style="fill:#fff"/><path d="M228.68,101.83c2.38-2.12,3.62-3.69,3.62-5a1.33,1.33,0,0,0-1.38-1.49,2.16,2.16,0,0,0-1.59.91l-.72-.71a3.17,3.17,0,0,1,2.47-1.21,2.29,2.29,0,0,1,2.44,2.43c0,1.56-1.25,3.18-3,4.82.42,0,.92-.08,1.32-.08h2v1.08h-5.22Z" transform="translate(-10.46 -3.27)" style="fill:#fff"/><path d="M235.53,99h2.9v.93h-2.9Z" transform="translate(-10.46 -3.27)" style="fill:#fff"/><path d="M240,101.83c2.39-2.12,3.62-3.69,3.62-5a1.32,1.32,0,0,0-1.37-1.49,2.2,2.2,0,0,0-1.6.91l-.71-.71a3.17,3.17,0,0,1,2.46-1.21,2.29,2.29,0,0,1,2.44,2.43c0,1.56-1.24,3.18-2.95,4.82.41,0,.92-.08,1.32-.08h2v1.08H240Z" transform="translate(-10.46 -3.27)" style="fill:#fff"/><path d="M251.28,96a1.72,1.72,0,0,0-1.26-.6c-1,0-1.9.78-2,3.09a2.42,2.42,0,0,1,1.76-.94c1.37,0,2.28.84,2.28,2.55a2.47,2.47,0,0,1-2.42,2.66c-1.54,0-2.8-1.29-2.8-4,0-3.12,1.47-4.36,3.06-4.36a2.77,2.77,0,0,1,2,.87Zm-.35,4.1c0-1-.46-1.62-1.33-1.62a1.9,1.9,0,0,0-1.51.94c.13,1.61.72,2.37,1.59,2.37C250.38,101.74,250.93,101.1,250.93,100.05Z" transform="translate(-10.46 -3.27)" style="fill:#fff"/><path d="M258.1,96a1.72,1.72,0,0,0-1.26-.6c-1,0-1.89.78-1.95,3.09a2.42,2.42,0,0,1,1.76-.94c1.36,0,2.28.84,2.28,2.55a2.47,2.47,0,0,1-2.42,2.66c-1.54,0-2.8-1.29-2.8-4,0-3.12,1.47-4.36,3.06-4.36a2.77,2.77,0,0,1,2,.87Zm-.35,4.1c0-1-.46-1.62-1.33-1.62a1.9,1.9,0,0,0-1.51.94c.13,1.61.72,2.37,1.59,2.37C257.2,101.74,257.75,101.1,257.75,100.05Z" transform="translate(-10.46 -3.27)" style="fill:#fff"/><path d="M260.43,101.83c2.39-2.12,3.62-3.69,3.62-5a1.32,1.32,0,0,0-1.37-1.49,2.2,2.2,0,0,0-1.6.91l-.71-.71a3.17,3.17,0,0,1,2.46-1.21,2.29,2.29,0,0,1,2.44,2.43c0,1.56-1.24,3.18-3,4.82.42,0,.93-.08,1.32-.08h2v1.08h-5.23Z" transform="translate(-10.46 -3.27)" style="fill:#fff"/><path d="M267.29,99h2.9v.93h-2.9Z" transform="translate(-10.46 -3.27)" style="fill:#fff"/><path d="M271.76,98.48c0-2.8,1-4.17,2.62-4.17S277,95.69,277,98.48s-1,4.23-2.62,4.23S271.76,101.3,271.76,98.48Zm4,0c0-2.32-.58-3.17-1.41-3.17s-1.41.85-1.41,3.17.59,3.22,1.41,3.22S275.79,100.82,275.79,98.48Z" transform="translate(-10.46 -3.27)" style="fill:#fff"/><path d="M278.38,101.59l.61-.81a2.63,2.63,0,0,0,1.91.89c.92,0,1.55-.5,1.55-1.34s-.58-1.49-2.4-1.49v-.93c1.59,0,2.12-.61,2.12-1.42a1.13,1.13,0,0,0-1.24-1.18,2.37,2.37,0,0,0-1.62.77l-.66-.79a3.43,3.43,0,0,1,2.32-1c1.45,0,2.48.75,2.48,2.09a1.94,1.94,0,0,1-1.4,1.9v.06a2,2,0,0,1,1.67,2,2.43,2.43,0,0,1-2.71,2.33A3.32,3.32,0,0,1,278.38,101.59Z" transform="translate(-10.46 -3.27)" style="fill:#fff"/><path d="M285.19,101.59l.62-.81a2.63,2.63,0,0,0,1.91.89c.92,0,1.54-.5,1.54-1.34s-.57-1.49-2.39-1.49v-.93c1.59,0,2.12-.61,2.12-1.42a1.13,1.13,0,0,0-1.24-1.18,2.37,2.37,0,0,0-1.62.77l-.66-.79a3.43,3.43,0,0,1,2.32-1c1.45,0,2.48.75,2.48,2.09a1.94,1.94,0,0,1-1.4,1.9v.06a2,2,0,0,1,1.67,2,2.43,2.43,0,0,1-2.71,2.33A3.36,3.36,0,0,1,285.19,101.59Z" transform="translate(-10.46 -3.27)" style="fill:#fff"/><path d="M292.19,101.83c2.39-2.12,3.62-3.69,3.62-5a1.32,1.32,0,0,0-1.38-1.49,2.2,2.2,0,0,0-1.59.91l-.72-.71a3.19,3.19,0,0,1,2.47-1.21A2.29,2.29,0,0,1,297,96.74c0,1.56-1.24,3.18-3,4.82.42,0,.93-.08,1.32-.08h2v1.08h-5.23Z" transform="translate(-10.46 -3.27)" style="fill:#fff"/><path d="M92.93,116.38a7.37,7.37,0,0,1,2.18-5.26l.84.4a6.83,6.83,0,0,0,0,9.72l-.84.4A7.33,7.33,0,0,1,92.93,116.38Z" transform="translate(-10.46 -3.27)" style="fill:#fff"/><path d="M100,116.48a14.68,14.68,0,0,1-1,2.87c.19.11.43.3.77.52a5.89,5.89,0,0,0,3,.53,38.84,38.84,0,0,0,4.4-.26,4.47,4.47,0,0,0-.3,1.06c-.85.06-2.85.12-4.14.12a6.07,6.07,0,0,1-3.16-.58c-.45-.25-.85-.64-1.07-.64s-.62.72-.92,1.39l-.68-1a4.88,4.88,0,0,1,1.06-1.1,11.18,11.18,0,0,0,.85-2.21H97.51c.27-.64.6-1.52.9-2.36H97.09v-.92h2.56c-.25.76-.57,1.64-.87,2.39h.63l.15,0Zm-1.67-3c-.13-.47-.4-1.23-.58-1.8l.94-.25c.2.56.46,1.26.6,1.73Zm3,2.11a12,12,0,0,1-.7,4,4.28,4.28,0,0,0-.84-.48,12.81,12.81,0,0,0,.64-4.63v-2.82h6.07v7c0,.48-.1.74-.41.88a4,4,0,0,1-1.56.17,3.33,3.33,0,0,0-.28-.86h1.1c.16,0,.2-.06.2-.21v-3.13Zm0-3v.77H103v-.77Zm0,2.33H103v-.85h-1.65v.85Zm3.5,1.28v2.5H102v-2.5Zm-.76.65h-1.43V118h1.43Zm1.46-4.26h-1.7v.77h1.7Zm0,2.33v-.85h-1.7v.85Z" transform="translate(-10.46 -3.27)" style="fill:#fff"/><path d="M118.67,115.71v1.12h-10v-1.12Z" transform="translate(-10.46 -3.27)" style="fill:#fff"/><path d="M124.8,116.77a2.12,2.12,0,0,0-3.7.54l-1-.53a3.21,3.21,0,0,1,5.46-.78,2.27,2.27,0,0,0,1.76.85,2.29,2.29,0,0,0,1.94-1.39l1,.53a3.21,3.21,0,0,1-5.46.78Z" transform="translate(-10.46 -3.27)" style="fill:#fff"/><path d="M134.67,116.48a14.68,14.68,0,0,1-1,2.87c.19.11.43.3.77.52a5.91,5.91,0,0,0,3,.53,38.84,38.84,0,0,0,4.4-.26,4.47,4.47,0,0,0-.3,1.06c-.85.06-2.84.12-4.14.12a6.07,6.07,0,0,1-3.16-.58c-.45-.25-.85-.64-1.07-.64s-.62.72-.92,1.39l-.68-1a4.88,4.88,0,0,1,1.06-1.1,11.18,11.18,0,0,0,.85-2.21h-1.34c.27-.64.6-1.52.9-2.36h-1.32v-.92h2.56c-.25.76-.57,1.64-.87,2.39h.63l.16,0Zm-1.66-3c-.14-.47-.41-1.23-.59-1.8l.94-.25c.2.56.46,1.26.6,1.73Zm3,2.11a12,12,0,0,1-.7,4,4.28,4.28,0,0,0-.84-.48,12.81,12.81,0,0,0,.64-4.63v-2.82h6.07v7c0,.48-.1.74-.41.88a4,4,0,0,1-1.56.17,3.33,3.33,0,0,0-.28-.86H140c.16,0,.2-.06.2-.21v-3.13Zm0-3v.77h1.65v-.77Zm0,2.33h1.65v-.85H136v.85Zm3.5,1.28v2.5h-2.91v-2.5Zm-.76.65h-1.43V118h1.43Zm1.46-4.26h-1.7v.77h1.7Zm0,2.33v-.85h-1.7v.85Z" transform="translate(-10.46 -3.27)" style="fill:#fff"/><path d="M153.17,119.86v1h-9.71v-1h2.61c.2-1,.41-2.12.62-3.32h-2v-1h2.12c.11-.74.21-1.47.31-2.16h-3v-1h8.29v1h-4.14c-.09.69-.2,1.42-.31,2.16h2.42l.19-.05.8.07c-.08,1.23-.22,2.88-.39,4.3Zm-5.38-3.32c-.2,1.21-.41,2.37-.59,3.32h2.71c.13-1.1.24-2.36.31-3.32Z" transform="translate(-10.46 -3.27)" style="fill:#fff"/><path d="M157.89,116.48c0-2.8,1-4.17,2.61-4.17s2.62,1.38,2.62,4.17-1,4.23-2.62,4.23S157.89,119.3,157.89,116.48Zm4,0c0-2.32-.58-3.17-1.41-3.17s-1.4.85-1.4,3.17.58,3.22,1.4,3.22S161.91,118.82,161.91,116.48Z" transform="translate(-10.46 -3.27)" style="fill:#fff"/><path d="M165.48,119.07a1.81,1.81,0,0,0,1.33.6c1,0,1.82-.79,1.9-3.1a2.44,2.44,0,0,1-1.78.94c-1.35,0-2.27-.84-2.27-2.54a2.48,2.48,0,0,1,2.41-2.66c1.55,0,2.81,1.26,2.81,3.93,0,3.19-1.45,4.47-3,4.47a2.82,2.82,0,0,1-2.07-.86Zm3.21-3.46c-.12-1.59-.73-2.32-1.61-2.32-.69,0-1.24.63-1.24,1.68s.46,1.63,1.31,1.63A1.93,1.93,0,0,0,168.69,115.61Z" transform="translate(-10.46 -3.27)" style="fill:#fff"/><path d="M171.8,115.5a.85.85,0,1,1,1.7,0,.85.85,0,1,1-1.7,0Zm0,4.33a.85.85,0,1,1,1.7,0,.85.85,0,1,1-1.7,0Z" transform="translate(-10.46 -3.27)" style="fill:#fff"/><path d="M175.35,116.48c0-2.8,1-4.17,2.62-4.17s2.62,1.38,2.62,4.17-1,4.23-2.62,4.23S175.35,119.3,175.35,116.48Zm4,0c0-2.32-.58-3.17-1.41-3.17s-1.41.85-1.41,3.17.59,3.22,1.41,3.22S179.38,118.82,179.38,116.48Z" transform="translate(-10.46 -3.27)" style="fill:#fff"/><path d="M182.17,116.48c0-2.8,1-4.17,2.62-4.17s2.62,1.38,2.62,4.17-1,4.23-2.62,4.23S182.17,119.3,182.17,116.48Zm4,0c0-2.32-.58-3.17-1.41-3.17s-1.41.85-1.41,3.17.59,3.22,1.41,3.22S186.2,118.82,186.2,116.48Z" transform="translate(-10.46 -3.27)" style="fill:#fff"/><path d="M190.51,116.44c-.35,0-.66.23-.93.73l-.68-.49a2,2,0,0,1,1.64-1.17c1,0,1.48,1,2.17,1,.36,0,.65-.24.93-.74l.69.5a2,2,0,0,1-1.64,1.16C191.69,117.45,191.21,116.44,190.51,116.44Z" transform="translate(-10.46 -3.27)" style="fill:#fff"/><path d="M196.24,119.52H198v-5.64h-1.45v-.8a4.82,4.82,0,0,0,1.76-.62h1v7.06h1.58v1h-4.62Z" transform="translate(-10.46 -3.27)" style="fill:#fff"/><path d="M206.46,113.53h-3.8v-1.07h5.21v.78c-1.9,2.37-2.2,4.15-2.33,7.32h-1.3A11.69,11.69,0,0,1,206.46,113.53Z" transform="translate(-10.46 -3.27)" style="fill:#fff"/><path d="M209.73,115.5a.85.85,0,1,1,1.69,0,.85.85,0,1,1-1.69,0Zm0,4.33a.85.85,0,1,1,1.69,0,.85.85,0,1,1-1.69,0Z" transform="translate(-10.46 -3.27)" style="fill:#fff"/><path d="M213.07,119.59l.62-.81a2.63,2.63,0,0,0,1.91.89c.92,0,1.54-.5,1.54-1.34s-.57-1.49-2.39-1.49v-.93c1.59,0,2.12-.61,2.12-1.42a1.13,1.13,0,0,0-1.25-1.18,2.36,2.36,0,0,0-1.61.77l-.66-.79a3.41,3.41,0,0,1,2.32-1c1.45,0,2.47.75,2.47,2.09a1.93,1.93,0,0,1-1.39,1.9v.06a2,2,0,0,1,1.67,2,2.43,2.43,0,0,1-2.71,2.33A3.36,3.36,0,0,1,213.07,119.59Z" transform="translate(-10.46 -3.27)" style="fill:#fff"/><path d="M220.1,116.48c0-2.8,1-4.17,2.62-4.17s2.62,1.38,2.62,4.17-1,4.23-2.62,4.23S220.1,119.3,220.1,116.48Zm4,0c0-2.32-.59-3.17-1.41-3.17s-1.41.85-1.41,3.17.59,3.22,1.41,3.22S224.13,118.82,224.13,116.48Z" transform="translate(-10.46 -3.27)" style="fill:#fff"/><path d="M229.52,116.38a7.33,7.33,0,0,1-2.18,5.26l-.84-.4a6.83,6.83,0,0,0,0-9.72l.84-.4A7.37,7.37,0,0,1,229.52,116.38Z" transform="translate(-10.46 -3.27)" style="fill:#fff"/></g></svg>