<svg id="fd85b51d-396a-4162-81bc-15390a091178" data-name="圖層 1" xmlns="http://www.w3.org/2000/svg" viewBox="0 0 111 111"><path d="M108.6,65.3H81.08a2.39,2.39,0,0,1-2.4-2.4V61.48a16.16,16.16,0,1,1,32.32,0V62.9A2.4,2.4,0,0,1,108.6,65.3ZM83.52,60.5h22.64a11.36,11.36,0,0,0-22.64,0Z" style="fill:#566c6c"/><path d="M80.71,29.25a2.38,2.38,0,0,1-1.69-.7L75.27,24.8H63.21a2.4,2.4,0,0,1-2.4-2.4V2.4A2.4,2.4,0,0,1,63.21,0h34a2.4,2.4,0,0,1,2.41,2.4v20a2.4,2.4,0,0,1-2.41,2.4h-11l-3.75,3.75A2.38,2.38,0,0,1,80.71,29.25ZM65.62,20H76.26a2.4,2.4,0,0,1,1.7.7l2.75,2.76,2.76-2.76a2.4,2.4,0,0,1,1.7-.7h9.64V4.8H65.62Z" style="fill:#566c6c"/><path d="M83.21,17.3a2.36,2.36,0,0,1-1.69-.7l-6.21-6.21A2.4,2.4,0,1,1,78.71,7l6.2,6.2a2.4,2.4,0,0,1-1.7,4.1Z" style="fill:#566c6c"/><path d="M77,17.3a2.4,2.4,0,0,1-1.7-4.1L81.52,7a2.4,2.4,0,1,1,3.39,3.39l-6.2,6.21A2.4,2.4,0,0,1,77,17.3Z" style="fill:#566c6c"/><path d="M94.84,49.8a9.9,9.9,0,1,1,9.9-9.9A9.91,9.91,0,0,1,94.84,49.8Zm0-15a5.1,5.1,0,1,0,5.1,5.1A5.11,5.11,0,0,0,94.84,34.8Z" style="fill:#566c6c"/><path d="M66.84,49.8a9.9,9.9,0,1,1,9.9-9.9A9.91,9.91,0,0,1,66.84,49.8Zm0-15a5.1,5.1,0,1,0,5.1,5.1A5.11,5.11,0,0,0,66.84,34.8Z" style="fill:#566c6c"/><path d="M66.84,45.32A16,16,0,0,0,58,48a18.08,18.08,0,0,1,4.12,3.2,11.32,11.32,0,0,1,16,9.35H67a18.36,18.36,0,0,1,.33,3.42c0,.47,0,.92-.07,1.38H80.6A2.4,2.4,0,0,0,83,62.9V61.48A16.18,16.18,0,0,0,66.84,45.32Z" style="fill:#566c6c"/><path d="M75,111H23a2.41,2.41,0,0,1-2.4-2.4v-2.68a28.4,28.4,0,1,1,56.8,0v2.68A2.4,2.4,0,0,1,75,111Zm-49.6-4.8h47.2v-.28a23.6,23.6,0,1,0-47.2,0Z" style="fill:#566c6c"/><path d="M40.61,109a2.15,2.15,0,0,1-.43,0,2.4,2.4,0,0,1-1.93-2.79l3.49-19.31-3-4A2.4,2.4,0,0,1,42.52,80l3.68,4.82a2.41,2.41,0,0,1,.46,1.89L43,107A2.4,2.4,0,0,1,40.61,109Z" style="fill:#566c6c"/><path d="M57.29,109a2.4,2.4,0,0,1-2.36-2L51.25,86.68a2.41,2.41,0,0,1,.45-1.89L55.39,80a2.4,2.4,0,0,1,3.81,2.91l-3,4,3.5,19.31A2.4,2.4,0,0,1,57.72,109,2.09,2.09,0,0,1,57.29,109Z" style="fill:#566c6c"/><path d="M51.61,93.32H46.3a2.4,2.4,0,0,1,0-4.8h5.31a2.4,2.4,0,0,1,0,4.8Z" style="fill:#566c6c"/><path d="M65.39,98.32H62.51c-.83,0-1.51-1.07-1.51-2.4s.68-2.4,1.51-2.4h2.88c.83,0,1.51,1.08,1.51,2.4S66.22,98.32,65.39,98.32Z" style="fill:#566c6c"/><path d="M28.4,49H14.48a2.4,2.4,0,0,1,0-4.8H28.4a2.4,2.4,0,1,1,0,4.8Z" style="fill:#566c6c"/><path d="M29.4,66.32a2.43,2.43,0,0,1-1.59-.59l-5-4.41H2.4A2.39,2.39,0,0,1,0,58.92v-25a2.4,2.4,0,0,1,2.4-2.4h38a2.4,2.4,0,0,1,2.4,2.4v25a2.39,2.39,0,0,1-2.4,2.4H32.28l-.51,3a2.41,2.41,0,0,1-1.57,1.86A2.44,2.44,0,0,1,29.4,66.32ZM4.8,56.52H23.72a2.45,2.45,0,0,1,1.59.6l2.45,2.17.14-.77a2.39,2.39,0,0,1,2.36-2H38V36.32H4.8Z" style="fill:#566c6c"/><path d="M49,82.32A18.38,18.38,0,0,1,31.48,58.17a2.41,2.41,0,0,1,2.28-1.65H38v-6.1a2.41,2.41,0,0,1,1.11-2A18.39,18.39,0,1,1,49,82.32Zm-13.34-21a13.41,13.41,0,0,0-.26,2.6A13.6,13.6,0,1,0,49,50.32a13.45,13.45,0,0,0-6.15,1.49v7.11a2.39,2.39,0,0,1-2.4,2.4Z" style="fill:#566c6c"/><path d="M49,82.32A18.38,18.38,0,0,1,31.48,58.17a2.41,2.41,0,0,1,2.28-1.65H38v-6.1a2.41,2.41,0,0,1,1.11-2A18.39,18.39,0,1,1,49,82.32Zm-13.34-21a13.41,13.41,0,0,0-.26,2.6A13.6,13.6,0,1,0,49,50.32a13.45,13.45,0,0,0-6.15,1.49v7.11a2.39,2.39,0,0,1-2.4,2.4Z" style="fill:#566c6c"/></svg>