<svg id="b7fe6757-b278-434b-bf4b-44409c8551da" data-name="圖層 1" xmlns="http://www.w3.org/2000/svg" xmlns:xlink="http://www.w3.org/1999/xlink" viewBox="0 0 111 111"><defs><clipPath id="b05163d4-0d5a-4de5-bdf6-8403f3b7c919"><rect x="0.14" y="0.14" width="110.72" height="110.72" style="fill:none"/></clipPath></defs><g id="a5dd753a-c552-4847-b7fa-3083ecb395b1" data-name="Group 226"><g style="clip-path:url(#b05163d4-0d5a-4de5-bdf6-8403f3b7c919)"><g id="b8ccab21-c190-4666-8bfa-2d6c597417e5" data-name="Group 217"><g id="b9f27ec4-b6b6-4110-9fc7-3fb333a90df2" data-name="Group 216"><path id="ef5de751-08c1-4665-9218-0487bfb38c69" data-name="Path 361" d="M69.28,32.37a19.68,19.68,0,0,1-2.71-9.84v-15A7.4,7.4,0,0,0,59.19.14H51.81a7.4,7.4,0,0,0-7.38,7.38v15a18.54,18.54,0,0,1-2.71,9.84l-7.63,13a24.08,24.08,0,0,0-3.32,12.3V108.4a2.46,2.46,0,0,0,2.46,2.45H77.52A2.47,2.47,0,0,0,80,108.4V57.71a24,24,0,0,0-3.33-12.3ZM35.82,66.57H75.18V93.64H35.82ZM67.3,38.77,55.49,48.61,43.68,38.77,46,34.83a29.53,29.53,0,0,0,2.59-6.39H62.39A23.83,23.83,0,0,0,65,34.83ZM49.35,7.52a2.46,2.46,0,0,1,2.46-2.46h7.38a2.47,2.47,0,0,1,2.46,2.45v16H49.35ZM38.52,47.87l2.71-4.8L53.9,53.66l.12.12a.35.35,0,0,0,.25.12.13.13,0,0,1,.12.12h0c.12,0,.25.12.37.12H56c.12,0,.24-.12.37-.12a.12.12,0,0,0,.12-.12h0a.37.37,0,0,0,.24-.12.12.12,0,0,0,.13-.12h0L69.52,43.07l2.7,4.8a19.71,19.71,0,0,1,2.71,9.85v3.93H35.81V57.71a18.87,18.87,0,0,1,2.71-9.84m-2.7,50.69H75.18v7.38H35.82ZM22.29,27.2H2.6A2.47,2.47,0,0,0,.15,29.66V66.57A12.26,12.26,0,0,0,10,78.63v27.3H3.84a2.46,2.46,0,1,0,0,4.91H21.06a2.46,2.46,0,0,0,0-4.91H14.9V78.63a12.26,12.26,0,0,0,9.84-12.06V29.67a2.46,2.46,0,0,0-2.45-2.46m-2.46,12.3H5.07V32.13H19.83ZM12.45,74a7.4,7.4,0,0,1-7.39-7.39V44.43H19.82V66.57A7.4,7.4,0,0,1,12.44,74m98.42-7.38V29.67a2.47,2.47,0,0,0-2.46-2.46H88.71a2.47,2.47,0,0,0-2.45,2.46v36.9A12.28,12.28,0,0,0,96.1,78.63v27.3H90a2.46,2.46,0,0,0,0,4.92h17.22a2.46,2.46,0,0,0,0-4.92H101V78.63a12.28,12.28,0,0,0,9.84-12.06m-4.92-27.06H91.18V32.13h14.76ZM91.18,66.57V44.43h14.76V66.57a7.38,7.38,0,0,1-14.76,0" style="fill:#566c6c"/></g></g></g></g></svg>