<svg id="a67bed3c-d6f4-4946-9e10-b7ca354b636b" data-name="圖層 1" xmlns="http://www.w3.org/2000/svg" viewBox="0 0 111 111"><path d="M74,14.38H32.72a2.4,2.4,0,1,0,0,4.8H74a2.4,2.4,0,1,0,0-4.8Z" style="fill:#566c6c"/><path d="M74,26.05H32.72a2.4,2.4,0,1,0,0,4.8H74a2.4,2.4,0,1,0,0-4.8Z" style="fill:#566c6c"/><path d="M74,72.71H56.72a2.4,2.4,0,1,0,0,4.8H74a2.4,2.4,0,0,0,0-4.8Z" style="fill:#566c6c"/><path d="M97.6.38H32.08C24.15.38,17.7,7.07,17.7,15.3v9.64L3.78,15.16A2.4,2.4,0,0,0,.09,17.78L8,45.79A19.45,19.45,0,0,0,17.7,57.85V84.41H8.6a2.37,2.37,0,0,0-2.37,2.37V97.53A13.26,13.26,0,0,0,19.6,110.65H71.9a13.3,13.3,0,0,0,7.7-.08,11.57,11.57,0,0,0,1.12-.41l.37-.16.71-.34.4-.23c.22-.12.43-.25.64-.38l.1-.07.28-.18c.24-.17.48-.35.73-.55a1.92,1.92,0,0,0,.21-.16c.3-.25.58-.51.86-.78l.24-.26c.19-.2.38-.4.57-.62l.27-.33.48-.65.22-.32c.16-.24.3-.48.48-.8a2.32,2.32,0,0,0,.14-.23c.18-.35.36-.7.51-1.07a1.8,1.8,0,0,0,.08-.21c.13-.31.24-.61.34-.93,0-.1.07-.21.12-.38s.14-.54.2-.8l.09-.43c0-.28.09-.56.13-.84v-.11l0-.3c0-.41.06-.83.06-1.25V27.18h19.6a2.4,2.4,0,0,0,2.4-2.4v-11A13.41,13.41,0,0,0,97.6.38Zm-85,44.11L6.54,23l18.3,12.86c5,3.51,7.22,9.46,6.07,16.31l-.71,4.24L26,55.63a20.75,20.75,0,0,1-3.47-.91h0a17.24,17.24,0,0,1-3.7-1.83l0,0c-.36-.24-.72-.5-1.06-.77A14.5,14.5,0,0,1,12.6,44.49Zm22.16-3.27a.56.56,0,0,1,0,.12A.56.56,0,0,0,34.76,41.22ZM34.27,40a.36.36,0,0,1,0,.09A.36.36,0,0,0,34.27,40Zm-.56-1.17,0,0ZM20,105.89h-.4A8.52,8.52,0,0,1,11,97.53V89.15h8.86a2.48,2.48,0,0,0,.27,0H62.2v8.6a13.4,13.4,0,0,0,2.73,8.13H20.44A2.13,2.13,0,0,0,20,105.89Zm64.2-8.11c0,.28,0,.55,0,.8l0,.26c0,.18,0,.36-.09.54l-.06.28c0,.18-.08.34-.15.6l0,.17c-.06.19-.14.39-.21.58l-.06.14c-.1.23-.21.46-.35.73l-.09.15c-.09.15-.18.31-.29.47l-.14.21-.34.45-.14.17c-.11.14-.24.27-.36.4l-.15.16a7.57,7.57,0,0,1-.58.52l-.14.11c-.14.11-.29.23-.45.34l-.22.14-.42.26-.26.14-.46.22-.24.11c-.23.1-.47.18-.71.26A8.66,8.66,0,0,1,73,106a8.56,8.56,0,0,1-6-8.21v-11a2.41,2.41,0,0,0-2.4-2.4H22.5V59.75a27,27,0,0,0,2.65.61l5.64,1,6.36,9a2.4,2.4,0,0,0,2,1,2.46,2.46,0,0,0,1.39-.44,2.4,2.4,0,0,0,.57-3.35l-6.37-9,.95-5.65-.21,1.26H74a2.4,2.4,0,1,0,0-4.8H36a22.41,22.41,0,0,0-.82-6.87H74a2.4,2.4,0,1,0,0-4.8H33.08a19.43,19.43,0,0,0-5.48-5.82l-5.1-3.58v-13A9.87,9.87,0,0,1,32.08,5.18H87.34a13.32,13.32,0,0,0-3.14,8.6v84ZM35.88,51.14a.13.13,0,0,1,0-.06A.13.13,0,0,0,35.88,51.14ZM106.2,22.38H89V14.27a8.87,8.87,0,0,1,8.6-9.09,8.61,8.61,0,0,1,8.6,8.6Z" style="fill:#566c6c"/><path d="M74,61.05H36.46l3.4,4.8H74a2.4,2.4,0,1,0,0-4.8Z" style="fill:#566c6c"/></svg>