<svg xmlns="http://www.w3.org/2000/svg" viewBox="0 0 458 66" >
    <defs>
        <style>
            .cls-3{fill:#262626}.cls-2{isolation:isolate}
        </style>
    </defs>
    <g id="Group_307" transform="translate(-234 -294)">
        <text id="為什麼是現在" fill="#262626" font-family="Noto Serif TC" font-size="41px" letter-spacing="0.116em" transform="translate(422 349)">
            <tspan x="0" y="0">為什麼是現在</tspan>
        </text>
        <g id="WHY_NOW" class="cls-2" transform="translate(-153.705 -989.709)">
            <g id="Group_294" class="cls-2">
                <path id="Path_399" d="M406.474 1283.709l-.429 1.6a8.452 8.452 0 0 0-3.413.8 3.006 3.006 0 0 0-1.486 2.039 13.258 13.258 0 0 0-.143 3.881l3.083 37.84-2.669 2 21.525-35.761.766 1.921-25.522 42.719h-1.366l-4.6-50.319q-.274-3.118-1.723-4.081a5.725 5.725 0 0 0-2.791-1.039l.428-1.6q1.685.081 4.18.159t4.883.081q2.815 0 5.269-.081t4.008-.159zm59.629 0l-.429 1.6a12.325 12.325 0 0 0-4.065 1.8 14.906 14.906 0 0 0-4.539 5.161l-29.113 48.479h-1.364l-4.6-50.319q-.274-3.118-1.382-4.081a3.891 3.891 0 0 0-2.279-1.039l.428-1.6q1.515.081 3.8.159t4.414.081q3.327 0 6.249-.081t4.734-.159l-.429 1.6a20.346 20.346 0 0 0-4.18.48 2.991 2.991 0 0 0-2.178 1.76 10.773 10.773 0 0 0-.39 4.48l2.829 36.879-1.452.961 20.157-33.2a24.517 24.517 0 0 0 3.24-6.84q.525-2.439-1-3.44a10.093 10.093 0 0 0-5.085-1.08l.429-1.6q2.451.081 4.991.159t4.756.081q2.215 0 3.689-.081t2.766-.16z" class="cls-3"/>
                <path id="Path_400" d="M454.339 1340.349l.429-1.6a20.758 20.758 0 0 0 4.565-.641 4.324 4.324 0 0 0 2.518-1.919 16.6 16.6 0 0 0 1.67-4.32l10.632-39.681a13.709 13.709 0 0 0 .656-4.36 2.158 2.158 0 0 0-1.49-1.92 13.835 13.835 0 0 0-4.233-.6l.429-1.6q1.77.081 4.649.159t6.206.081q2.985 0 5.95-.081t4.948-.159l-.429 1.6a17.33 17.33 0 0 0-4.554.6 4.5 4.5 0 0 0-2.518 1.92 16.5 16.5 0 0 0-1.681 4.36l-10.632 39.681a13.753 13.753 0 0 0-.645 4.32 2.079 2.079 0 0 0 1.489 1.919 16.359 16.359 0 0 0 4.223.641l-.429 1.6q-1.92-.161-4.852-.2t-5.918-.039q-3.327 0-6.238.039t-4.745.2zm19.274-27.68l.429-1.6h33.7l-.429 1.6zm16.387 27.68l.429-1.6a20.748 20.748 0 0 0 4.565-.641 4.324 4.324 0 0 0 2.518-1.919 16.56 16.56 0 0 0 1.67-4.32l10.633-39.681a13.7 13.7 0 0 0 .655-4.36 2.159 2.159 0 0 0-1.489-1.92 13.846 13.846 0 0 0-4.233-.6l.428-1.6q1.941.081 4.9.159t5.865.081q3.327 0 6.249-.081t4.734-.159l-.428 1.6a17.332 17.332 0 0 0-4.555.6 4.508 4.508 0 0 0-2.518 1.92 16.507 16.507 0 0 0-1.68 4.36l-10.632 39.681a13.76 13.76 0 0 0-.646 4.32 2.079 2.079 0 0 0 1.49 1.919 16.342 16.342 0 0 0 4.222.641l-.429 1.6q-1.749-.161-4.638-.2t-6.217-.039q-2.9 0-5.9.039t-4.993.2z" class="cls-3"/>
                <path id="Path_401" d="M580.668 1283.709l-.428 1.6a8.938 8.938 0 0 0-3.766 1.961 36.194 36.194 0 0 0-4.966 5.159l-25.807 32h-1.45l-10.7-34.56q-.914-2.96-1.861-3.721a3.025 3.025 0 0 0-1.885-.759l.449-1.68q1.684.081 3.5.159t3.945.081q2.816 0 6.026-.04t5.982-.2l-.451 1.68a14.652 14.652 0 0 0-3.882.48 4.38 4.38 0 0 0-2.6 1.76 4.282 4.282 0 0 0-.2 3.6l7.473 25.919-.812.481 17.028-21.2q3.564-4.4 4.167-6.8t-1.115-3.32a12.222 12.222 0 0 0-5.278-1l.43-1.6q2.451.081 4.99.159t4.756.081q2.217 0 3.689-.081c.974-.052 1.898-.105 2.766-.159zm-28.877 32.32l-4.244 15.84a13.768 13.768 0 0 0-.647 4.32 2.081 2.081 0 0 0 1.491 1.919 16.334 16.334 0 0 0 4.222.641l-.428 1.6q-1.922-.161-4.852-.2t-5.919-.039q-3.325 0-6.237.039t-4.745.2l.428-1.6a20.719 20.719 0 0 0 4.564-.641 4.317 4.317 0 0 0 2.519-1.919 16.558 16.558 0 0 0 1.67-4.32l4.394-16.4 3.278 4.959z" class="cls-3"/>
            </g>
        </g>
    </g>
</svg>
