<svg xmlns="http://www.w3.org/2000/svg" viewBox="0 0 160.435 44.293" preserveAspectRatio="xMinYMin meet">
    <defs>
        <filter id="Path_410" width="42.501" height="43.377" x="0" y=".359" filterUnits="userSpaceOnUse">
            <feOffset/>
            <feGaussianBlur result="blur" stdDeviation="2.5"/>
            <feFlood flood-opacity=".251"/>
            <feComposite in2="blur" operator="in"/>
            <feComposite in="SourceGraphic"/>
        </filter>
        <filter id="Path_411" width="41.621" height="43.178" x="27.968" y=".558" filterUnits="userSpaceOnUse">
            <feOffset/>
            <feGaussianBlur result="blur-2" stdDeviation="2.5"/>
            <feFlood flood-opacity=".251"/>
            <feComposite in2="blur-2" operator="in"/>
            <feComposite in="SourceGraphic"/>
        </filter>
        <filter id="Path_412" width="43.542" height="44.293" x="57.855" y="0" filterUnits="userSpaceOnUse">
            <feOffset/>
            <feGaussianBlur result="blur-3" stdDeviation="2.5"/>
            <feFlood flood-opacity=".251"/>
            <feComposite in2="blur-3" operator="in"/>
            <feComposite in="SourceGraphic"/>
        </filter>
        <filter id="Path_413" width="43.729" height="43.735" x="90.436" y=".558" filterUnits="userSpaceOnUse">
            <feOffset/>
            <feGaussianBlur result="blur-4" stdDeviation="2.5"/>
            <feFlood flood-opacity=".251"/>
            <feComposite in2="blur-4" operator="in"/>
            <feComposite in="SourceGraphic"/>
        </filter>
        <filter id="Path_414" width="40.963" height="43.178" x="119.472" y=".558" filterUnits="userSpaceOnUse">
            <feOffset/>
            <feGaussianBlur result="blur-5" stdDeviation="2.5"/>
            <feFlood flood-opacity=".251"/>
            <feComposite in2="blur-5" operator="in"/>
            <feComposite in="SourceGraphic"/>
        </filter>
        <style>
            .cls-1{fill:#fff}
        </style>
    </defs>
    <g id="Group_310" transform="translate(7.5 7.5)">
        <g id="Group_308">
            <g filter="url(#Path_410)" transform="translate(-7.5 -7.5)">
                <path id="Path_410-2" d="M394.565 1565.309l3.648 25.034a2.987 2.987 0 0 0 .9 2.01 2.509 2.509 0 0 0 1.341.537l-.213.8q-.828-.08-2.053-.1t-2.457-.02q-1.655 0-3.1.02t-2.361.1l.213-.8a5.262 5.262 0 0 0 2.945-.7q.759-.618.455-2.647l-2.593-19.78.817-.517-12.2 17.989a11.3 11.3 0 0 0-1.75 3.362 1.465 1.465 0 0 0 .512 1.732 5.075 5.075 0 0 0 2.567.557l-.213.8q-1.167-.08-2.456-.1t-2.393-.02q-1.06 0-1.808.02t-1.406.1l.213-.8a5.951 5.951 0 0 0 1.99-.935 9.236 9.236 0 0 0 2.29-2.528l16.436-24.118h.679zm.646 16.915l-.213.8H382.35l.638-.8z" class="cls-1" transform="translate(-365.46 -1557.45)"/>
            </g>
            <g filter="url(#Path_411)" transform="translate(-7.5 -7.5)">
                <path id="Path_411-2" d="M436.724 1565.709q.88.04 2.313.079t2.833.04q1.995 0 3.831-.04t2.6-.04q4.456 0 6.236 1.752a4.311 4.311 0 0 1 1.044 4.5 8.262 8.262 0 0 1-1.345 2.725 9.778 9.778 0 0 1-2.687 2.428 15.116 15.116 0 0 1-4.273 1.772l-.021.079a11.106 11.106 0 0 1 4.842 1.492 4.478 4.478 0 0 1 1.964 2.568 6.091 6.091 0 0 1-.067 3.1 9.528 9.528 0 0 1-4.183 5.552 14.3 14.3 0 0 1-8.071 2.17q-.934 0-2.785-.06t-4.482-.06q-1.486 0-2.934.019t-2.361.1l.213-.8a10.323 10.323 0 0 0 2.271-.319 2.151 2.151 0 0 0 1.253-.955 8.259 8.259 0 0 0 .831-2.149l5.289-19.741a6.821 6.821 0 0 0 .326-2.169 1.074 1.074 0 0 0-.741-.955 6.881 6.881 0 0 0-2.106-.3zm10.312.8a4.2 4.2 0 0 0-2.728.677 5.675 5.675 0 0 0-1.33 2.746l-5.289 19.741q-.555 2.07-.1 2.687t2.4.616a10.534 10.534 0 0 0 6.533-1.811 9.251 9.251 0 0 0 3.269-5.154q.821-3.065-.492-4.737t-5.345-1.671h-4.371l.181-.676h3.65a8.336 8.336 0 0 0 4.1-.9 6.724 6.724 0 0 0 2.507-2.388 12.179 12.179 0 0 0 1.368-3.2q.789-2.945-.19-4.438t-4.163-1.496z" class="cls-1" transform="translate(-393.71 -1557.65)"/>
            </g>
            <g filter="url(#Path_412)" transform="translate(-7.5 -7.5)">
                <path id="Path_412-2" d="M507.464 1564.588a11.726 11.726 0 0 1 6.608 1.711 8.065 8.065 0 0 1 3.393 4.915 15.527 15.527 0 0 1-.408 7.781 21.572 21.572 0 0 1-3.809 7.8 19.051 19.051 0 0 1-6.172 5.214 15.889 15.889 0 0 1-7.5 1.871 11.717 11.717 0 0 1-6.608-1.711 8.042 8.042 0 0 1-3.389-4.936 15.549 15.549 0 0 1 .4-7.761 21.369 21.369 0 0 1 3.83-7.8 19.347 19.347 0 0 1 6.171-5.214 15.778 15.778 0 0 1 7.484-1.87zm-.361.717a8.964 8.964 0 0 0-5.276 1.791 17 17 0 0 0-4.484 4.935 26.646 26.646 0 0 0-3.076 7.283 19.053 19.053 0 0 0-.715 7.343 8.094 8.094 0 0 0 2.1 4.816 5.793 5.793 0 0 0 4.278 1.691 8.963 8.963 0 0 0 5.276-1.792 16.982 16.982 0 0 0 4.489-4.954 26.709 26.709 0 0 0 3.071-7.263 19.038 19.038 0 0 0 .721-7.363 8.18 8.18 0 0 0-2.089-4.8 5.779 5.779 0 0 0-4.298-1.687z" class="cls-1" transform="translate(-423.9 -1557.09)"/>
            </g>
            <g filter="url(#Path_413)" transform="translate(-7.5 -7.5)">
                <path id="Path_413-2" d="M583.47 1565.709l-.212.8a6.427 6.427 0 0 0-2.293.4 2.721 2.721 0 0 0-1.306 1.154 9.447 9.447 0 0 0-.863 2.269l-3.209 11.979a31.84 31.84 0 0 1-1.683 4.856 13.557 13.557 0 0 1-2.318 3.582 11.052 11.052 0 0 1-3.818 2.687 12.149 12.149 0 0 1-4.94 1.015 14.672 14.672 0 0 1-3.761-.458 5.433 5.433 0 0 1-2.794-1.692 6.609 6.609 0 0 1-1.3-2.348 7.413 7.413 0 0 1-.145-3.025 35.042 35.042 0 0 1 .95-4.5l3.349-12.5a6.823 6.823 0 0 0 .326-2.169 1.074 1.074 0 0 0-.741-.955 6.88 6.88 0 0 0-2.105-.3l.213-.8q.881.04 2.313.079t3.088.04q1.486 0 2.961-.04t2.462-.079l-.214.8a8.606 8.606 0 0 0-2.265.3 2.246 2.246 0 0 0-1.254.955 8.244 8.244 0 0 0-.836 2.169l-3.53 13.174a28.13 28.13 0 0 0-.908 4.975 5.016 5.016 0 0 0 .876 3.621q1.058 1.354 4.073 1.353a9.859 9.859 0 0 0 5.344-1.333 10.174 10.174 0 0 0 3.448-3.681 22.527 22.527 0 0 0 2.118-5.294l3.327-12.417a5.526 5.526 0 0 0 .248-2.269 1.531 1.531 0 0 0-.9-1.154 5.623 5.623 0 0 0-2.184-.4l.213-.8q.753.04 1.995.079t2.3.04q1.1 0 2.2-.04t1.775-.073z" class="cls-1" transform="translate(-456.8 -1557.65)"/>
            </g>
            <g filter="url(#Path_414)" transform="translate(-7.5 -7.5)">
                <path id="Path_414-2" d="M639.068 1565.709q-.576 1.513-1.017 2.925t-.645 2.169q-.256.956-.437 1.791t-.31 1.473h-.976a22.494 22.494 0 0 0 .372-4.4 2.757 2.757 0 0 0-1.159-2.328 7.169 7.169 0 0 0-3.755-.716h-2.291l-6.068 22.645a6.748 6.748 0 0 0-.321 2.389 1.259 1.259 0 0 0 .964 1.075 10.683 10.683 0 0 0 2.62.358l-.213.8q-1.084-.08-2.774-.1t-3.433-.019q-1.91 0-3.591.019t-2.721.1l.213-.8a13.268 13.268 0 0 0 2.812-.358 2.614 2.614 0 0 0 1.54-1.075 8.292 8.292 0 0 0 .958-2.389l6.068-22.645h-2.291a9.655 9.655 0 0 0-4.117.716 5.636 5.636 0 0 0-2.427 2.328 29.464 29.464 0 0 0-1.985 4.4h-.984q.255-.637.5-1.473t.5-1.791q.2-.755.517-2.169t.551-2.925q1.772.04 3.862.079t4.212.04h7.7q2.1 0 4.233-.04t3.893-.079z" class="cls-1" transform="translate(-486.13 -1557.65)"/>
            </g>
        </g>
    </g>
</svg>
