<svg id="aa90b1b6-80b7-46cb-bafb-51abae765082" data-name="圖層 1" xmlns="http://www.w3.org/2000/svg" viewBox="0 0 411.75 632.25"><g id="bc49d66f-35ac-4899-a9b7-3485d95a7029" data-name="Group 285"><g id="aab5aec6-a92f-4bee-a51b-c7b92550fb1a" data-name=" 8:00 啟程新竹" style="isolation:isolate"><g style="isolation:isolate"><path d="M121.76,105.7a4,4,0,0,1-2.58-.83,2.59,2.59,0,0,1-1-2.1,2.91,2.91,0,0,1,.55-1.77,4.32,4.32,0,0,1,1.43-1.21v-.07a3.08,3.08,0,0,1-1.48-2.58,2.62,2.62,0,0,1,.88-2.07,3.31,3.31,0,0,1,2.27-.78,3.17,3.17,0,0,1,2.27.81,2.82,2.82,0,0,1,.85,2.12,2.78,2.78,0,0,1-.43,1.46,3.84,3.84,0,0,1-1,1.13v.07a3.27,3.27,0,0,1,1.86,2.93,2.59,2.59,0,0,1-1,2.07A4,4,0,0,1,121.76,105.7Zm0-1.25a2,2,0,0,0,1.38-.45,1.54,1.54,0,0,0,.53-1.23,1.85,1.85,0,0,0-.2-.86,1.73,1.73,0,0,0-.63-.67,7.69,7.69,0,0,0-.81-.48c-.24-.12-.6-.27-1.07-.47a2.71,2.71,0,0,0-1.29,2.3,1.68,1.68,0,0,0,.6,1.34A2.18,2.18,0,0,0,121.79,104.45Zm.69-5.08a2.78,2.78,0,0,0,1-2.05A1.85,1.85,0,0,0,123,96a1.6,1.6,0,0,0-1.24-.5,1.53,1.53,0,0,0-1.59,1.61,1.63,1.63,0,0,0,.59,1.31A6.41,6.41,0,0,0,122.48,99.37Z" transform="translate(-21.22 -24.51)" style="fill:#768e91"/><path d="M129.81,99.46a1,1,0,0,1-.81.35,1.08,1.08,0,0,1-.82-.35,1.17,1.17,0,0,1-.34-.85,1.24,1.24,0,0,1,.34-.88,1.12,1.12,0,0,1,.82-.35,1.08,1.08,0,0,1,.81.35,1.23,1.23,0,0,1,.33.88A1.16,1.16,0,0,1,129.81,99.46Zm0,5.9a1.07,1.07,0,0,1-.81.34,1.11,1.11,0,0,1-.82-.34,1.18,1.18,0,0,1-.34-.86,1.24,1.24,0,0,1,.34-.88,1.08,1.08,0,0,1,.82-.35,1,1,0,0,1,.81.35,1.23,1.23,0,0,1,.33.88A1.17,1.17,0,0,1,129.81,105.36Z" transform="translate(-21.22 -24.51)" style="fill:#768e91"/><path d="M136.25,105.7a3,3,0,0,1-2.62-1.47,8,8,0,0,1-.95-4.29,7.79,7.79,0,0,1,.95-4.24,3.1,3.1,0,0,1,5.24,0,7.68,7.68,0,0,1,1,4.23,7.9,7.9,0,0,1-1,4.29A3,3,0,0,1,136.25,105.7Zm0-1.36q1.92,0,1.92-4.4t-1.92-4.32q-1.91,0-1.91,4.32T136.25,104.34Z" transform="translate(-21.22 -24.51)" style="fill:#768e91"/><path d="M145.54,105.7a3,3,0,0,1-2.62-1.47,8,8,0,0,1-.95-4.29,7.79,7.79,0,0,1,.95-4.24,3.1,3.1,0,0,1,5.24,0,7.68,7.68,0,0,1,1,4.23,7.9,7.9,0,0,1-1,4.29A3,3,0,0,1,145.54,105.7Zm0-1.36q1.92,0,1.92-4.4t-1.92-4.32q-1.9,0-1.91,4.32T145.54,104.34Z" transform="translate(-21.22 -24.51)" style="fill:#768e91"/><path d="M168.94,95.66h-.79a8,8,0,0,1-1.65,2.9,8.71,8.71,0,0,0,2.83,1.67,3.82,3.82,0,0,0-.87,1.09,8.68,8.68,0,0,1-2.88-1.89,10,10,0,0,1-2.91,1.57,4.76,4.76,0,0,0-.82-1.1,9.32,9.32,0,0,0,2.88-1.41,8.93,8.93,0,0,1-1.16-1.76,7.27,7.27,0,0,1-.91,1.22,4.92,4.92,0,0,0-.73-.69v1.95h-4.65a6.16,6.16,0,0,1-1,2.28c-.11-.12-.27-.29-.49-.5a3.37,3.37,0,0,0-.51-.43,8,8,0,0,0,1.12-4.66V93.77a30.5,30.5,0,0,0,4.9-.65l.81,1a27.65,27.65,0,0,1-4.42.61v.71h4.26v1.43a9.79,9.79,0,0,0,2-3.95l1.21.26c-.13.43-.27.87-.44,1.33h4.26Zm-8.35,2.44V96.54h-2.94a12.61,12.61,0,0,1-.13,1.56Zm-2.87,8.58v-5.39h9v5.33h-1.45V106h-6.14v.66Zm7.55-4.16h-6.14v2.26h6.14Zm1.48-6.86h-2.42a10,10,0,0,0,1.27,2A6.29,6.29,0,0,0,166.75,95.66Z" transform="translate(-21.22 -24.51)" style="fill:#768e91"/><path d="M176.81,101.13l-.8,1.11q-.19-.36-1.17-1.74v6.18h-1.35V100.6a14.67,14.67,0,0,1-1.92,3.5,8.12,8.12,0,0,0-.67-1.29,11,11,0,0,0,1.31-2,17.72,17.72,0,0,0,1.09-2.42h-2.13V97.11h2.32v-2l-2,.32a4.54,4.54,0,0,0-.41-1.07,19.83,19.83,0,0,0,4.74-1.2l.95,1.07c-.49.18-1.13.38-1.91.59v2.32h1.75v1.31h-1.75v.7c.23.21.59.55,1.07,1S176.69,101,176.81,101.13Zm7.9,2.25h-3.47v1.73h3v1.23H176.8v-1.23h3.06v-1.73H176.3V102.2h3.56v-1.56c-1.11.1-2,.17-2.52.19a3.76,3.76,0,0,0-.34-1.06,32.85,32.85,0,0,0,6.17-.85l.89,1a20.65,20.65,0,0,1-2.82.52v1.72h3.47ZM184,93.64v4.9h-6.78v-4.9Zm-1.35,3.71V94.83H178.5v2.52Z" transform="translate(-21.22 -24.51)" style="fill:#768e91"/><path d="M193.35,103.56l-.8,1a16.28,16.28,0,0,0-1.45-1.49v3.56h-1.35v-3.52a11,11,0,0,1-2.24,2.52,4.54,4.54,0,0,0-.89-1,8,8,0,0,0,1.53-1.35,10.12,10.12,0,0,0,1.32-1.8H187v-1.18h2.78V99h-2.83V97.79h1.56a7.12,7.12,0,0,0-.53-1.94l1-.26h-1.83V94.43h2.62V93h1.35v1.42h2.62v1.16H191.9l1.06.25c-.37.94-.65,1.59-.82,2h1.74V99H191.1v1.37h2.65v1.18H191.1v.25l.7.54,1,.78Zm-1.65-8H189a5.71,5.71,0,0,1,.6,2l-.88.24h3.3l-1-.24A12.69,12.69,0,0,0,191.7,95.59Zm8.86,2.3v1.29H199v7.43h-1.35V99.18H195.7v.13q0,5.07-2.35,7.43a2.16,2.16,0,0,0-.43-.53,3,3,0,0,0-.55-.44,6.15,6.15,0,0,0,1.07-1.47,6.49,6.49,0,0,0,.62-1.71,15,15,0,0,0,.25-1.64q.06-.74.06-1.65V94.11l.93.27a18.88,18.88,0,0,0,4-1.29l1.13,1a22.79,22.79,0,0,1-4.72,1.36v2.43Z" transform="translate(-21.22 -24.51)" style="fill:#768e91"/><path d="M216.31,95.88v1.38H214.2v7.68a2.4,2.4,0,0,1-.15,1,1,1,0,0,1-.55.5,7.49,7.49,0,0,1-2.58.28,5.2,5.2,0,0,0-.47-1.47c.58,0,1.24,0,2,0,.22,0,.33-.11.33-.32V97.26h-2a13.46,13.46,0,0,1-1.48,2.7,4.75,4.75,0,0,0-1.2-.85,9.74,9.74,0,0,0,1.16-1.85H207v9.43h-1.41V97.26h-.45a15,15,0,0,1-1.5,2.74,6.26,6.26,0,0,0-1.27-.85A15,15,0,0,0,205,92.92l1.47.3c-.22.87-.48,1.76-.79,2.66h3.75V97a20,20,0,0,0,1.32-4.08l1.4.28c-.23,1-.49,1.84-.77,2.68Z" transform="translate(-21.22 -24.51)" style="fill:#768e91"/></g></g><g id="b1473262-8fe8-42af-86b1-d816615180d3" data-name="莊子壽帶看E" style="isolation:isolate"><g style="isolation:isolate"><path d="M121.6,244.24v-2.49h1.33v9.93H121.6v-3.79h-1.2a5.23,5.23,0,0,1-1.39,3.85,3.8,3.8,0,0,0-1-.82,3.89,3.89,0,0,0,1.23-3h-1v-1.22h3.38v-1.23h-2.72V242h1.26v2.29Zm5.13-3.94h-3.56v1.11h-1.38V240.3h-3.4V239h3.4v-1.09h1.38V239h3.56v-1.09h1.37V239h3.52v1.29H128.1v1.11h-1.37Zm5,5.68h-3.48v3.91h3.2v1.31h-7.72v-1.31h3.12V246h-3.41v-1.32h3.41v-2.91h1.4v2.91h3.48Z" transform="translate(-21.22 -24.51)" style="fill:#768e91"/><path d="M147.52,244.49v1.4h-6.05V250a2,2,0,0,1-.19,1,1.16,1.16,0,0,1-.65.52,10.59,10.59,0,0,1-3,.23,4.67,4.67,0,0,0-.6-1.43c.5,0,1.37,0,2.6,0a.58.58,0,0,0,.32-.09A.33.33,0,0,0,140,250v-4.08H134v-1.4H140v-2.38h.8a16.32,16.32,0,0,0,2.64-1.83h-8v-1.37h9.44l.31-.09,1.05.8a18,18,0,0,1-2.26,1.94,21.66,21.66,0,0,1-2.57,1.68v1.25Z" transform="translate(-21.22 -24.51)" style="fill:#768e91"/><path d="M163.34,247.14h-1.88v.76h1.37v1h-1.37v1.65a1.5,1.5,0,0,1-.11.68.68.68,0,0,1-.4.33,5.77,5.77,0,0,1-1.76.16,5.1,5.1,0,0,0-.35-1l1.15,0a.17.17,0,0,0,.19-.18v-1.62h-2.83a6.81,6.81,0,0,1,1.32,1.37l-1,.72a5.86,5.86,0,0,0-1.31-1.51l.8-.58h-1.3v-1h4.28v-.76H149.6v-1h13.74Zm-.79-2.84-1.19-.21c.18-.74.28-1.17.31-1.3H150v-1H162l.22,0,1,.17C163,242.79,162.78,243.58,162.55,244.3Zm-6.83-4v-.66h-5.61v-.92h5.61v-.84h1.41v.84h5.76v.92h-5.76v.66h4.55v.88H151.27v-.88Zm-.33,7.41v3.18H152v.48h-1.2v-3.66Zm-4.44-3h4.79v-.63h-3.65v-.78h8.58v.78H157.1v.63H162v.79H151Zm3.19,3.9H152V250h2.17Z" transform="translate(-21.22 -24.51)" style="fill:#768e91"/><path d="M170.2,240.74h-1.13a3.69,3.69,0,0,1-2.53,2.9,3.6,3.6,0,0,0-.79-.91,2.71,2.71,0,0,0,2.06-2h-2.17v-1.09h2.23v-1.53h1.24v1.53h1.09v-1.51h1.21v1.51H173v-1.51h1.27v1.51h1.12v-1.53h1.24v1.53h2.17v1.09h-2.17v1.08a.69.69,0,0,0,.05.32.32.32,0,0,0,.23.06h.66c.11,0,.18-.07.22-.2a5.14,5.14,0,0,0,.07-1,3.14,3.14,0,0,0,1.1.45,3.05,3.05,0,0,1-.36,1.41,1,1,0,0,1-.9.38h-1a1.33,1.33,0,0,1-1-.3,1.86,1.86,0,0,1-.25-1.15v-1.08h-1.12v2.36H170.2Zm-4.29,6.06v-3h12.74v3H177.3v-1.89h-4.45v1.36h4.39v3.18c0,.64-.21,1-.64,1.2a8.69,8.69,0,0,1-2.34.19,3.86,3.86,0,0,0-.43-1.2q.76,0,1.74,0c.2,0,.3-.09.3-.25v-2h-3v4.29h-1.38v-4.29H168.7v3.41h-1.34v-4.53h4.11v-1.36H167.2v1.89Zm7.13-6.06h-1.63V242H173Z" transform="translate(-21.22 -24.51)" style="fill:#768e91"/><path d="M194.55,243.64h-8.19c-.28.51-.45.79-.48.86h7.22v7.24h-1.39v-.57h-6v.57h-1.33v-5.26a11.37,11.37,0,0,1-2.52,2,4.34,4.34,0,0,0-.85-1.1,10.14,10.14,0,0,0,3.78-3.75h-3.39v-1.12h4c.1-.19.25-.49.42-.89h-3.34v-1.1h3.71a6.64,6.64,0,0,0,.26-.85c-1.46,0-2.76.08-3.89.08a2.77,2.77,0,0,0-.27-1.07,63.6,63.6,0,0,0,10.49-.68l.83,1a51.62,51.62,0,0,1-5.62.59l-.29.92h6v1.1h-6.4c-.1.25-.23.55-.4.89h7.65Zm-2.84,2.8v-.85h-6v.85Zm-6,.93v.85h6v-.85Zm0,2.7h6v-.91h-6Z" transform="translate(-21.22 -24.51)" style="fill:#768e91"/><path d="M197.67,250.51v-11h6.53v1.47h-4.79V244h4.06v1.47h-4.06V249h5v1.47Z" transform="translate(-21.22 -24.51)" style="fill:#768e91"/></g></g><g id="a70e358e-2a6c-4e0b-9b65-84c402238ad1" data-name="高孟華介紹S" style="isolation:isolate"><g style="isolation:isolate"><path d="M125.6,210.26h5.83v1.21H118.5v-1.21h5.68v-1.35h1.42Zm5.33,5.87v5a2.14,2.14,0,0,1-.14.85,1,1,0,0,1-.53.47,8,8,0,0,1-2.46.24,4.38,4.38,0,0,0-.44-1.29h-4v.71h-1.21v-4h5.68v3.24a10.19,10.19,0,0,0,1.41,0c.2,0,.31-.09.31-.26v-3.8h-9v5.39h-1.37v-6.56Zm-10-3.94H129v3.14h-8.06Zm6.65,2.18v-1.21h-5.3v1.21Zm-1,6v-1.27h-3.23v1.27Z" transform="translate(-21.22 -24.51)" style="fill:#768e91"/><path d="M145.71,221h1.79v1.23H134V221h1.8V217.3h10Zm-5.63-5.63v-1.53h-5.89v-1.16h5.89v-1h.51a13.36,13.36,0,0,0,2.11-1.05h-6.49V209.5h8l.25-.08.85.66a15.5,15.5,0,0,1-3.82,2.33v.31h5.73v1.16h-5.73v1.58a1.58,1.58,0,0,1-.17.81,1.09,1.09,0,0,1-.59.42,9.66,9.66,0,0,1-2.51.22,4.28,4.28,0,0,0-.64-1.23c1,0,1.7,0,2.09,0S140.08,215.6,140.08,215.41Zm-3,3V221h1.58V218.4Zm4.44,0H139.9V221h1.58Zm2.87,0h-1.59V221h1.59Z" transform="translate(-21.22 -24.51)" style="fill:#768e91"/><path d="M163.18,216.07H160.5v1.26h1.89v1.16H157.1v1.1H163v1.23H157.1v1.87h-1.36v-1.87H150v-1.23h5.76v-1.1h-5.06v-1.16h1.78v-1.26h-2.68v-1.18h2.68v-1.22h-1.59v-1.16h11.31v1.16H160.5v1.22h2.68Zm-10-3.92v-1h-3.23v-1.23h3.23v-1h1.38v1h3.75v-1h1.38v1h3.37v1.23h-3.37v1H158.3v-1h-3.75v1Zm.59,1.52v1.22h2v-1.22Zm0,3.66h2v-1.26h-2Zm5.42-2.44v-1.22H157.1v1.22Zm0,2.44v-1.26H157.1v1.26Z" transform="translate(-21.22 -24.51)" style="fill:#768e91"/><path d="M172.16,210.33a13.16,13.16,0,0,1-2.52,3,18.15,18.15,0,0,1-3.51,2.53,4.29,4.29,0,0,0-.87-1.15,14.83,14.83,0,0,0,3.59-2.57,13,13,0,0,0,2.51-3.2h1.47a14.6,14.6,0,0,0,2.85,3.31,14,14,0,0,0,3.54,2.25,6.49,6.49,0,0,0-.89,1.28,18.72,18.72,0,0,1-3.52-2.44A14,14,0,0,1,172.16,210.33Zm-3.29,4h1.42v2a13,13,0,0,1-.06,1.32,7.7,7.7,0,0,1-.24,1.33,6.13,6.13,0,0,1-.54,1.36,5.9,5.9,0,0,1-1,1.25,6.88,6.88,0,0,1-1.47,1.15,6.79,6.79,0,0,0-.54-.54,3.72,3.72,0,0,0-.6-.45,7.16,7.16,0,0,0,1.59-1.25,4.37,4.37,0,0,0,.92-1.42,6.82,6.82,0,0,0,.38-1.37,9.72,9.72,0,0,0,.1-1.41Zm5.2-.07h1.45v8.45h-1.45Z" transform="translate(-21.22 -24.51)" style="fill:#768e91"/><path d="M181.76,217.51l1.19.2a12.78,12.78,0,0,1-1,3.83,4.24,4.24,0,0,0-1.05-.53A10.85,10.85,0,0,0,181.76,217.51Zm2.8-3.39.93-.38a10.06,10.06,0,0,1,1.37,3.11l-1,.44c0-.14-.12-.41-.25-.81l-1,.06v6.17h-1.25v-6.09c-.92,0-1.68.09-2.27.13l-.11-1.23,1.05,0c.54-.74.82-1.14.85-1.19a13.78,13.78,0,0,0-1.86-2.09l.67-.91a4.45,4.45,0,0,1,.41.33,14.64,14.64,0,0,0,1.24-2.71l1.23.49c-.67,1.27-1.23,2.26-1.7,3a9.93,9.93,0,0,1,.71.84c.49-.79,1-1.65,1.43-2.57l1.15.52a49.6,49.6,0,0,1-2.88,4.26l1.87-.09C185,215.05,184.84,214.64,184.56,214.12Zm.35,3.59,1-.33a14.73,14.73,0,0,1,.94,2.72l-1.06.35A13.19,13.19,0,0,0,184.91,217.71Zm2.06-8.05h7.53q0,.36,0,.54c-.05,1.66-.12,2.82-.19,3.49a2.85,2.85,0,0,1-.36,1.33,1.46,1.46,0,0,1-1,.47,13.63,13.63,0,0,1-1.75,0,2.81,2.81,0,0,0-.41-1.29c.43,0,.95.06,1.54.06q.38,0,.48-.15a8.94,8.94,0,0,0,.39-3.17h-2.57a7.54,7.54,0,0,1-1,3,5.06,5.06,0,0,1-2.36,1.95,3.18,3.18,0,0,0-.82-1,4.19,4.19,0,0,0,2-1.53,6,6,0,0,0,.82-2.36H187Zm.56,13v-6.2h6.68v6.14h-1.35V222h-4v.72Zm5.33-5h-4v3h4Z" transform="translate(-21.22 -24.51)" style="fill:#768e91"/><path d="M200.82,221.7a5.32,5.32,0,0,1-3.93-1.61l1-1.2a4.07,4.07,0,0,0,2.93,1.3,2.45,2.45,0,0,0,1.54-.43,1.38,1.38,0,0,0,.55-1.14,1.46,1.46,0,0,0-.11-.62,1.2,1.2,0,0,0-.41-.48c-.21-.14-.38-.25-.51-.32s-.38-.18-.74-.34l-1.54-.65a3.12,3.12,0,0,1-2.24-2.91,2.76,2.76,0,0,1,1-2.17,3.91,3.91,0,0,1,2.6-.87,4.66,4.66,0,0,1,3.34,1.39l-.9,1.11a3.62,3.62,0,0,0-2.44-1,2.23,2.23,0,0,0-1.35.38,1.25,1.25,0,0,0-.51,1,1.22,1.22,0,0,0,.14.59,1.18,1.18,0,0,0,.45.47,3.3,3.3,0,0,0,.52.31c.13.07.36.16.68.29l1.51.64a4.46,4.46,0,0,1,1.67,1.16,2.74,2.74,0,0,1,.59,1.83,2.92,2.92,0,0,1-1.07,2.29A4.17,4.17,0,0,1,200.82,221.7Z" transform="translate(-21.22 -24.51)" style="fill:#768e91"/></g></g><g id="a60b9c94-4c4d-41fd-9dad-779950a42099" data-name="台積電何麗梅介紹G" style="isolation:isolate"><g style="isolation:isolate"><path d="M126.67,182.36l1.08-.82a27.5,27.5,0,0,1,2.36,2.13,12.52,12.52,0,0,1,1.69,2.06l-1.23.93a9.16,9.16,0,0,0-1-1.4l-11,.48-.1-1.41,2.25-.07a27.17,27.17,0,0,0,2.37-4.42l1.56.54a43.61,43.61,0,0,1-2.26,3.82q2-.07,6-.25Q127.44,183,126.67,182.36Zm-6.52,11.32v-6.43h9.65v6.42h-1.51v-.62h-6.7v.63Zm8.14-5.1h-6.7v3.12h6.7Z" transform="translate(-21.22 -24.51)" style="fill:#768e91"/><path d="M139.43,188l-.81,1.1a12.41,12.41,0,0,0-1.09-1.63v6.19h-1.35v-6a15.32,15.32,0,0,1-1.86,3.4,7.63,7.63,0,0,0-.69-1.29,14.21,14.21,0,0,0,2.45-4.48H134V184h2.17v-2q-1,.19-1.89.3a3.79,3.79,0,0,0-.41-1.09,19,19,0,0,0,4.53-1.09l1,1.06a14.89,14.89,0,0,1-1.84.56V184H139v-.25h3.53v-.66h-2.76v-.86h2.76v-.65H139.5v-.9h3.07v-.77H144v.77h3.25v.9H144v.65h2.9v.86H144v.66h3.6v.91h-8.44v.66h-1.59v.73c.24.22.58.55,1,1S139.29,187.84,139.43,188Zm7.34-2.68v6h-5l1,.66a11.22,11.22,0,0,1-3.56,1.8,6.19,6.19,0,0,0-.89-.89,11.92,11.92,0,0,0,1.81-.69,7,7,0,0,0,1.44-.88H140v-6Zm-1.3,1.7v-.81h-4.19V187Zm0,1.68v-.82h-4.19v.82Zm0,1.69v-.84h-4.19v.84ZM144,192l.93-.68c1.14.65,2.08,1.23,2.83,1.75l-1.21.67A30.06,30.06,0,0,0,144,192Z" transform="translate(-21.22 -24.51)" style="fill:#768e91"/><path d="M155.75,186.59v-3.3h-4.42v2h-1.25v-2.93h5.67v-.76H151v-1.07h10.93v1.07H157.1v.76h5.77v2.93h-1.29v-2H157.1v3.3Zm2.37,5.92h3.13a.78.78,0,0,0,.73-.3,4,4,0,0,0,.25-1.36,2.31,2.31,0,0,0,1.18.46,3.27,3.27,0,0,1-.55,1.82,2,2,0,0,1-1.54.46H158a3.48,3.48,0,0,1-1.87-.34,1.61,1.61,0,0,1-.47-1.36v-.28h-3v.72H151.4V187h10.17v4.58H157v.28c0,.27.07.43.21.51A2.35,2.35,0,0,0,158.12,192.51Zm-6.4-6.23v-.8h3.37v.8ZM152,184h3.05v.82H152Zm3.65,4h-3v.88h3Zm-3,2.61h3v-.85h-3Zm7.48-1.73V188H157v.88Zm-3.2,1.73h3.2v-.85H157Zm.78-6.65h3.07v.82h-3.07Zm0,2.31v-.8h3.46v.8Z" transform="translate(-21.22 -24.51)" style="fill:#768e91"/><path d="M168.65,179.94l1.3.39a20.82,20.82,0,0,1-1.29,2.91v10.44h-1.38v-8.19A13.79,13.79,0,0,1,166,187a8.07,8.07,0,0,0-.75-1.42,13.21,13.21,0,0,0,1.89-2.54A18.26,18.26,0,0,0,168.65,179.94Zm10.48,1.36v1.33h-1v9.29a2.42,2.42,0,0,1-.17,1,1.13,1.13,0,0,1-.62.5,9.45,9.45,0,0,1-3,.26,5,5,0,0,0-.47-1.42q.72,0,2.46,0a.55.55,0,0,0,.32-.09.41.41,0,0,0,.09-.3v-9.28h-6.82V181.3ZM175,189.77h-3.46v1h-1.32v-6.26H175Zm-1.29-4h-2.17v2.83h2.17Z" transform="translate(-21.22 -24.51)" style="fill:#768e91"/><path d="M191.13,192.51h2a.48.48,0,0,0,.48-.24,3.37,3.37,0,0,0,.15-1.11,3.2,3.2,0,0,0,1.12.44,3,3,0,0,1-.43,1.54,1.48,1.48,0,0,1-1.18.39H191a2.53,2.53,0,0,1-1.48-.3,1.48,1.48,0,0,1-.38-1.19v-2.65H185.6v.83h3v1h-3v1.07c.65,0,1.67-.14,3.06-.28v1q-5.25.51-5.52.52l-.1-1,1.26-.1v-3h-.88a8.63,8.63,0,0,1-1.47,4.35,4.1,4.1,0,0,0-1-.87,8.94,8.94,0,0,0,1.28-5.3V185h5.24v-.42h-1.26v-1.91h-2.87v1.94h-1.19v-2.74h5.32v2.31h1.19V185h5.78v1h-3.92v.69h3.53v2.7h-3.62v1.11a19.42,19.42,0,0,0,3.11-.83l.85.83a24.06,24.06,0,0,1-4,.88V192c0,.19,0,.32.13.38A1.12,1.12,0,0,0,191.13,192.51Zm-3.41-12.1v.94h-6v-.94Zm-2,7.19h-2.19c0,.39,0,.68,0,.88h2.21Zm0-1.6h-2.19v.69h2.19Zm-1.4-3h.94v1.51h-.94Zm4.95,3.65V186H187v.69ZM187,188.48h2.29v-.88H187Zm7.5-8.07v.94h-6.09v-.94Zm-.35,4.19h-1.27v-1.91h-3v1.94h-1.2v-2.74h5.43Zm-1.37,3h-2.23v.88h2.23Zm-.91-3h-.94V183h.94Z" transform="translate(-21.22 -24.51)" style="fill:#768e91"/><path d="M210.75,188.44h-1c0,.51-.08,1.22-.17,2.12h1v1.17h-1.12a3.73,3.73,0,0,1-.45,1.42,1.28,1.28,0,0,1-1,.5,10.26,10.26,0,0,1-1.66,0,2.57,2.57,0,0,0-.31-1.09c.4,0,.87.06,1.4.06a.56.56,0,0,0,.48-.23,1.58,1.58,0,0,0,.25-.68h-4.48l-.11.6-1.3-.09c.25-1.34.46-2.61.61-3.8H202v-.25l-.6,1a17.54,17.54,0,0,0-1-1.83v6.31H199v-6.21a15.3,15.3,0,0,1-1.62,3.59,5.59,5.59,0,0,0-.69-1.23,13.24,13.24,0,0,0,1.27-2.51,20.63,20.63,0,0,0,1-3H197V183h2v-3.1h1.34V183H202v.73a10.44,10.44,0,0,0,1.9-3.85l1.34.3a14.23,14.23,0,0,1-.53,1.56h5.76V183h-6.35c-.09.19-.31.56-.64,1.09H210c0,.3,0,.49,0,.59q0,.57-.06,1.53c0,.64,0,1,0,1.06h.91ZM202,187.26h1.1c.17-1.45.29-2.48.35-3.07a8.75,8.75,0,0,1-.72.89,7.08,7.08,0,0,0-.91-.78h-1.46v1.31l1.64,2.08Zm1.9,3.3h4.47c.09-.83.15-1.54.17-2.12h-4.33C204.14,188.87,204,189.57,203.88,190.56Zm4.79-5.33h-4.09c0,.17-.05.49-.11,1s-.09.82-.12,1.07h2.58a8.25,8.25,0,0,0-1.83-1.3l.76-.63a7.43,7.43,0,0,1,1.87,1.26l-.74.67h1.61C208.61,187,208.63,186.3,208.67,185.23Zm-1.11,4.6-.79.71a8.51,8.51,0,0,0-1.85-1.45l.76-.61A10.08,10.08,0,0,1,207.56,189.83Z" transform="translate(-21.22 -24.51)" style="fill:#768e91"/><path d="M219.41,181.33a13.16,13.16,0,0,1-2.52,3,18.15,18.15,0,0,1-3.51,2.53,4.29,4.29,0,0,0-.87-1.15,14.83,14.83,0,0,0,3.59-2.57,13,13,0,0,0,2.51-3.2h1.47a14.6,14.6,0,0,0,2.85,3.31,14,14,0,0,0,3.54,2.25,6.49,6.49,0,0,0-.89,1.28,18.72,18.72,0,0,1-3.52-2.44A14,14,0,0,1,219.41,181.33Zm-3.29,4h1.42v2a13,13,0,0,1-.06,1.32,7.7,7.7,0,0,1-.24,1.33,6.13,6.13,0,0,1-.54,1.36,5.9,5.9,0,0,1-1,1.25,6.88,6.88,0,0,1-1.47,1.15,6.79,6.79,0,0,0-.54-.54,3.72,3.72,0,0,0-.6-.45,7.16,7.16,0,0,0,1.59-1.25,4.37,4.37,0,0,0,.92-1.42,6.82,6.82,0,0,0,.38-1.37,9.72,9.72,0,0,0,.1-1.41Zm5.2-.07h1.45v8.45h-1.45Z" transform="translate(-21.22 -24.51)" style="fill:#768e91"/><path d="M229,188.51l1.19.2a12.78,12.78,0,0,1-1,3.83,4.24,4.24,0,0,0-1.05-.53A10.85,10.85,0,0,0,229,188.51Zm2.8-3.39.93-.38a10.06,10.06,0,0,1,1.37,3.11l-1,.44c0-.14-.12-.41-.25-.81l-1,.06v6.17h-1.25v-6.09c-.92,0-1.68.09-2.27.13l-.11-1.23,1.05,0c.54-.74.82-1.14.85-1.19a13.78,13.78,0,0,0-1.86-2.09l.67-.91c.17.12.31.24.42.33a15.25,15.25,0,0,0,1.23-2.71l1.23.49c-.67,1.27-1.23,2.26-1.7,3a9.93,9.93,0,0,1,.71.84c.49-.79,1-1.65,1.43-2.57l1.15.52a49.6,49.6,0,0,1-2.88,4.26l1.87-.09C232.29,186.05,232.09,185.64,231.81,185.12Zm.35,3.59,1-.33a14.73,14.73,0,0,1,.94,2.72l-1.06.35A13.19,13.19,0,0,0,232.16,188.71Zm2.06-8.05h7.53q0,.36,0,.54c-.05,1.66-.12,2.82-.19,3.49a2.85,2.85,0,0,1-.36,1.33,1.46,1.46,0,0,1-1,.47,13.63,13.63,0,0,1-1.75,0,2.81,2.81,0,0,0-.41-1.29c.43,0,.95.06,1.54.06q.38,0,.48-.15a8.94,8.94,0,0,0,.39-3.17h-2.57a7.54,7.54,0,0,1-1,3,5.06,5.06,0,0,1-2.36,1.95,3.18,3.18,0,0,0-.82-1,4.19,4.19,0,0,0,2-1.53,6,6,0,0,0,.82-2.36h-2.26Zm.56,13v-6.2h6.68v6.14h-1.35V193h-4v.72Zm5.33-5h-4v3h4Z" transform="translate(-21.22 -24.51)" style="fill:#768e91"/><path d="M249.43,192.7a4.84,4.84,0,0,1-3.69-1.52,5.84,5.84,0,0,1-1.42-4.17,5.91,5.91,0,0,1,1.45-4.2,4.87,4.87,0,0,1,3.71-1.55,4.37,4.37,0,0,1,3.28,1.39l-1,1.11a3.21,3.21,0,0,0-4.76.13,4.71,4.71,0,0,0-.93,3.07,4.86,4.86,0,0,0,.9,3.11,3.12,3.12,0,0,0,2.6,1.12,2.55,2.55,0,0,0,1.74-.54v-2.6h-2.2v-1.42h3.77v4.78a4.31,4.31,0,0,1-1.49.93A5.43,5.43,0,0,1,249.43,192.7Z" transform="translate(-21.22 -24.51)" style="fill:#768e91"/></g></g><g id="b4d847c3-e28c-4b09-9672-e238f7923aeb" data-name="台積電ESG參訪:" style="isolation:isolate"><g style="isolation:isolate"><path d="M126.67,153.36l1.08-.82a27.5,27.5,0,0,1,2.36,2.13,12.52,12.52,0,0,1,1.69,2.06l-1.23.93a9.16,9.16,0,0,0-1-1.4l-11,.48-.1-1.41,2.25-.07a27.17,27.17,0,0,0,2.37-4.42l1.56.54a43.61,43.61,0,0,1-2.26,3.82q2-.07,6-.25Q127.44,154,126.67,153.36Zm-6.52,11.32v-6.43h9.65v6.42h-1.51v-.62h-6.7v.63Zm8.14-5.1h-6.7v3.12h6.7Z" transform="translate(-21.22 -24.51)" style="fill:#768e91"/><path d="M139.43,159l-.81,1.1a12.41,12.41,0,0,0-1.09-1.63v6.19h-1.35v-6a15.32,15.32,0,0,1-1.86,3.4,7.63,7.63,0,0,0-.69-1.29,14.21,14.21,0,0,0,2.45-4.48H134V155h2.17v-2q-1,.19-1.89.3a3.79,3.79,0,0,0-.41-1.09,19,19,0,0,0,4.53-1.09l1,1.06a14.89,14.89,0,0,1-1.84.56V155H139v-.25h3.53v-.66h-2.76v-.86h2.76v-.65H139.5v-.9h3.07v-.77H144v.77h3.25v.9H144v.65h2.9v.86H144v.66h3.6v.91h-8.44v.66h-1.59v.73c.24.22.58.55,1,1S139.29,158.84,139.43,159Zm7.34-2.68v6h-5l1,.66a11.22,11.22,0,0,1-3.56,1.8,6.19,6.19,0,0,0-.89-.89,11.92,11.92,0,0,0,1.81-.69,7,7,0,0,0,1.44-.88H140v-6Zm-1.3,1.7v-.81h-4.19V158Zm0,1.68v-.82h-4.19v.82Zm0,1.69v-.84h-4.19v.84ZM144,163l.93-.68c1.14.65,2.08,1.23,2.83,1.75l-1.21.67A30.06,30.06,0,0,0,144,163Z" transform="translate(-21.22 -24.51)" style="fill:#768e91"/><path d="M155.75,157.59v-3.3h-4.42v2h-1.25v-2.93h5.67v-.76H151v-1.07h10.93v1.07H157.1v.76h5.77v2.93h-1.29v-2H157.1v3.3Zm2.37,5.92h3.13a.78.78,0,0,0,.73-.3,4,4,0,0,0,.25-1.36,2.31,2.31,0,0,0,1.18.46,3.27,3.27,0,0,1-.55,1.82,2,2,0,0,1-1.54.46H158a3.48,3.48,0,0,1-1.87-.34,1.61,1.61,0,0,1-.47-1.36v-.28h-3v.72H151.4V158h10.17v4.58H157v.28c0,.27.07.43.21.51A2.35,2.35,0,0,0,158.12,163.51Zm-6.4-6.23v-.8h3.37v.8ZM152,155h3.05v.82H152Zm3.65,4h-3v.88h3Zm-3,2.61h3v-.85h-3Zm7.48-1.73V159H157v.88Zm-3.2,1.73h3.2v-.85H157Zm.78-6.65h3.07v.82h-3.07Zm0,2.31v-.8h3.46v.8Z" transform="translate(-21.22 -24.51)" style="fill:#768e91"/><path d="M166.17,163.51v-11h6.53v1.47h-4.79V157H172v1.47h-4.06V162h5v1.47Z" transform="translate(-21.22 -24.51)" style="fill:#768e91"/><path d="M179.06,163.7a5.28,5.28,0,0,1-3.92-1.61l1-1.2a4.09,4.09,0,0,0,2.93,1.3,2.43,2.43,0,0,0,1.54-.43,1.38,1.38,0,0,0,.56-1.14,1.64,1.64,0,0,0-.11-.62,1.23,1.23,0,0,0-.42-.48,4.36,4.36,0,0,0-.51-.32l-.73-.34-1.54-.65a3.11,3.11,0,0,1-2.24-2.91,2.73,2.73,0,0,1,1-2.17,3.89,3.89,0,0,1,2.6-.87,4.64,4.64,0,0,1,1.83.37,4.57,4.57,0,0,1,1.51,1l-.91,1.11a3.58,3.58,0,0,0-2.43-1,2.24,2.24,0,0,0-1.36.38,1.27,1.27,0,0,0-.5,1,1.22,1.22,0,0,0,.13.59,1.25,1.25,0,0,0,.45.47,3.83,3.83,0,0,0,.52.31c.14.07.36.16.69.29l1.5.64a4.38,4.38,0,0,1,1.67,1.16,2.74,2.74,0,0,1,.59,1.83,2.91,2.91,0,0,1-1.06,2.29A4.2,4.2,0,0,1,179.06,163.7Z" transform="translate(-21.22 -24.51)" style="fill:#768e91"/><path d="M190.29,163.7a4.81,4.81,0,0,1-3.69-1.52,5.85,5.85,0,0,1-1.43-4.17,6,6,0,0,1,1.45-4.2,4.88,4.88,0,0,1,3.71-1.55,4.35,4.35,0,0,1,3.28,1.39l-1,1.11a3.21,3.21,0,0,0-4.76.13A4.65,4.65,0,0,0,187,158a4.86,4.86,0,0,0,.9,3.11,3.14,3.14,0,0,0,2.6,1.12,2.58,2.58,0,0,0,1.75-.54v-2.6H190v-1.42h3.76v4.78a4.26,4.26,0,0,1-1.48.93A5.43,5.43,0,0,1,190.29,163.7Z" transform="translate(-21.22 -24.51)" style="fill:#768e91"/><path d="M209.89,157.08l-1.06.45a4.46,4.46,0,0,0-.35-.69l-2.5.25a13.44,13.44,0,0,0,4.1,1.83,8.36,8.36,0,0,0-.67,1.07,16.17,16.17,0,0,1-3.61-1.65A10.74,10.74,0,0,1,203,156a10.57,10.57,0,0,1-2.63,2.32,16.23,16.23,0,0,1-3.62,1.78,5.25,5.25,0,0,0-.64-1,14,14,0,0,0,4.14-2.12l-2,.18-1.75.16-.1-1,1.16-.08a12.35,12.35,0,0,0,.93-2.08l1.26.33-.45.76-.54.9,1.53-.1a6,6,0,0,0-.48-.77l1-.31a6.4,6.4,0,0,1,.63,1,9.19,9.19,0,0,0,.91-1h1.2a10.52,10.52,0,0,0,1.2,1.21h.13a16.7,16.7,0,0,0,.78-2.08l1.27.3c-.26.55-.56,1.13-.89,1.73.87,0,1.5-.08,1.89-.11-.28-.35-.48-.6-.62-.76l1-.41A8.21,8.21,0,0,1,209.89,157.08Zm-12.44-3.14-.07-1.15,2.4-.06a12.27,12.27,0,0,0,1-1.86l1.47.23a17.42,17.42,0,0,1-1.07,1.58l2.15-.07,1.93-.07a13.17,13.17,0,0,0-1.09-.78l1-.51a18.55,18.55,0,0,1,3.36,2.62l-1.12.59a9.94,9.94,0,0,0-.92-.91Q201.85,153.77,197.45,153.94Zm9.28,6.61,1.14.56q-2.53,2.67-9.1,3.58a3.55,3.55,0,0,0-.64-1.12Q204.51,162.85,206.73,160.55Zm-1.7-1.48,1.07.53a15.71,15.71,0,0,1-6.55,2.81,6.07,6.07,0,0,0-.72-1,22.33,22.33,0,0,0,3.55-1A9.42,9.42,0,0,0,205,159.07Zm-1.59-1.41,1,.5a14.06,14.06,0,0,1-4.76,2.24,7.29,7.29,0,0,0-.78-.85,17.76,17.76,0,0,0,2.53-.83A9.32,9.32,0,0,0,203.44,157.66Z" transform="translate(-21.22 -24.51)" style="fill:#768e91"/><path d="M217.5,153.4v1.11h-5.57V153.4Zm8.27,1.47H221.3c0,.91-.07,1.6-.11,2.06h4c0,.28,0,.48,0,.6q-.14,3.34-.3,4.74a3.78,3.78,0,0,1-.52,1.79,1.48,1.48,0,0,1-1.1.56,13.29,13.29,0,0,1-1.91,0,3.21,3.21,0,0,0-.42-1.34c.59,0,1.16.08,1.68.08a.67.67,0,0,0,.54-.21c.29-.32.49-2,.61-4.94h-2.69q-.62,4.49-3,6.48a3.2,3.2,0,0,0-.94-1v.13H213.8v.63h-1.2v-5h4.51v4.12a6,6,0,0,0,1-1.1,6.25,6.25,0,0,0,.73-1.35,14.13,14.13,0,0,0,.48-1.43,13.93,13.93,0,0,0,.3-1.6q.1-.89.15-1.59c0-.46.05-1,.07-1.64h-2.19v-1.32h3.25v-2.61h1.45v2.61h3.38Zm-8.64.57v1.08h-4.5v-1.08Zm-4.5,3.09v-1.1h4.5v1.1Zm4.45-7.11v1.09h-4.39v-1.09Zm-1.18,11.33v-2.17h-2.1v2.17Z" transform="translate(-21.22 -24.51)" style="fill:#768e91"/><path d="M230.13,157.46a1,1,0,0,1-.81.35,1.07,1.07,0,0,1-.82-.35,1.13,1.13,0,0,1-.34-.85,1.2,1.2,0,0,1,.34-.88,1.1,1.1,0,0,1,.82-.35,1.08,1.08,0,0,1,.81.35,1.23,1.23,0,0,1,.33.88A1.16,1.16,0,0,1,230.13,157.46Zm0,5.9a1.07,1.07,0,0,1-.81.34,1.09,1.09,0,0,1-.82-.34,1.14,1.14,0,0,1-.34-.86,1.2,1.2,0,0,1,.34-.88,1.07,1.07,0,0,1,.82-.35,1,1,0,0,1,.81.35,1.23,1.23,0,0,1,.33.88A1.17,1.17,0,0,1,230.13,163.36Z" transform="translate(-21.22 -24.51)" style="fill:#768e91"/></g></g><g id="beb1303f-ee88-4fdf-81cc-b1445199ed04" data-name=" Part1 CSR 100 公司治理整體數據與現況 熊毅晰 陳清祥說治理 陳清祥引導提問交流 Part2 CSR 100 企業承諾整體數據與現況 熊毅晰 人資專家引導提問與交流 17:30 賦歸回台北" style="isolation:isolate"><g style="isolation:isolate"><path d="M118.47,382.1v-.6h15v.6Z" transform="translate(-21.22 -24.51)" style="fill:#768e91"/><path d="M135.67,387.51V376.46H139c2.81,0,4.21,1.12,4.21,3.34a3.15,3.15,0,0,1-1.13,2.63,4.76,4.76,0,0,1-3,.89h-1.67v4.19Zm1.74-5.58h1.51a3.11,3.11,0,0,0,2-.52,1.94,1.94,0,0,0,.64-1.61,1.65,1.65,0,0,0-.66-1.49,3.71,3.71,0,0,0-2-.44h-1.44Z" transform="translate(-21.22 -24.51)" style="fill:#768e91"/><path d="M147.92,387.7a2.44,2.44,0,0,1-1.75-.65,2.29,2.29,0,0,1-.68-1.74,2.26,2.26,0,0,1,1.18-2,9.85,9.85,0,0,1,3.75-1q0-1.8-1.56-1.8a4.44,4.44,0,0,0-2.39.84l-.65-1.18a6.23,6.23,0,0,1,3.33-1.08,2.74,2.74,0,0,1,2.26.91,4,4,0,0,1,.74,2.59v5h-1.4l-.17-.95h0A4,4,0,0,1,147.92,387.7Zm.53-1.36a3,3,0,0,0,2-1v-2a6.4,6.4,0,0,0-2.52.66,1.36,1.36,0,0,0-.74,1.18,1,1,0,0,0,.35.86A1.45,1.45,0,0,0,148.45,386.34Z" transform="translate(-21.22 -24.51)" style="fill:#768e91"/><path d="M155.33,387.51v-8.25h1.41l.15,1.48h0a3.67,3.67,0,0,1,1.06-1.25,2.12,2.12,0,0,1,1.27-.45,2.19,2.19,0,0,1,.94.19l-.32,1.5a2.78,2.78,0,0,0-.83-.14A1.73,1.73,0,0,0,158,381a3,3,0,0,0-.91,1.34v5.14Z" transform="translate(-21.22 -24.51)" style="fill:#768e91"/><path d="M165,387.7c-1.67,0-2.5-1-2.5-2.89v-4.17h-1.21v-1.29l1.28-.09.19-2.28h1.45v2.28h2.15v1.38H164.2v4.19c0,1,.4,1.49,1.2,1.49a2.16,2.16,0,0,0,.89-.19l.31,1.28A5.67,5.67,0,0,1,165,387.7Z" transform="translate(-21.22 -24.51)" style="fill:#768e91"/><path d="M168.88,387.51v-1.42h2.41V378.4h-2v-1.09a7,7,0,0,0,2.41-.85H173v9.63h2.15v1.42Z" transform="translate(-21.22 -24.51)" style="fill:#768e91"/><path d="M176.88,382.1v-.6h15v.6Z" transform="translate(-21.22 -24.51)" style="fill:#768e91"/></g><g style="isolation:isolate"><path d="M124.23,416.7a4.56,4.56,0,0,1-3.53-1.53,6,6,0,0,1-1.38-4.16,6,6,0,0,1,1.41-4.19,4.62,4.62,0,0,1,3.57-1.56,4.07,4.07,0,0,1,3.13,1.39l-.93,1.11a3,3,0,0,0-2.17-1A2.84,2.84,0,0,0,122,407.9a4.86,4.86,0,0,0-.88,3.06,5,5,0,0,0,.85,3.09,2.76,2.76,0,0,0,2.33,1.14,3.23,3.23,0,0,0,2.44-1.17l.94,1.1A4.37,4.37,0,0,1,124.23,416.7Z" transform="translate(-21.22 -24.51)" style="fill:#768e91"/><path d="M133.5,416.7a5.28,5.28,0,0,1-3.92-1.61l1-1.2a4.09,4.09,0,0,0,2.93,1.3,2.43,2.43,0,0,0,1.54-.43,1.38,1.38,0,0,0,.56-1.14,1.64,1.64,0,0,0-.11-.62,1.32,1.32,0,0,0-.42-.48,5.4,5.4,0,0,0-.51-.32c-.13-.07-.38-.18-.74-.34l-1.53-.65a3.12,3.12,0,0,1-2.25-2.91,2.74,2.74,0,0,1,1-2.17,3.89,3.89,0,0,1,2.6-.87,4.71,4.71,0,0,1,3.34,1.39l-.91,1.11a3.58,3.58,0,0,0-2.43-1,2.24,2.24,0,0,0-1.36.38,1.27,1.27,0,0,0-.5,1.05,1.22,1.22,0,0,0,.13.59,1.25,1.25,0,0,0,.45.47,3.83,3.83,0,0,0,.52.31c.13.07.36.16.68.29l1.51.64a4.38,4.38,0,0,1,1.67,1.16,2.74,2.74,0,0,1,.59,1.83,3,3,0,0,1-1.06,2.29A4.22,4.22,0,0,1,133.5,416.7Z" transform="translate(-21.22 -24.51)" style="fill:#768e91"/><path d="M148.21,416.51h-2l-2.51-4.46H142v4.46h-1.75V405.46h3.62q4,0,4,3.2a3,3,0,0,1-2.3,3.17ZM142,406.87v3.79h1.67c1.65,0,2.47-.67,2.47-2a1.52,1.52,0,0,0-.61-1.38,3.37,3.37,0,0,0-1.86-.41Z" transform="translate(-21.22 -24.51)" style="fill:#768e91"/><path d="M154.74,416.51v-1.42h2.41V407.4h-2v-1.09a7,7,0,0,0,2.4-.85h1.3v9.63H161v1.42Z" transform="translate(-21.22 -24.51)" style="fill:#768e91"/><path d="M167,416.7a3,3,0,0,1-2.62-1.47,8,8,0,0,1-.95-4.29,7.79,7.79,0,0,1,.95-4.24,3.1,3.1,0,0,1,5.24,0,7.68,7.68,0,0,1,1,4.23,7.9,7.9,0,0,1-1,4.29A3,3,0,0,1,167,416.7Zm0-1.36q1.92,0,1.92-4.4T167,406.62q-1.9,0-1.91,4.32T167,415.34Z" transform="translate(-21.22 -24.51)" style="fill:#768e91"/><path d="M176.3,416.7a3,3,0,0,1-2.62-1.47,8,8,0,0,1-1-4.29,7.79,7.79,0,0,1,1-4.24,3.1,3.1,0,0,1,5.24,0,7.68,7.68,0,0,1,1,4.23,7.9,7.9,0,0,1-1,4.29A3,3,0,0,1,176.3,416.7Zm0-1.36q1.92,0,1.92-4.4t-1.92-4.32q-1.91,0-1.91,4.32T176.3,415.34Z" transform="translate(-21.22 -24.51)" style="fill:#768e91"/><path d="M189.25,406.15l1.53.44a14.89,14.89,0,0,1-1.58,2.56,10.66,10.66,0,0,1-2,2.06,6.64,6.64,0,0,0-1.14-1,9.13,9.13,0,0,0,1.87-1.86A10.8,10.8,0,0,0,189.25,406.15Zm5.42,6.45L196,412a31.27,31.27,0,0,1,2.07,2.61,19.34,19.34,0,0,1,1.54,2.45l-1.41.74c-.1-.22-.32-.63-.66-1.21l-10.46.48-.17-1.45,2.15-.07a35.44,35.44,0,0,0,2.68-6.3l1.64.39a56.28,56.28,0,0,1-2.77,5.85l3.32-.12,2.76-.1A28.89,28.89,0,0,0,194.67,412.6Zm-4.28-8.05H196a14,14,0,0,0,1.71,3A11.26,11.26,0,0,0,200,409.9a5,5,0,0,0-1.28,1,13,13,0,0,1-2-2.22,18,18,0,0,1-1.66-2.77h-4.64Z" transform="translate(-21.22 -24.51)" style="fill:#768e91"/><path d="M214.55,404.85v10.93a2.65,2.65,0,0,1-.17,1,.92.92,0,0,1-.57.52,7.83,7.83,0,0,1-2.82.28,5.35,5.35,0,0,0-.49-1.52c.44,0,.9,0,1.39,0h.87A.44.44,0,0,0,213,416c.06-.05.08-.14.08-.28v-9.58h-10.6v-1.33Zm-3,2.69v1.23h-8.87v-1.23Zm-.93,7.49h-5.72v1.08h-1.34v-5.94h7.06Zm-1.37-3.66h-4.35v2.44h4.35Z" transform="translate(-21.22 -24.51)" style="fill:#768e91"/><path d="M221.18,409.42l-.79,1.2a10.44,10.44,0,0,0-2.87-1.54l.76-1.07A10.43,10.43,0,0,1,221.18,409.42Zm-2,8.07-1.18-.92a48.28,48.28,0,0,0,2.76-4.76l1.06.93Q220.54,415.38,219.22,417.49Zm2.77-12-.82,1.17a10.37,10.37,0,0,0-2.8-1.65l.78-1.06A9.87,9.87,0,0,1,222,405.52Zm5.17,1.2,1.22-.6a25.43,25.43,0,0,1,1.75,2.19,16.26,16.26,0,0,1,1.29,2.1l-1.29.74a13,13,0,0,0-.64-1.23l-7.84.51-.17-1.41,1.45-.06a28.85,28.85,0,0,0,1.9-5.06l1.6.36a48.69,48.69,0,0,1-2,4.63l2.27-.11,2-.11A22,22,0,0,0,227.16,406.72Zm-4.44,11v-6.07h7.34v6h-1.4v-.59h-4.59v.63Zm5.94-4.79h-4.59v2.88h4.59Z" transform="translate(-21.22 -24.51)" style="fill:#768e91"/><path d="M238.05,413.31l.23,1.32q-2.43.86-4.73,1.6l-.32-1.44c.57-.15,1.21-.34,1.92-.55v-3.81h-1.63v-1.29h1.63v-3h-1.77v-1.29h4.77v1.29h-1.67v3h1.42v1.29h-1.42v3.4Zm5.29,2.63h3.8v1.27h-9.58v-1.27h4.36v-1.79h-3.26v-1.26h3.26v-1.54h-3.13V404.6h7.68v6.75h-3.13v1.54h3.32v1.26h-3.32Zm-3.27-10.15v1.61h2v-1.61Zm0,2.72v1.66h2v-1.66Zm5.07-1.11v-1.61h-1.92v1.61Zm0,2.77v-1.66h-1.92v1.66Z" transform="translate(-21.22 -24.51)" style="fill:#768e91"/><path d="M262.66,406.62h-1a7.73,7.73,0,0,1-1.44,2.77,7.39,7.39,0,0,0,2.67,1.38,3.27,3.27,0,0,0-.78,1.09,8.2,8.2,0,0,1-2.74-1.62,9.25,9.25,0,0,1-2.9,1.57,3.3,3.3,0,0,0-.79-1,7.84,7.84,0,0,0,2.86-1.44,8.12,8.12,0,0,1-1.1-1.7,5.48,5.48,0,0,1-.81.9,5.64,5.64,0,0,0-.76-.82v1.46h-2.22c.89.43,1.66.82,2.3,1.16l-.69.91c-.49-.36-1.13-.77-1.91-1.23v1.68h-1.23v-1.67a9,9,0,0,1-2.28,1.7,4,4,0,0,0-.81-.86,8.17,8.17,0,0,0,2.58-1.69h-1.9v-2.78h2.41v-.66h-2.81v-1h2.81v-.87h1.23v.87h2.82v1h-2.82v.66h2.52v1a7.3,7.3,0,0,0,2-3.55l1.28.3c-.09.3-.25.74-.48,1.3h4Zm-6.06,8.61v1h6.12v1.14H249.2v-1.14h2.34v-2.43h1.32v2.43h2.37v-3h-5.08v-1.12h11.6v1.12H256.6v.95h4.11v1.05Zm-5.76-8v1.05h1.3v-1.05Zm3.9,1.05v-1.05h-1.37v1.05Zm3.42-1.71h0a6.88,6.88,0,0,0,1.2,1.91,5.33,5.33,0,0,0,1-1.92Z" transform="translate(-21.22 -24.51)" style="fill:#768e91"/><path d="M271.23,410.82h-.92v5.63c0,.55-.15.89-.45,1a4,4,0,0,1-1.57.19,3.6,3.6,0,0,0-.37-1.07h1c.12,0,.18-.06.18-.19V415.1h-2v2.59H266v-6.87h-.89V408.6h.86v-4.18h4.41v4.18h.88Zm-1.07-.44v-.82h-4v.82ZM267,405.45v3.15h.67v-2.35h1.63v-.8Zm2.14,6.81v-.88h-2v.88Zm-2,1.86h2v-.91h-2Zm1.3-5.52h.82v-1.51h-.82Zm8,7.83h2.18v1H271v-1h2.12a6.6,6.6,0,0,0-.57-1.37l.9-.32h-1.53v-2.82h5.93v2.82h-1.61l1,.26C277.12,415.16,276.86,415.63,276.42,416.43Zm2.06-6.1v1h-7.22v-1Zm-.42-5.1v4.47h-6.42v-4.47h1.73v-1.31h1v1.31h.89v-1.31h1v1.31Zm-5.35.92V407h.84v-.87Zm0,1.74v.88h.84v-.88Zm.32,4.9v1.08h3.59v-1.08Zm3,1.95h-2.5a5.22,5.22,0,0,1,.69,1.68h1.15A9.48,9.48,0,0,0,276,414.74ZM274.37,407h.89v-.87h-.89Zm.89.87h-.89v.88h.89ZM277,407v-.87h-.89V407Zm0,1.75v-.88h-.89v.88Z" transform="translate(-21.22 -24.51)" style="fill:#768e91"/><path d="M294.32,407.94h-.82a19.28,19.28,0,0,1-1.58,5.92,6.59,6.59,0,0,0,2.49,2.75,3.6,3.6,0,0,0-.94,1.1,7.67,7.67,0,0,1-2.33-2.52,9.08,9.08,0,0,1-2.68,2.55,3.89,3.89,0,0,0-.76-1.1l-.83.85a17.05,17.05,0,0,0-1.65-1,10.65,10.65,0,0,1-3.79,1.23,2.44,2.44,0,0,0-.5-1.09,9.33,9.33,0,0,0,3.08-.73l-.53-.22-.67-.28-.21.33-1.14-.31c.45-.7.75-1.19.89-1.47l-1.74,0,0-1.07h2.37c.13-.24.26-.49.39-.78H281.2v-2.6h2.72V409h-2.37v-1.6h-1v-1h1v-1.58h2.37v-.84h1.2v.84h2.54v1.58h1v1h-1V409h-2.54v.59H288v.61a19.13,19.13,0,0,0,1.73-6.24l1.33.21a23.71,23.71,0,0,1-.46,2.53h3.73Zm-11.95,2.49v.82h1.55v-.82Zm1.55-4.75h-1.23v.72h1.23ZM282.69,408h1.23v-.73h-1.23Zm1,5.95-.35.58,1.74.69a3.67,3.67,0,0,0,.9-1.31Zm5-.1-1.5,0a4.24,4.24,0,0,1-1,1.86,13.62,13.62,0,0,1,1.51.83,7.32,7.32,0,0,0,2.78-2.74,19.58,19.58,0,0,1-1.06-3.5,10.73,10.73,0,0,1-.71,1.32,6.78,6.78,0,0,0-.71-.72v1.2h-3.32c-.15.29-.29.54-.41.76l4.48,0Zm-2.27-8.18h-1.31v.72h1.31ZM285.12,408h1.31v-.73h-1.31Zm1.66,2.42h-1.66v.82h1.66Zm5.4-2.49h-1.9l-.06.16a21.24,21.24,0,0,0,1,4.15A18.13,18.13,0,0,0,292.18,407.94Z" transform="translate(-21.22 -24.51)" style="fill:#768e91"/><path d="M300.81,411.45l-1.51.49v4.23a2,2,0,0,1-.11.74,1.37,1.37,0,0,1-.26.45,1,1,0,0,1-.53.23,4.49,4.49,0,0,1-.66.09h-.9a4.18,4.18,0,0,0-.38-1.27,11.71,11.71,0,0,0,1.32,0c.19,0,.28-.08.28-.26v-3.85l-1.61.5-.32-1.34,1.93-.54v-2.81h-1.7v-1.29h1.7v-2.92h1.24v2.92h1.29v1.29H299.3v2.46l.66-.21.66-.2Zm1.45-3.92v3.29c0,3.13-.53,5.41-1.59,6.86a3.48,3.48,0,0,0-1-.7q1.41-2,1.41-6.17V406.5h3.31V404h1.35v.82h3.47v1h-3.47v.73h3.16l.19,0,.88.18a18.88,18.88,0,0,1-.73,2.23l-1.06-.24a7.14,7.14,0,0,0,.34-1.11h-3v.72l2.21-.22.09.82-2.3.2v.22c0,.16,0,.26.11.3a1.08,1.08,0,0,0,.51.07h1.84a.49.49,0,0,0,.38-.11,1.07,1.07,0,0,0,.11-.55,3.47,3.47,0,0,0,1,.31,1.31,1.31,0,0,1-.35.92,1.47,1.47,0,0,1-1,.25h-2.12a2.46,2.46,0,0,1-1.32-.24,1.12,1.12,0,0,1-.32-1v-.1l-1.67.16-.1-.82,1.77-.16v-.82Zm6.8,4.76.79.61a12.09,12.09,0,0,1-1.67,1.23,5,5,0,0,0,2.07,2,3.46,3.46,0,0,0-.76,1q-2.3-1.32-3.12-5.14a8.1,8.1,0,0,1-1,.69,4,4,0,0,1,1.31,1.69,3.47,3.47,0,0,1,.28,1.78,1.83,1.83,0,0,1-.53,1.17,1.67,1.67,0,0,1-1.13.44c-.34,0-.6,0-.79,0a1.9,1.9,0,0,0-.28-1,7.16,7.16,0,0,0,.87,0,.74.74,0,0,0,.57-.2,1.54,1.54,0,0,0,.22-1.34,13.61,13.61,0,0,1-3.49,2,3.75,3.75,0,0,0-.54-.78,12.12,12.12,0,0,0,2.06-.88,8.6,8.6,0,0,0,1.7-1.17c-.09-.16-.18-.32-.28-.47a10.48,10.48,0,0,1-2.57,1.41,3,3,0,0,0-.5-.7,7.53,7.53,0,0,0,2.64-1.25l-.39-.31a13.45,13.45,0,0,1-1.68.65,2.43,2.43,0,0,0-.41-.72,9.77,9.77,0,0,0,2.72-1.13h-2.54v-.95h7.28v.95h-2.61a7.69,7.69,0,0,0,.5,1.45A13.86,13.86,0,0,0,309.06,412.29Z" transform="translate(-21.22 -24.51)" style="fill:#768e91"/><path d="M324.27,413h1.49v1.29H312.14V413h1.49l-.27-8.08.83.24a15.66,15.66,0,0,0,1.9-1.12l1.07,1q-.92.48-2.52,1.14l.05,1.35h1.89v1.15h-1.85l0,1.59h1.8v1.17h-1.77l.05,1.55h2.36V409.7h1.15V413h1.17V409.1h-2.3v-5h1.21v1.44h2.46v1.15h-2.46V408h2.29v5H323c0-.1,0-.32.05-.68s0-.64.05-.86h-1.68V410.3h1.73c0-.18,0-.44,0-.79s0-.61,0-.8H321.4v-1.15h1.77c0-.69,0-1.19,0-1.53h-2v-1.2h3.25C324.45,408.33,324.39,411.06,324.27,413Zm-7.9,1.36,1.28.87a24.12,24.12,0,0,1-4.34,2.46,8,8,0,0,0-1.08-1,20.66,20.66,0,0,0,2.29-1.11A10.87,10.87,0,0,0,316.37,414.38Zm3.78.9,1-.93a40.48,40.48,0,0,1,4.51,2.41l-1.33,1A28.32,28.32,0,0,0,320.15,415.28Z" transform="translate(-21.22 -24.51)" style="fill:#768e91"/><path d="M333.18,412.64l.19,1.25-3.09.9-2.29.66-.33-1.33,2.24-.57v-3.36h-1.81v-1.28h1.81V406H328v-1.29h5.14V406h-1.83v2.93h1.68v1.28h-1.68v3Zm6.09,3.75h.92c.16,0,.26-.1.31-.3a9.28,9.28,0,0,0,.1-1.44,2.88,2.88,0,0,0,1.18.52,5,5,0,0,1-.38,1.92,1.1,1.1,0,0,1-1,.5h-1.31a1.55,1.55,0,0,1-1.18-.34,2,2,0,0,1-.3-1.3v-3.16h-1.23a8.7,8.7,0,0,1-.32,1.67,5.12,5.12,0,0,1-.67,1.37,4,4,0,0,1-1.21,1.13,7.4,7.4,0,0,1-1.87.82,3.27,3.27,0,0,0-.34-.61,2.28,2.28,0,0,0-.44-.53,7.63,7.63,0,0,0,1.64-.62,3,3,0,0,0,1-.87,4.19,4.19,0,0,0,.54-1,6.06,6.06,0,0,0,.26-1.31h-1.23v-8.25h7.14v8.25h-2v3.15a.77.77,0,0,0,0,.38C339,416.37,339.11,416.39,339.27,416.39Zm-4.22-10.69v1.24h4.44V405.7Zm0,2.31v1.26h4.44V408Zm0,2.35v1.26h4.44v-1.26Z" transform="translate(-21.22 -24.51)" style="fill:#768e91"/><path d="M347.23,409.46l-.76,1.19a8.55,8.55,0,0,0-1.31-.8,14,14,0,0,0-1.64-.71l.73-1.06A10.69,10.69,0,0,1,347.23,409.46Zm-.1,2.24,1,.87q-1.59,3-2.86,4.95l-1.17-.88A42.83,42.83,0,0,0,347.13,411.7Zm.86-6.27-.81,1.15a9.22,9.22,0,0,0-2.72-1.54l.78-1A9.12,9.12,0,0,1,348,405.43Zm6.78,10.89h1c.17,0,.28-.13.33-.4a12.28,12.28,0,0,0,.11-1.8,3.42,3.42,0,0,0,1.25.54A6.5,6.5,0,0,1,357,417a1.16,1.16,0,0,1-1.12.59h-1.33a1.54,1.54,0,0,1-1.23-.38,2.22,2.22,0,0,1-.31-1.39v-5h-1.46c0,.75-.1,1.39-.16,1.92a8.84,8.84,0,0,1-.34,1.62,4.9,4.9,0,0,1-.63,1.4,4.75,4.75,0,0,1-1,1.1,6.21,6.21,0,0,1-1.52.89,2.84,2.84,0,0,0-.35-.6,2.31,2.31,0,0,0-.47-.53,5.41,5.41,0,0,0,1.33-.73,4.34,4.34,0,0,0,.88-.89,3.89,3.89,0,0,0,.52-1.18,10.3,10.3,0,0,0,.26-1.35q.07-.66.12-1.65h-1.45v-6.2h7.81v6.2h-2.13v5a.89.89,0,0,0,.07.46C354.5,416.29,354.61,416.32,354.77,416.32Zm-4.71-10.45v3.61h5v-3.61Z" transform="translate(-21.22 -24.51)" style="fill:#768e91"/><path d="M362.25,419.5a14.34,14.34,0,0,1,0-15.36l1.07.47a14.66,14.66,0,0,0,0,14.4Z" transform="translate(-21.22 -24.51)" style="fill:#768e91"/><path d="M369.5,405l1.08-.52a10.85,10.85,0,0,1,2.07,2.6l-1.17.56c-.06-.12-.18-.32-.35-.61-1.76.08-3.6.17-5.53.24l-.08-1.14,1.15,0a12,12,0,0,0,1-2.19l1.4.35c-.63,1.06-1,1.66-1.09,1.8l2.35-.07C370.18,405.74,369.89,405.41,369.5,405Zm-2.65,12.73-1.29-.57a3.88,3.88,0,0,0,.95-1.07,6.76,6.76,0,0,0,.7-1.43l1.34.33A6.39,6.39,0,0,1,366.85,417.72Zm4.86-9.85v5.06a1.62,1.62,0,0,1-.12.71.73.73,0,0,1-.45.35,7.21,7.21,0,0,1-2,.17,4.35,4.35,0,0,0-.36-1h1.45a.21.21,0,0,0,.22-.23v-.76h-2.68v2.06h-1.25v-6.35Zm-1.3,1h-2.68v.81h2.68Zm-2.68,2.48h2.68v-.84h-2.68Zm2.11,3.82,1.29-.1a12.62,12.62,0,0,1,.3,2.4l-1.37.16A12.32,12.32,0,0,0,369.84,415.13Zm3,0,1.3-.26a11.88,11.88,0,0,1,.81,2.37l-1.36.33A13.19,13.19,0,0,0,372.84,415.17Zm4.39-6.22h-2.32a2.48,2.48,0,0,1-1.53-.33,1.68,1.68,0,0,1-.38-1.28V404h1.33v1.56a15.94,15.94,0,0,0,2.92-1l.89.93a21.31,21.31,0,0,1-3.81,1.1v.76a.48.48,0,0,0,.14.41,1.17,1.17,0,0,0,.58.09h2.05a.51.51,0,0,0,.5-.23,3.19,3.19,0,0,0,.16-1.05,2.41,2.41,0,0,0,1.16.47,2.72,2.72,0,0,1-.46,1.53A1.59,1.59,0,0,1,377.23,409Zm.08,5.29h-2.39a2.49,2.49,0,0,1-1.53-.34,1.68,1.68,0,0,1-.39-1.3v-3.46h1.33v1.57a14,14,0,0,0,3-1.07l.89.92a18.44,18.44,0,0,1-3.9,1.19v.85a.48.48,0,0,0,.14.41,1.39,1.39,0,0,0,.61.08h2.11a.5.5,0,0,0,.5-.23,3,3,0,0,0,.14-1.07,3.47,3.47,0,0,0,1.21.48,2.84,2.84,0,0,1-.48,1.56A1.62,1.62,0,0,1,377.31,414.24Zm-1.45.89,1.29-.47A12.49,12.49,0,0,1,379,417.2l-1.39.51A11.25,11.25,0,0,0,375.86,415.13Z" transform="translate(-21.22 -24.51)" style="fill:#768e91"/><path d="M393.2,408v.3s0,.06,0,.08l0,.06a.43.43,0,0,0,0,.05l0,0,0,0,.06,0h.33a.34.34,0,0,0,.26-.08.53.53,0,0,0,.11-.28c0-.15,0-.53.06-1.15a2.83,2.83,0,0,0,.95.53,6.34,6.34,0,0,1-.15,1.42,1.07,1.07,0,0,1-1.14.65h-.67a1.26,1.26,0,0,1-.87-.28,2.3,2.3,0,0,1-.31-1.41v-2.22h-1.8v.86a4.44,4.44,0,0,1-1.59,3.81,2.89,2.89,0,0,0-.44-.46,5.22,5.22,0,0,0-.53-.42l.2-.15h-2.54c-.18.21-.38.42-.59.63a6,6,0,0,1,.94,1.37,12.55,12.55,0,0,0,1.18-1.5l1.06.66c-.67.7-1.2,1.23-1.6,1.58a13.41,13.41,0,0,1,2.35,2l-.84.93a9.78,9.78,0,0,0-1.48-1.43,7,7,0,0,1,0,2.09,2.58,2.58,0,0,1-.55,1.37,1.76,1.76,0,0,1-1.44.61,10,10,0,0,1-1,0,2.33,2.33,0,0,0-.28-1.17l.37,0,.4,0H384a.82.82,0,0,0,.72-.34,2.77,2.77,0,0,0,.36-1.93,14.26,14.26,0,0,1-3.42,2.36,4.37,4.37,0,0,0-.69-1,10.64,10.64,0,0,0,2.16-1.12,8.06,8.06,0,0,0,1.78-1.51,4.9,4.9,0,0,0-.25-.79,11.87,11.87,0,0,1-2.86,2,2.88,2.88,0,0,0-.64-.9,9,9,0,0,0,1.65-.85,7.72,7.72,0,0,0,1.41-1.12,5.3,5.3,0,0,0-.43-.57,10,10,0,0,1-1.91,1.19A5.48,5.48,0,0,0,381,411a8.75,8.75,0,0,0,2.71-1.66h-2.46v-1.18h1.59a7.55,7.55,0,0,0-.48-1.66l.69-.14h-1.6V405.2H384V404h1.3v1.2h2.61v1.19h-1.38l.59.11c-.13.3-.4.86-.82,1.69H388v.93a3.45,3.45,0,0,0,.87-2.54V404.5h4.3Zm-7.35-1.59h-2.33a5.32,5.32,0,0,1,.51,1.67l-.46.13h2.13l-.39-.13C385.56,407.35,385.74,406.8,385.85,406.39Zm7.62,4,.85.32a9.81,9.81,0,0,1-2.17,4.28,8.15,8.15,0,0,0,2.87,1.52,3.84,3.84,0,0,0-.86,1.19,8.42,8.42,0,0,1-3-1.79,10.67,10.67,0,0,1-3.23,1.77,4.54,4.54,0,0,0-.77-1.17,8.71,8.71,0,0,0,3.09-1.59,11.28,11.28,0,0,1-1.58-2.93l1.14-.31h-1.68v-1.23h5.07Zm-.84,1.29h-2.74a8.88,8.88,0,0,0,1.32,2.34A7.59,7.59,0,0,0,392.63,411.69Z" transform="translate(-21.22 -24.51)" style="fill:#768e91"/><path d="M405.73,411.63l-.77.92q-.22-.42-.84-1.32v6.46h-1.23V412a12.08,12.08,0,0,1-1.27,2.83l-.59-.66v.94H398.5v1.18h-1.12V405H401v8.38a16.51,16.51,0,0,0,1.82-5h-1.59v-1.18h1.63V404h1.23v3.17h1.42v1.18h-1.42v1.42C404.65,410.33,405.18,411,405.73,411.63Zm-5.84-5.38H398.5v3.14h1.39Zm-1.39,7.61h1.39v-3.27H398.5Zm12.14-5v1.2h-1.19v7.6h-1.21v-7.6h-1.19v.41q0,4.86-1.6,7.16a2.78,2.78,0,0,0-.95-.88,6.94,6.94,0,0,0,1.08-2.8,22.06,22.06,0,0,0,.25-3.5V405.3l.6.18a12.9,12.9,0,0,0,2.9-1.48l1.18.94a18.83,18.83,0,0,1-3.46,1.49v2.45Z" transform="translate(-21.22 -24.51)" style="fill:#768e91"/><path d="M413.78,419.5l-1.09-.49a14.66,14.66,0,0,0,0-14.4l1.09-.47a14.39,14.39,0,0,1,0,15.36Z" transform="translate(-21.22 -24.51)" style="fill:#768e91"/></g><g style="isolation:isolate"><path d="M122,442.05a.63.63,0,0,0,.57-.26,1.59,1.59,0,0,0,.16-.81,4.15,4.15,0,0,0-1.21-2.81q.51-1.37,1.05-3.36h-1.61v11.88H119.7V433.55H123l.22,0,.9.53c-.66,2-1.13,3.3-1.42,4a4.69,4.69,0,0,1,1.25,3.12c0,.92-.21,1.52-.62,1.79a3.09,3.09,0,0,1-1.8.31,2.44,2.44,0,0,0-.34-1.2A4.13,4.13,0,0,0,122,442.05Zm10.08-.19h-2.23a8.71,8.71,0,0,0,1.44,1.74,7.12,7.12,0,0,0,1.74,1.23,4.11,4.11,0,0,0-.91,1.1,9.14,9.14,0,0,1-3.15-3.48v4.23H127.6v-4.19A10.15,10.15,0,0,1,124,446a4.17,4.17,0,0,0-.94-1.1,8.32,8.32,0,0,0,2-1.28,9.24,9.24,0,0,0,1.61-1.78h-2v-5.17h3v-1.11H124v-1.19h3.58v-1.47h1.34v1.47h3.68v1.19h-3.68v1.11h3.11Zm-6.23-4.17v1.09h1.78v-1.09Zm0,2.06v1.1h1.78v-1.1Zm4.93-2.06h-1.81v1.09h1.81Zm0,3.16v-1.1h-1.81v1.1Z" transform="translate(-21.22 -24.51)" style="fill:#768e91"/><path d="M138.31,438.48l-.81,1.18a7.07,7.07,0,0,0-1.19-.82,13.59,13.59,0,0,0-1.52-.77l.75-1.06A11.16,11.16,0,0,1,138.31,438.48Zm-1.83,8-1.21-.89a41.42,41.42,0,0,0,2.64-4.81l1.07.89C138.26,443.26,137.42,444.86,136.48,446.49ZM139,434.58l-.82,1.11a9.74,9.74,0,0,0-2.65-1.65l.76-1A9.64,9.64,0,0,1,139,434.58Zm5.29,3h4.31v1.08h-9.83V437.6H143v-.85h-3.16v-1H143V435h-3.57v-1H143v-1h1.36v1h3.78v1h-3.78v.79h3.4v1h-3.4Zm3.18,2v5.64a2,2,0,0,1-.14.82.88.88,0,0,1-.49.43,8.39,8.39,0,0,1-2.34.19,5.31,5.31,0,0,0-.4-1.23c.32,0,.9,0,1.72,0,.19,0,.29-.09.29-.25V443.5h-4.69v3.18h-1.33V439.6Zm-6.05,1.09v1.73h1.66v-1.73Zm2.9,1.73h1.79v-1.73h-1.79Z" transform="translate(-21.22 -24.51)" style="fill:#768e91"/><path d="M151.05,440.76V439h1v1.76a12.79,12.79,0,0,1-.68,4.73,2.48,2.48,0,0,0-.86-.65A11.74,11.74,0,0,0,151.05,440.76Zm-.32-2.68v-1.23h5.55v1.23h-2.12v8.61h-1.22v-8.61Zm5.3-4.2v1.23h-4.89v-1.23Zm-1,10.4V439h1v5.28Zm9.35-2.3v1.33H161v3.37h-1.4v-3.37H156.4V442h3.16V440.1h-2.49v-1.3h2.49v-1.74h-2.84v-1.32h1.57a9.47,9.47,0,0,0-1-2.27l1.19-.47a8.37,8.37,0,0,1,1.15,2.56l-.41.18h2.19l-.37-.12a13.33,13.33,0,0,0,1.05-2.71l1.4.37-.37.82c-.16.35-.3.66-.43.93a7.87,7.87,0,0,1-.35.71h1.79v1.32H161v1.74h2.79v1.3H161V442Z" transform="translate(-21.22 -24.51)" style="fill:#768e91"/><path d="M171.92,435.4v1.11h-5.6V435.4Zm6,10h.82q.21,0,.27-.33a10.94,10.94,0,0,0,.1-1.58,2.77,2.77,0,0,0,1.17.54,5.24,5.24,0,0,1-.36,2.08,1.11,1.11,0,0,1-1,.53h-1.15a1.46,1.46,0,0,1-1.15-.35,2.27,2.27,0,0,1-.27-1.32v-3.51h-1.09a8.26,8.26,0,0,1-.84,3.32,4.68,4.68,0,0,1-2.45,2,4.45,4.45,0,0,0-.57-.84H168.2v.63H167v-5h4.43v4a4.17,4.17,0,0,0,1.14-.7,3,3,0,0,0,.71-.94,4.6,4.6,0,0,0,.37-1.1,10.23,10.23,0,0,0,.18-1.33h-1.11V438l-.27.29a5,5,0,0,0-1-.78v1H167v-1.08h4.39v.07a7.2,7.2,0,0,0,1.81-2.92l1.36.33a11.71,11.71,0,0,1-1,2h4.73a13.46,13.46,0,0,1-1.26-2.31h-3v-1.28H178a9.51,9.51,0,0,0,1,2.13,7.66,7.66,0,0,0,1.34,1.68,4.72,4.72,0,0,0-1.17.88v3.36h-1.56v3.51a.63.63,0,0,0,.06.35C177.67,445.32,177.76,445.35,177.89,445.35Zm-6.49-5.92v1.1H167v-1.1Zm0-6v1.09h-4.3v-1.09Zm-1.15,11.33v-2.17h-2v2.17Zm3.76-6.58v2h3.81v-2Z" transform="translate(-21.22 -24.51)" style="fill:#768e91"/><path d="M185.72,438.42l-.79,1.2a10.59,10.59,0,0,0-2.87-1.54l.76-1.07A10.57,10.57,0,0,1,185.72,438.42Zm-2,8.07-1.18-.92a48.32,48.32,0,0,0,2.77-4.76l1,.93Q185.07,444.38,183.75,446.49Zm2.77-12-.82,1.17a10.28,10.28,0,0,0-2.79-1.65l.77-1.06A9.87,9.87,0,0,1,186.52,434.52Zm5.17,1.2,1.22-.6a23.64,23.64,0,0,1,1.75,2.19,17.71,17.71,0,0,1,1.3,2.1l-1.29.74c-.08-.19-.29-.6-.65-1.23l-7.83.51L186,438l1.45-.06a28.87,28.87,0,0,0,1.91-5.06l1.59.36q-1.1,2.85-2,4.63l2.27-.11,2-.11A23.92,23.92,0,0,0,191.69,435.72Zm-4.43,11v-6.07h7.33v6h-1.4v-.59H188.6v.63Zm5.93-4.79H188.6v2.88h4.59Z" transform="translate(-21.22 -24.51)" style="fill:#768e91"/><path d="M202.58,442.31l.24,1.32c-1.63.57-3.2,1.1-4.74,1.6l-.32-1.44c.58-.15,1.22-.34,1.92-.55v-3.81h-1.63v-1.29h1.63v-3h-1.77v-1.29h4.77v1.29H201v3h1.42v1.29H201v3.4Zm5.29,2.63h3.81v1.27H202.1v-1.27h4.35v-1.79H203.2v-1.26h3.25v-1.54h-3.12V433.6H211v6.75h-3.13v1.54h3.32v1.26h-3.32Zm-3.27-10.15v1.61h2v-1.61Zm0,2.72v1.66h2v-1.66Zm5.07-1.11v-1.61h-1.92v1.61Zm0,2.77v-1.66h-1.92v1.66Z" transform="translate(-21.22 -24.51)" style="fill:#768e91"/></g><g style="isolation:isolate"><path d="M122,471.05a.63.63,0,0,0,.57-.26,1.59,1.59,0,0,0,.16-.81,4.15,4.15,0,0,0-1.21-2.81q.51-1.37,1.05-3.36h-1.61v11.88H119.7V462.55H123l.22,0,.9.53c-.66,2-1.13,3.3-1.42,4a4.69,4.69,0,0,1,1.25,3.12c0,.92-.21,1.52-.62,1.79a3.09,3.09,0,0,1-1.8.31,2.44,2.44,0,0,0-.34-1.2A4.13,4.13,0,0,0,122,471.05Zm10.08-.19h-2.23a8.71,8.71,0,0,0,1.44,1.74,7.12,7.12,0,0,0,1.74,1.23,4.11,4.11,0,0,0-.91,1.1,9.14,9.14,0,0,1-3.15-3.48v4.23H127.6v-4.19A10.15,10.15,0,0,1,124,475a4.17,4.17,0,0,0-.94-1.1,8.32,8.32,0,0,0,2-1.28,9.24,9.24,0,0,0,1.61-1.78h-2v-5.17h3v-1.11H124v-1.19h3.58v-1.47h1.34v1.47h3.68v1.19h-3.68v1.11h3.11Zm-6.23-4.17v1.09h1.78v-1.09Zm0,2.06v1.1h1.78v-1.1Zm4.93-2.06h-1.81v1.09h1.81Zm0,3.16v-1.1h-1.81v1.1Z" transform="translate(-21.22 -24.51)" style="fill:#768e91"/><path d="M138.31,467.48l-.81,1.18a7.07,7.07,0,0,0-1.19-.82,13.59,13.59,0,0,0-1.52-.77l.75-1.06A11.16,11.16,0,0,1,138.31,467.48Zm-1.83,8-1.21-.89a41.42,41.42,0,0,0,2.64-4.81l1.07.89C138.26,472.26,137.42,473.86,136.48,475.49ZM139,463.58l-.82,1.11a9.74,9.74,0,0,0-2.65-1.65l.76-1A9.64,9.64,0,0,1,139,463.58Zm5.29,3h4.31v1.08h-9.83V466.6H143v-.85h-3.16v-1H143V464h-3.57v-1H143v-1h1.36v1h3.78v1h-3.78v.79h3.4v1h-3.4Zm3.18,2v5.64a2,2,0,0,1-.14.82.88.88,0,0,1-.49.43,8.39,8.39,0,0,1-2.34.19,5.31,5.31,0,0,0-.4-1.23c.32,0,.9,0,1.72,0,.19,0,.29-.09.29-.25V472.5h-4.69v3.18h-1.33V468.6Zm-6.05,1.09v1.73h1.66v-1.73Zm2.9,1.73h1.79v-1.73h-1.79Z" transform="translate(-21.22 -24.51)" style="fill:#768e91"/><path d="M151.05,469.76V468h1v1.76a12.79,12.79,0,0,1-.68,4.73,2.48,2.48,0,0,0-.86-.65A11.74,11.74,0,0,0,151.05,469.76Zm-.32-2.68v-1.23h5.55v1.23h-2.12v8.61h-1.22v-8.61Zm5.3-4.2v1.23h-4.89v-1.23Zm-1,10.4V468h1v5.28Zm9.35-2.3v1.33H161v3.37h-1.4v-3.37H156.4V471h3.16V469.1h-2.49v-1.3h2.49v-1.74h-2.84v-1.32h1.57a9.47,9.47,0,0,0-1-2.27l1.19-.47a8.37,8.37,0,0,1,1.15,2.56l-.41.18h2.19l-.37-.12a13.33,13.33,0,0,0,1.05-2.71l1.4.37-.37.82c-.16.35-.3.66-.43.93a7.87,7.87,0,0,1-.35.71h1.79v1.32H161v1.74h2.79v1.3H161V471Z" transform="translate(-21.22 -24.51)" style="fill:#768e91"/><path d="M168.56,469.07h4.84a3.32,3.32,0,0,1-.06.62c-.13,1.74-.27,3-.41,3.8a3.09,3.09,0,0,1-.62,1.59,2,2,0,0,1-1.33.54,17.28,17.28,0,0,1-2.33,0,3.12,3.12,0,0,0-.51-1.46c.85.07,1.61.11,2.3.11a1.08,1.08,0,0,0,.67-.17c.33-.28.59-1.52.76-3.74h-3.56l-.14.73-1.4-.23a40.62,40.62,0,0,0,.88-4.95h4.27v-2.1H167.2v-1.28h6.09v4.68h-4.42C168.84,467.45,168.74,468.07,168.56,469.07Zm8.5-7h1.4v13.58h-1.4Z" transform="translate(-21.22 -24.51)" style="fill:#768e91"/><path d="M192.5,470.88v.77h3.24v1.09H192.5v1.55a1.85,1.85,0,0,1-.14.8.82.82,0,0,1-.52.41,8.65,8.65,0,0,1-2.47.18,4,4,0,0,0-.44-1.19c.93,0,1.57,0,1.91,0s.33-.09.33-.25v-1.52h-5.23a10.51,10.51,0,0,1,1.92,1.55l-1,.86a10.27,10.27,0,0,0-2.1-1.77l.76-.64h-3.29v-1.09h8.95v-.77c-1.44,0-2.4,0-2.87,0a4.35,4.35,0,0,1-3.36-1.31c-.27.19-.67.45-1.21.79l-1,.66-.52-1.13a21.19,21.19,0,0,0,2-1.07v-1.25h-1.87v-1h3.13v2.11a3.37,3.37,0,0,0,2.87,1.19c.87,0,2.12,0,3.74,0s2.91-.06,3.88-.12a3.51,3.51,0,0,0-.38,1.1C194.59,470.84,193.58,470.87,192.5,470.88Zm-7.21-5.57-.67.89a9.31,9.31,0,0,0-2.4-1.39l.66-.79A8.73,8.73,0,0,1,185.29,465.31Zm.63-1.93-.67.92a9.31,9.31,0,0,0-2.48-1.53l.66-.79A9.28,9.28,0,0,1,185.92,463.38Zm1.17,1.43h2.73a6.39,6.39,0,0,0,.16-.63h-3.72v-1h2.15a6.13,6.13,0,0,0-.66-1.07l1.13-.26a4.57,4.57,0,0,1,.82,1.29l-.17,0h2.22a7.88,7.88,0,0,0,.84-1.3l1.27.23a12.32,12.32,0,0,1-.77,1.08h2.59v1h-4.4l-.13.32-.13.31h3.47v4.42h-7.4Zm6,1.25v-.55h-4.76v.55Zm0,1.24v-.57h-4.76v.57Zm0,1.25V468h-4.76v.58Z" transform="translate(-21.22 -24.51)" style="fill:#768e91"/><path d="M202.49,469.62l-1.62.51V474c0,.66-.18,1.09-.53,1.27a4.51,4.51,0,0,1-2,.28,3.89,3.89,0,0,0-.38-1.29l1.32,0c.17,0,.26-.09.26-.28v-3.47L198,471l-.31-1.35.54-.14.7-.19.65-.18v-3h-1.74v-1.29h1.74V462h1.28v2.9h1.58v1.29h-1.58v2.64l1.43-.42Zm5.09,2.49v2.08a10.19,10.19,0,0,0,1.24.08h2.93a3.48,3.48,0,0,0-.38,1.23h-2.58A7,7,0,0,1,206,475a3.8,3.8,0,0,1-1.79-1.87,6.32,6.32,0,0,1-1.7,2.56,4.08,4.08,0,0,0-1-.83q1.8-1.44,2.19-4.83l1.26.14a14.87,14.87,0,0,1-.28,1.58,3.47,3.47,0,0,0,1.67,2.07v-4.38h-3.59V468.3h8.66v1.14h-3.75V471h3v1.12Zm3-9.7v5h-7.17v-5Zm-1.34,2v-1h-4.55v1Zm0,1.93v-1h-4.55v1Z" transform="translate(-21.22 -24.51)" style="fill:#768e91"/><path d="M219.85,467.89h-4.14v7.8h-1.38V462.53h5.52Zm-1.31-4.25h-2.83v1h2.83Zm-2.83,3.16h2.83v-1.13h-2.83Zm7.53,6.8h-4.37v.86h-1.29v-5.37h5.66Zm-1.31-3.34h-3.06v2.18h3.06Zm4.77-7.73v11.39a2.33,2.33,0,0,1-.17,1,1.1,1.1,0,0,1-.57.53,9.38,9.38,0,0,1-2.79.25,4.22,4.22,0,0,0-.47-1.42c.42,0,1.15,0,2.21,0a.34.34,0,0,0,.36-.38v-6H221v-5.37Zm-1.43,1.09h-2.9v1.06h2.9Zm-2.9,3.2h2.9v-1.15h-2.9Z" transform="translate(-21.22 -24.51)" style="fill:#768e91"/><path d="M238.2,468l1.49.41a11.23,11.23,0,0,1-2.36,3.67,13,13,0,0,0,5.83,2.28,5.4,5.4,0,0,0-.92,1.33,13.09,13.09,0,0,1-6-2.63,16.24,16.24,0,0,1-6,2.68,5.88,5.88,0,0,0-.88-1.32,14.86,14.86,0,0,0,5.84-2.36,12,12,0,0,1-2.2-3.59l1.33-.39a9,9,0,0,0,1.95,3A8.78,8.78,0,0,0,238.2,468Zm-4.82-2.57,1.45.54a13.79,13.79,0,0,1-1.91,2,15.83,15.83,0,0,1-2.24,1.67,7.55,7.55,0,0,0-1.15-1.08,12.35,12.35,0,0,0,2.16-1.42A8.85,8.85,0,0,0,233.38,465.43Zm9.37-1.67v1.37H229.69v-1.37h5.78V461.9h1.44v1.86Zm-4.92,2.43,1.13-.85a26.66,26.66,0,0,1,2.25,1.64,12.28,12.28,0,0,1,1.73,1.61l-1.23,1a12.75,12.75,0,0,0-1.65-1.62C239.33,467.3,238.58,466.72,237.83,466.19Z" transform="translate(-21.22 -24.51)" style="fill:#768e91"/><path d="M248.57,467.48l-.82,1.18a7.07,7.07,0,0,0-1.19-.82,13.59,13.59,0,0,0-1.52-.77l.76-1.06A10.85,10.85,0,0,1,248.57,467.48Zm-.44,2.31,1.07.89c-.79,1.7-1.62,3.31-2.5,4.81l-1.2-.89A39.86,39.86,0,0,0,248.13,469.79Zm1.2-6.21-.82,1.11a10.23,10.23,0,0,0-2.65-1.65l.76-1A9.79,9.79,0,0,1,249.33,463.58Zm1.23,6.91V469h1.26v1.52a10.52,10.52,0,0,1-.07,1.32,7.37,7.37,0,0,1-.29,1.3,4.51,4.51,0,0,1-.68,1.35,5.77,5.77,0,0,1-1.2,1.16,3.64,3.64,0,0,0-1-.91,4.61,4.61,0,0,0,1.84-2.8A8.92,8.92,0,0,0,250.56,470.49Zm-1.24-6.7h3.79v-1.87h1.42v1.87h4.19v1.27h-5c-.57,1.06-1,1.75-1.14,2.05l3.53-.12c-.28-.32-.63-.67-1-1.05l1.07-.57a14.22,14.22,0,0,1,1.56,1.55,10.33,10.33,0,0,1,1.14,1.55l-1.17.66a9.05,9.05,0,0,0-.63-1l-7.49.37-.14-1.32,1.72-.05a14.08,14.08,0,0,0,1-2.09h-2.83Zm3.79,11.26v-5.93h1.23v5.93ZM257,473.8v.25a.61.61,0,0,0,0,.16c0,.06,0,.1.09.11a.35.35,0,0,0,.16,0h.34a.37.37,0,0,0,.29-.09.94.94,0,0,0,.13-.37c0-.21,0-.7,0-1.45a3.69,3.69,0,0,0,.94.52,9.19,9.19,0,0,1-.14,1.71,1.08,1.08,0,0,1-1.21.8h-.74a1.18,1.18,0,0,1-.9-.32,1,1,0,0,1-.24-.45,5.39,5.39,0,0,1-.06-1V469H257Z" transform="translate(-21.22 -24.51)" style="fill:#768e91"/></g><g style="isolation:isolate"><path d="M118.47,498.1v-.6h15v.6Z" transform="translate(-21.22 -24.51)" style="fill:#768e91"/><path d="M135.67,503.51V492.46H139c2.81,0,4.21,1.12,4.21,3.34a3.15,3.15,0,0,1-1.13,2.63,4.76,4.76,0,0,1-3,.89h-1.67v4.19Zm1.74-5.58h1.51a3.11,3.11,0,0,0,2-.52,1.94,1.94,0,0,0,.64-1.61,1.65,1.65,0,0,0-.66-1.49,3.71,3.71,0,0,0-2-.44h-1.44Z" transform="translate(-21.22 -24.51)" style="fill:#768e91"/><path d="M147.92,503.7a2.44,2.44,0,0,1-1.75-.65,2.29,2.29,0,0,1-.68-1.74,2.26,2.26,0,0,1,1.18-2,9.85,9.85,0,0,1,3.75-1q0-1.8-1.56-1.8a4.44,4.44,0,0,0-2.39.84l-.65-1.18a6.23,6.23,0,0,1,3.33-1.08,2.74,2.74,0,0,1,2.26.91,4,4,0,0,1,.74,2.59v5h-1.4l-.17-.95h0A4,4,0,0,1,147.92,503.7Zm.53-1.36a3,3,0,0,0,2-1v-2a6.4,6.4,0,0,0-2.52.66,1.36,1.36,0,0,0-.74,1.18,1,1,0,0,0,.35.86A1.45,1.45,0,0,0,148.45,502.34Z" transform="translate(-21.22 -24.51)" style="fill:#768e91"/><path d="M155.33,503.51v-8.25h1.41l.15,1.48h0a3.67,3.67,0,0,1,1.06-1.25,2.12,2.12,0,0,1,1.27-.45,2.19,2.19,0,0,1,.94.19l-.32,1.5a2.78,2.78,0,0,0-.83-.14A1.73,1.73,0,0,0,158,497a3,3,0,0,0-.91,1.34v5.14Z" transform="translate(-21.22 -24.51)" style="fill:#768e91"/><path d="M165,503.7c-1.67,0-2.5-1-2.5-2.89v-4.17h-1.21v-1.29l1.28-.09.19-2.28h1.45v2.28h2.15v1.38H164.2v4.19c0,1,.4,1.49,1.2,1.49a2.16,2.16,0,0,0,.89-.19l.31,1.28A5.67,5.67,0,0,1,165,503.7Z" transform="translate(-21.22 -24.51)" style="fill:#768e91"/><path d="M168.25,503.51v-1a27.08,27.08,0,0,0,3.72-3.87,5.17,5.17,0,0,0,1.21-3,2.18,2.18,0,0,0-.48-1.48,1.78,1.78,0,0,0-1.39-.55,3,3,0,0,0-2.19,1.24l-1-1a6,6,0,0,1,1.54-1.23,3.81,3.81,0,0,1,1.81-.42,3.28,3.28,0,0,1,2.43.91,3.21,3.21,0,0,1,.91,2.4,5.75,5.75,0,0,1-1,3.11,20.41,20.41,0,0,1-3,3.47,17.3,17.3,0,0,1,1.8-.11h2.75v1.47Z" transform="translate(-21.22 -24.51)" style="fill:#768e91"/><path d="M176.88,498.1v-.6h15v.6Z" transform="translate(-21.22 -24.51)" style="fill:#768e91"/></g><g style="isolation:isolate"><path d="M124.23,532.7a4.56,4.56,0,0,1-3.53-1.53,6,6,0,0,1-1.38-4.16,6,6,0,0,1,1.41-4.19,4.62,4.62,0,0,1,3.57-1.56,4.07,4.07,0,0,1,3.13,1.39l-.93,1.11a3,3,0,0,0-2.17-1A2.84,2.84,0,0,0,122,523.9a4.86,4.86,0,0,0-.88,3.06,5,5,0,0,0,.85,3.09,2.76,2.76,0,0,0,2.33,1.14,3.23,3.23,0,0,0,2.44-1.17l.94,1.1A4.37,4.37,0,0,1,124.23,532.7Z" transform="translate(-21.22 -24.51)" style="fill:#768e91"/><path d="M133.5,532.7a5.28,5.28,0,0,1-3.92-1.61l1-1.2a4.09,4.09,0,0,0,2.93,1.3,2.43,2.43,0,0,0,1.54-.43,1.38,1.38,0,0,0,.56-1.14,1.64,1.64,0,0,0-.11-.62,1.32,1.32,0,0,0-.42-.48,5.4,5.4,0,0,0-.51-.32c-.13-.07-.38-.18-.74-.34l-1.53-.65a3.12,3.12,0,0,1-2.25-2.91,2.74,2.74,0,0,1,1-2.17,3.89,3.89,0,0,1,2.6-.87,4.71,4.71,0,0,1,3.34,1.39l-.91,1.11a3.58,3.58,0,0,0-2.43-1,2.24,2.24,0,0,0-1.36.38,1.27,1.27,0,0,0-.5,1.05,1.22,1.22,0,0,0,.13.59,1.25,1.25,0,0,0,.45.47,3.83,3.83,0,0,0,.52.31c.13.07.36.16.68.29l1.51.64a4.38,4.38,0,0,1,1.67,1.16,2.74,2.74,0,0,1,.59,1.83,3,3,0,0,1-1.06,2.29A4.22,4.22,0,0,1,133.5,532.7Z" transform="translate(-21.22 -24.51)" style="fill:#768e91"/><path d="M148.21,532.51h-2l-2.51-4.46H142v4.46h-1.75v-11h3.62q4,0,4,3.2a3,3,0,0,1-2.3,3.17ZM142,522.87v3.79h1.67c1.65,0,2.47-.67,2.47-2a1.52,1.52,0,0,0-.61-1.38,3.37,3.37,0,0,0-1.86-.41Z" transform="translate(-21.22 -24.51)" style="fill:#768e91"/><path d="M154.74,532.51v-1.42h2.41V523.4h-2v-1.09a7,7,0,0,0,2.4-.85h1.3v9.63H161v1.42Z" transform="translate(-21.22 -24.51)" style="fill:#768e91"/><path d="M167,532.7a3,3,0,0,1-2.62-1.47,8,8,0,0,1-.95-4.29,7.79,7.79,0,0,1,.95-4.24,3.1,3.1,0,0,1,5.24,0,7.68,7.68,0,0,1,1,4.23,7.9,7.9,0,0,1-1,4.29A3,3,0,0,1,167,532.7Zm0-1.36q1.92,0,1.92-4.4T167,522.62q-1.9,0-1.91,4.32T167,531.34Z" transform="translate(-21.22 -24.51)" style="fill:#768e91"/><path d="M176.3,532.7a3,3,0,0,1-2.62-1.47,8,8,0,0,1-1-4.29,7.79,7.79,0,0,1,1-4.24,3.1,3.1,0,0,1,5.24,0,7.68,7.68,0,0,1,1,4.23,7.9,7.9,0,0,1-1,4.29A3,3,0,0,1,176.3,532.7Zm0-1.36q1.92,0,1.92-4.4t-1.92-4.32q-1.91,0-1.91,4.32T176.3,531.34Z" transform="translate(-21.22 -24.51)" style="fill:#768e91"/><path d="M192.09,519.87h1.42a16.87,16.87,0,0,0,2.93,3.27,16,16,0,0,0,3.56,2.37,5.83,5.83,0,0,0-.93,1.24,21.67,21.67,0,0,1-3.5-2.53,17.06,17.06,0,0,1-2.71-3,15.45,15.45,0,0,1-2.57,3,20.41,20.41,0,0,1-3.49,2.6,5.05,5.05,0,0,0-.88-1.13,17,17,0,0,0,3.6-2.65A14.22,14.22,0,0,0,192.09,519.87Zm1.67,8.74V532h5.52v1.26H186.62V532h1.78v-5.38h1.36V532h2.53v-8h1.47v3.37h4.16v1.26Z" transform="translate(-21.22 -24.51)" style="fill:#768e91"/><path d="M215.26,530.21h-4.7a12,12,0,0,0,2.35,1.24,15.44,15.44,0,0,0,2.73.81,4.65,4.65,0,0,0-.92,1.24,15,15,0,0,1-2.92-1.14,11,11,0,0,1-2.45-1.68v3H208v-2.91a11.85,11.85,0,0,1-2.46,1.59,16.08,16.08,0,0,1-2.87,1.12,4.55,4.55,0,0,0-.91-1.19,15.52,15.52,0,0,0,2.72-.85,12.19,12.19,0,0,0,2.34-1.24h-4.63V529H208v-.91h-4.42v-1.06H208v-.89h-5.15v-1.11h3.07a6.31,6.31,0,0,0-.63-1.37l.35-.05h-3.39v-1.18h2.21a9.76,9.76,0,0,0-1.1-2l1.22-.41a8.83,8.83,0,0,1,1.2,2.14l-.76.29h1.65v-2.56H208v2.56h1.48v-2.56h1.32v2.56h1.63l-.57-.17a10.58,10.58,0,0,0,1.05-2.23l1.44.37c-.5.89-.92,1.56-1.25,2h2.16v1.18h-2.89l-.48.8c-.21.34-.33.55-.37.62h3.19v1.11h-5.31v.89H214v1.06h-4.6V529h5.91Zm-4.52-6.56h-4a5.45,5.45,0,0,1,.64,1.33l-.44.09h3.17A15,15,0,0,0,210.74,523.65Z" transform="translate(-21.22 -24.51)" style="fill:#768e91"/><path d="M221.13,523.88l.83.32a19.14,19.14,0,0,1-1.33,4.94,10,10,0,0,1-2.23,3.35,6.34,6.34,0,0,0-.49-.58,2.81,2.81,0,0,0-.53-.47,8.36,8.36,0,0,0,1.86-2.57,14.38,14.38,0,0,0,1.2-3.67h-2.6v-1.26h3Zm3.94,4.56v1.28H228v1.16h-2.93v1.22a2,2,0,0,1-.17.92,1,1,0,0,1-.58.47,9.56,9.56,0,0,1-2.71.23,5.23,5.23,0,0,0-.5-1.33l1.36,0h.84c.24,0,.36-.13.36-.35v-1.19h-2.82v-1.16h2.82v-1.28h-2v-1.12h2v-1.21H222V525h1.69v-1.72h.88a12.28,12.28,0,0,0,1.94-1.24h-6.76v-1.27h8.21l.31-.07.95.7a14.91,14.91,0,0,1-4.13,2.92V525h1.86v1.15h-1.86v1.21h2.12v1.12Zm5.08-4.62,1.13.87c-1,1.18-1.8,2-2.33,2.53a8.35,8.35,0,0,0,2.53,4.1,3.51,3.51,0,0,0-1,1.2q-2.64-2.34-3.59-8.8l1.24-.21c.1.71.25,1.49.46,2.36A17.61,17.61,0,0,0,230.15,523.82Z" transform="translate(-21.22 -24.51)" style="fill:#768e91"/><path d="M238.6,522.4v1.11h-5.31V522.4Zm8.49,4.06h-4.71a12.33,12.33,0,0,1-.88,1.86h5v5.33h-1.35v-.59h-3.26v.63h-1.31v-4a9,9,0,0,1-1.42,1.41,5.18,5.18,0,0,0-.89-1v2.71H235.1v.63h-1.17v-5h4.31v1.59a8.29,8.29,0,0,0,2.71-3.59h-2.36V525.2h2.81a11.55,11.55,0,0,0,.32-1.29h-1.34v-1.38h-1.61v-1.2h1.61v-1.41h1.34v1.41H244v-1.41h1.35v1.41H247v1.2h-1.56v1.38H244v-1.38h-2.32v1.36l.08-.29,1.33.22c-.09.41-.2.87-.35,1.38h4.31Zm-8.87-2v1.08H234v-1.08ZM234,527.53v-1.1h4.27v1.1Zm4.23-7.11v1.09H234v-1.09Zm-1.13,11.33v-2.17h-2v2.17Zm8.07-2.23h-3.26v2.33h3.26Z" transform="translate(-21.22 -24.51)" style="fill:#768e91"/><path d="M262.66,522.62h-1a7.73,7.73,0,0,1-1.44,2.77,7.39,7.39,0,0,0,2.67,1.38,3.27,3.27,0,0,0-.78,1.09,8.2,8.2,0,0,1-2.74-1.62,9.25,9.25,0,0,1-2.9,1.57,3.3,3.3,0,0,0-.79-1,7.84,7.84,0,0,0,2.86-1.44,8.12,8.12,0,0,1-1.1-1.7,5.48,5.48,0,0,1-.81.9,5.64,5.64,0,0,0-.76-.82v1.46h-2.22c.89.43,1.66.82,2.3,1.16l-.69.91c-.49-.36-1.13-.77-1.91-1.23v1.68h-1.23v-1.67a9,9,0,0,1-2.28,1.7,4,4,0,0,0-.81-.86,8.17,8.17,0,0,0,2.58-1.69h-1.9v-2.78h2.41v-.66h-2.81v-1h2.81v-.87h1.23v.87h2.82v1h-2.82v.66h2.52v1a7.3,7.3,0,0,0,2-3.55l1.28.3c-.09.3-.25.74-.48,1.3h4Zm-6.06,8.61v1h6.12v1.14H249.2v-1.14h2.34v-2.43h1.32v2.43h2.37v-3h-5.08v-1.12h11.6v1.12H256.6v.95h4.11v1.05Zm-5.76-8v1.05h1.3v-1.05Zm3.9,1.05v-1.05h-1.37v1.05Zm3.42-1.71h0a6.88,6.88,0,0,0,1.2,1.91,5.33,5.33,0,0,0,1-1.92Z" transform="translate(-21.22 -24.51)" style="fill:#768e91"/><path d="M271.23,526.82h-.92v5.63c0,.55-.15.89-.45,1a4,4,0,0,1-1.57.19,3.6,3.6,0,0,0-.37-1.07h1c.12,0,.18-.06.18-.19V531.1h-2v2.59H266v-6.87h-.89V524.6h.86v-4.18h4.41v4.18h.88Zm-1.07-.44v-.82h-4v.82ZM267,521.45v3.15h.67v-2.35h1.63v-.8Zm2.14,6.81v-.88h-2v.88Zm-2,1.86h2v-.91h-2Zm1.3-5.52h.82v-1.51h-.82Zm8,7.83h2.18v1H271v-1h2.12a6.6,6.6,0,0,0-.57-1.37l.9-.32h-1.53v-2.82h5.93v2.82h-1.61l1,.26C277.12,531.16,276.86,531.63,276.42,532.43Zm2.06-6.1v1h-7.22v-1Zm-.42-5.1v4.47h-6.42v-4.47h1.73v-1.31h1v1.31h.89v-1.31h1v1.31Zm-5.35.92V523h.84v-.87Zm0,1.74v.88h.84v-.88Zm.32,4.9v1.08h3.59v-1.08Zm3,2h-2.5a5.22,5.22,0,0,1,.69,1.68h1.15A9.48,9.48,0,0,0,276,530.74ZM274.37,523h.89v-.87h-.89Zm.89.87h-.89v.88h.89ZM277,523v-.87h-.89V523Zm0,1.75v-.88h-.89v.88Z" transform="translate(-21.22 -24.51)" style="fill:#768e91"/><path d="M294.32,523.94h-.82a19.28,19.28,0,0,1-1.58,5.92,6.59,6.59,0,0,0,2.49,2.75,3.6,3.6,0,0,0-.94,1.1,7.67,7.67,0,0,1-2.33-2.52,9.08,9.08,0,0,1-2.68,2.55,3.89,3.89,0,0,0-.76-1.1l-.83.85a17.05,17.05,0,0,0-1.65-1,10.65,10.65,0,0,1-3.79,1.23,2.44,2.44,0,0,0-.5-1.09,9.33,9.33,0,0,0,3.08-.73l-.53-.22-.67-.28-.21.33-1.14-.31c.45-.7.75-1.19.89-1.47l-1.74,0,0-1.07h2.37c.13-.24.26-.49.39-.78H281.2v-2.6h2.72V525h-2.37v-1.6h-1v-1h1v-1.58h2.37v-.84h1.2v.84h2.54v1.58h1v1h-1V525h-2.54v.59H288v.61a19.13,19.13,0,0,0,1.73-6.24l1.33.21a23.71,23.71,0,0,1-.46,2.53h3.73Zm-11.95,2.49v.82h1.55v-.82Zm1.55-4.75h-1.23v.72h1.23ZM282.69,524h1.23v-.73h-1.23Zm1,6-.35.58,1.74.69a3.67,3.67,0,0,0,.9-1.31Zm5-.1-1.5,0a4.24,4.24,0,0,1-1,1.86,13.62,13.62,0,0,1,1.51.83,7.32,7.32,0,0,0,2.78-2.74,19.58,19.58,0,0,1-1.06-3.5,10.73,10.73,0,0,1-.71,1.32,6.78,6.78,0,0,0-.71-.72v1.2h-3.32c-.15.29-.29.54-.41.76l4.48,0Zm-2.27-8.18h-1.31v.72h1.31ZM285.12,524h1.31v-.73h-1.31Zm1.66,2.42h-1.66v.82h1.66Zm5.4-2.49h-1.9l-.06.16a21.24,21.24,0,0,0,1,4.15A18.13,18.13,0,0,0,292.18,523.94Z" transform="translate(-21.22 -24.51)" style="fill:#768e91"/><path d="M300.81,527.45l-1.51.49v4.23a2,2,0,0,1-.11.74,1.37,1.37,0,0,1-.26.45,1,1,0,0,1-.53.23,4.49,4.49,0,0,1-.66.09h-.9a4.18,4.18,0,0,0-.38-1.27,11.71,11.71,0,0,0,1.32,0c.19,0,.28-.08.28-.26v-3.85l-1.61.5-.32-1.34,1.93-.54v-2.81h-1.7v-1.29h1.7v-2.92h1.24v2.92h1.29v1.29H299.3v2.46l.66-.21.66-.2Zm1.45-3.92v3.29c0,3.13-.53,5.41-1.59,6.86a3.48,3.48,0,0,0-1-.7q1.41-2,1.41-6.17V522.5h3.31V520h1.35v.82h3.47v1h-3.47v.73h3.16l.19,0,.88.18a18.88,18.88,0,0,1-.73,2.23l-1.06-.24a7.14,7.14,0,0,0,.34-1.11h-3v.72l2.21-.22.09.82-2.3.2v.22c0,.16,0,.26.11.3a1.08,1.08,0,0,0,.51.07h1.84a.49.49,0,0,0,.38-.11,1.07,1.07,0,0,0,.11-.55,3.47,3.47,0,0,0,1,.31,1.31,1.31,0,0,1-.35.92,1.47,1.47,0,0,1-1,.25h-2.12a2.46,2.46,0,0,1-1.32-.24,1.12,1.12,0,0,1-.32-1v-.1l-1.67.16-.1-.82,1.77-.16v-.82Zm6.8,4.76.79.61a12.09,12.09,0,0,1-1.67,1.23,5,5,0,0,0,2.07,2,3.46,3.46,0,0,0-.76,1q-2.3-1.32-3.12-5.14a8.1,8.1,0,0,1-1,.69,4,4,0,0,1,1.31,1.69,3.47,3.47,0,0,1,.28,1.78,1.83,1.83,0,0,1-.53,1.17,1.67,1.67,0,0,1-1.13.44c-.34,0-.6,0-.79,0a1.9,1.9,0,0,0-.28-1,7.16,7.16,0,0,0,.87,0,.74.74,0,0,0,.57-.2,1.54,1.54,0,0,0,.22-1.34,13.61,13.61,0,0,1-3.49,2,3.75,3.75,0,0,0-.54-.78,12.12,12.12,0,0,0,2.06-.88,8.6,8.6,0,0,0,1.7-1.17c-.09-.16-.18-.32-.28-.47a10.48,10.48,0,0,1-2.57,1.41,3,3,0,0,0-.5-.7,7.53,7.53,0,0,0,2.64-1.25l-.39-.31a13.45,13.45,0,0,1-1.68.65,2.43,2.43,0,0,0-.41-.72,9.77,9.77,0,0,0,2.72-1.13h-2.54v-.95h7.28v.95h-2.61a7.69,7.69,0,0,0,.5,1.45A13.86,13.86,0,0,0,309.06,528.29Z" transform="translate(-21.22 -24.51)" style="fill:#768e91"/><path d="M324.27,529h1.49v1.29H312.14V529h1.49l-.27-8.08.83.24a15.66,15.66,0,0,0,1.9-1.12l1.07,1q-.92.48-2.52,1.14l.05,1.35h1.89v1.15h-1.85l0,1.59h1.8v1.17h-1.77l.05,1.55h2.36V525.7h1.15V529h1.17V525.1h-2.3v-5h1.21v1.44h2.46v1.15h-2.46V524h2.29v5H323c0-.1,0-.32.05-.68s0-.64.05-.86h-1.68V526.3h1.73c0-.18,0-.44,0-.79s0-.61,0-.8H321.4v-1.15h1.77c0-.69,0-1.19,0-1.53h-2v-1.2h3.25C324.45,524.33,324.39,527.06,324.27,529Zm-7.9,1.36,1.28.87a24.12,24.12,0,0,1-4.34,2.46,8,8,0,0,0-1.08-1,20.66,20.66,0,0,0,2.29-1.11A10.87,10.87,0,0,0,316.37,530.38Zm3.78.9,1-.93a40.48,40.48,0,0,1,4.51,2.41l-1.33,1A28.32,28.32,0,0,0,320.15,531.28Z" transform="translate(-21.22 -24.51)" style="fill:#768e91"/><path d="M333.18,528.64l.19,1.25-3.09.9-2.29.66-.33-1.33,2.24-.57v-3.36h-1.81v-1.28h1.81V522H328v-1.29h5.14V522h-1.83v2.93h1.68v1.28h-1.68v3Zm6.09,3.75h.92c.16,0,.26-.1.31-.3a9.28,9.28,0,0,0,.1-1.44,2.88,2.88,0,0,0,1.18.52,5,5,0,0,1-.38,1.92,1.1,1.1,0,0,1-1,.5h-1.31a1.55,1.55,0,0,1-1.18-.34,2,2,0,0,1-.3-1.3v-3.16h-1.23a8.7,8.7,0,0,1-.32,1.67,5.12,5.12,0,0,1-.67,1.37,4,4,0,0,1-1.21,1.13,7.4,7.4,0,0,1-1.87.82,3.27,3.27,0,0,0-.34-.61,2.28,2.28,0,0,0-.44-.53,7.63,7.63,0,0,0,1.64-.62,3,3,0,0,0,1-.87,4.19,4.19,0,0,0,.54-1,6.06,6.06,0,0,0,.26-1.31h-1.23v-8.25h7.14v8.25h-2v3.15a.77.77,0,0,0,0,.38S339.11,532.39,339.27,532.39Zm-4.22-10.69v1.24h4.44V521.7Zm0,2.31v1.26h4.44V524Zm0,2.35v1.26h4.44v-1.26Z" transform="translate(-21.22 -24.51)" style="fill:#768e91"/><path d="M347.23,525.46l-.76,1.19a8.55,8.55,0,0,0-1.31-.8,14,14,0,0,0-1.64-.71l.73-1.06A10.69,10.69,0,0,1,347.23,525.46Zm-.1,2.24,1,.87q-1.59,3-2.86,4.95l-1.17-.88A42.83,42.83,0,0,0,347.13,527.7Zm.86-6.27-.81,1.15a9.22,9.22,0,0,0-2.72-1.54l.78-1A9.12,9.12,0,0,1,348,521.43Zm6.78,10.89h1c.17,0,.28-.13.33-.4a12.28,12.28,0,0,0,.11-1.8,3.42,3.42,0,0,0,1.25.54A6.5,6.5,0,0,1,357,533a1.16,1.16,0,0,1-1.12.59h-1.33a1.54,1.54,0,0,1-1.23-.38,2.22,2.22,0,0,1-.31-1.39v-5h-1.46c0,.75-.1,1.39-.16,1.92a8.84,8.84,0,0,1-.34,1.62,4.9,4.9,0,0,1-.63,1.4,4.75,4.75,0,0,1-1,1.1,6.21,6.21,0,0,1-1.52.89,2.84,2.84,0,0,0-.35-.6,2.31,2.31,0,0,0-.47-.53,5.41,5.41,0,0,0,1.33-.73,4.34,4.34,0,0,0,.88-.89,3.89,3.89,0,0,0,.52-1.18,10.3,10.3,0,0,0,.26-1.35q.07-.66.12-1.65h-1.45v-6.2h7.81v6.2h-2.13v5a.89.89,0,0,0,.07.46C354.5,532.29,354.61,532.32,354.77,532.32Zm-4.71-10.45v3.61h5v-3.61Z" transform="translate(-21.22 -24.51)" style="fill:#768e91"/><path d="M362.25,535.5a14.34,14.34,0,0,1,0-15.36l1.07.47a14.66,14.66,0,0,0,0,14.4Z" transform="translate(-21.22 -24.51)" style="fill:#768e91"/><path d="M369.5,521l1.08-.52a10.85,10.85,0,0,1,2.07,2.6l-1.17.56c-.06-.12-.18-.32-.35-.61-1.76.08-3.6.17-5.53.24l-.08-1.14,1.15,0a12,12,0,0,0,1-2.19l1.4.35c-.63,1.06-1,1.66-1.09,1.8l2.35-.07C370.18,521.74,369.89,521.41,369.5,521Zm-2.65,12.73-1.29-.57a3.88,3.88,0,0,0,.95-1.07,6.76,6.76,0,0,0,.7-1.43l1.34.33A6.39,6.39,0,0,1,366.85,533.72Zm4.86-9.85v5.06a1.62,1.62,0,0,1-.12.71.73.73,0,0,1-.45.35,7.21,7.21,0,0,1-2,.17,4.35,4.35,0,0,0-.36-1h1.45a.21.21,0,0,0,.22-.23v-.76h-2.68v2.06h-1.25v-6.35Zm-1.3,1h-2.68v.81h2.68Zm-2.68,2.48h2.68v-.84h-2.68Zm2.11,3.82,1.29-.1a12.62,12.62,0,0,1,.3,2.4l-1.37.16A12.32,12.32,0,0,0,369.84,531.13Zm3,0,1.3-.26a11.88,11.88,0,0,1,.81,2.37l-1.36.33A13.19,13.19,0,0,0,372.84,531.17Zm4.39-6.22h-2.32a2.48,2.48,0,0,1-1.53-.33,1.68,1.68,0,0,1-.38-1.28V520h1.33v1.56a15.94,15.94,0,0,0,2.92-1l.89.93a21.31,21.31,0,0,1-3.81,1.1v.76a.48.48,0,0,0,.14.41,1.17,1.17,0,0,0,.58.09h2.05a.51.51,0,0,0,.5-.23,3.19,3.19,0,0,0,.16-1.05,2.41,2.41,0,0,0,1.16.47,2.72,2.72,0,0,1-.46,1.53A1.59,1.59,0,0,1,377.23,525Zm.08,5.29h-2.39a2.49,2.49,0,0,1-1.53-.34,1.68,1.68,0,0,1-.39-1.3v-3.46h1.33v1.57a14,14,0,0,0,3-1.07l.89.92a18.44,18.44,0,0,1-3.9,1.19v.85a.48.48,0,0,0,.14.41,1.39,1.39,0,0,0,.61.08h2.11a.5.5,0,0,0,.5-.23,3,3,0,0,0,.14-1.07,3.47,3.47,0,0,0,1.21.48,2.84,2.84,0,0,1-.48,1.56A1.62,1.62,0,0,1,377.31,530.24Zm-1.45.89,1.29-.47A12.49,12.49,0,0,1,379,533.2l-1.39.51A11.25,11.25,0,0,0,375.86,531.13Z" transform="translate(-21.22 -24.51)" style="fill:#768e91"/><path d="M393.2,524v.3s0,.06,0,.08l0,.06a.43.43,0,0,0,0,.05l0,0,0,0,.06,0h.33a.34.34,0,0,0,.26-.08.53.53,0,0,0,.11-.28c0-.15,0-.53.06-1.15a2.83,2.83,0,0,0,.95.53,6.34,6.34,0,0,1-.15,1.42,1.07,1.07,0,0,1-1.14.65h-.67a1.26,1.26,0,0,1-.87-.28,2.3,2.3,0,0,1-.31-1.41v-2.22h-1.8v.86a4.44,4.44,0,0,1-1.59,3.81,2.89,2.89,0,0,0-.44-.46,5.22,5.22,0,0,0-.53-.42l.2-.15h-2.54c-.18.21-.38.42-.59.63a6,6,0,0,1,.94,1.37,12.55,12.55,0,0,0,1.18-1.5l1.06.66c-.67.7-1.2,1.23-1.6,1.58a13.41,13.41,0,0,1,2.35,2l-.84.93a9.78,9.78,0,0,0-1.48-1.43,7,7,0,0,1,0,2.09,2.58,2.58,0,0,1-.55,1.37,1.76,1.76,0,0,1-1.44.61,10,10,0,0,1-1,0,2.33,2.33,0,0,0-.28-1.17l.37,0,.4,0H384a.82.82,0,0,0,.72-.34,2.77,2.77,0,0,0,.36-1.93,14.26,14.26,0,0,1-3.42,2.36,4.37,4.37,0,0,0-.69-1,10.64,10.64,0,0,0,2.16-1.12,8.06,8.06,0,0,0,1.78-1.51,4.9,4.9,0,0,0-.25-.79,11.87,11.87,0,0,1-2.86,2,2.88,2.88,0,0,0-.64-.9,9,9,0,0,0,1.65-.85,7.72,7.72,0,0,0,1.41-1.12,5.3,5.3,0,0,0-.43-.57,10,10,0,0,1-1.91,1.19A5.48,5.48,0,0,0,381,527a8.75,8.75,0,0,0,2.71-1.66h-2.46v-1.18h1.59a7.55,7.55,0,0,0-.48-1.66l.69-.14h-1.6V521.2H384V520h1.3v1.2h2.61v1.19h-1.38l.59.11c-.13.3-.4.86-.82,1.69H388v.93a3.45,3.45,0,0,0,.87-2.54V520.5h4.3Zm-7.35-1.59h-2.33a5.32,5.32,0,0,1,.51,1.67l-.46.13h2.13l-.39-.13C385.56,523.35,385.74,522.8,385.85,522.39Zm7.62,4,.85.32a9.81,9.81,0,0,1-2.17,4.28,8.15,8.15,0,0,0,2.87,1.52,3.84,3.84,0,0,0-.86,1.19,8.42,8.42,0,0,1-3-1.79,10.67,10.67,0,0,1-3.23,1.77,4.54,4.54,0,0,0-.77-1.17,8.71,8.71,0,0,0,3.09-1.59,11.28,11.28,0,0,1-1.58-2.93l1.14-.31h-1.68v-1.23h5.07Zm-.84,1.29h-2.74a8.88,8.88,0,0,0,1.32,2.34A7.59,7.59,0,0,0,392.63,527.69Z" transform="translate(-21.22 -24.51)" style="fill:#768e91"/><path d="M405.73,527.63l-.77.92q-.22-.42-.84-1.32v6.46h-1.23V528a12.08,12.08,0,0,1-1.27,2.83l-.59-.66v.94H398.5v1.18h-1.12V521H401v8.38a16.51,16.51,0,0,0,1.82-5h-1.59v-1.18h1.63V520h1.23v3.17h1.42v1.18h-1.42v1.42C404.65,526.33,405.18,527,405.73,527.63Zm-5.84-5.38H398.5v3.14h1.39Zm-1.39,7.61h1.39v-3.27H398.5Zm12.14-5v1.2h-1.19v7.6h-1.21v-7.6h-1.19v.41q0,4.86-1.6,7.16a2.78,2.78,0,0,0-.95-.88,6.94,6.94,0,0,0,1.08-2.8,22.06,22.06,0,0,0,.25-3.5V521.3l.6.18a12.9,12.9,0,0,0,2.9-1.48l1.18.94a18.83,18.83,0,0,1-3.46,1.49v2.45Z" transform="translate(-21.22 -24.51)" style="fill:#768e91"/><path d="M413.78,535.5l-1.09-.49a14.66,14.66,0,0,0,0-14.4l1.09-.47a14.39,14.39,0,0,1,0,15.36Z" transform="translate(-21.22 -24.51)" style="fill:#768e91"/></g><g style="isolation:isolate"><path d="M125,549.33h1.58s0,.14,0,.31,0,.32,0,.43c0,.37.06.74.11,1.13s.13.89.26,1.53a16.29,16.29,0,0,0,.48,1.83,13.43,13.43,0,0,0,.79,1.91,12.3,12.3,0,0,0,1.15,1.9,10.88,10.88,0,0,0,1.61,1.67,9.44,9.44,0,0,0,2.11,1.34,4.26,4.26,0,0,0-1,1.17q-4.5-2.19-6.08-8.09a12.24,12.24,0,0,1-5.77,8.1,4,4,0,0,0-1.16-1.1,10.28,10.28,0,0,0,1.88-1.26,9.11,9.11,0,0,0,1.43-1.5,14.29,14.29,0,0,0,1-1.62,8.54,8.54,0,0,0,.73-1.71c.18-.59.33-1.14.46-1.65a10.09,10.09,0,0,0,.27-1.57c0-.53.1-1,.13-1.33s0-.71,0-1.07C125,549.55,125,549.41,125,549.33Z" transform="translate(-21.22 -24.51)" style="fill:#768e91"/><path d="M139.32,552.1l.13,1c-.61.17-2,.56-4.18,1.14l-.44-1.13C135.65,553,137.14,552.64,139.32,552.1Zm.06,8.19,1.27.59a18.78,18.78,0,0,1-4.58,1.86,7.38,7.38,0,0,0-1.06-1A14.71,14.71,0,0,0,139.38,560.29Zm-.09-10.3v1.07h-3.91V550Zm3.66,1h-1.36a7.9,7.9,0,0,1-1.28,1.24,2.94,2.94,0,0,0-1.05-.67,6.15,6.15,0,0,0,2.23-2.63l1.26.2c-.16.32-.32.61-.47.86h4.82l.2-.06.92.25a8.47,8.47,0,0,1-1.45,2.17l-1.1-.34a5.63,5.63,0,0,0,.77-1h-2.08a2.86,2.86,0,0,0,1.2,1.55,7.23,7.23,0,0,0,3,.89,3,3,0,0,0-.71,1.14c-.22,0-.61-.12-1.16-.26v6h-9.78v-6h3a2.93,2.93,0,0,0-.62-.91,6.56,6.56,0,0,0,2.54-.84A2.63,2.63,0,0,0,143,551Zm2.37,5v-.84h-7V556Zm0,1.7v-.87h-7v.87Zm0,1.72v-.88h-7v.88Zm-4.93-5.15h6.09a4.64,4.64,0,0,1-2.75-2A5.13,5.13,0,0,1,140.39,554.23ZM142.8,561l1.15-.7a44.42,44.42,0,0,1,4.48,1.74l-1.61.66A27.7,27.7,0,0,0,142.8,561Z" transform="translate(-21.22 -24.51)" style="fill:#768e91"/><path d="M164.24,558.31v1.13h-3.47v1.85a1.85,1.85,0,0,1-.14.8.84.84,0,0,1-.54.41,9.84,9.84,0,0,1-2.46.18,3.92,3.92,0,0,0-.42-1.2c.91,0,1.55,0,1.9,0a.43.43,0,0,0,.23-.06.25.25,0,0,0,.06-.19v-1.8h-5a10.5,10.5,0,0,1,2,1.63l-1,.91a10.73,10.73,0,0,0-2.36-2l.67-.59h-3v-1.13h8.68v-.76q-4.72.12-8,.16l0-1.05,5.45,0v-.7H152.3v-4.16h4.47v-.71h-5.63V550h5.63v-1h1.36v1h5.54v1.07h-5.54v.71h4.61v4.16h-1.39a12.54,12.54,0,0,1,2.33,1.34l-.82.75a8.5,8.5,0,0,0-.79-.54l-1.3,0v.8Zm-10.62-5.64v.75h3.15v-.75Zm0,2.39h3.15v-.79h-3.15Zm7.76-2.39h-3.25v.75h3.25Zm0,2.39v-.79h-3.25v.79Zm-3.25.87v.7l2.42,0a8.86,8.86,0,0,0-.93-.38l.35-.29Z" transform="translate(-21.22 -24.51)" style="fill:#768e91"/><path d="M178.29,554.24l1.1.94a22.59,22.59,0,0,1-2.93,2,7.53,7.53,0,0,0,3.62,3.22,4,4,0,0,0-1,1.22q-3.79-1.83-5.27-7.65h0a8.2,8.2,0,0,1-1.38,1,6.63,6.63,0,0,1,1.6,2,6,6,0,0,1,.68,2.16,4.7,4.7,0,0,1-.16,1.86,2.33,2.33,0,0,1-.8,1.25,2.59,2.59,0,0,1-1.68.55c-.39,0-.82,0-1.29,0a3,3,0,0,0-.4-1.33,12.8,12.8,0,0,0,1.41.07,1.34,1.34,0,0,0,1-.31,1.4,1.4,0,0,0,.49-.88,3.64,3.64,0,0,0,0-1.4,19.57,19.57,0,0,1-2.86,1.81,20.64,20.64,0,0,1-3.12,1.37,5.24,5.24,0,0,0-.73-1.16,18.17,18.17,0,0,0,3.45-1.33,13.05,13.05,0,0,0,2.88-1.89,6.71,6.71,0,0,0-.4-.77,20.48,20.48,0,0,1-4.7,2.38,3.86,3.86,0,0,0-.7-1.07,19.17,19.17,0,0,0,2.55-.93,12.11,12.11,0,0,0,2.21-1.23,4.31,4.31,0,0,0-.56-.52,23.8,23.8,0,0,1-3.62,1.34,4.92,4.92,0,0,0-.73-1.08,17.48,17.48,0,0,0,4.92-1.83h-2.77v-1.2h8.22v1.2h-2.21a12.62,12.62,0,0,0,.79,2.15A18.86,18.86,0,0,0,178.29,554.24Zm-9.89-2.78v1.84H167v-3.12h5.47v-1.26h1.43v1.26h5.55v3.12h-1.4v-1.84Z" transform="translate(-21.22 -24.51)" style="fill:#768e91"/><path d="M184.31,556.07h4.84a3.32,3.32,0,0,1-.06.62c-.13,1.74-.27,3-.41,3.8a3.09,3.09,0,0,1-.62,1.59,2,2,0,0,1-1.33.54,17.28,17.28,0,0,1-2.33,0,3.12,3.12,0,0,0-.51-1.46c.85.07,1.61.11,2.3.11a1.08,1.08,0,0,0,.67-.17c.33-.28.59-1.52.76-3.74h-3.56l-.14.73-1.4-.23a40.62,40.62,0,0,0,.88-5h4.27v-2.1H183v-1.28H189v4.68h-4.42C184.59,554.45,184.49,555.07,184.31,556.07Zm8.5-7h1.4v13.58h-1.4Z" transform="translate(-21.22 -24.51)" style="fill:#768e91"/><path d="M208.25,557.88v.77h3.24v1.09h-3.24v1.55a1.85,1.85,0,0,1-.14.8.82.82,0,0,1-.52.41,8.61,8.61,0,0,1-2.47.18,4,4,0,0,0-.44-1.19c.93,0,1.57,0,1.91,0s.33-.09.33-.25v-1.52h-5.23a10.51,10.51,0,0,1,1.92,1.55l-1,.86a10.27,10.27,0,0,0-2.1-1.77l.76-.64H198v-1.09h8.95v-.77c-1.44,0-2.4,0-2.87,0a4.35,4.35,0,0,1-3.36-1.31c-.27.19-.67.45-1.21.79l-1,.66-.52-1.13a21.19,21.19,0,0,0,2-1.07v-1.25H198v-1h3.13v2.11a3.37,3.37,0,0,0,2.87,1.19c.87,0,2.12,0,3.74,0s2.91-.06,3.88-.12a3.51,3.51,0,0,0-.38,1.1C210.34,557.84,209.33,557.87,208.25,557.88ZM201,552.31l-.67.89a9.31,9.31,0,0,0-2.4-1.39l.66-.79A8.73,8.73,0,0,1,201,552.31Zm.63-1.93-.67.92a9.31,9.31,0,0,0-2.48-1.53l.66-.79A9.28,9.28,0,0,1,201.67,550.38Zm1.17,1.43h2.73a6.39,6.39,0,0,0,.16-.63H202v-1h2.15a6.13,6.13,0,0,0-.66-1.07l1.13-.26a4.57,4.57,0,0,1,.82,1.29l-.17,0h2.22a7.88,7.88,0,0,0,.84-1.3l1.27.23a12.32,12.32,0,0,1-.77,1.08h2.59v1H207l-.13.32-.13.31h3.47v4.42h-7.4Zm6,1.25v-.55h-4.76v.55Zm0,1.24v-.57h-4.76v.57Zm0,1.25V555h-4.76v.58Z" transform="translate(-21.22 -24.51)" style="fill:#768e91"/><path d="M218.24,556.62l-1.62.51V561c0,.66-.18,1.09-.53,1.27a4.51,4.51,0,0,1-2,.28,3.89,3.89,0,0,0-.38-1.29l1.32,0c.17,0,.26-.09.26-.28v-3.47l-1.58.47-.31-1.35.54-.14.7-.19.65-.18v-3H213.6v-1.29h1.74V549h1.28v2.9h1.58v1.29h-1.58v2.64l1.43-.42Zm5.09,2.49v2.08a10.19,10.19,0,0,0,1.24.08h2.93a3.48,3.48,0,0,0-.38,1.23h-2.58a7,7,0,0,1-2.84-.49,3.8,3.8,0,0,1-1.79-1.87,6.32,6.32,0,0,1-1.7,2.56,4.08,4.08,0,0,0-1-.83c1.21-1,1.93-2.57,2.19-4.83l1.26.14a14.87,14.87,0,0,1-.28,1.58,3.47,3.47,0,0,0,1.67,2.07v-4.38h-3.59V555.3h8.66v1.14h-3.75V558h3v1.12Zm3-9.7v5h-7.17v-5Zm-1.34,2v-1H220.4v1Zm0,1.93v-1H220.4v1Z" transform="translate(-21.22 -24.51)" style="fill:#768e91"/><path d="M235.6,554.89h-4.14v7.8h-1.38V549.53h5.52Zm-1.31-4.25h-2.83v1h2.83Zm-2.83,3.16h2.83v-1.13h-2.83Zm7.53,6.8h-4.37v.86h-1.29v-5.37H239Zm-1.31-3.34h-3.06v2.18h3.06Zm4.77-7.73v11.39a2.33,2.33,0,0,1-.17,1,1.1,1.1,0,0,1-.57.53,9.38,9.38,0,0,1-2.79.25,4.22,4.22,0,0,0-.47-1.42c.42,0,1.15,0,2.21,0a.34.34,0,0,0,.36-.38v-6h-4.23v-5.37ZM241,550.62h-2.9v1.06H241Zm-2.9,3.2H241v-1.15h-2.9Z" transform="translate(-21.22 -24.51)" style="fill:#768e91"/><path d="M257.3,558h1.5v1.29H245.17V558h1.5l-.28-8.08.83.24a16,16,0,0,0,1.91-1.12l1.07,1q-.93.48-2.52,1.14l0,1.35h1.89v1.15h-1.84l0,1.59h1.8v1.17h-1.77l.06,1.55h2.36V554.7h1.14V558h1.17V554.1h-2.3v-5h1.22v1.44H254v1.15h-2.46V553h2.28v5H256c0-.1,0-.32,0-.68s.05-.64.06-.86H254.4V555.3h1.73c0-.18,0-.44,0-.79s0-.61,0-.8h-1.76v-1.15h1.77c0-.69,0-1.19,0-1.53h-2v-1.2h3.26Q257.48,555.08,257.3,558Zm-7.89,1.36,1.27.87a23.78,23.78,0,0,1-4.34,2.46,8,8,0,0,0-1.08-1,19.84,19.84,0,0,0,2.29-1.11A11,11,0,0,0,249.41,559.38Zm3.78.9,1-.93a42.35,42.35,0,0,1,4.51,2.41l-1.34,1A28.71,28.71,0,0,0,253.19,560.28Z" transform="translate(-21.22 -24.51)" style="fill:#768e91"/><path d="M269.7,555l1.49.41a11.23,11.23,0,0,1-2.36,3.67,13,13,0,0,0,5.83,2.28,5.4,5.4,0,0,0-.92,1.33,13.09,13.09,0,0,1-6-2.63,16.24,16.24,0,0,1-6,2.68,5.88,5.88,0,0,0-.88-1.32,14.86,14.86,0,0,0,5.84-2.36,12,12,0,0,1-2.2-3.59l1.33-.39a9,9,0,0,0,1.95,3A8.78,8.78,0,0,0,269.7,555Zm-4.82-2.57,1.45.54a13.79,13.79,0,0,1-1.91,2,15.83,15.83,0,0,1-2.24,1.67,7.55,7.55,0,0,0-1.15-1.08,12.35,12.35,0,0,0,2.16-1.42A8.85,8.85,0,0,0,264.88,552.43Zm9.37-1.67v1.37H261.19v-1.37H267V548.9h1.44v1.86Zm-4.92,2.43,1.13-.85a26.66,26.66,0,0,1,2.25,1.64,12.28,12.28,0,0,1,1.73,1.61l-1.23.95a12.75,12.75,0,0,0-1.65-1.62C270.83,554.3,270.08,553.72,269.33,553.19Z" transform="translate(-21.22 -24.51)" style="fill:#768e91"/><path d="M280.07,554.48l-.82,1.18a7.07,7.07,0,0,0-1.19-.82,13.59,13.59,0,0,0-1.52-.77l.76-1.06A10.85,10.85,0,0,1,280.07,554.48Zm-.44,2.31,1.07.89c-.79,1.7-1.62,3.31-2.5,4.81l-1.2-.89A39.86,39.86,0,0,0,279.63,556.79Zm1.2-6.21-.82,1.11a10.23,10.23,0,0,0-2.65-1.65l.76-1A9.79,9.79,0,0,1,280.83,550.58Zm1.23,6.91V556h1.26v1.52a10.52,10.52,0,0,1-.07,1.32,7.37,7.37,0,0,1-.29,1.3,4.51,4.51,0,0,1-.68,1.35,5.77,5.77,0,0,1-1.2,1.16,3.64,3.64,0,0,0-1-.91,4.61,4.61,0,0,0,1.84-2.8A8.92,8.92,0,0,0,282.06,557.49Zm-1.24-6.7h3.79v-1.87H286v1.87h4.19v1.27h-5c-.57,1.06-.95,1.75-1.14,2.05l3.53-.12c-.28-.32-.63-.67-1-1l1.07-.57a14.22,14.22,0,0,1,1.56,1.55,10.33,10.33,0,0,1,1.14,1.55l-1.17.66a9.05,9.05,0,0,0-.63-1l-7.49.37-.14-1.32,1.72-.05a14.08,14.08,0,0,0,1-2.09h-2.83Zm3.79,11.26v-5.93h1.23v5.93Zm3.84-1.25v.25a.61.61,0,0,0,0,.16c0,.06,0,.1.09.11a.35.35,0,0,0,.16,0h.34a.37.37,0,0,0,.29-.09.94.94,0,0,0,.13-.37c0-.21,0-.7,0-1.45a3.69,3.69,0,0,0,.94.52,9.19,9.19,0,0,1-.14,1.71,1.08,1.08,0,0,1-1.21.8h-.74a1.18,1.18,0,0,1-.9-.32,1,1,0,0,1-.24-.45,5.39,5.39,0,0,1-.06-1V556h1.27Z" transform="translate(-21.22 -24.51)" style="fill:#768e91"/></g><g style="isolation:isolate"><path d="M119.76,619.51v-1.42h2.42V610.4h-2v-1.09a6.94,6.94,0,0,0,2.4-.85h1.3v9.63h2.16v1.42Z" transform="translate(-21.22 -24.51)" style="fill:#768e91"/><path d="M130.66,619.51a21.63,21.63,0,0,1,.81-5.25,15.06,15.06,0,0,1,2.21-4.33h-5.19v-1.47h7.12v1.06a16.21,16.21,0,0,0-1.57,2.29,10.31,10.31,0,0,0-.93,2.33,15.56,15.56,0,0,0-.48,2.41c-.09.78-.16,1.77-.21,3Z" transform="translate(-21.22 -24.51)" style="fill:#768e91"/><path d="M140.1,613.46a1,1,0,0,1-.81.35,1.08,1.08,0,0,1-.82-.35,1.17,1.17,0,0,1-.34-.85,1.24,1.24,0,0,1,.34-.88,1.12,1.12,0,0,1,.82-.35,1.08,1.08,0,0,1,.81.35,1.23,1.23,0,0,1,.33.88A1.16,1.16,0,0,1,140.1,613.46Zm0,5.9a1.07,1.07,0,0,1-.81.34,1.11,1.11,0,0,1-.82-.34,1.18,1.18,0,0,1-.34-.86,1.24,1.24,0,0,1,.34-.88,1.08,1.08,0,0,1,.82-.35,1,1,0,0,1,.81.35,1.23,1.23,0,0,1,.33.88A1.17,1.17,0,0,1,140.1,619.36Z" transform="translate(-21.22 -24.51)" style="fill:#768e91"/><path d="M146.28,619.7a4.57,4.57,0,0,1-3.59-1.51l.84-1.11a3.58,3.58,0,0,0,2.6,1.21,2.3,2.3,0,0,0,1.54-.49,1.67,1.67,0,0,0,.57-1.34,1.72,1.72,0,0,0-.75-1.5,4.59,4.59,0,0,0-2.53-.52v-1.27c1.94,0,2.9-.65,2.9-1.94a1.53,1.53,0,0,0-.45-1.16,1.78,1.78,0,0,0-1.25-.45,3.18,3.18,0,0,0-2.19,1l-.91-1.08a4.63,4.63,0,0,1,3.16-1.33,3.8,3.8,0,0,1,2.46.75,2.57,2.57,0,0,1,.93,2.1,2.62,2.62,0,0,1-1.91,2.6v.07a3.1,3.1,0,0,1,1.64,1,2.6,2.6,0,0,1,.63,1.78,2.8,2.8,0,0,1-1.06,2.31A4.06,4.06,0,0,1,146.28,619.7Z" transform="translate(-21.22 -24.51)" style="fill:#768e91"/><path d="M155.83,619.7a3,3,0,0,1-2.62-1.47,8,8,0,0,1-1-4.29,7.79,7.79,0,0,1,1-4.24,3.1,3.1,0,0,1,5.24,0,7.68,7.68,0,0,1,1,4.23,7.9,7.9,0,0,1-1,4.29A3,3,0,0,1,155.83,619.7Zm0-1.36q1.92,0,1.92-4.4t-1.92-4.32q-1.91,0-1.91,4.32T155.83,618.34Z" transform="translate(-21.22 -24.51)" style="fill:#768e91"/><path d="M166.92,617.15l1.23.29a9,9,0,0,1-1.67,3.27,8,8,0,0,0-1-.72A6.66,6.66,0,0,0,166.92,617.15Zm3.48-9.67v9.45h-4.19v-9.45Zm-1.21,2.8v-1.66h-1.81v1.66Zm0,2.77v-1.7h-1.81v1.7Zm0,2.75v-1.71h-1.81v1.71Zm5.17,2.4,1.61-.33.11,1.1-2.94.67c-1.26.28-2,.46-2.3.53l-.31-.74-.86.37a9.63,9.63,0,0,0-1-2.24l1-.4a9.68,9.68,0,0,1,.91,1.78l.71-.14V613h1.06v5.64l.92-.19v-6.58h1.09v2.49h1.34v1.07h-1.34Zm5-6.66h-2.26a53.93,53.93,0,0,0,.41,5.4c.2,1.35.44,2,.73,2s.36-.69.44-2.06a3.47,3.47,0,0,0,.93.76c-.27,2-.74,3-1.43,3s-1.29-.78-1.64-2.32a40.85,40.85,0,0,1-.67-6.79h-5.17v-1.17h5.13q0-1.14-.06-3.39h1.27c0,1.54,0,2.66,0,3.39h2.29ZM175.19,608v1.1h-3.9V608Zm4.26,1.38-1,.51a7.5,7.5,0,0,0-1.24-2l.92-.44A6.4,6.4,0,0,1,179.45,609.39Z" transform="translate(-21.22 -24.51)" style="fill:#768e91"/><path d="M185.11,618.37l2.15-.34.08,1.2c-1.65.29-3.61.61-5.86,1l-.19-1.28.69-.09v-3.32h1.08v3.18l.89-.15v-3.76H182v-6.62h1.3a10.37,10.37,0,0,0,.26-1.25l1.42.19c-.14.38-.29.73-.44,1.06h2.3v3h-3.66v.63h3.72v3h-1.83v1.14H187V617h-1.92Zm.6-9.22h-2.49v1h2.49Zm-2.49,3.6v1h2.55v-1Zm10.64-3.6h1.26v1h-1.26v1.76h-5.61v-1h4.35v-.77h-5.35v-1h5.35v-.75h-4.31v-1h5.57Zm-6.35,5.51v-2.11h7.31v2.11h-1.18V613.6h-1.89v1.32h2.58v3.34a1.8,1.8,0,0,1-.09.65.65.65,0,0,1-.35.36,4.08,4.08,0,0,1-1.51.18,3.35,3.35,0,0,0-.33-1.06l.9,0c.1,0,.14,0,.14-.16V616h-1.34v4.63h-1.28V616H189.2v3.51H188v-4.6h2.47V613.6h-1.81v1.06Z" transform="translate(-21.22 -24.51)" style="fill:#768e91"/><path d="M197.71,607.5h12.53v13.19h-1.5v-.8h-9.59v.8h-1.44Zm1.44,11.08h9.59v-9.66h-9.59ZM201,611h5.92v5.51H201Zm4.52,4.29V612.2h-3.2v3.06Z" transform="translate(-21.22 -24.51)" style="fill:#768e91"/><path d="M221.42,609.36l1.08-.82a27.5,27.5,0,0,1,2.36,2.13,11.89,11.89,0,0,1,1.68,2.06l-1.23.93a8.4,8.4,0,0,0-1-1.4l-11,.48-.11-1.41,2.26-.07a27.17,27.17,0,0,0,2.37-4.42l1.55.54a41.18,41.18,0,0,1-2.25,3.82l6-.25C222.5,610.32,221.92,609.79,221.42,609.36Zm-6.52,11.32v-6.43h9.65v6.42H223v-.62h-6.71v.63Zm8.14-5.1h-6.71v3.12H223Z" transform="translate(-21.22 -24.51)" style="fill:#768e91"/><path d="M232.64,610.59v-3.4h1.45v13.36h-1.45V617.3l-3.53,1.52-.63-1.41c1-.35,2.42-.85,4.16-1.51V612H229v-1.39Zm5.83,8.42h1.9c.32,0,.52-.2.61-.59a17.54,17.54,0,0,0,.23-2.49,3.79,3.79,0,0,0,1.33.65,8.16,8.16,0,0,1-.52,3,1.56,1.56,0,0,1-1.53.82h-2.23a2,2,0,0,1-1.55-.48,3,3,0,0,1-.41-1.85V607.19h1.47v4.73a23.83,23.83,0,0,0,3.4-2.48l1,1.23a40.19,40.19,0,0,1-4.42,2.71v4.69a1.55,1.55,0,0,0,.12.77C238,619,238.17,619,238.47,619Z" transform="translate(-21.22 -24.51)" style="fill:#768e91"/></g></g><g id="e86d91cf-badb-4559-b6cb-4fd97fc5b30d" data-name="便當交流會" style="isolation:isolate"><g style="isolation:isolate"><path d="M121.22,307l1.32.4a27.34,27.34,0,0,1-1.41,3.27v10h-1.32v-7.82a16.21,16.21,0,0,1-1,1.3,5,5,0,0,0-.77-1.39,13.22,13.22,0,0,0,1.82-2.59A18.16,18.16,0,0,0,121.22,307Zm10,8.88h-3.6a5.29,5.29,0,0,1-1,2.42,18.46,18.46,0,0,0,5.48,1,4.17,4.17,0,0,0-.83,1.29,16.68,16.68,0,0,1-5.64-1.35,10.29,10.29,0,0,1-3.15,1.48,3.62,3.62,0,0,0-.85-1.14,9.71,9.71,0,0,0,2.77-1,7.66,7.66,0,0,1-2-2l1.22-.41a5.68,5.68,0,0,0,1.79,1.54,3.75,3.75,0,0,0,.87-1.86H122.8v-5.79h3.55V309h-3.87v-1.21h9.14V309h-3.9v1.11h3.46Zm-7.09-4.73v1.35h2.26v-1.35Zm0,3.68h2.24c0-.15,0-.39,0-.71v-.64h-2.26Zm5.73,0v-1.35h-2.1v.66c0,.31,0,.54,0,.69Zm0-3.68h-2.1v1.35h2.1Z" transform="translate(-21.22 -24.51)" style="fill:#768e91"/><path d="M144.73,309.09h2.41v3.2h-1.38v-2h-10v2h-1.32v-3.2h2.17a9,9,0,0,0-1-1.51l1.21-.49a6.74,6.74,0,0,1,1.26,1.8l-.47.2H140v-2.17h1.39v2.17h2.25l-.33-.11a9.15,9.15,0,0,0,1.2-1.94l1.46.46C145.62,308,145.21,308.5,144.73,309.09Zm-9.24,11.63v-5.5H146.2v5.47h-1.41v-.36h-8v.39Zm4.56-4.46h-3.23v1h3.23Zm-3.23,3h3.23v-1h-3.23Zm.05-8.07h7.82v3.25h-7.82Zm6.43,2.21v-1.19h-5.13v1.19Zm1.49,3.84v-1h-3.38v1Zm-3.38,2h3.38v-1h-3.38Z" transform="translate(-21.22 -24.51)" style="fill:#768e91"/><path d="M158.45,313l1.49.41a11.07,11.07,0,0,1-2.36,3.67,13,13,0,0,0,5.83,2.28,5.4,5.4,0,0,0-.92,1.33,13.09,13.09,0,0,1-6-2.63,16.24,16.24,0,0,1-6,2.68,5.88,5.88,0,0,0-.88-1.32,14.86,14.86,0,0,0,5.84-2.36,12,12,0,0,1-2.2-3.59l1.33-.39a9,9,0,0,0,1.95,3A8.78,8.78,0,0,0,158.45,313Zm-4.82-2.57,1.45.54a13.79,13.79,0,0,1-1.91,2,15.83,15.83,0,0,1-2.24,1.67,7.55,7.55,0,0,0-1.15-1.08,12.35,12.35,0,0,0,2.16-1.42A8.85,8.85,0,0,0,153.63,310.43Zm9.37-1.67v1.37H149.94v-1.37h5.78V306.9h1.44v1.86Zm-4.92,2.43,1.13-.85a26.66,26.66,0,0,1,2.25,1.64,12.28,12.28,0,0,1,1.73,1.61l-1.23,1a12.75,12.75,0,0,0-1.65-1.62C159.58,312.3,158.83,311.72,158.08,311.19Z" transform="translate(-21.22 -24.51)" style="fill:#768e91"/><path d="M168.82,312.48l-.82,1.18a7.07,7.07,0,0,0-1.19-.82,13.59,13.59,0,0,0-1.52-.77l.76-1.06A10.85,10.85,0,0,1,168.82,312.48Zm-.44,2.31,1.07.89c-.79,1.7-1.62,3.31-2.5,4.81l-1.2-.89A39.86,39.86,0,0,0,168.38,314.79Zm1.2-6.21-.82,1.11a10.23,10.23,0,0,0-2.65-1.65l.76-1A9.79,9.79,0,0,1,169.58,308.58Zm1.23,6.91V314h1.26v1.52a10.52,10.52,0,0,1-.07,1.32,7.37,7.37,0,0,1-.29,1.3,4.51,4.51,0,0,1-.68,1.35,5.77,5.77,0,0,1-1.2,1.16,3.64,3.64,0,0,0-1-.91,4.61,4.61,0,0,0,1.84-2.8A8.92,8.92,0,0,0,170.81,315.49Zm-1.24-6.7h3.79v-1.87h1.42v1.87H179v1.27h-5c-.57,1.06-1,1.75-1.14,2.05l3.53-.12c-.28-.32-.63-.67-1-1.05l1.07-.57a14.22,14.22,0,0,1,1.56,1.55,10.33,10.33,0,0,1,1.14,1.55l-1.17.66a9.05,9.05,0,0,0-.63-1l-7.49.37-.14-1.32,1.72-.05a14.08,14.08,0,0,0,1-2.09h-2.83Zm3.79,11.26v-5.93h1.23v5.93Zm3.84-1.25v.25a.61.61,0,0,0,0,.16c0,.06.05.1.09.11a.35.35,0,0,0,.16,0h.34a.37.37,0,0,0,.29-.09.94.94,0,0,0,.13-.37c0-.21,0-.7,0-1.45a3.69,3.69,0,0,0,.94.52,9.19,9.19,0,0,1-.14,1.71,1.08,1.08,0,0,1-1.21.8h-.74a1.18,1.18,0,0,1-.9-.32,1,1,0,0,1-.24-.45,5.39,5.39,0,0,1-.06-1V314h1.27Z" transform="translate(-21.22 -24.51)" style="fill:#768e91"/><path d="M187.18,306.92h1.3a13.21,13.21,0,0,0,3,2.1,17.89,17.89,0,0,0,3.51,1.41,6,6,0,0,0-.79,1.15,19.37,19.37,0,0,1-3.59-1.62v.58h-5.19v-.63a21.29,21.29,0,0,1-3.68,1.76,4.29,4.29,0,0,0-.73-1.08,17.85,17.85,0,0,0,3.57-1.61A11,11,0,0,0,187.18,306.92Zm-4.28,8.19v-3.88h10.23v3.88Zm.85,5.57v-4.95h8.56v4.92h-1.43v-.4h-5.75v.43Zm.34-8.54v2.08h3.25v-2.08Zm.73.38,1-.29a4.9,4.9,0,0,1,.76,1.65l-1,.34A5.78,5.78,0,0,0,184.82,312.52Zm6.06,4.15h-5.75v.85h5.75Zm-5.75,2.63h5.75v-.86h-5.75Zm.8-9.72h4A13.24,13.24,0,0,1,187.9,308,12.77,12.77,0,0,1,185.93,309.58Zm5.95,4.64v-2.08h-3.4v2.08Zm-1.9-2.05,1.17.32c-.48.91-.8,1.49-1,1.73l-1-.31A11.13,11.13,0,0,0,190,312.17Z" transform="translate(-21.22 -24.51)" style="fill:#768e91"/></g></g><g id="ea7bb674-ed48-4b34-bca1-9eb3edf3d1ba" data-name="上午" style="isolation:isolate"><g style="isolation:isolate"><path d="M49.23,169.56h6.46V171H42.26v-1.42h5.48V158.13h1.49v4.45h5.42V164H49.23Z" transform="translate(-21.22 -24.51)" style="fill:#768e91"/><path d="M72.15,164.69v1.39h-6v5.61H64.75v-5.61H58.82v-1.39h5.93v-3.45H61.9A12.55,12.55,0,0,1,60.05,164a6.44,6.44,0,0,0-1.29-.86,9.81,9.81,0,0,0,1.7-2.29,14,14,0,0,0,1.23-2.93l1.47.34c-.18.54-.38,1.09-.61,1.64H71v1.38H66.2v3.45Z" transform="translate(-21.22 -24.51)" style="fill:#768e91"/></g></g><g id="a0c46762-d18d-4945-9c52-37a6b389e0fa" data-name="中午" style="isolation:isolate"><g style="isolation:isolate"><path d="M49.66,309.55H55v7.17H53.55v-.82H49.66v4.78H48.21V315.9H44.33v.9H42.92v-7.25h5.29v-2.61h1.45Zm-5.33,5h3.88v-3.63H44.33Zm5.33,0h3.89v-3.63H49.66Z" transform="translate(-21.22 -24.51)" style="fill:#768e91"/><path d="M72.15,313.69v1.39h-6v5.61H64.75v-5.61H58.82v-1.39h5.93v-3.45H61.9A12.55,12.55,0,0,1,60.05,313a6.44,6.44,0,0,0-1.29-.86,9.81,9.81,0,0,0,1.7-2.29,14,14,0,0,0,1.23-2.93l1.47.34c-.18.54-.38,1.09-.61,1.64H71v1.38H66.2v3.45Z" transform="translate(-21.22 -24.51)" style="fill:#768e91"/></g></g><g id="e4e8bacb-d91a-4b2d-aa00-96ecd22de334" data-name="下午" style="isolation:isolate"><g style="isolation:isolate"><path d="M55.61,485.43h-6.2V488l.25-.3q1.34.64,2.85,1.53a21.38,21.38,0,0,1,2.36,1.53l-1,1.27a29.4,29.4,0,0,0-4.45-2.87v7.55H47.92V485.43H42.35V484H55.61Z" transform="translate(-21.22 -24.51)" style="fill:#768e91"/><path d="M72.15,489.69v1.39h-6v5.61H64.75v-5.61H58.82v-1.39h5.93v-3.45H61.9A12.55,12.55,0,0,1,60.05,489a6.44,6.44,0,0,0-1.29-.86,9.81,9.81,0,0,0,1.7-2.29,14,14,0,0,0,1.23-2.93l1.47.34c-.18.54-.38,1.09-.61,1.64H71v1.38H66.2v3.45Z" transform="translate(-21.22 -24.51)" style="fill:#768e91"/></g></g><line id="b509e3bd-695f-42eb-b7d6-dc7d59681e76" data-name="Line 99" x1="74.25" y1="27" x2="74.25" y2="632" style="fill:none;stroke:#566c6c;stroke-width:0.5px"/><line id="ba834823-0c33-44b9-879a-1725a056114b" data-name="Line 105" x1="0.25" x2="0.25" y2="632" style="fill:none;stroke:#566c6c;stroke-width:0.5px"/><line id="f084176e-0564-4966-9a00-532563c705a9" data-name="Line 106" x1="411.25" x2="411.25" y2="632" style="fill:none;stroke:#566c6c;stroke-width:0.5px"/><rect id="ff8fb893-de8e-4b8f-bc11-b7d9a96b8124" data-name="Rectangle 214" x="0.25" width="411" height="27" style="fill:#566c6c"/><g id="af4f0e59-c551-43e4-a348-9928b01a7970" data-name="DAY 1" style="isolation:isolate"><g style="isolation:isolate"><path d="M206.09,43.51V31.73h3.06a5.6,5.6,0,0,1,4.2,1.49,5.93,5.93,0,0,1,1.47,4.35,6.12,6.12,0,0,1-1.46,4.4,5.37,5.37,0,0,1-4.11,1.54ZM208,42H209a3.67,3.67,0,0,0,2.89-1.11,4.82,4.82,0,0,0,1-3.31c0-2.88-1.3-4.33-3.89-4.33H208Z" transform="translate(-21.22 -24.51)" style="fill:#fff"/><path d="M224.5,43.51l-1-3.36h-4.1l-1,3.36h-1.89l3.91-11.78h2.14l3.91,11.78Zm-4.66-4.81h3.22l-.47-1.6c-.13-.43-.51-1.73-1.12-3.9h-.07c-.39,1.53-.75,2.83-1.07,3.9Z" transform="translate(-21.22 -24.51)" style="fill:#fff"/><path d="M230.74,43.51V39l-3.54-7.31h2l1.36,3.12.34.81c.15.35.28.67.4,1s.24.57.37.83h.06c.46-1.06.83-1.92,1.11-2.6l1.37-3.12h1.94L232.59,39v4.47Z" transform="translate(-21.22 -24.51)" style="fill:#fff"/><path d="M242.66,43.51V42h2.58v-8.2h-2.11V32.63a7.57,7.57,0,0,0,2.57-.9h1.39V42h2.29v1.52Z" transform="translate(-21.22 -24.51)" style="fill:#fff"/></g></g><line id="a6a4b993-2033-428a-b2ca-4e9de778a205" data-name="Line 100" x1="411.75" y1="263" x2="0.25" y2="263" style="fill:none;stroke:#566c6c;stroke-width:0.5px"/><line id="f3b92841-b671-40ba-bf7e-6a5a1b2adef8" data-name="Line 107" x1="411.75" y1="632" x2="0.25" y2="632" style="fill:none;stroke:#566c6c;stroke-width:0.5px"/><line id="ab3ba34f-bbf5-4c66-9302-e3078a6794f8" data-name="Line 101" x1="411.75" y1="318" x2="0.25" y2="318" style="fill:none;stroke:#566c6c;stroke-width:0.5px"/></g></svg>