<svg xmlns="http://www.w3.org/2000/svg" width="339" height="72.801" viewBox="0 0 339 72.801">
    <defs>
        <style>
            .cls-3{fill:#fff}.cls-2{isolation:isolate}
        </style>
    </defs>
    <g id="Group_313" transform="translate(-707 -246.1)">
        <text id="申請表" fill="#fff" font-family="GenYoMinTW-SemiBold-TTF, GenYoMin TW TTF" font-size="41px" letter-spacing="0.116em" transform="translate(913 298)">
            <tspan x="0" y="0">申請表</tspan>
        </text>
        <g id="WHY_NOW" class="cls-2" transform="translate(339.183 -1602.488)">
            <g id="Group_302" class="cls-2">
                <path id="Path_431" d="M367.817 1921.389l.408-1.52a14.753 14.753 0 0 0 6.912-1.761 15.022 15.022 0 0 0 5.413-5.559 40.14 40.14 0 0 0 4.1-10.36l11.79-44a13.687 13.687 0 0 0 .657-4.36 2.158 2.158 0 0 0-1.491-1.92 13.821 13.821 0 0 0-4.231-.6l.428-1.6q1.77.081 4.649.159t6.035.081q3.156 0 6.121-.081t4.948-.159l-.429 1.6a17.33 17.33 0 0 0-4.554.6 4.514 4.514 0 0 0-2.519 1.92 16.54 16.54 0 0 0-1.68 4.36l-7.846 29.281q-.879 3.281-1.992 7.12t-2.378 7.439a48.928 48.928 0 0 1-2.675 6.321 25.115 25.115 0 0 1-8.6 9.32 23.222 23.222 0 0 1-13.066 3.719z" class="cls-3"/>
                <path id="Path_432" d="M447.806 1848.588q8.1 0 13.282 3.44a16.212 16.212 0 0 1 6.821 9.88q1.644 6.441-.82 15.641a43.359 43.359 0 0 1-7.656 15.68 38.3 38.3 0 0 1-12.407 10.48 31.937 31.937 0 0 1-15.082 3.76q-8.1 0-13.282-3.44a16.159 16.159 0 0 1-6.811-9.921q-1.635-6.48.811-15.6a42.969 42.969 0 0 1 7.7-15.68 38.9 38.9 0 0 1 12.406-10.48 31.713 31.713 0 0 1 15.038-3.76zm-.727 1.441a18.015 18.015 0 0 0-10.6 3.6 34.179 34.179 0 0 0-9.014 9.92 53.594 53.594 0 0 0-6.184 14.639 38.32 38.32 0 0 0-1.438 14.76q.833 6.283 4.231 9.681a11.647 11.647 0 0 0 8.6 3.4 18.014 18.014 0 0 0 10.6-3.6 34.143 34.143 0 0 0 9.024-9.959 53.689 53.689 0 0 0 6.173-14.6q2.294-8.561 1.449-14.8t-4.2-9.64a11.622 11.622 0 0 0-8.641-3.401z" class="cls-3"/>
                <path id="Path_433" d="M503.723 1849.709l-.429 1.6a17.33 17.33 0 0 0-4.554.6 4.5 4.5 0 0 0-2.518 1.92 16.5 16.5 0 0 0-1.681 4.36l-10.632 39.681a13.752 13.752 0 0 0-.645 4.32 2.079 2.079 0 0 0 1.489 1.919 16.359 16.359 0 0 0 4.223.641l-.429 1.6q-1.92-.161-4.852-.2t-5.918-.039q-3.327 0-6.238.039t-4.745.2l.429-1.6a20.748 20.748 0 0 0 4.565-.641 4.324 4.324 0 0 0 2.518-1.919 16.6 16.6 0 0 0 1.67-4.32l10.632-39.681a13.709 13.709 0 0 0 .656-4.36 2.158 2.158 0 0 0-1.49-1.92 13.833 13.833 0 0 0-4.232-.6l.428-1.6q1.77.081 4.649.159t6.206.081q2.985 0 5.95-.081t4.948-.159z" class="cls-3"/>
                <path id="Path_434" d="M564.461 1849.709l-.43 1.6a12.92 12.92 0 0 0-4.606.8 5.461 5.461 0 0 0-2.626 2.319 18.983 18.983 0 0 0-1.735 4.561l-12.8 47.759H540.3l-21.916-51.92-11.319 42.24a14.626 14.626 0 0 0-.656 4.521 2.576 2.576 0 0 0 1.6 2.319 13.828 13.828 0 0 0 4.765.841l-.428 1.6q-1.492-.161-3.956-.2t-4.682-.039q-2.133 0-4.318.039t-3.679.2l.429-1.6a14.75 14.75 0 0 0 4.618-.841 5.265 5.265 0 0 0 2.626-2.319 19.02 19.02 0 0 0 1.723-4.521l10.418-38.88a13.709 13.709 0 0 0 .656-4.36 2.158 2.158 0 0 0-1.49-1.92 13.836 13.836 0 0 0-4.233-.6l.429-1.6q1.428.081 3.583.159t4.287.081q1.875 0 3.6-.081t3.113-.159l18.453 43.52 9.174-34.24a14.649 14.649 0 0 0 .669-4.561 2.674 2.674 0 0 0-1.6-2.319 12.3 12.3 0 0 0-4.777-.8l.43-1.6q1.514.081 4.01.159t4.627.081q2.217 0 4.415-.081t3.59-.158z" class="cls-3"/>
            </g>
        </g>
    </g>
</svg>
