<svg xmlns="http://www.w3.org/2000/svg" width="97.829" height="36.218" viewBox="0 0 97.829 36.218">
    <defs>
        <style>
            .join-eng-class-1{isolation:isolate}.join-eng-class-2{fill:#fff}
        </style>
    </defs>
    <g id="join-eng-group" class="join-eng-class-1">
        <g id="Group_302" class="join-eng-class-1">
            <path id="Path_431" d="M367.817 1885.369l.2-.756a7.339 7.339 0 0 0 3.439-.876 7.474 7.474 0 0 0 2.693-2.766 19.972 19.972 0 0 0 2.039-5.154l5.865-21.89a6.809 6.809 0 0 0 .327-2.169 1.074 1.074 0 0 0-.742-.955 6.875 6.875 0 0 0-2.1-.3l.213-.8q.881.04 2.313.079t3 .04q1.57 0 3.045-.04t2.462-.079l-.213.8a8.62 8.62 0 0 0-2.266.3 2.245 2.245 0 0 0-1.253.955 8.226 8.226 0 0 0-.836 2.169l-3.9 14.567q-.437 1.632-.991 3.542t-1.183 3.7a24.342 24.342 0 0 1-1.331 3.145 12.5 12.5 0 0 1-4.276 4.637 11.553 11.553 0 0 1-6.505 1.851z" class="join-eng-class-2" transform="translate(-367.817 -1849.151)"/>
            <path id="Path_432" d="M429.409 1848.588a11.725 11.725 0 0 1 6.608 1.711 8.066 8.066 0 0 1 3.393 4.915A15.527 15.527 0 0 1 439 1863a21.571 21.571 0 0 1-3.809 7.8 19.05 19.05 0 0 1-6.172 5.214 15.888 15.888 0 0 1-7.5 1.871 11.718 11.718 0 0 1-6.608-1.711 8.039 8.039 0 0 1-3.388-4.936 15.536 15.536 0 0 1 .4-7.761 21.376 21.376 0 0 1 3.83-7.8 19.349 19.349 0 0 1 6.172-5.214 15.777 15.777 0 0 1 7.484-1.875zm-.362.717a8.963 8.963 0 0 0-5.275 1.791 17 17 0 0 0-4.484 4.935 26.663 26.663 0 0 0-3.077 7.283 19.063 19.063 0 0 0-.715 7.343 8.1 8.1 0 0 0 2.1 4.816 5.794 5.794 0 0 0 4.278 1.692 8.962 8.962 0 0 0 5.276-1.792 16.986 16.986 0 0 0 4.489-4.955 26.7 26.7 0 0 0 3.071-7.263 19.035 19.035 0 0 0 .721-7.364 8.182 8.182 0 0 0-2.088-4.8 5.782 5.782 0 0 0-4.295-1.686z" class="join-eng-class-2" transform="translate(-389.615 -1848.588)"/>
            <path id="Path_433" d="M485.166 1849.709l-.213.8a8.62 8.62 0 0 0-2.266.3 2.241 2.241 0 0 0-1.253.955 8.207 8.207 0 0 0-.836 2.169l-5.289 19.741a6.842 6.842 0 0 0-.321 2.149 1.034 1.034 0 0 0 .741.955 8.133 8.133 0 0 0 2.1.319l-.213.8q-.955-.08-2.414-.1t-2.944-.019q-1.655 0-3.1.019t-2.361.1l.213-.8a10.315 10.315 0 0 0 2.271-.319 2.15 2.15 0 0 0 1.253-.955 8.256 8.256 0 0 0 .831-2.149l5.289-19.741a6.818 6.818 0 0 0 .326-2.169 1.074 1.074 0 0 0-.741-.955 6.881 6.881 0 0 0-2.105-.3l.213-.8q.881.04 2.313.079t3.087.04q1.485 0 2.96-.04t2.459-.079z" class="join-eng-class-2" transform="translate(-417.554 -1849.151)"/>
            <path id="Path_434" d="M529.914 1849.709l-.214.8a6.43 6.43 0 0 0-2.291.4 2.718 2.718 0 0 0-1.306 1.154 9.442 9.442 0 0 0-.863 2.269l-6.366 23.76h-.974l-10.9-25.83-5.631 21.014a7.275 7.275 0 0 0-.326 2.249 1.281 1.281 0 0 0 .794 1.154 6.878 6.878 0 0 0 2.371.418l-.213.8q-.742-.08-1.968-.1t-2.329-.019q-1.061 0-2.148.019t-1.83.1l.213-.8a7.336 7.336 0 0 0 2.3-.418 2.618 2.618 0 0 0 1.306-1.154 9.459 9.459 0 0 0 .857-2.249l5.183-19.343a6.82 6.82 0 0 0 .326-2.169 1.074 1.074 0 0 0-.741-.955 6.882 6.882 0 0 0-2.106-.3l.213-.8q.71.04 1.783.079t2.133.04q.933 0 1.793-.04t1.549-.079l9.18 21.651 4.564-17.034a7.289 7.289 0 0 0 .333-2.269 1.331 1.331 0 0 0-.8-1.154 6.121 6.121 0 0 0-2.376-.4l.214-.8q.753.04 1.995.079t2.3.04q1.1 0 2.2-.04t1.775-.073z" class="join-eng-class-2" transform="translate(-432.085 -1849.151)"/>
        </g>
    </g>
</svg>
