<svg id="a6a490d5-9b41-43d5-b4c1-35df6597cff3" data-name="圖層 1" xmlns="http://www.w3.org/2000/svg" viewBox="0 0 212.35 71.61"><g id="adb5a57b-42f2-4c7a-86b0-6ab0aececf96" data-name="Group 278"><g id="bb77665d-eb81-42c0-bb0e-4746f908f947" data-name="Group 192"><rect id="ab052355-ab55-424e-83f6-ebba14f6dea5" data-name="Rectangle 141" y="18.43" width="120.02" height="44.14" style="fill:#c9171d"/><path id="b955cf95-da60-48b9-a8fa-479a4c9f4f6e" data-name="Path 315" d="M42.38,37.4c.64,1.86-2,2.46-3.15,3-.41.17-.82.34-1.23.53s-.53.31-.81.42a6.21,6.21,0,0,1-.85.21c-.64.14-1.28.3-1.9.47-1.27.34-2.52.73-3.78,1.09-.72.21-1.44.4-2.17.58a3,3,0,0,1-2.21-.41c-.62-.36-.66-.94-.94-1.54a.68.68,0,0,1,.16-.86c.07-.06.39-.05.49-.06l.5-.08,1-.16c.32,0,.65-.09,1-.11a1.73,1.73,0,0,0,1-.15,6.65,6.65,0,0,1,1-.61,8.42,8.42,0,0,1,2.26-.62c.27,0,.54-.08.82-.12a3.11,3.11,0,0,0,.43,0c.16,0,.21-.14.34-.24s.66-.22.93-.43c.79-.62,1.83-.86,2.45-1.64a2.72,2.72,0,0,1,1.6-.56,3.26,3.26,0,0,1,1.77.23c.51.28,1.13.54,1.33,1.14" transform="translate(-13.28 -12.27)" style="fill:#fff"/><path id="e4606d1b-2f33-451f-90a9-fb1b5a5ec56a" data-name="Path 316" d="M63.74,47a2.91,2.91,0,0,0,.15-.92,9.24,9.24,0,0,0-.21-.91c0-.26.13-.54-.17-.67-.63-.45-1.2.26-1.82.36A6.86,6.86,0,0,0,60.36,46a10.27,10.27,0,0,1-1,.61c-.31.22-.55.5-.85.73-.64.49-1.4.79-2.06,1.24a4.24,4.24,0,0,1-2.47.11,17.72,17.72,0,0,1-3.16-1.2,7.91,7.91,0,0,1-1.36-.6c-.49-.31-.75-.85-1.24-1.18s-.86-.54-.74-1.14a2.74,2.74,0,0,1,1.46-.63c1.8-.34,3.76-.08,5.5-.68,1-.26,2-.5,3-.83.26-.09.53-.21.8-.3a6.13,6.13,0,0,0,.74-.46c.6-.3,1.23-.12,1.84-.28.85-.24,1.69-.5,2.53-.77.49-.16,1-.36,1.46-.47A3.4,3.4,0,0,0,66,39.79c.86-.55,1.94-.3,2.85-.71a15.22,15.22,0,0,1,2.45-.88,3.35,3.35,0,0,1,1.3-.1c.74.1,1.5.28,2.23.43a6,6,0,0,1,1.81.55,1.71,1.71,0,0,1,.7.76A2.1,2.1,0,0,1,77.05,41c-.09.18-.19.36-.29.54a2,2,0,0,1-1.41.86,3.83,3.83,0,0,1-1.81.08,2.3,2.3,0,0,1-.9-.44,4.27,4.27,0,0,0-3.43-.19l-.46.14a1.27,1.27,0,0,0-.45.19,2.57,2.57,0,0,1-.41.26c-.38.2-.7.38-.7.84a4.43,4.43,0,0,0,.13,1.7c.5,1-.16,2.09.31,3.13a30,30,0,0,1,.58,5,46.85,46.85,0,0,0,.54,7.19c.09.5.24,1,.36,1.47.08.31.09.63.17.94a6.3,6.3,0,0,1,.28,1.83,23.29,23.29,0,0,1-.24,2.36A2.41,2.41,0,0,1,68.08,69c-.84.92-2.33.74-3.39.39a2.31,2.31,0,0,1-1.45-2.06A3.91,3.91,0,0,1,63,65.16a125.2,125.2,0,0,0,.73-17.64" transform="translate(-13.28 -12.27)" style="fill:#fff"/><path id="a69788f8-ccb2-4805-a306-3c7352112ec6" data-name="Path 317" d="M34.61,44.49a6.84,6.84,0,0,1,1.07,1.92.79.79,0,0,0,1,.15,3,3,0,0,0,.89-.37c.25-.2.46-.47.7-.69A5.15,5.15,0,0,1,40,44.37a3.06,3.06,0,0,1,1.24-.14c.68.26,1.54.23,1.88.93a1.59,1.59,0,0,1,.07,1.44c-.6,1.22-2.08,1.67-3.12,2.45-.84.44-2,.75-2.37,1.69,0,1.49,1.17,2.68,2.11,3.54,1.43,1.49,2.76,3.75,4.69,4.64A7.9,7.9,0,0,1,46,60.11a6.81,6.81,0,0,0,.82.59c.33.19.69.26,1,.47a4.38,4.38,0,0,1,1,.62c.1.12.28.14.41.21.28.15.47.45.8.52a2.24,2.24,0,0,1,.51.07,4.07,4.07,0,0,1,.48.33,11.43,11.43,0,0,0,2.29,1.22c.31.12.66.13,1,.25a4,4,0,0,1,.76.54c.44.31,1,.59,1.25,1.13A1.3,1.3,0,0,1,56,67.21a2.21,2.21,0,0,1-1.38.56c-.48.08-1,.3-1.45.35-.26,0-.54,0-.8,0-.57,0-1.14.1-1.71.16a30.93,30.93,0,0,1-3.47.22,4.06,4.06,0,0,1-2-.25A22.46,22.46,0,0,1,43,66.63,11.37,11.37,0,0,1,40.78,64c-.7-1-1.38-2.05-2.09-3.06a11.44,11.44,0,0,0-1.92-2.4c-.28-.23-.46-.55-.73-.78a6.65,6.65,0,0,1-.65-.65,2.42,2.42,0,0,0-1.53-1,3.75,3.75,0,0,0-.52,1.22c-.06.3-.05.6-.1.89s-.13.49-.18.73a4.79,4.79,0,0,1-.37,1.59,3,3,0,0,0-.34.86,5.46,5.46,0,0,1-.36,1c-.07.18-.19.33-.27.5-.14.32-.21.65-.38,1a10.32,10.32,0,0,1-.6,1,12.53,12.53,0,0,1-1.49,1.83,12,12,0,0,1-1,.92,4.87,4.87,0,0,1-.78.66,4.53,4.53,0,0,1-1,.36,8.33,8.33,0,0,1-2.13.59,2.44,2.44,0,0,1-1.29-.33q-.33-.09-.66-.15a2.62,2.62,0,0,1-.64-.34,2.94,2.94,0,0,1-.6-.57,1.05,1.05,0,0,1-.19-.4c0-.32,0-.43-.18-.69s-.12-.58-.2-1c-.05-.17-.1-.35-.14-.53s.23-.53.4-.75a1.4,1.4,0,0,1,.65-.62,2.44,2.44,0,0,1,1.2,0,1.65,1.65,0,0,1,.57.22c.29.18.42.44.78.23s.43-.44.66-.64.25-.41.42-.58a5.32,5.32,0,0,0,.55-.61A5.22,5.22,0,0,0,26.49,61a3.86,3.86,0,0,0,.68-3.75c-1-.08-2,.41-3,.08-.68-.5-1.67-.76-2-1.52A3.27,3.27,0,0,1,21.22,54c.29-.78,1.38-.55,2-.68s1.25-.28,1.82-.57c.33-.16.7-.21,1-.39s.63-.39.94-.59a7,7,0,0,1,.95-.56c.36-.16.76-.21,1.11-.4a5,5,0,0,0,.84-.61,2.08,2.08,0,0,0,.88-1.82,5,5,0,0,1-.15-.75,4.18,4.18,0,0,1,.11-.79c.05-.26.12-.52.15-.79s-.06-.67.18-1a2,2,0,0,1,.88-.71,2.71,2.71,0,0,1,.94-.05c.25,0,.56-.17.79-.1s.24.17.4.21a1.08,1.08,0,0,1,.5.15" transform="translate(-13.28 -12.27)" style="fill:#fff"/><g id="fd1df06c-c5b3-4653-b8ac-94f6b382d199" data-name="Group 190"><path id="a18d5cb1-af00-4d13-bdad-9339d7f8f46d" data-name="Path 318" d="M88.61,57.48h-.08a.89.89,0,0,0-.39-.5,1.41,1.41,0,0,0-.73-.18,1.23,1.23,0,0,0-1,.46,2,2,0,0,0-.37,1.3,2.16,2.16,0,0,0,.38,1.37,1.3,1.3,0,0,0,1.08.47,1.67,1.67,0,0,0,.62-.12,2.12,2.12,0,0,0,.56-.33h.08l-.14.52a3.39,3.39,0,0,1-.61.21,3.05,3.05,0,0,1-.67.07,2.25,2.25,0,0,1-1.66-.58,2.06,2.06,0,0,1-.6-1.6A2,2,0,0,1,85.7,57a2.47,2.47,0,0,1,1.71-.58,3.08,3.08,0,0,1,.68.07,3.41,3.41,0,0,1,.68.23,3.57,3.57,0,0,0-.1.35Z" transform="translate(-13.28 -12.27)" style="fill:#fff"/><path id="e1e841e1-1f8d-48be-ba06-0f82ebaa1615" data-name="Path 319" d="M89,59.23a1.4,1.4,0,0,1,1.25-1.54h.28a1.54,1.54,0,0,1,1.12.4,1.5,1.5,0,0,1,.4,1.14,1.53,1.53,0,1,1-3,.19v-.19Zm.9,0a2.54,2.54,0,0,0,.14,1,.57.57,0,0,0,.76.21.6.6,0,0,0,.21-.21,3.28,3.28,0,0,0,0-2,.49.49,0,0,0-.48-.28.48.48,0,0,0-.49.28,2.34,2.34,0,0,0-.15,1Z" transform="translate(-13.28 -12.27)" style="fill:#fff"/><path id="a3e6b6bb-8ce7-485c-be98-3040e726f89c" data-name="Path 320" d="M92.63,60.68c0-.32,0-.6,0-.85s0-.45,0-.6,0-.36,0-.6,0-.53,0-.85h.85v.4a1.16,1.16,0,0,1,.4-.36.93.93,0,0,1,.49-.11.85.85,0,0,1,.85.56,1.18,1.18,0,0,1,.41-.42,1,1,0,0,1,.55-.14.89.89,0,0,1,.4.07.73.73,0,0,1,.3.22.85.85,0,0,1,.18.37,4.57,4.57,0,0,1,0,.83v.38c0,.17,0,.34,0,.53s0,.37,0,.57l-.24,0h-.43l-.23,0c0-.26,0-.51,0-.73s0-.44,0-.64a2.25,2.25,0,0,0-.11-.89.45.45,0,0,0-.76,0,1.6,1.6,0,0,0-.12.75v1c0,.09,0,.26,0,.49v.06l-.24,0h-.42l-.24,0,0-.66c0-.21,0-.41,0-.6a2.63,2.63,0,0,0-.1-1,.4.4,0,0,0-.38-.2.41.41,0,0,0-.38.21,1.74,1.74,0,0,0-.11.75v1c0,.1,0,.26,0,.5v.06l-.22,0h-.66Z" transform="translate(-13.28 -12.27)" style="fill:#fff"/><path id="bcf628c0-c53b-40cc-a66e-667861469995" data-name="Path 321" d="M97.91,60.68c0-.32,0-.6,0-.85s0-.45,0-.6,0-.36,0-.6,0-.53,0-.85h.85v.4a1.25,1.25,0,0,1,.4-.36.93.93,0,0,1,.49-.11.83.83,0,0,1,.85.56,1.18,1.18,0,0,1,.41-.42,1,1,0,0,1,.56-.14.94.94,0,0,1,.4.07.89.89,0,0,1,.3.22,1,1,0,0,1,.17.37,4.57,4.57,0,0,1,0,.83v.38c0,.17,0,.34,0,.53s0,.37,0,.57l-.24,0h-.43l-.23,0c0-.26,0-.51,0-.73s0-.44,0-.64a2.25,2.25,0,0,0-.11-.89.45.45,0,0,0-.76,0,1.74,1.74,0,0,0-.12.75v1c0,.09,0,.26,0,.49v.06l-.24,0h-.43l-.24,0c0-.22,0-.44,0-.66s0-.41,0-.6a3.1,3.1,0,0,0-.1-1,.42.42,0,0,0-.38-.2.39.39,0,0,0-.38.21,1.6,1.6,0,0,0-.12.75v1c0,.1,0,.26,0,.5v.06l-.22,0h-.66Z" transform="translate(-13.28 -12.27)" style="fill:#fff"/><path id="f11b0470-51b8-47bf-bd5a-ca802d9005af" data-name="Path 322" d="M103,59.23a1.61,1.61,0,0,1,1.66-1.54,1.67,1.67,0,0,1,1,.4,1.58,1.58,0,0,1,.4,1.14,1.53,1.53,0,0,1-3.06.19v-.19Zm.9,0a2.54,2.54,0,0,0,.14,1,.57.57,0,0,0,.76.21.6.6,0,0,0,.21-.21,3.28,3.28,0,0,0,0-2,.49.49,0,0,0-.48-.28.48.48,0,0,0-.49.28,2.34,2.34,0,0,0-.15,1Z" transform="translate(-13.28 -12.27)" style="fill:#fff"/><path id="bf401075-24fb-401d-ac5d-9d1c0e998a3f" data-name="Path 323" d="M106.58,60.68c0-.26,0-.52,0-.76s0-.47,0-.69,0-.49,0-.73l0-.73.2,0h.44l.19,0v.42a1.12,1.12,0,0,1,.42-.36,1,1,0,0,1,.52-.12,1.09,1.09,0,0,1,.4.07,1,1,0,0,1,.32.22.69.69,0,0,1,.14.3,2.43,2.43,0,0,1,0,.6v.76c0,.19,0,.37,0,.54s0,.33,0,.49l-.24,0h-.43l-.24,0c0-.18,0-.38,0-.62s0-.51,0-.8a2.28,2.28,0,0,0-.1-.86.47.47,0,0,0-.78,0,1.71,1.71,0,0,0-.12.77v.63q0,.36,0,.84l-.22,0h-.43Z" transform="translate(-13.28 -12.27)" style="fill:#fff"/><path id="b3caefb2-31c4-42ca-ba47-01892d58586c" data-name="Path 324" d="M110.94,60.68c-.18-.66-.37-1.34-.58-2s-.44-1.4-.69-2.12l.24,0h.55l.24,0c.12.51.24,1,.38,1.53s.28,1,.44,1.51l.54-1.57c.17-.5.34-1,.49-1.47l.15,0H113l.15,0c.14.49.29,1,.46,1.47s.34,1,.52,1.53c.17-.49.33-1,.48-1.48s.28-1,.41-1.52l.13,0h.29l.13,0c-.21.62-.44,1.27-.66,2s-.47,1.43-.72,2.2l-.16,0h-.3l-.17,0q-.21-.7-.45-1.44c-.17-.49-.34-1-.53-1.5-.18.46-.36.94-.53,1.43s-.35,1-.51,1.51l-.16,0h-.3Z" transform="translate(-13.28 -12.27)" style="fill:#fff"/><path id="fbbd5434-262b-4ef4-8809-ecff3331f748" data-name="Path 325" d="M116.61,59.24a1.36,1.36,0,0,0,.25.83.83.83,0,0,0,.68.31,1.09,1.09,0,0,0,.4-.07,1.45,1.45,0,0,0,.38-.22l.05,0-.13.34a1.32,1.32,0,0,1-.45.21,2.08,2.08,0,0,1-.55.07,1.5,1.5,0,0,1-1.12-.42,1.65,1.65,0,0,1-.4-1.16,1.48,1.48,0,0,1,.4-1.08,1.45,1.45,0,0,1,1.06-.41,1.29,1.29,0,0,1,1,.35,1.42,1.42,0,0,1,.34,1v.19Zm0-.3h1v-.15a1.21,1.21,0,0,0-.12-.62.35.35,0,0,0-.35-.21.45.45,0,0,0-.42.24,1.25,1.25,0,0,0-.14.68Z" transform="translate(-13.28 -12.27)" style="fill:#fff"/><path id="f9f5c8a7-932b-44af-aee2-a29842a074aa" data-name="Path 326" d="M120.5,60.3a.92.92,0,0,1-.34.34,1,1,0,0,1-.48.12.78.78,0,0,1-.6-.23.83.83,0,0,1-.22-.62.72.72,0,0,1,.15-.47,1,1,0,0,1,.49-.3l.31-.1a2.8,2.8,0,0,0,.65-.27v0s0,0,0-.06a.6.6,0,0,0-.16-.44.53.53,0,0,0-.41-.16.7.7,0,0,0-.38.11,1.19,1.19,0,0,0-.31.36c0-.1,0-.18-.07-.23l-.06-.16a2,2,0,0,1,.53-.35,1.33,1.33,0,0,1,.55-.12,1.22,1.22,0,0,1,.84.26.9.9,0,0,1,.3.72v0l0,1.06v.12a.89.89,0,0,0,.08.48.37.37,0,0,0,.32.1h0v.15a1.31,1.31,0,0,1-.32.1,1.17,1.17,0,0,1-.32,0,.64.64,0,0,1-.36-.11A.56.56,0,0,1,120.5,60.3Zm0-1.22a1.28,1.28,0,0,0-.61.26.64.64,0,0,0-.18.49.59.59,0,0,0,.1.39.31.31,0,0,0,.28.13.34.34,0,0,0,.31-.14.7.7,0,0,0,.11-.42Z" transform="translate(-13.28 -12.27)" style="fill:#fff"/><path id="bb032d78-4c66-4ede-bc14-f880df548de3" data-name="Path 327" d="M122.1,60.68c0-.34,0-.7,0-1.07s0-.77,0-1.2,0-.86,0-1.24,0-.72,0-1.06l.25,0h.41l.24,0q0,.53,0,1.08c0,.37,0,.77,0,1.2s0,.86,0,1.24,0,.72,0,1l-.21,0h-.47Z" transform="translate(-13.28 -12.27)" style="fill:#fff"/><path id="b93f155a-8b2b-462c-b4fe-7461a33b0d23" data-name="Path 328" d="M123.84,58.11h-.41s0,0,0-.06v-.26h0l.31,0h.06a.28.28,0,0,1,0-.09v-.15a2.36,2.36,0,0,0,0-.25c0-.09,0-.2,0-.34l.41-.16.4-.19.07,0c0,.23,0,.43,0,.58s0,.28,0,.36v.19H125l.28,0c0,.05,0,.08,0,.1V58a.88.88,0,0,0,0,.14v0h-.6v.14c0,.42,0,.72,0,.9v.25a2.76,2.76,0,0,0,.07.86.25.25,0,0,0,.26.17,1.36,1.36,0,0,0,.35-.07h0v.23a2.32,2.32,0,0,1-.37.13,1.24,1.24,0,0,1-.33,0,.81.81,0,0,1-.6-.2.84.84,0,0,1-.2-.6s0-.19,0-.53,0-.66,0-1Z" transform="translate(-13.28 -12.27)" style="fill:#fff"/><path id="ad9c53b0-251f-49fc-a604-aaafa63ff0a0" data-name="Path 329" d="M125.71,60.68c0-.21,0-.47,0-.8s0-.77,0-1.37,0-1.13,0-1.48,0-.66,0-.92l.23,0h.43l.23,0c0,.17,0,.35,0,.54s0,.4,0,.61v1a1.05,1.05,0,0,1,.94-.5,1.12,1.12,0,0,1,.4.07.87.87,0,0,1,.31.23.71.71,0,0,1,.15.3,2.83,2.83,0,0,1,0,.58v.76c0,.23,0,.42,0,.58l0,.45-.24,0h-.42l-.24,0c0-.17,0-.38,0-.62s0-.5,0-.8a2,2,0,0,0-.1-.85.37.37,0,0,0-.38-.19.41.41,0,0,0-.4.22,2.06,2.06,0,0,0-.12.78c0,.19,0,.41,0,.66s0,.51,0,.8l-.23,0H126Z" transform="translate(-13.28 -12.27)" style="fill:#fff"/><path id="b15fe2d2-17b1-405f-8688-5fd7e634301c" data-name="Path 330" d="M85.18,67.48c0-.32.09-.59.13-.81s.06-.38.07-.48l.39-2.87h.53c.22.48.45,1,.68,1.43s.48,1,.73,1.41c.24-.45.48-.91.71-1.38s.46-1,.68-1.46h.56L90,66.23c0,.32.07.57.1.76s.06.34.09.49l-.28,0h-.48l-.26,0a.2.2,0,0,0,0-.07c0-.42,0-.69,0-.79l-.2-1.94q-.34.66-.69,1.35c-.22.46-.46.94-.7,1.45H87.3c-.24-.5-.47-1-.7-1.42s-.44-.88-.66-1.28L85.79,66v0c-.08.66-.11,1.12-.12,1.39l-.13,0h-.23Z" transform="translate(-13.28 -12.27)" style="fill:#fff"/><path id="a5ed4641-1df6-4c8e-ab16-3797fb09549c" data-name="Path 331" d="M92.29,67.09a.92.92,0,0,1-.34.34,1,1,0,0,1-.48.12.77.77,0,0,1-.6-.23.8.8,0,0,1-.22-.62.72.72,0,0,1,.15-.47,1,1,0,0,1,.49-.3l.31-.1a3.27,3.27,0,0,0,.65-.26v0s0,0,0-.07a.6.6,0,0,0-.16-.44.53.53,0,0,0-.41-.16.7.7,0,0,0-.38.11,1.19,1.19,0,0,0-.31.36l-.07-.23-.06-.16a2.32,2.32,0,0,1,.53-.35,1.33,1.33,0,0,1,.55-.12,1.22,1.22,0,0,1,.84.26.93.93,0,0,1,.3.72v0l0,1.06v.12a.84.84,0,0,0,.08.47.38.38,0,0,0,.32.1h0v.16l-.32.1-.32,0a.52.52,0,0,1-.36-.11A.51.51,0,0,1,92.29,67.09Zm0-1.22a1.4,1.4,0,0,0-.61.27.6.6,0,0,0-.18.48.63.63,0,0,0,.1.4.36.36,0,0,0,.28.13.37.37,0,0,0,.31-.15.68.68,0,0,0,.11-.42Z" transform="translate(-13.28 -12.27)" style="fill:#fff"/><path id="a082ca0a-ba67-4b0c-bb9b-95ffae087c0d" data-name="Path 332" d="M94.31,67.62v-.05a.52.52,0,0,1-.29-.18.42.42,0,0,1-.1-.3.55.55,0,0,1,.16-.38,1.05,1.05,0,0,1,.45-.3v-.08A1,1,0,0,1,94,66a.8.8,0,0,1-.2-.57.88.88,0,0,1,.34-.72,1.44,1.44,0,0,1,.92-.26l.4,0,.65,0h.26l.29,0v.3l-.51,0H96a.67.67,0,0,1,.24.26.9.9,0,0,1,.08.36.87.87,0,0,1-.37.74,1.71,1.71,0,0,1-1,.27h-.1a.28.28,0,0,0-.19.09.25.25,0,0,0-.07.2c0,.18.29.29.86.31h.11a2.22,2.22,0,0,1,.72.12.78.78,0,0,1,.28.29.91.91,0,0,1,.1.43,1.12,1.12,0,0,1-.47.92,1.91,1.91,0,0,1-1.2.36,1.84,1.84,0,0,1-.95-.21.62.62,0,0,1-.34-.58.59.59,0,0,1,.15-.44A1,1,0,0,1,94.31,67.62Zm.27,0a.54.54,0,0,0-.23.22.63.63,0,0,0-.09.33.64.64,0,0,0,.21.5.83.83,0,0,0,.57.18,1,1,0,0,0,.64-.17.52.52,0,0,0,.24-.47.54.54,0,0,0-.15-.4.88.88,0,0,0-.49-.15Zm0-2.2a1,1,0,0,0,.11.55.42.42,0,0,0,.59.1.38.38,0,0,0,.11-.11,1.27,1.27,0,0,0,.1-.61.84.84,0,0,0-.11-.49.38.38,0,0,0-.33-.16.39.39,0,0,0-.34.19.89.89,0,0,0-.13.53Z" transform="translate(-13.28 -12.27)" style="fill:#fff"/><path id="bff59305-7b3f-4563-95b6-894c9f67a29b" data-name="Path 333" d="M98.49,67.09a.92.92,0,0,1-.34.34,1,1,0,0,1-.48.12.78.78,0,0,1-.6-.23.83.83,0,0,1-.22-.62.72.72,0,0,1,.15-.47,1,1,0,0,1,.49-.3l.31-.1a3.27,3.27,0,0,0,.65-.26v-.11a.6.6,0,0,0-.16-.44.54.54,0,0,0-.42-.16.7.7,0,0,0-.37.11,1.06,1.06,0,0,0-.31.36c0-.1-.06-.17-.08-.23l-.06-.16a2.18,2.18,0,0,1,.54-.35,1.3,1.3,0,0,1,.55-.12,1.22,1.22,0,0,1,.84.26.89.89,0,0,1,.29.72v0l0,1.06v.12a.85.85,0,0,0,.09.47.37.37,0,0,0,.32.1h0v.16l-.32.1a1.66,1.66,0,0,1-.32,0,.53.53,0,0,1-.36-.11A.54.54,0,0,1,98.49,67.09Zm0-1.22a1.4,1.4,0,0,0-.61.27.6.6,0,0,0-.18.48.63.63,0,0,0,.1.4.36.36,0,0,0,.28.13.37.37,0,0,0,.31-.15.68.68,0,0,0,.11-.42Z" transform="translate(-13.28 -12.27)" style="fill:#fff"/><path id="b9a66de5-2fd6-44f3-8ff6-b70c12d065d7" data-name="Path 334" d="M99.75,67.48v-.1l1.07-1.62.56-.87h-.49c-.17,0-.43,0-.78,0H100s0-.05,0-.07v-.2s0,0,0-.06l.57,0h1.27l.56,0v.07c-.15.22-.35.52-.6.91s-.6.92-1,1.59h1.07l.52,0a.31.31,0,0,1,0,.1v.15a.62.62,0,0,0,0,.12l-.58,0h-1.45Z" transform="translate(-13.28 -12.27)" style="fill:#fff"/><path id="b036ff50-93b1-457b-a529-223d9ce80cf1" data-name="Path 335" d="M102.93,63.47a.46.46,0,0,1,.45-.46h0a.46.46,0,0,1,.32.13.42.42,0,0,1,.13.33.39.39,0,0,1-.13.32.47.47,0,0,1-.33.14.46.46,0,0,1-.46-.45Zm0,4q0-.47,0-.81c0-.23,0-.45,0-.65s0-.46,0-.7,0-.48,0-.75h.9q0,.41,0,.75c0,.24,0,.47,0,.7s0,.42,0,.65,0,.5,0,.81l-.23,0h-.44l-.23,0Z" transform="translate(-13.28 -12.27)" style="fill:#fff"/><path id="a9506d11-6ca5-4028-bea8-20994c91ceda" data-name="Path 336" d="M104.61,67.48c0-.27,0-.52,0-.77s0-.46,0-.68,0-.5,0-.74l0-.72h.83V65a1.15,1.15,0,0,1,.42-.37,1.17,1.17,0,0,1,.52-.12.92.92,0,0,1,.4.08.77.77,0,0,1,.32.22.61.61,0,0,1,.14.29,2.43,2.43,0,0,1,0,.6v.76c0,.19,0,.37,0,.54s0,.33,0,.49l-.24,0h-.43l-.24,0c0-.17,0-.38,0-.62s0-.5,0-.8a2,2,0,0,0-.11-.85.47.47,0,0,0-.78,0,1.73,1.73,0,0,0-.12.78c0,.17,0,.38,0,.62s0,.52,0,.84l-.22,0h-.42Z" transform="translate(-13.28 -12.27)" style="fill:#fff"/><path id="e766e233-023b-4c39-9dc5-584bd4dc3479" data-name="Path 337" d="M108.77,66a1.24,1.24,0,0,0,.25.83.8.8,0,0,0,.67.31,1.09,1.09,0,0,0,.4-.07,1.28,1.28,0,0,0,.38-.21l.06,0-.14.34a1.19,1.19,0,0,1-.44.21,2.15,2.15,0,0,1-.56.07,1.46,1.46,0,0,1-1.11-.42,1.55,1.55,0,0,1-.4-1.16,1.42,1.42,0,0,1,.4-1.07,1.39,1.39,0,0,1,1.06-.41,1.27,1.27,0,0,1,1,.34,1.37,1.37,0,0,1,.33,1V66Zm0-.3h1v-.15a1.32,1.32,0,0,0-.12-.62.37.37,0,0,0-.36-.21.44.44,0,0,0-.41.24,1.35,1.35,0,0,0-.15.68Z" transform="translate(-13.28 -12.27)" style="fill:#fff"/></g><g id="e7ddc9db-a083-4c87-bab1-4df53a0aab50" data-name="Group 191"><path id="b287de5b-d4b7-439b-835f-b1ed91d135a8" data-name="Path 338" d="M97.78,50.61v.66H93v1.09H91.72l0-7.49c-.2.31-.4.62-.62.91l-.4-.3c.17-.34.32-.7.46-1.06l-.67.62a9.64,9.64,0,0,0-.79-1.36,9.27,9.27,0,0,1-.93,1.54H89v1.35h2.38v.64H89v.51a12.27,12.27,0,0,1,2.28,1.56l-.85.95A19.4,19.4,0,0,0,89,48.41v4H87.8V48.69a11.37,11.37,0,0,1-2.67,2.78l-.3-.42a12.17,12.17,0,0,0,2.67-3.84H85.15v-.65H87.8V45.22h.38a10.18,10.18,0,0,0,1-3.66l1.16.29A6.86,6.86,0,0,1,90,43.09a6.33,6.33,0,0,1,1.29,1.07,22.54,22.54,0,0,0,.89-5.09l1.3.26A15,15,0,0,1,93,42.06H97.6v.64h-2v1.92h1.64v.64H95.6v2.23h1.66v.64H95.6v2.48ZM85.37,45.86,85,45.53a12.76,12.76,0,0,0,1.43-4l1.15.27A6.48,6.48,0,0,1,87.16,43a6.48,6.48,0,0,1,1.37,1.19l-.81.77c-.25-.49-.51-1-.8-1.42A10.17,10.17,0,0,1,85.37,45.86Zm6-4.46H85.21v-.64H88.4a16.33,16.33,0,0,0-1.57-1.43l.2-.44A8.3,8.3,0,0,1,89.4,40l-.57.8h2.54Zm3,1.3H93v1.92h1.39Zm0,2.56H93v2.23h1.39Zm0,2.87H93v2.48h1.39Zm.37-6.27A21.84,21.84,0,0,0,94,39.23l.46-.23a9.43,9.43,0,0,1,1.45,2.42Z" transform="translate(-13.28 -12.27)" style="fill:#fff"/><path id="aee0a28b-78c7-4740-85bc-b080bb4ac292" data-name="Path 339" d="M105.66,42.15H100.9V41.5h2.19c-.48-.81-1-1.7-1.33-2.17l.35-.36a10.3,10.3,0,0,1,2.2,2l-.74.57h2.09Zm-4.35,1.94v-.6h4v.6Zm4,2h-4v-.6h4Zm1.4,1.33.5.1a6.76,6.76,0,0,1-1.07,3.65l-1-.72v1.73h-1.09v-.84h-1.64v1h-1.12v-4.9h3.85v2.83a5.3,5.3,0,0,0,1.53-2.89Zm-2.63.69h-1.63v2.6h1.63Zm4.8-5.93h-3V41.5h3V39.1h1.29v2.4h3v.65h-3v2.47H113v.64h-6.75v-.64h2.65Zm2.54,6.64c.66,2.35.78,3.26-1.45,3.26s-2.38-.16-2.38-1.7V46.63h1.26v3.49c0,.57.13.76,1,.76s1-.19,1-2.09Zm-2.8-3.49a10.16,10.16,0,0,1,2.55,1.58l-.85.95a25.91,25.91,0,0,0-2-2.11Zm5.06,4.59-1.13.56a21.59,21.59,0,0,0-1.2-3.1l.4-.27a10.3,10.3,0,0,1,1.94,2.81Z" transform="translate(-13.28 -12.27)" style="fill:#fff"/></g><path id="b60c69e4-f095-47e6-ac94-2aef129abbcb" data-name="Path 340" d="M80.66,52.18a2.91,2.91,0,0,0-.82-.66l-.12-.06h0a2.89,2.89,0,0,0-.6-.32c-.33-.09-.69,0-1-.12s-.93-.21-1.41-.29a4.11,4.11,0,0,0-1.78.06,1.71,1.71,0,0,0-.77.39,1.13,1.13,0,0,0-.2.59,3.08,3.08,0,0,0-.07.61,4.36,4.36,0,0,0,.67,2.18,6.81,6.81,0,0,0,.7,1,4.56,4.56,0,0,0,.84.86,2.14,2.14,0,0,1,.71.66c.13.22.15.29.4.39a4.71,4.71,0,0,0,1.34.18,7.06,7.06,0,0,0,1.78,0c.44-.07.52-.38.87-.59s.5-.22.66-.59C82.52,54.76,81.67,53.36,80.66,52.18Z" transform="translate(-13.28 -12.27)" style="fill:#fff"/></g><g id="a0040e9b-fe48-4c07-b893-49abe802fc92" data-name="Group 236"><path id="ae12c015-61e6-4ac1-8933-6a2eeb372489" data-name="Union 1" d="M175,70.37v-3.6a16.66,16.66,0,0,1-7.3-2.47q-7-5.1-7-12.57a17.77,17.77,0,0,1,1-5.6q4.51-9.93,14.54-9.93H199V33.54l-2.36-1.88,1.18-1.48,1.18.94v-5h1.89V28l1.1-.81,1.12,1.53-2.22,1.62v5.8q5-.39,7.34-5.56a10.22,10.22,0,0,0,.55-3.15,8.51,8.51,0,0,0-3.94-7.09A9.1,9.1,0,0,0,200.13,19q-5,0-7.8,4.88a9.57,9.57,0,0,0-.87,4.18V34.3h-6.71v-6a16.91,16.91,0,0,1,1.54-7.41q5-8.65,13.84-8.66a16.13,16.13,0,0,1,8.4,2.52q7,5.1,7,12.57a18.06,18.06,0,0,1-1,5.6q-4.29,9.47-13.62,9.9v4H199V42.88H175.31v0c-3.34.26-5.78,2.12-7.35,5.56a10.22,10.22,0,0,0-.55,3.15,8.51,8.51,0,0,0,3.94,7.09A9.72,9.72,0,0,0,175,60.07V54.45l-2.26-1.59,1.09-1.55,1.17.83V49.7h1.9v4.77l1-1,1.36,1.31-2.31,2.42v2.91q4.41-.37,7-4.86a9.49,9.49,0,0,0,.86-4.17V44.8h6.71v6a16.88,16.88,0,0,1-1.54,7.41q-4.78,8.27-13,8.65v3.56Z" transform="translate(-13.28 -12.27)" style="fill:#65ad33"/><path id="ec22c948-1ffe-4b7f-8d06-98e906e77512" data-name="Union 2" d="M205.31,83a17.88,17.88,0,0,0,1.92-.77h-1.36V79H211v3.2h-1.32c.68.23,1.37.51,1.83.7l-.48.89c-.53-.27-1.42-.65-2.19-1l.33-.64h-1.5l.61.63c-.8.36-1.81.76-2.55,1A7,7,0,0,0,205.31,83Zm1.63-1.41h2.94v-.34h-2.94Zm0-.8h2.94v-.32h-2.94Zm0-.79h2.94v-.32h-2.94Zm10.81,3.8V80.17h6v3.61h-1.23v-.26h-3.55v.29Zm1.19-1.12h3.54v-.43h-3.54Zm0-1.26h3.54V81h-3.54Zm-28.2,1.1c.51,0,1.14,0,1.32,0s.25-.06.25-.23v-5.1h-2.54V76h3.76a21.92,21.92,0,0,0-3-1.08l.6-1a17.55,17.55,0,0,1,3.73,1.3l-.65,1.18c-.2-.12-.42-.23-.64-.34v.89a12.56,12.56,0,0,0,.72,1.88,13.38,13.38,0,0,0,1.94-2l1.11.87a25.77,25.77,0,0,1-2.47,2.07,6.42,6.42,0,0,0,2.82,2.31,4.57,4.57,0,0,0-.84,1.11,7.14,7.14,0,0,1-3.28-3.3v2.44c0,.7-.13,1-.56,1.25a4.65,4.65,0,0,1-1.89.21,5.16,5.16,0,0,0-.41-1.26Zm-12.59,1.26V75.91h-3.66V74.63h9v1.28h-4.08v1.68l.2-.25a22.5,22.5,0,0,1,3.46,2.16l-.89,1.16a21.19,21.19,0,0,0-2.77-1.94v5.07Zm-17.79-1.11a5.56,5.56,0,0,0,3.75-3.61h-3.4v-1.3h3.65c0-.29,0-.56,0-.83V75.87h-3.31v-1.3h8v1.3h-3.45V77c0,.25,0,.52,0,.8h3.87v1.3H166a5.83,5.83,0,0,0,4,3.49,4.58,4.58,0,0,0-.83,1.18,6.66,6.66,0,0,1-4-3.63,6.47,6.47,0,0,1-4,3.66A4.75,4.75,0,0,0,160.36,82.68Zm41.67.77a11.39,11.39,0,0,0,.42-2.59l.92.15a15.3,15.3,0,0,1-.46,2.76,3.94,3.94,0,0,0-.89-.32ZM203.52,81l.79-.15a22.26,22.26,0,0,1,.23,2.46l-.85.16c0-.83-.08-1.65-.17-2.47Zm-15.4,1.23a5.8,5.8,0,0,0,2.22-2.91h-2v-1.2h2.47l.22,0,.81.36a7.76,7.76,0,0,1-2.78,4.74,5.4,5.4,0,0,0-1-.94Zm16.34-1.43.74-.23a14.12,14.12,0,0,1,.5,1.91l-.77.28A16.44,16.44,0,0,0,204.46,80.79Zm.31-.74a9.46,9.46,0,0,0-2.34.48c-.06-.21-.22-.75-.34-1,.24,0,.44-.31.75-.71.12-.16.34-.49.62-.94a3.84,3.84,0,0,0-1.11.22,7.24,7.24,0,0,0-.34-1c.19,0,.35-.27.54-.6a13.92,13.92,0,0,0,1.11-2.64l1,.41a16.69,16.69,0,0,1-1.25,2.59l.65,0a14.44,14.44,0,0,0,.66-1.44l.92.57a19.89,19.89,0,0,1-2,3.29l.93-.11c-.07-.29-.14-.58-.22-.83l.8-.22a14.21,14.21,0,0,1,.54,2.23l-.86.29c0-.15,0-.32-.07-.51Zm12.41-.24V77.12a5.1,5.1,0,0,1-.63.2,6.17,6.17,0,0,0-.65-1,8.33,8.33,0,0,0,4.6-2.58l1.07.4-.15.2a9.64,9.64,0,0,0,4.21,1.92,4,4,0,0,0-.76,1c-.2,0-.42-.13-.63-.19v2.75Zm5.71-1.91c-.2.43-.4.84-.55,1.14h.82V77.7H222.1ZM221.15,79h.94l-.61-.18a8,8,0,0,0,.4-1.16h-.73Zm-1.36-.21-.65.21h1V77.7h-.79a5.1,5.1,0,0,1,.41,1.13Zm-1.6.21h.71a4.47,4.47,0,0,0-.35-1.11l.78-.23h-1.14Zm-.49-2.12h6.17a10.89,10.89,0,0,1-1.38-.65v.27h-3.56v-.21a11.56,11.56,0,0,1-1.23.59Zm2.22-1.2h1.72a9.58,9.58,0,0,1-.85-.7,8.59,8.59,0,0,1-.87.7Zm-14.41,3V76.53h5.83v2.18Zm4.15-.77h.64V77.3h-.64Zm-1.55,0h.66V77.3h-.66Zm-1.62,0h.73V77.3h-.73Zm-.65-1.71v-.76h2v-.36h-2.42V74.3h2.41v-.46h1.18v.46h2.29v.81h-2.29v.36h2v.76Zm12-7.5a5.12,5.12,0,0,1-.76-2.82v-.55h2.39v.45a2.49,2.49,0,0,0,.38,1.48,1.6,1.6,0,0,0,1.31.55,1.77,1.77,0,0,0,1.51-.6,2.71,2.71,0,0,0,.38-1.65V65a3.13,3.13,0,0,0-.38-1.72,2.44,2.44,0,0,0-1.15-.74l-1.74-.62a3.32,3.32,0,0,1-2.2-1.87,5.89,5.89,0,0,1-.36-2.43v-.48A4.25,4.25,0,0,1,218.44,54a3.94,3.94,0,0,1,2.89-1c2.39,0,4,1.55,4,4.32v.55h-2.39v-.45a2.44,2.44,0,0,0-.41-1.53,1.46,1.46,0,0,0-1.26-.55,1.58,1.58,0,0,0-1.17.45,2.37,2.37,0,0,0-.5,1.7,3.6,3.6,0,0,0,.38,1.74,2.2,2.2,0,0,0,1.1.75l1.46.52a4.18,4.18,0,0,1,2.17,1.44,4.53,4.53,0,0,1,.72,2.89v.57a5.38,5.38,0,0,1-1.15,3.7,4.31,4.31,0,0,1-3.1,1.1,4,4,0,0,1-3.35-1.46Zm-23.13.19a4.22,4.22,0,0,1-.83-3V57.23A4,4,0,0,1,195.08,54a4.22,4.22,0,0,1,2.72-1,4.39,4.39,0,0,1,2.89,1.08,4,4,0,0,1,1.08,2.77V58h-2.32V57a2.12,2.12,0,0,0-.31-1.1,1.46,1.46,0,0,0-1.25-.6,1.53,1.53,0,0,0-1.24.55,2.53,2.53,0,0,0-.4,1.65v8.24a2.37,2.37,0,0,0,.31,1.48,1.42,1.42,0,0,0,1.22.6,1.61,1.61,0,0,0,1.33-.57,2.25,2.25,0,0,0,.34-1.36v-.6h2.39V66a4.37,4.37,0,0,1-1,3.06,4.09,4.09,0,0,1-3.13,1.12,3.73,3.73,0,0,1-3-1.26Zm16.63,1-1.91-10.8h-.17l-1.91,10.8h-2.15l-2.63-16.72h2.54l1.33,10.42h.1l1.92-10.42h1.79l1.91,10.42h.14l1.29-10.42h2.54l-2.63,16.72Z" transform="translate(-13.28 -12.27)" style="fill:#4d4d4d"/></g></g></svg>