<svg xmlns="http://www.w3.org/2000/svg" viewBox="0 0 23.468 23.322">
    <path fill="#262626" d="M315.742 181.6h.342a1.942 1.942 0 0 0 .319.011c.251.007.5.026.749.053a11.754 11.754 0 0 1 10.208 9.083 11.373 11.373 0 0 1 .276 2.085 1.84 1.84 0 0 0 .012.318v.306a2.765 2.765 0 0 0-.011.367 11.552 11.552 0 0 1-.145 1.427 11.077 11.077 0 0 1-.8 2.727 11.672 11.672 0 0 1-6.37 6.234 11.3 11.3 0 0 1-2.521.708c-.064.011-.053-.025-.053-.061v-8.061c0-.059.019-.068.072-.068h2.598c.049 0 .073-.01.079-.062.014-.117.034-.233.052-.35l.14-.915.154-1.006q.075-.494.152-.987c.012-.077.014-.077-.063-.077h-3.111c-.061 0-.072-.017-.072-.074v-2.121a2.4 2.4 0 0 1 .073-.6 1.505 1.505 0 0 1 .979-1.1 2.556 2.556 0 0 1 .893-.137h1.393c.044 0 .06-.009.059-.057v-.483-2.286c0-.049-.009-.071-.064-.076-.113-.011-.225-.031-.338-.048-.3-.044-.6-.078-.9-.105-.27-.024-.539-.044-.81-.054a8.732 8.732 0 0 0-1.074.013 4.9 4.9 0 0 0-1.258.272 3.694 3.694 0 0 0-2.093 1.831 4.971 4.971 0 0 0-.522 2.229c-.013.906 0 1.813 0 2.719 0 .066-.02.078-.081.078h-2.83c-.064 0-.075.018-.075.077v3.245c0 .063.016.077.077.076h2.83c.066 0 .078.02.078.081v8.037a.208.208 0 0 0 0 .031c.007.046-.015.049-.053.042l-.552-.1a11.544 11.544 0 0 1-2.639-.9 11.745 11.745 0 0 1-6.432-8.281 11.552 11.552 0 0 1-.215-1.8 2.472 2.472 0 0 0-.012-.355v-.513c0-.026.008-.052.009-.078.008-.244.026-.488.05-.731a11.274 11.274 0 0 1 .407-2.106 11.673 11.673 0 0 1 3.639-5.632 11.687 11.687 0 0 1 5.341-2.6 11.379 11.379 0 0 1 1.8-.212 1.942 1.942 0 0 0 .313-.014z" transform="translate(-304.179 -181.602)"/>
</svg>
