<svg id="efd70203-78e2-4931-9fb7-0a31d7343afd" data-name="圖層 1" xmlns="http://www.w3.org/2000/svg" viewBox="0 0 308.19 473.23"><g id="b76caf62-52fe-4f11-a452-0bf3a95fb4c5" data-name="Group 289"><g id="a59b8b0b-87bd-4255-8a05-30dfc7120752" data-name="Group 285"><g id="f072582b-b89d-4854-be7e-13d7cd607df2" data-name=" 8:00 啟程新竹" style="isolation:isolate"><g style="isolation:isolate"><path d="M83.29,71.76a3,3,0,0,1-1.93-.62,2,2,0,0,1-.77-1.58A2.17,2.17,0,0,1,81,68.24a3.1,3.1,0,0,1,1.06-.9v-.06A2.31,2.31,0,0,1,81,65.35a2,2,0,0,1,.67-1.55,2.44,2.44,0,0,1,1.69-.58,2.38,2.38,0,0,1,1.7.6,2.12,2.12,0,0,1,.63,1.59,2.08,2.08,0,0,1-.31,1.1,3.12,3.12,0,0,1-.77.84v.05A2.45,2.45,0,0,1,86,69.6a1.93,1.93,0,0,1-.74,1.54A2.94,2.94,0,0,1,83.29,71.76Zm0-.93a1.56,1.56,0,0,0,1-.34,1.18,1.18,0,0,0,.39-.93,1.24,1.24,0,0,0-.62-1.14,5.27,5.27,0,0,0-.6-.36c-.18-.09-.45-.2-.8-.35a2,2,0,0,0-1,1.72,1.28,1.28,0,0,0,.45,1A1.64,1.64,0,0,0,83.31,70.83ZM83.82,67a2,2,0,0,0,.75-1.53,1.37,1.37,0,0,0-.34-1,1.2,1.2,0,0,0-.93-.37,1.15,1.15,0,0,0-1.19,1.2,1.21,1.21,0,0,0,.44,1A4.88,4.88,0,0,0,83.82,67Z" transform="translate(-8.03 -10.99)" style="fill:#768e91"/><path d="M89.31,67.09a.8.8,0,0,1-.61.26.83.83,0,0,1-.61-.26.86.86,0,0,1-.25-.64.92.92,0,0,1,.25-.66.83.83,0,0,1,.61-.26.8.8,0,0,1,.61.26.92.92,0,0,1,.25.66A.86.86,0,0,1,89.31,67.09Zm0,4.42a.83.83,0,0,1-.61.25.86.86,0,0,1-.61-.25.88.88,0,0,1-.25-.65.92.92,0,0,1,.25-.66.8.8,0,0,1,.61-.26.77.77,0,0,1,.61.26.92.92,0,0,1,.25.66A.88.88,0,0,1,89.31,71.51Z" transform="translate(-8.03 -10.99)" style="fill:#768e91"/><path d="M94.13,71.76a2.24,2.24,0,0,1-2-1.1,6,6,0,0,1-.71-3.21,5.85,5.85,0,0,1,.71-3.18,2.31,2.31,0,0,1,3.92,0,5.74,5.74,0,0,1,.72,3.17,5.92,5.92,0,0,1-.72,3.21A2.24,2.24,0,0,1,94.13,71.76Zm0-1c1,0,1.44-1.1,1.44-3.29s-.48-3.24-1.44-3.24-1.43,1.08-1.43,3.24S93.18,70.74,94.13,70.74Z" transform="translate(-8.03 -10.99)" style="fill:#768e91"/><path d="M101.09,71.76a2.21,2.21,0,0,1-2-1.1,5.92,5.92,0,0,1-.72-3.21,5.76,5.76,0,0,1,.72-3.18,2.3,2.3,0,0,1,3.91,0,5.74,5.74,0,0,1,.72,3.17,5.92,5.92,0,0,1-.72,3.21A2.22,2.22,0,0,1,101.09,71.76Zm0-1c1,0,1.43-1.1,1.43-3.29s-.47-3.24-1.43-3.24-1.44,1.08-1.44,3.24S100.13,70.74,101.09,70.74Z" transform="translate(-8.03 -10.99)" style="fill:#768e91"/><path d="M118.6,64.25H118a6,6,0,0,1-1.24,2.17,6.67,6.67,0,0,0,2.12,1.25,2.63,2.63,0,0,0-.65.81,6.39,6.39,0,0,1-2.16-1.42,7.15,7.15,0,0,1-2.17,1.18,4,4,0,0,0-.61-.82,7,7,0,0,0,2.14-1.06,7.25,7.25,0,0,1-.86-1.31,6,6,0,0,1-.68.91,3.49,3.49,0,0,0-.55-.52V66.9h-3.48a4.82,4.82,0,0,1-.76,1.71l-.37-.38a3.37,3.37,0,0,0-.38-.32,5.93,5.93,0,0,0,.83-3.49V62.83a23.24,23.24,0,0,0,3.68-.49l.6.73a20.07,20.07,0,0,1-3.31.46v.53h3.19v1.07a7.23,7.23,0,0,0,1.48-3l.91.2c-.09.32-.2.66-.33,1h3.19Zm-6.25,1.82V64.9h-2.2a9.9,9.9,0,0,1-.1,1.17Zm-2.15,6.42v-4h6.74v4h-1.09V72h-4.59v.49Zm5.65-3.11h-4.59v1.69h4.59ZM117,64.25h-1.81a7.71,7.71,0,0,0,.95,1.48A4.68,4.68,0,0,0,117,64.25Z" transform="translate(-8.03 -10.99)" style="fill:#768e91"/><path d="M124.49,68.34l-.6.83c-.1-.18-.39-.62-.88-1.31v4.63h-1V67.94a10.66,10.66,0,0,1-1.43,2.62,5.88,5.88,0,0,0-.51-1,8.24,8.24,0,0,0,1-1.48,12.44,12.44,0,0,0,.81-1.81h-1.59v-1H122V63.81c-.68.12-1.19.2-1.51.24a2.9,2.9,0,0,0-.31-.8,15,15,0,0,0,3.56-.9l.71.8a14.45,14.45,0,0,1-1.44.44v1.74h1.32v1H123v.52c.18.16.44.42.8.78S124.4,68.22,124.49,68.34ZM130.4,70h-2.6v1.3h2.25v.92h-5.57v-.92h2.29V70h-2.66v-.88h2.66V68c-.83.08-1.46.13-1.88.15a2.84,2.84,0,0,0-.26-.8,24.41,24.41,0,0,0,4.62-.64l.67.78a16.4,16.4,0,0,1-2.12.39v1.29h2.6Zm-.54-7.29V66.4h-5.07V62.73Zm-1,2.78V63.62h-3.11v1.89Z" transform="translate(-8.03 -10.99)" style="fill:#768e91"/><path d="M136.87,70.16l-.6.77a12.87,12.87,0,0,0-1.09-1.11v2.66h-1V69.85a8.3,8.3,0,0,1-1.68,1.89,3.12,3.12,0,0,0-.67-.75A6.45,6.45,0,0,0,133,70a7.78,7.78,0,0,0,1-1.35h-1.88v-.89h2.09v-1h-2.12v-.88h1.16a5.45,5.45,0,0,0-.39-1.45l.75-.2h-1.37v-.86h2V62.26h1v1.07h2v.86h-1.36l.79.19c-.28.7-.49,1.19-.62,1.46h1.31v.88h-2.09v1h2v.89h-2v.19l.53.4.73.59Zm-1.24-6h-2a4.87,4.87,0,0,1,.45,1.47l-.66.18h2.47l-.77-.18A9.48,9.48,0,0,0,135.63,64.19Zm6.64,1.72v1h-1.19v5.56h-1V66.88h-1.44V67q0,3.8-1.76,5.56a1.63,1.63,0,0,0-.32-.4,2.94,2.94,0,0,0-.41-.33,4.56,4.56,0,0,0,.8-1.1,5.29,5.29,0,0,0,.46-1.28,8.92,8.92,0,0,0,.18-1.23c0-.36,0-.77,0-1.23V63.08l.7.2a14.18,14.18,0,0,0,3-1l.85.75a16.71,16.71,0,0,1-3.53,1v1.82Z" transform="translate(-8.03 -10.99)" style="fill:#768e91"/><path d="M154.06,64.41v1h-1.58v5.75a1.73,1.73,0,0,1-.12.72.72.72,0,0,1-.41.37,5.65,5.65,0,0,1-1.93.21,3.93,3.93,0,0,0-.35-1.09l1.49,0q.24,0,.24-.24V65.44h-1.47a9.9,9.9,0,0,1-1.1,2,4,4,0,0,0-.9-.64,7,7,0,0,0,.86-1.38h-1.73V72.5H146V65.44h-.34a11.2,11.2,0,0,1-1.12,2,4.89,4.89,0,0,0-1-.63,11.25,11.25,0,0,0,2-4.66l1.1.22c-.17.65-.36,1.31-.6,2h2.81v.83a14.27,14.27,0,0,0,1-3l1,.2c-.18.71-.37,1.38-.58,2Z" transform="translate(-8.03 -10.99)" style="fill:#768e91"/></g></g><g id="bcd8d57d-d966-4ae1-851d-369e0cc17704" data-name="莊子壽帶看E" style="isolation:isolate"><g style="isolation:isolate"><path d="M83.17,175.45v-1.86h1V181h-1v-2.84h-.9a4,4,0,0,1-1,2.89,2.72,2.72,0,0,0-.77-.62,2.91,2.91,0,0,0,.92-2.27h-.75v-.91h2.54v-.92h-2v-2.61h.94v1.71ZM87,172.5H84.34v.84h-1v-.84H80.76v-1h2.55v-.81h1v.81H87v-.81h1v.81h2.64v1H88v.84H87Zm3.76,4.26H88.15v2.92h2.41v1H84.78v-1h2.33v-2.92H84.56v-1h2.55v-2.18h1v2.18h2.61Z" transform="translate(-8.03 -10.99)" style="fill:#768e91"/><path d="M102.56,175.64v1.05H98v3.06a1.62,1.62,0,0,1-.14.74.9.9,0,0,1-.49.39,8,8,0,0,1-2.26.17A3.62,3.62,0,0,0,94.7,180l1.94,0a.51.51,0,0,0,.24-.06.24.24,0,0,0,.07-.2v-3.05H92.41v-1.05H97v-1.78h.6a13.14,13.14,0,0,0,2-1.37h-6v-1h7.06l.23-.06.79.6a13.35,13.35,0,0,1-1.69,1.45A16.58,16.58,0,0,1,98,174.71v.93Z" transform="translate(-8.03 -10.99)" style="fill:#768e91"/><path d="M114.41,177.62H113v.57h1v.73h-1v1.24a1.11,1.11,0,0,1-.08.5.51.51,0,0,1-.3.25,4.45,4.45,0,0,1-1.32.12,3.76,3.76,0,0,0-.26-.78l.86,0a.13.13,0,0,0,.14-.14v-1.21h-2.12a4.85,4.85,0,0,1,1,1l-.71.53a4.64,4.64,0,0,0-1-1.12l.6-.44h-1v-.73H112v-.57h-7.92v-.78h10.29Zm-.6-2.12-.88-.16c.13-.55.2-.88.23-1h-8.77v-.75h9l.16,0,.73.13C114.15,174.37,114,175,113.81,175.5Zm-5.1-3V172h-4.2v-.69h4.2v-.62h1.05v.62h4.31V172h-4.31v.49h3.41v.66h-7.8v-.66Zm-.26,5.55v2.38H105.9v.36H105v-2.74Zm-3.32-2.23h3.59v-.48H106v-.58h6.42v.58h-2.67v.48h3.64v.59h-8.25Zm2.39,2.91H105.9v1h1.62Z" transform="translate(-8.03 -10.99)" style="fill:#768e91"/><path d="M119.54,172.83h-.84a2.76,2.76,0,0,1-1.9,2.17,2.7,2.7,0,0,0-.59-.68,2,2,0,0,0,1.54-1.49h-1.62V172h1.67v-1.15h.93V172h.81v-1.13h.91V172h1.22v-1.13h1V172h.83v-1.15h.94V172H126v.81h-1.62v.81a.56.56,0,0,0,0,.24.25.25,0,0,0,.17.05h.5c.08,0,.13-.05.16-.16a3.7,3.7,0,0,0,.06-.72,2.44,2.44,0,0,0,.82.34,2.17,2.17,0,0,1-.27,1.05.76.76,0,0,1-.67.29h-.77a1,1,0,0,1-.78-.23,1.43,1.43,0,0,1-.19-.86v-.81h-.83v1.77h-3.08Zm-3.21,4.54V175.1h9.54v2.27h-1V176h-3.34v1h3.29v2.38c0,.47-.16.77-.48.89a6.27,6.27,0,0,1-1.75.15,3,3,0,0,0-.32-.9l1.3,0c.15,0,.22-.07.22-.19v-1.52h-2.26V181h-1v-3.21h-2.07v2.55h-1V177h3.08v-1h-3.2v1.41Zm5.34-4.54h-1.22v1h1.22Z" transform="translate(-8.03 -10.99)" style="fill:#768e91"/><path d="M137.76,175h-6.12l-.37.65h5.41v5.42h-1v-.43h-4.5v.43h-1v-3.94a7.86,7.86,0,0,1-1.88,1.5,3,3,0,0,0-.64-.82,7.55,7.55,0,0,0,2.83-2.81h-2.53v-.83h3c.08-.15.19-.37.32-.67h-2.5v-.82h2.77a4.4,4.4,0,0,0,.2-.64c-1.1,0-2.07.06-2.92.06a2.09,2.09,0,0,0-.19-.8,48.42,48.42,0,0,0,7.85-.51l.62.76a40,40,0,0,1-4.21.44s-.07.23-.22.69h4.51v.82h-4.79c-.08.19-.17.41-.3.67h5.72Zm-2.12,2.1v-.64h-4.5v.64Zm-4.5.7v.63h4.5v-.63Zm0,2h4.5v-.68h-4.5Z" transform="translate(-8.03 -10.99)" style="fill:#768e91"/><path d="M140.1,180.14v-8.26H145V173h-3.58v2.31h3v1.09h-3v2.68h3.7v1.09Z" transform="translate(-8.03 -10.99)" style="fill:#768e91"/></g></g><g id="a9631bf5-56af-40e5-96f3-f8cd783934c9" data-name="高孟華介紹S" style="isolation:isolate"><g style="isolation:isolate"><path d="M86.16,150h4.36v.91H80.84V150H85.1v-1h1.06Zm4,4.39v3.73a1.6,1.6,0,0,1-.11.64.71.71,0,0,1-.39.35,6.13,6.13,0,0,1-1.85.17,2.88,2.88,0,0,0-.33-1h-3v.54h-.91v-3h4.25v2.42a9.84,9.84,0,0,0,1.06,0c.15,0,.23-.07.23-.2v-2.84H82.33v4h-1v-4.92Zm-7.48-2.94h6v2.34h-6Zm5,1.63v-.91h-4v.91Zm-.77,4.51v-1H84.47v1Z" transform="translate(-8.03 -10.99)" style="fill:#768e91"/><path d="M101.21,158.09h1.34V159H92.41v-.92h1.35v-2.8h7.45ZM97,153.88v-1.15h-4.4v-.87H97v-.75h.39a10,10,0,0,0,1.58-.78H94.1v-.88h6l.19-.06.63.5a11.9,11.9,0,0,1-2.86,1.74v.23h4.29v.87H98.09v1.18a1.13,1.13,0,0,1-.13.61.8.8,0,0,1-.44.31,6.86,6.86,0,0,1-1.87.17,3.49,3.49,0,0,0-.49-.93c.76,0,1.28,0,1.57,0S97,154,97,153.88Zm-2.27,2.23v2h1.19v-2Zm3.33,0H96.86v2h1.19Zm2.15,0H99v2h1.2Z" transform="translate(-8.03 -10.99)" style="fill:#768e91"/><path d="M114.29,154.37h-2v.94h1.41v.87h-4V157h4.43v.92h-4.43v1.41h-1v-1.41h-4.31V157h4.31v-.82h-3.79v-.87h1.33v-.94h-2v-.89h2v-.91h-1.18v-.86h8.46v.86h-1.26v.91h2Zm-7.49-2.94v-.77h-2.43v-.92h2.43V149h1v.72h2.81V149h1v.72h2.52v.92h-2.52v.77h-1v-.77h-2.81v.77Zm.44,1.14v.91h1.48v-.91Zm0,2.74h1.48v-.94h-1.48Zm4.05-1.83v-.91h-1.55v.91Zm0,1.83v-.94h-1.55v.94Z" transform="translate(-8.03 -10.99)" style="fill:#768e91"/><path d="M121,150.07a10.26,10.26,0,0,1-1.89,2.22,13.66,13.66,0,0,1-2.63,1.89,3.17,3.17,0,0,0-.64-.86,11.08,11.08,0,0,0,2.68-1.93,9.59,9.59,0,0,0,1.88-2.39h1.1a10.88,10.88,0,0,0,2.14,2.48,10.35,10.35,0,0,0,2.64,1.68,5.44,5.44,0,0,0-.66,1A13.85,13.85,0,0,1,123,152.3,10.48,10.48,0,0,1,121,150.07Zm-2.47,3h1.07v1.48c0,.37,0,.7,0,1a6.4,6.4,0,0,1-.19,1,4.34,4.34,0,0,1-.4,1,4.45,4.45,0,0,1-.72.94,5.7,5.7,0,0,1-1.1.87,3,3,0,0,0-.4-.41,2.65,2.65,0,0,0-.45-.34,5,5,0,0,0,1.19-.93,3.31,3.31,0,0,0,.69-1.07,5.54,5.54,0,0,0,.28-1,6.51,6.51,0,0,0,.07-1.05Zm3.89,0h1.09v6.33h-1.09Z" transform="translate(-8.03 -10.99)" style="fill:#768e91"/><path d="M128.19,155.45l.89.15a9.3,9.3,0,0,1-.76,2.86,3.13,3.13,0,0,0-.78-.39A8.21,8.21,0,0,0,128.19,155.45Zm2.1-2.54.7-.28a7.47,7.47,0,0,1,1,2.32l-.76.33q0-.15-.18-.6l-.73,0v4.62h-.93v-4.56c-.69,0-1.26.07-1.7.1l-.09-.93.79,0c.4-.55.62-.85.64-.89a10.14,10.14,0,0,0-1.39-1.56l.5-.68.31.25a10.87,10.87,0,0,0,.92-2l.92.36c-.5,1-.92,1.69-1.27,2.23.2.22.38.43.53.62.37-.59.72-1.23,1.07-1.92l.86.39a34.48,34.48,0,0,1-2.16,3.19l1.41-.07C130.65,153.6,130.5,153.3,130.29,152.91Zm.26,2.69.76-.25a10.53,10.53,0,0,1,.7,2l-.79.26A10.39,10.39,0,0,0,130.55,155.6Zm1.55-6h5.63c0,.18,0,.32,0,.4,0,1.25-.09,2.12-.14,2.62a2,2,0,0,1-.28,1,1,1,0,0,1-.75.35,8.84,8.84,0,0,1-1.31,0,2.21,2.21,0,0,0-.3-1c.32,0,.7,0,1.15,0,.18,0,.3,0,.36-.11a6.88,6.88,0,0,0,.28-2.38H134.8a5.75,5.75,0,0,1-.74,2.24,3.8,3.8,0,0,1-1.77,1.46,2.28,2.28,0,0,0-.61-.78,3.14,3.14,0,0,0,1.49-1.15,4.26,4.26,0,0,0,.61-1.77H132.1Zm.41,9.75v-4.64h5v4.59h-1v-.49h-3v.54Zm4-3.72h-3v2.26h3Z" transform="translate(-8.03 -10.99)" style="fill:#768e91"/><path d="M142.46,158.58a3.94,3.94,0,0,1-2.94-1.21l.77-.89a3,3,0,0,0,2.19,1,1.87,1.87,0,0,0,1.15-.32,1,1,0,0,0,.42-.85,1.32,1.32,0,0,0-.08-.47.94.94,0,0,0-.32-.35,2.76,2.76,0,0,0-.37-.24c-.1-.06-.29-.14-.56-.26l-1.15-.49a2.33,2.33,0,0,1-1.68-2.17,2,2,0,0,1,.78-1.63,2.91,2.91,0,0,1,1.94-.65,3.39,3.39,0,0,1,1.37.28,3.31,3.31,0,0,1,1.13.76l-.68.83a2.69,2.69,0,0,0-1.82-.74,1.58,1.58,0,0,0-1,.29,1,1,0,0,0-.28,1.23,1.12,1.12,0,0,0,.34.35l.39.23.51.21,1.13.48a3.46,3.46,0,0,1,1.25.87,2,2,0,0,1,.44,1.37,2.18,2.18,0,0,1-.8,1.71A3.13,3.13,0,0,1,142.46,158.58Z" transform="translate(-8.03 -10.99)" style="fill:#768e91"/></g></g><g id="b040e647-aad7-448d-b5b6-53d34f1f5aca" data-name="台積電何麗梅介紹G" style="isolation:isolate"><g style="isolation:isolate"><path d="M87,129.13l.81-.61a20.29,20.29,0,0,1,1.77,1.6,8.73,8.73,0,0,1,1.26,1.54l-.92.7a6.46,6.46,0,0,0-.76-1.05l-8.22.36-.08-1.06,1.69-.05a20.89,20.89,0,0,0,1.77-3.31l1.17.4c-.52,1-1.09,1.95-1.69,2.87l4.48-.19C87.77,129.85,87.34,129.46,87,129.13Zm-4.88,8.48V132.8h7.23v4.8H88.18v-.46h-5v.47Zm6.1-3.82h-5v2.34h5Z" transform="translate(-8.03 -10.99)" style="fill:#768e91"/><path d="M96.51,133.37l-.6.82a9.8,9.8,0,0,0-.82-1.22v4.63h-1v-4.46a10.85,10.85,0,0,1-1.4,2.54,5.09,5.09,0,0,0-.51-1A10.84,10.84,0,0,0,94,131.36H92.45v-1h1.63v-1.5c-.52.1-1,.17-1.42.22a2.53,2.53,0,0,0-.3-.81,14,14,0,0,0,3.38-.82l.73.8a13.4,13.4,0,0,1-1.38.41v1.7h1.13v-.18h2.64v-.5H96.8v-.64h2.06v-.49H96.57v-.68h2.29v-.57h1v.57h2.43v.68H99.9v.49h2.17v.64H99.9v.5h2.7v.68H96.28v.49H95.09v.55c.18.16.44.41.77.75S96.41,133.24,96.51,133.37Zm5.49-2v4.46H98.27l.76.5a8.19,8.19,0,0,1-2.66,1.34,5.26,5.26,0,0,0-.67-.66,8.32,8.32,0,0,0,1.35-.52,5.09,5.09,0,0,0,1.08-.66H97v-4.46Zm-1,1.27V132H97.89v.6Zm0,1.26v-.61H97.89v.61Zm0,1.26v-.62H97.89v.62Zm-1.13,1.18.7-.51c.85.48,1.55.92,2.12,1.31l-.91.5A21.77,21.77,0,0,0,99.9,136.33Z" transform="translate(-8.03 -10.99)" style="fill:#768e91"/><path d="M108.73,132.3v-2.46h-3.31v1.48h-.94v-2.2h4.25v-.57h-3.57v-.8h8.18v.8h-3.6v.57h4.32v2.2h-1v-1.48h-3.35v2.46Zm1.77,4.43h2.34a.59.59,0,0,0,.55-.22,2.91,2.91,0,0,0,.18-1,1.77,1.77,0,0,0,.89.34,2.45,2.45,0,0,1-.41,1.37,1.53,1.53,0,0,1-1.16.34h-2.46a2.63,2.63,0,0,1-1.4-.25,1.2,1.2,0,0,1-.36-1v-.21h-2.2v.54h-1v-4h7.61v3.43h-3.41v.21c0,.2,0,.33.15.38A1.9,1.9,0,0,0,110.5,136.73Zm-4.79-4.66v-.6h2.52v.6Zm.23-1.73h2.28V131h-2.28Zm2.73,3h-2.2V134h2.2Zm-2.2,1.95h2.2v-.64h-2.2Zm5.59-1.3v-.65h-2.39V134Zm-2.39,1.3h2.39v-.64h-2.39Zm.58-5h2.3V131h-2.3Zm0,1.73v-.6h2.59v.6Z" transform="translate(-8.03 -10.99)" style="fill:#768e91"/><path d="M118.38,127.33l1,.29a15.42,15.42,0,0,1-1,2.17v7.82h-1v-6.13a11.52,11.52,0,0,1-.93,1.16,6.26,6.26,0,0,0-.56-1.06,10.19,10.19,0,0,0,1.41-1.9A13.54,13.54,0,0,0,118.38,127.33Zm7.85,1v1h-.76v6.95a1.73,1.73,0,0,1-.13.76.79.79,0,0,1-.46.37,6.88,6.88,0,0,1-2.25.2,3.56,3.56,0,0,0-.35-1.06l1.84,0a.4.4,0,0,0,.24-.07.29.29,0,0,0,.07-.23v-6.94h-5.11v-1Zm-3.08,6.33h-2.59v.76h-1v-4.68h3.58Zm-1-3h-1.62v2.11h1.62Z" transform="translate(-8.03 -10.99)" style="fill:#768e91"/><path d="M135.21,136.73h1.51q.28,0,.36-.18a2.37,2.37,0,0,0,.11-.83,2.36,2.36,0,0,0,.85.33,2.23,2.23,0,0,1-.32,1.15,1.11,1.11,0,0,1-.89.3H135.1a1.9,1.9,0,0,1-1.11-.23,1.1,1.1,0,0,1-.28-.89v-2h-2.64V135h2.21v.73h-2.21v.8l2.29-.21v.74l-4.14.4-.07-.78.94-.08V134.4h-.66a6.36,6.36,0,0,1-1.09,3.25,3.19,3.19,0,0,0-.76-.64,6.7,6.7,0,0,0,.95-4v-1.91h3.93v-.32h-.94v-1.42h-2.15v1.44h-.89v-2.05h4v1.74h.89v.61h4.33v.73h-2.94v.52h2.64v2h-2.71v.83a14.36,14.36,0,0,0,2.33-.62l.63.62a17.85,17.85,0,0,1-3,.66v.49c0,.15,0,.24.1.29A.93.93,0,0,0,135.21,136.73Zm-2.55-9v.7h-4.5v-.7Zm-1.51,5.38h-1.64c0,.29,0,.51,0,.66h1.65Zm0-1.2h-1.64v.52h1.64Zm-1.05-2.21h.7v1.13h-.7Zm3.71,2.73v-.52H132.1v.52Zm-1.71,1.34h1.71v-.66H132.1Zm5.61-6v.7h-4.56v-.7Zm-.26,3.13h-1v-1.42h-2.21v1.44h-.9v-2.05h4.07Zm-1,2.25h-1.67v.66h1.67Zm-.68-2.28H135v-1.13h.71Z" transform="translate(-8.03 -10.99)" style="fill:#768e91"/><path d="M149.89,133.68h-.72c0,.39-.07.92-.13,1.59h.74v.88h-.84a2.61,2.61,0,0,1-.34,1.06,1,1,0,0,1-.75.38,7.74,7.74,0,0,1-1.24,0,1.82,1.82,0,0,0-.23-.81c.3,0,.65,0,1.05,0a.42.42,0,0,0,.36-.17,1.19,1.19,0,0,0,.18-.51h-3.35l-.08.45-1-.06c.19-1,.34-2,.46-2.86h-.7v-.18l-.45.75a12.35,12.35,0,0,0-.78-1.37v4.73h-1V133a11.58,11.58,0,0,1-1.22,2.69,4,4,0,0,0-.51-.92,10.21,10.21,0,0,0,.95-1.88,14,14,0,0,0,.71-2.26h-1.41v-1h1.48v-2.32h1v2.32h1.26v.55a7.89,7.89,0,0,0,1.42-2.89l1,.23a12.09,12.09,0,0,1-.39,1.16h4.31v.93H145c-.07.14-.24.42-.48.82h4.83c0,.22,0,.36,0,.44,0,.28,0,.66,0,1.14s0,.75,0,.8h.68Zm-6.56-.87h.82c.13-1.09.22-1.86.26-2.31a4.34,4.34,0,0,1-.54.67,4.69,4.69,0,0,0-.68-.58H142.1v1l1.23,1.56Zm1.42,2.46h3.35c.06-.62.1-1.15.13-1.59H145C144.94,134,144.87,134.54,144.75,135.27Zm3.59-4h-3.06c0,.13,0,.37-.08.72s-.08.62-.1.81H147a5.93,5.93,0,0,0-1.37-1l.57-.47a5.59,5.59,0,0,1,1.4.94l-.55.51h1.2Q148.29,132.5,148.34,131.28Zm-.84,3.45-.59.53a6.37,6.37,0,0,0-1.38-1.08l.57-.46A7.16,7.16,0,0,1,147.5,134.73Z" transform="translate(-8.03 -10.99)" style="fill:#768e91"/><path d="M156.38,128.37a10,10,0,0,1-1.89,2.21,14,14,0,0,1-2.63,1.9,3.26,3.26,0,0,0-.65-.87,11.08,11.08,0,0,0,2.69-1.92,9.34,9.34,0,0,0,1.87-2.4h1.11a10.39,10.39,0,0,0,2.13,2.48,10.27,10.27,0,0,0,2.65,1.69,4.64,4.64,0,0,0-.67.95,13.35,13.35,0,0,1-2.63-1.82A10.41,10.41,0,0,1,156.38,128.37Zm-2.47,3H155v1.48c0,.36,0,.69,0,1a5.23,5.23,0,0,1-.18,1,4.93,4.93,0,0,1-.4,1,4.68,4.68,0,0,1-.72.93,5.34,5.34,0,0,1-1.1.87,4.89,4.89,0,0,0-.4-.41,3,3,0,0,0-.46-.33,5.63,5.63,0,0,0,1.2-.94,3.18,3.18,0,0,0,.68-1.07,5.34,5.34,0,0,0,.29-1,8.14,8.14,0,0,0,.07-1Zm3.89-.06h1.09v6.33H157.8Z" transform="translate(-8.03 -10.99)" style="fill:#768e91"/><path d="M163.56,133.74l.89.15a9.51,9.51,0,0,1-.76,2.86,3.41,3.41,0,0,0-.79-.39A7.93,7.93,0,0,0,163.56,133.74Zm2.09-2.53.7-.29a7.06,7.06,0,0,1,1,2.33l-.75.32c0-.1-.09-.3-.19-.6l-.72.05v4.61h-.93v-4.56l-1.7.1-.09-.92.79,0,.63-.89a9.67,9.67,0,0,0-1.39-1.57l.51-.68.3.25a10.87,10.87,0,0,0,.92-2l.92.37a24.66,24.66,0,0,1-1.27,2.22,7,7,0,0,1,.54.63c.37-.6.72-1.23,1.06-1.92l.87.38a34.48,34.48,0,0,1-2.16,3.19l1.4-.06A9.72,9.72,0,0,0,165.65,131.21Zm.27,2.68.75-.25a10.31,10.31,0,0,1,.7,2l-.79.26A10.32,10.32,0,0,0,165.92,133.89Zm1.54-6h5.64c0,.19,0,.32,0,.41q-.08,1.86-.15,2.61a2.12,2.12,0,0,1-.27,1,1.11,1.11,0,0,1-.76.35,10.35,10.35,0,0,1-1.3,0,2.14,2.14,0,0,0-.31-1c.32,0,.71,0,1.15,0a.45.45,0,0,0,.36-.11,6.8,6.8,0,0,0,.29-2.38h-1.92a5.7,5.7,0,0,1-.74,2.23,3.79,3.79,0,0,1-1.77,1.46,2.41,2.41,0,0,0-.61-.78,3.12,3.12,0,0,0,1.49-1.14,4.51,4.51,0,0,0,.61-1.77h-1.69Zm.42,9.75V133h5v4.6h-1v-.5h-3v.54Zm4-3.72h-3v2.26h3Z" transform="translate(-8.03 -10.99)" style="fill:#768e91"/><path d="M178.84,136.88a3.61,3.61,0,0,1-2.76-1.14,4.39,4.39,0,0,1-1.06-3.12,4.46,4.46,0,0,1,1.08-3.15,3.66,3.66,0,0,1,2.78-1.16,3.26,3.26,0,0,1,2.45,1l-.71.84a2.38,2.38,0,0,0-3.56.1,3.44,3.44,0,0,0-.7,2.29,3.63,3.63,0,0,0,.67,2.33,2.36,2.36,0,0,0,1.95.84,1.91,1.91,0,0,0,1.3-.41V133.4h-1.64v-1.06h2.81v3.57a3.06,3.06,0,0,1-1.11.7A4,4,0,0,1,178.84,136.88Z" transform="translate(-8.03 -10.99)" style="fill:#768e91"/></g></g><g id="b1539b28-14a7-493d-b1d2-53f51dd0f422" data-name="台積電ESG參訪:" style="isolation:isolate"><g style="isolation:isolate"><path d="M87,107.43l.81-.62a20.43,20.43,0,0,1,1.77,1.61A8.37,8.37,0,0,1,90.8,110l-.92.7a7.46,7.46,0,0,0-.76-1.05L80.9,110l-.08-1,1.69-.06a20.46,20.46,0,0,0,1.77-3.31l1.17.41c-.52,1-1.09,2-1.69,2.86l4.48-.19C87.77,108.15,87.34,107.75,87,107.43Zm-4.88,8.47v-4.81h7.23v4.8H88.18v-.46h-5v.47Zm6.1-3.81h-5v2.33h5Z" transform="translate(-8.03 -10.99)" style="fill:#768e91"/><path d="M96.51,111.66l-.6.82a9.17,9.17,0,0,0-.82-1.21v4.62h-1v-4.46a10.85,10.85,0,0,1-1.4,2.54,5.09,5.09,0,0,0-.51-1A10.84,10.84,0,0,0,94,109.65H92.45v-1h1.63v-1.5c-.52.09-1,.16-1.42.21a2.71,2.71,0,0,0-.3-.81,13.56,13.56,0,0,0,3.38-.82l.73.8q-.63.23-1.38.42v1.7h1.13v-.19h2.64V108H96.8v-.65h2.06v-.48H96.57v-.68h2.29v-.57h1v.57h2.43v.68H99.9v.48h2.17V108H99.9v.49h2.7v.68H96.28v.49H95.09v.55c.18.16.44.42.77.76S96.41,111.54,96.51,111.66Zm5.49-2v4.47H98.27l.76.49A8.41,8.41,0,0,1,96.37,116a4.68,4.68,0,0,0-.67-.67,7.49,7.49,0,0,0,1.35-.52,4.72,4.72,0,0,0,1.08-.65H97v-4.47Zm-1,1.28v-.61H97.89v.61Zm0,1.26v-.62H97.89v.62Zm0,1.26v-.63H97.89v.63Zm-1.13,1.17.7-.5c.85.48,1.55.91,2.12,1.3l-.91.51A21.56,21.56,0,0,0,99.9,114.62Z" transform="translate(-8.03 -10.99)" style="fill:#768e91"/><path d="M108.73,110.6v-2.47h-3.31v1.48h-.94v-2.19h4.25v-.57h-3.57v-.8h8.18v.8h-3.6v.57h4.32v2.19h-1v-1.48h-3.35v2.47ZM110.5,115h2.34a.59.59,0,0,0,.55-.23,2.89,2.89,0,0,0,.18-1,1.86,1.86,0,0,0,.89.34,2.41,2.41,0,0,1-.41,1.36,1.53,1.53,0,0,1-1.16.35h-2.46a2.61,2.61,0,0,1-1.4-.26,1.17,1.17,0,0,1-.36-1v-.21h-2.2v.54h-1v-4h7.61v3.43h-3.41v.21c0,.19,0,.32.15.37A1.63,1.63,0,0,0,110.5,115Zm-4.79-4.66v-.61h2.52v.61Zm.23-1.74h2.28v.62h-2.28Zm2.73,3h-2.2v.66h2.2Zm-2.2,2h2.2V113h-2.2Zm5.59-1.29v-.66h-2.39v.66Zm-2.39,1.29h2.39V113h-2.39Zm.58-5h2.3v.62h-2.3Zm0,1.74v-.61h2.59v.61Z" transform="translate(-8.03 -10.99)" style="fill:#768e91"/><path d="M116.53,115v-8.27h4.89v1.1h-3.59v2.3h3v1.09h-3v2.68h3.71V115Z" transform="translate(-8.03 -10.99)" style="fill:#768e91"/><path d="M126.18,115.17a3.94,3.94,0,0,1-2.94-1.21l.76-.9a3.07,3.07,0,0,0,2.2,1,1.87,1.87,0,0,0,1.15-.32,1,1,0,0,0,.42-.85,1.09,1.09,0,0,0-.09-.47.86.86,0,0,0-.31-.36,2.76,2.76,0,0,0-.38-.24l-.55-.25-1.15-.49a2.33,2.33,0,0,1-1.68-2.17,2.06,2.06,0,0,1,.77-1.63,2.91,2.91,0,0,1,2-.65,3.56,3.56,0,0,1,2.5,1l-.68.83a2.66,2.66,0,0,0-1.82-.74,1.62,1.62,0,0,0-1,.29.92.92,0,0,0-.37.78.87.87,0,0,0,.1.44.81.81,0,0,0,.34.35l.38.24.51.21,1.13.48a3.34,3.34,0,0,1,1.25.87,2,2,0,0,1,.44,1.37,2.17,2.17,0,0,1-.79,1.71A3.13,3.13,0,0,1,126.18,115.17Z" transform="translate(-8.03 -10.99)" style="fill:#768e91"/><path d="M134.58,115.17a3.61,3.61,0,0,1-2.77-1.14,4.35,4.35,0,0,1-1.06-3.11,4.39,4.39,0,0,1,1.09-3.15,3.59,3.59,0,0,1,2.77-1.16,3.26,3.26,0,0,1,2.46,1l-.72.83a2.28,2.28,0,0,0-1.7-.74,2.31,2.31,0,0,0-1.86.84,3.46,3.46,0,0,0-.7,2.29,3.61,3.61,0,0,0,.67,2.33,2.36,2.36,0,0,0,2,.84,1.89,1.89,0,0,0,1.3-.41v-1.94h-1.64v-1.06h2.82v3.57a3.2,3.2,0,0,1-1.12.7A4,4,0,0,1,134.58,115.17Z" transform="translate(-8.03 -10.99)" style="fill:#768e91"/><path d="M149.25,110.21l-.79.34a4.13,4.13,0,0,0-.26-.51l-1.88.18a9.91,9.91,0,0,0,3.07,1.37,6.24,6.24,0,0,0-.5.81,12.11,12.11,0,0,1-2.7-1.24,8.11,8.11,0,0,1-2.09-1.75,8.06,8.06,0,0,1-2,1.74,12.17,12.17,0,0,1-2.71,1.33,3.38,3.38,0,0,0-.48-.74,10.47,10.47,0,0,0,3.1-1.59l-1.49.13-1.31.12-.08-.78.87-.05a11.06,11.06,0,0,0,.7-1.56l.94.24-.34.58-.4.67,1.15-.08c-.11-.19-.23-.38-.36-.58l.74-.23a4.37,4.37,0,0,1,.47.78,6.05,6.05,0,0,0,.68-.78h.9a7,7,0,0,0,.9.91h.1a14.24,14.24,0,0,0,.58-1.55l.95.22c-.19.41-.42.84-.67,1.29l1.42-.08-.46-.57.72-.31A6.53,6.53,0,0,1,149.25,110.21Zm-9.31-2.34-.05-.87,1.79,0a8.21,8.21,0,0,0,.78-1.4l1.1.18a13.49,13.49,0,0,1-.8,1.18c.36,0,.9,0,1.61,0l1.45-.06c-.31-.23-.58-.42-.83-.58l.77-.38a14.16,14.16,0,0,1,2.51,2l-.83.44a9,9,0,0,0-.69-.68Q143.24,107.75,139.94,107.87Zm6.94,4.94.86.42q-1.91,2-6.81,2.68a2.54,2.54,0,0,0-.49-.84Q145.23,114.53,146.88,112.81Zm-1.27-1.11.8.4a11.61,11.61,0,0,1-4.9,2.1,4.32,4.32,0,0,0-.54-.73,17,17,0,0,0,2.66-.73A7.25,7.25,0,0,0,145.61,111.7Zm-1.19-1,.74.37a10.54,10.54,0,0,1-3.56,1.68,4,4,0,0,0-.59-.63,14.49,14.49,0,0,0,1.9-.62A7.15,7.15,0,0,0,144.42,110.65Z" transform="translate(-8.03 -10.99)" style="fill:#768e91"/><path d="M154.94,107.46v.83h-4.17v-.83Zm6.2,1.1h-3.35c0,.68-.06,1.2-.09,1.54h3c0,.22,0,.37,0,.45-.07,1.67-.15,2.85-.23,3.55a2.6,2.6,0,0,1-.39,1.34,1.13,1.13,0,0,1-.82.42,8.79,8.79,0,0,1-1.43,0,2.32,2.32,0,0,0-.31-1q.66.06,1.26.06a.49.49,0,0,0,.4-.16q.32-.36.45-3.69h-2a7.39,7.39,0,0,1-2.25,4.85,2.42,2.42,0,0,0-.7-.73v.1h-2.48v.47h-.9V112h3.38v3.08a4.28,4.28,0,0,0,.77-.82,4.91,4.91,0,0,0,.55-1,10.23,10.23,0,0,0,.35-1.07,8.55,8.55,0,0,0,.23-1.2c.05-.45.09-.84.11-1.19s0-.76.06-1.23h-1.65v-1h2.44v-1.95h1.08v1.95h2.54Zm-6.47.43v.81H151.3V109Zm-3.37,2.31v-.82h3.37v.82Zm3.33-5.32v.81h-3.29V106Zm-.88,8.48v-1.63h-1.57v1.63Z" transform="translate(-8.03 -10.99)" style="fill:#768e91"/><path d="M164.4,110.5a.78.78,0,0,1-.61.26.8.8,0,0,1-.61-.26.86.86,0,0,1-.25-.64.92.92,0,0,1,.25-.66.83.83,0,0,1,.61-.26.82.82,0,0,1,.61.26,1,1,0,0,1,.25.66A.9.9,0,0,1,164.4,110.5Zm0,4.42a.81.81,0,0,1-.61.25.82.82,0,0,1-.61-.25.88.88,0,0,1-.25-.65.92.92,0,0,1,.25-.66.83.83,0,0,1,.61-.26.82.82,0,0,1,.61.26,1,1,0,0,1,.25.66A.92.92,0,0,1,164.4,114.92Z" transform="translate(-8.03 -10.99)" style="fill:#768e91"/></g></g><g id="eff00763-83d6-4ab0-bf74-d0c6b29dfc84" data-name=" Part1 CSR 100 公司治理整體數據與現況 熊毅晰 陳清祥說治理 陳清祥引導提問交流 Part2 CSR 100 企業承諾整體數據與現況 熊毅晰 人資專家引導提問與交流 17:30 賦歸回台北" style="isolation:isolate"><g style="isolation:isolate"><path d="M80.82,278.64v-.45H92.05v.45Z" transform="translate(-8.03 -10.99)" style="fill:#768e91"/><path d="M93.7,282.69v-8.27h2.51c2.09,0,3.14.83,3.14,2.5a2.36,2.36,0,0,1-.84,2,3.57,3.57,0,0,1-2.26.66H95v3.14Zm1.3-4.18h1.13a2.32,2.32,0,0,0,1.48-.39,1.48,1.48,0,0,0,.47-1.2,1.24,1.24,0,0,0-.49-1.12,2.75,2.75,0,0,0-1.51-.33H95Z" transform="translate(-8.03 -10.99)" style="fill:#768e91"/><path d="M102.86,282.83a1.8,1.8,0,0,1-1.31-.49A1.71,1.71,0,0,1,101,281a1.69,1.69,0,0,1,.89-1.52,7.22,7.22,0,0,1,2.81-.76q0-1.35-1.17-1.35a3.32,3.32,0,0,0-1.79.63l-.48-.88a4.59,4.59,0,0,1,2.49-.81,2.05,2.05,0,0,1,1.68.68A2.93,2.93,0,0,1,106,279v3.72h-1l-.12-.72h0A3,3,0,0,1,102.86,282.83Zm.4-1a2.28,2.28,0,0,0,1.48-.71v-1.53a4.87,4.87,0,0,0-1.89.5,1,1,0,0,0-.56.88.79.79,0,0,0,.27.65A1.08,1.08,0,0,0,103.26,281.81Z" transform="translate(-8.03 -10.99)" style="fill:#768e91"/><path d="M108.41,282.69v-6.18h1.06l.11,1.11h0a2.85,2.85,0,0,1,.79-.94,1.61,1.61,0,0,1,.95-.33,1.68,1.68,0,0,1,.7.14l-.24,1.12a1.9,1.9,0,0,0-.61-.1,1.33,1.33,0,0,0-.82.32,2.39,2.39,0,0,0-.68,1v3.85Z" transform="translate(-8.03 -10.99)" style="fill:#768e91"/><path d="M115.64,282.83c-1.25,0-1.87-.72-1.87-2.16v-3.13h-.9v-1l.95-.07.14-1.71h1.09v1.71h1.61v1h-1.61v3.14c0,.75.3,1.12.9,1.12a1.75,1.75,0,0,0,.67-.14l.23.95A4,4,0,0,1,115.64,282.83Z" transform="translate(-8.03 -10.99)" style="fill:#768e91"/><path d="M118.55,282.69v-1.07h1.81v-5.75h-1.48v-.81a5.39,5.39,0,0,0,1.8-.64h1v7.2h1.61v1.07Z" transform="translate(-8.03 -10.99)" style="fill:#768e91"/><path d="M124.54,278.64v-.45h11.23v.45Z" transform="translate(-8.03 -10.99)" style="fill:#768e91"/></g><g style="isolation:isolate"><path d="M85.13,304.53a3.42,3.42,0,0,1-2.64-1.14,4.44,4.44,0,0,1-1-3.11,4.49,4.49,0,0,1,1.06-3.14A3.43,3.43,0,0,1,85.19,296a3.06,3.06,0,0,1,2.34,1l-.7.84a2.2,2.2,0,0,0-1.62-.75,2.09,2.09,0,0,0-1.75.85,3.64,3.64,0,0,0-.66,2.29,3.76,3.76,0,0,0,.64,2.32,2.06,2.06,0,0,0,1.74.85,2.46,2.46,0,0,0,1.83-.88l.7.82A3.25,3.25,0,0,1,85.13,304.53Z" transform="translate(-8.03 -10.99)" style="fill:#768e91"/><path d="M92.07,304.53a3.93,3.93,0,0,1-2.93-1.2l.76-.9a3,3,0,0,0,2.2,1,1.81,1.81,0,0,0,1.15-.33,1,1,0,0,0,.41-.85,1.05,1.05,0,0,0-.08-.46.86.86,0,0,0-.31-.36,2.76,2.76,0,0,0-.38-.24c-.1-.05-.28-.14-.55-.25l-1.15-.5a2.32,2.32,0,0,1-1.68-2.17,2.07,2.07,0,0,1,.77-1.63,3,3,0,0,1,2-.65,3.61,3.61,0,0,1,1.37.28,3.57,3.57,0,0,1,1.13.76l-.68.84a2.67,2.67,0,0,0-1.82-.75,1.67,1.67,0,0,0-1,.29,1,1,0,0,0-.38.79,1.05,1.05,0,0,0,.1.44,1,1,0,0,0,.34.35,3.17,3.17,0,0,0,.39.23l.51.21,1.13.49a3.33,3.33,0,0,1,1.25.86,2.07,2.07,0,0,1,.44,1.37,2.17,2.17,0,0,1-.79,1.71A3.14,3.14,0,0,1,92.07,304.53Z" transform="translate(-8.03 -10.99)" style="fill:#768e91"/><path d="M103.08,304.39h-1.47l-1.87-3.33H98.4v3.33H97.1v-8.26h2.71c2,0,3,.79,3,2.39a2.27,2.27,0,0,1-1.72,2.37Zm-4.68-7.21V300h1.25q1.86,0,1.86-1.5a1.18,1.18,0,0,0-.46-1,2.58,2.58,0,0,0-1.4-.3Z" transform="translate(-8.03 -10.99)" style="fill:#768e91"/><path d="M108,304.39v-1.06h1.81v-5.76H108.3v-.81a5.42,5.42,0,0,0,1.79-.63h1v7.2h1.61v1.06Z" transform="translate(-8.03 -10.99)" style="fill:#768e91"/><path d="M117.16,304.53a2.22,2.22,0,0,1-2-1.1,6,6,0,0,1-.71-3.2,5.85,5.85,0,0,1,.71-3.18,2.24,2.24,0,0,1,2-1.08,2.21,2.21,0,0,1,2,1.09,5.74,5.74,0,0,1,.72,3.17,5.86,5.86,0,0,1-.72,3.2A2.2,2.2,0,0,1,117.16,304.53Zm0-1c1,0,1.43-1.1,1.43-3.29s-.48-3.24-1.43-3.24-1.44,1.08-1.44,3.24S116.2,303.52,117.16,303.52Z" transform="translate(-8.03 -10.99)" style="fill:#768e91"/><path d="M124.11,304.53a2.2,2.2,0,0,1-2-1.1,5.86,5.86,0,0,1-.71-3.2,5.76,5.76,0,0,1,.71-3.18,2.31,2.31,0,0,1,3.92,0,5.74,5.74,0,0,1,.72,3.17,5.86,5.86,0,0,1-.72,3.2A2.21,2.21,0,0,1,124.11,304.53Zm0-1c1,0,1.44-1.1,1.44-3.29s-.48-3.24-1.44-3.24-1.44,1.08-1.44,3.24S123.15,303.52,124.11,303.52Z" transform="translate(-8.03 -10.99)" style="fill:#768e91"/><path d="M133.8,296.64,135,297a11.15,11.15,0,0,1-1.19,1.91,7.6,7.6,0,0,1-1.5,1.54,4.62,4.62,0,0,0-.85-.73,7.09,7.09,0,0,0,1.39-1.4A7.82,7.82,0,0,0,133.8,296.64Zm4,4.82,1-.46a24.75,24.75,0,0,1,1.54,2,14.6,14.6,0,0,1,1.16,1.83l-1.06.56a7.66,7.66,0,0,0-.49-.91l-7.83.36-.13-1.09,1.61,0a26.54,26.54,0,0,0,2-4.72l1.23.3a44.43,44.43,0,0,1-2.08,4.37l2.49-.08,2.06-.08A22.31,22.31,0,0,0,137.85,301.46Zm-3.2-6h4.22a10.43,10.43,0,0,0,1.29,2.24,8.63,8.63,0,0,0,1.68,1.76,3.75,3.75,0,0,0-1,.75,9.5,9.5,0,0,1-1.52-1.66,13.82,13.82,0,0,1-1.24-2.07h-3.48Z" transform="translate(-8.03 -10.99)" style="fill:#768e91"/><path d="M152.73,295.66v8.18a2,2,0,0,1-.12.78.72.72,0,0,1-.42.4,6.22,6.22,0,0,1-2.12.21,3.94,3.94,0,0,0-.36-1.14l1,0h.66a.34.34,0,0,0,.21-.07.28.28,0,0,0,.06-.21v-7.17h-7.94v-1Zm-2.27,2v.92h-6.64v-.92Zm-.7,5.6h-4.27v.82h-1v-4.46h5.28Zm-1-2.74h-3.25v1.83h3.25Z" transform="translate(-8.03 -10.99)" style="fill:#768e91"/><path d="M157.7,299.09l-.59.89a8.2,8.2,0,0,0-2.15-1.15l.57-.8A7.81,7.81,0,0,1,157.7,299.09Zm-1.47,6-.88-.69a38,38,0,0,0,2.07-3.57l.79.7C157.55,302.89,156.89,304.07,156.23,305.13Zm2.08-9-.62.88a7.42,7.42,0,0,0-2.09-1.24l.58-.79A7.45,7.45,0,0,1,158.31,296.17Zm3.87.9.91-.45a17.75,17.75,0,0,1,1.31,1.64,13.08,13.08,0,0,1,1,1.57l-1,.55c-.06-.14-.22-.45-.48-.92l-5.87.38-.13-1,1.09,0a21.55,21.55,0,0,0,1.42-3.8l1.2.28c-.55,1.41-1,2.57-1.5,3.46l1.7-.08,1.49-.08A16.34,16.34,0,0,0,162.18,297.07Zm-3.33,8.21v-4.55h5.5v4.52h-1.06v-.44h-3.43v.47Zm4.44-3.58h-3.43v2.14h3.43Z" transform="translate(-8.03 -10.99)" style="fill:#768e91"/><path d="M170.32,302l.18,1c-1.21.42-2.39.82-3.54,1.19l-.24-1.07,1.43-.42v-2.85h-1.21v-1h1.21v-2.24h-1.32v-1h3.57v1h-1.25v2.24h1.06v1h-1.06v2.55Zm4,2h2.85v1H170v-1h3.26v-1.33h-2.44v-.95h2.44v-1.15h-2.34v-5h5.75v5h-2.35v1.15h2.49v.95h-2.49Zm-2.44-7.59v1.2h1.47v-1.2Zm0,2v1.23h1.47v-1.23Zm3.79-.84v-1.2h-1.44v1.2Zm0,2.07v-1.23h-1.44v1.23Z" transform="translate(-8.03 -10.99)" style="fill:#768e91"/><path d="M188.75,297H188a5.71,5.71,0,0,1-1.07,2.07,5.19,5.19,0,0,0,2,1,2.52,2.52,0,0,0-.58.83,6.1,6.1,0,0,1-2-1.22,6.86,6.86,0,0,1-2.17,1.17,2.75,2.75,0,0,0-.59-.74,6.06,6.06,0,0,0,2.14-1.08,6,6,0,0,1-.83-1.27,5.09,5.09,0,0,1-.6.67,4.5,4.5,0,0,0-.57-.61v1.09H182c.68.32,1.25.61,1.73.87l-.52.68a15.88,15.88,0,0,0-1.43-.92v1.26h-.92v-1.25a6.78,6.78,0,0,1-1.71,1.27,2.9,2.9,0,0,0-.6-.65,6.19,6.19,0,0,0,1.93-1.26h-1.43v-2.08h1.81v-.49h-2.1v-.74h2.1V295h.92v.65h2.11v.74h-2.11v.49h1.89v.78a5.41,5.41,0,0,0,1.51-2.66l1,.22c-.07.23-.19.56-.36,1h3Zm-4.54,6.45v.77h4.58v.85H178.67v-.85h1.75v-1.82h1v1.82h1.78v-2.27h-3.81v-.84h8.69v.84h-3.86v.71h3.08v.79Zm-4.31-6v.79h1v-.79Zm2.91.79v-.79h-1v.79Zm2.57-1.28h0a5.1,5.1,0,0,0,.9,1.43A3.94,3.94,0,0,0,187,297Z" transform="translate(-8.03 -10.99)" style="fill:#768e91"/><path d="M195.16,300.14h-.69v4.21c0,.41-.11.67-.34.78a3.06,3.06,0,0,1-1.17.14,2.74,2.74,0,0,0-.28-.8h.76c.09,0,.13-.05.13-.14v-1H192.1v1.94h-.87v-5.14h-.67v-1.67h.64v-3.12h3.3v3.12h.66Zm-.8-.33v-.61h-3v.61Zm-2.39-3.7v2.36h.51v-1.75h1.21v-.61Zm1.6,5.1v-.66H192.1v.66Zm-1.47,1.4h1.47v-.68H192.1Zm1-4.14h.61v-1.13h-.61Zm6,5.87h1.64v.76H195v-.76h1.58a5.07,5.07,0,0,0-.42-1l.67-.24h-1.14V301h4.44v2.11h-1.21l.73.19C199.57,303.38,199.37,303.74,199,304.34Zm1.55-4.57v.74h-5.41v-.74Zm-.32-3.82v3.34h-4.8V296h1.29v-1h.75v1h.67v-1h.75v1Zm-4,.69v.65h.62v-.65Zm0,1.31v.65h.62V298Zm.24,3.66v.81h2.69v-.81Zm2.24,1.46h-1.88a3.9,3.9,0,0,1,.52,1.26h.86A7.92,7.92,0,0,0,198.75,303.07Zm-1.24-5.78h.67v-.65h-.67Zm.67.66h-.67v.65h.67Zm1.27-.66v-.65h-.67v.65Zm0,1.31V298h-.67v.65Z" transform="translate(-8.03 -10.99)" style="fill:#768e91"/><path d="M212.44,298h-.61a14.55,14.55,0,0,1-1.18,4.43,4.89,4.89,0,0,0,1.86,2.06,2.63,2.63,0,0,0-.7.82,5.67,5.67,0,0,1-1.75-1.88,6.73,6.73,0,0,1-2,1.9,3.38,3.38,0,0,0-.57-.82l-.63.64a11.75,11.75,0,0,0-1.22-.74,7.69,7.69,0,0,1-2.84.92,1.79,1.79,0,0,0-.38-.81,6.91,6.91,0,0,0,2.31-.55l-.4-.16-.5-.21-.16.24-.85-.23c.33-.52.56-.89.67-1.09l-1.31,0,0-.8h1.77c.1-.18.2-.37.3-.58h-1.6v-2h2v-.44h-1.78v-1.19h-.74v-.76h.74V295.6h1.78V295h.9v.63h1.9v1.18h.76v.76h-.76v1.19h-1.9v.44h2.15v.46A14.25,14.25,0,0,0,209,295l1,.16a18.9,18.9,0,0,1-.35,1.89h2.79Zm-8.94,1.86v.62h1.16v-.62Zm1.16-3.55h-.92v.54h.92Zm-.92,1.74h.92v-.55h-.92Zm.73,4.45-.26.44,1.3.52a2.6,2.6,0,0,0,.67-1Zm3.76-.07-1.11,0a3.33,3.33,0,0,1-.77,1.39,9.42,9.42,0,0,1,1.13.63,5.53,5.53,0,0,0,2.08-2.05,15,15,0,0,1-.79-2.62,7.39,7.39,0,0,1-.54,1,6.32,6.32,0,0,0-.52-.53v.9h-2.49c-.11.21-.21.4-.31.57l3.36-.05Zm-1.7-6.12h-1v.54h1Zm-1,1.74h1v-.55h-1Zm1.24,1.81h-1.24v.62h1.24Zm4-1.86h-1.42l0,.12a16.39,16.39,0,0,0,.75,3.1A13.14,13.14,0,0,0,210.84,298Z" transform="translate(-8.03 -10.99)" style="fill:#768e91"/><path d="M217.3,300.61l-1.13.36v3.17a1.42,1.42,0,0,1-.08.55.85.85,0,0,1-.2.34.65.65,0,0,1-.39.17,3.59,3.59,0,0,1-.49.07h-.68a3.53,3.53,0,0,0-.28-.95c.48,0,.81,0,1,0a.18.18,0,0,0,.21-.2v-2.88l-1.2.37-.25-1,1.45-.4v-2.11H214v-1h1.27V295h.93v2.19h1v1h-1V300l.5-.15.49-.15Zm1.09-2.94v2.47a8.7,8.7,0,0,1-1.2,5.13,2.53,2.53,0,0,0-.76-.53,8,8,0,0,0,1-4.61V296.9H220V295h1v.61h2.59v.75H221v.54h2.36l.15,0,.65.13a13.79,13.79,0,0,1-.54,1.67l-.79-.18a6.61,6.61,0,0,0,.25-.83h-2.26v.54l1.66-.17.06.62-1.72.15V299a.25.25,0,0,0,.08.22,1,1,0,0,0,.38.05h1.38a.4.4,0,0,0,.29-.08.82.82,0,0,0,.07-.41,3.33,3.33,0,0,0,.73.23,1,1,0,0,1-.27.69,1.11,1.11,0,0,1-.72.18h-1.59a1.84,1.84,0,0,1-1-.17.85.85,0,0,1-.24-.71v-.08l-1.25.12-.07-.61,1.32-.12v-.62Zm5.09,3.56.59.47a12.8,12.8,0,0,1-1.25.92,3.72,3.72,0,0,0,1.54,1.49,2.89,2.89,0,0,0-.57.72,5.52,5.52,0,0,1-2.33-3.85,6.67,6.67,0,0,1-.74.52,3,3,0,0,1,1,1.26,2.57,2.57,0,0,1,.21,1.34,1.32,1.32,0,0,1-.4.87,1.22,1.22,0,0,1-.84.33,4.72,4.72,0,0,1-.59,0,1.58,1.58,0,0,0-.21-.75,4,4,0,0,0,.65,0,.5.5,0,0,0,.42-.16,1.1,1.1,0,0,0,.17-1,10.26,10.26,0,0,1-2.61,1.52,2.34,2.34,0,0,0-.41-.58,8.29,8.29,0,0,0,1.54-.66,5.79,5.79,0,0,0,1.28-.88,4.05,4.05,0,0,0-.21-.35,7.74,7.74,0,0,1-1.93,1.06,1.91,1.91,0,0,0-.37-.53,5.38,5.38,0,0,0,2-.93l-.28-.23a11.87,11.87,0,0,1-1.26.48,1.71,1.71,0,0,0-.31-.54,7.51,7.51,0,0,0,2-.84h-1.91v-.71h5.45v.71h-1.95a6.81,6.81,0,0,0,.37,1.08A10,10,0,0,0,223.48,301.23Z" transform="translate(-8.03 -10.99)" style="fill:#768e91"/><path d="M234.86,301.78H236v1h-10.2v-1h1.12l-.21-6,.63.19a13,13,0,0,0,1.42-.85l.8.76c-.46.24-1.09.53-1.88.85l0,1h1.41v.87h-1.38l0,1.18h1.35v.88h-1.32l0,1.16h1.77v-2.49h.85v2.49h.88v-2.94H229.6v-3.76h.91v1.08h1.84V297h-1.84v1h1.71v3.77h1.65c0-.07,0-.24,0-.51s0-.48,0-.64h-1.26v-.89H234c0-.13,0-.32,0-.58s0-.46,0-.6h-1.32v-.87H234c0-.51,0-.89,0-1.14h-1.48v-.9H235Q235,299.58,234.86,301.78Zm-5.91,1,1,.65a17.25,17.25,0,0,1-3.24,1.84,6,6,0,0,0-.81-.73,15.61,15.61,0,0,0,1.71-.83A7.9,7.9,0,0,0,229,302.8Zm2.83.67.78-.69a29.8,29.8,0,0,1,3.37,1.8l-1,.72A23.2,23.2,0,0,0,231.78,303.47Z" transform="translate(-8.03 -10.99)" style="fill:#768e91"/><path d="M241.53,301.5l.14.93-2.31.68-1.71.49-.26-1,1.68-.43v-2.51h-1.35v-1h1.35v-2.19h-1.46v-1h3.85v1h-1.37v2.19h1.26v1h-1.26v2.23Zm4.56,2.8h.69c.12,0,.19-.07.23-.22a7,7,0,0,0,.08-1.08,2,2,0,0,0,.87.39,3.71,3.71,0,0,1-.28,1.44.83.83,0,0,1-.78.37h-1A1.17,1.17,0,0,1,245,305a1.55,1.55,0,0,1-.22-1v-2.37h-.92a7.25,7.25,0,0,1-.25,1.25,3.69,3.69,0,0,1-.49,1,3.1,3.1,0,0,1-.91.85,5.88,5.88,0,0,1-1.4.62,2.37,2.37,0,0,0-.25-.46,2.12,2.12,0,0,0-.33-.4,5.8,5.8,0,0,0,1.22-.46,2.19,2.19,0,0,0,.77-.66,2.92,2.92,0,0,0,.41-.78,4.73,4.73,0,0,0,.19-1h-.92v-6.18h5.34v6.18h-1.47V304a.54.54,0,0,0,.05.29S246,304.3,246.09,304.3Zm-3.16-8v.93h3.32v-.93Zm0,1.73v1h3.32v-1Zm0,1.76v.94h3.32v-.94Z" transform="translate(-8.03 -10.99)" style="fill:#768e91"/><path d="M252,299.12l-.57.89a5.91,5.91,0,0,0-1-.6,9.6,9.6,0,0,0-1.22-.53l.55-.79A7.57,7.57,0,0,1,252,299.12ZM252,300.8l.75.64c-.79,1.52-1.5,2.75-2.13,3.71l-.88-.66A32.45,32.45,0,0,0,252,300.8Zm.64-4.7-.6.86a6.83,6.83,0,0,0-2-1.15l.58-.78A6.68,6.68,0,0,1,252.61,296.1Zm5.08,8.15h.71c.13,0,.21-.1.25-.3a9.17,9.17,0,0,0,.08-1.34,2.49,2.49,0,0,0,.93.4,4.74,4.74,0,0,1-.31,1.72.88.88,0,0,1-.84.44h-1a1.17,1.17,0,0,1-.93-.28,1.72,1.72,0,0,1-.23-1.05v-3.73h-1.09c0,.56-.07,1-.12,1.43a7.66,7.66,0,0,1-.25,1.21,3.85,3.85,0,0,1-.47,1.06,3.9,3.9,0,0,1-.77.82,4.42,4.42,0,0,1-1.13.66,2.4,2.4,0,0,0-.27-.45,1.73,1.73,0,0,0-.35-.39,4.2,4.2,0,0,0,1-.55,3,3,0,0,0,.66-.67,2.55,2.55,0,0,0,.39-.88,6.67,6.67,0,0,0,.2-1c0-.33.06-.74.09-1.23h-1.09v-4.64H259v4.64h-1.59v3.72a.84.84,0,0,0,0,.35A.3.3,0,0,0,257.69,304.25Zm-3.53-7.82v2.7h3.76v-2.7Z" transform="translate(-8.03 -10.99)" style="fill:#768e91"/><path d="M263.28,306.63a10.93,10.93,0,0,1-1.66-5.76,10.78,10.78,0,0,1,1.66-5.73l.8.35a11,11,0,0,0,0,10.78Z" transform="translate(-8.03 -10.99)" style="fill:#768e91"/><path d="M268.71,295.77l.82-.39a8.26,8.26,0,0,1,1.54,1.95l-.88.42c0-.09-.13-.24-.26-.46-1.31.06-2.69.13-4.13.18l-.07-.85.87,0a8.83,8.83,0,0,0,.77-1.65l1.05.27c-.48.79-.75,1.24-.82,1.34l1.76-.05C269.22,296.33,269,296.09,268.71,295.77Zm-2,9.53-1-.43a2.84,2.84,0,0,0,.72-.8A5,5,0,0,0,267,303l1,.25A4.76,4.76,0,0,1,266.73,305.3Zm3.64-7.38v3.8a1.15,1.15,0,0,1-.09.52.56.56,0,0,1-.34.27,5.72,5.72,0,0,1-1.52.13,3.22,3.22,0,0,0-.28-.77h1.09c.11,0,.16-.06.16-.17v-.57h-2v1.54h-.93v-4.76Zm-1,.73h-2v.6h2Zm-2,1.85h2v-.62h-2Zm1.58,2.86,1-.08a9.56,9.56,0,0,1,.23,1.8l-1,.12A8.81,8.81,0,0,0,269,303.36Zm2.24,0,1-.19a8.22,8.22,0,0,1,.6,1.77l-1,.24A9.34,9.34,0,0,0,271.21,303.39Zm3.29-4.66h-1.74a1.88,1.88,0,0,1-1.14-.24,1.26,1.26,0,0,1-.29-1V295h1v1.16a12.7,12.7,0,0,0,2.18-.73l.67.69a15.51,15.51,0,0,1-2.85.82v.57c0,.16,0,.26.1.31a1,1,0,0,0,.44.06h1.53c.19,0,.32,0,.38-.17a2.27,2.27,0,0,0,.12-.78,1.93,1.93,0,0,0,.86.35,2,2,0,0,1-.34,1.14A1.17,1.17,0,0,1,274.5,298.73Zm.06,4h-1.79a1.86,1.86,0,0,1-1.15-.25,1.29,1.29,0,0,1-.29-1v-2.58h1v1.17a10.41,10.41,0,0,0,2.25-.8l.67.69a14,14,0,0,1-2.92.89v.63c0,.17,0,.27.11.31a.89.89,0,0,0,.45.07h1.58a.37.37,0,0,0,.37-.18,2.2,2.2,0,0,0,.11-.8,2.49,2.49,0,0,0,.9.36,2.27,2.27,0,0,1-.35,1.17A1.23,1.23,0,0,1,274.56,302.69Zm-1.09.67,1-.35a9.17,9.17,0,0,1,1.4,1.9l-1,.38A8.29,8.29,0,0,0,273.47,303.36Z" transform="translate(-8.03 -10.99)" style="fill:#768e91"/><path d="M286.46,298v.33a.06.06,0,0,1,0,0l0,0h.32a.25.25,0,0,0,.19-.06.35.35,0,0,0,.08-.22c0-.1,0-.39,0-.85a2.18,2.18,0,0,0,.71.39,5.26,5.26,0,0,1-.11,1.07.81.81,0,0,1-.86.48h-.5a.92.92,0,0,1-.65-.21,1.68,1.68,0,0,1-.23-1.05v-1.67h-1.35V297a3.3,3.3,0,0,1-1.19,2.85,2.37,2.37,0,0,0-.33-.35,4.65,4.65,0,0,0-.39-.31l.15-.11h-1.91a6.31,6.31,0,0,1-.44.47,4.29,4.29,0,0,1,.7,1,8.81,8.81,0,0,0,.89-1.11l.79.49a15.83,15.83,0,0,1-1.19,1.18,10,10,0,0,1,1.75,1.47l-.62.7a8.3,8.3,0,0,0-1.11-1.07,5.09,5.09,0,0,1,0,1.56,1.86,1.86,0,0,1-.41,1,1.33,1.33,0,0,1-1.07.46c-.18,0-.44,0-.77,0a1.7,1.7,0,0,0-.21-.88l.28,0,.3,0h.2a.61.61,0,0,0,.54-.25,2.05,2.05,0,0,0,.27-1.45,10.32,10.32,0,0,1-2.56,1.77,3,3,0,0,0-.52-.76,8.37,8.37,0,0,0,1.62-.84,6.4,6.4,0,0,0,1.33-1.13,2.92,2.92,0,0,0-.19-.59,9.26,9.26,0,0,1-2.13,1.48,2.33,2.33,0,0,0-.49-.68,6.91,6.91,0,0,0,1.24-.63,6.53,6.53,0,0,0,1.06-.84,4,4,0,0,0-.32-.43,7.73,7.73,0,0,1-1.44.89,3.66,3.66,0,0,0-.66-.64,6.32,6.32,0,0,0,2-1.24h-1.84v-.89h1.2a5.9,5.9,0,0,0-.37-1.23l.52-.11h-1.2v-.89h1.89V295h1v.9h1.95v.89h-1l.43.08c-.09.22-.29.64-.61,1.26h1.31v.71a2.63,2.63,0,0,0,.64-1.91V295.4h3.23ZM281,296.82h-1.74a4.15,4.15,0,0,1,.38,1.25l-.35.09h1.6l-.29-.09C280.74,297.54,280.87,297.12,281,296.82Zm5.7,3,.64.24a7.3,7.3,0,0,1-1.62,3.2,6.08,6.08,0,0,0,2.15,1.14,2.85,2.85,0,0,0-.65.89,6.24,6.24,0,0,1-2.23-1.34,7.83,7.83,0,0,1-2.42,1.33,3.34,3.34,0,0,0-.57-.88,6.58,6.58,0,0,0,2.31-1.19,8.39,8.39,0,0,1-1.18-2.19l.85-.23h-1.26v-.93h3.8Zm-.62,1h-2a6.76,6.76,0,0,0,1,1.75A5.91,5.91,0,0,0,286,300.79Z" transform="translate(-8.03 -10.99)" style="fill:#768e91"/><path d="M295.83,300.74l-.58.69a11.49,11.49,0,0,0-.62-1v4.83h-.92V301a8.68,8.68,0,0,1-1,2.12c-.12-.15-.27-.31-.44-.49v.7h-1.89v.89h-.84v-8.43h2.73v6.27a12,12,0,0,0,1.36-3.76h-1.18v-.89h1.22V295h.92v2.37h1.06v.89h-1.06v1.06Q295.21,300,295.83,300.74Zm-4.37-4h-1v2.34h1Zm-1,5.69h1V300h-1Zm9.09-3.73v.9h-.89v5.69h-.91v-5.69h-.89v.31a9.51,9.51,0,0,1-1.2,5.36,2,2,0,0,0-.71-.66,5.24,5.24,0,0,0,.81-2.1,16.15,16.15,0,0,0,.19-2.61V296l.45.14a9.9,9.9,0,0,0,2.17-1.11l.88.7a13.63,13.63,0,0,1-2.59,1.12v1.83Z" transform="translate(-8.03 -10.99)" style="fill:#768e91"/><path d="M301.85,306.63l-.81-.36a10.94,10.94,0,0,0,0-10.78l.81-.35a10.69,10.69,0,0,1,1.67,5.73A10.84,10.84,0,0,1,301.85,306.63Z" transform="translate(-8.03 -10.99)" style="fill:#768e91"/></g><g style="isolation:isolate"><path d="M83.44,323.51a.46.46,0,0,0,.43-.2,1.17,1.17,0,0,0,.12-.6,3.09,3.09,0,0,0-.91-2.1c.26-.68.52-1.52.79-2.52H82.66V327h-.92v-9.84h2.47l.16,0,.68.39c-.49,1.48-.85,2.47-1.06,3a3.48,3.48,0,0,1,.93,2.33c0,.69-.15,1.13-.46,1.34a2.32,2.32,0,0,1-1.35.23,1.78,1.78,0,0,0-.25-.9A2.86,2.86,0,0,0,83.44,323.51Zm7.55-.14H89.32a6.55,6.55,0,0,0,1.07,1.3,5.4,5.4,0,0,0,1.31.92,3,3,0,0,0-.68.83,6.81,6.81,0,0,1-2.36-2.61V327h-1v-3.14a7.42,7.42,0,0,1-2.71,2.64,2.88,2.88,0,0,0-.7-.82,6.38,6.38,0,0,0,1.47-1,7.15,7.15,0,0,0,1.21-1.33H85.41V319.5h2.24v-.84H85v-.88h2.67v-1.1h1v1.1h2.75v.88H88.66v.84H91Zm-4.66-3.13v.83h1.32v-.83Zm0,1.55v.82h1.32v-.82ZM90,320.24H88.66v.83H90Zm0,2.37v-.82H88.66v.82Z" transform="translate(-8.03 -10.99)" style="fill:#768e91"/><path d="M95.67,320.84l-.6.88a6.2,6.2,0,0,0-.9-.62,10.89,10.89,0,0,0-1.13-.57l.56-.79A8.19,8.19,0,0,1,95.67,320.84Zm-1.37,6-.9-.67a30.16,30.16,0,0,0,2-3.59l.8.67C95.63,324.41,95,325.61,94.3,326.83Zm1.91-8.91-.62.83a7.31,7.31,0,0,0-2-1.24l.57-.75A7.35,7.35,0,0,1,96.21,317.92Zm4,2.26h3.22V321H96v-.81h3.12v-.64H96.78v-.75h2.37v-.6H96.47v-.78h2.68v-.73h1v.73H103v.78h-2.82v.6h2.54v.75h-2.54Zm2.37,1.5v4.22a1.43,1.43,0,0,1-.1.61.66.66,0,0,1-.37.32,6.07,6.07,0,0,1-1.75.15,3.84,3.84,0,0,0-.3-.93q.36,0,1.29,0c.14,0,.21-.07.21-.19V324.6H98V327H97v-5.3Zm-4.52.81v1.29h1.24v-1.29Zm2.17,1.29h1.33v-1.29h-1.33Z" transform="translate(-8.03 -10.99)" style="fill:#768e91"/><path d="M105.21,322.55v-1.31H106v1.32a9.53,9.53,0,0,1-.51,3.54,1.78,1.78,0,0,0-.65-.48A8.75,8.75,0,0,0,105.21,322.55Zm-.24-2v-.92h4.16v.92h-1.59V327h-.91v-6.45Zm4-3.15v.92h-3.66v-.92Zm-.74,7.79v-3.95H109v3.95Zm7-1.72v1h-2.58V327h-1v-2.53h-2.37v-1h2.37v-1.41h-1.86v-1h1.86v-1.31h-2.13v-1h1.18a7.47,7.47,0,0,0-.76-1.7l.89-.36a6.53,6.53,0,0,1,.86,1.92l-.3.14H113l-.27-.09a10.67,10.67,0,0,0,.79-2l1,.27-.28.62c-.11.26-.22.49-.31.7l-.27.53H115v1h-2.37v1.31h2.1v1h-2.1v1.41Z" transform="translate(-8.03 -10.99)" style="fill:#768e91"/><path d="M120.83,318.53v.84h-4.19v-.84ZM125.3,326h.61c.11,0,.17-.08.21-.24a11.52,11.52,0,0,0,.07-1.19,2.2,2.2,0,0,0,.87.41,3.75,3.75,0,0,1-.26,1.55.83.83,0,0,1-.79.4h-.86a1.09,1.09,0,0,1-.86-.26,1.69,1.69,0,0,1-.21-1V323h-.81a6.2,6.2,0,0,1-.63,2.49A3.52,3.52,0,0,1,120.8,327a3.14,3.14,0,0,0-.42-.63H118v.47h-.9v-3.77h3.31v3a3.22,3.22,0,0,0,.86-.52,2.44,2.44,0,0,0,.53-.71,3.79,3.79,0,0,0,.28-.82,7.68,7.68,0,0,0,.13-1h-.83v-2.52l-.2.22a3.79,3.79,0,0,0-.78-.59v.73h-3.29v-.81h3.29v.05a5.26,5.26,0,0,0,1.35-2.18l1,.24a8.42,8.42,0,0,1-.77,1.53h3.54a11,11,0,0,1-.94-1.74h-2.22V317h3a7.12,7.12,0,0,0,.74,1.59,5.55,5.55,0,0,0,1,1.26,3.55,3.55,0,0,0-.88.66V323h-1.16v2.63c0,.14,0,.23,0,.26S125.2,326,125.3,326Zm-4.86-4.43v.82h-3.29v-.82Zm0-4.5v.81H117.2v-.81Zm-.87,8.48v-1.62H118v1.62Zm2.82-4.92v1.52h2.85v-1.52Z" transform="translate(-8.03 -10.99)" style="fill:#768e91"/><path d="M131.16,320.79l-.6.9a7.84,7.84,0,0,0-2.14-1.15l.57-.8A8,8,0,0,1,131.16,320.79Zm-1.47,6-.89-.69a32.91,32.91,0,0,0,2.07-3.56l.79.7C131,324.6,130.34,325.78,129.69,326.83Zm2.07-8.95-.61.87a8,8,0,0,0-2.1-1.24l.58-.79A7.44,7.44,0,0,1,131.76,317.88Zm3.87.89.91-.45a17.43,17.43,0,0,1,1.31,1.64,11.93,11.93,0,0,1,1,1.58l-1,.55c-.06-.14-.22-.45-.49-.93l-5.86.39-.13-1.05,1.08-.05a21.18,21.18,0,0,0,1.43-3.79l1.19.27c-.55,1.42-1.05,2.58-1.5,3.47l1.7-.08,1.49-.09C136.36,319.66,136,319.17,135.63,318.77ZM132.31,327v-4.55h5.49V327h-1.05v-.44h-3.43V327Zm4.44-3.59h-3.43v2.15h3.43Z" transform="translate(-8.03 -10.99)" style="fill:#768e91"/><path d="M143.78,323.71l.17,1q-1.81.65-3.54,1.2l-.24-1.07,1.44-.42v-2.85h-1.22v-1h1.22v-2.23h-1.33v-1h3.57v1H142.6v2.23h1.07v1H142.6v2.54Zm4,2h2.85v.95h-7.17v-.95h3.25v-1.34h-2.43v-.94h2.43v-1.15h-2.33v-5.06h5.74v5.06h-2.34v1.15h2.49v.94h-2.49Zm-2.45-7.6v1.21h1.47v-1.21Zm0,2v1.24h1.47v-1.24Zm3.79-.83v-1.21h-1.43v1.21Zm0,2.07v-1.24h-1.43v1.24Z" transform="translate(-8.03 -10.99)" style="fill:#768e91"/></g><g style="isolation:isolate"><path d="M83.44,345.22a.46.46,0,0,0,.43-.2,1.17,1.17,0,0,0,.12-.6,3.11,3.11,0,0,0-.91-2.11c.26-.68.52-1.52.79-2.51H82.66v8.89h-.92v-9.83h2.47l.16,0,.68.4c-.49,1.48-.85,2.47-1.06,3a3.52,3.52,0,0,1,.93,2.34c0,.68-.15,1.13-.46,1.33a2.24,2.24,0,0,1-1.35.23,1.72,1.72,0,0,0-.25-.89A3.84,3.84,0,0,0,83.44,345.22Zm7.55-.15H89.32a6.28,6.28,0,0,0,1.07,1.3,5.45,5.45,0,0,0,1.31.93,2.92,2.92,0,0,0-.68.82,6.81,6.81,0,0,1-2.36-2.61v3.17h-1v-3.13a7.58,7.58,0,0,1-2.71,2.64,2.75,2.75,0,0,0-.7-.82,6.38,6.38,0,0,0,1.47-1,7.19,7.19,0,0,0,1.21-1.34H85.41V341.2h2.24v-.83H85v-.89h2.67v-1.09h1v1.09h2.75v.89H88.66v.83H91ZM86.33,342v.82h1.32V342Zm0,1.55v.82h1.32v-.82ZM90,342H88.66v.82H90Zm0,2.37v-.82H88.66v.82Z" transform="translate(-8.03 -10.99)" style="fill:#768e91"/><path d="M95.67,342.54l-.6.89a5.5,5.5,0,0,0-.9-.62c-.38-.22-.76-.41-1.13-.58l.56-.78A8.2,8.2,0,0,1,95.67,342.54Zm-1.37,6-.9-.67a31.16,31.16,0,0,0,2-3.6l.8.67C95.63,346.12,95,347.32,94.3,348.54Zm1.91-8.91-.62.83a7.31,7.31,0,0,0-2-1.24l.57-.76A7.6,7.6,0,0,1,96.21,339.63Zm4,2.25h3.22v.81H96v-.81h3.12v-.63H96.78v-.76h2.37v-.59H96.47v-.78h2.68v-.73h1v.73H103v.78h-2.82v.59h2.54v.76h-2.54Zm2.37,1.51v4.22a1.46,1.46,0,0,1-.1.61.66.66,0,0,1-.37.32,6.64,6.64,0,0,1-1.75.14,3.92,3.92,0,0,0-.3-.92l1.29,0q.21,0,.21-.18v-1.3H98v2.38H97v-5.29ZM98,344.2v1.29h1.24V344.2Zm2.17,1.29h1.33V344.2h-1.33Z" transform="translate(-8.03 -10.99)" style="fill:#768e91"/><path d="M105.21,344.25V343H106v1.31a9.46,9.46,0,0,1-.51,3.54,2,2,0,0,0-.65-.48A8.71,8.71,0,0,0,105.21,344.25Zm-.24-2v-.93h4.16v.93h-1.59v6.44h-.91v-6.44Zm4-3.15V340h-3.66v-.92Zm-.74,7.78v-3.94H109v3.94Zm7-1.72v1h-2.58v2.52h-1v-2.52h-2.37v-1h2.37v-1.4h-1.86v-1h1.86v-1.3h-2.13v-1h1.18a7.67,7.67,0,0,0-.76-1.7l.89-.35a6.31,6.31,0,0,1,.86,1.92l-.3.13H113l-.27-.09a10.58,10.58,0,0,0,.79-2l1,.27-.28.61c-.11.27-.22.5-.31.7s-.19.39-.27.53H115v1h-2.37v1.3h2.1v1h-2.1v1.4Z" transform="translate(-8.03 -10.99)" style="fill:#768e91"/><path d="M118.32,343.74h3.61a2.19,2.19,0,0,1,0,.46c-.1,1.3-.2,2.25-.31,2.84a2.33,2.33,0,0,1-.46,1.19,1.43,1.43,0,0,1-1,.41,16,16,0,0,1-1.74,0,2.38,2.38,0,0,0-.38-1.1c.63.06,1.21.09,1.72.09a.81.81,0,0,0,.5-.13c.25-.21.44-1.14.57-2.8h-2.66l-.11.55-1-.18a34.78,34.78,0,0,0,.66-3.7h3.19V339.8H117.3v-1h4.56v3.5h-3.31C118.52,342.52,118.45,343,118.32,343.74Zm6.35-5.22h1.06v10.16h-1.06Z" transform="translate(-8.03 -10.99)" style="fill:#768e91"/><path d="M136.23,345.09v.58h2.43v.81h-2.43v1.16a1.38,1.38,0,0,1-.1.6.66.66,0,0,1-.39.31,6.51,6.51,0,0,1-1.85.13,2.92,2.92,0,0,0-.33-.89,13.75,13.75,0,0,0,1.43,0c.16,0,.24-.07.24-.18v-1.14h-3.91a8.61,8.61,0,0,1,1.44,1.16l-.76.65a7.45,7.45,0,0,0-1.57-1.33l.57-.48h-2.46v-.81h6.69v-.58c-1.07,0-1.79,0-2.14,0a3.25,3.25,0,0,1-2.51-1l-.91.58-.78.5-.39-.84a15.75,15.75,0,0,0,1.48-.8v-.94h-1.4v-.77h2.35v1.58a2.49,2.49,0,0,0,2.15.88c.65,0,1.58,0,2.79,0s2.18-.05,2.91-.09a2.71,2.71,0,0,0-.29.82C137.8,345.06,137,345.08,136.23,345.09Zm-5.39-4.17-.51.67a6.54,6.54,0,0,0-1.79-1l.49-.6A6.86,6.86,0,0,1,130.84,340.92Zm.47-1.45-.5.69A7.11,7.11,0,0,0,129,339l.5-.59A7.23,7.23,0,0,1,131.31,339.47Zm.88,1.08h2q.06-.21.12-.48h-2.79v-.72h1.61a4.55,4.55,0,0,0-.49-.8l.84-.2a3.54,3.54,0,0,1,.62,1l-.13,0h1.66a5.54,5.54,0,0,0,.63-1l.95.18a7.91,7.91,0,0,1-.58.81h1.94v.72h-3.29a2.59,2.59,0,0,1-.1.24l-.09.24h2.59v3.31h-5.53Zm4.53.93v-.41h-3.57v.41Zm0,.93V342h-3.57v.43Zm0,.93v-.43h-3.57v.43Z" transform="translate(-8.03 -10.99)" style="fill:#768e91"/><path d="M143.71,344.14l-1.21.39v2.9c0,.5-.14.82-.4,1a3.64,3.64,0,0,1-1.46.2,3,3,0,0,0-.28-1h1c.14,0,.2-.07.2-.21v-2.6l-1.18.35-.23-1,.4-.11.52-.14.49-.14v-2.25h-1.3v-1h1.3v-2.17h1v2.17h1.18v1H142.5v2l1.07-.32Zm3.81,1.87v1.55a5.65,5.65,0,0,0,.93.07h2.19a2.55,2.55,0,0,0-.28.92h-1.93a5.19,5.19,0,0,1-2.13-.37,2.82,2.82,0,0,1-1.34-1.4,4.75,4.75,0,0,1-1.27,1.92,3.08,3.08,0,0,0-.78-.62,5.17,5.17,0,0,0,1.64-3.62l.94.11a11.71,11.71,0,0,1-.21,1.18,2.6,2.6,0,0,0,1.25,1.55V344h-2.69v-.85h6.48V344h-2.8v1.16h2.23V346Zm2.21-7.26v3.73h-5.36v-3.73Zm-1,1.5v-.75h-3.41v.75Zm0,1.45V341h-3.41v.75Z" transform="translate(-8.03 -10.99)" style="fill:#768e91"/><path d="M156.71,342.85H153.6v5.84h-1v-9.85h4.14Zm-1-3.18H153.6v.78h2.12ZM153.6,342h2.12v-.85H153.6Zm5.64,5.08H156v.65h-1v-4h4.23Zm-1-2.5H156v1.64h2.29Zm3.57-5.78v8.53a1.65,1.65,0,0,1-.13.73.74.74,0,0,1-.42.39,7,7,0,0,1-2.1.19,2.86,2.86,0,0,0-.35-1.06l1.66,0a.25.25,0,0,0,.27-.29v-4.49H157.6v-4Zm-1.07.82h-2.17v.79h2.17Zm-2.17,2.39h2.17v-.86h-2.17Z" transform="translate(-8.03 -10.99)" style="fill:#768e91"/><path d="M170.44,342.94l1.11.3a8.22,8.22,0,0,1-1.76,2.74,9.65,9.65,0,0,0,4.36,1.71,4.35,4.35,0,0,0-.69,1,9.82,9.82,0,0,1-4.5-2,12.18,12.18,0,0,1-4.5,2,4.45,4.45,0,0,0-.66-1,11.16,11.16,0,0,0,4.37-1.77,9.06,9.06,0,0,1-1.65-2.68l1-.3a6.67,6.67,0,0,0,1.46,2.28A6.73,6.73,0,0,0,170.44,342.94ZM166.83,341l1.08.4a9.6,9.6,0,0,1-1.43,1.53,12.72,12.72,0,0,1-1.67,1.25,6.47,6.47,0,0,0-.86-.82,9.17,9.17,0,0,0,1.62-1.06A7,7,0,0,0,166.83,341Zm7-1.25v1h-9.78v-1h4.33v-1.4h1.07v1.4Zm-3.69,1.82.85-.64q.84.56,1.68,1.23a9.41,9.41,0,0,1,1.3,1.2l-.92.72a9,9,0,0,0-1.24-1.21C171.28,342.41,170.72,342,170.16,341.58Z" transform="translate(-8.03 -10.99)" style="fill:#768e91"/><path d="M178.2,342.54l-.61.89a5.09,5.09,0,0,0-.9-.62c-.38-.22-.76-.41-1.13-.58l.57-.78A8.11,8.11,0,0,1,178.2,342.54Zm-.33,1.73.8.67c-.59,1.27-1.21,2.47-1.87,3.6l-.9-.67A29.18,29.18,0,0,0,177.87,344.27Zm.9-4.64-.61.83a7.71,7.71,0,0,0-2-1.24l.57-.76A7.44,7.44,0,0,1,178.77,339.63Zm.92,5.17v-1.12h.94v1.14a6.1,6.1,0,0,1-.26,2,3.35,3.35,0,0,1-.52,1,4.09,4.09,0,0,1-.89.87,2.65,2.65,0,0,0-.73-.68,3.26,3.26,0,0,0,1-1,3.42,3.42,0,0,0,.43-1.06A6.91,6.91,0,0,0,179.69,344.8Zm-.93-5h2.84v-1.39h1.06v1.39h3.14v1h-3.73c-.43.8-.72,1.31-.85,1.54l2.64-.09c-.21-.24-.47-.5-.77-.79l.8-.43a11.54,11.54,0,0,1,1.16,1.16,7.43,7.43,0,0,1,.86,1.17l-.88.49a5.18,5.18,0,0,0-.47-.73l-5.6.27-.11-1,1.29,0a11.55,11.55,0,0,0,.74-1.57h-2.12Zm2.84,8.43v-4.44h.92v4.44Zm2.87-.93v.18a.74.74,0,0,0,0,.12c0,.05,0,.08.07.09h.37a.29.29,0,0,0,.22-.06.72.72,0,0,0,.1-.28q0-.24,0-1.08a2.81,2.81,0,0,0,.71.38,7.28,7.28,0,0,1-.11,1.28.81.81,0,0,1-.9.61h-.56a.89.89,0,0,1-.67-.24.66.66,0,0,1-.18-.34,3.25,3.25,0,0,1,0-.74v-3.53h.95Z" transform="translate(-8.03 -10.99)" style="fill:#768e91"/></g><g style="isolation:isolate"><path d="M80.82,365.46V365H92.05v.45Z" transform="translate(-8.03 -10.99)" style="fill:#768e91"/><path d="M93.7,369.51v-8.27h2.51c2.09,0,3.14.84,3.14,2.5a2.36,2.36,0,0,1-.84,2,3.57,3.57,0,0,1-2.26.66H95v3.14Zm1.3-4.18h1.13a2.32,2.32,0,0,0,1.48-.39,1.48,1.48,0,0,0,.47-1.2,1.25,1.25,0,0,0-.49-1.12,2.85,2.85,0,0,0-1.51-.32H95Z" transform="translate(-8.03 -10.99)" style="fill:#768e91"/><path d="M102.86,369.65a1.84,1.84,0,0,1-1.31-.48,1.72,1.72,0,0,1-.51-1.3,1.7,1.7,0,0,1,.89-1.53,7.07,7.07,0,0,1,2.81-.75q0-1.35-1.17-1.35a3.3,3.3,0,0,0-1.79.62l-.48-.88a4.59,4.59,0,0,1,2.49-.81,2.05,2.05,0,0,1,1.68.68,3,3,0,0,1,.56,1.94v3.72h-1l-.12-.71h0A3,3,0,0,1,102.86,369.65Zm.4-1a2.23,2.23,0,0,0,1.48-.71V366.4a4.9,4.9,0,0,0-1.89.49,1,1,0,0,0-.56.89.77.77,0,0,0,.27.64A1.08,1.08,0,0,0,103.26,368.63Z" transform="translate(-8.03 -10.99)" style="fill:#768e91"/><path d="M108.41,369.51v-6.17h1.06l.11,1.1h0a2.71,2.71,0,0,1,.79-.93,1.56,1.56,0,0,1,.95-.34,1.54,1.54,0,0,1,.7.15l-.24,1.11a2.2,2.2,0,0,0-.61-.09,1.27,1.27,0,0,0-.82.32,2.35,2.35,0,0,0-.68,1v3.85Z" transform="translate(-8.03 -10.99)" style="fill:#768e91"/><path d="M115.64,369.65c-1.25,0-1.87-.72-1.87-2.16v-3.12h-.9v-1l.95-.06.14-1.71h1.09v1.71h1.61v1h-1.61v3.13c0,.75.3,1.12.9,1.12a1.75,1.75,0,0,0,.67-.14l.23.95A4,4,0,0,1,115.64,369.65Z" transform="translate(-8.03 -10.99)" style="fill:#768e91"/><path d="M118.08,369.51v-.76a19.42,19.42,0,0,0,2.79-2.89,3.9,3.9,0,0,0,.9-2.23,1.62,1.62,0,0,0-.36-1.1,1.33,1.33,0,0,0-1-.41,2.22,2.22,0,0,0-1.63.92l-.73-.71a4.55,4.55,0,0,1,1.16-.93,2.8,2.8,0,0,1,1.35-.31,2.48,2.48,0,0,1,1.82.68,2.44,2.44,0,0,1,.68,1.8,4.28,4.28,0,0,1-.79,2.33,14.83,14.83,0,0,1-2.23,2.59,13.47,13.47,0,0,1,1.35-.08h2.06v1.1Z" transform="translate(-8.03 -10.99)" style="fill:#768e91"/><path d="M124.54,365.46V365h11.23v.45Z" transform="translate(-8.03 -10.99)" style="fill:#768e91"/></g><g style="isolation:isolate"><path d="M85.13,391.36a3.42,3.42,0,0,1-2.64-1.14,5.21,5.21,0,0,1,0-6.26,3.42,3.42,0,0,1,2.67-1.16,3,3,0,0,1,2.34,1l-.7.83a2.19,2.19,0,0,0-1.62-.74,2.09,2.09,0,0,0-1.75.85,3.6,3.6,0,0,0-.66,2.28,3.76,3.76,0,0,0,.64,2.32,2,2,0,0,0,1.74.85,2.43,2.43,0,0,0,1.83-.88l.7.82A3.26,3.26,0,0,1,85.13,391.36Z" transform="translate(-8.03 -10.99)" style="fill:#768e91"/><path d="M92.07,391.36a3.9,3.9,0,0,1-2.93-1.21l.76-.9a3,3,0,0,0,2.2,1,1.87,1.87,0,0,0,1.15-.32,1,1,0,0,0,.41-.85,1.1,1.1,0,0,0-.08-.47.86.86,0,0,0-.31-.36,2.76,2.76,0,0,0-.38-.24l-.55-.25-1.15-.49a2.33,2.33,0,0,1-1.68-2.17,2.06,2.06,0,0,1,.77-1.63,2.91,2.91,0,0,1,2-.65,3.45,3.45,0,0,1,2.5,1l-.68.83a2.66,2.66,0,0,0-1.82-.74,1.61,1.61,0,0,0-1,.29.93.93,0,0,0-.38.78,1,1,0,0,0,.1.44.94.94,0,0,0,.34.35,3.5,3.5,0,0,0,.39.24l.51.21,1.13.48a3.24,3.24,0,0,1,1.25.87A2,2,0,0,1,95,389a2.17,2.17,0,0,1-.79,1.71A3.14,3.14,0,0,1,92.07,391.36Z" transform="translate(-8.03 -10.99)" style="fill:#768e91"/><path d="M103.08,391.22h-1.47l-1.87-3.34H98.4v3.34H97.1V383h2.71c2,0,3,.8,3,2.39a2.29,2.29,0,0,1-1.72,2.38ZM98.4,384v2.84h1.25q1.86,0,1.86-1.5a1.16,1.16,0,0,0-.46-1,2.48,2.48,0,0,0-1.4-.31Z" transform="translate(-8.03 -10.99)" style="fill:#768e91"/><path d="M108,391.22v-1.07h1.81V384.4H108.3v-.81a5.41,5.41,0,0,0,1.79-.64h1v7.2h1.61v1.07Z" transform="translate(-8.03 -10.99)" style="fill:#768e91"/><path d="M117.16,391.36a2.24,2.24,0,0,1-2-1.1,6,6,0,0,1-.71-3.21,5.81,5.81,0,0,1,.71-3.17,2.32,2.32,0,0,1,3.92,0,5.74,5.74,0,0,1,.72,3.17,5.92,5.92,0,0,1-.72,3.21A2.22,2.22,0,0,1,117.16,391.36Zm0-1c1,0,1.43-1.1,1.43-3.29s-.48-3.23-1.43-3.23-1.44,1.07-1.44,3.23S116.2,390.34,117.16,390.34Z" transform="translate(-8.03 -10.99)" style="fill:#768e91"/><path d="M124.11,391.36a2.22,2.22,0,0,1-2-1.1,5.92,5.92,0,0,1-.71-3.21,5.73,5.73,0,0,1,.71-3.17,2.32,2.32,0,0,1,3.92,0,5.74,5.74,0,0,1,.72,3.17,5.92,5.92,0,0,1-.72,3.21A2.24,2.24,0,0,1,124.11,391.36Zm0-1c1,0,1.44-1.1,1.44-3.29s-.48-3.23-1.44-3.23-1.44,1.07-1.44,3.23S123.15,390.34,124.11,390.34Z" transform="translate(-8.03 -10.99)" style="fill:#768e91"/><path d="M135.92,381.75H137a13.13,13.13,0,0,0,4.85,4.23,4.49,4.49,0,0,0-.69.93,16.79,16.79,0,0,1-2.62-1.9,12.56,12.56,0,0,1-2-2.21,11.6,11.6,0,0,1-1.92,2.2A15,15,0,0,1,132,387a3.75,3.75,0,0,0-.66-.84,12.71,12.71,0,0,0,2.69-2A10.3,10.3,0,0,0,135.92,381.75Zm1.25,6.55v2.54h4.14v1h-9.48v-1h1.33v-4h1v4h1.9v-6h1.09v2.52h3.12v.94Z" transform="translate(-8.03 -10.99)" style="fill:#768e91"/><path d="M153.27,389.49h-3.52a8.29,8.29,0,0,0,1.76.93,10.43,10.43,0,0,0,2.05.61,3.52,3.52,0,0,0-.69.93,11.27,11.27,0,0,1-2.19-.85,8.5,8.5,0,0,1-1.84-1.26v2.25h-1v-2.18a9,9,0,0,1-1.84,1.19,11.66,11.66,0,0,1-2.15.84,3.54,3.54,0,0,0-.68-.89,11.87,11.87,0,0,0,2-.63,8.68,8.68,0,0,0,1.75-.94h-3.46v-.87h4.35v-.68h-3.31v-.79h3.31v-.67H144v-.83h2.3a4.43,4.43,0,0,0-.47-1l.27-.05h-2.55v-.87h1.66a7.41,7.41,0,0,0-.82-1.52l.91-.3a6.86,6.86,0,0,1,.9,1.6l-.57.22h1.23v-1.92h1v1.92h1.11v-1.92h1v1.92h1.22l-.43-.14a7.76,7.76,0,0,0,.79-1.66l1.08.27c-.38.67-.69,1.17-.93,1.53h1.61v.87h-2.16c-.08.15-.2.35-.36.61s-.25.41-.28.46h2.39v.83h-4v.67h3.44v.79h-3.44v.68h4.43Zm-3.39-4.91h-3a5,5,0,0,1,.48,1l-.33.07h2.37A9.31,9.31,0,0,0,149.88,384.58Z" transform="translate(-8.03 -10.99)" style="fill:#768e91"/><path d="M157.66,384.76l.62.24a14.19,14.19,0,0,1-1,3.69,7.52,7.52,0,0,1-1.67,2.52,3.2,3.2,0,0,0-.37-.44,1.85,1.85,0,0,0-.4-.35,6.21,6.21,0,0,0,1.4-1.93,10.49,10.49,0,0,0,.89-2.74H155.2v-.95h2.25Zm3,3.41v1h2.19V390h-2.19v.91a1.44,1.44,0,0,1-.13.69.73.73,0,0,1-.43.35,7.09,7.09,0,0,1-2,.18,3.79,3.79,0,0,0-.37-1l1,0h.63c.19,0,.28-.09.28-.26V390h-2.12v-.87h2.12v-1h-1.52v-.84h1.52v-.91h-1.28v-.85h1.28v-1.29h.65a8.45,8.45,0,0,0,1.45-.93h-5v-1h6.14l.23,0,.71.52a11,11,0,0,1-3.09,2.18v.52H162v.85h-1.39v.91h1.59v.84Zm3.8-3.46.85.65c-.77.89-1.35,1.52-1.75,1.9a6.26,6.26,0,0,0,1.9,3.07,2.71,2.71,0,0,0-.77.9c-1.31-1.17-2.21-3.37-2.68-6.59l.93-.16a16.43,16.43,0,0,0,.34,1.77A13,13,0,0,0,164.41,384.71Z" transform="translate(-8.03 -10.99)" style="fill:#768e91"/><path d="M170.74,383.65v.83h-4v-.83Zm6.35,3h-3.52a10.56,10.56,0,0,1-.66,1.39h3.72v4h-1v-.44h-2.44v.47h-1v-3a7.58,7.58,0,0,1-1.06,1.06,4.65,4.65,0,0,0-.67-.74v2h-2.35V392h-.88v-3.77h3.23v1.18a6.2,6.2,0,0,0,2-2.68h-1.77v-.94h2.11c.12-.44.2-.77.24-1h-1v-1h-1.21v-.9h1.21V381.8h1v1.05h1.73V381.8h1v1.05H177v.9h-1.17v1h-1v-1h-1.73v1l0-.22,1,.16c-.07.31-.15.65-.26,1h3.22Zm-6.63-1.52V386h-3.21v-.82Zm-3.21,2.32v-.82h3.21v.82Zm3.17-5.32V383H167.3v-.81Zm-.84,8.48V389h-1.46v1.63Zm6-1.67h-2.44v1.74h2.44Z" transform="translate(-8.03 -10.99)" style="fill:#768e91"/><path d="M188.75,383.82H188a5.79,5.79,0,0,1-1.07,2.07,5.48,5.48,0,0,0,2,1,2.48,2.48,0,0,0-.58.82,6.1,6.1,0,0,1-2-1.22,6.87,6.87,0,0,1-2.17,1.18,2.64,2.64,0,0,0-.59-.75,5.89,5.89,0,0,0,2.14-1.07,6.11,6.11,0,0,1-.83-1.28,4.53,4.53,0,0,1-.6.67,5.17,5.17,0,0,0-.57-.61v1.1H182c.68.32,1.25.61,1.73.86l-.52.68a15.88,15.88,0,0,0-1.43-.92v1.26h-.92v-1.25a6.55,6.55,0,0,1-1.71,1.27,2.84,2.84,0,0,0-.6-.64,6.56,6.56,0,0,0,1.93-1.26h-1.43v-2.09h1.81v-.49h-2.1v-.74h2.1v-.64h.92v.64h2.11v.74h-2.11v.49h1.89v.78a5.38,5.38,0,0,0,1.51-2.65l1,.22c-.07.22-.19.55-.36,1h3Zm-4.54,6.44V391h4.58v.85H178.67V391h1.75v-1.82h1V391h1.78v-2.27h-3.81v-.83h8.69v.83h-3.86v.71h3.08v.79Zm-4.31-5.95v.79h1v-.79Zm2.91.79v-.79h-1v.79Zm2.57-1.28h0a5,5,0,0,0,.9,1.42,4,4,0,0,0,.74-1.43Z" transform="translate(-8.03 -10.99)" style="fill:#768e91"/><path d="M195.16,387h-.69v4.21c0,.41-.11.67-.34.78a2.86,2.86,0,0,1-1.17.14,2.85,2.85,0,0,0-.28-.8h.76c.09,0,.13,0,.13-.14v-1H192.1v1.94h-.87V387h-.67V385.3h.64v-3.13h3.3v3.13h.66Zm-.8-.33V386h-3v.61ZM192,382.94v2.36h.51v-1.76h1.21v-.6Zm1.6,5.1v-.66H192.1V388Zm-1.47,1.39h1.47v-.68H192.1Zm1-4.13h.61v-1.13h-.61Zm6,5.86h1.64v.77H195v-.77h1.58a5.07,5.07,0,0,0-.42-1l.67-.24h-1.14v-2.11h4.44v2.11h-1.21l.73.2C199.57,390.2,199.37,390.56,199,391.16Zm1.55-4.57v.74h-5.41v-.74Zm-.32-3.82v3.35h-4.8v-3.35h1.29v-1h.75v1h.67v-1h.75v1Zm-4,.69v.65h.62v-.65Zm0,1.31v.66h.62v-.66Zm.24,3.66v.81h2.69v-.81Zm2.24,1.46h-1.88a3.9,3.9,0,0,1,.52,1.26h.86A7.57,7.57,0,0,0,198.75,389.89Zm-1.24-5.78h.67v-.65h-.67Zm.67.66h-.67v.66h.67Zm1.27-.66v-.65h-.67v.65Zm0,1.32v-.66h-.67v.66Z" transform="translate(-8.03 -10.99)" style="fill:#768e91"/><path d="M212.44,384.8h-.61a14.55,14.55,0,0,1-1.18,4.43,4.89,4.89,0,0,0,1.86,2.06,2.67,2.67,0,0,0-.7.83,5.81,5.81,0,0,1-1.75-1.89,6.76,6.76,0,0,1-2,1.91,3.43,3.43,0,0,0-.57-.83l-.63.64a12.05,12.05,0,0,0-1.22-.73,8.08,8.08,0,0,1-2.84.92,1.79,1.79,0,0,0-.38-.81,7.44,7.44,0,0,0,2.31-.55l-.4-.17-.5-.21-.16.25-.85-.23c.33-.53.56-.9.67-1.1l-1.31,0,0-.8h1.77c.1-.18.2-.37.3-.58h-1.6V386h2v-.44h-1.78v-1.2h-.74v-.75h.74v-1.19h1.78v-.62h.9v.62h1.9v1.19h.76v.75h-.76v1.2h-1.9V386h2.15v.46a14.4,14.4,0,0,0,1.29-4.67l1,.15c-.08.62-.2,1.25-.35,1.9h2.79Zm-8.94,1.87v.61h1.16v-.61Zm1.16-3.56h-.92v.54h.92Zm-.92,1.75h.92v-.55h-.92Zm.73,4.45-.26.44,1.3.51a2.64,2.64,0,0,0,.67-1Zm3.76-.08-1.11,0a3.37,3.37,0,0,1-.77,1.4,9.38,9.38,0,0,1,1.13.62,5.46,5.46,0,0,0,2.08-2,15,15,0,0,1-.79-2.62,8.17,8.17,0,0,1-.54,1,5.11,5.11,0,0,0-.52-.54v.9h-2.49c-.11.21-.21.4-.31.57l3.36,0Zm-1.7-6.12h-1v.54h1Zm-1,1.75h1v-.55h-1Zm1.24,1.81h-1.24v.61h1.24Zm4-1.87h-1.42l0,.12a16.5,16.5,0,0,0,.75,3.11A13.33,13.33,0,0,0,210.84,384.8Z" transform="translate(-8.03 -10.99)" style="fill:#768e91"/><path d="M217.3,387.43l-1.13.37V391a1.48,1.48,0,0,1-.08.56.88.88,0,0,1-.2.33.71.71,0,0,1-.39.18,3.41,3.41,0,0,1-.49.06h-.68a3.53,3.53,0,0,0-.28-1,8.21,8.21,0,0,0,1,0c.14,0,.21-.06.21-.2v-2.88l-1.2.37-.25-1,1.45-.41v-2.11H214v-1h1.27V381.8h.93V384h1v1h-1v1.85l.5-.16.49-.15Zm1.09-2.93V387a8.7,8.7,0,0,1-1.2,5.13,2.51,2.51,0,0,0-.76-.52,8,8,0,0,0,1-4.62v-3.22H220v-1.91h1v.61h2.59v.75H221v.55h2.36l.15,0,.65.13a13.56,13.56,0,0,1-.54,1.66l-.79-.17a6.61,6.61,0,0,0,.25-.83h-2.26V385l1.66-.16.06.61-1.72.16v.16a.27.27,0,0,0,.08.23,1,1,0,0,0,.38,0h1.38c.15,0,.24,0,.29-.08a.79.79,0,0,0,.07-.41,2.51,2.51,0,0,0,.73.23,1,1,0,0,1-.27.69,1.05,1.05,0,0,1-.72.19h-1.59a1.82,1.82,0,0,1-1-.18.83.83,0,0,1-.24-.71v-.08l-1.25.12-.07-.61,1.32-.12v-.61Zm5.09,3.56.59.46a11.34,11.34,0,0,1-1.25.92,3.72,3.72,0,0,0,1.54,1.49,2.89,2.89,0,0,0-.57.72,5.49,5.49,0,0,1-2.33-3.84,6.54,6.54,0,0,1-.74.51,2.94,2.94,0,0,1,1,1.27,2.54,2.54,0,0,1,.21,1.33,1.35,1.35,0,0,1-.4.88,1.32,1.32,0,0,1-.84.33,4.37,4.37,0,0,1-.59,0,1.58,1.58,0,0,0-.21-.74,5.79,5.79,0,0,0,.65,0,.52.52,0,0,0,.42-.15,1.12,1.12,0,0,0,.17-1,10,10,0,0,1-2.61,1.52,2.55,2.55,0,0,0-.41-.58,8.29,8.29,0,0,0,1.54-.66,6.15,6.15,0,0,0,1.28-.87,3,3,0,0,0-.21-.35,8.07,8.07,0,0,1-1.93,1.05,2.08,2.08,0,0,0-.37-.53,5.38,5.38,0,0,0,2-.93l-.28-.23a11.87,11.87,0,0,1-1.26.48,1.76,1.76,0,0,0-.31-.53,7.5,7.5,0,0,0,2-.85h-1.91v-.71h5.45v.71h-1.95a7,7,0,0,0,.37,1.09A11.83,11.83,0,0,0,223.48,388.06Z" transform="translate(-8.03 -10.99)" style="fill:#768e91"/><path d="M234.86,388.61H236v1h-10.2v-1h1.12l-.21-6.06.63.19a11.8,11.8,0,0,0,1.42-.84l.8.75c-.46.24-1.09.53-1.88.86l0,1h1.41v.86h-1.38l0,1.19h1.35v.87h-1.32l0,1.17h1.77v-2.49h.85v2.49h.88v-2.94H229.6v-3.76h.91V383h1.84v.87h-1.84v1h1.71v3.77h1.65c0-.08,0-.25,0-.51s0-.48,0-.64h-1.26v-.89H234c0-.13,0-.33,0-.59s0-.46,0-.6h-1.32v-.86H234c0-.51,0-.89,0-1.14h-1.48v-.9H235C235,385.09,235,387.14,234.86,388.61Zm-5.91,1,1,.64a17.29,17.29,0,0,1-3.24,1.85,6.18,6.18,0,0,0-.81-.74,14,14,0,0,0,1.71-.83A8.54,8.54,0,0,0,229,389.63Zm2.83.67.78-.7a31.5,31.5,0,0,1,3.37,1.8l-1,.73A21.28,21.28,0,0,0,231.78,390.3Z" transform="translate(-8.03 -10.99)" style="fill:#768e91"/><path d="M241.53,388.32l.14.93c-.55.17-1.32.4-2.31.68l-1.71.5-.26-1,1.68-.43v-2.51h-1.35v-1h1.35v-2.2h-1.46v-1h3.85v1h-1.37v2.2h1.26v1h-1.26v2.24Zm4.56,2.81h.69c.12,0,.19-.08.23-.23a7,7,0,0,0,.08-1.08,2.14,2.14,0,0,0,.87.4,3.6,3.6,0,0,1-.28,1.43.84.84,0,0,1-.78.38h-1a1.17,1.17,0,0,1-.88-.26,1.53,1.53,0,0,1-.22-1v-2.37h-.92a7.58,7.58,0,0,1-.25,1.26,4,4,0,0,1-.49,1,3.39,3.39,0,0,1-.91.85,5.89,5.89,0,0,1-1.4.61,2.7,2.7,0,0,0-.25-.46,2.12,2.12,0,0,0-.33-.4,5.29,5.29,0,0,0,1.22-.46,2.28,2.28,0,0,0,.77-.65,3.14,3.14,0,0,0,.41-.79,4.48,4.48,0,0,0,.19-1h-.92v-6.17h5.34v6.17h-1.47v2.36a.5.5,0,0,0,.05.28S246,391.13,246.09,391.13Zm-3.16-8v.94h3.32v-.94Zm0,1.74v.94h3.32v-.94Zm0,1.75v.94h3.32v-.94Z" transform="translate(-8.03 -10.99)" style="fill:#768e91"/><path d="M252,385.94l-.57.89a6.68,6.68,0,0,0-1-.6,11.29,11.29,0,0,0-1.22-.53l.55-.79A7.84,7.84,0,0,1,252,385.94Zm-.07,1.68.75.65c-.79,1.51-1.5,2.75-2.13,3.7l-.88-.66A32.45,32.45,0,0,0,252,387.62Zm.64-4.69-.6.85a7.06,7.06,0,0,0-2-1.15l.58-.78A6.68,6.68,0,0,1,252.61,382.93Zm5.08,8.14h.71c.13,0,.21-.1.25-.29a9.48,9.48,0,0,0,.08-1.35,2.34,2.34,0,0,0,.93.4,4.74,4.74,0,0,1-.31,1.72.86.86,0,0,1-.84.44h-1a1.17,1.17,0,0,1-.93-.28,1.71,1.71,0,0,1-.23-1v-3.74h-1.09q0,.84-.12,1.44a8.15,8.15,0,0,1-.25,1.21,3.92,3.92,0,0,1-.47,1.05,3.67,3.67,0,0,1-.77.82,4.75,4.75,0,0,1-1.13.67,1.9,1.9,0,0,0-.27-.45,1.81,1.81,0,0,0-.35-.4,3.87,3.87,0,0,0,1-.55,2.78,2.78,0,0,0,.66-.67,2.5,2.5,0,0,0,.39-.87,6.55,6.55,0,0,0,.2-1c0-.32.06-.73.09-1.23h-1.09v-4.64H259v4.64h-1.59v3.73a.78.78,0,0,0,0,.34A.3.3,0,0,0,257.69,391.07Zm-3.53-7.81V386h3.76v-2.69Z" transform="translate(-8.03 -10.99)" style="fill:#768e91"/><path d="M263.28,393.45a10.77,10.77,0,0,1,0-11.49l.8.35a11,11,0,0,0,0,10.78Z" transform="translate(-8.03 -10.99)" style="fill:#768e91"/><path d="M268.71,382.6l.82-.4a8.49,8.49,0,0,1,1.54,2l-.88.41c0-.09-.13-.24-.26-.46l-4.13.19-.07-.86c.16,0,.44,0,.87,0a9.09,9.09,0,0,0,.77-1.64l1.05.26c-.48.8-.75,1.25-.82,1.35l1.76-.06C269.22,383.16,269,382.91,268.71,382.6Zm-2,9.53-1-.43a3,3,0,0,0,.72-.8,5.11,5.11,0,0,0,.52-1.08l1,.26A4.82,4.82,0,0,1,266.73,392.13Zm3.64-7.38v3.79a1.23,1.23,0,0,1-.09.53.59.59,0,0,1-.34.26,5.31,5.31,0,0,1-1.52.13,3.38,3.38,0,0,0-.28-.77c.16,0,.53,0,1.09,0a.16.16,0,0,0,.16-.18V388h-2v1.55h-.93v-4.76Zm-1,.72h-2v.6h2Zm-2,1.85h2v-.62h-2Zm1.58,2.87,1-.08a9.56,9.56,0,0,1,.23,1.8l-1,.12A8.75,8.75,0,0,0,269,390.19Zm2.24,0,1-.2a8.3,8.3,0,0,1,.6,1.78l-1,.24A9.14,9.14,0,0,0,271.21,390.22Zm3.29-4.66h-1.74a1.8,1.8,0,0,1-1.14-.25,1.23,1.23,0,0,1-.29-1v-2.51h1V383a11.88,11.88,0,0,0,2.18-.73l.67.69a15.51,15.51,0,0,1-2.85.82v.57c0,.16,0,.27.1.31a1,1,0,0,0,.44.07h1.53a.4.4,0,0,0,.38-.17,2.4,2.4,0,0,0,.12-.79,1.82,1.82,0,0,0,.86.35,2.05,2.05,0,0,1-.34,1.15A1.2,1.2,0,0,1,274.5,385.56Zm.06,4h-1.79a1.84,1.84,0,0,1-1.15-.26,1.26,1.26,0,0,1-.29-1V385.7h1v1.17a9.9,9.9,0,0,0,2.25-.8l.67.69a13.45,13.45,0,0,1-2.92.89v.64a.36.36,0,0,0,.11.31,1.07,1.07,0,0,0,.45.06h1.58a.38.38,0,0,0,.37-.17,2.29,2.29,0,0,0,.11-.8,2.91,2.91,0,0,0,.9.36,2.26,2.26,0,0,1-.35,1.16A1.2,1.2,0,0,1,274.56,389.52Zm-1.09.67,1-.36a9.44,9.44,0,0,1,1.4,1.9l-1,.39A8.08,8.08,0,0,0,273.47,390.19Z" transform="translate(-8.03 -10.99)" style="fill:#768e91"/><path d="M286.46,384.84v.32a.08.08,0,0,1,0,0s0,0,0,0l0,0h.29a.25.25,0,0,0,.19-.06.34.34,0,0,0,.08-.21c0-.11,0-.4,0-.86a2.38,2.38,0,0,0,.71.4,5.14,5.14,0,0,1-.11,1.06.81.81,0,0,1-.86.48h-.5a1,1,0,0,1-.65-.2,1.74,1.74,0,0,1-.23-1.06v-1.66h-1.35v.64a3.3,3.3,0,0,1-1.19,2.85,2.42,2.42,0,0,0-.33-.34,3.21,3.21,0,0,0-.39-.31l.15-.11h-1.91c-.13.15-.28.31-.44.47a4.29,4.29,0,0,1,.7,1,9.63,9.63,0,0,0,.89-1.12l.79.49c-.49.53-.89.92-1.19,1.19A9.58,9.58,0,0,1,283,389.4l-.62.7a8.26,8.26,0,0,0-1.11-1.08,5.16,5.16,0,0,1,0,1.57,1.83,1.83,0,0,1-.41,1,1.3,1.3,0,0,1-1.07.46,7.42,7.42,0,0,1-.77,0,1.7,1.7,0,0,0-.21-.88l.28,0,.3,0h.2a.62.62,0,0,0,.54-.26,2,2,0,0,0,.27-1.44,10.55,10.55,0,0,1-2.56,1.76,2.91,2.91,0,0,0-.52-.75,8.37,8.37,0,0,0,1.62-.84,6.42,6.42,0,0,0,1.33-1.14,3.14,3.14,0,0,0-.19-.59,9,9,0,0,1-2.13,1.48,2.47,2.47,0,0,0-.49-.68,6.91,6.91,0,0,0,1.24-.63,5.6,5.6,0,0,0,1.06-.84,5.34,5.34,0,0,0-.32-.43,7.73,7.73,0,0,1-1.44.89,3.31,3.31,0,0,0-.66-.63,6.69,6.69,0,0,0,2-1.24h-1.84V385h1.2a6,6,0,0,0-.37-1.24l.52-.11h-1.2v-.89h1.89v-.9h1v.9h1.95v.89h-1l.43.09c-.09.22-.29.64-.61,1.26h1.31v.7a2.61,2.61,0,0,0,.64-1.91v-1.55h3.23Zm-5.51-1.2h-1.74a4.24,4.24,0,0,1,.38,1.25l-.35.1h1.6l-.29-.1C280.74,384.36,280.87,384,281,383.64Zm5.7,3,.64.25a7.41,7.41,0,0,1-1.62,3.2,6.08,6.08,0,0,0,2.15,1.14,2.74,2.74,0,0,0-.65.89,6.39,6.39,0,0,1-2.23-1.34,7.81,7.81,0,0,1-2.42,1.32,3.26,3.26,0,0,0-.57-.87,6.6,6.6,0,0,0,2.31-1.2,8.39,8.39,0,0,1-1.18-2.19l.85-.23h-1.26v-.92h3.8Zm-.62,1h-2a6.6,6.6,0,0,0,1,1.75A5.79,5.79,0,0,0,286,387.61Z" transform="translate(-8.03 -10.99)" style="fill:#768e91"/><path d="M295.83,387.57l-.58.69a9.94,9.94,0,0,0-.62-1v4.83h-.92v-4.27a8.59,8.59,0,0,1-1,2.11l-.44-.49v.7h-1.89V391h-.84v-8.43h2.73v6.27a12,12,0,0,0,1.36-3.76h-1.18v-.89h1.22v-2.37h.92v2.37h1.06v.89h-1.06v1.06C295,386.59,295.42,387.05,295.83,387.57Zm-4.37-4h-1v2.35h1Zm-1,5.69h1v-2.44h-1Zm9.09-3.73v.9h-.89v5.69h-.91V386.4h-.89v.31a9.49,9.49,0,0,1-1.2,5.36,2.08,2.08,0,0,0-.71-.66,5.24,5.24,0,0,0,.81-2.1,16,16,0,0,0,.19-2.61v-3.87l.45.13a9.9,9.9,0,0,0,2.17-1.11l.88.7a13,13,0,0,1-2.59,1.12v1.83Z" transform="translate(-8.03 -10.99)" style="fill:#768e91"/><path d="M301.85,393.45l-.81-.36a10.94,10.94,0,0,0,0-10.78l.81-.35a10.72,10.72,0,0,1,0,11.49Z" transform="translate(-8.03 -10.99)" style="fill:#768e91"/></g><g style="isolation:isolate"><path d="M85.7,403.81h1.19s0,.1,0,.23a2.58,2.58,0,0,1,0,.32c0,.28.05.56.08.84s.1.67.2,1.15a13,13,0,0,0,.36,1.37,10.39,10.39,0,0,0,.59,1.43,9.43,9.43,0,0,0,.87,1.42,7.75,7.75,0,0,0,1.2,1.25,6.5,6.5,0,0,0,1.58,1,3.41,3.41,0,0,0-.79.88,8.81,8.81,0,0,1-4.55-6.05,9.13,9.13,0,0,1-4.32,6.06,2.94,2.94,0,0,0-.86-.82,8.15,8.15,0,0,0,1.4-.94,7,7,0,0,0,1.07-1.13,9.52,9.52,0,0,0,.78-1.21,7.16,7.16,0,0,0,.55-1.28c.13-.44.25-.85.34-1.23a7.86,7.86,0,0,0,.2-1.18c0-.4.07-.73.1-1s0-.53,0-.8S85.7,403.87,85.7,403.81Z" transform="translate(-8.03 -10.99)" style="fill:#768e91"/><path d="M96.43,405.88l.1.77-3.13.86-.33-.85C93.68,406.54,94.8,406.29,96.43,405.88Zm0,6.13,1,.44A13.65,13.65,0,0,1,94,413.84a6.08,6.08,0,0,0-.79-.78A11.2,11.2,0,0,0,96.47,412Zm-.07-7.71v.8H93.48v-.8Zm2.75.74h-1a6,6,0,0,1-1,.93,2.21,2.21,0,0,0-.79-.5,4.59,4.59,0,0,0,1.67-2l.94.15a5.41,5.41,0,0,1-.35.64h3.61l.15,0,.69.19a6.86,6.86,0,0,1-1.08,1.62l-.83-.25a5.31,5.31,0,0,0,.58-.77H100.2a2.11,2.11,0,0,0,.9,1.16,5.41,5.41,0,0,0,2.26.67,2.24,2.24,0,0,0-.53.86l-.87-.2V412H94.64v-4.52H96.9a2.33,2.33,0,0,0-.46-.68,4.88,4.88,0,0,0,1.9-.62A2,2,0,0,0,99.15,405Zm1.77,3.73v-.63H95.66v.63Zm0,1.27v-.65H95.66V410Zm0,1.29v-.66H95.66v.66Zm-3.69-3.86h4.56A3.44,3.44,0,0,1,99.73,406,3.82,3.82,0,0,1,97.23,407.47ZM99,412.56l.85-.53a31,31,0,0,1,3.36,1.31l-1.21.49A20,20,0,0,0,99,412.56Z" transform="translate(-8.03 -10.99)" style="fill:#768e91"/><path d="M115.08,410.53v.85h-2.6v1.38a1.38,1.38,0,0,1-.1.6.68.68,0,0,1-.4.31,7.53,7.53,0,0,1-1.85.13,2.84,2.84,0,0,0-.31-.9c.68,0,1.16,0,1.42,0a.32.32,0,0,0,.18-.05s0-.07,0-.14v-1.34h-3.73a7.8,7.8,0,0,1,1.53,1.21l-.76.68a8.15,8.15,0,0,0-1.77-1.46l.51-.43H105v-.85h6.5V410q-3.54.09-6,.12l0-.79,4.08,0v-.53h-3.35v-3.11h3.35v-.53h-4.21v-.8h4.21v-.79h1v.79h4.14v.8h-4.14v.53H114v3.11h-1a9.44,9.44,0,0,1,1.74,1l-.61.56c-.07-.06-.27-.19-.59-.4l-1,0v.6Zm-8-4.22v.56h2.36v-.56Zm0,1.79h2.36v-.59h-2.36Zm5.81-1.79h-2.43v.56h2.43Zm0,1.79v-.59h-2.43v.59Zm-2.43.64v.53l1.81,0a5.52,5.52,0,0,0-.7-.29l.27-.22Z" transform="translate(-8.03 -10.99)" style="fill:#768e91"/><path d="M125.6,407.48l.82.71a15.5,15.5,0,0,1-2.2,1.45,5.73,5.73,0,0,0,2.71,2.42,2.93,2.93,0,0,0-.73.91q-2.83-1.38-4-5.73h0a6.51,6.51,0,0,1-1,.72,4.94,4.94,0,0,1,1.19,1.51,4.32,4.32,0,0,1,.51,1.62,3.5,3.5,0,0,1-.12,1.39,1.68,1.68,0,0,1-.59.94,2,2,0,0,1-1.27.41l-1,0a2.34,2.34,0,0,0-.3-1,9,9,0,0,0,1.06.06,1,1,0,0,0,.73-.23,1.09,1.09,0,0,0,.37-.66,2.64,2.64,0,0,0,0-1.05,16,16,0,0,1-2.13,1.36,14.76,14.76,0,0,1-2.34,1,4.15,4.15,0,0,0-.55-.86,12.78,12.78,0,0,0,2.58-1,9.73,9.73,0,0,0,2.16-1.41,3.69,3.69,0,0,0-.3-.57,15.25,15.25,0,0,1-3.52,1.77,2.74,2.74,0,0,0-.52-.8,13.59,13.59,0,0,0,1.91-.69,9.34,9.34,0,0,0,1.65-.92,2.94,2.94,0,0,0-.42-.39,17.69,17.69,0,0,1-2.7,1,4.51,4.51,0,0,0-.55-.81,12.83,12.83,0,0,0,3.68-1.37H118.7v-.9h6.15v.9h-1.66a9,9,0,0,0,.6,1.61A14.31,14.31,0,0,0,125.6,407.48Zm-7.41-2.08v1.38h-1v-2.33h4.09v-.95h1.08v.95h4.15v2.33h-1V405.4Z" transform="translate(-8.03 -10.99)" style="fill:#768e91"/><path d="M130.1,408.85h3.62a3.06,3.06,0,0,1,0,.46c-.1,1.31-.2,2.25-.31,2.85a2.33,2.33,0,0,1-.46,1.19,1.47,1.47,0,0,1-1,.41,16.05,16.05,0,0,1-1.74,0,2.34,2.34,0,0,0-.38-1.1c.63.06,1.21.09,1.72.09a.81.81,0,0,0,.5-.13c.25-.21.44-1.14.57-2.8h-2.66l-.11.55-1-.18a33,33,0,0,0,.65-3.7h3.19v-1.57h-3.53v-1h4.57v3.51h-3.32C130.31,407.64,130.24,408.1,130.1,408.85Zm6.36-5.21h1.06V413.8h-1.06Z" transform="translate(-8.03 -10.99)" style="fill:#768e91"/><path d="M148,410.2v.58h2.42v.82H148v1.16a1.38,1.38,0,0,1-.1.6.66.66,0,0,1-.39.31,7,7,0,0,1-1.86.13,2.61,2.61,0,0,0-.32-.89c.7,0,1.18,0,1.43,0s.24-.07.24-.18V411.6h-3.91a8.14,8.14,0,0,1,1.44,1.16l-.76.64a7.76,7.76,0,0,0-1.57-1.32l.57-.48h-2.47v-.82H147v-.58c-1.07,0-1.79,0-2.15,0a3.27,3.27,0,0,1-2.51-1l-.9.58-.78.5-.39-.84c.4-.19.89-.45,1.48-.8v-.95h-1.4v-.76h2.34v1.57a2.49,2.49,0,0,0,2.15.89c.65,0,1.59,0,2.8,0s2.18,0,2.9-.08a2.65,2.65,0,0,0-.28.82C149.59,410.18,148.83,410.2,148,410.2ZM142.63,406l-.51.67a6.45,6.45,0,0,0-1.8-1l.5-.59A6.86,6.86,0,0,1,142.63,406Zm.47-1.45-.51.69a6.87,6.87,0,0,0-1.85-1.14l.49-.59A7,7,0,0,1,143.1,404.59Zm.88,1.07h2a3.9,3.9,0,0,0,.13-.47h-2.79v-.72H145a4.55,4.55,0,0,0-.49-.8l.84-.2a3.4,3.4,0,0,1,.62,1l-.13,0h1.66a5.54,5.54,0,0,0,.63-1l.95.18c-.18.28-.38.55-.58.81h1.94v.72h-3.29l-.1.24a1.91,1.91,0,0,1-.1.23h2.6V409H144Zm4.52.94v-.41h-3.56v.41Zm0,.93v-.43h-3.56v.43Zm0,.93V408h-3.56v.43Z" transform="translate(-8.03 -10.99)" style="fill:#768e91"/><path d="M155.5,409.26l-1.22.38v2.91c0,.5-.13.81-.39.95a3.42,3.42,0,0,1-1.46.21,3,3,0,0,0-.28-1h1a.18.18,0,0,0,.2-.21V410l-1.18.35-.23-1,.4-.1.52-.14.49-.14v-2.25H152v-1h1.3v-2.17h.95v2.17h1.19v1h-1.19v2l1.08-.32Zm3.81,1.86v1.56a7,7,0,0,0,.93.07h2.19a2.37,2.37,0,0,0-.28.92h-1.93a5.36,5.36,0,0,1-2.13-.37,2.82,2.82,0,0,1-1.34-1.4,4.85,4.85,0,0,1-1.27,1.92,3.26,3.26,0,0,0-.78-.62,5.16,5.16,0,0,0,1.63-3.62l.95.11c-.06.45-.13.84-.21,1.18a2.6,2.6,0,0,0,1.25,1.55v-3.28h-2.69v-.86h6.48v.86h-2.8v1.16h2.23v.83Zm2.21-7.25v3.72h-5.36v-3.72Zm-1,1.5v-.75h-3.41v.75Zm0,1.45v-.75h-3.41v.75Z" transform="translate(-8.03 -10.99)" style="fill:#768e91"/><path d="M168.5,408h-3.11v5.84h-1V404h4.14Zm-1-3.18h-2.12v.78h2.12Zm-2.12,2.36h2.12v-.84h-2.12Zm5.64,5.09h-3.27v.65h-1v-4H171Zm-1-2.5h-2.29v1.64h2.29Zm3.57-5.79v8.53a1.82,1.82,0,0,1-.13.74.8.8,0,0,1-.42.39,7,7,0,0,1-2.1.19,2.86,2.86,0,0,0-.35-1.06l1.66,0a.25.25,0,0,0,.27-.29V408h-3.17v-4Zm-1.07.83h-2.17v.79h2.17Zm-2.17,2.39h2.17v-.86h-2.17Z" transform="translate(-8.03 -10.99)" style="fill:#768e91"/><path d="M184.74,410.31h1.11v1H175.66v-1h1.12l-.21-6.05.62.19a13.39,13.39,0,0,0,1.43-.85l.8.76c-.46.24-1.09.53-1.89.85l0,1H179v.87H177.6l0,1.18H179v.88h-1.33l0,1.16h1.76v-2.49h.86v2.49h.87v-2.94h-1.72v-3.76h.91v1.08h1.84v.86h-1.84v1h1.71v3.77h1.66c0-.07,0-.24,0-.51s0-.48,0-.64h-1.27v-.89h1.3c0-.13,0-.32,0-.58s0-.46,0-.6h-1.31v-.87h1.32q0-.77,0-1.14h-1.48v-.9h2.43Q184.86,408.11,184.74,410.31Zm-5.91,1,.95.65a17.65,17.65,0,0,1-3.25,1.84,5,5,0,0,0-.81-.73,15.71,15.71,0,0,0,1.72-.83A8.3,8.3,0,0,0,178.83,411.33Zm2.82.67.78-.69a30,30,0,0,1,3.38,1.8l-1,.72A22,22,0,0,0,181.65,412Z" transform="translate(-8.03 -10.99)" style="fill:#768e91"/><path d="M194,408.05l1.12.31a8.32,8.32,0,0,1-1.76,2.74,9.6,9.6,0,0,0,4.36,1.71,4.14,4.14,0,0,0-.69,1,10,10,0,0,1-4.51-2,12.2,12.2,0,0,1-4.49,2,4.66,4.66,0,0,0-.66-1,11,11,0,0,0,4.36-1.77,9.17,9.17,0,0,1-1.64-2.69l1-.29a6.67,6.67,0,0,0,1.46,2.28A6.52,6.52,0,0,0,194,408.05Zm-3.6-1.93,1.08.41a9.59,9.59,0,0,1-1.43,1.52,11.69,11.69,0,0,1-1.67,1.25,5.85,5.85,0,0,0-.87-.81,9.45,9.45,0,0,0,1.63-1.06A6.69,6.69,0,0,0,190.41,406.12Zm7-1.25v1h-9.78v-1H192v-1.39h1.08v1.39Zm-3.68,1.82.84-.63a16.8,16.8,0,0,1,1.69,1.23,10,10,0,0,1,1.3,1.2l-.93.72a9.42,9.42,0,0,0-1.23-1.22C194.86,407.53,194.3,407.1,193.74,406.69Z" transform="translate(-8.03 -10.99)" style="fill:#768e91"/><path d="M201.78,407.66l-.62.89a5.36,5.36,0,0,0-.89-.62,11,11,0,0,0-1.13-.58l.57-.79A8.42,8.42,0,0,1,201.78,407.66Zm-.33,1.73.8.67c-.59,1.27-1.22,2.47-1.88,3.6l-.89-.67A29.93,29.93,0,0,0,201.45,409.39Zm.9-4.65-.62.84a7.46,7.46,0,0,0-2-1.24l.57-.76A7.61,7.61,0,0,1,202.35,404.74Zm.92,5.18V408.8h.94v1.14a9.76,9.76,0,0,1-.05,1,6.23,6.23,0,0,1-.22,1,3.11,3.11,0,0,1-.51,1,4.67,4.67,0,0,1-.9.87,2.6,2.6,0,0,0-.72-.68,3.26,3.26,0,0,0,1-1,3.22,3.22,0,0,0,.42-1.06A6.81,6.81,0,0,0,203.27,409.92Zm-.93-5h2.84v-1.4h1.06v1.4h3.14v1h-3.73c-.43.8-.72,1.31-.86,1.54l2.65-.09c-.22-.24-.47-.51-.77-.79l.8-.43a11.54,11.54,0,0,1,1.16,1.16,7.91,7.91,0,0,1,.86,1.16l-.88.5a7.2,7.2,0,0,0-.47-.74l-5.61.28-.11-1,1.3,0a11,11,0,0,0,.73-1.57h-2.11Zm2.84,8.43v-4.44h.92v4.44Zm2.87-.93v.18a.74.74,0,0,0,0,.12c0,.05,0,.07.07.08a.22.22,0,0,0,.12,0h.25a.3.3,0,0,0,.22-.06.72.72,0,0,0,.1-.28q0-.24,0-1.08a2.75,2.75,0,0,0,.7.38,5.68,5.68,0,0,1-.11,1.28.81.81,0,0,1-.9.61H208a.83.83,0,0,1-.66-.25.62.62,0,0,1-.18-.34,3.1,3.1,0,0,1-.05-.73V408.8h1Z" transform="translate(-8.03 -10.99)" style="fill:#768e91"/></g><g style="isolation:isolate"><path d="M81.79,456.33v-1.06H83.6v-5.76H82.12v-.81a5.42,5.42,0,0,0,1.79-.63h1v7.2H86.5v1.06Z" transform="translate(-8.03 -10.99)" style="fill:#768e91"/><path d="M90,456.33a16,16,0,0,1,.6-3.93,11.34,11.34,0,0,1,1.66-3.24H88.32v-1.09h5.33v.79a12.46,12.46,0,0,0-1.17,1.71,8.1,8.1,0,0,0-.7,1.75,12,12,0,0,0-.36,1.8c-.07.58-.12,1.32-.16,2.21Z" transform="translate(-8.03 -10.99)" style="fill:#768e91"/><path d="M97,451.81a.83.83,0,0,1-.61.26.87.87,0,0,1-.87-.9.92.92,0,0,1,.25-.66.85.85,0,0,1,.62-.26.83.83,0,0,1,.61.26,1,1,0,0,1,.24.66A.89.89,0,0,1,97,451.81Zm0,4.41a.83.83,0,0,1-.61.26.85.85,0,0,1-.62-.26.84.84,0,0,1-.25-.64.91.91,0,0,1,.25-.66.82.82,0,0,1,.62-.26.8.8,0,0,1,.61.26.94.94,0,0,1,.24.66A.88.88,0,0,1,97,456.22Z" transform="translate(-8.03 -10.99)" style="fill:#768e91"/><path d="M101.64,456.48A3.45,3.45,0,0,1,99,455.35l.63-.84a2.66,2.66,0,0,0,2,.91,1.71,1.71,0,0,0,1.14-.36,1.38,1.38,0,0,0-.13-2.13,3.41,3.41,0,0,0-1.89-.39v-1c1.45,0,2.17-.49,2.17-1.45a1.12,1.12,0,0,0-.34-.87,1.3,1.3,0,0,0-.93-.34,2.37,2.37,0,0,0-1.64.79l-.68-.81a3.48,3.48,0,0,1,2.36-1,2.79,2.79,0,0,1,1.84.57,1.9,1.9,0,0,1,.7,1.57A2,2,0,0,1,102.7,452v.06a2.25,2.25,0,0,1,1.23.72,2,2,0,0,1,.47,1.34,2.11,2.11,0,0,1-.79,1.73A3.09,3.09,0,0,1,101.64,456.48Z" transform="translate(-8.03 -10.99)" style="fill:#768e91"/><path d="M108.79,456.48a2.22,2.22,0,0,1-2-1.1,5.92,5.92,0,0,1-.72-3.21,5.76,5.76,0,0,1,.72-3.18,2.31,2.31,0,0,1,3.92,0,5.75,5.75,0,0,1,.71,3.17,5.92,5.92,0,0,1-.71,3.21A2.24,2.24,0,0,1,108.79,456.48Zm0-1c1,0,1.44-1.1,1.44-3.29s-.48-3.24-1.44-3.24-1.44,1.08-1.44,3.24S107.83,455.46,108.79,455.46Z" transform="translate(-8.03 -10.99)" style="fill:#768e91"/><path d="M117.08,454.57l.92.22a6.6,6.6,0,0,1-1.25,2.44,5.5,5.5,0,0,0-.77-.53A5,5,0,0,0,117.08,454.57Zm2.61-7.24v7.07h-3.13v-7.07Zm-.91,2.1v-1.24h-1.35v1.24Zm0,2.07v-1.27h-1.35v1.27Zm0,2.06v-1.28h-1.35v1.28Zm3.87,1.8,1.21-.25.09.82-2.21.5-1.72.4-.23-.55-.65.27a7,7,0,0,0-.75-1.67l.75-.3a6.45,6.45,0,0,1,.68,1.33l.54-.1v-4.38h.79v4.22l.69-.14v-4.92h.81v1.86h1v.8h-1Zm3.75-5h-1.69a38.26,38.26,0,0,0,.31,4.05c.15,1,.33,1.51.55,1.52s.27-.52.33-1.55a2.27,2.27,0,0,0,.69.57c-.2,1.5-.55,2.24-1.06,2.23s-1-.59-1.23-1.74a29.49,29.49,0,0,1-.51-5.08h-3.87v-.88h3.84c0-.57,0-1.41,0-2.53h1c0,1.15,0,2,0,2.53h1.71Zm-3.12-2.64v.82h-2.92v-.82Zm3.19,1-.74.38a5.29,5.29,0,0,0-.93-1.51l.69-.33A5,5,0,0,1,126.47,448.76Z" transform="translate(-8.03 -10.99)" style="fill:#768e91"/><path d="M130.7,455.48l1.61-.25.06.9c-1.24.21-2.7.46-4.39.72l-.14-1,.52-.07v-2.49h.81v2.38l.67-.11v-2.82H128.4v-5h1a7.25,7.25,0,0,0,.19-.94l1.07.15c-.11.28-.22.55-.33.79H132v2.21h-2.74v.47h2.78v2.27H130.7v.86h1.44v.82H130.7Zm.45-6.9h-1.86v.73h1.86Zm-1.86,2.7v.77h1.91v-.77Zm8-2.7h.94v.75h-.94v1.31h-4.2v-.73h3.26v-.58h-4v-.75h4V448h-3.23v-.74h4.17Zm-4.75,4.12v-1.57H138v1.57h-.89v-.78h-1.41v1h1.93v2.5a1.27,1.27,0,0,1-.07.49.52.52,0,0,1-.26.27,3,3,0,0,1-1.13.13,2.68,2.68,0,0,0-.24-.79h.67c.07,0,.11,0,.11-.12v-1.68h-1v3.47h-.95v-3.47h-1v2.63h-.9V452.9h1.86v-1h-1.36v.78Z" transform="translate(-8.03 -10.99)" style="fill:#768e91"/><path d="M140.13,447.34h9.38v9.88h-1.12v-.6h-7.18v.6h-1.08Zm1.08,8.3h7.18v-7.23h-7.18Zm1.36-5.7H147v4.12h-4.43Zm3.37,3.21v-2.29h-2.39v2.29Z" transform="translate(-8.03 -10.99)" style="fill:#768e91"/><path d="M157.88,448.74l.81-.62a23.77,23.77,0,0,1,1.76,1.6,8.73,8.73,0,0,1,1.26,1.54l-.92.7a6.79,6.79,0,0,0-.75-1l-8.23.36-.07-1,1.68-.06a21,21,0,0,0,1.78-3.31l1.16.41a32.55,32.55,0,0,1-1.69,2.86l4.49-.19C158.68,449.46,158.26,449.06,157.88,448.74ZM153,457.21V452.4h7.22v4.8h-1.13v-.46h-5v.47Zm6.09-3.81h-5v2.33h5Z" transform="translate(-8.03 -10.99)" style="fill:#768e91"/><path d="M166.28,449.66v-2.55h1.08v10h-1.08v-2.43l-2.65,1.14-.47-1.05c.78-.27,1.82-.64,3.12-1.13V450.7h-2.76v-1Zm4.36,6.3h1.43c.23,0,.38-.14.45-.44a12.05,12.05,0,0,0,.17-1.86,2.76,2.76,0,0,0,1,.48,6,6,0,0,1-.39,2.23,1.17,1.17,0,0,1-1.15.61h-1.66a1.51,1.51,0,0,1-1.17-.36,2.26,2.26,0,0,1-.3-1.38v-8.13h1.09v3.54a17.41,17.41,0,0,0,2.55-1.85l.77.92a31.2,31.2,0,0,1-3.32,2v3.51a1.06,1.06,0,0,0,.1.58C170.27,455.92,170.41,456,170.64,456Z" transform="translate(-8.03 -10.99)" style="fill:#768e91"/></g></g><g id="ec1e7960-aa0f-4d28-9637-6f4da9d21f59" data-name="便當交流會" style="isolation:isolate"><g style="isolation:isolate"><path d="M82.88,222.42l1,.29a19.11,19.11,0,0,1-1.06,2.45v7.51h-1v-5.86c-.31.42-.57.74-.78,1a3.74,3.74,0,0,0-.58-1,9.72,9.72,0,0,0,1.36-1.94A13.67,13.67,0,0,0,82.88,222.42Zm7.46,6.64h-2.7a3.94,3.94,0,0,1-.77,1.81,13.69,13.69,0,0,0,4.1.78,3.12,3.12,0,0,0-.62,1,12.11,12.11,0,0,1-4.22-1,7.64,7.64,0,0,1-2.36,1.11,2.48,2.48,0,0,0-.64-.85,7.29,7.29,0,0,0,2.08-.78,5.84,5.84,0,0,1-1.5-1.47l.91-.31A4.32,4.32,0,0,0,86,230.45a2.82,2.82,0,0,0,.66-1.39H84.06v-4.33h2.66v-.83h-2.9V223h6.85v.91H87.75v.83h2.59ZM85,225.52v1h1.69v-1Zm0,2.75h1.68c0-.11,0-.28,0-.53v-.48H85Zm4.29,0v-1H87.75v.49c0,.24,0,.41,0,.52Zm0-2.75H87.75v1h1.57Z" transform="translate(-8.03 -10.99)" style="fill:#768e91"/><path d="M100.48,224h1.8v2.39h-1v-1.5H93.77v1.5h-1V224h1.63a7.1,7.1,0,0,0-.74-1.13l.91-.37a5.18,5.18,0,0,1,.94,1.35l-.35.15h1.76v-1.62h1V224h1.69l-.25-.08a7.1,7.1,0,0,0,.89-1.45l1.1.34C101.15,223.15,100.84,223.55,100.48,224Zm-6.92,8.71v-4.12h8v4.1h-1.06v-.28h-6v.3ZM97,229.36H94.56v.75H97Zm-2.41,2.27H97v-.78H94.56Zm0-6h5.86V228H94.59Zm4.82,1.66v-.89H95.57v.89Zm1.11,2.87v-.75H98v.75ZM98,231.63h2.53v-.78H98Z" transform="translate(-8.03 -10.99)" style="fill:#768e91"/><path d="M110.74,226.92l1.12.31A8.42,8.42,0,0,1,110.1,230a9.65,9.65,0,0,0,4.36,1.71,4,4,0,0,0-.69,1,10,10,0,0,1-4.51-2,12,12,0,0,1-4.49,2,5,5,0,0,0-.66-1,11.16,11.16,0,0,0,4.37-1.76,9.11,9.11,0,0,1-1.65-2.69l1-.29a6.67,6.67,0,0,0,1.46,2.28A6.52,6.52,0,0,0,110.74,226.92Zm-3.6-1.93,1.08.41a9.56,9.56,0,0,1-1.43,1.52,11.16,11.16,0,0,1-1.67,1.25,5.37,5.37,0,0,0-.87-.81,9.45,9.45,0,0,0,1.63-1.06A7,7,0,0,0,107.14,225Zm7-1.25v1h-9.78v-1h4.34v-1.39h1.07v1.39Zm-3.68,1.82.84-.63a18.38,18.38,0,0,1,1.69,1.22,10,10,0,0,1,1.3,1.21l-.92.71a10.33,10.33,0,0,0-1.24-1.21C111.59,226.4,111,226,110.47,225.56Z" transform="translate(-8.03 -10.99)" style="fill:#768e91"/><path d="M118.51,226.53l-.61.88a5.53,5.53,0,0,0-.9-.61,9.32,9.32,0,0,0-1.13-.58l.57-.79A8.1,8.1,0,0,1,118.51,226.53Zm-.33,1.73.8.67c-.59,1.27-1.22,2.47-1.87,3.59l-.9-.66A30.71,30.71,0,0,0,118.18,228.26Zm.9-4.65-.61.83a8,8,0,0,0-2-1.24l.57-.75A7.2,7.2,0,0,1,119.08,223.61Zm.92,5.18v-1.12h.94v1.14a7.36,7.36,0,0,1,0,1,5.76,5.76,0,0,1-.22,1,3,3,0,0,1-.51,1,4.33,4.33,0,0,1-.89.87,2.77,2.77,0,0,0-.73-.67,3.37,3.37,0,0,0,1-1,3.22,3.22,0,0,0,.42-1.06A5.87,5.87,0,0,0,120,228.79Zm-.93-5h2.84v-1.39H123v1.39h3.14v1h-3.73c-.43.79-.72,1.31-.86,1.53l2.65-.08a9.3,9.3,0,0,0-.77-.79l.8-.43a10.58,10.58,0,0,1,1.16,1.16,7.91,7.91,0,0,1,.86,1.16l-.88.5a5.79,5.79,0,0,0-.47-.74l-5.6.28-.11-1,1.29,0a11,11,0,0,0,.73-1.57h-2.11Zm2.84,8.44v-4.45h.92v4.45Zm2.87-.94v.19a.52.52,0,0,0,0,.11c0,.05,0,.08.07.09l.12,0h.25a.26.26,0,0,0,.22-.07.6.6,0,0,0,.1-.27c0-.16,0-.52,0-1.09a2.49,2.49,0,0,0,.7.39,5.75,5.75,0,0,1-.11,1.28.8.8,0,0,1-.89.6h-.56a.87.87,0,0,1-.67-.24.66.66,0,0,1-.18-.34,3.15,3.15,0,0,1,0-.73v-3.53h1Z" transform="translate(-8.03 -10.99)" style="fill:#768e91"/><path d="M132.25,222.37h1a9.65,9.65,0,0,0,2.22,1.57,12.58,12.58,0,0,0,2.62,1.05,5.34,5.34,0,0,0-.59.87,14.61,14.61,0,0,1-2.69-1.22v.44h-3.88v-.47a15.93,15.93,0,0,1-2.75,1.31,3.23,3.23,0,0,0-.55-.81,13.31,13.31,0,0,0,2.67-1.2A8.38,8.38,0,0,0,132.25,222.37Zm-3.2,6.13v-2.91h7.65v2.91Zm.63,4.17V229h6.41v3.68H135v-.29h-4.31v.32Zm.26-6.4v1.56h2.43v-1.56Zm.54.29.74-.22a3.87,3.87,0,0,1,.57,1.24l-.78.25A4.15,4.15,0,0,0,130.48,226.56Zm4.54,3.1h-4.31v.64H135Zm-4.31,2H135V231h-4.31Zm.61-7.28h3a10.23,10.23,0,0,1-1.54-1.17A9.67,9.67,0,0,1,131.32,224.36Zm4.45,3.47v-1.56h-2.54v1.56Zm-1.43-1.53.88.24c-.36.68-.59,1.11-.71,1.29l-.73-.23A7.59,7.59,0,0,0,134.34,226.3Z" transform="translate(-8.03 -10.99)" style="fill:#768e91"/></g></g><g id="b85b5774-a340-4ae1-b7db-6e260b3c8aa9" data-name="上午" style="isolation:isolate"><g style="isolation:isolate"><path d="M29,119.55h4.84v1.07H23.78v-1.07h4.1V111H29v3.33h4.06v1.06H29Z" transform="translate(-8.03 -10.99)" style="fill:#768e91"/><path d="M46.15,115.91v1H41.7v4.2H40.62V117H36.18v-1h4.44v-2.58H38.48a9.55,9.55,0,0,1-1.38,2,4.7,4.7,0,0,0-1-.65A7.31,7.31,0,0,0,37.4,113a10.34,10.34,0,0,0,.92-2.2l1.1.26q-.2.62-.45,1.23h6.31v1H41.7v2.58Z" transform="translate(-8.03 -10.99)" style="fill:#768e91"/></g></g><g id="b9cfd912-ad4a-4c8d-953a-edef4e1a2f2e" data-name="中午" style="isolation:isolate"><g style="isolation:isolate"><path d="M29.32,224.33h4v5.38h-1.1v-.62H29.32v3.58H28.23v-3.58h-2.9v.67H24.27v-5.43h4v-2h1.09Zm-4,3.74h2.9v-2.72h-2.9Zm4,0h2.91v-2.72H29.32Z" transform="translate(-8.03 -10.99)" style="fill:#768e91"/><path d="M46.15,227.44v1H41.7v4.2H40.62v-4.2H36.18v-1h4.44v-2.59H38.48a9.55,9.55,0,0,1-1.38,2,5.14,5.14,0,0,0-1-.65,6.92,6.92,0,0,0,1.27-1.71,10.05,10.05,0,0,0,.92-2.19l1.1.25q-.2.61-.45,1.23h6.31v1H41.7v2.59Z" transform="translate(-8.03 -10.99)" style="fill:#768e91"/></g></g><g id="b959d92f-74b5-4725-b579-9da05929d912" data-name="下午" style="isolation:isolate"><g style="isolation:isolate"><path d="M33.77,356H29.13v1.9l.19-.23c.66.32,1.38.7,2.14,1.14a17,17,0,0,1,1.76,1.15l-.76.95a21.3,21.3,0,0,0-3.33-2.15v5.65H28V356H23.85v-1.06h9.92Z" transform="translate(-8.03 -10.99)" style="fill:#768e91"/><path d="M46.15,359.17v1H41.7v4.2H40.62v-4.2H36.18v-1h4.44v-2.59H38.48a9.55,9.55,0,0,1-1.38,2,5.67,5.67,0,0,0-1-.65,6.92,6.92,0,0,0,1.27-1.71,10.05,10.05,0,0,0,.92-2.19l1.1.25q-.2.62-.45,1.23h6.31v1H41.7v2.59Z" transform="translate(-8.03 -10.99)" style="fill:#768e91"/></g></g><line id="bd8bfe1c-0c0f-4f29-acbb-803b63917568" data-name="Line 99" x1="55.57" y1="20.21" x2="55.57" y2="473.04" style="fill:none;stroke:#566c6c;stroke-width:0.3742405832320777px"/><line id="a2ddf814-a7f6-469f-a95c-2b2578f0984c" data-name="Line 105" x1="0.19" x2="0.19" y2="473.04" style="fill:none;stroke:#566c6c;stroke-width:0.3742405832320777px"/><line id="b11c5aa6-6df3-4eef-b17b-a26dde27d12d" data-name="Line 106" x1="307.81" x2="307.81" y2="473.04" style="fill:none;stroke:#566c6c;stroke-width:0.3742405832320777px"/><rect id="bd7cdbdc-0b23-4b55-9cb4-2ac6070a97d5" data-name="Rectangle 214" x="0.19" width="307.63" height="20.21" style="fill:#566c6c"/><g id="fdefd98d-b999-45eb-8049-d3df04aa68b6" data-name="DAY 1" style="isolation:isolate"><g style="isolation:isolate"><path d="M146.4,25.21V16.39h2.3a4.19,4.19,0,0,1,3.14,1.12,4.45,4.45,0,0,1,1.1,3.25,4.61,4.61,0,0,1-1.09,3.3,4,4,0,0,1-3.08,1.15Zm1.4-1.14h.8a2.73,2.73,0,0,0,2.17-.83,3.6,3.6,0,0,0,.74-2.48q0-3.23-2.91-3.23h-.8Z" transform="translate(-8.03 -10.99)" style="fill:#fff"/><path d="M160.18,25.21l-.75-2.52h-3.06l-.75,2.52h-1.41l2.92-8.82h1.6l2.93,8.82Zm-3.48-3.6h2.41l-.35-1.2c-.11-.32-.39-1.29-.85-2.92h0c-.3,1.15-.57,2.12-.81,2.92Z" transform="translate(-8.03 -10.99)" style="fill:#fff"/><path d="M164.85,25.21V21.86l-2.64-5.47h1.48l1,2.34.26.61.3.71c.09.22.18.43.27.62h.05c.34-.79.62-1.43.83-1.94l1-2.34h1.45l-2.66,5.47v3.35Z" transform="translate(-8.03 -10.99)" style="fill:#fff"/><path d="M173.78,25.21V24.07h1.93V17.93h-1.58v-.86a5.73,5.73,0,0,0,1.92-.68h1v7.68h1.72v1.14Z" transform="translate(-8.03 -10.99)" style="fill:#fff"/></g></g><line id="e129a4b8-ccdf-46ad-915a-071ac2638ba3" data-name="Line 100" x1="308.19" y1="196.85" x2="0.19" y2="196.85" style="fill:none;stroke:#566c6c;stroke-width:0.3742405832320777px"/><line id="a7ba9c60-74d1-4f4a-a2f0-acea87917cb8" data-name="Line 107" x1="308.19" y1="473.04" x2="0.19" y2="473.04" style="fill:none;stroke:#566c6c;stroke-width:0.3742405832320777px"/><line id="f82a192f-bb7d-4e2e-931b-13ba32a1dc06" data-name="Line 101" x1="308.19" y1="238.02" x2="0.19" y2="238.02" style="fill:none;stroke:#566c6c;stroke-width:0.3742405832320777px"/></g></g></svg>