<svg xmlns="http://www.w3.org/2000/svg" viewBox="0 0 310 573"><g id="a0ad504b-f372-4e3d-a6c8-c455d886a373" data-name="圖層 2"><rect width="310" height="573" style="fill:#fff"/><path d="M0,0H310a0,0,0,0,1,0,0V0a54,54,0,0,1-54,54H54A54,54,0,0,1,0,0V0A0,0,0,0,1,0,0Z" style="fill:#566c6c"/><path d="M138.17,16.58l2.3,2.18a1.46,1.46,0,0,1-1.06.33,52.81,52.81,0,0,1-3.25,5.48,8,8,0,0,1,2.43,2.72,6.62,6.62,0,0,1,.82,3,4.09,4.09,0,0,1-.73,2.65,3.23,3.23,0,0,1-2.5.94,3.74,3.74,0,0,0-.28-1.76,1.73,1.73,0,0,0-1-.49v6.28c0,.06-.07.14-.2.25a2.32,2.32,0,0,1-.63.3,2.74,2.74,0,0,1-.9.15h-.38V16.81l2.42,1h1.71Zm-2,14.76A.9.9,0,0,0,137,31a2.42,2.42,0,0,0,.24-1.23,8.18,8.18,0,0,0-1.69-5.11,62.1,62.1,0,0,0,1.48-6.14h-2.16V31.34Zm6.35-15,3.19,1.08c-.1.28-.4.41-.92.4a26.8,26.8,0,0,1-2.9,5.36l1.76.64a.91.91,0,0,1-.73.47V37.81c0,.13-.2.28-.56.47a2.39,2.39,0,0,1-1.13.28h-.37V24.5a16.1,16.1,0,0,1-2.3,2.3l-.28-.24a22.2,22.2,0,0,0,2.58-4.87A34.89,34.89,0,0,0,142.53,16.32Zm6,22.27a3,3,0,0,0-.6-1.86,3.18,3.18,0,0,0-1.86-.75v-.35c1.52.11,2.43.17,2.74.17s.52-.15.52-.45V23h-5.42l-.18-.68h5.6V16.65l3.09.3c-.08.39-.37.62-.89.68v4.71h.28l1-1.57c.75.74,1.34,1.36,1.78,1.88-.06.25-.27.37-.63.37h-2.44V35.56a3.41,3.41,0,0,1-.56,2.15A3.67,3.67,0,0,1,148.53,38.59Zm-4.45-13.06.28-.14c1.91,1,3,2.1,3.44,3.4a1.68,1.68,0,0,1-.25,1.85,1,1,0,0,1-1.43-.05l-.14-.11A12.33,12.33,0,0,0,144.08,25.53Z" style="fill:#fff"/><path d="M165.12,33.1l.12.31q-3.28,2-7.45,4.33a.93.93,0,0,1-.52.61l-1.52-2.41c1-.24,2.23-.6,3.8-1.08V27.71h-3.31l-.19-.7h3.5V24h-1.76l-.19-.66a13.8,13.8,0,0,1-2,1.78l-.31-.23a19.43,19.43,0,0,0,2.42-4.08,25.57,25.57,0,0,0,1.62-4.48l2.95,1c-.08.3-.39.46-.94.47q3.21,1,3.8,2.58a1.07,1.07,0,0,1-.31,1.38,1.05,1.05,0,0,1-1.38,0,10.43,10.43,0,0,0-2.37-3.4,20.61,20.61,0,0,1-3.47,5h3.92l1.12-1.53c.83.72,1.5,1.33,2,1.83-.06.25-.28.38-.66.38h-2.57v3h.84l1.1-1.57c.84.75,1.52,1.38,2,1.9-.07.25-.27.37-.61.37h-3.35v6.56Zm-8.53-4.19.31-.07a4.92,4.92,0,0,1,2,3.77,1.46,1.46,0,0,1-.73,1.45c-.37.19-.74.06-1.1-.37A12.55,12.55,0,0,0,156.59,28.91Zm5.79,4.68-.4-.16c.3-1.45.55-3.05.75-4.78l2.54.75a.87.87,0,0,1-.89.49A22.43,22.43,0,0,1,162.38,33.59Zm13.08-6.91,2.7,1.55c-.14.31-.46.39-.94.25A24.37,24.37,0,0,1,174,30.8a9.55,9.55,0,0,0,4.43,3.92l0,.21a2.59,2.59,0,0,0-1.73,2.2A11,11,0,0,1,174,33.66a18.75,18.75,0,0,1-1.44-5.18v7.11a3.18,3.18,0,0,1-.6,2.08,3.44,3.44,0,0,1-2.4.89,2.74,2.74,0,0,0-.49-1.64,3.9,3.9,0,0,0-2.06-.75V35.8c1.57.11,2.54.16,2.88.16s.49-.14.49-.42V31.39c-2.15,2.52-3.53,4.1-4.12,4.76a.82.82,0,0,1-.33.75l-1.83-2.11c.78-.39,2.88-1.7,6.28-3.92V26.21h-4.94l-.19-.7h7.12l.47-2.58h-4.22c-.11.45-.23.9-.37,1.34a2.85,2.85,0,0,1-2.2.09,40.57,40.57,0,0,0,1.06-4c.38-1.72.63-3,.74-4l3,.35c-.1.39-.4.6-.92.63-.12.66-.21,1.11-.26,1.34h3.71l1-1.08,2.18,1.76a1.26,1.26,0,0,1-.82.3l-1,5.82h.86l1-1.62c.73.77,1.32,1.41,1.75,1.92,0,.27-.24.4-.58.4h-5.23v.42a12.53,12.53,0,0,0,1.22,3.78A31,31,0,0,0,175.46,26.68Zm-9.68.61.24-.14c1.75.56,2.78,1.33,3.11,2.32a1.15,1.15,0,0,1-.33,1.43,1.13,1.13,0,0,1-1.52-.12l-.05-.05A7.24,7.24,0,0,0,165.78,27.29Zm3-5h4.15l.49-2.84h-4C169.25,20.3,169,21.25,168.78,22.25Z" style="fill:#fff"/></g><g id="b292e1a9-90bf-43c4-8369-b6a022635fb3" data-name="圖層 1"><path d="M118.13,112h9.73v2.56H116.33v-1.88c.53-.62,1.26-1.46,2.2-2.52l1.78-2a24.38,24.38,0,0,0,2.94-3.88,6.4,6.4,0,0,0,.84-3.2,4.37,4.37,0,0,0-.82-2.77,2.78,2.78,0,0,0-2.28-1,6,6,0,0,0-1.12.12l-.59,2.2q-.33,1.83-1.59,1.83a1.46,1.46,0,0,1-1.43-.91,4,4,0,0,1,1.83-3A6.9,6.9,0,0,1,122,96.38a5.45,5.45,0,0,1,4,1.3,4.68,4.68,0,0,1,1.33,3.51,5.18,5.18,0,0,1-1.29,3.28,45.66,45.66,0,0,1-4.81,4.69Z" style="fill:#566c6c"/><path d="M136,96.41a5.11,5.11,0,0,1,4.23,2.29q1.69,2.3,1.7,6.89t-1.7,7a5,5,0,0,1-8.49,0c-1.13-1.55-1.7-3.88-1.7-7s.57-5.38,1.7-6.9A5.12,5.12,0,0,1,136,96.41Zm-2.89,9.18q0,8.44,2.89,8.44c1.9,0,2.86-2.81,2.86-8.44s-1-8.29-2.86-8.29S133.13,100.06,133.13,105.59Z" style="fill:#566c6c"/><path d="M146.16,112h9.73v2.56H144.36v-1.88c.53-.62,1.26-1.46,2.2-2.52l1.78-2a25.21,25.21,0,0,0,2.95-3.88,6.5,6.5,0,0,0,.83-3.2,4.37,4.37,0,0,0-.82-2.77,2.78,2.78,0,0,0-2.28-1,6.12,6.12,0,0,0-1.12.12l-.59,2.2q-.33,1.83-1.59,1.83a1.46,1.46,0,0,1-1.43-.91,4,4,0,0,1,1.83-3,6.93,6.93,0,0,1,3.93-1.09,5.45,5.45,0,0,1,3.95,1.3,4.68,4.68,0,0,1,1.33,3.51,5.18,5.18,0,0,1-1.29,3.28,45.66,45.66,0,0,1-4.81,4.69Z" style="fill:#566c6c"/><path d="M164.05,96.41a5.11,5.11,0,0,1,4.23,2.29q1.69,2.3,1.7,6.89t-1.7,7a5,5,0,0,1-8.49,0c-1.13-1.55-1.7-3.88-1.7-7s.57-5.38,1.7-6.9A5.13,5.13,0,0,1,164.05,96.41Zm-2.89,9.18q0,8.44,2.89,8.44c1.9,0,2.86-2.81,2.86-8.44s-1-8.29-2.86-8.29S161.16,100.06,161.16,105.59Z" style="fill:#566c6c"/><path d="M189.62,109.86l1.66-2.09c1.24,1,2.24,1.76,3,2.42-.06.25-.28.37-.68.37h-7.47v5.28c0,.07-.09.17-.27.29a3.49,3.49,0,0,1-.87.35,4.58,4.58,0,0,1-1.32.18h-.59v-6.1H172l-.19-.7h4.08v-7.74l3.31,1.25h3.91V98.63h-4.43a21.45,21.45,0,0,1-6.68,5.89l-.23-.22A26.25,26.25,0,0,0,175,99.6a31.55,31.55,0,0,0,2.56-5.8l4,1.53c-.14.33-.47.47-1,.42a19.44,19.44,0,0,1-1.41,2.2h9.94l1.66-2.06q1.83,1.36,3,2.37c-.07.25-.3.37-.71.37h-6.91v4.74h2.41l1.55-2c1.19.88,2.13,1.62,2.84,2.23-.07.25-.3.37-.71.37h-6.09v5.84Zm-10.74,0h4.22V104h-4.22Z" style="fill:#566c6c"/><path d="M38.14,138.28V122.93h7.71v.94H39.12v14.41Z" style="fill:#566c6c"/><path d="M68.16,133.36H59.63q1.62,6.42,10.27,9.24l0,.3a2.76,2.76,0,0,0-2.47,2.6q-6.67-3.37-8.13-11.86a15.29,15.29,0,0,1-1,3.71,12.55,12.55,0,0,1-2,3.14,13,13,0,0,1-3.48,2.75,28.14,28.14,0,0,1-5.23,2.22l-.22-.38a22,22,0,0,0,4-2.47A12.68,12.68,0,0,0,54,139.8a13.32,13.32,0,0,0,1.51-3,17.66,17.66,0,0,0,.75-3.42H48.83l-.19-.68h7.69c.12-1.31.19-3.44.19-6.37H47.91l-.21-.71H64.81l1.69-2.11c1.25,1,2.26,1.77,3,2.44-.06.25-.29.38-.7.38H59.7c-.06,3.09-.16,5.22-.3,6.37h4.8l1.62-2.08c1.25,1,2.25,1.75,3,2.39C68.76,133.24,68.54,133.36,68.16,133.36Z" style="fill:#566c6c"/><path d="M88.91,125.44l1.78-2.25c1.31,1,2.36,1.87,3.16,2.55-.08.27-.3.4-.68.4H83.61V130q4.78.51,6.54,2.69a2.25,2.25,0,0,1,.54,2.3,1.29,1.29,0,0,1-1.46.8,2.1,2.1,0,0,1-.7-.19,13.79,13.79,0,0,0-2.11-2.65,20.09,20.09,0,0,0-2.81-2.41v14.08c0,.08-.09.18-.28.31a3.66,3.66,0,0,1-.88.37,4.13,4.13,0,0,1-1.28.19h-.56V126.14h-9l-.21-.7Z" style="fill:#566c6c"/><path d="M110.35,138.31l0,4.12a10.72,10.72,0,0,1-5.37,1.36,9.27,9.27,0,0,1-6.69-2.48,9.07,9.07,0,0,1-2.59-6.87,8.83,8.83,0,0,1,2.69-6.83,9.47,9.47,0,0,1,6.7-2.5,10.17,10.17,0,0,1,5.07,1.34l0,4.15h-1.38l-1.06-4.11a5.75,5.75,0,0,0-2.15-.39,5.49,5.49,0,0,0-4.51,2.14,9.72,9.72,0,0,0-1.73,6.22c0,2.74.57,4.81,1.7,6.23a5.53,5.53,0,0,0,4.54,2.12,6.48,6.48,0,0,0,2.34-.45l1.06-4.05Z" style="fill:#566c6c"/><path d="M118.55,132.49l1.2.52a10.87,10.87,0,0,1,3.77,2.39,5.06,5.06,0,0,1-.69,7,7.5,7.5,0,0,1-4.84,1.42,9.78,9.78,0,0,1-5.41-1.4l.14-4h1.36l1,3.87a6.55,6.55,0,0,0,2.57.47,4.54,4.54,0,0,0,2.89-.84,2.76,2.76,0,0,0,1-2.3,2.9,2.9,0,0,0-.65-2,6.26,6.26,0,0,0-2.28-1.42l-1.1-.49a10.67,10.67,0,0,1-3.59-2.35,4.69,4.69,0,0,1-1.17-3.28,4.33,4.33,0,0,1,1.73-3.64,7.14,7.14,0,0,1,4.51-1.33,8.23,8.23,0,0,1,4.64,1.34l-.17,3.77h-1.33l-1-3.7a4.25,4.25,0,0,0-1.8-.35,4.09,4.09,0,0,0-2.61.77,2.63,2.63,0,0,0-1,2.18,2.91,2.91,0,0,0,.68,2A5.7,5.7,0,0,0,118.55,132.49Z" style="fill:#566c6c"/><path d="M141.1,142.34l2.11.16v.85a9.76,9.76,0,0,1-2.51.3,4.25,4.25,0,0,1-2.27-.49,2.27,2.27,0,0,1-1-1.69l-.87-3.7a4,4,0,0,0-1-2.17,3,3,0,0,0-2.11-.62h-1.31c0,3.3,0,5.73.07,7.31l2.32.21v.85h-8v-.85l2.28-.21q0-2.37,0-7.24v-1.17q0-4.86,0-7.27l-2.28-.21v-.87h8.11a8.07,8.07,0,0,1,4.75,1.21,4.1,4.1,0,0,1,.47,6.2,6.59,6.59,0,0,1-3.72,1.59,4.55,4.55,0,0,1,2.71,1.13,5.41,5.41,0,0,1,1.21,2.65Zm-8.88-8.25H134a3.78,3.78,0,0,0,3-1.09,4.16,4.16,0,0,0,1-2.87,3.61,3.61,0,0,0-1-2.71,4,4,0,0,0-2.87-1h-1.76Q132.22,128.89,132.22,134.09Z" style="fill:#566c6c"/><path d="M153.52,122.77l4.43,1.17c-.06.3-.47.48-1.22.54q2.7,3.72,10.32,6.07l-.05.4a2.86,2.86,0,0,0-1.54,1,3.92,3.92,0,0,0-.8,1.72,21,21,0,0,1-5.07-3.85,14.51,14.51,0,0,1-3.23-5.1,23.09,23.09,0,0,1-5.25,5.52,30.69,30.69,0,0,1-7,4.23l-.19-.23a30.69,30.69,0,0,0,6-5.51A17.68,17.68,0,0,0,153.52,122.77Zm8.18,21.12,1.71-2.25c1.27,1,2.29,1.86,3.05,2.55-.06.25-.29.37-.68.37H144.55l-.19-.67H148v-10l3.63.3c-.05.38-.34.6-.87.68v9h3.35V129.35l3.82.33c0,.38-.34.61-.89.71v5.55h2.11l1.67-2.2c1.26,1,2.27,1.82,3,2.5-.06.25-.29.38-.68.38h-6.12v7.27Z" style="fill:#566c6c"/><path d="M189.59,138.33h-7.94a14.72,14.72,0,0,0,4,2.44,24.33,24.33,0,0,0,5.05,1.52l0,.28a2.36,2.36,0,0,0-1.29.78,3.37,3.37,0,0,0-.75,1.54,14.82,14.82,0,0,1-7.71-6.56h-.21v6.49c0,.07-.11.15-.28.25a3.4,3.4,0,0,1-.82.29,4.75,4.75,0,0,1-1.22.14H178v-5.41a24.2,24.2,0,0,1-9.38,4.71l-.16-.31a22.41,22.41,0,0,0,4.3-2.75,18.88,18.88,0,0,0,3.31-3.41h-7.17l-.19-.7H178v-2.35H171.2l-.19-.68H178v-2.13H170l-.21-.68h6.07a2,2,0,0,1-.49-.3,5.48,5.48,0,0,0-1.19-3.1h-5.51l-.19-.68h4.95a1.83,1.83,0,0,1-.85-.37,4.7,4.7,0,0,0-.49-1.91,6.52,6.52,0,0,0-1.1-1.68l.21-.14c2,.35,3.2,1,3.66,2.06a1.47,1.47,0,0,1-.26,1.67,1.31,1.31,0,0,1-.73.37h2.27V123l3.19.28c0,.31-.28.5-.75.58v3.89h1.67V123l3.23.28c-.05.31-.3.5-.77.58v3.89h.7a25,25,0,0,0,1.59-4.26l3.38,1c-.11.35-.42.49-.92.42a19,19,0,0,1-3.44,2.79h2.41l1.43-1.66a32.13,32.13,0,0,1,2.63,2c-.06.24-.29.35-.68.35h-6.35l2.08.57c-.11.32-.41.46-.91.42a19.4,19.4,0,0,1-3.1,2.41h3.66l1.45-1.73c1.1.78,2,1.46,2.65,2-.06.25-.28.37-.65.37h-7.9v2.13h3.65L185.8,133c1,.73,1.9,1.37,2.55,1.92-.06.25-.29.37-.68.37h-6.91v2.35h5.29l1.5-1.83q1.66,1.24,2.7,2.16C190.2,138.21,190,138.33,189.59,138.33Zm-7.54-9.94h-6.5a3.86,3.86,0,0,1,1.87,1.17,1.54,1.54,0,0,1,.38,1.34,1.32,1.32,0,0,1-.72.89h3.72A24,24,0,0,0,182.05,128.39Z" style="fill:#566c6c"/><path d="M197.33,125.18l3.84,1.53q-.21.51-1,.42a19.75,19.75,0,0,1-7.87,8.27l-.24-.21a24.3,24.3,0,0,0,3-4.46A30.21,30.21,0,0,0,197.33,125.18Zm7.9,11.13.23-.14c3.28,1.29,5.49,3,6.61,5a3.64,3.64,0,0,1,.42,3.28,1.34,1.34,0,0,1-1.5.91,2.45,2.45,0,0,1-1.17-.54,13.64,13.64,0,0,0-1.31-3.61q-4.11,1.36-12.68,3.35a1.23,1.23,0,0,1-.73.57l-1.45-3.71q1.31,0,4.5-.18a62.68,62.68,0,0,0,2.9-10.48l4,1c-.1.38-.41.57-.94.57a44.29,44.29,0,0,1-5,8.86q2.25-.12,9.05-.61A26.13,26.13,0,0,0,205.23,136.31Zm1-13.57,2.41,1.67a3.32,3.32,0,0,1-2.06.61,12,12,0,0,0,3.27,4.3,16,16,0,0,0,5.21,3l-.07.26a3.72,3.72,0,0,0-1.51,1,3.78,3.78,0,0,0-.9,1.53,15.56,15.56,0,0,1-4.18-4.37,18.32,18.32,0,0,1-2.45-5.9h-5.72l-.21-.66h5.29Z" style="fill:#566c6c"/><path d="M238.16,139.13l-.4,3.14c.79.81,1,1.51.65,2.11a1.51,1.51,0,0,1-1,.63,3.42,3.42,0,0,1-1.42-.07,9.33,9.33,0,0,1-1.49-.54,13,13,0,0,1-7.12-9.16h-5.28v6c.93-.15,3.1-.57,6.52-1.24l0,.28q-3.51,1.91-9.72,4.48a1.15,1.15,0,0,1-.59.63l-1.94-3.19c.26,0,.73-.1,1.39-.22s1.16-.2,1.49-.24V123.45l3.16,1.19h10.74l1.31-1.43,2.74,2.09a1.47,1.47,0,0,1-.94.49v5.27c0,.11-.3.27-.87.46a4.64,4.64,0,0,1-1.52.29h-.49v-1.35h-3.87a19.73,19.73,0,0,0,.52,4.1h4l1.62-2c1.2.92,2.18,1.7,2.93,2.32-.06.25-.3.38-.71.38h-7.64a9.63,9.63,0,0,0,5.54,6.47.67.67,0,0,0,.93-.22,21.31,21.31,0,0,0,1.25-2.43Zm-4.81-13.81h-11.3v4.46h11.3Zm-11.3,9.24h5.14a22.76,22.76,0,0,1-.49-4.1h-4.65Z" style="fill:#566c6c"/><path d="M240.29,137.91l-.28-.35a5.83,5.83,0,0,0,1.43-2.56,16.28,16.28,0,0,0,.37-3.42H240.5l-.21-.66h5.3v-2.67h-1.86V129c0,.06-.09.14-.29.22a3.81,3.81,0,0,1-.76.24,3.94,3.94,0,0,1-.87.1h-.44v-6l3.11.28c0,.31-.29.51-.75.59v3.18h1.86V123l3.39.32c-.06.35-.32.55-.77.61v12.59c0,.12-.24.28-.73.48a3.82,3.82,0,0,1-1.4.29h-.49v-5.67h-1.36a9.22,9.22,0,0,1-1,3.73A6.53,6.53,0,0,1,240.29,137.91Zm18.87-6V134a3.23,3.23,0,0,1-.51,2,3.31,3.31,0,0,1-2.12.9,1.12,1.12,0,0,1,.51,1,1.15,1.15,0,0,1-.65.88h1.9l1.48-1.9c1.12.88,2,1.62,2.71,2.23-.06.25-.29.38-.7.38h-9.3q2.67,2.79,10.24,3l0,.25a3.07,3.07,0,0,0-2,2.72,17.29,17.29,0,0,1-5.57-2.11,9,9,0,0,1-3.34-3.86h-.35a6.3,6.3,0,0,1-1.54,2.48,9.93,9.93,0,0,1-3.42,2,32.41,32.41,0,0,1-6.2,1.52l-.16-.38a20.46,20.46,0,0,0,5.82-2.47,6.66,6.66,0,0,0,2.55-3.1h-7.79l-.18-.71h8.18a15,15,0,0,0,.37-2.76l3.75.28c-.06.39-.33.61-.82.65a15.48,15.48,0,0,1-.35,1.83h3.37l-.09,0a3.55,3.55,0,0,0-.69-1.2,4.26,4.26,0,0,0-1-.94l.16-.18a6,6,0,0,1,2.41.07,2.55,2.55,0,0,0-.39-1.27,2.14,2.14,0,0,0-1-.63,1.23,1.23,0,0,1-.74.77,1.48,1.48,0,0,1-1.28-.21,3.76,3.76,0,0,0-.63-1.48,5.39,5.39,0,0,0-1.18-1.24l.22-.19a5.42,5.42,0,0,1,2.75.6,1.7,1.7,0,0,1,.93,1.35l.62,0,.65,0h.39c.25,0,.37-.11.37-.33v-2h-7.71l-.18-.68h7.89v-2.46a29.34,29.34,0,0,1-7.68,2l-.19-.28q6.24-1.84,9.44-5.11h-4l-.68.35c1.2.05,1.9.37,2.08,1a.72.72,0,0,1-.4.93,1,1,0,0,1-1.19,0,2.73,2.73,0,0,0-1-1.57,16.18,16.18,0,0,1-1.81.75c1.24.14,1.94.51,2.11,1.12a.79.79,0,0,1-.44,1,1.15,1.15,0,0,1-1.39-.16,2.51,2.51,0,0,0-.86-1.69c-.46.16-1,.31-1.69.47l-.16-.26a14.79,14.79,0,0,0,2.86-2.06,12.18,12.18,0,0,0,2.08-2.39l3.54.94c-.09.29-.49.44-1.19.44-.24.19-.5.38-.78.56h3.38l1.31-1.29,2.58,2.07c-.17.22-.56.32-1.15.32a16.36,16.36,0,0,1-4.62,2.91L260,129c0,.31-.31.51-.79.61v1.61h.42l1.19-1.66c.94.76,1.68,1.41,2.23,1.94a.57.57,0,0,1-.63.4Z" style="fill:#566c6c"/><path d="M271.86,130.17v15.36h-7.71v-.94h6.73V130.17Z" style="fill:#566c6c"/><path d="M112.25,153.23l2.77,2.65a1.74,1.74,0,0,1-1.13.38,20,20,0,0,1-4.19,4.4,33.51,33.51,0,0,0,9,2.28l0,.25a3.2,3.2,0,0,0-2.37,2.58,27.16,27.16,0,0,1-3.3-1l2.11,1.59a1.54,1.54,0,0,1-1,.57v6.49c0,.09-.34.23-.92.41a5.14,5.14,0,0,1-1.52.27h-.49v-1.78h-7.69v1.05c0,.14-.27.33-.81.55a4.11,4.11,0,0,1-1.63.34h-.42v-9.07a40.24,40.24,0,0,1-4.92,1.1l-.14-.3A31.47,31.47,0,0,0,106,160.4a14.28,14.28,0,0,1-2.61-3.58,22.32,22.32,0,0,1-6.63,4.87l-.19-.25a21.37,21.37,0,0,0,4-4.42,23.4,23.4,0,0,0,2.93-5.43l3.92,1c-.13.27-.45.39-1,.38a21.36,21.36,0,0,1-1.38,2h5.25Zm-1.34,12.45,1.15-1.31a19.77,19.77,0,0,1-4.26-2.4,28,28,0,0,1-6.21,2.89l2.06.82Zm-7.45,5.9h7.69v-5.22h-7.69Zm6.84-16h-5.76c-.08.07-.2.21-.36.39l-.37.43a12.38,12.38,0,0,0,3.4,3A18.65,18.65,0,0,0,110.3,155.58Z" style="fill:#566c6c"/><path d="M127.18,162.42l-1.06.37V173.6c0,.06-.07.14-.23.25a3.14,3.14,0,0,1-.74.29,4.05,4.05,0,0,1-1.06.14h-.45v-7.83a.69.69,0,0,1-.23,0,13.26,13.26,0,0,1-3.45,5.72l-.35-.18a23.86,23.86,0,0,0,1.55-6.82l2.48.6v-2.17l-1.24.38-1.29.41a.76.76,0,0,1-.66.52l-.79-2.74,2.67-.1a74.72,74.72,0,0,0,3.79-7.29l3.17,1.43c-.14.3-.47.42-1,.35a55.48,55.48,0,0,1-5,5.44q1.83-.08,3.66-.21a15,15,0,0,0-1-2l.26-.16q2.88,1.09,3.49,2.9a1.71,1.71,0,0,1-.31,1.86,1.13,1.13,0,0,1-1.57.09,2.55,2.55,0,0,1-.28-.21A7,7,0,0,0,127.18,162.42Zm-3.7-10.66,3.47,1.33c-.15.33-.47.46-1,.4a24.65,24.65,0,0,1-3,3.23,1.83,1.83,0,0,1,.7,2,1.11,1.11,0,0,1-1,.79,1.73,1.73,0,0,1-1-.37,7.36,7.36,0,0,0-1.87-3.63l.21-.14a8.39,8.39,0,0,1,2.27.79C122.8,154.29,123.23,152.82,123.48,151.76Zm2.79,13.36.28-.12q2.69,1.31,3.11,3.14a1.64,1.64,0,0,1-.49,1.78,1.17,1.17,0,0,1-1.62-.09l-.18-.17A11.21,11.21,0,0,0,126.27,165.12ZM140.05,173l1-1.57a20.9,20.9,0,0,1,1.73,1.9.56.56,0,0,1-.61.4H127.81l-.19-.68h2.58v-20.3l3,1.13h3.89l1.41-1.5,2.57,2.1a1.45,1.45,0,0,1-1,.54Zm-2.75-18.45h-4.45v5.56h4.45Zm0,11.91V160.8h-4.45v5.65Zm-4.45.68V173h4.45v-5.91Z" style="fill:#566c6c"/><path d="M161.75,156.49l1.62-2.11c1.23,1,2.22,1.77,2.95,2.41q-.09.36-.66.36H143.94l-.19-.66h7.41a2.62,2.62,0,0,1-.73-.33,6.72,6.72,0,0,0-.8-2.17,9.19,9.19,0,0,0-1.43-2l.21-.14q3.5.39,4.46,2.13a1.7,1.7,0,0,1-.07,1.92,1.46,1.46,0,0,1-.78.54h4.41a25.52,25.52,0,0,0,1.73-4.76l4,1c-.11.31-.42.47-.94.47a30.26,30.26,0,0,1-4.05,3.28Zm-10.41,3.21,1.22-1.43,2.65,2.06a1.72,1.72,0,0,1-1,.5V171.3a3.2,3.2,0,0,1-.6,2.16,3.93,3.93,0,0,1-2.5.87,4.13,4.13,0,0,0-.35-1.81,1.91,1.91,0,0,0-1.45-.82v-.35c.95.08,1.57.12,1.85.12a.37.37,0,0,0,.42-.43V167.9a1,1,0,0,1-.69.85,1.38,1.38,0,0,1-1.28-.28,4.8,4.8,0,0,0-1.26-2.6v7.45c0,.15-.24.35-.72.57a3.41,3.41,0,0,1-1.51.34h-.4v-15.7l2.72,1.17Zm-3,6.09.21-.11a5.21,5.21,0,0,1,2.21.76,1.68,1.68,0,0,1,.81,1.14v-7.22h-3.23v1.54l.21-.11c1.65.17,2.63.65,2.93,1.43a.93.93,0,0,1-.33,1.15,1.14,1.14,0,0,1-1.5-.08,4.22,4.22,0,0,0-1.31-2.32Zm10.57-5.67v9.12c0,.11-.23.25-.69.41a4.18,4.18,0,0,1-1.37.25h-.5V159.14l3.45.3C159.78,159.82,159.48,160,158.94,160.12ZM161.33,171V158.39l3.54.35c-.08.34-.37.55-.87.61v11.77a5.33,5.33,0,0,1-.12,1.25,2.2,2.2,0,0,1-1.56,1.58,7.91,7.91,0,0,1-1.88.33,3.32,3.32,0,0,0-.59-1.85,3.92,3.92,0,0,0-2.13-.89v-.31c1.72.1,2.76.14,3.12.14a.61.61,0,0,0,.38-.08A.38.38,0,0,0,161.33,171Z" style="fill:#566c6c"/><path d="M167.8,171.28h17.72l1.75-2.25c1.32,1,2.38,1.84,3.19,2.53-.08.27-.3.4-.68.4H168Zm1.29-16.59h15.23l1.73-2.21c1.3,1,2.34,1.84,3.12,2.51-.06.25-.29.38-.7.38h-19.2Zm1.61,7.87h11.82l1.66-2.09c1.27,1,2.28,1.76,3,2.42-.07.25-.29.37-.68.37H170.89Z" style="fill:#566c6c"/><path d="M210.38,163.19l2.89,2.18a1.65,1.65,0,0,1-1.06.57v7.28c0,.13-.31.3-.89.52a4.47,4.47,0,0,1-1.57.33h-.49v-1.85h-7.95v1.26c0,.08-.09.19-.27.32a2.8,2.8,0,0,1-.84.37,4.15,4.15,0,0,1-1.25.18h-.57v-8a34.38,34.38,0,0,1-6.56,2l-.14-.31a35.5,35.5,0,0,0,9.39-5.23,23.84,23.84,0,0,0,6.34-7.12h-6.29c-.51.61-1.1,1.28-1.78,2,1.89.48,3,1.25,3.38,2.32a1.51,1.51,0,0,1-2.23,1.82,2.49,2.49,0,0,1-.37-.23,8.55,8.55,0,0,0-1.39-3.31,27,27,0,0,1-6.51,4.81l-.19-.23a26,26,0,0,0,4.57-5.06,28.14,28.14,0,0,0,3.4-6.12l3.94,1.1q-.16.38-1,.33c-.27.45-.7,1.07-1.29,1.87h5.72l1.85-1.66L212,156a1.54,1.54,0,0,1-1.12.4,25.07,25.07,0,0,1-9.08,8.37H209Zm-9.07,8.32h7.95V165.4h-7.95Z" style="fill:#566c6c"/><path d="M123,222.28v.07a9.61,9.61,0,0,0,0,13.89v.08h-4.56v-14Z" style="fill:#768e91"/><path d="M132.48,228a10.59,10.59,0,0,0,5.75,6.84,5.51,5.51,0,0,0-1,1.3c-2.8-1.3-4.62-3.73-5.79-6.91a10.35,10.35,0,0,1-5.78,6.91,5.1,5.1,0,0,0-1.07-1.17,9.33,9.33,0,0,0,5.62-7h-5.32v-1.44h5.58a38.89,38.89,0,0,0,.18-4.14h1.51a36.74,36.74,0,0,1-.21,4.14H138V228Z" style="fill:#768e91"/><path d="M153.83,234.38v1.29H140.42v-1.29h6v-1.59H142v-1.27h4.5v-1.17h-1.13v-3h-1.68a4.58,4.58,0,0,1-2.29,3.42,6.42,6.42,0,0,0-.91-1,3.55,3.55,0,0,0,1.88-2.45h-1.69v-1.24h1.82v-1.83h-1.31V223h6.72v1.23h-1.23v1.83h1.56v1.24h-1.56v2.78h1.26v1.44h4.41v1.27h-4.41v1.59Zm-8.51-8.32v-1.83h-1.59v1.83Zm4.94,2.22H149v-5h1.28Zm2.79.78c0,.7-.14,1.05-.63,1.26a7,7,0,0,1-2.28.22,5,5,0,0,0-.42-1.26c.76,0,1.5,0,1.71,0s.3-.06.3-.26v-6.49h1.32Z" style="fill:#768e91"/><path d="M164,222.88c-.1.16-.22.31-.34.48a16,16,0,0,0,6.3,4.15,3.29,3.29,0,0,0-.9,1.22,18.14,18.14,0,0,1-6.18-4.41,18.54,18.54,0,0,1-6.08,4.39,6,6,0,0,0-.95-1.18,15.16,15.16,0,0,0,6.89-5.25Zm-.28,11.61h5.53v1.27H156.59v-1.27h1.79v-5.37h1.36v5.37h2.52v-7.94h1.47v3.29h4.17v1.24h-4.17Z" style="fill:#768e91"/><path d="M177.35,233.81a12.92,12.92,0,0,1-4.47,1.94,5.77,5.77,0,0,0-.84-1,12.58,12.58,0,0,0,4.29-1.4Zm7.84-2.28v1.17h-5.9v3.48h-1.37V232.7H172.1v-1.17h5.82v-.9H173.5v-1h4.42v-.9h-5.16v-1.09h3a8.21,8.21,0,0,0-.65-1.29l.86-.21h-3.82V225h2.23a10.94,10.94,0,0,0-1.09-2l1.21-.42a10.22,10.22,0,0,1,1.2,2.15l-.79.3h1.68V222.4h1.3V225h1.49V222.4h1.32V225h1.63l-.58-.2a13.28,13.28,0,0,0,1.05-2.22l1.44.38c-.41.73-.86,1.48-1.25,2h2.15v1.11h-3.93l1.17.3c-.33.45-.68.85-1,1.2h3.17v1.09h-5.3v.9h4.6v1h-4.6v.9Zm-8.71-5.44a5.89,5.89,0,0,1,.7,1.32l-.67.18h4.09l-.54-.17a10.54,10.54,0,0,0,.84-1.33Zm4.53,7.15c1.32.48,3.15,1.2,4.15,1.68l-.93.81c-.93-.46-2.76-1.26-4.12-1.78Z" style="fill:#768e91"/><path d="M191.56,236.32H187v-.08a9.61,9.61,0,0,0,0-13.89v-.07h4.56Z" style="fill:#768e91"/><path d="M46.82,250a26.09,26.09,0,0,1,3.94,4.35l-1.17.87a9.77,9.77,0,0,0-.87-1.23c-8.25.43-9.21.46-9.88.7a13.39,13.39,0,0,0-.45-1.36,2.81,2.81,0,0,0,1.23-.86,24,24,0,0,0,3.31-4.15l1.4.6A29.83,29.83,0,0,1,40.74,253l7-.29c-.65-.72-1.34-1.44-2-2Zm-7.31,5.83h9.72v6.36H47.75v-.76H40.92v.79H39.51Zm1.41,1.34V260h6.83v-2.91Z" style="fill:#768e91"/><path d="M55.31,255.06a9.25,9.25,0,0,0-2.14-1.56l.76-1A8.85,8.85,0,0,1,56.12,254Zm-1.85,6.24a48.17,48.17,0,0,0,1.86-4.76l1.12.72c-.48,1.55-1.13,3.35-1.73,4.74Zm2.1-10.1a9.18,9.18,0,0,0-2.08-1.66l.81-.92a9.9,9.9,0,0,1,2.13,1.53ZM57.32,254a7.27,7.27,0,0,1-.63,2,3.49,3.49,0,0,0-.65-.43,5.22,5.22,0,0,0,.54-1.77Zm1.93-.6a3,3,0,0,0-.15-.45,11.61,11.61,0,0,0-2.55.43,3.93,3.93,0,0,0-.3-.64,1.34,1.34,0,0,0,.71-.5,8.18,8.18,0,0,0,.84-1.05,5.73,5.73,0,0,0-1.29.2,2.58,2.58,0,0,0-.3-.63.92.92,0,0,0,.5-.39,8.19,8.19,0,0,0,.88-1.88l.82.29a8.56,8.56,0,0,1-1,1.71l.87-.05a7.58,7.58,0,0,0,.38-.67l.79.33a13.44,13.44,0,0,1-1.72,2.29l1.09-.13c-.07-.15-.16-.3-.24-.44l.63-.22a6.39,6.39,0,0,1,.69,1.51Zm7.11,5.67a2.76,2.76,0,0,1-.09.52,3.7,3.7,0,0,1-.94,2.21,2,2,0,0,1-1.25.34c-.45,0-1.36,0-2.29,0a2.42,2.42,0,0,0-.38-1.07c.92.09,1.89.11,2.27.11a1,1,0,0,0,.64-.11,1.85,1.85,0,0,0,.54-1.06H57.14a23.84,23.84,0,0,0,.66-2.37h6.57V257H57.3v-.84h8.37v2.33H58.89l-.18.63Zm-8.48-3.3a7.32,7.32,0,0,0-.31-1.8l.66-.17a7.69,7.69,0,0,1,.35,1.73Zm1.3-.38a7.36,7.36,0,0,0-.47-1.63l.6-.21a6.09,6.09,0,0,1,.5,1.56Zm4.08-4.75H59.69v-.78h1.52a8.9,8.9,0,0,0-.53-1.14l.91-.21a6,6,0,0,1,.61,1.17l-.7.18h1.76Zm-3.17,2.79h2.84v2.2H60.09Zm2.82-1.61H60.12v-.7h2.79Zm-2.79.41h2.79v.7H60.12ZM61,255H62v-.82H61Zm3.33-1a7.62,7.62,0,0,1-.63,2,5.19,5.19,0,0,0-.64-.45,5.43,5.43,0,0,0,.54-1.75Zm2-.51-.18-.51a15.76,15.76,0,0,0-2.57.43c0-.12-.19-.46-.28-.64a1.36,1.36,0,0,0,.7-.51,10.34,10.34,0,0,0,.83-1,5.08,5.08,0,0,0-1.29.21,3.26,3.26,0,0,0-.29-.64c.17,0,.32-.17.48-.39a7.24,7.24,0,0,0,.9-1.86l.82.28a9.14,9.14,0,0,1-1,1.7l.86-.05c.12-.22.25-.45.36-.67l.79.34a13.39,13.39,0,0,1-1.72,2.3l1.09-.14c-.07-.13-.16-.3-.24-.43l.62-.23a7.65,7.65,0,0,1,.75,1.58Zm-1.43,2.46a8.34,8.34,0,0,0-.31-1.94l.66-.16a8.36,8.36,0,0,1,.34,1.87Zm1.44-2.37a7.44,7.44,0,0,1,.61,1.86l-.65.28a7.87,7.87,0,0,0-.57-1.92Z" style="fill:#768e91"/><path d="M73.78,257.59a18.14,18.14,0,0,0-1.1-1.62v6.18H71.33V256.2a15.39,15.39,0,0,1-1.86,3.39,7.94,7.94,0,0,0-.69-1.29,15.21,15.21,0,0,0,2.44-4.49h-2v-1.3h2.16v-2c-.64.12-1.29.21-1.89.28a4.56,4.56,0,0,0-.4-1.08,20.53,20.53,0,0,0,4.52-1.09l1,1.06a16.38,16.38,0,0,1-1.85.56v2.28H74.2v-.26h3.52v-.66H75v-.87h2.76v-.64H74.66v-.9h3.06v-.77h1.4v.77h3.25v.9H79.12v.64H82v.87H79.12v.66h3.59v.92H74.29v.64H72.68v.74c.49.43,1.63,1.62,1.9,1.95Zm8.14,2.19h-5l1,.66a12.22,12.22,0,0,1-3.57,1.8,6.86,6.86,0,0,0-.89-.9,10.2,10.2,0,0,0,3.26-1.56H75.17v-6h6.75Zm-1.31-5.07H76.43v.81h4.18Zm0,1.67H76.43v.82h4.18Zm0,1.68H76.43v.82h4.18ZM80,259.78c1,.57,2.15,1.28,2.84,1.74l-1.22.68c-.58-.45-1.63-1.17-2.54-1.74Z" style="fill:#768e91"/><path d="M90.05,255.31v5.57c0,.55-.1.84-.47,1a4.07,4.07,0,0,1-1.69.2,3.88,3.88,0,0,0-.38-1.05h1.17c.15,0,.2-.05.2-.2v-1.69c-.62.37-1.21.75-1.77,1.08l-.42-.84a6.84,6.84,0,0,1-.91,2.83,4,4,0,0,0-1-.7,7,7,0,0,0,.84-3.86v-2.37H84.9v-2.22h.62v-4.18h4.57v4.18h.62v2.22Zm-.41-1.24H85.92v.81h3.72Zm-3-1h.76v-2.35h1.56v-.8H86.62Zm.16,4.61c0,.48,0,1-.07,1.59.59-.26,1.36-.65,2.17-1.05v-2.4h-2.1v1l.55-.57a10.44,10.44,0,0,1,1.54,1.14l-.64.72A9.85,9.85,0,0,0,86.78,257Zm2.16-4.61v-1.51h-.8v1.51Zm9.58,7.77v1.05H90.71v-1.05h2c-.14-.4-.3-.87-.47-1.26l1-.3H91.54v-2.83h6.17v2.83H96l1.14.32c-.26.42-.48.85-.71,1.24Zm-.13-5H90.88v-1h7.51ZM98,254.16H91.14v-4.62H93v-1.11h1.11v1.11H95v-1.11h1.11v1.11H98Zm-5.82-2.78h1v-.9h-1Zm0,1.82h1v-.92h-1Zm.54,5.22h3.66v-1.05H92.75Zm.52.88a14.9,14.9,0,0,1,.65,1.56h1.32a14.09,14.09,0,0,0,.6-1.56ZM95,251.38v-.9h-1v.9Zm-1,.9v.92h1v-.92Zm2.85-1.8h-1v.9h1Zm0,1.8h-1v.92h1Z" style="fill:#768e91"/><path d="M102.3,254H101v-3.27h5.66v-.8h-5v-1h11.44v1H108v.8h5.79V254H112.4v-2.33H108V255h-1.36v-3.27H102.3Zm9.83,6.88c.76,0,.91-.24,1-1.63a3.6,3.6,0,0,0,1.17.45c-.18,1.8-.57,2.28-2.08,2.28h-3.29c-1.84,0-2.35-.36-2.35-1.71V260h-2.94v.72H102.3v-5.28h10.17V260h-4.56v.27c0,.53.18.63,1.11.63Zm-9.72-6.84c1-.12,2.22-.31,3.55-.51l.05.83c-1.14.27-2.25.51-3.22.69Zm.82-2.22a16.71,16.71,0,0,1,2.75.74l-.37.79a19.15,19.15,0,0,0-2.78-.81Zm.41,4.58v.85h2.94v-.85Zm2.94,2.61v-.87h-2.94V259Zm4.53-2.61h-3.2v.85h3.2Zm0,2.61v-.87h-3.2V259Zm.84-3.95a23.92,23.92,0,0,0-3.48-.82l.3-.8a18.28,18.28,0,0,1,3.46.72Zm0-2.56a19.19,19.19,0,0,1-2.82.78l-.46-.68a27.58,27.58,0,0,0,2.7-.87Z" style="fill:#768e91"/><path d="M129.09,250.21a11.1,11.1,0,0,1-2.14,4,9.63,9.63,0,0,0,3.27,2,5.54,5.54,0,0,0-.86,1.16l-.3-.12v4.87h-1.33v-.48h-3.35v.53h-1.27v-4.91l-.66.3a5.07,5.07,0,0,0-.39-.61H120.3v2.37l1.86-.43.14,1.23c-2.06.52-4.23,1-5.85,1.42l-.24-1.35.72-.13V255h1.14v4.82l1-.23v-5.85H117V249h5v3.84a10.64,10.64,0,0,0,2.6-4.44l1.35.33c-.14.39-.29.78-.45,1.16H128l.24-.06Zm-10.9,2.31h2.44v-2.31h-2.44Zm3.87,3.8a10.3,10.3,0,0,0,3.16-2.13,11.81,11.81,0,0,1-1.18-1.73,9.8,9.8,0,0,1-1.16,1.41,9.43,9.43,0,0,0-1-.82v.67H120.3v2h1.76Zm6.09.42a10.71,10.71,0,0,1-2.07-1.59,11.64,11.64,0,0,1-2.07,1.59Zm-.42,3.67v-2.49h-3.35v2.49Zm-2.86-9.33-.14.27a9.77,9.77,0,0,0,1.31,1.92,9.7,9.7,0,0,0,1.33-2.19Z" style="fill:#768e91"/><path d="M137.42,256.53l-1.28,1.09a28,28,0,0,0-3.28-3.33l1.23-1.06A28.07,28.07,0,0,1,137.42,256.53Z" style="fill:#768e91"/><path d="M153.84,260.26v1.35H140.45v-1.35h5.82v-4.45h-4.46v-1.37h4.46v-3.72h-5.13v-1.36h12v1.36h-5.35v3.72h4.73v1.37h-4.73v4.45Zm-3.88-4c.87.83,2.07,2,2.67,2.66l-1,.93c-.57-.72-1.77-1.91-2.63-2.78Z" style="fill:#768e91"/><path d="M168.81,251.52v10.62h-1.43v-1.08H157v-9.5h1.45v8.07h3.71V248.56h1.47v11.07h3.79v-8.11Z" style="fill:#768e91"/><path d="M179.33,254.1v1.81h5v1.26h-5v3.35h5.74v1.27H172.21v-1.27h5.63v-3.35h-5v-1.26h5V254.1h-3.13v-.78a17.46,17.46,0,0,1-2.17,1,5.48,5.48,0,0,0-.93-1.29,12.87,12.87,0,0,0,6.93-4.71l1.3.58q-.19.3-.39.57a16.12,16.12,0,0,0,6.24,3.57,5.68,5.68,0,0,0-1,1.22,15.44,15.44,0,0,1-2.24-1v.92Zm-4.16,3.22a11.4,11.4,0,0,1,1.41,2.6l-1.21.52a12.72,12.72,0,0,0-1.33-2.67Zm6.65-4.51a17,17,0,0,1-3.18-2.43,13.77,13.77,0,0,1-3,2.43Zm-1.35,7.2a13.68,13.68,0,0,0,1.45-2.69l1.35.5c-.57.94-1.23,2-1.74,2.64Z" style="fill:#768e91"/><path d="M190.56,257v3.62c0,.69-.13,1.06-.54,1.27a4.09,4.09,0,0,1-1.94.27,4.81,4.81,0,0,0-.38-1.29c.6,0,1.15,0,1.32,0s.27,0,.27-.25v-3.23l-1.62.53-.27-1.37c.52-.13,1.17-.33,1.89-.54v-3.39h-1.72v-1.27h1.72v-2.94h1.27v2.94h1.38v1.27h-1.38v3l1.49-.45.22,1.26Zm10.7,3.47v1.27h-9.42v-1.27h4v-2.82h-3.11v-1.26h7.77v1.26h-3.28v2.82Zm-7.84-7.74H192.2v-2.66h3.7c-.18-.45-.42-1-.63-1.38l1.29-.4a17,17,0,0,1,.86,1.78h3.72v2.58h-1.28v-1.41h-1.39v2.31c0,.38.06.51.31.51h1.4a4.15,4.15,0,0,0,.87-.07c0,.33.06.82.1,1.09a2.84,2.84,0,0,1-1,.11h-1.45c-1.23,0-1.52-.45-1.52-1.65v-2.3h-1c-.14,2.36-.68,3.65-3.23,4.32a3.25,3.25,0,0,0-.67-1c2.14-.51,2.53-1.44,2.64-3.32h-1.51Z" style="fill:#768e91"/><path d="M208.67,256.53l-1.28,1.09a28,28,0,0,0-3.28-3.33l1.23-1.06A28.07,28.07,0,0,1,208.67,256.53Z" style="fill:#768e91"/><path d="M215.88,248.85a28,28,0,0,1-1.21,2.83v10.53h-1.28V253.9a14.7,14.7,0,0,1-1.26,1.68,9.46,9.46,0,0,0-.75-1.33,16.72,16.72,0,0,0,3.24-5.78Zm9.21,2V252h-9.51v-1.14H220a13,13,0,0,0-1-1.95l1.2-.46a12.07,12.07,0,0,1,1.08,1.95l-1.08.46Zm-8.65,6.5h7.68v4.81h-1.23v-.49h-5.27v.54h-1.18ZM224,254.1h-7.3V253H224Zm-7.3,1H224v1.11h-7.3Zm1,3.33v2.07h5.27v-2.07Z" style="fill:#768e91"/><path d="M239.73,258.42a7.78,7.78,0,0,1-1.9,1.74,2.19,2.19,0,0,0,1.59.73c.39,0,.49-.31.57-1.27a3.08,3.08,0,0,0,1,.54c-.21,1.62-.65,2-1.7,2a3.56,3.56,0,0,1-2.67-1.31,18.36,18.36,0,0,1-3.19,1.29,6.54,6.54,0,0,0-.72-1.11,14.43,14.43,0,0,0,3.22-1.12,9,9,0,0,1-.85-2H231.9v.81l2.48-.18v1l-2.48.21v1.13c0,.67-.15,1-.64,1.12a8.11,8.11,0,0,1-2.34.18,5.53,5.53,0,0,0-.41-1.09c.75,0,1.55,0,1.74,0s.3-.06.3-.27v-1l-3,.24-.12-1.08c.86,0,1.94-.1,3.12-.19v-.9H227.5v-1.07h3.05V256c-.87.09-1.74.15-2.55.18a3.3,3.3,0,0,0-.29-.87,34.72,34.72,0,0,0,5.63-.69l.83.84a22.29,22.29,0,0,1-2.27.41v1h3a13.28,13.28,0,0,1-.27-2.07h1.35a11,11,0,0,0,.27,2.07h3a11,11,0,0,0-2.42-1.38l.78-.81A9.48,9.48,0,0,1,240,256l-.79.87h1.57v1.07h-4.29a6.8,6.8,0,0,0,.62,1.33,5.59,5.59,0,0,0,1.41-1.26Zm1-3.83H227.51V253.5h5.88v-.77H229v-1h4.43V251h-5.22v-1.05h2.88a6.22,6.22,0,0,0-.72-1.09l1.21-.41a5.56,5.56,0,0,1,1,1.47l-.08,0h3.33a13.12,13.12,0,0,0,.79-1.53l1.52.33c-.3.44-.59.86-.86,1.2h2.87V251h-5.3v.77h4.5v1h-4.5v.77h5.94Z" style="fill:#768e91"/><path d="M250.22,257c-.05.36-.11.68-.18,1h5s0,.36,0,.52c-.2,2-.39,2.85-.78,3.24a1.59,1.59,0,0,1-1.07.39,15,15,0,0,1-1.92,0,3.14,3.14,0,0,0-.37-1.17,15.63,15.63,0,0,0,1.69.08.8.8,0,0,0,.53-.12,3.86,3.86,0,0,0,.48-1.85h-3.92c-.58,1.4-1.71,2.43-3.91,3.11a3.21,3.21,0,0,0-.77-1.08c2.82-.77,3.53-2.16,3.82-4.13h-3a10.2,10.2,0,0,1-1.92,5.3,4.73,4.73,0,0,0-1-1c1.57-2,1.71-4.86,1.71-7v-4.72h0a68.53,68.53,0,0,0,9.54-1.11l1.06,1a63.79,63.79,0,0,1-9.23,1.09v.66h9.53v3.41H246c0,.39,0,.81,0,1.24h4.32a6.87,6.87,0,0,0-.5-.93l1.36-.31a7.48,7.48,0,0,1,.68,1.24h4.71V257ZM246,252.33v1.21h8.17v-1.21Z" style="fill:#768e91"/><path d="M272.27,260.67v1.12H261.21v-1.12H266v-1.38h-3.72v-1.11H266v-1.13a15.07,15.07,0,0,0-3.48.38,9,9,0,0,0-.42-1.23,1.88,1.88,0,0,0,.84-.45,9.68,9.68,0,0,0,1.23-1.07H261.6c-.07,2.42-.43,5.42-1.71,7.49a5.1,5.1,0,0,0-1.24-.69c1.45-2.37,1.57-5.75,1.57-8.12v-4.21h11.21v3.51h-9.8v.9h10.23v1.12h-2.77a18.7,18.7,0,0,1,2.73,2.34l-1.11.69c-.23-.25-.51-.57-.87-.91l-2.48.16v1.22h3.8v1.11h-3.8v1.38Zm-10.64-10.38v1.23H270v-1.23Zm4.29,4.39a16.08,16.08,0,0,1-1.5,1.34l4.26-.23-.88-.69.7-.42Z" style="fill:#768e91"/><path d="M123,300.28v.07a9.61,9.61,0,0,0,0,13.89v.08h-4.56v-14Z" style="fill:#768e91"/><path d="M137.42,303v7.17H136v-.81h-3.9v4.77h-1.45V309.4h-3.89v.88h-1.39V303h5.28v-2.61h1.45V303Zm-6.81,5V304.4h-3.89V308Zm5.35,0V304.4h-3.9V308Z" style="fill:#768e91"/><path d="M147.8,312.58h6.07v1.21H140.38v-1.21h6V311h-4.44v-1.18h4.44v-1.1h1.42v1.1h4.54V311H147.8Zm-.65-3.93H141v-7.71h5.94V302h-1.79v1.08H147v3.27h-1.81v1.17h2Zm-4.9-6.62v1.08h1.68V302Zm3.45,2.12h-3.45v1.21h3.45Zm-3.45,3.4h1.68v-1.17h-1.68Zm11.26-6.28a12.27,12.27,0,0,1-2.25,4.9A7.68,7.68,0,0,0,154,308a4.4,4.4,0,0,0-.87,1.1,9,9,0,0,1-2.73-2,10.05,10.05,0,0,1-2.37,1.71,4.67,4.67,0,0,0-.84-1.14,8.07,8.07,0,0,0,2.34-1.62,12.39,12.39,0,0,1-1.81-3.72l.37-.11h-.66V301h5l.23,0Zm-4.54,1a11.1,11.1,0,0,0,1.39,2.85,10.1,10.1,0,0,0,1.52-2.85Z" style="fill:#768e91"/><path d="M164,300.88c-.1.16-.22.31-.34.48a16,16,0,0,0,6.3,4.15,3.29,3.29,0,0,0-.9,1.22,18.14,18.14,0,0,1-6.18-4.41,18.54,18.54,0,0,1-6.08,4.39,6,6,0,0,0-.95-1.18,15.16,15.16,0,0,0,6.89-5.25Zm-.28,11.61h5.53v1.27H156.59v-1.27h1.79v-5.37h1.36v5.37h2.52v-7.94h1.47v3.29h4.17v1.24h-4.17Z" style="fill:#768e91"/><path d="M177.35,311.81a12.92,12.92,0,0,1-4.47,1.94,5.77,5.77,0,0,0-.84-1,12.58,12.58,0,0,0,4.29-1.4Zm7.84-2.28v1.17h-5.9v3.48h-1.37V310.7H172.1v-1.17h5.82v-.9H173.5v-1.05h4.42v-.9h-5.16v-1.09h3a8.21,8.21,0,0,0-.65-1.29l.86-.21h-3.82V303h2.23a10.94,10.94,0,0,0-1.09-2l1.21-.42a10.22,10.22,0,0,1,1.2,2.15l-.79.3h1.68V300.4h1.3V303h1.49V300.4h1.32V303h1.63l-.58-.2a13.28,13.28,0,0,0,1.05-2.22l1.44.38c-.41.73-.86,1.48-1.25,2h2.15v1.11h-3.93l1.17.3c-.33.45-.68.85-1,1.2h3.17v1.09h-5.3v.9h4.6v1.05h-4.6v.9Zm-8.71-5.44a5.89,5.89,0,0,1,.7,1.32l-.67.18h4.09l-.54-.17a10.54,10.54,0,0,0,.84-1.33Zm4.53,7.15c1.32.48,3.15,1.2,4.15,1.68l-.93.81c-.93-.46-2.76-1.26-4.12-1.78Z" style="fill:#768e91"/><path d="M191.56,314.32H187v-.08a9.61,9.61,0,0,0,0-13.89v-.07h4.56Z" style="fill:#768e91"/><path d="M61.23,332A10.59,10.59,0,0,0,67,338.85a5.51,5.51,0,0,0-1,1.3c-2.8-1.3-4.62-3.73-5.79-6.91a10.35,10.35,0,0,1-5.78,6.91A5.1,5.1,0,0,0,53.3,339a9.33,9.33,0,0,0,5.62-7H53.6v-1.44h5.58a38.89,38.89,0,0,0,.18-4.14h1.52a39.46,39.46,0,0,1-.22,4.14h6V332Z" style="fill:#768e91"/><path d="M71.78,333.31A24.86,24.86,0,0,0,69,331.69l.75-1a19.25,19.25,0,0,1,2.77,1.49Zm1.59,1.94c-.78,1.54-1.79,3.34-2.66,4.75l-1.18-.94a38.53,38.53,0,0,0,2.82-4.74Zm-.86-5.87a21.35,21.35,0,0,0-2.63-1.77l.81-1a25.58,25.58,0,0,1,2.68,1.63Zm10.23,8.48v1.39H73.19v-1.39h3.9v-8.72H73.94v-1.39h8v1.39H78.6v8.72Z" style="fill:#768e91"/><path d="M98.31,338.37v1.35H85v-1.35h5.93v-3.45H86.66v-1.34h4.27v-3H87.61a13.59,13.59,0,0,1-1.49,2.33,8.58,8.58,0,0,0-1.28-.84,13,13,0,0,0,2.72-5.43L89,327c-.22.76-.5,1.53-.78,2.25h2.71v-2.79h1.45v2.79h5.21v1.36H92.38v3H97v1.34H92.38v3.45Z" style="fill:#768e91"/><path d="M109.26,334.5v.58h3.51v5.07h-1.3v-.51h-8.21v.51H102v-5.07h3.77v-.58H100.5v-.93h13.71v.93Zm-7.93-6.8h-.46v-.84h6.64v.84h-5.09v3.86c0,.52.12.7.65.7h3a7.72,7.72,0,0,0,1.41-.09c0,.3.08.65.12.87a6.89,6.89,0,0,1-1.44.09H103c-1.3,0-1.68-.43-1.68-1.6Zm2.49,1.34a6.17,6.17,0,0,1-.51.6,3.46,3.46,0,0,0-.72-.44,4,4,0,0,0,1-1.5l.83.2c-.06.13-.12.28-.2.43H107V329H105.5v.67h1.8v.74h-1.77a13.48,13.48,0,0,1,1.62,1.12l-.57.62a9.42,9.42,0,0,0-1.5-1.11,3.6,3.6,0,0,1-1.72,1.18,3.36,3.36,0,0,0-.59-.66,2.39,2.39,0,0,0,1.66-1.15h-1.72v-.74h1.87V329Zm7.65,9.81v-1.64h-1.85c-1.16,0-1.45-.19-1.45-1v-.3h-1.34c-.16.76-.9,1.32-3,1.63a4.08,4.08,0,0,0-.61-.79c1.61-.15,2.22-.47,2.44-.84h-2.44v3Zm-7-1.22h6.06v.74h-6.06Zm3.74-3.13h-1.3v.58h1.3Zm-.2-4.71a3.82,3.82,0,0,0-.72-.81c1.14-.42,1.34-.92,1.34-1.43v-.76h3.72v1.26c0,.28,0,.37.21.37h.6a3.3,3.3,0,0,0,.64-.07c0,.28.06.66.09.93a2.29,2.29,0,0,1-.69.07h-.81c-.94,0-1.14-.39-1.14-1.32v-.27h-1.54a2.2,2.2,0,0,1-1.2,1.83h3.78l.21,0,.67.29a5.15,5.15,0,0,1-1.5,2c.69.32,1.34.6,1.79.86l-.51.81c-.53-.29-1.31-.66-2.15-1.05a9.84,9.84,0,0,1-2.64,1.05,3.78,3.78,0,0,0-.57-.86,10.13,10.13,0,0,0,2.1-.69c-.58-.25-1.15-.49-1.68-.7l.5-.71c.65.24,1.4.54,2.13.86a5.06,5.06,0,0,0,1-1H108Zm1.29,6.09v.31c0,.29.08.33.48.33h1.73v-.63Z" style="fill:#768e91"/><path d="M121.67,334.53l-1.28,1.09a28,28,0,0,0-3.28-3.33l1.23-1.06A28.07,28.07,0,0,1,121.67,334.53Z" style="fill:#768e91"/><path d="M138.09,338.14v1.38H124.7v-1.38h5.92V333.9h-4.51v-1.37h4.51v-3.79h-5.18v-1.37h11.87v1.37h-5.22v3.79h4.7v1.37h-4.7v4.24Z" style="fill:#768e91"/><path d="M144.14,333.48a18.43,18.43,0,0,1-1.22,3.87c.28.15.61.4,1.08.7a8.12,8.12,0,0,0,4.17.72,55.44,55.44,0,0,0,6-.34,5.11,5.11,0,0,0-.41,1.44c-1.17.07-3.91.16-5.66.16a8.46,8.46,0,0,1-4.36-.79c-.59-.35-1.14-.87-1.47-.87s-.83,1-1.25,1.89l-.95-1.29a7.08,7.08,0,0,1,1.52-1.56,13.8,13.8,0,0,0,1-2.91h-1.92c.37-.89.81-2.1,1.19-3.27h-1.52V330h3.24c-.33,1.06-.75,2.29-1.12,3.33h.84l.21-.06Zm-2.24-4.14c-.18-.66-.53-1.71-.78-2.51l1.22-.37c.28.78.63,1.78.83,2.43Zm6,1.09c.08-.31.16-.66.24-1h-3.79V328.3h2.27a9.18,9.18,0,0,0-.84-1.39l1.09-.45a8.05,8.05,0,0,1,1,1.57l-.6.27h2.53a11.66,11.66,0,0,0,1-1.87l1.36.37c-.34.51-.69,1.05-1,1.5h2.63v1.14h-4.17c-.14.35-.3.68-.45,1h3.4v7.08h-7.06v-7.08Zm3.34,1h-4.4v1h4.4Zm0,2h-4.4v1.05h4.4Zm0,2h-4.4v1.06h4.4Z" style="fill:#768e91"/><path d="M169.46,329.13H160.7c.3.51.68,1.18.87,1.59l-1.1.42h3.59a16.38,16.38,0,0,0,1-2l1.4.3c-.33.57-.69,1.17-1.05,1.68h3.31v7.62c0,.69-.16,1-.64,1.15a8.39,8.39,0,0,1-2.51.2,3.61,3.61,0,0,0-.42-1.07c.87,0,1.73,0,1.94,0s.34-.08.34-.3v-6.5h-2.73V333c0,.33,0,.45.3.45H166a4,4,0,0,0,.85-.07c0,.33.05.66.09,1a3.83,3.83,0,0,1-.91.08h-1.4c-1,0-1.23-.47-1.23-1.44v-.71H162c-.23,1.47-.9,2.3-3,2.75a2.55,2.55,0,0,0-.63-.95v6.09h-1.31v-9h3.17a17,17,0,0,0-.82-1.67l1-.34h-4.14v-1.19h6c-.13-.42-.32-.9-.46-1.29l1.33-.33c.21.51.45,1.14.6,1.62h5.61Zm-11,4.92c1.64-.3,2.18-.81,2.36-1.79h-2.36Zm2.78,4.26V339H160v-4.16h5.59v3.5Zm0-2.49v1.48h3.28v-1.48Z" style="fill:#768e91"/><path d="M177.54,337.27l.13,1.17c-1.91.47-3.93,1-5.46,1.34l-.35-1.35,2.4-.47v-4h-2.18v-1.22h2.18v-1.41h-1.39v-.67a6.3,6.3,0,0,1-.62.49,11.53,11.53,0,0,0-.6-1.33,10.47,10.47,0,0,0,3.19-3.45l1.16.43c-.09.15-.18.33-.29.5a19.53,19.53,0,0,1,2.33,2.05l-.84,1c-.53-.57-1.37-1.36-2.15-2a16,16,0,0,1-1.62,1.85h3.49v1.18h-1.45v1.41h2V334h-2v3.72Zm-4.21-2.64a15.28,15.28,0,0,1,.64,2.69l-1,.28a15.77,15.77,0,0,0-.59-2.74Zm2.4,2.42a24.06,24.06,0,0,0,.65-2.63l1,.3c-.28.87-.59,1.92-.87,2.6Zm9.67-2a21.84,21.84,0,0,1-2.19,1.56,6.34,6.34,0,0,0,2.42,2.25,5,5,0,0,0-1,1.18c-2-1.18-3.23-3.49-3.93-6.3h-1.05v4.53l2.25-.61a7.89,7.89,0,0,0,.12,1.23c-3.05.93-3.54,1.12-3.84,1.36a4.78,4.78,0,0,0-.48-1.2.92.92,0,0,0,.6-.91v-11h6.54v6.64H182a16.85,16.85,0,0,0,.69,1.85,16.62,16.62,0,0,0,1.86-1.5Zm-5.71-6.75v1.53h3.84v-1.53Zm0,4.23h3.84v-1.56h-3.84Z" style="fill:#768e91"/><path d="M192.92,334.53l-1.28,1.09a28,28,0,0,0-3.28-3.33l1.23-1.06A28.07,28.07,0,0,1,192.92,334.53Z" style="fill:#768e91"/><path d="M202.55,338.23a9.82,9.82,0,0,0,.07,1.14c-4.51.47-5.09.57-5.5.74a4.16,4.16,0,0,0-.42-1.32.66.66,0,0,0,.55-.71v-3.21h1.42v.93h3.75v1.11h-3.75v1.67Zm6-8.74H196.8V326.8h1.41v1.53h3.68v-1.92h1.42v1.92h3.81V326.8h1.46Zm-11.16,5v-4.35h10.63v4.35Zm1.46-2.61h7.66V331h-7.66Zm0,1.72h7.66v-.88h-7.66Zm8.63,5.24c.56,0,.66-.23.72-1.44a5.24,5.24,0,0,0,1.23.48c-.15,1.63-.54,2.07-1.8,2.07h-2.55c-1.61,0-2-.35-2-1.61v-3.43h1.4v.94h3.91v1.11h-3.91v1.37c0,.43.13.51.81.51Z" style="fill:#768e91"/><path d="M213.84,333.52h3.59v6.65h-1.35v-3.33h-1.65c-.15,1.63-.62,2.8-2.07,3.51a3.24,3.24,0,0,0-.77-1,2.66,2.66,0,0,0,1.57-2.47h-1.55v-1.19h4.47v-1H212.5v-7h1.34Zm7.79-.64H215v-6h6.59Zm-1.4-5.07h-3.85v.76h3.85Zm0,1.65h-3.85v.79h3.85Zm0,1.68h-3.85V332h3.85Zm4.31,4.54v4.52h-1.35v-3.32h-2.67v3.3h-1.35v-6.66h3.64v-5.85h1.37v7h-3.66v1Z" style="fill:#768e91"/><path d="M232.08,334.18c-.48.15-1,.3-1.45.42v3.93c0,.72-.15,1.08-.59,1.28a5.11,5.11,0,0,1-2.12.25,5.78,5.78,0,0,0-.41-1.26c.66,0,1.29,0,1.47,0s.3-.08.3-.3V335l-1.74.48-.37-1.33c.59-.14,1.32-.32,2.11-.53v-3h-1.92v-1.29h1.92v-2.92h1.35v2.92h1.74v1.29h-1.74v2.61l1.27-.34Zm7.95-.93a9.42,9.42,0,0,1-2.76,4.32,11.92,11.92,0,0,0,3.74,1.35,6.56,6.56,0,0,0-.89,1.29,11.9,11.9,0,0,1-4-1.75,14.31,14.31,0,0,1-4.23,1.75,4.46,4.46,0,0,0-.69-1.27,12.08,12.08,0,0,0,3.79-1.38,10.39,10.39,0,0,1-2.29-3.2l.37-.13h-.75v-1.31h6.6l.24,0ZM235,328.6a4.23,4.23,0,0,1-2.34,4,5.87,5.87,0,0,0-.9-1,3.08,3.08,0,0,0,1.93-3.06v-1.62h4.94v3.36c0,.42,0,.58.27.58h1a3.33,3.33,0,0,0,.78-.09c0,.36.06.86.11,1.17a2.77,2.77,0,0,1-.87.09h-1.13c-1.21,0-1.48-.49-1.48-1.77v-2H235Zm-1,5.63a7.84,7.84,0,0,0,2.1,2.53,8.25,8.25,0,0,0,2.07-2.53Z" style="fill:#768e91"/><path d="M246.06,335v3.62c0,.69-.13,1.06-.54,1.27a4.09,4.09,0,0,1-1.94.27,4.81,4.81,0,0,0-.38-1.29c.6,0,1.15,0,1.32,0s.27,0,.27-.25v-3.23l-1.62.53-.27-1.37c.52-.13,1.17-.33,1.89-.54v-3.39h-1.72v-1.27h1.72v-2.94h1.27v2.94h1.38v1.27h-1.38v3l1.49-.45.22,1.26Zm10.7,3.47v1.27h-9.42v-1.27h4v-2.82h-3.11v-1.26H256v1.26h-3.28v2.82Zm-7.84-7.74H247.7v-2.66h3.7c-.18-.45-.42-1-.63-1.38l1.29-.4a17,17,0,0,1,.86,1.78h3.72v2.58h-1.28v-1.41H254v2.31c0,.38.06.51.31.51h1.4a4.15,4.15,0,0,0,.87-.07c0,.33.06.82.1,1.09a2.84,2.84,0,0,1-1,.11h-1.45c-1.23,0-1.52-.45-1.52-1.65v-2.3h-1c-.14,2.36-.68,3.65-3.23,4.32a3.25,3.25,0,0,0-.67-1c2.14-.51,2.53-1.44,2.64-3.32h-1.51Z" style="fill:#768e91"/><path d="M123,378.28v.07a9.61,9.61,0,0,0,0,13.89v.08h-4.56v-14Z" style="fill:#768e91"/><path d="M130.91,380.59l1,.28c-.75,5.94-3,9.53-6.23,11.27A4.61,4.61,0,0,0,124.5,391a9.33,9.33,0,0,0,4.17-4.08c-.55-.67-1.41-1.57-2.2-2.34-.28.48-.57.9-.85,1.29a11.11,11.11,0,0,0-1.19-.88,14.72,14.72,0,0,0,2.78-6.57l1.39.25c-.15.68-.33,1.34-.51,2h2.55ZM127.65,382c-.19.5-.37,1-.58,1.44.73.65,1.6,1.46,2.23,2.13a16.14,16.14,0,0,0,.93-3.57Zm7.2.95a34.06,34.06,0,0,1,3.53,3.37l-1.19,1a26.19,26.19,0,0,0-2.85-3v7.92h-1.46V378.41h1.46v4.86Z" style="fill:#768e91"/><path d="M153.71,381.13H145c.3.51.67,1.18.87,1.59l-1.1.42h3.59a18.14,18.14,0,0,0,1-2l1.39.3c-.33.57-.69,1.17-1.05,1.68h3.31v7.62c0,.69-.16,1-.64,1.15a8.39,8.39,0,0,1-2.51.2,3.88,3.88,0,0,0-.41-1.07c.86,0,1.72,0,1.93,0s.34-.08.34-.3v-6.5h-2.73V385c0,.33,0,.45.3.45h1.07a4,4,0,0,0,.85-.07c0,.33.05.66.09,1a3.83,3.83,0,0,1-.91.08h-1.4c-1,0-1.22-.47-1.22-1.44v-.71h-1.43c-.23,1.47-.9,2.3-3,2.75a2.65,2.65,0,0,0-.62-.95v6.09h-1.32v-9h3.17a17,17,0,0,0-.82-1.67l1-.34h-4.14v-1.19h6c-.14-.42-.32-.9-.47-1.29l1.34-.33c.21.51.45,1.14.6,1.62h5.61Zm-11,4.92c1.63-.3,2.17-.81,2.35-1.79h-2.35Zm2.77,4.26V391h-1.17v-4.16h5.59v3.5Zm0-2.49v1.48h3.28v-1.48Z" style="fill:#768e91"/><path d="M164,378.88c-.1.16-.22.31-.34.48a16,16,0,0,0,6.3,4.15,3.29,3.29,0,0,0-.9,1.22,18.14,18.14,0,0,1-6.18-4.41,18.54,18.54,0,0,1-6.08,4.39,6,6,0,0,0-.95-1.18,15.16,15.16,0,0,0,6.89-5.25Zm-.28,11.61h5.53v1.27H156.59v-1.27h1.79v-5.37h1.36v5.37h2.52v-7.94h1.47v3.29h4.17v1.24h-4.17Z" style="fill:#768e91"/><path d="M177.35,389.81a12.92,12.92,0,0,1-4.47,1.94,5.77,5.77,0,0,0-.84-1,12.58,12.58,0,0,0,4.29-1.4Zm7.84-2.28v1.17h-5.9v3.48h-1.37V388.7H172.1v-1.17h5.82v-.9H173.5v-1.05h4.42v-.9h-5.16v-1.09h3a8.21,8.21,0,0,0-.65-1.29l.86-.21h-3.82V381h2.23a10.94,10.94,0,0,0-1.09-2l1.21-.42a10.22,10.22,0,0,1,1.2,2.15l-.79.3h1.68V378.4h1.3V381h1.49V378.4h1.32V381h1.63l-.58-.2a13.28,13.28,0,0,0,1.05-2.22l1.44.38c-.41.73-.86,1.48-1.25,2h2.15v1.11h-3.93l1.17.3c-.33.45-.68.85-1,1.2h3.17v1.09h-5.3v.9h4.6v1.05h-4.6v.9Zm-8.71-5.44a5.89,5.89,0,0,1,.7,1.32l-.67.18h4.09l-.54-.17a10.54,10.54,0,0,0,.84-1.33Zm4.53,7.15c1.32.48,3.15,1.2,4.15,1.68l-.93.81c-.93-.46-2.76-1.26-4.12-1.78Z" style="fill:#768e91"/><path d="M191.56,392.32H187v-.08a9.61,9.61,0,0,0,0-13.89v-.07h4.56Z" style="fill:#768e91"/><path d="M80.91,405.37V418H79.43V417H72.37v1H70.94V405.37Zm-8.54,1.41v3.66h7.06v-3.66Zm7.06,8.85v-3.81H72.37v3.81Z" style="fill:#768e91"/><path d="M98.31,416.17v1.41H85v-1.41h7.26a44.19,44.19,0,0,0,2.08-6.94l1.58.3a64.76,64.76,0,0,1-2.16,6.64Zm-.61-7.6H85.59v-1.41H97.7Zm-8.79,7.08a49.41,49.41,0,0,0-1.35-6.11L89,409.2a50.7,50.7,0,0,1,1.42,6.07Zm2.23-8.55a16.45,16.45,0,0,0-.72-2.45l1.38-.34c.29.75.63,1.73.8,2.37Z" style="fill:#768e91"/><path d="M103.28,411.31a24.86,24.86,0,0,0-2.74-1.62l.75-1a19.25,19.25,0,0,1,2.77,1.49Zm1.59,1.94c-.78,1.54-1.79,3.34-2.66,4.75l-1.18-.95a37.61,37.61,0,0,0,2.82-4.73Zm-.86-5.87a21.35,21.35,0,0,0-2.63-1.77l.81-1a25.58,25.58,0,0,1,2.68,1.63Zm10.23,8.48v1.39h-9.55v-1.39h3.9v-8.72h-3.15v-1.39h8v1.39H110.1v8.72Z" style="fill:#768e91"/><path d="M121.8,415.66c-.3-.27-.85-.72-1.39-1.16V418h-1.32v-3.22a9.17,9.17,0,0,1-2.32,2.33,8.26,8.26,0,0,0-.59-1.28,8.6,8.6,0,0,0,2.8-2.71h-2.29v-1.22h2.4v-1.51h1.32v1.51h2.28v1.22h-2.28v.1c.6.35,2,1.38,2.43,1.68Zm.6-8.1a13.13,13.13,0,0,1-5.29,3.39,6.27,6.27,0,0,0-.87-1.11,11.93,11.93,0,0,0,4.93-2.72H116.9V405.9h5.5v-1.5h1.39v1.5h5.54v1.22H125c1.61.79,4,2,4.67,2.38l-.45,1.3c-1.11-.72-3.87-2.34-5.41-3.16V411H122.4ZM127,413.2a11.46,11.46,0,0,0,3.18,2.87,6,6,0,0,0-1,1.09,12.59,12.59,0,0,1-2.37-2.52v3.54h-1.32v-3.47a11.14,11.14,0,0,1-2.87,2.51,5.07,5.07,0,0,0-.85-1,9.4,9.4,0,0,0,3.51-3h-2.1V412h2.31v-1.56h1.32V412h2.79v1.21Z" style="fill:#768e91"/><path d="M144.21,406.41v11.72h-1.47v-.75h-7.59v.82h-1.39V406.41h3.78a17.84,17.84,0,0,0,.5-2l1.66.19c-.24.63-.48,1.28-.74,1.82Zm-9.06,1.33v1.92h7.59v-1.92Zm0,3.21v1.92h7.59V411Zm7.59,5.14v-1.93h-7.59v1.93Z" style="fill:#768e91"/><path d="M150.81,413v3.61c0,.7-.13,1.07-.54,1.28a4.22,4.22,0,0,1-1.94.27,4.81,4.81,0,0,0-.38-1.29c.6,0,1.16,0,1.32,0s.27-.05.27-.26v-3.22l-1.62.53-.27-1.37c.52-.13,1.17-.33,1.89-.54v-3.39h-1.73v-1.27h1.73v-2.94h1.27v2.94h1.38v1.27h-1.38v3l1.49-.45.22,1.26Zm10.7,3.47v1.27h-9.42v-1.27h4v-2.82H153v-1.26h7.77v1.26h-3.28v2.82Zm-7.84-7.74h-1.22v-2.66h3.7c-.18-.45-.42-1-.63-1.38l1.29-.4a17,17,0,0,1,.86,1.78h3.72v2.58h-1.28v-1.41h-1.39v2.31c0,.38.06.51.31.51h1.4a4.15,4.15,0,0,0,.87-.07c0,.33.06.82.1,1.09a2.84,2.84,0,0,1-1,.11H159c-1.23,0-1.52-.45-1.52-1.65v-2.3h-1c-.14,2.36-.68,3.65-3.23,4.32a3.25,3.25,0,0,0-.67-1c2.14-.51,2.53-1.45,2.64-3.32h-1.51Z" style="fill:#768e91"/><path d="M168.92,412.53l-1.28,1.09a27.23,27.23,0,0,0-3.28-3.33l1.23-1.06A28.07,28.07,0,0,1,168.92,412.53Z" style="fill:#768e91"/><path d="M185.34,416.46v1.16H172.46V405h12.6v1.17H173.83v10.34ZM178,416v-5.57a8.82,8.82,0,0,1-.83,1,9.13,9.13,0,0,0-.66-.88l-.6.72a8.19,8.19,0,0,0-2-1.4l.72-.82a9,9,0,0,1,2,1.17,10.74,10.74,0,0,0,2.37-4l1.14.33a13.4,13.4,0,0,1-.61,1.47h2a12.71,12.71,0,0,0-.57-1.24l1.23-.35a8.59,8.59,0,0,1,.77,1.59h2v1.1h-2.44v1h2v1h-2v1h2v1h-2v1.12h2.49v1.1h-5.67V416Zm-3.68-1a32,32,0,0,0,2-3.24l.81.85c-.54,1-1.22,2.27-1.85,3.27Zm2.25-6.48a8.44,8.44,0,0,0-2-1.39l.75-.8a8.58,8.58,0,0,1,2,1.29Zm4.58.6h-1.92v1h1.92Zm0,2h-1.92v1h1.92Zm0,2h-1.92v1.12h1.92Z" style="fill:#768e91"/><path d="M201,416.82v1.05H187.79v-1.05h3.83a7.85,7.85,0,0,0-.68-1.36l.27-.07h-1.58v-2.83h9.69v2.83h-1.54l.25.07c-.28.49-.57,1-.84,1.36Zm-.17-4.88H188v-1h12.78Zm-.63-1.62H188.6v-5.53h1.2v4.56h1.51v-.66h-1.14V408h1.14v-.58h-1v-.71h1v-.58h-1.08v-.71h1.08v-.76h.87v.76h1.11v.71h-1.11v.58h1v.71h-1V408h1.19v.71h-1.19v.66h1.57v-5H195v5h1.54v-.66h-1.17V408h1.17v-.58h-1v-.71h1v-.58h-1.11v-.71h1.11v-.76h.88v.76h1.1v.71h-1.1v.58h1v.71h-1V408h1.18v.71h-1.18v.66h1.54v-4.56h1.24Zm-9.22,4.2h7v-1.1h-7Zm1.39.87a6.31,6.31,0,0,1,.65,1.35l-.24.08H196l-.15-.05a9.94,9.94,0,0,0,.76-1.38Z" style="fill:#768e91"/><path d="M209,415.27l.13,1.17c-1.91.47-3.93,1-5.46,1.34l-.35-1.36,2.4-.46v-4h-2.18v-1.22h2.18v-1.41h-1.39v-.67c-.21.18-.42.35-.62.49a11.53,11.53,0,0,0-.6-1.33,10.47,10.47,0,0,0,3.19-3.45l1.16.43c-.09.15-.18.33-.29.5a18.68,18.68,0,0,1,2.33,2.05l-.84,1c-.53-.57-1.37-1.36-2.15-2a16,16,0,0,1-1.62,1.85h3.49v1.18H207v1.41h2V412h-2v3.72Zm-4.21-2.64a15.28,15.28,0,0,1,.64,2.69l-1,.28a15.77,15.77,0,0,0-.59-2.74Zm2.4,2.41a23.32,23.32,0,0,0,.65-2.62l1,.3c-.28.87-.59,1.92-.87,2.6Zm9.67-2a21.94,21.94,0,0,1-2.19,1.57,6.42,6.42,0,0,0,2.42,2.25,4.6,4.6,0,0,0-1,1.18c-2-1.18-3.23-3.5-3.93-6.3h-1.05v4.53l2.25-.61a7.64,7.64,0,0,0,.12,1.22c-3.05.94-3.54,1.13-3.84,1.37a4.64,4.64,0,0,0-.48-1.2.92.92,0,0,0,.6-.92v-11h6.54v6.64h-2.93a16,16,0,0,0,.69,1.84A14.64,14.64,0,0,0,216,412Zm-5.71-6.74v1.53H215v-1.53Zm0,4.23H215v-1.56h-3.84Z" style="fill:#768e91"/><path d="M224.24,408.1a19.91,19.91,0,0,1-1.64,2.3v7.81h-1.39v-6.27a18,18,0,0,1-1.49,1.35,7.41,7.41,0,0,0-1-1.18,16,16,0,0,0,4.16-4.5Zm-.57-3.15a19.82,19.82,0,0,1-4,3.8,6.74,6.74,0,0,0-.79-1.13,13.51,13.51,0,0,0,3.41-3.22Zm9,5.76h-2.16v5.78c0,.79-.18,1.2-.75,1.42a9.46,9.46,0,0,1-2.84.22,5.49,5.49,0,0,0-.45-1.39c1,0,2,0,2.24,0s.37-.07.37-.28v-5.76h-4.74v-1.33h8.33Zm-.42-4.09H225v-1.34h7.28Z" style="fill:#768e91"/><path d="M240.17,412.53l-1.28,1.09a27.23,27.23,0,0,0-3.28-3.33l1.23-1.06A28.07,28.07,0,0,1,240.17,412.53Z" style="fill:#768e91"/><path d="M75.12,432a26.09,26.09,0,0,1,3.94,4.35l-1.17.87A9.77,9.77,0,0,0,77,436c-8.25.43-9.21.46-9.88.7a13.39,13.39,0,0,0-.45-1.36,2.81,2.81,0,0,0,1.23-.86,24,24,0,0,0,3.31-4.15l1.4.6A29.83,29.83,0,0,1,69,435l7-.29c-.65-.72-1.34-1.44-2-2Zm-7.31,5.83h9.72v6.36H76.05v-.77H69.22v.8H67.81Zm1.41,1.33V442h6.83v-2.92Z" style="fill:#768e91"/><path d="M83.61,437.06a9.54,9.54,0,0,0-2.15-1.56l.77-1A9,9,0,0,1,84.42,436Zm-1.85,6.23a46.94,46.94,0,0,0,1.86-4.75l1.11.72c-.48,1.55-1.12,3.35-1.72,4.74Zm2.1-10.09a9.18,9.18,0,0,0-2.08-1.66l.81-.92a9.9,9.9,0,0,1,2.13,1.53ZM85.62,436a7.27,7.27,0,0,1-.63,2,4.1,4.1,0,0,0-.65-.44,5.1,5.1,0,0,0,.54-1.76Zm1.93-.6a3,3,0,0,0-.15-.45,11.61,11.61,0,0,0-2.55.43,3.93,3.93,0,0,0-.3-.64,1.37,1.37,0,0,0,.71-.5,9.18,9.18,0,0,0,.84-1,5.59,5.59,0,0,0-1.29.2,2.58,2.58,0,0,0-.3-.63.87.87,0,0,0,.49-.39,7.71,7.71,0,0,0,.89-1.88l.82.29a8.56,8.56,0,0,1-1,1.71l.87,0a7.58,7.58,0,0,0,.38-.67l.79.33A13.44,13.44,0,0,1,86,434.43l1.09-.13c-.07-.15-.16-.3-.24-.44l.63-.22a6.39,6.39,0,0,1,.69,1.51Zm7.11,5.67a2.89,2.89,0,0,1-.09.52,3.63,3.63,0,0,1-.94,2.2,1.93,1.93,0,0,1-1.25.35c-.45,0-1.36,0-2.29-.05a2.39,2.39,0,0,0-.38-1.06c.92.09,1.89.1,2.27.1a1.11,1.11,0,0,0,.64-.1,1.92,1.92,0,0,0,.54-1.07H85.44a22.41,22.41,0,0,0,.66-2.37h6.57V439H85.6v-.84H94v2.33H87.19l-.18.63Zm-8.49-3.3a7.27,7.27,0,0,0-.3-1.8l.66-.17a7.69,7.69,0,0,1,.35,1.73Zm1.31-.38a7.43,7.43,0,0,0-.47-1.64l.6-.21a6.28,6.28,0,0,1,.5,1.57Zm4.08-4.75H88v-.78H89.5a7.63,7.63,0,0,0-.52-1.14l.91-.21a5.42,5.42,0,0,1,.6,1.17l-.69.18h1.76Zm-3.17,2.79h2.84v2.2H88.39Zm2.82-1.61H88.42v-.7h2.79Zm-2.79.41h2.79v.7H88.42Zm.84,2.71h1.07v-.82H89.26Zm3.33-1a7.62,7.62,0,0,1-.63,2,5.19,5.19,0,0,0-.64-.45,5.66,5.66,0,0,0,.54-1.76Zm2-.51-.18-.51a15.47,15.47,0,0,0-2.57.43c0-.12-.19-.46-.28-.64a1.36,1.36,0,0,0,.7-.51,10.34,10.34,0,0,0,.83-1,5.08,5.08,0,0,0-1.29.21,3.26,3.26,0,0,0-.29-.64c.17,0,.32-.17.48-.39a7.24,7.24,0,0,0,.9-1.86l.81.28a8.57,8.57,0,0,1-1,1.7l.86-.05c.12-.22.25-.45.36-.67l.79.34a13.39,13.39,0,0,1-1.72,2.3l1.09-.14c-.07-.13-.16-.3-.24-.43l.62-.23a7.65,7.65,0,0,1,.75,1.58Zm-1.43,2.46a8.34,8.34,0,0,0-.31-1.94l.66-.16a8.36,8.36,0,0,1,.34,1.87Zm1.44-2.37a7,7,0,0,1,.6,1.86l-.64.28a7.87,7.87,0,0,0-.57-1.92Z" style="fill:#768e91"/><path d="M108.49,435.84a11.65,11.65,0,0,1-3.12,5,13.81,13.81,0,0,0,5.55,1.9,6.54,6.54,0,0,0-.9,1.36,13.56,13.56,0,0,1-5.88-2.3,16.67,16.67,0,0,1-6,2.38,9.45,9.45,0,0,0-.81-1.39,16,16,0,0,0,5.61-2,12.51,12.51,0,0,1-2.94-5l1.33-.36a9.74,9.74,0,0,0,2.81,4.42,9.37,9.37,0,0,0,2.77-4.51Zm-7.57-2.53H97.66V432h3.26v-1.55h1.38V432h1.6v1.35h-1.6v1.81h-1.38Zm5.2,0h-1.63v-1.35h1.63v-1.53h1.4v1.53h3.21v1.35h-3.21v1.83h-1.4Z" style="fill:#768e91"/><path d="M120.46,440.58H113v-1.21h1.36v-5.85h-1.17V432.3h1.17v-1.72h1.26v1.72h2.43v-1.72h1.29v1.72h1v1.22h-1v5.85h1.08Zm-4.12.6a9.5,9.5,0,0,1-2.09,2.88,7.2,7.2,0,0,0-1.11-.81,7,7,0,0,0,1.88-2.44Zm-.68-7.66v1.15h2.43v-1.15Zm0,3.45h2.43v-1.2h-2.43Zm0,2.4h2.43v-1.31h-2.43Zm2.55,1.46a11.42,11.42,0,0,1,1.35,1.9l-1.17.6a12.28,12.28,0,0,0-1.29-2Zm8.6-4.16h-1.44v7.53h-1.32v-7.53h-1.83v.58c0,2.73-.32,5.17-2.18,7.19a5.32,5.32,0,0,0-1-.89c1.65-1.83,1.88-4,1.88-6.31V432a21.37,21.37,0,0,0,4.69-1.59l1.11,1a21.5,21.5,0,0,1-4.51,1.47v2.51h4.59Z" style="fill:#768e91"/><path d="M131.16,432.72v3.51c0,2.33-.2,5.77-1.47,8a5,5,0,0,0-1.05-.86c1.12-2.05,1.23-5,1.23-7.15v-4.66h5.62c-.12-.33-.25-.66-.37-.95l1.38-.33c.19.39.39.87.55,1.28h5.34v1.15ZM142.44,442h-4.89v.89c0,.7-.18,1-.72,1.15a10.73,10.73,0,0,1-2.67.17,4.72,4.72,0,0,0-.44-1.08c.89,0,1.88,0,2.12,0s.34-.08.34-.28V442h-4.93v-.92h4.93v-.81H132v-.94h4.17v-.75c-1.24.08-2.52.13-3.69.14a3.29,3.29,0,0,0-.27-.84,56.88,56.88,0,0,0,8.06-.63l.85.77a32.57,32.57,0,0,1-3.58.48v.83h4.21v.94h-4.21v.81h4.9Zm-9.57-6.43a2.32,2.32,0,0,1-.86,2,2.37,2.37,0,0,0-.7-.57,1.63,1.63,0,0,0,.73-1.5V435h.83Zm.64,1.92v-2.87h-1.78v-1h1.78v-.67h1.08v.67h1.74v1h-1.74v2.87Zm2.33-.39c-.63,0-.74-.3-.74-.93V435h.8v1.19c0,.24,0,.31.16.31h.05a2.93,2.93,0,0,0,.49,0c0,.18,0,.39,0,.6a3.23,3.23,0,0,1-.49,0Zm2.14-1.57a2.71,2.71,0,0,1-.61,1.93,3.23,3.23,0,0,0-.71-.57,1.76,1.76,0,0,0,.51-1.39V435H138Zm.62,1.6v-2.51h-1.86v-1h1.86v-.67h1.09v.67h2.22v1h-2.22v2.51Zm2.43.06c-.69,0-.81-.3-.81-1V435h.84v1.27c0,.26,0,.33.19.33h.35a2.83,2.83,0,0,0,.57-.06c0,.21,0,.44,0,.65a3,3,0,0,1-.58,0Z" style="fill:#768e91"/><path d="M157.35,435.23l-.23-.17v7.69c0,.68-.16,1-.61,1.22a6.65,6.65,0,0,1-2.28.21,5,5,0,0,0-.42-1.15c.75,0,1.48,0,1.69,0s.3-.08.3-.29v-7.27h-3.75v8.61h-1.32v-8.61h-3.58v8.7h-1.29v-8.93a3.48,3.48,0,0,1-.38.2,8.24,8.24,0,0,0-1-.92,9.89,9.89,0,0,0,3.28-2h-2.82v-1.25H158v1.25H155.2a25,25,0,0,1,3.18,1.84Zm-7.08,4.14a10.89,10.89,0,0,1-.65,1.38,9.38,9.38,0,0,1,.86.73l-.53.73a10.24,10.24,0,0,0-.79-.73,8.4,8.4,0,0,1-1.2,1.44,6.39,6.39,0,0,0-.74-.52,8.8,8.8,0,0,0,1.25-1.44,9.83,9.83,0,0,0-1-.65l.52-.68c.29.17.6.38.9.59a8.4,8.4,0,0,0,.48-1.06Zm-.39-.83a8.54,8.54,0,0,0-.78-.66,8.14,8.14,0,0,1-1,1.23,8.63,8.63,0,0,0-.74-.49,8.27,8.27,0,0,0,1.11-1.23,9.69,9.69,0,0,0-.91-.53l.52-.64c.27.13.56.3.84.46a5.84,5.84,0,0,0,.5-1l.85.21a10.27,10.27,0,0,1-.64,1.23,7.49,7.49,0,0,1,.84.66Zm.85-4.23v-1.78h-2.49l.9.33a10.44,10.44,0,0,1-1.72,1.45Zm5.24,0c-.77-.46-1.67-.94-2.43-1.3l.63-.48h-2.12v1.78Zm-1,7.77a8.6,8.6,0,0,0-.84-.7,9.51,9.51,0,0,1-1.26,1.45,6.26,6.26,0,0,0-.73-.53,6.79,6.79,0,0,0,1.29-1.42c-.35-.22-.69-.43-1-.61l.51-.69c.31.16.64.36,1,.57a6.81,6.81,0,0,0,.47-1l.87.23a8.29,8.29,0,0,1-.62,1.27c.35.26.66.5.89.71Zm-.13-3.48c-.21-.21-.5-.46-.81-.72a13.24,13.24,0,0,1-1.1,1.28,5.21,5.21,0,0,0-.73-.51,6.89,6.89,0,0,0,1.15-1.25c-.33-.22-.67-.43-1-.6l.53-.63c.3.15.61.33.93.53a9.55,9.55,0,0,0,.48-1l.84.19a9.5,9.5,0,0,1-.63,1.23c.34.26.66.51.88.72Z" style="fill:#768e91"/><path d="M165.25,439.59a20.63,20.63,0,0,0-1.17-2v6.56h-1.35v-6.08a14.16,14.16,0,0,1-1.92,3.49,8.79,8.79,0,0,0-.67-1.29,15,15,0,0,0,2.4-4.39h-2.21v-1.3h2.4v-2c-.64.12-1.29.21-1.89.3a4,4,0,0,0-.39-1.08,22.48,22.48,0,0,0,4.77-1.22l.8,1.14a12.78,12.78,0,0,1-1.94.57v2.3h2.1v1.3h-2.1v.21c.45.47,1.73,2,2,2.39Zm7,.74v3.84h-1.38v-3.6l-4.73.79L166,440l4.94-.83v-8.79h1.38V439l1.63-.27.21,1.3Zm-3.27-2a13.11,13.11,0,0,0-2.51-2.23l.89-.81a13.89,13.89,0,0,1,2.56,2.13Zm.37-3.94a12.33,12.33,0,0,0-2.32-2.18l.91-.79a12.22,12.22,0,0,1,2.39,2.08Z" style="fill:#768e91"/><path d="M181.09,438.14l-1.71.49v3.95c0,.71-.15,1.09-.58,1.3a5.26,5.26,0,0,1-2.13.24,5.48,5.48,0,0,0-.42-1.26c.66,0,1.29,0,1.47,0s.3-.07.3-.28V439l-1.65.45-.36-1.33,2-.48v-3h-1.85v-1.29H178v-2.94h1.36v2.93H181v1.3h-1.58v2.64l1.55-.4Zm8.09-1.83a10.89,10.89,0,0,1-2.93,5,10.68,10.68,0,0,0,3.69,1.74,5,5,0,0,0-.9,1.19,10.57,10.57,0,0,1-3.88-2,12.83,12.83,0,0,1-4.1,2,5.52,5.52,0,0,0-.75-1.26,12.19,12.19,0,0,0,3.86-1.7,12.06,12.06,0,0,1-2.33-3.88l.2-.06h-.6V436h3.09v-2.05h-3.36v-1.28h3.36v-2.25h1.38v2.25h3.46v1.28h-3.46V436H188l.24,0Zm-6,1a9.53,9.53,0,0,0,2,3.09,9.06,9.06,0,0,0,2.19-3.09Z" style="fill:#768e91"/><path d="M192.51,438.3a14.08,14.08,0,0,1,2.22-7.66l1.08.46a14.66,14.66,0,0,0,0,14.4l-1.08.48A14.09,14.09,0,0,1,192.51,438.3Z" style="fill:#768e91"/><path d="M203.8,439.85H200L199,443h-1.77l3.66-11h2l3.66,11h-1.85Zm-.42-1.37L203,437c-.38-1.21-.71-2.43-1-3.68h-.06c-.32,1.26-.66,2.47-1,3.68l-.45,1.48Z" style="fill:#768e91"/><path d="M208,441.57l1-1.2a4.27,4.27,0,0,0,2.94,1.3c1.34,0,2.09-.63,2.09-1.55s-.75-1.33-1.77-1.77l-1.53-.66a3.17,3.17,0,0,1-2.25-2.9c0-1.74,1.53-3,3.63-3a4.73,4.73,0,0,1,3.34,1.39l-.91,1.11a3.55,3.55,0,0,0-2.43-1c-1.13,0-1.86.54-1.86,1.43s.88,1.3,1.78,1.66l1.52.65a3.08,3.08,0,0,1,2.25,3c0,1.77-1.47,3.21-3.89,3.21A5.53,5.53,0,0,1,208,441.57Z" style="fill:#768e91"/><path d="M218.65,432h2l2,5.58c.26.73.48,1.48.74,2.23h.07c.26-.75.47-1.5.72-2.23l2-5.58h2v11h-1.62v-5.46c0-1,.13-2.42.22-3.42h-.06l-.88,2.55L224,441.93h-1.08l-1.94-5.26-.87-2.55H220c.08,1,.21,2.42.21,3.42V443h-1.56Z" style="fill:#768e91"/><path d="M231.85,432h1.74v9.57h4.67V443h-6.41Z" style="fill:#768e91"/><path d="M240.19,445.5a14.66,14.66,0,0,0,0-14.4l1.08-.46a14.25,14.25,0,0,1,0,15.34Z" style="fill:#768e91"/><path d="M123,482.28v.07a9.61,9.61,0,0,0,0,13.89v.08h-4.56v-14Z" style="fill:#768e91"/><path d="M128.36,486.34a17.61,17.61,0,0,1-2.64,6.57,6.78,6.78,0,0,0-1.34-.74,14.51,14.51,0,0,0,2.41-6.11Zm3.82-3.72v11.71c0,.93-.23,1.34-.82,1.58a9.59,9.59,0,0,1-3,.26,7.15,7.15,0,0,0-.56-1.46c1,0,2.11,0,2.43,0s.42-.11.42-.41V482.62Zm3.42,3.32a23.87,23.87,0,0,1,2.88,6.63l-1.51.6a25.46,25.46,0,0,0-2.72-6.72Z" style="fill:#768e91"/><path d="M153.6,494v1.36H140.66V494h1.5v-9.43h-1.38v-1.33h12.33v1.33h-9.49v1.86h8.26v5.36h-8.26V494Zm-10-6.22v2.66h6.82v-2.66Z" style="fill:#768e91"/><path d="M163.59,482.46c0,.57,0,1.35-.1,2.23.21,1.88,1.12,7.86,6.36,10.19a4,4,0,0,0-1,1.18c-3.53-1.66-5.16-5-6-7.65a12,12,0,0,1-5.74,7.72A4.2,4.2,0,0,0,156,495c6.13-3.18,6-10.17,6-12.57Z" style="fill:#768e91"/><path d="M176.63,491.54c0-.23-.11-.52-.2-.83-3.35.49-3.88.61-4.19.79-.08-.27-.29-.93-.44-1.27a3.15,3.15,0,0,0,1.17-1,16.05,16.05,0,0,0,1.19-1.5,7.28,7.28,0,0,0-2,.35c-.08-.26-.27-.87-.42-1.22.29-.06.54-.36.87-.81a19.92,19.92,0,0,0,2-3.73l1.24.52a22.14,22.14,0,0,1-2.29,3.8l1.46-.12a18.18,18.18,0,0,0,1.12-1.92l1.18.72a28.79,28.79,0,0,1-3.38,4.59l2.21-.29a11.81,11.81,0,0,0-.42-1.27l1-.32a20.17,20.17,0,0,1,1,3.11Zm-3.08.73a16.83,16.83,0,0,1-.7,3.63,8.16,8.16,0,0,0-1.11-.41,15.36,15.36,0,0,0,.66-3.43Zm1.74-.26a31.17,31.17,0,0,1,.42,3.21l-1.13.24a29.16,29.16,0,0,0-.38-3.24Zm1.63-.4a18.8,18.8,0,0,1,.75,2.46l-1.09.37a22,22,0,0,0-.69-2.52Zm8.57,3v1.27h-8.37v-1.27h1.25V483.16h6.15v11.47Zm-5.85-10.19v2.5h3.54v-2.5Zm3.54,3.75h-3.54v2.56h3.54Zm-3.54,6.44h3.54V492h-3.54Z" style="fill:#768e91"/><path d="M191.56,496.32H187v-.08a9.61,9.61,0,0,0,0-13.89v-.07h4.56Z" style="fill:#768e91"/><path d="M35.81,520.4c0,.67-.14,1.05-.56,1.26a4.72,4.72,0,0,1-2,.24,5.11,5.11,0,0,0-.42-1.25c.63,0,1.26,0,1.44,0s.27-.08.27-.27v-3.3H32a11.49,11.49,0,0,1-1.46,5.11,5.15,5.15,0,0,0-1.11-.71c1.28-2,1.38-4.85,1.38-7v-5.33h5Zm-1.31-4.57v-2.09H32.13v.73c0,.42,0,.89,0,1.36Zm-2.37-5.41v2.07H34.5v-2.07Zm10.49,10c0,.75-.14,1.17-.62,1.39a5.89,5.89,0,0,1-2.34.26,4.21,4.21,0,0,0-.42-1.36c.75,0,1.52,0,1.73,0s.32-.09.32-.31v-3.3H38.48a10.81,10.81,0,0,1-1.68,5.14,5.1,5.1,0,0,0-1.16-.74c1.52-2,1.65-5,1.65-7.27v-5.07h5.33Zm-1.33-4.58v-2.09H38.62v.49c0,.51,0,1,0,1.6Zm-2.67-5.41v2.07h2.67v-2.07Z" style="fill:#768e91"/><path d="M50,517.8c-.19-.47-.65-1.29-1-2v6.41H47.6V516a14.82,14.82,0,0,1-1.77,3.74,8.11,8.11,0,0,0-.64-1.37A15.58,15.58,0,0,0,47.27,514H45.41v-1.29H47.6v-2.13L46,510.8a4.61,4.61,0,0,0-.37-1.08,20.06,20.06,0,0,0,4.23-1.2l.78,1.14a14.46,14.46,0,0,1-1.68.54v2.46h1.81V514H48.92v.31c.4.48,1.57,2,1.83,2.4ZM59,520.61v1.24H50.46v-1.24h3.72v-1.73H51.26v-1.2h2.92v-1.54c-.84.09-1.69.15-2.47.18a3.72,3.72,0,0,0-.33-1.08,32.87,32.87,0,0,0,6-.83l.88,1.05a22.52,22.52,0,0,1-2.7.51v1.71h2.88v1.2H55.56v1.73ZM58.28,514H51.37v-4.89h6.91Zm-1.35-3.7H52.67v2.52h4.26Z" style="fill:#768e91"/><path d="M62.93,514H61.61v-3.27h5.65v-.8h-5v-1H73.7v1H68.63v.8h5.79V514H73v-2.33H68.63V515H67.26v-3.27H62.93Zm9.82,6.88c.77,0,.92-.24,1-1.64a3.53,3.53,0,0,0,1.17.46c-.18,1.79-.57,2.28-2.09,2.28H69.56c-1.85,0-2.35-.37-2.35-1.71V520H64.26v.72H62.93v-5.28H73.1V520H68.54v.27c0,.53.18.63,1.11.63ZM63,514.05c.94-.12,2.21-.31,3.55-.51l0,.83c-1.14.27-2.25.51-3.22.69Zm.82-2.22a16.71,16.71,0,0,1,2.75.74l-.38.79a19.37,19.37,0,0,0-2.77-.81Zm.4,4.58v.85h2.95v-.85ZM67.21,519v-.87H64.26V519Zm4.52-2.61H68.54v.85h3.19Zm0,2.61v-.87H68.54V519Zm.84-3.95a23.3,23.3,0,0,0-3.48-.82l.3-.8a18.23,18.23,0,0,1,3.47.72Zm0-2.56a19.54,19.54,0,0,1-2.82.78l-.47-.68a25.94,25.94,0,0,0,2.7-.87Z" style="fill:#768e91"/><path d="M90.5,516.35h-6v4.09c0,.85-.21,1.27-.83,1.48a10.16,10.16,0,0,1-3,.26,5.72,5.72,0,0,0-.6-1.44c1.14,0,2.27,0,2.59,0s.41-.09.41-.36v-4.06H77V515h6v-2.11a19,19,0,0,0,3.39-2.12h-8v-1.36H88l.31-.08,1.06.81a22.91,22.91,0,0,1-4.84,3.48V515h6Z" style="fill:#768e91"/><path d="M98,516.53l-1.27,1.09a27.29,27.29,0,0,0-3.29-3.33l1.23-1.06A26.64,26.64,0,0,1,98,516.53Z" style="fill:#768e91"/><path d="M111.72,513.86c0,.31,0,.64,0,1,.48,2.94,1.26,4.72,2.92,6.24a3.3,3.3,0,0,0-.88,1.08,9.83,9.83,0,0,1-2.51-4.2,9.65,9.65,0,0,1-2.41,4.22,4.14,4.14,0,0,0-.72-.89,10.78,10.78,0,0,1-1.35.06H103.7c-1.73,0-2.34-.62-2.34-2.47v-8.6h-.48v-1.18h7.32v1.18h-5.59V519c0,.91.25,1.23,1,1.23h3.18a7.57,7.57,0,0,0,1.41-.12c0,.17,0,.41.07.63a10,10,0,0,0,2.16-6.88v-1.07h1.26Zm-8.67,1.62h2.3v3.77h-2.3Zm4.33-.89h-3.82v-3.4h3.82Zm-3.6,3.79h.84v-2h-.84Zm2.5-6.32H104.6v1.66h1.68Zm1.86,7.21h-2.35V515.5h2.35Zm-.76-2.89h-.86v2h.86Zm2.77-4.43a11.73,11.73,0,0,1-1.27,2.93,9.28,9.28,0,0,0-1.13-.76,13.22,13.22,0,0,0,1.87-5.74l1.28.21c-.11.72-.23,1.41-.39,2.09h3.18l.21-.05.9.27a31.59,31.59,0,0,1-1.13,4.05l-1-.36a24.13,24.13,0,0,0,.69-2.64Z" style="fill:#768e91"/><path d="M124.16,516.08a10.41,10.41,0,0,0,6.31,4.55,5,5,0,0,0-.91,1.22,11.21,11.21,0,0,1-5.4-3.77v4.1h-1.38V518a12.23,12.23,0,0,1-5.3,3.91,5.71,5.71,0,0,0-.94-1.21,10.9,10.9,0,0,0,6.24-4.86v-2.12H117v-1.23h5.74v-1.23h1.38v1.23H130v1.23h-5.83Zm-4.54-5.37h-2.69v-1.23h2.69V508.4H121v1.08h2.21v1.23H121v1.08h-1.37Zm1,3.49a7,7,0,0,1-.38,1.09,13.2,13.2,0,0,1,1.62,1.73l-1,.69a10.08,10.08,0,0,0-1.1-1.35,7.52,7.52,0,0,1-1.63,1.95,8.24,8.24,0,0,0-1-.77A6.18,6.18,0,0,0,119.3,514Zm5.41-3.49h-2.21v-1.23H126V508.4h1.38v1.08h2.73v1.23h-2.73v1.09H126Zm2,3.48c-.08.37-.19.73-.29,1.08a23.44,23.44,0,0,1,2.23,2.05l-1,.83a21.67,21.67,0,0,0-1.74-1.76,6,6,0,0,1-1,1.36,8.7,8.7,0,0,0-1.23-.59,5.86,5.86,0,0,0,1.69-3.17Z" style="fill:#768e91"/><path d="M136.82,512.12c-.35.69-.77,1.38-1.2,2v8h-1.31V516a13.39,13.39,0,0,1-1.31,1.5,12,12,0,0,0-.8-1.27,16.91,16.91,0,0,0,3.36-4.56Zm-.26-3.17a24.39,24.39,0,0,1-3.6,3.92,7.19,7.19,0,0,0-.66-1.14,16.2,16.2,0,0,0,3-3.3ZM136,521a9.22,9.22,0,0,0,1.26-2.77l1,.42a9.92,9.92,0,0,1-1.26,2.95Zm10.18-3.63h-4.81a18,18,0,0,1,1,1.79l-1.08.42a15.51,15.51,0,0,0-1-1.87l1-.34h-4.63v-1.12h9.55Zm-5.77-5.79c.06-.28.1-.6.15-.93h-3.77v-1.12h3.89c0-.42.08-.84.09-1.19l1.47.05-.17,1.14h4v1.12h-4.22c0,.35-.1.65-.14.93h3.85v3.83h-8.21v-3.83Zm-.63,1h-1.29v1.75h1.29Zm2.59,8.25c.45,0,.53-.17.59-1.34A3.4,3.4,0,0,0,144,520c-.13,1.59-.48,2-1.54,2H140.4c-1.36,0-1.69-.35-1.69-1.46v-2.07h1.21v2.06c0,.34.11.39.63.39Zm-.27-8.25h-1.33v1.75h1.33Zm1,1.75h1.37v-1.75H143Zm1.62,3.74a13,13,0,0,1,1.56,2.83l-1.11.49a11.74,11.74,0,0,0-1.48-2.87Z" style="fill:#768e91"/><path d="M161.25,509.07v13.15h-1.38v-.65h-9.81v.65h-1.31V509.07Zm-1.38,11.23v-10h-9.81v10Zm-1.11-6.4a11.39,11.39,0,0,1-1.6,3.56c.26.64.58,1,1,1.12.18.06.32-.55.41-1.48a4.75,4.75,0,0,0,.88.65c-.21,1.71-.84,2.3-1.71,2a2.37,2.37,0,0,1-1.36-1.25,9.2,9.2,0,0,1-1.79,1.5,6,6,0,0,0-.77-.85,8.3,8.3,0,0,0,1.15-.82l-4.19.74-.15-1c1.1-.15,2.73-.4,4.36-.66l0,.93a7.26,7.26,0,0,0,.9-.94,21.17,21.17,0,0,1-.73-4.19h-4.4v-1h4.31l-.09-1.44h1.15c0,.48,0,1,.08,1.44h2.11a5.38,5.38,0,0,0-1.48-1l.64-.64a6.12,6.12,0,0,1,1.53,1l-.66.69h.92v1h-3a25.78,25.78,0,0,0,.43,2.94,9.59,9.59,0,0,0,.93-2.38Zm-4.22,0v2.87h-3.32v-2.87Zm-1,.79h-1.41V516h1.41Z" style="fill:#768e91"/><path d="M168.69,509.45c-.4,1.24-.9,2.73-1.33,3.93a5,5,0,0,1,1.17,3.16,2.24,2.24,0,0,1-.6,1.83,1.81,1.81,0,0,1-.78.29,4.85,4.85,0,0,1-.94,0,3.27,3.27,0,0,0-.3-1.15c.28,0,.52,0,.73,0a.75.75,0,0,0,.42-.13,1.35,1.35,0,0,0,.28-1,4.46,4.46,0,0,0-1.15-2.9c.36-1,.72-2.25,1-3.24h-1.55v11.86h-1.2V509h3.21l.18,0Zm1.74,4a8.67,8.67,0,0,0,.53-.81,14.3,14.3,0,0,0-1.19-1.05,8.8,8.8,0,0,1-1,1.15,5.22,5.22,0,0,0-.87-.7,8,8,0,0,0,2.3-3.57l1.08.24c-.11.3-.22.58-.34.87h1.36l.19-.05.72.26-.07.31.73-.18v-.67h2.6l.24-.06.78.45a11.72,11.72,0,0,1-1.91,3.43,6.52,6.52,0,0,0,2.19,2.1,3.45,3.45,0,0,0-.81,1,7.45,7.45,0,0,1-1.74-1.59v.88h-4.48v-.64a8.62,8.62,0,0,1-1.56,1.33,3.87,3.87,0,0,0-.72-.85,6.88,6.88,0,0,0,1.85-1.64c-.7.12-1.29.23-1.92.32l-.16-.89,2.19-.24Zm.93,5.42a18.28,18.28,0,0,1-2.05,2.74,10.63,10.63,0,0,0-1.11-.73,11.8,11.8,0,0,0,1.9-2.42Zm2.31-1.06v4.38h-1.32v-4.38h-3.06v-1.14h7.43v1.14Zm-3.24-7.29c-.05.11-.12.21-.18.32.39.27.81.63,1.17.93a12.39,12.39,0,0,0,.47-1.25Zm4.59,3.81a12.73,12.73,0,0,1-1.93-4.08,11.51,11.51,0,0,1-2,4.08Zm-.82-4.11A12.77,12.77,0,0,0,175,512a11.47,11.47,0,0,0,1-1.83Zm1.41,8.1c.69.76,1.65,1.84,2.1,2.47l-1.07.71a30.54,30.54,0,0,0-2-2.56Z" style="fill:#768e91"/><path d="M185,516.53l-1.27,1.09a27.29,27.29,0,0,0-3.29-3.33l1.23-1.06A26.64,26.64,0,0,1,185,516.53Z" style="fill:#768e91"/><path d="M195.86,514a10.58,10.58,0,0,0,5.74,6.83,5.73,5.73,0,0,0-1,1.31c-2.81-1.31-4.62-3.73-5.79-6.91a10.42,10.42,0,0,1-5.79,6.91,4.88,4.88,0,0,0-1.07-1.17,9.32,9.32,0,0,0,5.63-7h-5.33v-1.44h5.58a36.42,36.42,0,0,0,.18-4.14h1.52a39.26,39.26,0,0,1-.21,4.14h6V514Z" style="fill:#768e91"/><path d="M215.12,517.74a7.86,7.86,0,0,1-2.79,2.43,29.94,29.94,0,0,0,4.93.72,6.07,6.07,0,0,0-.78,1.29,24.48,24.48,0,0,1-5.95-1.2,27.25,27.25,0,0,1-6,1.26,3.91,3.91,0,0,0-.7-1.17,28.32,28.32,0,0,0,5-.79,11.35,11.35,0,0,1-2-1.24,17,17,0,0,1-1.85.94,8.56,8.56,0,0,0-1-.94,15.37,15.37,0,0,0,1.88-.8,8.3,8.3,0,0,1-1-1.17l1.09-.47a7.09,7.09,0,0,0,.95,1,8.14,8.14,0,0,0,1.63-1.35c-.62-.15-.81-.49-.81-1.26v-1.27h1.29V515c0,.31.1.36.68.36h1.92c.42,0,.5-.11.56-.86a3.65,3.65,0,0,0,1.08.39c-.12,1.17-.47,1.47-1.5,1.47H210l.15.06a5.84,5.84,0,0,1-.72.78H214l.24,0Zm-9.58-3.22h-1.33v-2.66h2.6a5.92,5.92,0,0,0-.78-1.29l.78-.31-1.88.06a3.89,3.89,0,0,0-.28-1.05,72.69,72.69,0,0,0,10.47-.87l.93,1a50.09,50.09,0,0,1-5.61.7,4.88,4.88,0,0,1,.75,1.47l-.92.33h2.57a17.35,17.35,0,0,0,1.26-2.14l1.35.48c-.39.57-.83,1.17-1.22,1.66h2.57v2.81h-1.38V513h-5a8.58,8.58,0,0,1,1.52.91l-.72.81a10.53,10.53,0,0,0-2.17-1.3l.41-.42h-4Zm-.74,1.26a4.29,4.29,0,0,0,1.58-2.13l1.06.45a4.77,4.77,0,0,1-1.65,2.43Zm5.32-5.7c-.94.07-1.91.12-2.86.16a4.47,4.47,0,0,1,.82,1.37l-.6.25H210a5.76,5.76,0,0,0-.7-1.47ZM208,518.36a11.32,11.32,0,0,0,2.68,1.3,7.84,7.84,0,0,0,2.31-1.41h-4.85Zm6-4.85a12.59,12.59,0,0,1,2.35,2.31l-1,.75a11.8,11.8,0,0,0-2.3-2.37Z" style="fill:#768e91"/><path d="M232.43,511.89a12.85,12.85,0,0,1-2.27,3.78c.42,3,1.05,5.1,1.62,5.1.23,0,.36-.77.42-2.46a3.42,3.42,0,0,0,1.05.77c-.19,2.37-.58,3-1.65,3-1.26,0-2.1-2.18-2.61-5.28a9.94,9.94,0,0,1-1.17.88,7.1,7.1,0,0,0-.73-.75h-4.63v-3.43h4.81v3a7.85,7.85,0,0,0,1.5-1.19c-.15-1.33-.27-2.8-.33-4.3h-6.52v.82h6v1h-6v.1c0,2.55-.21,6.6-1.55,9.3a4.76,4.76,0,0,0-1.09-.74c1.24-2.55,1.36-6.14,1.36-8.56v-3h7.75c0-.49,0-1,0-1.45h1.35c0,.48,0,1,0,1.45h1.38c-.39-.31-1-.69-1.38-1l.81-.6a17.54,17.54,0,0,1,1.65,1.08l-.6.49h1.33V511h-3.16c0,1,.1,2,.21,2.92a10.21,10.21,0,0,0,1.2-2.35Zm-11.09,9.39a25.14,25.14,0,0,0,.71-3.09l.91.33c-.15.9-.42,2.27-.64,3.15Zm5.06-.23c.39,0,.48-.21.52-1.66a3.14,3.14,0,0,0,1,.44c-.13,1.75-.42,2.2-1.4,2.2h-1.74c-1.2,0-1.49-.32-1.49-1.38v-2.52h1.13v2.5c0,.37.08.42.51.42Zm-.24-6.53h-2.55V516h2.55Zm-.49,5.2c-.28-.55-.8-1.51-1.25-2.22l.9-.42a17.84,17.84,0,0,1,1.27,2.15Zm2.54-1.71a31.94,31.94,0,0,1,1.41,3l-1,.46c-.29-.78-.86-2.12-1.35-3.09Z" style="fill:#768e91"/><path d="M235.21,520.77a9.66,9.66,0,0,0,1.67-3.31l1.24.46a11.58,11.58,0,0,1-1.69,3.54Zm12.13-4.19H236.78v-7.66h10.56Zm-1.5-6.49h-7.67v5.33h7.67Zm-1.5,5.12a31,31,0,0,0-2.52-1.89,4.44,4.44,0,0,1-2.53,1.86,3.46,3.46,0,0,0-.63-.86,3.37,3.37,0,0,0,2.32-1.89h-2.1v-1h2.41c.06-.33.11-.66.14-1h1.17c0,.36-.08.69-.14,1h2.63v1H242.3a34.36,34.36,0,0,1,2.82,2Zm-.62,5.44c.71,0,.81-.25.9-1.9a4.25,4.25,0,0,0,1.28.52c-.18,2.13-.57,2.64-2.09,2.64H241c-1.79,0-2.23-.41-2.23-1.75v-2.72h1.4v2.68c0,.44.15.53,1,.53ZM242,516.74a9.93,9.93,0,0,1,1.9,2.37l-1.2.63a10.65,10.65,0,0,0-1.83-2.45Zm4.47.45a12,12,0,0,1,2.23,3.39l-1.29.63a13.07,13.07,0,0,0-2.13-3.47Z" style="fill:#768e91"/><path d="M255.83,517.59a20.63,20.63,0,0,0-1.17-2v6.56h-1.35v-6.08a14.5,14.5,0,0,1-1.92,3.49,10,10,0,0,0-.68-1.29,14.78,14.78,0,0,0,2.41-4.39h-2.21v-1.3h2.4v-2c-.64.12-1.29.21-1.89.3a4,4,0,0,0-.39-1.08,22.48,22.48,0,0,0,4.77-1.22l.79,1.14a12.64,12.64,0,0,1-1.93.57v2.3h2.1v1.3h-2.1v.21c.45.47,1.72,2,2,2.39Zm7,.74v3.84h-1.38v-3.6l-4.72.79-.21-1.33,4.93-.83v-8.79h1.38V517l1.64-.27.21,1.3Zm-3.27-2a13,13,0,0,0-2.5-2.23l.88-.81a14,14,0,0,1,2.57,2.13Zm.38-3.94a12.11,12.11,0,0,0-2.33-2.18l.92-.79a11.86,11.86,0,0,1,2.38,2.08Z" style="fill:#768e91"/><path d="M271.67,516.14l-1.71.49v4c0,.71-.15,1.09-.58,1.3a5.28,5.28,0,0,1-2.13.24,6.65,6.65,0,0,0-.42-1.26c.66,0,1.29,0,1.46,0s.3-.07.3-.28V517c-.58.17-1.12.31-1.64.45l-.37-1.33,2-.48v-3h-1.84v-1.29h1.84v-2.94H270v2.93h1.58v1.3H270v2.64l1.54-.4Zm8.08-1.83a10.88,10.88,0,0,1-2.92,5,10.51,10.51,0,0,0,3.69,1.74,4.56,4.56,0,0,0-.9,1.19,10.61,10.61,0,0,1-3.89-2,12.78,12.78,0,0,1-4.09,2,5.91,5.91,0,0,0-.75-1.26,12.19,12.19,0,0,0,3.86-1.7,11.88,11.88,0,0,1-2.33-3.88l.19-.06H272V514h3.09v-2.05h-3.35v-1.28h3.35v-2.25h1.38v2.25H280v1.28h-3.47V514h2.13l.24,0Zm-6,1a9.35,9.35,0,0,0,2,3.09,9.06,9.06,0,0,0,2.19-3.09Z" style="fill:#768e91"/><rect y="193.86" width="310" height="0.75" style="fill:#566c6c"/></g></svg>