<svg xmlns="http://www.w3.org/2000/svg" viewBox="0 0 310 573"><g id="a1bb3518-8e98-4df7-a103-98deb1a8fc49" data-name="圖層 2"><rect width="310" height="573" style="fill:#fff"/><path d="M0,0H310a0,0,0,0,1,0,0V0a54,54,0,0,1-54,54H54A54,54,0,0,1,0,0V0A0,0,0,0,1,0,0Z" style="fill:#566c6c"/><path d="M83,34.3h9.36v2.25H81.27V34.81l1.93-2.19c.94-1.07,1.64-1.85,2.07-2.35a23.54,23.54,0,0,0,2.9-3.85,6.54,6.54,0,0,0,.88-3.19,4.21,4.21,0,0,0-.86-2.75,2.84,2.84,0,0,0-2.33-1,5.08,5.08,0,0,0-1.27.16l-.58,2c-.25,1.16-.75,1.73-1.5,1.73a1.39,1.39,0,0,1-1.34-.86,3.94,3.94,0,0,1,1.77-3,6.55,6.55,0,0,1,3.74-1.05,5.09,5.09,0,0,1,3.78,1.29,4.62,4.62,0,0,1,1.28,3.44,5.37,5.37,0,0,1-1.17,3.22,46.42,46.42,0,0,1-4.48,4.82l-1.47,1.46C83.9,33.44,83.37,34,83,34.3Z" style="fill:#fff"/><path d="M100.27,18.52a4.82,4.82,0,0,1,4,2.24q1.62,2.23,1.62,6.83t-1.62,7a4.78,4.78,0,0,1-4,2.29,4.86,4.86,0,0,1-4.09-2.29c-1.08-1.52-1.63-3.86-1.63-7s.55-5.34,1.65-6.83A4.89,4.89,0,0,1,100.27,18.52ZM97.2,27.59c0,5.57,1,8.35,3.07,8.35s3-2.78,3-8.35-1-8.13-3-8.13S97.2,22.17,97.2,27.59Z" style="fill:#fff"/><path d="M110.07,34.3h9.35v2.25H108.31V34.81l1.94-2.19,2.07-2.35a23.39,23.39,0,0,0,2.89-3.85,6.43,6.43,0,0,0,.88-3.19,4.2,4.2,0,0,0-.85-2.75,2.84,2.84,0,0,0-2.33-1,5,5,0,0,0-1.27.16l-.59,2c-.25,1.16-.75,1.73-1.5,1.73a1.39,1.39,0,0,1-1.33-.86,3.94,3.94,0,0,1,1.77-3,6.52,6.52,0,0,1,3.74-1.05,5.09,5.09,0,0,1,3.78,1.29,4.66,4.66,0,0,1,1.28,3.44,5.37,5.37,0,0,1-1.17,3.22,47.6,47.6,0,0,1-4.48,4.82l-1.48,1.46C111,33.44,110.41,34,110.07,34.3Z" style="fill:#fff"/><path d="M128.87,35.3l3.58.47v.78h-9.93v-.78l3.7-.47c0-1.9,0-3.35,0-4.33V20.59l-3.38.3V20l5.67-1.39.33.26-.07,3.82V31C128.82,31.92,128.84,33.37,128.87,35.3Z" style="fill:#fff"/><path d="M141.34,17.4l2.32,1.8a1.55,1.55,0,0,1-1,.49V34.58q0,.16-.66.42a3.15,3.15,0,0,1-1.17.26h-.35V33.59h-2.65v2.09c0,.06-.07.15-.21.26a2,2,0,0,1-.66.3,2.87,2.87,0,0,1-.93.14h-.33V17.66l2.43,1h2.11Zm-.87,1.92h-2.65v6.35h2.65Zm-2.65,13.57h2.65V26.37h-2.65Zm5.06-8.55h5.49V20.82h-4.62l-.19-.68h4.81v-3.7l3.09.28c-.05.37-.34.6-.87.68v2.74H153l1.27-1.69a24.84,24.84,0,0,1,2.34,2c-.06.25-.27.38-.63.38h-5.35v3.52h3L155,22.58c1,.81,1.81,1.49,2.42,2-.07.25-.28.37-.64.37H143.07ZM154.2,28.2l1.18-1.57c.89.75,1.6,1.38,2.13,1.88,0,.25-.26.37-.63.37h-3.36v6.87a2.94,2.94,0,0,1-.59,2,4.34,4.34,0,0,1-2.59.82,2.38,2.38,0,0,0-.57-1.53,4.3,4.3,0,0,0-2.18-.79v-.36c1.77.13,2.83.19,3.19.19s.54-.16.54-.47V28.88h-8.18L143,28.2h8.37V25.44l3,.28c0,.31-.28.51-.78.61V28.2Zm-9.68,1.64.26-.14c2.06.58,3.34,1.46,3.82,2.63a1.49,1.49,0,0,1-.21,1.71,1.16,1.16,0,0,1-1.55.14,2,2,0,0,1-.28-.19A8.22,8.22,0,0,0,144.52,29.84Z" style="fill:#fff"/><path d="M164.77,24.22v1.45c1.8.66,2.88,1.52,3.24,2.6a1.3,1.3,0,0,1-.3,1.53,1,1,0,0,1-1.41-.07.12.12,0,0,0-.07-.07,8,8,0,0,0-1.46-3.36V37.88c0,.06-.07.15-.22.25a3.36,3.36,0,0,1-1.6.46h-.38V29.26a18.85,18.85,0,0,1-3.68,4.36l-.3-.28a23.92,23.92,0,0,0,3.68-9.12h-3.22l-.18-.7h3.7V19.67c-1.37.24-2.6.41-3.68.52l-.09-.33a30.91,30.91,0,0,0,3.82-1.67,22.13,22.13,0,0,0,3.14-1.87l2.65,2.18a1.43,1.43,0,0,1-1.39.07q-1.34.42-2.25.63v4.32h.54l1.15-1.58c.84.72,1.53,1.35,2.06,1.88a.6.6,0,0,1-.65.4Zm15.94,8.6h-5.48v4.29h2.25l1.33-1.71q1.49,1.17,2.37,2c-.05.25-.25.38-.61.38H167.35l-.19-.68H173V32.82h-5.72l-.16-.68H173v-3.3c-1.67.2-3.25.33-4.73.39l-.1-.37a48,48,0,0,0,5.13-1.49,36.58,36.58,0,0,0,4.34-1.75l2.49,2.32c-.3.24-.78.23-1.46,0-.92.2-2.05.41-3.39.61v3.61h2.48L179,30.48a27.64,27.64,0,0,1,2.34,2C181.26,32.69,181.05,32.82,180.71,32.82Zm-9.66-8.27v.7c0,.12-.2.27-.6.43a3.17,3.17,0,0,1-1.22.25h-.31V17.21l2.25.94H177l1.11-1.2,2.29,1.76a1.5,1.5,0,0,1-1,.49v5.7c0,.09-.24.23-.67.41a3,3,0,0,1-1.16.27h-.37v-1Zm6.17-5.72h-6.17v5h6.17Z" style="fill:#fff"/><path d="M192.45,27.15h-3.68a20.19,20.19,0,0,1-.25,2.81q3,1,3.84,2.84a1.59,1.59,0,0,1-.12,1.82,1,1,0,0,1-1.47.12l-.17-.12a7.89,7.89,0,0,0-2.2-3.93,11.49,11.49,0,0,1-5.28,7.9l-.28-.26a11.66,11.66,0,0,0,2.86-4.83,22.47,22.47,0,0,0,.89-6.35h-3.47l-.18-.71h3.65V21.76h-3l-.21-.66h3.21V16.39l3,.3c0,.38-.33.61-.84.68V21.1h.61l1.12-1.66c.89.78,1.59,1.43,2.09,1.94-.05.25-.26.38-.64.38H188.8v4.68h.93l1.18-1.75c.92.81,1.64,1.5,2.18,2.06A.58.58,0,0,1,192.45,27.15Zm12.26,5.76.07,3a1,1,0,0,1,.51.36,1.23,1.23,0,0,1,.1.55,1.13,1.13,0,0,1-.7,1.06,6.12,6.12,0,0,1-2.46.35h-1.36a2.13,2.13,0,0,1-1.53-.39,2.28,2.28,0,0,1-.35-1.48V30.43h-1.33a9.14,9.14,0,0,1-2.1,5.3,10.93,10.93,0,0,1-5.47,2.88l-.1-.33a9.86,9.86,0,0,0,3.85-2.82,8.43,8.43,0,0,0,1.52-4.09,2.92,2.92,0,0,1-1.59.37h-.4V17.14l2.46.94h5.48l1.1-1.31,2.25,1.73a1.69,1.69,0,0,1-1,.44V30.73c0,.05-.08.12-.23.21a2.55,2.55,0,0,1-.7.27,3.54,3.54,0,0,1-1,.13h-.39v-.91H201v5.32a.39.39,0,0,0,.08.28s.18.07.39.07h1.8a.49.49,0,0,0,.4-.3,27.4,27.4,0,0,0,.73-2.89Zm-3.3-14.15h-5.89V21.9h5.89Zm-5.89,7h5.89V22.6h-5.89Zm0,3.94h5.89V26.49h-5.89Z" style="fill:#fff"/><path d="M219.27,20.42l.89-1.22a20.31,20.31,0,0,1,1.64,1.53c-.05.26-.25.39-.59.39H219v2.21c0,.09-.23.22-.68.4,1.16.92,1.8,1.44,1.92,1.57-.06.25-.26.37-.61.37h-5.15v1.52h3.07l1.15-1.4c.86.65,1.55,1.23,2.08,1.71-.06.25-.27.37-.63.37H207.05l-.18-.68h5.53V25.67h-4.67l-.21-.7h4.88v-1.5h-4.22l-.21-.7h4.43V21.12H207l-.19-.7h5.56V18.76h-4.08l-.21-.68h4.29V16.34l2.81.26a.83.83,0,0,1-.77.63v.85h2.36l1-1,2.06,1.52a1.54,1.54,0,0,1-.87.4v1.43ZM208,38.61,206.89,36q3.54,0,13.85-.61l0,.38q-3.87,1-12.07,2.41A1,1,0,0,1,208,38.61ZM217.34,35H217v-.56H210.2v.3c0,.05-.07.12-.19.2a2.17,2.17,0,0,1-.6.26,2.8,2.8,0,0,1-.88.13h-.3v-7.1l2.27.91h6.28l1-1.1,2.13,1.64a1.61,1.61,0,0,1-.91.47v4.31c0,.1-.22.21-.61.34A3.12,3.12,0,0,1,217.34,35Zm-4.75-5.18H210.2v1.6h2.39ZM210.2,32v1.67h2.39V32Zm4.24-13.26v1.66H217V18.76Zm2.58,4V21.12h-2.58v1.65Zm.25,2.2,1-1.22a3.71,3.71,0,0,1-1,.19H217v-.47h-2.58V25Zm-.25,4.8h-2.54v1.6H217Zm-2.54,3.92H217V32h-2.54Zm9.43-14.3V32.61c0,.11-.19.24-.55.41a2.78,2.78,0,0,1-1.09.25h-.4V18.45l2.88.28A.9.9,0,0,1,223.91,19.39ZM226,16.72l3,.3q-.08.57-.87.66V35.77a2.9,2.9,0,0,1-.58,2,3.94,3.94,0,0,1-2.45.82,2.5,2.5,0,0,0-.53-1.53,3.88,3.88,0,0,0-2.14-.79v-.38q2.51.21,3,.21c.37,0,.56-.16.56-.49Z" style="fill:#fff"/></g><g id="a071e4b1-f9e3-4dd8-b3c0-8232c2075fb4" data-name="圖層 1"><rect x="-0.04" y="172.86" width="310.05" height="0.75" style="fill:#566c6c"/><rect x="-0.04" y="252.53" width="310.05" height="0.75" style="fill:#566c6c"/><rect x="-0.04" y="332.19" width="310.05" height="0.75" style="fill:#566c6c"/><rect x="-0.04" y="411.86" width="310.05" height="0.75" style="fill:#566c6c"/><rect x="-0.04" y="491.53" width="310.05" height="0.75" style="fill:#566c6c"/><path d="M46,125.76l2.27.53c-.06.17-.29.28-.7.32a8.83,8.83,0,0,0,2.74,1.64,20.76,20.76,0,0,0,3.66,1.13v.24a1.48,1.48,0,0,0-.76.5,1.68,1.68,0,0,0-.38.84,14.27,14.27,0,0,1-1.64-.75l1.12.85a1,1,0,0,1-.44.19v3c0,.06-.14.14-.4.24a2,2,0,0,1-.69.15h-.23v-.48H43.17v.18c0,.08-.07.16-.21.25l1.45.58h4.81l.66-.68,1.38,1a.78.78,0,0,1-.46.24v3.74c0,.07-.16.16-.44.28a2.16,2.16,0,0,1-.78.17h-.24v-.73h-5v.33c0,.07-.13.17-.4.29a2.24,2.24,0,0,1-.83.17H42.9v-5.36a1.57,1.57,0,0,1-.8.21h-.22v-4.24c-.75.33-1.39.58-1.93.76l-.09-.21a17.08,17.08,0,0,0,3.73-2.51A8.83,8.83,0,0,0,46,125.76Zm4.45,5,.59-.6a9.33,9.33,0,0,1-3.71-3.35,11.23,11.23,0,0,1-2,1.86,19.29,19.29,0,0,1-2.83,1.7l1,.39Zm-7.24.43v2.54h3v-2.54Zm.58.27.16-.11c.9.36,1.41.81,1.54,1.35a.64.64,0,0,1-.26.76.58.58,0,0,1-.78-.13A3.3,3.3,0,0,0,43.75,131.42Zm5.59,4.15h-5v1.37h5Zm-5,3.16h5v-1.35h-5Zm3.12-9.3.7-.83c.51.39.93.74,1.25,1q-.06.24-.39.24H44.58l-.12-.44Zm1,4.26h2.09v-2.54h-3v2.54H48a20.19,20.19,0,0,0,.8-2.38l1.6.54c-.07.21-.26.31-.58.28A13.44,13.44,0,0,1,48.42,133.69Z" style="fill:#566c6c"/><path d="M56.33,140l-.09-.19A12.67,12.67,0,0,0,59,138.53,9.62,9.62,0,0,0,61,137l2,.91c-.1.18-.37.25-.8.22A14.64,14.64,0,0,1,56.33,140Zm3.19-3.26v.44c0,.08-.14.18-.41.29a2.15,2.15,0,0,1-.82.17h-.22V130l1.55.65h7.2l.72-.8,1.54,1.19a1.23,1.23,0,0,1-.64.28v5.52c0,.06-.16.14-.46.25a2.21,2.21,0,0,1-.77.16H67v-.6Zm.55-7.23v.26s-.06.1-.19.17a2.28,2.28,0,0,1-.48.19,1.92,1.92,0,0,1-.56.09h-.19v-4.1l1.51.63h6.06l.69-.76,1.52,1.13a1,1,0,0,1-.64.31v2.21s-.16.12-.45.21a2.51,2.51,0,0,1-.75.13h-.23v-.47Zm6.9,1.66H59.52v1.37H67Zm0,3.24v-1.43H59.52v1.43Zm-7.45,1.88H67V134.8H59.52Zm6.84-9.11H60.07V129h6.29Zm-2.13,10.42.09-.21c2.25,0,3.85.37,4.79,1.14.47.38.65.74.55,1.1s-.35.43-.77.4h0a14.08,14.08,0,0,0-2.16-1.34A16.8,16.8,0,0,0,64.23,137.55Z" style="fill:#566c6c"/><path d="M72.55,140l-.19-.17a9.55,9.55,0,0,0,2.28-4l1.86.78c-.09.19-.3.27-.62.24A7.83,7.83,0,0,1,72.55,140Zm11.55-.05a1.66,1.66,0,0,0-.37-1.07,2.29,2.29,0,0,0-1.19-.41v-.24q1.44.09,1.74.09c.23,0,.34-.1.34-.31v-3.83H82.13a7.25,7.25,0,0,1-3.27,5.76l-.19-.15a8,8,0,0,0,2-4.28l-.22,0h-8l-.12-.43h1.55v-6.35H72.75l-.12-.43h1.29V126l1.84.19q0,.32-.51.39v1.69h2.27V126l1.92.19a.57.57,0,0,1-.53.42v1.66H79l.59-.94c.47.45.83.83,1.1,1.13,0,.16-.16.24-.38.24H78.91v6.35h0l.67-1c.43.39.79.75,1.09,1.07a23.64,23.64,0,0,0,.17-3.1v-5.75l1.56.61h2l.67-.78,1.5,1.16a1.17,1.17,0,0,1-.64.32v10.54a1.86,1.86,0,0,1-.36,1.26A2.41,2.41,0,0,1,84.1,139.92Zm-6.58-11.19H75.25v1.69h2.27Zm-2.27,2.14v1.82h2.27v-1.82Zm0,2.25v2h2.27v-2Zm1.68,2.93.15-.11a3.1,3.1,0,0,1,2.31,1.5.87.87,0,0,1-.14,1,.7.7,0,0,1-.94,0,.18.18,0,0,1-.07-.05,3.76,3.76,0,0,0-.47-1.24A5.49,5.49,0,0,0,76.93,136.05Zm5.24-2.35h2.45v-3H82.21V132C82.21,132.58,82.2,133.14,82.17,133.7Zm2.45-6.35H82.21v2.89h2.41Z" style="fill:#566c6c"/><path d="M95.23,135.37l.91.28c-.07.18-.25.26-.54.25a5.61,5.61,0,0,1-1.11,1.63c.78.36,1.22.78,1.32,1.28a.55.55,0,0,1-.31.68.8.8,0,0,1-.61,0,7.24,7.24,0,0,0-1.35-1.12A8.91,8.91,0,0,1,89.07,140l-.07-.24a7.87,7.87,0,0,0,3.72-1.85c-.64-.34-1-.54-1.19-.6l-.22.37-.21.35a1.61,1.61,0,0,1-1.26-.15,19.33,19.33,0,0,0,1.1-1.9l-1.34.16a.55.55,0,0,1-.43.3l-.41-1.4,2.67,0,.24-.53q.18-.36.24-.51h-1.1v.26s0,.07-.12.12a1.19,1.19,0,0,1-.37.16,1.9,1.9,0,0,1-.54.07h-.19v-3.37l.21.09v-2h-.91l-.12-.43h1v-2.08l1.42.57h1v-1.45L94,126c0,.24-.22.38-.55.43v.84h1.13l.59-.61,1.28,1a.87.87,0,0,1-.51.23v.94h.09l.61-.79c.45.38.8.71,1.07,1q0,.24-.39.24H96v1.56c0,.06-.13.13-.38.21a1.82,1.82,0,0,1-.64.13h-.21v-.39H93.48v1h1.33l.6-.61,1.23.93a.73.73,0,0,1-.47.23V134c0,.05-.14.12-.38.21a1.77,1.77,0,0,1-.63.13H95v-.42H93l.73.15c-.07.23-.28.34-.62.33,0,.09-.13.26-.27.52l4.5-.15V135C96.39,135.2,95.7,135.31,95.23,135.37ZM90,131.25h-.21l1.17.48h1.24v-1H91V131s0,.06-.12.11a1.86,1.86,0,0,1-.36.12A2.26,2.26,0,0,1,90,131.25Zm.79.92v1.31h1.41v-1.31Zm.22-4.45v1.07h1.19v-1.07Zm1.19,1.5H91v1.08h1.19Zm.16,6.52-.32.57-.32.58a9.63,9.63,0,0,1,1.62.29,5.79,5.79,0,0,0,1-1.7l-.58.09-.72.08Zm2.36-8H93.48v1.07h1.26Zm0,2.58v-1.08H93.48v1.08Zm.21,1.87H93.48v1.31H95Zm7.75-2.52h-.6a15.21,15.21,0,0,1-1.81,6.32,8.53,8.53,0,0,0,2.91,2.76l-.06.14a1.49,1.49,0,0,0-1.23,1.08,8.44,8.44,0,0,1-2.3-2.95,10.29,10.29,0,0,1-3.68,2.94l-.12-.18a10.89,10.89,0,0,0,3.29-3.91,19.66,19.66,0,0,1-1-4.66A10.85,10.85,0,0,1,96.82,133l-.22-.11a22.25,22.25,0,0,0,1.64-7l2,.46c0,.21-.24.33-.55.34-.21.88-.46,1.72-.74,2.54h1.82l.83-1.07c.62.49,1.11.91,1.49,1.26A.37.37,0,0,1,102.7,129.65Zm-2.14,0H98.79c-.08.19-.24.53-.47,1a15.05,15.05,0,0,0,1.27,4.05A17.19,17.19,0,0,0,100.56,129.65Z" style="fill:#566c6c"/><path d="M166,120.06h-.38a9.46,9.46,0,0,1-2.82,2.88l-.2-.15a11.16,11.16,0,0,0,1.42-2.2,15.29,15.29,0,0,0,1.08-2.77l1.84.68a.55.55,0,0,1-.58.27,8.54,8.54,0,0,1-.46.86h2l.73-.95q.81.66,1.29,1.14c0,.16-.16.24-.37.24h-2.93c.75.37,1.14.81,1.16,1.34a.66.66,0,0,1-.39.7.73.73,0,0,1-.84-.2A3.08,3.08,0,0,0,166,120.06Zm8.35,6.82.75-.73,1.37,1.14a.9.9,0,0,1-.57.22c-.15,1.93-.56,3.12-1.21,3.57a3,3,0,0,1-1.61.4,1.44,1.44,0,0,0-.23-.95,2.18,2.18,0,0,0-1.13-.46v-.23l1.58.09a.8.8,0,0,0,.47-.1c.31-.25.53-1.08.67-2.51h-3.93v4.25s-.06.08-.14.14a1.74,1.74,0,0,1-.41.16,2.37,2.37,0,0,1-.61.08h-.24v-3.4a14,14,0,0,1-6.25,3.36l-.12-.2a13.58,13.58,0,0,0,3.09-1.92,11.12,11.12,0,0,0,2.27-2.47h-2.67c-.08.33-.17.68-.28,1.05a2.18,2.18,0,0,1-1.47,0c.46-1.48.85-2.94,1.16-4.37l1.53.71h2.74v-1.83h-4.88l-.14-.44h9.52l.67-.72,1.45,1.09a1,1,0,0,1-.56.28v2.51c0,.06-.16.14-.43.24a2.07,2.07,0,0,1-.75.16h-.25v-.86h-3.23v1.77Zm-8.79,0h3.56v-1.77H166l-.18.71C165.7,126.27,165.62,126.62,165.56,126.88Zm9.1-7.25.8-1c.59.46,1.08.86,1.45,1.2,0,.16-.16.24-.4.24h-3.69c.68.36,1,.78,1,1.26a.66.66,0,0,1-.45.64.7.7,0,0,1-.76-.18,3.4,3.4,0,0,0-.66-1.72h-.67a9,9,0,0,1-2.12,2l-.18-.15a12.36,12.36,0,0,0,1.84-4.09l1.91.69c-.08.19-.27.28-.59.27-.24.41-.42.69-.54.86Zm-4.14,3.22v1.83h3.23v-1.83Z" style="fill:#566c6c"/><path d="M179.18,124.19h10.9l1.13-1.55q1.28,1.08,2,1.8c0,.17-.19.25-.47.25H179.33Z" style="fill:#566c6c"/><path d="M195.52,132l-.19-.17a9.68,9.68,0,0,0,2.29-4l1.85.78c-.09.19-.3.27-.62.24A7.83,7.83,0,0,1,195.52,132Zm11.55-.05a1.66,1.66,0,0,0-.37-1.07,2.29,2.29,0,0,0-1.19-.41v-.24q1.44.09,1.74.09c.23,0,.34-.1.34-.31v-3.83H205.1a7.25,7.25,0,0,1-3.27,5.76l-.19-.15a8,8,0,0,0,2-4.28l-.22,0h-8l-.12-.43h1.55v-6.35h-1.17l-.12-.43h1.29V118l1.84.19q0,.32-.51.39v1.69h2.28V118l1.91.19a.57.57,0,0,1-.53.42v1.66H202l.59-.94c.47.45.84.83,1.1,1.13,0,.16-.16.24-.38.24h-1.38v6.35h.06l.66-1c.43.39.79.75,1.09,1.07a21.81,21.81,0,0,0,.18-3.1v-5.75l1.55.61h2l.67-.78,1.5,1.16a1.17,1.17,0,0,1-.64.32v10.54a1.91,1.91,0,0,1-.35,1.26A2.47,2.47,0,0,1,207.07,131.92Zm-6.57-11.19h-2.28v1.69h2.28Zm-2.28,2.14v1.82h2.28v-1.82Zm0,2.25v2h2.28v-2Zm1.68,2.93.15-.11a3.15,3.15,0,0,1,2.32,1.5.88.88,0,0,1-.15,1,.7.7,0,0,1-.94,0,.18.18,0,0,1-.07-.05,3.76,3.76,0,0,0-.47-1.24A5.49,5.49,0,0,0,199.9,128.05Zm5.24-2.35h2.45v-3h-2.4V124C205.19,124.58,205.17,125.14,205.14,125.7Zm2.45-6.35h-2.4v2.89h2.4Z" style="fill:#566c6c"/><path d="M155.34,142.41a6,6,0,0,1,3.11-5.28l.19.21a6.58,6.58,0,0,0,0,10.13l-.19.21A5.94,5.94,0,0,1,155.34,142.41Z" style="fill:#566c6c"/><path d="M160.55,138.4h5.09v.67l-2.91,7.59h-1.06l-.13-.11,3.42-7.09h-4.41Z" style="fill:#566c6c"/><path d="M167.18,148.64l3.31-10.77h.72l-3.3,10.77Z" style="fill:#566c6c"/><path d="M176,146.08l1.68.22v.36h-4.64v-.36l1.73-.22c0-.89,0-1.56,0-2v-4.85l-1.58.14v-.42l2.65-.65.15.12,0,1.79v3.87C176,144.5,176,145.18,176,146.08Z" style="fill:#566c6c"/><path d="M182.81,142.17a1.75,1.75,0,0,0,1.12.55c.48,0,.77-.41.86-1.22l.53.07a2,2,0,0,1-.43,1.29,1.3,1.3,0,0,1-1,.43,1.54,1.54,0,0,1-.71-.16,3.36,3.36,0,0,1-.73-.52,1.74,1.74,0,0,0-1.11-.54c-.5,0-.79.4-.87,1.21l-.54-.07a2.09,2.09,0,0,1,.43-1.29,1.31,1.31,0,0,1,1.05-.43A2.21,2.21,0,0,1,182.81,142.17Z" style="fill:#566c6c"/><path d="M187.85,146.88l-.08-.35a5.38,5.38,0,0,0,2.34-1.44,4.45,4.45,0,0,0,1-2.28,2.28,2.28,0,0,1-1.59.57,2.32,2.32,0,0,1-2.42-2.47,2.59,2.59,0,0,1,.77-1.95,2.62,2.62,0,0,1,1.91-.73,2.38,2.38,0,0,1,2,.9,3.88,3.88,0,0,1,.71,2.45,5.06,5.06,0,0,1-1.19,3.36A6,6,0,0,1,187.85,146.88Zm2.14-4.09a1.83,1.83,0,0,0,1.23-.45c0-.26,0-.51,0-.76a4.76,4.76,0,0,0-.39-2.19,1.19,1.19,0,0,0-1.06-.71,1.22,1.22,0,0,0-1,.53,2.52,2.52,0,0,0-.4,1.54,2.25,2.25,0,0,0,.44,1.51A1.49,1.49,0,0,0,190,142.79Z" style="fill:#566c6c"/><path d="M194,148.64l3.32-10.77H198l-3.3,10.77Z" style="fill:#566c6c"/><path d="M201.25,138.74l-.22.83c-.11.48-.34.71-.7.71a.54.54,0,0,1-.58-.38,1.7,1.7,0,0,1,.77-1.25,2.85,2.85,0,0,1,1.59-.42,2.62,2.62,0,0,1,1.75.54,2,2,0,0,1,.17,2.73,2.65,2.65,0,0,1-1.34.8,2.56,2.56,0,0,1,1.54.76,2.12,2.12,0,0,1,.5,1.45,2.06,2.06,0,0,1-.77,1.66,3,3,0,0,1-2,.65,2.89,2.89,0,0,1-1.67-.43,1.89,1.89,0,0,1-.75-1.33.59.59,0,0,1,.6-.41.52.52,0,0,1,.43.18,1.56,1.56,0,0,1,.27.64l.19.83a2.84,2.84,0,0,0,.66.08,1.79,1.79,0,0,0,1.36-.52,1.89,1.89,0,0,0,.49-1.38,2,2,0,0,0-.48-1.42,1.87,1.87,0,0,0-1.4-.5h-.55v-.49h.46a1.75,1.75,0,0,0,1.29-.47,1.79,1.79,0,0,0,.47-1.32,1.69,1.69,0,0,0-.39-1.19,1.41,1.41,0,0,0-1.1-.41A2.72,2.72,0,0,0,201.25,138.74Z" style="fill:#566c6c"/><path d="M209.27,138.25a2.26,2.26,0,0,1,1.88,1,5.42,5.42,0,0,1,.76,3.19,5.65,5.65,0,0,1-.76,3.28,2.23,2.23,0,0,1-1.88,1.06,2.27,2.27,0,0,1-1.91-1.06,5.73,5.73,0,0,1-.76-3.28,5.41,5.41,0,0,1,.77-3.19A2.29,2.29,0,0,1,209.27,138.25Zm-1.43,4.23c0,2.6.48,3.9,1.43,3.9s1.41-1.3,1.41-3.9-.47-3.79-1.41-3.79S207.84,140,207.84,142.48Z" style="fill:#566c6c"/><path d="M213.71,137.34l.18-.21a6,6,0,0,1,0,10.55l-.18-.21a6.6,6.6,0,0,0,0-10.13Z" style="fill:#566c6c"/><path d="M247.6,120.06h-.38a9.46,9.46,0,0,1-2.82,2.88l-.2-.15a11.16,11.16,0,0,0,1.42-2.2,15.29,15.29,0,0,0,1.08-2.77l1.84.68a.55.55,0,0,1-.58.27,8.54,8.54,0,0,1-.46.86h2.05l.73-.95q.81.66,1.29,1.14c0,.16-.16.24-.37.24h-2.93c.75.37,1.14.81,1.16,1.34a.66.66,0,0,1-.39.7.73.73,0,0,1-.84-.2A3.08,3.08,0,0,0,247.6,120.06Zm8.35,6.82.75-.73,1.37,1.14a.9.9,0,0,1-.57.22c-.15,1.93-.56,3.12-1.21,3.57a3,3,0,0,1-1.61.4,1.44,1.44,0,0,0-.23-.95,2.18,2.18,0,0,0-1.13-.46v-.23l1.58.09a.8.8,0,0,0,.47-.1c.31-.25.53-1.08.67-2.51h-3.93v4.25s-.06.08-.15.14a1.63,1.63,0,0,1-.4.16,2.37,2.37,0,0,1-.61.08h-.24v-3.4a14,14,0,0,1-6.25,3.36l-.12-.2a13.58,13.58,0,0,0,3.09-1.92,11.12,11.12,0,0,0,2.27-2.47H247c-.08.33-.17.68-.28,1.05a2.18,2.18,0,0,1-1.47,0c.46-1.48.85-2.94,1.16-4.37l1.52.71h2.75v-1.83h-4.88l-.14-.44h9.52l.67-.72,1.45,1.09a1,1,0,0,1-.56.28v2.51c0,.06-.16.14-.43.24a2.07,2.07,0,0,1-.75.16h-.25v-.86h-3.23v1.77Zm-8.79,0h3.56v-1.77h-3.13l-.18.71C247.3,126.27,247.22,126.62,247.16,126.88Zm9.1-7.25.8-1c.59.46,1.08.86,1.45,1.2,0,.16-.16.24-.4.24h-3.69c.68.36,1,.78,1,1.26a.66.66,0,0,1-.45.64.7.7,0,0,1-.76-.18,3.4,3.4,0,0,0-.66-1.72h-.67a8.8,8.8,0,0,1-2.13,2l-.17-.15a12.36,12.36,0,0,0,1.84-4.09l1.91.69c-.08.19-.27.28-.59.27-.24.41-.42.69-.54.86Zm-4.14,3.22v1.83h3.23v-1.83Z" style="fill:#566c6c"/><path d="M260.86,129.25h11l1-1.37c.79.62,1.41,1.14,1.87,1.56-.05.15-.19.23-.43.23H261Zm1.44-8.54h8.12l1-1.32c.77.62,1.37,1.13,1.83,1.53-.05.15-.19.23-.43.23H262.43Z" style="fill:#566c6c"/><path d="M277.12,132l-.19-.17a9.55,9.55,0,0,0,2.28-4l1.86.78c-.09.19-.3.27-.62.24A7.83,7.83,0,0,1,277.12,132Zm11.55-.05a1.66,1.66,0,0,0-.37-1.07,2.29,2.29,0,0,0-1.19-.41v-.24q1.44.09,1.74.09c.23,0,.34-.1.34-.31v-3.83H286.7a7.25,7.25,0,0,1-3.27,5.76l-.19-.15a8,8,0,0,0,2-4.28l-.22,0h-8l-.12-.43h1.55v-6.35h-1.17l-.12-.43h1.29V118l1.84.19q0,.32-.51.39v1.69h2.27V118l1.92.19a.57.57,0,0,1-.53.42v1.66h.07l.59-.94c.47.45.83.83,1.1,1.13,0,.16-.16.24-.38.24h-1.38v6.35h.06l.66-1c.43.39.79.75,1.09,1.07a22,22,0,0,0,.17-3.1v-5.75l1.56.61h2l.67-.78,1.5,1.16a1.17,1.17,0,0,1-.64.32v10.54a1.86,1.86,0,0,1-.36,1.26A2.41,2.41,0,0,1,288.67,131.92Zm-6.58-11.19h-2.27v1.69h2.27Zm-2.27,2.14v1.82h2.27v-1.82Zm0,2.25v2h2.27v-2Zm1.68,2.93.15-.11a3.1,3.1,0,0,1,2.31,1.5.87.87,0,0,1-.14,1,.7.7,0,0,1-.94,0,.18.18,0,0,1-.07-.05,3.76,3.76,0,0,0-.47-1.24A5.49,5.49,0,0,0,281.5,128.05Zm5.24-2.35h2.45v-3h-2.4V124C286.79,124.58,286.77,125.14,286.74,125.7Zm2.45-6.35h-2.4v2.89h2.4Z" style="fill:#566c6c"/><path d="M229.79,142.41a6,6,0,0,1,3.11-5.28l.19.21a6.58,6.58,0,0,0,0,10.13l-.19.21A5.94,5.94,0,0,1,229.79,142.41Z" style="fill:#566c6c"/><path d="M238.28,146.08l1.67.22v.36h-4.63v-.36l1.72-.22c0-.89,0-1.56,0-2v-4.85l-1.58.14v-.42l2.65-.65.15.12,0,1.79v3.87C238.26,144.5,238.26,145.18,238.28,146.08Z" style="fill:#566c6c"/><path d="M244.71,138.25a2.26,2.26,0,0,1,1.88,1,5.5,5.5,0,0,1,.75,3.19,5.74,5.74,0,0,1-.75,3.28,2.23,2.23,0,0,1-1.88,1.06,2.27,2.27,0,0,1-1.91-1.06,5.65,5.65,0,0,1-.76-3.28,5.42,5.42,0,0,1,.76-3.19A2.32,2.32,0,0,1,244.71,138.25Zm-1.43,4.23c0,2.6.47,3.9,1.43,3.9s1.41-1.3,1.41-3.9-.47-3.79-1.41-3.79S243.28,140,243.28,142.48Z" style="fill:#566c6c"/><path d="M248.77,148.64l3.32-10.77h.72l-3.3,10.77Z" style="fill:#566c6c"/><path d="M257.63,146.08l1.67.22v.36h-4.63v-.36l1.73-.22c0-.89,0-1.56,0-2v-4.85l-1.58.14v-.42l2.65-.65.15.12,0,1.79v3.87C257.61,144.5,257.62,145.18,257.63,146.08Z" style="fill:#566c6c"/><path d="M264.41,142.17a1.75,1.75,0,0,0,1.12.55c.48,0,.76-.41.86-1.22l.52.07a2,2,0,0,1-.42,1.29,1.3,1.3,0,0,1-1,.43,1.54,1.54,0,0,1-.71-.16,3.64,3.64,0,0,1-.74-.52,1.69,1.69,0,0,0-1.1-.54c-.5,0-.79.4-.87,1.21l-.54-.07a2.09,2.09,0,0,1,.43-1.29,1.31,1.31,0,0,1,1.05-.43A2.21,2.21,0,0,1,264.41,142.17Z" style="fill:#566c6c"/><path d="M272.24,146.08l1.67.22v.36h-4.64v-.36l1.73-.22c0-.89,0-1.56,0-2v-4.85l-1.57.14v-.42l2.65-.65.15.12,0,1.79v3.87C272.22,144.5,272.22,145.18,272.24,146.08Z" style="fill:#566c6c"/><path d="M276.93,145.61h4.36v1h-5.18v-.81l.9-1,1-1.1a11.08,11.08,0,0,0,1.35-1.79,3.07,3.07,0,0,0,.41-1.49,2,2,0,0,0-.4-1.29,1.35,1.35,0,0,0-1.09-.48,2.44,2.44,0,0,0-.59.07l-.27.95c-.12.54-.35.81-.7.81a.66.66,0,0,1-.63-.4,1.87,1.87,0,0,1,.83-1.39,3,3,0,0,1,1.74-.49,2.38,2.38,0,0,1,1.77.6,2.18,2.18,0,0,1,.6,1.61,2.46,2.46,0,0,1-.55,1.5,22,22,0,0,1-2.09,2.25l-.69.68Z" style="fill:#566c6c"/><path d="M282.73,148.64l3.32-10.77h.72l-3.3,10.77Z" style="fill:#566c6c"/><path d="M290,138.74l-.21.83c-.11.48-.34.71-.7.71a.54.54,0,0,1-.58-.38,1.7,1.7,0,0,1,.77-1.25,2.85,2.85,0,0,1,1.59-.42,2.62,2.62,0,0,1,1.75.54,2,2,0,0,1,.17,2.73,2.65,2.65,0,0,1-1.34.8,2.59,2.59,0,0,1,1.54.76,2.12,2.12,0,0,1,.5,1.45,2.06,2.06,0,0,1-.77,1.66,3,3,0,0,1-2,.65,2.89,2.89,0,0,1-1.67-.43,1.89,1.89,0,0,1-.76-1.33.61.61,0,0,1,.61-.41.52.52,0,0,1,.43.18,1.7,1.7,0,0,1,.27.64l.19.83a2.84,2.84,0,0,0,.66.08,1.79,1.79,0,0,0,1.36-.52,1.94,1.94,0,0,0,.49-1.38,2,2,0,0,0-.48-1.42,1.87,1.87,0,0,0-1.4-.5h-.55v-.49h.46a1.75,1.75,0,0,0,1.29-.47,1.79,1.79,0,0,0,.47-1.32,1.69,1.69,0,0,0-.39-1.19,1.41,1.41,0,0,0-1.1-.41A2.89,2.89,0,0,0,290,138.74Z" style="fill:#566c6c"/><path d="M298.74,146.08l1.68.22v.36h-4.64v-.36l1.73-.22c0-.89,0-1.56,0-2v-4.85l-1.58.14v-.42l2.65-.65.15.12,0,1.79v3.87C298.72,144.5,298.73,145.18,298.74,146.08Z" style="fill:#566c6c"/><path d="M302.46,137.34l.18-.21a6,6,0,0,1,0,10.55l-.18-.21a6.6,6.6,0,0,0,0-10.13Z" style="fill:#566c6c"/><rect x="142.33" y="94.43" width="0.75" height="477.57" style="fill:#566c6c"/><rect x="226" y="94.43" width="0.75" height="158.91" style="fill:#566c6c"/><path d="M309.29,94.58V571.25H.79V94.58h308.5m.75-.75H0V572H310V93.83Z" style="fill:#566c6c"/><path d="M42.84,213a9.81,9.81,0,0,1-3.86,6,5.4,5.4,0,0,0-1-1,7.83,7.83,0,0,0,3.26-4.12h-3v-1.19h3.51l.22,0Zm7.27-1.1a31.25,31.25,0,0,1-3.45,2.81,8.33,8.33,0,0,0,3.93,3.13,6.09,6.09,0,0,0-.89,1.12,9.5,9.5,0,0,1-4.7-4.75v4c0,.72-.16,1.09-.65,1.29a6.72,6.72,0,0,1-2.38.23,4.77,4.77,0,0,0-.45-1.26c.75,0,1.58,0,1.81,0s.31-.08.31-.31v-7H40.05V210h5v1.09a13.57,13.57,0,0,0,1.06,2.61A21.6,21.6,0,0,0,49,211Zm-3.94-1.67a23.47,23.47,0,0,0-5-1.85l.63-1.05a23.76,23.76,0,0,1,5,1.71Z" style="fill:#768e91"/><path d="M53.17,216.2a18.78,18.78,0,0,1-.66,3.48,4.82,4.82,0,0,0-.95-.32,15.69,15.69,0,0,0,.62-3.33Zm2.21-.56c0-.21-.08-.46-.14-.74a12.93,12.93,0,0,0-3.22.62,8,8,0,0,0-.35-1c.28-.09.57-.41,1-.93a14.56,14.56,0,0,0,.95-1.4,6.72,6.72,0,0,0-1.66.3,7.85,7.85,0,0,0-.35-1c.25-.06.45-.33.71-.75a16.77,16.77,0,0,0,1.56-3.41l1.06.43a20.23,20.23,0,0,1-1.81,3.5l1.15-.1c.31-.58.63-1.22.91-1.84l1,.58a26,26,0,0,1-2.74,4.32l1.66-.22c-.11-.41-.23-.83-.36-1.19l.87-.24a20,20,0,0,1,.75,2.85Zm-1,.36a26.56,26.56,0,0,1,.36,3.11l-.94.18a26,26,0,0,0-.29-3.14Zm1.19-.34a21,21,0,0,1,.7,2.47l-.85.28a20.29,20.29,0,0,0-.67-2.52Zm5.84,2.15c1,.34,2,.74,2.65,1l-.51.9c-.72-.34-1.86-.86-2.88-1.24l.4-.7h-2.2l.75.69c-1,.48-2.35,1-3.3,1.33a5.52,5.52,0,0,0-.48-.88,23.88,23.88,0,0,0,2.76-1.14h-2v-4h6.75v4Zm-2-9H56.1V208h3.34v-.67h1.24V208h3.18v.86H60.68v.59h2.7v.82H56.63v-.82h2.81Zm-3.27,1.87h7.64v2.61H56.17Zm1,1.8h1.28v-1H57.21Zm.53,2.53h4.45v-.49H57.74Zm0,1h4.45v-.5H57.74Zm0,1.07h4.45v-.54H57.74Zm2.9-4.63v-1H59.46v1Zm2.07-1H61.6v1h1.11Z" style="fill:#768e91"/><path d="M69.4,215.22l.23,1.16c-1.4.6-2.9,1.21-4.07,1.69l-.39-1.3c.46-.15,1-.35,1.62-.57v-4.46H65.28v-1.19h1.51v-3.1h1.13v3.1h1.44v1.19H67.92v4Zm8.29-2.68v1.15H69.32v-1.15h5a18.12,18.12,0,0,0,.86-2.61l1.17.32c-.28.76-.6,1.62-.89,2.29Zm-.45-2.62H69.83v-1.13H73a10.34,10.34,0,0,0-.36-1.38l1.15-.19a13.27,13.27,0,0,1,.43,1.57h3Zm-6.79,4.8h6.17v5h-1.2v-.48H71.6v.53H70.45Zm.93-2.23a8.86,8.86,0,0,0-.66-2.19l1-.31a10.64,10.64,0,0,1,.72,2.15Zm.22,3.36v2.26h3.82v-2.26Z" style="fill:#768e91"/><path d="M90.6,210.17s0,.44,0,.62c-.3,5.51-.56,7.52-1.15,8.21a1.68,1.68,0,0,1-1.26.63,17.1,17.1,0,0,1-2.16,0,3,3,0,0,0-.45-1.31c.9.09,1.73.09,2.07.09a.79.79,0,0,0,.63-.21c.46-.43.74-2.3,1-6.74H85a9.82,9.82,0,0,1-5,8.37,5.25,5.25,0,0,0-1-1,8.7,8.7,0,0,0,4.62-7.35H79.41v-1.29h4.28v-2.86H85v2.86Z" style="fill:#768e91"/><path d="M100.3,212.61v.11h3.91s0,.38,0,.56c-.16,3.87-.31,5.34-.74,5.83a1.32,1.32,0,0,1-1,.52,16.12,16.12,0,0,1-1.88,0,2.7,2.7,0,0,0-.4-1.25c.73.07,1.42.08,1.71.08a.69.69,0,0,0,.53-.17c.26-.29.42-1.47.56-4.4h-2.67a7.51,7.51,0,0,1-3.49,5.88,5,5,0,0,0-1-.87A6.93,6.93,0,0,0,99,212.59v-1.77H96.94v1H95.46v3.64l1.6-.58.23,1.18c-1.59.61-3.3,1.28-4.62,1.77l-.3-1.31c.52-.16,1.15-.39,1.86-.64V211.8H92.6v-1.2h1.63v-3.1h1.23v3.1H96.9v-1h8v1.21H100.3Zm.34-3.07a18.51,18.51,0,0,0-.62-2.08l1.2-.26c.23.64.54,1.48.67,2Z" style="fill:#768e91"/><path d="M171.36,210h-4.7v-1.32h6.44v1c-2.35,2.93-2.72,5.14-2.88,9.05h-1.6C168.79,215,169.43,212.69,171.36,210Z" style="fill:#768e91"/><path d="M185,218.05c0,.82-.22,1.21-.76,1.42a9.09,9.09,0,0,1-2.91.25,5.72,5.72,0,0,0-.54-1.33c1.06.06,2.14,0,2.47,0s.41-.11.41-.4v-2.38h-6.17a7.56,7.56,0,0,1-2.33,4.14,5,5,0,0,0-1-.93c2.12-1.82,2.32-4.48,2.32-6.62V208H185Zm-1.33-3.63v-2h-5.85a18,18,0,0,1-.12,2Zm-5.85-5.23v2h5.85v-2Z" style="fill:#768e91"/><path d="M192.56,216.31c-.25-.41-.8-1.09-1.29-1.7v5.15H190v-5a12.2,12.2,0,0,1-1.52,1.47,6.29,6.29,0,0,0-.64-1.24,12.11,12.11,0,0,0,3.49-4.23h-3.17v-1.14h2.48a13.89,13.89,0,0,0-1.13-1.81l1-.55a10.22,10.22,0,0,1,1.21,1.78l-.91.58H192l.19-.05.71.5a14.68,14.68,0,0,1-1.62,3v.12l.37.35a10.75,10.75,0,0,0,1.05-1.31l.84.69c-.46.44-.92.87-1.32,1.21.48.49.94,1,1.1,1.17Zm7.31-7.91s0,.47,0,.65c-.16,6.89-.31,9.22-.81,9.91a1.44,1.44,0,0,1-1.12.67,13.42,13.42,0,0,1-2,0,2.71,2.71,0,0,0-.38-1.21c.79.06,1.47.06,1.78.06a.53.53,0,0,0,.53-.24c.43-.48.59-2.73.72-8.66h-2.25c-.21,4.74-.85,8-3.32,10.15a6.09,6.09,0,0,0-1-1c2.35-1.8,2.89-4.9,3-9.18h-2V208.4Z" style="fill:#768e91"/><path d="M248.08,217.4h2.19v-7h-1.79v-1a6.16,6.16,0,0,0,2.18-.77h1.18v8.72h1.95v1.29h-5.71Z" style="fill:#768e91"/><path d="M255.31,213.65c0-3.47,1.26-5.16,3.23-5.16s3.24,1.7,3.24,5.16-1.28,5.22-3.24,5.22S255.31,217.13,255.31,213.65Zm5,0c0-2.87-.72-3.92-1.74-3.92s-1.74,1.05-1.74,3.92.72,4,1.74,4S260.28,216.54,260.28,213.65Z" style="fill:#768e91"/><path d="M273.64,218.05c0,.82-.22,1.21-.76,1.42a9.13,9.13,0,0,1-2.91.25,5.77,5.77,0,0,0-.55-1.33c1.06.06,2.15,0,2.48,0s.4-.11.4-.4v-2.38h-6.17a7.48,7.48,0,0,1-2.32,4.14,4.76,4.76,0,0,0-1-.93c2.12-1.82,2.33-4.48,2.33-6.62V208h8.47Zm-1.34-3.63v-2h-5.84a18,18,0,0,1-.12,2Zm-5.84-5.23v2h5.84v-2Z" style="fill:#768e91"/><path d="M281.24,216.31c-.26-.41-.8-1.09-1.29-1.7v5.15h-1.31v-5a11,11,0,0,1-1.52,1.47,5.37,5.37,0,0,0-.64-1.24,12.14,12.14,0,0,0,3.5-4.23h-3.17v-1.14h2.47a12.89,12.89,0,0,0-1.13-1.81l1-.55a11.48,11.48,0,0,1,1.21,1.78l-.91.58h1.25l.19-.05.71.5a15.18,15.18,0,0,1-1.62,3v.12l.37.35a10.63,10.63,0,0,0,1-1.31l.85.69c-.47.44-.93.87-1.32,1.21.47.49.94,1,1.1,1.17Zm7.3-7.91s0,.47,0,.65c-.17,6.89-.32,9.22-.82,9.91a1.42,1.42,0,0,1-1.11.67,13.45,13.45,0,0,1-2,0,2.71,2.71,0,0,0-.38-1.21c.79.06,1.47.06,1.78.06a.53.53,0,0,0,.53-.24c.42-.48.58-2.73.72-8.66H285c-.2,4.74-.84,8-3.31,10.15a6.17,6.17,0,0,0-1-1c2.36-1.8,2.9-4.9,3-9.18h-2V208.4Z" style="fill:#768e91"/><path d="M38.36,284a7.89,7.89,0,0,0,5.44,4.88,5.05,5.05,0,0,0-.86,1.17,8.8,8.8,0,0,1-5.45-5c-.68,1.9-2.19,3.77-5.44,5a4.42,4.42,0,0,0-.82-1.07c3.31-1.28,4.65-3.17,5.16-5H31.62v-1.29h5a12.21,12.21,0,0,0,.06-1.32v-1.48H32.11v-1.31H42.78v1.31H38v1.49c0,.41,0,.86-.05,1.31h5.37V284Z" style="fill:#768e91"/><path d="M51.46,279.85v2.3l.23-.27a32.32,32.32,0,0,1,4.73,2.77l-.92,1.16a29.67,29.67,0,0,0-4-2.61V290H50.11V279.85h-5v-1.29h12v1.29Z" style="fill:#768e91"/><path d="M62.49,285.84c0-.21-.08-.42-.14-.68-2.8.4-3.25.51-3.52.66a10.85,10.85,0,0,0-.38-1.14c.3-.07.6-.39,1-.88a13.42,13.42,0,0,0,1-1.36,7.22,7.22,0,0,0-1.71.31c-.07-.23-.23-.77-.37-1.09.25-.05.46-.32.75-.73a17,17,0,0,0,1.7-3.37L62,278a21.77,21.77,0,0,1-2,3.44l1.2-.1a16.56,16.56,0,0,0,1-1.76l1.06.62a25.4,25.4,0,0,1-2.9,4.2l1.83-.23c-.13-.41-.26-.83-.41-1.21l.94-.26a21.31,21.31,0,0,1,.87,2.76ZM60,286.5a16.66,16.66,0,0,1-.66,3.4,5.61,5.61,0,0,0-1-.38,13.27,13.27,0,0,0,.62-3.19Zm1.35-.19c.16.9.32,2.06.37,2.82l-1,.2a23.74,23.74,0,0,0-.32-2.84Zm1.28-.38a18.22,18.22,0,0,1,.66,2.19l-.91.31a19.15,19.15,0,0,0-.62-2.23Zm8.18,2.67v1.15H63.14V288.6h3.27v-2.29H63.82v-1.13h6.49v1.13H67.67v2.29ZM65,284.83a13.14,13.14,0,0,0-1.6-2.66,21.5,21.5,0,0,0,1.41-2.48l1.09.27c-.37.7-.89,1.53-1.32,2.18A16,16,0,0,1,66,284.4Zm5.75-5.48H63.51v-1.13H70.7Zm-2.55.63c-.39.69-.89,1.51-1.34,2.14a14,14,0,0,1,1.48,2.22l-1,.45a12.81,12.81,0,0,0-1.69-2.64,18.89,18.89,0,0,0,1.46-2.45Zm1.52,4.85a13.12,13.12,0,0,0-1.8-2.66,21.85,21.85,0,0,0,1.5-2.48l1.1.29c-.41.69-.92,1.51-1.37,2.16a14.7,14.7,0,0,1,1.57,2.21Z" style="fill:#768e91"/><path d="M74,283.77a11.91,11.91,0,0,0-2-1.55l.61-.75a12.2,12.2,0,0,1,2.08,1.46Zm-1.87,5.48c.49-1,1.19-2.75,1.72-4.23l.82.61c-.46,1.39-1.08,3-1.61,4.23Zm2.16-9a12,12,0,0,0-2-1.8l.67-.72a12.11,12.11,0,0,1,2,1.73Zm7.6,4.08h1.18v5.75H81.87v-2H77.16a3.72,3.72,0,0,1-1.46,2,5.85,5.85,0,0,0-.94-.66,3.85,3.85,0,0,0,1.52-3.33v-1.77h1.18v.81h4.41Zm-5-2.65a3.68,3.68,0,0,1-1.55,2.67,2.3,2.3,0,0,0-.52-.66,2.76,2.76,0,0,0,1.21-2h-.69v-.83h3v.36c0,1.68-.09,2.36-.29,2.6a.75.75,0,0,1-.58.29c-.17,0-.46,0-.74,0a2.37,2.37,0,0,0-.22-.81,3.73,3.73,0,0,0,.58,0,.26.26,0,0,0,.23-.11,4.79,4.79,0,0,0,.15-1.56Zm1.94-1.78H75.3v-1h3.75a8.44,8.44,0,0,0-.28-1.23l1.17-.15a7.61,7.61,0,0,1,.36,1.38h4v1H80.64l.78.25c-.42.45-.9.91-1.32,1.28h0v2.82h-.93v-2.81h0a11,11,0,0,0,1.33-1.53H78.89a3.75,3.75,0,0,1,.6,1l-.72.34a5,5,0,0,0-.56-1.11Zm3,7.17v-.93H77.46a7.65,7.65,0,0,1,0,.93Zm2-6.11c-.26.13-.53.25-.83.38a4.08,4.08,0,0,0,1.33,2.21,2.68,2.68,0,0,0-.56.64,5,5,0,0,1-1.41-2.64l-.65.18v1.51l.89-.26c0,.21.1.52.13.67a8,8,0,0,0-1.74.69h0a3.35,3.35,0,0,0-.39-.78c.15-.09.33-.32.33-.85v-1.5h0a8.23,8.23,0,0,0,2.15-.85Z" style="fill:#768e91"/><path d="M89.87,280.86H85.65v-1h2.1a13.82,13.82,0,0,0-1-1.83l1-.5a13.14,13.14,0,0,1,1,1.78l-1,.55h2.1Zm-.3,8.42H87.08v.61H86v-4.6h3.53Zm-.07-6.63H86.13v-1H89.5Zm-3.37.82H89.5v1H86.13Zm1,2.84v1.95h1.45v-1.95Zm7.69-8.13c-.08.15-.16.27-.25.42a8.27,8.27,0,0,0,3.72,2.83,5.58,5.58,0,0,0-.88,1.14,9.07,9.07,0,0,1-1.24-.7v.53H91.57v-.59a12.63,12.63,0,0,1-1.36.93,4.87,4.87,0,0,0-.75-1.17,10.48,10.48,0,0,0,4.33-4Zm2.53,10.63c0,.49-.07.81-.34,1a2.24,2.24,0,0,1-1.21.2,3.2,3.2,0,0,0-.27-1h.65c.11,0,.14,0,.14-.15v-1.7h-1v2.63h-.9V287.1h-1v2.63h-.9V287.1h-1v3h-1v-6.72H97.3Zm-4.84-2.76v-1.61h-1v1.61Zm3-4.73a8.86,8.86,0,0,1-1.59-1.76,12.18,12.18,0,0,1-1.69,1.76Zm-1.09,4.73v-1.61h-1v1.61Zm1.93,0v-1.61h-1v1.61Z" style="fill:#768e91"/><path d="M103.46,286.79c-1.33.54-2.74,1.14-3.87,1.58l-.42-1.3,1.62-.54V282H99.4v-1.19h1.39v-3.12H102v3.12h1.1V282H102v4.06l1.25-.45Zm8.14,2v1h-9.1v-1Zm-.1-9.15h-8.66v-.95h3.66a7.82,7.82,0,0,0-.56-.85l1-.47a5,5,0,0,1,.86,1.32h3.68Zm-.6,4.76h-7.42v-4.27h7.42Zm-7,3.87v-3.38h6.51v3.38Zm5.92-7.37h-5.3v2.72h5.3ZM105,286.27h4.15v-.62H105Zm0,1.32h4.15V287H105Zm4-4.39h-3.7v-1.77H109Zm-.88-1.17h-2v.57h2Z" style="fill:#768e91"/><path d="M33.48,304c0-3.27,2-5.23,4.52-5.23a3.84,3.84,0,0,1,2.84,1.27l-.86,1a2.66,2.66,0,0,0-2-.89c-1.72,0-2.92,1.44-2.92,3.79s1.12,3.83,2.88,3.83a2.9,2.9,0,0,0,2.22-1.06l.84,1a4,4,0,0,1-3.11,1.44C35.41,309.17,33.48,307.29,33.48,304Z" style="fill:#768e91"/><path d="M41.71,299h1.63l.94,5.21.53,3.21h.06c.21-1.07.44-2.15.67-3.21l1.3-5.21h1.38l1.31,5.21c.23,1.05.45,2.12.68,3.21h.07c.16-1.09.34-2.16.5-3.21l.95-5.21h1.51l-2,10H49.33L48,303.43c-.18-.79-.33-1.54-.46-2.3h-.07c-.14.76-.3,1.51-.46,2.3L45.67,309H43.76Z" style="fill:#768e91"/><path d="M54.89,299H60.8v1.32H56.47v2.79h3.67v1.33H56.47v3.24H61V309H54.89Z" style="fill:#768e91"/><path d="M63.05,299H69v1.32H64.63v3.06h3.69v1.32H64.63V309H63.05Z" style="fill:#768e91"/><path d="M80.74,306a7.14,7.14,0,0,1-2.76,2.3,25.93,25.93,0,0,0,4.42.57,4.77,4.77,0,0,0-.61,1,22.4,22.4,0,0,1-5.32-.94,25,25,0,0,1-5.49,1.1,3.62,3.62,0,0,0-.45-1,24.71,24.71,0,0,0,4.46-.69,9.39,9.39,0,0,1-1.81-1.13,13.11,13.11,0,0,1-1.79,1,3.42,3.42,0,0,0-.79-.86,11.45,11.45,0,0,0,1.75-.9,7.27,7.27,0,0,1-.71-.85l.93-.38a3.89,3.89,0,0,0,.56.68,6,6,0,0,0,1-1H71.75v-5.07h3.52c.06-.22.1-.45.15-.67H70.5v-1H82v1H76.81l-.26.67h4.18v5.07h-5.2c-.16.22-.31.42-.49.64h4.73l.22-.06ZM73,301.3h6.48v-.67H73Zm0,1.44h6.48v-.68H73Zm0,1.44h6.48v-.68H73Zm1,2.47a9.26,9.26,0,0,0,2.52,1.24,8.06,8.06,0,0,0,2.41-1.41H74.17Z" style="fill:#768e91"/><path d="M89.17,301.65a13.25,13.25,0,0,1-4.82,3,5.22,5.22,0,0,0-.81-1,12.72,12.72,0,0,0,4.33-2.27h-4v-1.07h5.29v-1.12c-1.4.11-2.84.18-4.16.21a3.62,3.62,0,0,0-.28-1,51.07,51.07,0,0,0,8.67-.82l1,.9a31.64,31.64,0,0,1-4,.63v1.21h5.38v1.07H92.08a30.62,30.62,0,0,1,4,2.64l-.82.88a34.54,34.54,0,0,0-4.84-3.27v1.83H89.17Zm1.31,4.65h5.33v1.09H90.48v1.34c0,.67-.17,1-.68,1.14a9.6,9.6,0,0,1-2.5.17,5.16,5.16,0,0,0-.44-1.1c.9,0,1.81,0,2,0s.33-.07.33-.24v-1.32H83.87V306.3h5.37v-.78a13,13,0,0,0,1.58-.66H86.18v-1h6.17l.28-.06.77.66A13.5,13.5,0,0,1,90.48,306Z" style="fill:#768e91"/><path d="M101.55,305.74c-1.36.7-2.83,1.43-4,2l-.49-1.26c.49-.19,1.1-.45,1.77-.74v-4h-1.5v-1.19h1.5v-2.75H100v2.75h1.37v1.19H100v3.54l1.25-.57Zm2.64-1.6a6.87,6.87,0,0,1-.51.81h5.69l0,.48c-.22,2.72-.42,3.78-.79,4.19a1.21,1.21,0,0,1-.82.38,11.57,11.57,0,0,1-1.35,0,2.65,2.65,0,0,0-.29-1,8.19,8.19,0,0,0,1.06.06.46.46,0,0,0,.42-.15c.21-.24.38-1,.55-2.93h-.82a9.37,9.37,0,0,1-2.73,4.14,4.1,4.1,0,0,0-.91-.71,7.87,7.87,0,0,0,2.58-3.43h-1.07a10.47,10.47,0,0,1-3.24,3.55,3.42,3.42,0,0,0-.84-.76A8.73,8.73,0,0,0,104,306h-1.14a9.82,9.82,0,0,1-1.67,1.46,5.93,5.93,0,0,0-.86-.79,7.32,7.32,0,0,0,2.57-2.5h-1.74v-1.08h8.5v1.08Zm4.54-1.73h-6.28V298h6.28Zm-1.17-3.55h-4v.89h4Zm0,1.74h-4v.9h4Z" style="fill:#768e91"/><path d="M216.82,295.5a3.06,3.06,0,0,1,1.79-2.69v-.07a2.81,2.81,0,0,1-1.34-2.34,2.85,2.85,0,0,1,5.68.07,3.12,3.12,0,0,1-1.32,2.35v.07a2.94,2.94,0,0,1,1.69,2.65c0,1.49-1.31,2.63-3.24,2.63S216.82,297.05,216.82,295.5Zm5,0c0-1.22-1.1-1.68-2.46-2.24a2.55,2.55,0,0,0-1.17,2.09,1.75,1.75,0,0,0,1.91,1.69A1.54,1.54,0,0,0,221.83,295.5Zm-.2-4.93a1.49,1.49,0,0,0-1.54-1.62,1.37,1.37,0,0,0-1.42,1.45c0,1.09,1,1.59,2.06,2A2.54,2.54,0,0,0,221.63,290.57Z" style="fill:#768e91"/><path d="M235.16,297.35c0,.82-.22,1.21-.76,1.42a9.09,9.09,0,0,1-2.91.25,5.72,5.72,0,0,0-.54-1.33c1.06.06,2.14,0,2.47,0s.41-.11.41-.4V295h-6.17a7.56,7.56,0,0,1-2.33,4.13,5,5,0,0,0-1-.93c2.12-1.82,2.32-4.48,2.32-6.62v-4.27h8.47Zm-1.33-3.63v-2H228a18,18,0,0,1-.12,2ZM228,288.49v2h5.85v-2Z" style="fill:#768e91"/><path d="M45.85,372.32c0-3.27,2-5.23,4.52-5.23a3.84,3.84,0,0,1,2.84,1.27l-.86,1a2.63,2.63,0,0,0-2-.9c-1.72,0-2.92,1.44-2.92,3.79s1.11,3.83,2.88,3.83A2.9,2.9,0,0,0,52.57,375l.84,1a4,4,0,0,1-3.11,1.44C47.78,377.47,45.85,375.59,45.85,372.32Z" style="fill:#768e91"/><path d="M54.09,376l.93-1.09a3.88,3.88,0,0,0,2.66,1.18c1.21,0,1.89-.57,1.89-1.41s-.68-1.2-1.6-1.6l-1.39-.6a2.89,2.89,0,0,1-2-2.63c0-1.57,1.39-2.76,3.29-2.76a4.26,4.26,0,0,1,3,1.27l-.83,1a3.15,3.15,0,0,0-2.2-.9c-1,0-1.68.49-1.68,1.29s.8,1.18,1.61,1.51l1.38.58a2.81,2.81,0,0,1,2,2.71c0,1.6-1.34,2.91-3.52,2.91A5,5,0,0,1,54.09,376Z" style="fill:#768e91"/><path d="M68.53,377.29l-2.27-4H64.65v4H63.07v-10h3.28c2.06,0,3.61.73,3.61,2.89a2.79,2.79,0,0,1-2.09,2.87l2.45,4.24ZM64.65,372h1.51c1.45,0,2.24-.6,2.24-1.81s-.79-1.63-2.24-1.63H64.65Z" style="fill:#768e91"/><path d="M82.2,377.11c.37,0,.45-.21.49-1.61a3.66,3.66,0,0,0,1,.45c-.1,1.75-.4,2.2-1.41,2.2H80.69c-1.19,0-1.49-.33-1.49-1.46v-1.38a6.44,6.44,0,0,1-3.67,3.07,2.92,2.92,0,0,0-.73-.95,5.52,5.52,0,0,0,3.87-3.93H76.19v-2.95l-.07.07a3.35,3.35,0,0,0-.72-.79v5.95H72.81v1h-1.1v-10H75.4v2.75a9.31,9.31,0,0,0,2.41-3.7l1.25.19c-.11.3-.24.6-.38.91h2.56l.21-.05.94.31a19.71,19.71,0,0,1-1.4,2.07h2v4.16H80.37v3.18c0,.39.06.43.5.43ZM72.81,368v2.72H74.3V368Zm1.49,6.65v-2.83H72.81v2.83Zm3.85-6.59a12.92,12.92,0,0,1-.84,1.29h2.28a13.9,13.9,0,0,0,.94-1.29Zm.73,4.46a20.67,20.67,0,0,0,.21-2.18H77.32v2.18Zm2.91-2.18H80.24a21,21,0,0,1-.2,2.18h1.75Z" style="fill:#768e91"/><path d="M94.06,375.06a5.64,5.64,0,0,1-1.44,1.4c1.63.37,3.11.76,4.23,1.12l-1.06.79a37.69,37.69,0,0,0-4.38-1.23,18.4,18.4,0,0,1-5.79,1.24,3.11,3.11,0,0,0-.49-1,21.65,21.65,0,0,0,4.33-.64c-.87-.18-1.78-.35-2.69-.52a15.14,15.14,0,0,0,1.08-1.14h-2.8v-1h3.61a12.61,12.61,0,0,0,.83-1.22l1.21.34c-.17.29-.39.58-.61.88H93.3a4.25,4.25,0,0,0,.32-.64l1.17.34-.13.3H97v1Zm-7.59-5.51H85.26V367h5.21a5.48,5.48,0,0,0-.42-.84l1.25-.25a6,6,0,0,1,.58,1.09h5v2.59H95.61V368H86.47Zm8.31,3.3H87.3v-4.07h7.48Zm-1.24-3.23h-5v.79h5Zm0,1.58h-5V372h5Zm-4.24,3.86c-.19.22-.38.42-.54.63.76.13,1.53.28,2.28.43a5.38,5.38,0,0,0,1.51-1.06Z" style="fill:#768e91"/><path d="M217.78,375.44a2.25,2.25,0,0,0,1.65.75c1.21,0,2.25-1,2.35-3.83a3,3,0,0,1-2.2,1.17c-1.68,0-2.8-1-2.8-3.15a3.06,3.06,0,0,1,3-3.29c1.92,0,3.47,1.55,3.47,4.86,0,3.94-1.79,5.52-3.72,5.52a3.42,3.42,0,0,1-2.56-1.06Zm4-4.27c-.15-2-.9-2.87-2-2.87-.86,0-1.54.78-1.54,2.08s.57,2,1.62,2A2.41,2.41,0,0,0,221.75,371.17Z" style="fill:#768e91"/><path d="M235.16,376.65c0,.82-.22,1.21-.76,1.42a9.09,9.09,0,0,1-2.91.25A5.72,5.72,0,0,0,231,377c1.06.06,2.14,0,2.47,0s.41-.11.41-.4v-2.37h-6.17a7.56,7.56,0,0,1-2.33,4.13,5,5,0,0,0-1-.93c2.12-1.82,2.32-4.48,2.32-6.62v-4.27h8.47ZM233.83,373v-2H228a18,18,0,0,1-.12,2ZM228,367.79v2h5.85v-2Z" style="fill:#768e91"/><path d="M18,444.56a7.89,7.89,0,0,0,5.44,4.88,5.05,5.05,0,0,0-.86,1.17,8.8,8.8,0,0,1-5.45-5c-.68,1.9-2.19,3.77-5.44,5a4.42,4.42,0,0,0-.82-1.07c3.31-1.28,4.64-3.17,5.16-5H11.22v-1.29h5A12.21,12.21,0,0,0,16.3,442v-1.48H11.71v-1.31H22.38v1.31H17.62V442c0,.41,0,.86-.05,1.31h5.37v1.29Z" style="fill:#768e91"/><path d="M31.06,440.45v2.3l.23-.27A32.85,32.85,0,0,1,36,445.25l-.92,1.16a29.67,29.67,0,0,0-4-2.61v6.84H29.71V440.45h-5v-1.29h12v1.29Z" style="fill:#768e91"/><path d="M42.84,443.88a9.81,9.81,0,0,1-3.86,6,5.4,5.4,0,0,0-1-1,7.83,7.83,0,0,0,3.26-4.12h-3v-1.19h3.51l.21,0Zm7.27-1.1a31.25,31.25,0,0,1-3.45,2.81,8.33,8.33,0,0,0,3.93,3.13,6.09,6.09,0,0,0-.89,1.12,9.5,9.5,0,0,1-4.7-4.75v4c0,.72-.16,1.09-.65,1.29a6.72,6.72,0,0,1-2.38.23,4.77,4.77,0,0,0-.45-1.26c.75,0,1.58,0,1.81,0s.31-.08.31-.31v-7H40.05v-1.21h5V442a13,13,0,0,0,1.06,2.61,21.6,21.6,0,0,0,2.9-2.69Zm-3.94-1.67a23.47,23.47,0,0,0-5-1.85l.62-1.05a23.66,23.66,0,0,1,5,1.71Z" style="fill:#768e91"/><path d="M53.17,447.1a18.78,18.78,0,0,1-.66,3.48,5.89,5.89,0,0,0-.95-.32,15.69,15.69,0,0,0,.62-3.33Zm2.21-.55c0-.22-.09-.47-.14-.75a12.93,12.93,0,0,0-3.22.62,8,8,0,0,0-.35-1c.28-.09.57-.41,1-.93a14.56,14.56,0,0,0,.95-1.4,6.72,6.72,0,0,0-1.66.3,7.85,7.85,0,0,0-.35-1c.24-.06.45-.33.71-.75a16.77,16.77,0,0,0,1.56-3.41l1.06.43a20.23,20.23,0,0,1-1.81,3.5l1.14-.1c.32-.58.64-1.22.92-1.83l1,.57a25.57,25.57,0,0,1-2.74,4.32l1.66-.22c-.11-.41-.23-.83-.36-1.19l.87-.23a19.52,19.52,0,0,1,.75,2.84Zm-1,.35a26.56,26.56,0,0,1,.36,3.11l-.94.18a26,26,0,0,0-.29-3.14Zm1.19-.34a21,21,0,0,1,.7,2.47l-.85.28a22.21,22.21,0,0,0-.67-2.52Zm5.84,2.15c1,.34,2,.75,2.65,1l-.51.9c-.72-.34-1.87-.86-2.88-1.24l.4-.7h-2.2l.75.69c-1,.48-2.35,1-3.31,1.33a4.75,4.75,0,0,0-.47-.88,24.64,24.64,0,0,0,2.76-1.14h-2v-4h6.75v4Zm-2-9H56.1v-.86h3.34v-.67h1.24v.67h3.18v.86H60.68v.59h2.7v.82H56.63v-.82h2.81Zm-3.27,1.87h7.64v2.61H56.17Zm1,1.8h1.28v-1H57.21Zm.53,2.53h4.45v-.49H57.74Zm0,1h4.45v-.5H57.74Zm0,1.07h4.45v-.54H57.74Zm2.9-4.63v-1H59.46v1Zm2.06-1H61.6v1h1.1Z" style="fill:#768e91"/><path d="M77.6,447.66H72.82v3h-1.3v-3H65.33v-1.22h2.19v-3.59h4V441H68.41a12.29,12.29,0,0,1-2,2.58,12,12,0,0,0-1.1-.81,11,11,0,0,0,3-4.61l1.28.34-.53,1.28h7.87V441H72.82v1.88h3.8V444h-3.8v2.41H77.6Zm-6.08-1.22V444H68.79v2.41Z" style="fill:#768e91"/><path d="M81.2,443.08c0,2.2-.16,5.42-1.29,7.57a5.78,5.78,0,0,0-1.14-.57c1.09-2,1.19-5,1.19-7v-3.62h5.13a8.34,8.34,0,0,0-.45-1l1.27-.3a10.12,10.12,0,0,1,.62,1.34h4.6v1.17H81.2Zm9,3.22a6.45,6.45,0,0,1-2.62,2.58,17.33,17.33,0,0,0,3.78.68,6.35,6.35,0,0,0-.74,1.09,16.14,16.14,0,0,1-4.5-1.09,19.18,19.18,0,0,1-4.55,1,3.65,3.65,0,0,0-.52-1.07,18.85,18.85,0,0,0,3.73-.64,7.28,7.28,0,0,1-2-1.73l.53-.2H81.66v-1h7.5l.21,0Zm-6.63-1.09V443h-2v-1h2v-1h1.19v1h2.94v-1H88.9v1H91v1H88.9v2.17Zm.53,1.73a6.19,6.19,0,0,0,2.08,1.44,6.75,6.75,0,0,0,2.15-1.44Zm.66-3.9v1.19h2.94V443Z" style="fill:#768e91"/><path d="M103.6,440.26v10.35h-1.33v-.9H95v1H93.75V440.26H97.1a15.68,15.68,0,0,0,.67-2.13l1.61.26c-.27.64-.57,1.3-.85,1.87ZM95,441.53v2.79h7.25v-2.79Zm7.25,6.92v-2.88H95v2.88Z" style="fill:#768e91"/><path d="M117.21,443.85a9.32,9.32,0,0,1-2.91,4.27,12.61,12.61,0,0,0,4.19,1.4,5.84,5.84,0,0,0-.8,1.2,12.65,12.65,0,0,1-4.52-1.78,14.84,14.84,0,0,1-4.33,1.71,4.21,4.21,0,0,0-.74-1.17,14.25,14.25,0,0,0,4-1.37,10.18,10.18,0,0,1-2.43-3.48h-1a11.13,11.13,0,0,1-1.75,6,5.15,5.15,0,0,0-1-.82c1.42-1.87,1.55-4.56,1.55-6.51V440H112v-1.78h1.29V440h3.63l.22,0,1,.25a21,21,0,0,1-1.23,2.92l-1.16-.33a13.12,13.12,0,0,0,.65-1.58h-3.09v2.28h2.86l.23,0Zm-8.51-.4H112v-2.28H108.7v2.28Zm2.3,1.18a8.39,8.39,0,0,0,2.23,2.76,7.82,7.82,0,0,0,2.27-2.76Z" style="fill:#768e91"/><path d="M131.88,445v.91h-12V445h5.33v-.65h-4.39v-.82h4.39v-.62H121.1v-.81h4.07v-.66h-5.32v-.91h5.32v-.66h-3.9v-.77h3.9v-.93h1.28v.93h3.82v1.43h1.6v.91h-1.6v1.47h-3.82v.62h4.48v.82h-4.48V445Zm-10.33,1.47h8.78v4.24h-1.27v-.4h-6.27v.41h-1.24Zm1.24.81v.68h6.27v-.68Zm6.27,2.19v-.72h-6.27v.72Zm-2.61-8.94H129v-.66h-2.57Zm0,1.57H129v-.66h-2.57Z" style="fill:#768e91"/><path d="M36.87,465.12H34.11V464h2.76V461h1.19V464h2.76v1.14H38.06v2.93H36.87Z" style="fill:#768e91"/><path d="M50.36,459.58a23.41,23.41,0,0,1,3.57,3.95l-1.06.79a9,9,0,0,0-.79-1.12c-7.47.39-8.34.42-9,.64a12.4,12.4,0,0,0-.4-1.24,2.52,2.52,0,0,0,1.11-.77,21.86,21.86,0,0,0,3-3.77l1.26.55a26.62,26.62,0,0,1-3.25,3.75l6.32-.26c-.58-.65-1.21-1.31-1.79-1.85Zm-6.62,5.29h8.81v5.77H51.2v-.7H45v.73H43.74ZM45,466.08v2.64H51.2v-2.64Z" style="fill:#768e91"/><path d="M59.84,466.5a15.89,15.89,0,0,0-1-1.46v5.6H57.62v-5.4a14,14,0,0,1-1.68,3.07,7.7,7.7,0,0,0-.63-1.17,14,14,0,0,0,2.22-4.06H55.66V461.9h2v-1.83c-.58.11-1.17.19-1.71.26a4.18,4.18,0,0,0-.37-1,18.63,18.63,0,0,0,4.11-1l.87,1a13.91,13.91,0,0,1-1.67.5v2.07h1.37v-.23h3.19v-.6h-2.5v-.79h2.5v-.59H60.64v-.81h2.77v-.7h1.27v.7h2.95v.81H64.68v.59H67.3v.79H64.68v.6h3.26v.82H60.3v.59H58.85v.67c.44.39,1.48,1.46,1.72,1.76Zm7.38,2H62.69l.94.6a11.27,11.27,0,0,1-3.23,1.63,6.26,6.26,0,0,0-.81-.82,9.31,9.31,0,0,0,2.95-1.41H61.1v-5.41h6.12ZM66,463.89h-3.8v.74H66Zm0,1.51h-3.8v.75H66Zm0,1.53h-3.8v.74H66Zm-.52,1.56c.9.52,1.94,1.16,2.57,1.58l-1.1.61c-.53-.41-1.48-1.06-2.31-1.58Z" style="fill:#768e91"/><path d="M70.75,463.25h-1.2v-3h5.12v-.72H70.13v-.88H80.51v.88h-4.6v.72h5.25v3H79.9v-2.1h-4v3H74.67v-3H70.75Zm8.9,6.25c.69,0,.83-.22.91-1.49a3.25,3.25,0,0,0,1.06.41c-.16,1.63-.51,2.07-1.89,2.07h-3c-1.67,0-2.13-.33-2.13-1.55v-.26H72v.65H70.75v-4.78H80v4.13H75.83v.24c0,.48.16.58,1,.58Zm-8.81-6.2c.86-.11,2-.29,3.22-.47l0,.75c-1,.25-2,.46-2.92.63Zm.75-2a15.36,15.36,0,0,1,2.49.67l-.34.72a16.73,16.73,0,0,0-2.52-.73Zm.37,4.15v.78h2.66v-.78Zm2.66,2.37V467H72v.79Zm4.11-2.37h-2.9v.78h2.9Zm0,2.37V467h-2.9v.79Zm.76-3.58a21.4,21.4,0,0,0-3.16-.75l.28-.72a16.33,16.33,0,0,1,3.14.66Zm0-2.32a18.36,18.36,0,0,1-2.55.7l-.43-.61c.74-.18,1.81-.56,2.45-.79Z" style="fill:#768e91"/><path d="M94,464a5.64,5.64,0,0,0-.3-.61c-1.39.11-2.16.16-2.64.22a14.41,14.41,0,0,0,4.31,1.83,5.85,5.85,0,0,0-.8,1,13.51,13.51,0,0,1-5.73-3.31,11.88,11.88,0,0,1-5.45,3.4,6,6,0,0,0-.7-1,11.58,11.58,0,0,0,4.06-1.93l0-.1a13.52,13.52,0,0,0-3,.29,7.91,7.91,0,0,0-.4-1,1,1,0,0,0,.5-.34A6.56,6.56,0,0,0,84.88,461l1.12.47a9.77,9.77,0,0,1-1,1.23l1.29-.06c-.12-.2-.23-.38-.35-.56l.89-.28a11.3,11.3,0,0,1,.7,1.17,7.26,7.26,0,0,0,1-1.4l1.16.34-.23.41c.16.17.34.36.54.54l0-.1a.81.81,0,0,0,.44-.32,5.1,5.1,0,0,0,.8-1.39l1.13.46a9.56,9.56,0,0,1-.79,1.13l1.52-.08a7.68,7.68,0,0,0-.49-.61l.9-.38A8.46,8.46,0,0,1,95,463.58Zm-1.46-2.78a8,8,0,0,0-.59-.63c-6.07.26-6.75.24-7.25.41a8.21,8.21,0,0,0-.36-1.05,2.64,2.64,0,0,0,.86-.34,11.21,11.21,0,0,0,2.33-1.52l1.11.57a19.54,19.54,0,0,1-1.83,1.17l4.12-.12a13.44,13.44,0,0,0-1.12-.83l.94-.46a17.13,17.13,0,0,1,2.8,2.27Zm.74,6.21c-1.72,1.81-4.82,2.77-8.26,3.25a3.18,3.18,0,0,0-.58-1c3.28-.37,6.31-1.18,7.8-2.73Zm-1.61-1.37a15,15,0,0,1-5.94,2.55,4.33,4.33,0,0,0-.65-.9,14.31,14.31,0,0,0,5.63-2.13Zm-1.51-1.3a14.14,14.14,0,0,1-4.33,2,4.52,4.52,0,0,0-.7-.77,13.11,13.11,0,0,0,4.12-1.72Z" style="fill:#768e91"/><path d="M101.28,461.46H96.39v-1h2.28a14,14,0,0,0-.9-1.83l.9-.5a12.82,12.82,0,0,1,.93,1.78l-.91.55h2.59Zm3.33.22c0,.62-.06,1.24-.1,1.83h3.6s0,.38,0,.56c-.18,4-.33,5.47-.73,6a1.29,1.29,0,0,1-1,.5,15.23,15.23,0,0,1-1.71,0,3.13,3.13,0,0,0-.36-1.21c.64.06,1.26.06,1.49.06a.48.48,0,0,0,.49-.17c.26-.29.44-1.5.56-4.54H104.4c-.28,2.44-1,4.59-2.88,6a3.1,3.1,0,0,0-.79-.87v0H97.92v.61h-1v-4.6h3.81v3.89c2.38-1.73,2.61-4.85,2.68-8.1h-1.77v-1.2h3.13a15.57,15.57,0,0,0-.57-1.9l1.06-.3a12,12,0,0,1,.71,2.15l-.18.05h2.88v1.2Zm-3.88.58v1H96.92v-1Zm-3.81,1.8h3.83v1H96.92Zm2.81,2.85H97.92v1.95h1.81Z" style="fill:#768e91"/><path d="M213.48,455.3h2.19v-7h-1.79v-1a6,6,0,0,0,2.17-.77h1.19v8.72h1.95v1.29h-5.71Z" style="fill:#768e91"/><path d="M220.67,455.68c3-2.61,4.47-4.56,4.47-6.2a1.64,1.64,0,0,0-1.7-1.84,2.72,2.72,0,0,0-2,1.12l-.89-.87a3.92,3.92,0,0,1,3-1.5,2.84,2.84,0,0,1,3,3c0,1.93-1.54,3.93-3.66,6,.52-.05,1.14-.09,1.63-.09h2.5v1.33h-6.45Z" style="fill:#768e91"/><path d="M239,456c0,.82-.22,1.21-.77,1.42a9,9,0,0,1-2.9.25,5.77,5.77,0,0,0-.55-1.33c1.06.06,2.15,0,2.48,0s.4-.11.4-.4v-2.37h-6.17a7.49,7.49,0,0,1-2.32,4.13,4.76,4.76,0,0,0-1-.93c2.12-1.82,2.33-4.48,2.33-6.62v-4.27H239Zm-1.34-3.63v-2h-5.84a16,16,0,0,1-.13,2Zm-5.84-5.23v2h5.84v-2Z" style="fill:#768e91"/><path d="M20,521.86a7.89,7.89,0,0,0,5.44,4.88,5.05,5.05,0,0,0-.86,1.17,8.8,8.8,0,0,1-5.45-5c-.68,1.9-2.19,3.77-5.44,5a4.42,4.42,0,0,0-.82-1.07c3.31-1.28,4.64-3.17,5.16-5H13.26v-1.29h5a12.21,12.21,0,0,0,.06-1.32v-1.48H13.75v-1.31H24.42v1.31H19.66v1.49c0,.41,0,.86-.05,1.31H25v1.29Z" style="fill:#768e91"/><path d="M33.1,517.75v2.3l.23-.27a32.85,32.85,0,0,1,4.73,2.77l-.92,1.16a29.67,29.67,0,0,0-4-2.61v6.84H31.75V517.75h-5v-1.29h12v1.29Z" style="fill:#768e91"/><path d="M44.13,523.74c0-.21-.08-.42-.14-.68-2.8.4-3.25.51-3.52.66a10.85,10.85,0,0,0-.38-1.14c.3-.07.6-.39,1-.88a13.42,13.42,0,0,0,1-1.36,7.22,7.22,0,0,0-1.71.31c-.07-.23-.23-.77-.37-1.09.24,0,.46-.32.75-.73a17,17,0,0,0,1.7-3.37l1.13.46a21.77,21.77,0,0,1-2,3.44l1.2-.1a16.56,16.56,0,0,0,1-1.76l1.06.62a25.4,25.4,0,0,1-2.9,4.2l1.83-.23c-.13-.41-.26-.83-.41-1.21l.94-.26a21.31,21.31,0,0,1,.87,2.76Zm-2.45.66a16.66,16.66,0,0,1-.66,3.4,5.92,5.92,0,0,0-1-.38,13.27,13.27,0,0,0,.62-3.19Zm1.35-.19c.16.9.32,2.06.37,2.82l-1,.2a23.74,23.74,0,0,0-.32-2.84Zm1.28-.38A18.22,18.22,0,0,1,45,526l-.91.31a19.15,19.15,0,0,0-.62-2.23Zm8.18,2.67v1.15H44.78V526.5H48v-2.29H45.46v-1.13H52v1.13H49.31v2.29Zm-5.9-3.77a13.62,13.62,0,0,0-1.6-2.66,21.5,21.5,0,0,0,1.41-2.48l1.09.27c-.37.7-.89,1.53-1.32,2.18a16.58,16.58,0,0,1,1.45,2.25Zm5.75-5.48H45.15v-1.13h7.19Zm-2.55.63c-.39.69-.89,1.51-1.34,2.14a14,14,0,0,1,1.48,2.22l-1,.45a12.81,12.81,0,0,0-1.69-2.64,20.1,20.1,0,0,0,1.46-2.45Zm1.52,4.85a13.12,13.12,0,0,0-1.8-2.66,21.85,21.85,0,0,0,1.5-2.48l1.1.29c-.41.69-.92,1.51-1.37,2.16a14.7,14.7,0,0,1,1.57,2.21Z" style="fill:#768e91"/><path d="M55.62,521.67a11.91,11.91,0,0,0-2-1.55l.61-.75a12.2,12.2,0,0,1,2.08,1.46Zm-1.87,5.48c.49-1,1.19-2.75,1.72-4.23l.82.61c-.46,1.39-1.08,3-1.61,4.23Zm2.16-9a12,12,0,0,0-2-1.8l.67-.72a12.11,12.11,0,0,1,2,1.73Zm7.6,4.08h1.18V528H63.51v-2H58.8a3.69,3.69,0,0,1-1.47,2,5.35,5.35,0,0,0-.93-.66A3.85,3.85,0,0,0,57.92,524v-1.77H59.1V523h4.41Zm-4.95-2.65A3.68,3.68,0,0,1,57,522.25a2.3,2.3,0,0,0-.52-.66,2.76,2.76,0,0,0,1.21-2H57v-.83h3v.36c0,1.68-.09,2.36-.3,2.6a.71.71,0,0,1-.57.29c-.17,0-.46,0-.74,0a2.37,2.37,0,0,0-.22-.81,3.73,3.73,0,0,0,.58,0,.26.26,0,0,0,.23-.11,4.79,4.79,0,0,0,.15-1.56Zm1.94-1.79H56.94v-1h3.75a10,10,0,0,0-.28-1.23l1.17-.15a7.61,7.61,0,0,1,.36,1.38h4v1H62.28l.78.26c-.42.45-.9.91-1.32,1.28h0v2.82h-.93v-2.81h0a10.55,10.55,0,0,0,1.33-1.54H60.53a3.94,3.94,0,0,1,.6,1.05l-.72.34a5,5,0,0,0-.56-1.11Zm3,7.18V524H59.1a7.65,7.65,0,0,1-.05.93Zm2-6.11c-.26.13-.53.25-.83.38a4.08,4.08,0,0,0,1.33,2.21,2.68,2.68,0,0,0-.56.64,5,5,0,0,1-1.41-2.64l-.65.18v1.51l.89-.26c0,.2.1.52.13.67a8,8,0,0,0-1.74.69h0a3.35,3.35,0,0,0-.39-.78c.15-.09.33-.32.33-.85v-1.5h0a8.23,8.23,0,0,0,2.15-.85Z" style="fill:#768e91"/><path d="M71.5,518.76H67.29v-1h2.09a12.62,12.62,0,0,0-1-1.83l1-.5a12.29,12.29,0,0,1,1,1.78l-1,.55H71.5Zm-.29,8.42H68.72v.61h-1v-4.6h3.53Zm-.07-6.63H67.77v-1h3.37Zm-3.37.82h3.37v1H67.77Zm1,2.84v1.95h1.45v-1.95Zm7.69-8.13c-.08.15-.16.27-.25.42a8.27,8.27,0,0,0,3.72,2.83,5.25,5.25,0,0,0-.88,1.14,9.07,9.07,0,0,1-1.24-.7v.53H73.21v-.59a11.82,11.82,0,0,1-1.37.93,4.55,4.55,0,0,0-.74-1.17,10.48,10.48,0,0,0,4.33-4Zm2.53,10.63c0,.49-.07.81-.34,1a2.24,2.24,0,0,1-1.21.2,3.2,3.2,0,0,0-.27-1h.65c.11,0,.14,0,.14-.15V525h-1v2.62H76V525H75v2.62h-.9V525h-1v3h-1v-6.72h6.84ZM74.1,524v-1.61h-1V524Zm3-4.73a8.86,8.86,0,0,1-1.59-1.76,12.18,12.18,0,0,1-1.69,1.76ZM76,524v-1.61H75V524Zm1.93,0v-1.61h-1V524Z" style="fill:#768e91"/><path d="M85.1,524.69c-1.33.54-2.74,1.14-3.87,1.58l-.42-1.3,1.62-.54v-4.49H81v-1.19h1.39v-3.12h1.18v3.12h1.1v1.19h-1.1V524l1.25-.45Zm8.14,2v1h-9.1v-1Zm-.1-9.15H84.48v-1h3.66a7.82,7.82,0,0,0-.56-.85l1-.47a5,5,0,0,1,.86,1.32h3.68Zm-.6,4.76H85.12v-4.27h7.42Zm-7,3.87v-3.38H92v3.38Zm5.92-7.37h-5.3v2.72h5.3Zm-4.77,5.33h4.15v-.62H86.68Zm0,1.32h4.15v-.64H86.68Zm4-4.39h-3.7v-1.77h3.7Zm-.89-1.17h-2v.57h2Z" style="fill:#768e91"/><path d="M94.68,521.92c0-3.27,2-5.23,4.51-5.23A3.88,3.88,0,0,1,102,518l-.86,1a2.66,2.66,0,0,0-2-.89c-1.73,0-2.92,1.44-2.92,3.79s1.11,3.83,2.88,3.83a2.9,2.9,0,0,0,2.22-1.06l.84,1a4,4,0,0,1-3.11,1.44C96.61,527.07,94.68,525.19,94.68,521.92Z" style="fill:#768e91"/><path d="M102.91,516.88h1.63l.94,5.21.53,3.21h0c.22-1.07.45-2.15.68-3.21l1.29-5.21h1.39l1.31,5.21c.23,1,.44,2.12.68,3.21h.06q.25-1.63.51-3.21l1-5.21h1.51l-2,10h-2l-1.34-5.56c-.18-.79-.33-1.54-.47-2.3h-.06c-.14.76-.3,1.51-.47,2.3l-1.31,5.56H105Z" style="fill:#768e91"/><path d="M116.09,516.88H122v1.32h-4.34V521h3.67v1.33h-3.67v3.24h4.49v1.33h-6.06Z" style="fill:#768e91"/><path d="M124.25,516.88h5.92v1.32h-4.35v3.06h3.7v1.32h-3.7v4.31h-1.57Z" style="fill:#768e91"/><path d="M44.62,537.22a10,10,0,0,1-3.09,3.44,16.63,16.63,0,0,0,5.1,1.51,5.07,5.07,0,0,0-.82,1.21,15.63,15.63,0,0,1-5.42-2,20.08,20.08,0,0,1-5.52,2.06,4.62,4.62,0,0,0-.61-1.19,17.74,17.74,0,0,0,5-1.66A10.41,10.41,0,0,1,37.6,539a14.36,14.36,0,0,1-2.08,1.73,4,4,0,0,0-.85-1,11.64,11.64,0,0,0,4.07-4.28l1.36.27c-.2.35-.42.71-.66,1.06h4.12l.2-.06ZM37,545a53,53,0,0,1,6.88,1.86l-.58,1.2a53.46,53.46,0,0,0-6.86-2Zm1.7-2.32c1.46.35,3.63,1,4.76,1.4l-.56,1.13c-1.07-.43-3.22-1.12-4.74-1.55Zm-.12-4.83a3.75,3.75,0,0,0-.26.33,8.48,8.48,0,0,0,2,1.76,9.1,9.1,0,0,0,2.37-2.09Z" style="fill:#768e91"/><path d="M53.34,539.55a13.29,13.29,0,0,1-4.83,3,5.57,5.57,0,0,0-.8-1A12.67,12.67,0,0,0,52,539.33h-4v-1.07h5.29v-1.12c-1.4.11-2.84.18-4.16.21a4,4,0,0,0-.29-1,51,51,0,0,0,8.67-.82l1,.9a31.64,31.64,0,0,1-4,.63v1.21H60v1.07H56.25a31.13,31.13,0,0,1,4,2.64l-.82.88a33.39,33.39,0,0,0-4.84-3.27v1.83H53.34Zm1.3,4.65H60v1.09H54.64v1.34c0,.67-.16,1-.68,1.14a9.56,9.56,0,0,1-2.5.17,5.12,5.12,0,0,0-.43-1.1c.89,0,1.8,0,2,0s.32-.07.32-.24v-1.32H48V544.2H53.4v-.78a12.35,12.35,0,0,0,1.58-.66H50.35v-1h6.17l.27-.06.77.66a13.27,13.27,0,0,1-2.92,1.57Z" style="fill:#768e91"/><path d="M65.71,543.64c-1.36.69-2.83,1.43-4,2l-.49-1.26c.49-.19,1.1-.45,1.77-.74v-4.05H61.53v-1.19H63v-2.75h1.17v2.75h1.37v1.19H64.19v3.54l1.25-.57Zm2.64-1.6a6.79,6.79,0,0,1-.5.81h5.68s0,.32,0,.48c-.21,2.72-.42,3.78-.79,4.19a1.21,1.21,0,0,1-.81.38,11.75,11.75,0,0,1-1.36,0,2.34,2.34,0,0,0-.29-1,8.36,8.36,0,0,0,1.06.06.47.47,0,0,0,.43-.15c.2-.24.38-1,.54-2.93h-.82A9.37,9.37,0,0,1,68.73,548a3.88,3.88,0,0,0-.91-.71,7.87,7.87,0,0,0,2.58-3.43H69.33a10.47,10.47,0,0,1-3.24,3.55,3.42,3.42,0,0,0-.84-.76,8.85,8.85,0,0,0,2.94-2.79H67a9.11,9.11,0,0,1-1.67,1.46,5.85,5.85,0,0,0-.85-.79,7.41,7.41,0,0,0,2.57-2.5H65.35V541h8.49V542Zm4.54-1.73H66.61v-4.46h6.28Zm-1.17-3.55h-4v.89h4Zm0,1.74h-4v.9h4Z" style="fill:#768e91"/><path d="M77.67,542.42H74.91v-1.14h2.76v-2.94h1.19v2.94h2.76v1.14H78.86v2.93H77.67Z" style="fill:#768e91"/><path d="M93.69,546.71c.36,0,.44-.21.48-1.61a3.54,3.54,0,0,0,1,.44c-.11,1.76-.41,2.21-1.42,2.21H92.18c-1.2,0-1.5-.33-1.5-1.46v-1.38A6.44,6.44,0,0,1,87,548a3,3,0,0,0-.72-1,5.51,5.51,0,0,0,3.86-3.93H87.68v-3l-.07.06a3.52,3.52,0,0,0-.72-.78v6h-2.6v1h-1.1v-10h3.7v2.75a9.28,9.28,0,0,0,2.4-3.7l1.25.19a9.81,9.81,0,0,1-.38.91h2.56l.22-.05.94.31a23.36,23.36,0,0,1-1.4,2.07h2v4.16H91.85v3.18c0,.39.07.43.5.43Zm-9.4-9.12v2.72h1.5v-2.72Zm1.5,6.65v-2.83h-1.5v2.83Zm3.84-6.59a11.37,11.37,0,0,1-.84,1.29h2.29a13.88,13.88,0,0,0,.93-1.29Zm.74,4.46a21,21,0,0,0,.2-2.18H88.8v2.18Zm2.91-2.18H91.73a21.2,21.2,0,0,1-.21,2.18h1.76Z" style="fill:#768e91"/><path d="M105.54,544.66a5.64,5.64,0,0,1-1.44,1.4c1.64.37,3.12.76,4.23,1.12l-1.06.78a40.07,40.07,0,0,0-4.38-1.22A18.34,18.34,0,0,1,97.1,548a2.92,2.92,0,0,0-.49-1,21.76,21.76,0,0,0,4.34-.64c-.87-.18-1.78-.35-2.69-.52a13.32,13.32,0,0,0,1.07-1.14h-2.8v-1h3.62a14.72,14.72,0,0,0,.83-1.22l1.21.34c-.18.29-.4.58-.62.88h3.21a4.83,4.83,0,0,0,.33-.64l1.17.34c0,.09-.1.2-.14.3h2.33v1ZM98,539.15H96.75v-2.59H102a7.49,7.49,0,0,0-.43-.85l1.26-.24a7.59,7.59,0,0,1,.58,1.09h5v2.59h-1.27v-1.56H98Zm8.31,3.3H98.79v-4.07h7.48ZM105,539.22h-5V540h5Zm0,1.58h-5v.82h5Zm-4.24,3.86c-.19.22-.38.42-.55.63.76.13,1.54.28,2.29.43a5.69,5.69,0,0,0,1.51-1.06Z" style="fill:#768e91"/><path d="M194.49,535c2.95-2.61,4.47-4.56,4.47-6.2a1.64,1.64,0,0,0-1.7-1.84,2.72,2.72,0,0,0-2,1.12l-.89-.87a3.92,3.92,0,0,1,3-1.5,2.83,2.83,0,0,1,3,3c0,1.93-1.54,3.93-3.66,5.95.52,0,1.14-.09,1.63-.09h2.5v1.33h-6.45Z" style="fill:#768e91"/><path d="M202.28,530.85c0-3.47,1.26-5.16,3.23-5.16s3.24,1.7,3.24,5.16-1.28,5.22-3.24,5.22S202.28,534.33,202.28,530.85Zm5,0c0-2.87-.72-3.92-1.74-3.92s-1.74,1.05-1.74,3.92.73,4,1.74,4S207.25,533.74,207.25,530.85Z" style="fill:#768e91"/><path d="M210,535c2.95-2.61,4.47-4.56,4.47-6.2a1.63,1.63,0,0,0-1.7-1.84,2.72,2.72,0,0,0-2,1.12l-.88-.87a3.9,3.9,0,0,1,3-1.5,2.83,2.83,0,0,1,3,3c0,1.93-1.53,3.93-3.66,5.95.52,0,1.15-.09,1.64-.09h2.5v1.33H210Z" style="fill:#768e91"/><path d="M217.74,535c2.95-2.61,4.47-4.56,4.47-6.2a1.63,1.63,0,0,0-1.69-1.84,2.74,2.74,0,0,0-2,1.12l-.88-.87a3.92,3.92,0,0,1,3.05-1.5,2.83,2.83,0,0,1,3,3c0,1.93-1.53,3.93-3.65,5.95.51,0,1.14-.09,1.63-.09h2.5v1.33h-6.46Z" style="fill:#768e91"/><path d="M237.83,534h-4.78v3h-1.3v-3h-6.19v-1.22h2.19v-3.59h4v-1.88h-3.12a12.19,12.19,0,0,1-1.95,2.58,12,12,0,0,0-1.1-.81,11.08,11.08,0,0,0,3-4.61l1.28.34-.53,1.28h7.87v1.22h-4.11v1.88h3.8v1.18h-3.8v2.41h4.78Zm-6.08-1.22v-2.41H229v2.41Z" style="fill:#768e91"/><path d="M239.66,534.6h2.19v-7h-1.79v-1a6,6,0,0,0,2.17-.77h1.19v8.72h2v1.29h-5.71Z" style="fill:#768e91"/><path d="M257.46,535.25c0,.82-.21,1.21-.76,1.42a9.06,9.06,0,0,1-2.91.25,5.32,5.32,0,0,0-.54-1.33c1.06.06,2.15,0,2.47,0s.41-.11.41-.4v-2.37H250a7.44,7.44,0,0,1-2.33,4.13,5,5,0,0,0-1-.93c2.12-1.82,2.32-4.48,2.32-6.62v-4.27h8.47Zm-1.33-3.63v-2h-5.84a18.11,18.11,0,0,1-.13,2Zm-5.84-5.23v2h5.84v-2Z" style="fill:#768e91"/></g></svg>