<svg xmlns="http://www.w3.org/2000/svg" viewBox="0 0 798 696"><g id="bdde94db-1dc9-4b53-87a5-eeed2c1f75a1" data-name="圖層 1"><rect width="798" height="696" style="fill:#fff"/><path d="M0,0H798a0,0,0,0,1,0,0V0a54,54,0,0,1-54,54H54A54,54,0,0,1,0,0V0A0,0,0,0,1,0,0Z" style="fill:#566c6c"/></g><g id="addb8be3-3956-45a0-96ac-d10c796435aa" data-name="圖層 2"><path d="M327,34.3h9.36v2.25H325.27V34.81l1.93-2.19c.94-1.07,1.64-1.85,2.07-2.35a23.54,23.54,0,0,0,2.9-3.85,6.51,6.51,0,0,0,.88-3.19,4.21,4.21,0,0,0-.86-2.75,2.87,2.87,0,0,0-2.33-1,5.08,5.08,0,0,0-1.27.16l-.58,2q-.37,1.74-1.5,1.74a1.4,1.4,0,0,1-1.34-.87,3.94,3.94,0,0,1,1.77-3,6.55,6.55,0,0,1,3.74-1.05,5.09,5.09,0,0,1,3.78,1.29,4.62,4.62,0,0,1,1.28,3.44,5.37,5.37,0,0,1-1.17,3.22,46.42,46.42,0,0,1-4.48,4.82l-1.47,1.46C327.9,33.44,327.37,34,327,34.3Z" style="fill:#fff"/><path d="M344.27,18.52a4.82,4.82,0,0,1,4,2.24q1.62,2.23,1.62,6.83t-1.62,7a4.78,4.78,0,0,1-4,2.29,4.86,4.86,0,0,1-4.09-2.29c-1.08-1.52-1.63-3.86-1.63-7s.55-5.34,1.65-6.83A4.89,4.89,0,0,1,344.27,18.52Zm-3.07,9.07c0,5.57,1,8.35,3.07,8.35s3-2.78,3-8.35-1-8.13-3-8.13S341.2,22.17,341.2,27.59Z" style="fill:#fff"/><path d="M354.07,34.3h9.35v2.25H352.31V34.81l1.94-2.19,2.07-2.35a23.39,23.39,0,0,0,2.89-3.85,6.4,6.4,0,0,0,.88-3.19,4.2,4.2,0,0,0-.85-2.75,2.87,2.87,0,0,0-2.33-1,5,5,0,0,0-1.27.16l-.59,2q-.37,1.74-1.5,1.74a1.4,1.4,0,0,1-1.33-.87,3.94,3.94,0,0,1,1.77-3,6.52,6.52,0,0,1,3.74-1.05,5.09,5.09,0,0,1,3.78,1.29,4.66,4.66,0,0,1,1.28,3.44,5.37,5.37,0,0,1-1.17,3.22,47.6,47.6,0,0,1-4.48,4.82l-1.48,1.46C355,33.44,354.41,34,354.07,34.3Z" style="fill:#fff"/><path d="M372.87,35.3l3.58.47v.78h-9.93v-.78l3.7-.47c0-1.9,0-3.35,0-4.33V20.59l-3.38.3V20l5.67-1.39.33.26-.07,3.82V31C372.82,31.92,372.84,33.37,372.87,35.3Z" style="fill:#fff"/><path d="M385.34,17.4l2.32,1.8a1.6,1.6,0,0,1-1,.5V34.58q0,.16-.66.42a3.15,3.15,0,0,1-1.17.26h-.35V33.59h-2.65v2.09c0,.06-.07.15-.21.26a2,2,0,0,1-.66.3,2.87,2.87,0,0,1-.93.14h-.33V17.66l2.43,1h2.11Zm-.87,1.92h-2.65v6.35h2.65Zm-2.65,13.57h2.65V26.38h-2.65Zm5.06-8.55h5.49V20.82h-4.62l-.19-.68h4.81v-3.7l3.09.28c0,.37-.34.6-.87.68v2.74H397l1.27-1.69a23.32,23.32,0,0,1,2.34,2c-.06.25-.27.37-.63.37h-5.35v3.52h3.05L399,22.58c1,.81,1.81,1.49,2.42,2-.07.25-.28.37-.64.37H387.07ZM398.2,28.2l1.18-1.57c.89.75,1.6,1.38,2.13,1.88-.05.25-.26.37-.63.37h-3.36v6.87a2.94,2.94,0,0,1-.59,2,4.34,4.34,0,0,1-2.59.82,2.38,2.38,0,0,0-.57-1.53,4.3,4.3,0,0,0-2.18-.79v-.36c1.77.13,2.83.19,3.19.19s.54-.15.54-.47V28.88h-8.18L387,28.2h8.37V25.44l3,.28c0,.31-.28.51-.78.61V28.2Zm-9.68,1.64.26-.14c2.06.58,3.34,1.46,3.82,2.63a1.49,1.49,0,0,1-.21,1.71,1.16,1.16,0,0,1-1.55.14,2,2,0,0,1-.28-.19A8.26,8.26,0,0,0,388.52,29.84Z" style="fill:#fff"/><path d="M408.77,24.22v1.45c1.8.66,2.88,1.53,3.24,2.6a1.3,1.3,0,0,1-.3,1.53,1,1,0,0,1-1.41-.07.16.16,0,0,0-.07-.07,8,8,0,0,0-1.46-3.36V37.88c0,.07-.07.15-.22.25a2.89,2.89,0,0,1-.67.3,2.64,2.64,0,0,1-.93.16h-.38V29.26a18.85,18.85,0,0,1-3.68,4.36l-.3-.28a23.92,23.92,0,0,0,3.68-9.12h-3.22l-.18-.7h3.7V19.67c-1.37.24-2.6.41-3.68.52l-.09-.33a32.34,32.34,0,0,0,3.82-1.66,23,23,0,0,0,3.14-1.88l2.65,2.18a1.43,1.43,0,0,1-1.39.07q-1.33.42-2.25.63v4.32h.54L410.46,22c.84.71,1.53,1.34,2.06,1.87a.6.6,0,0,1-.65.4Zm15.94,8.6h-5.48v4.29h2.25l1.33-1.71q1.49,1.17,2.37,2c-.05.25-.25.38-.61.38H411.35l-.19-.68H417V32.82h-5.72l-.16-.68H417v-3.3c-1.67.2-3.25.33-4.73.39l-.1-.37a48,48,0,0,0,5.13-1.49,36.58,36.58,0,0,0,4.34-1.75L424.08,28c-.3.23-.78.22-1.46,0-.92.2-2.05.41-3.39.61v3.61h2.48L423,30.48a25.75,25.75,0,0,1,2.34,2C425.26,32.7,425.05,32.82,424.71,32.82Zm-9.66-8.27v.7c0,.13-.2.27-.6.43a3.17,3.17,0,0,1-1.22.25h-.31V17.21l2.25.94H421l1.11-1.2,2.29,1.76a1.46,1.46,0,0,1-1,.49v5.7c0,.09-.24.23-.67.41a3,3,0,0,1-1.16.27h-.37v-1Zm6.17-5.72h-6.17v5h6.17Z" style="fill:#fff"/><path d="M436.45,27.15h-3.68a20.19,20.19,0,0,1-.25,2.81q3,1,3.84,2.84a1.59,1.59,0,0,1-.12,1.82,1,1,0,0,1-1.47.12l-.17-.12a7.93,7.93,0,0,0-2.2-3.93,11.49,11.49,0,0,1-5.28,7.9l-.28-.26a11.66,11.66,0,0,0,2.86-4.83,22.47,22.47,0,0,0,.89-6.35h-3.47l-.18-.7h3.65V21.76h-3l-.21-.66h3.21V16.39l3.05.31c-.05.37-.33.6-.84.68V21.1h.61l1.12-1.66c.89.78,1.59,1.43,2.09,1.94-.05.25-.26.38-.64.38H432.8v4.69h.93l1.18-1.76c.92.81,1.64,1.5,2.18,2.06A.58.58,0,0,1,436.45,27.15Zm12.26,5.76.07,3a1,1,0,0,1,.51.36,1.23,1.23,0,0,1,.1.55,1.13,1.13,0,0,1-.7,1.06,6.12,6.12,0,0,1-2.46.35h-1.36a2.13,2.13,0,0,1-1.53-.39,2.28,2.28,0,0,1-.35-1.48V30.43h-1.33a9.11,9.11,0,0,1-2.1,5.3,10.93,10.93,0,0,1-5.47,2.88l-.1-.33a9.86,9.86,0,0,0,3.85-2.82,8.43,8.43,0,0,0,1.52-4.09,2.92,2.92,0,0,1-1.59.37h-.4V17.14l2.46.94h5.48l1.1-1.31,2.25,1.73a1.76,1.76,0,0,1-1,.45V30.73c0,.05-.08.12-.23.22a3,3,0,0,1-.7.26,3.54,3.54,0,0,1-1,.13h-.39v-.91H445v5.32a.39.39,0,0,0,.08.28c.05,0,.18.07.39.07h1.8a.49.49,0,0,0,.4-.3,27.4,27.4,0,0,0,.73-2.89Zm-3.3-14.15h-5.89V21.9h5.89Zm-5.89,7h5.89V22.6h-5.89Zm0,3.94h5.89V26.49h-5.89Z" style="fill:#fff"/><path d="M463.27,20.42l.89-1.22a20.31,20.31,0,0,1,1.64,1.53c-.05.26-.25.39-.59.39H463v2.21c0,.09-.23.22-.68.4,1.16.92,1.8,1.44,1.92,1.57-.06.25-.26.37-.61.37h-5.15V27.2h3.07l1.15-1.41c.86.66,1.55,1.23,2.08,1.71-.06.25-.27.38-.63.38H451.05l-.18-.68h5.53V25.67h-4.67l-.21-.7h4.88v-1.5h-4.22l-.21-.7h4.43V21.12H451l-.19-.7h5.56V18.76h-4.08l-.21-.68h4.29V16.34l2.81.26a.82.82,0,0,1-.77.63v.85h2.36l1-1,2.06,1.52a1.54,1.54,0,0,1-.87.4v1.43ZM452,38.61,450.89,36q3.54,0,13.85-.61l0,.38q-3.87,1-12.07,2.41A1,1,0,0,1,452,38.61ZM461.34,35H461v-.56H454.2v.31s-.07.11-.19.19a2.17,2.17,0,0,1-.6.26,2.8,2.8,0,0,1-.88.13h-.3v-7.1l2.27.91h6.28l1-1.1,2.13,1.64a1.61,1.61,0,0,1-.91.47v4.31c0,.1-.22.21-.61.34A3.12,3.12,0,0,1,461.34,35Zm-4.75-5.18H454.2v1.6h2.39ZM454.2,32v1.67h2.39V32Zm4.24-13.26v1.66H461V18.76Zm2.58,4V21.12h-2.58v1.65Zm.25,2.2,1-1.22a3.32,3.32,0,0,1-1,.19H461v-.47h-2.58V25Zm-.25,4.8h-2.54v1.6H461Zm-2.54,3.92H461V32h-2.54Zm9.43-14.3V32.61c0,.11-.19.25-.55.41a2.78,2.78,0,0,1-1.09.25h-.4V18.45l2.88.28A.9.9,0,0,1,467.91,19.39ZM470,16.72l3,.3q-.07.57-.87.66V35.77a2.9,2.9,0,0,1-.58,2,3.94,3.94,0,0,1-2.45.82,2.5,2.5,0,0,0-.53-1.53,3.88,3.88,0,0,0-2.14-.79v-.38q2.51.21,3,.21c.37,0,.56-.16.56-.49Z" style="fill:#fff"/><rect x="56.39" y="213.53" width="685.61" height="0.75" style="fill:#566c6c"/><rect x="371.82" y="134.09" width="0.75" height="478.91" style="fill:#566c6c"/><rect x="556.97" y="134.09" width="0.75" height="159.91" style="fill:#566c6c"/><rect x="56.39" y="293.19" width="685.61" height="0.75" style="fill:#566c6c"/><rect x="56.39" y="372.86" width="685.61" height="0.75" style="fill:#566c6c"/><rect x="56.39" y="452.53" width="685.61" height="0.75" style="fill:#566c6c"/><rect x="56.39" y="532.19" width="685.61" height="0.75" style="fill:#566c6c"/><path d="M182.23,165.42l2.84.67c-.07.21-.37.34-.87.39a11,11,0,0,0,3.42,2.06,28.22,28.22,0,0,0,4.57,1.41v.3a1.79,1.79,0,0,0-.94.63,2.15,2.15,0,0,0-.48,1,18.68,18.68,0,0,1-2.05-.93l1.4,1.06a1.14,1.14,0,0,1-.54.24V176c0,.07-.18.17-.51.29a2.4,2.4,0,0,1-.86.19h-.28v-.59h-9.19v.22c0,.1-.08.2-.26.32l1.82.72h6l.82-.86,1.72,1.29a1,1,0,0,1-.57.29v4.68c0,.08-.2.2-.55.34a2.69,2.69,0,0,1-1,.22h-.3v-.91h-6.27v.4c0,.1-.17.22-.51.37a2.67,2.67,0,0,1-1,.21h-.24v-6.7a2,2,0,0,1-1,.26h-.28v-5.29c-.93.41-1.73.73-2.41,1l-.12-.26a21.31,21.31,0,0,0,4.67-3.15A10.75,10.75,0,0,0,182.23,165.42Zm5.57,6.2.74-.74a11.75,11.75,0,0,1-4.64-4.2,13.59,13.59,0,0,1-2.57,2.33,24.13,24.13,0,0,1-3.53,2.13l1.18.48Zm-9.06.54v3.17h3.81v-3.17Zm.73.33.2-.13c1.13.45,1.77,1,1.93,1.69a.8.8,0,0,1-.33.95.72.72,0,0,1-1-.17A4.2,4.2,0,0,0,179.47,172.49Zm7,5.2h-6.27v1.7h6.27Zm-6.27,3.95h6.27V180h-6.27Zm3.9-11.63.87-1a19.72,19.72,0,0,1,1.56,1.3c-.05.19-.21.29-.49.29H180.5l-.14-.55Zm1.22,5.32h2.62v-3.17H184.1v3.17h.73a24.15,24.15,0,0,0,1-3l2,.67c-.08.27-.32.39-.72.35A14.92,14.92,0,0,1,185.31,175.33Z" style="fill:#566c6c"/><path d="M195.2,183.16l-.12-.24a16,16,0,0,0,3.45-1.53,12.18,12.18,0,0,0,2.55-1.9l2.54,1.13c-.12.22-.46.31-1,.28A18.31,18.31,0,0,1,195.2,183.16Zm4-4.08v.55c0,.1-.17.23-.51.37a2.75,2.75,0,0,1-1,.21h-.28v-9.44l1.95.81h9l.9-1,1.92,1.48a1.36,1.36,0,0,1-.79.36v6.9c0,.07-.21.18-.58.31a2.79,2.79,0,0,1-1,.21h-.3v-.76Zm.68-9v.34c0,.05-.08.11-.23.2a2.67,2.67,0,0,1-.6.24,2.32,2.32,0,0,1-.71.11h-.24v-5.12l1.89.78h7.57l.88-1,1.89,1.41a1.26,1.26,0,0,1-.8.4v2.76c0,.06-.2.15-.56.26a3.23,3.23,0,0,1-.94.17h-.28V170Zm8.63,2.08h-9.31v1.71h9.31Zm0,4v-1.79h-9.31v1.79Zm-9.31,2.35h9.31v-1.8h-9.31Zm8.55-11.39h-7.87v2.37h7.87Zm-2.67,13,.11-.26q4.23,0,6,1.43.87.7.69,1.38c-.11.37-.43.53-1,.5h0a18,18,0,0,0-2.7-1.68A23,23,0,0,0,205.07,180.15Z" style="fill:#566c6c"/><path d="M215.47,183.18l-.24-.21a12,12,0,0,0,2.86-5l2.32,1c-.11.23-.37.33-.78.29A9.72,9.72,0,0,1,215.47,183.18Zm14.44-.06a2.15,2.15,0,0,0-.46-1.34,3,3,0,0,0-1.49-.51V181c1.2.07,1.92.11,2.17.11s.43-.13.43-.39v-4.78h-3.12a9.05,9.05,0,0,1-4.08,7.2l-.24-.19a10.08,10.08,0,0,0,2.5-5.34l-.28,0H215.4l-.15-.54h1.93v-7.94h-1.47l-.14-.53h1.61v-2.84l2.3.24q-.06.39-.63.48v2.12h2.84v-2.84l2.39.24a.7.7,0,0,1-.66.52v2.08h.09l.74-1.17a18.78,18.78,0,0,1,1.37,1.41c0,.2-.2.29-.48.29h-1.72v7.94h.07l.83-1.26a17.43,17.43,0,0,1,1.36,1.34,27.56,27.56,0,0,0,.22-3.88v-7.18l1.95.76h2.52l.84-1,1.87,1.44a1.36,1.36,0,0,1-.8.41V180.9a2.3,2.3,0,0,1-.44,1.57A3,3,0,0,1,229.91,183.12Zm-8.22-14h-2.84v2.12h2.84Zm-2.84,2.67v2.29h2.84V171.8Zm0,2.82v2.45h2.84v-2.45Zm2.1,3.66.18-.13c1.57.4,2.54,1,2.9,1.88a1.07,1.07,0,0,1-.18,1.27.85.85,0,0,1-1.18,0l-.09-.05a4.62,4.62,0,0,0-.58-1.56A7.84,7.84,0,0,0,221,178.28Zm6.55-2.93h3.06v-3.79h-3v1.69C227.55,174,227.53,174.64,227.5,175.35Zm3.06-7.94h-3V171h3Z" style="fill:#566c6c"/><path d="M243.82,177.43l1.13.35c-.08.22-.31.33-.66.32a7,7,0,0,1-1.4,2q1.47.66,1.65,1.59a.69.69,0,0,1-.38.86,1,1,0,0,1-.77,0,9.11,9.11,0,0,0-1.68-1.39,11.08,11.08,0,0,1-5.59,1.95l-.09-.3a9.91,9.91,0,0,0,4.66-2.32c-.81-.42-1.3-.66-1.49-.74l-.28.46-.26.43a2,2,0,0,1-1.57-.18c.29-.42.75-1.22,1.37-2.38l-1.67.21a.74.74,0,0,1-.54.37l-.52-1.75,3.34,0c.06-.15.16-.38.31-.67s.24-.51.29-.63h-1.38v.31s0,.09-.15.16a1.59,1.59,0,0,1-.46.19,2.09,2.09,0,0,1-.67.1h-.24v-4.21l.26.11v-2.54H235.9l-.15-.54H237v-2.6l1.78.7h1.24v-1.79l2.27.22c0,.3-.27.47-.69.54v1H243l.74-.76,1.6,1.19a1,1,0,0,1-.63.3v1.17h.11l.76-1a18.1,18.1,0,0,1,1.34,1.23c0,.2-.2.3-.49.3h-1.72v1.94c0,.08-.17.17-.47.27a2.46,2.46,0,0,1-.81.16h-.26v-.48h-1.58v1.24h1.67l.74-.76,1.54,1.17a.89.89,0,0,1-.59.28v2.15c0,.06-.17.15-.46.26a2.4,2.4,0,0,1-.8.17h-.26v-.52H241l.91.18c-.09.29-.35.42-.78.41,0,.11-.16.33-.33.65l5.62-.18,0,.33C245.27,177.22,244.4,177.35,243.82,177.43Zm-6.51-5.14h-.26l1.46.59h1.54v-1.24h-1.48v.28s0,.08-.15.14a2.32,2.32,0,0,1-.45.15A2.84,2.84,0,0,1,237.31,172.29Zm1,1.15v1.63h1.76v-1.63Zm.28-5.57v1.34h1.48v-1.34Zm1.48,1.88h-1.48v1.35h1.48Zm.21,8.14-.4.73-.4.72a12.18,12.18,0,0,1,2,.35,7.62,7.62,0,0,0,1.21-2.11l-.73.1-.9.11Zm3-10h-1.58v1.34h1.58Zm0,3.23v-1.35h-1.58v1.35Zm.26,2.34h-1.84v1.63h1.84Zm9.68-3.16h-.74a19.15,19.15,0,0,1-2.26,7.91,10.72,10.72,0,0,0,3.64,3.45l-.08.17a1.87,1.87,0,0,0-1.54,1.35,10.77,10.77,0,0,1-2.88-3.69,12.59,12.59,0,0,1-4.6,3.67l-.15-.22a13.55,13.55,0,0,0,4.12-4.88,24,24,0,0,1-1.31-5.83,13.27,13.27,0,0,1-1.54,2.3l-.28-.14a28.06,28.06,0,0,0,2.06-8.82l2.5.58c-.06.27-.29.41-.68.42a30.2,30.2,0,0,1-.93,3.18h2.28l1-1.34c.77.62,1.38,1.15,1.86,1.58A.46.46,0,0,1,253.15,170.28Zm-2.67,0h-2.21c-.1.24-.29.67-.59,1.3a19,19,0,0,0,1.6,5.07A21.88,21.88,0,0,0,250.48,170.28Z" style="fill:#566c6c"/><path d="M439.79,158.3h-.48a12,12,0,0,1-3.53,3.6l-.24-.19a14.21,14.21,0,0,0,1.77-2.75,19.39,19.39,0,0,0,1.35-3.46l2.3.85a.68.68,0,0,1-.73.33,9,9,0,0,1-.57,1.08h2.56l.91-1.19a17.39,17.39,0,0,1,1.61,1.43c0,.2-.19.3-.46.3h-3.66c.94.46,1.43,1,1.45,1.67a.82.82,0,0,1-.49.87.91.91,0,0,1-1.05-.24A3.87,3.87,0,0,0,439.79,158.3Zm10.43,8.51.94-.9,1.71,1.42a1.1,1.1,0,0,1-.71.28c-.19,2.42-.7,3.9-1.52,4.46a3.66,3.66,0,0,1-2,.5,1.76,1.76,0,0,0-.3-1.19,2.75,2.75,0,0,0-1.41-.58l0-.27,2,.11a1,1,0,0,0,.59-.13c.38-.31.66-1.36.84-3.14h-4.92v5.31s-.07.11-.18.17a1.85,1.85,0,0,1-.51.21,2.64,2.64,0,0,1-.76.1h-.3v-4.25a17.64,17.64,0,0,1-7.81,4.2l-.15-.25a17.13,17.13,0,0,0,3.86-2.4,14.08,14.08,0,0,0,2.84-3.09h-3.34c-.1.41-.21.85-.35,1.32a2.71,2.71,0,0,1-1.84,0c.58-1.85,1.07-3.68,1.45-5.47l1.91.89h3.43v-2.28h-6.1l-.17-.56h11.9l.83-.89,1.82,1.35a1.25,1.25,0,0,1-.71.36v3.13c0,.08-.19.18-.53.31a2.7,2.7,0,0,1-.93.19h-.32v-1.07h-4v2.2Zm-11,0h4.45v-2.2h-3.91s-.09.33-.22.89S439.31,166.49,439.23,166.81Zm11.38-9.05,1-1.26c.74.57,1.35,1.07,1.82,1.5q-.06.3-.51.3H448.3c.86.44,1.28,1,1.27,1.58a.82.82,0,0,1-.56.79.88.88,0,0,1-.95-.22,4.09,4.09,0,0,0-.83-2.15h-.84a11,11,0,0,1-2.65,2.49l-.22-.19a15.42,15.42,0,0,0,2.3-5.12l2.39.87c-.1.24-.34.35-.74.33-.3.51-.52.87-.67,1.08Zm-5.18,4v2.28h4v-2.28Z" style="fill:#566c6c"/><path d="M456.26,163.46h13.62l1.41-1.93c1.06.89,1.92,1.64,2.56,2.24-.05.21-.25.32-.59.32H456.45Z" style="fill:#566c6c"/><path d="M476.69,173.18l-.24-.21a12,12,0,0,0,2.85-5l2.32,1c-.11.23-.37.33-.78.29A9.75,9.75,0,0,1,476.69,173.18Zm14.43-.06a2.09,2.09,0,0,0-.46-1.34,2.93,2.93,0,0,0-1.49-.51V171c1.2.07,1.93.11,2.17.11s.43-.13.43-.39v-4.78h-3.12a9.05,9.05,0,0,1-4.08,7.2l-.24-.19a10.17,10.17,0,0,0,2.51-5.34l-.28,0h-9.95l-.15-.54h1.93v-7.94h-1.46l-.15-.53h1.61v-2.84l2.3.24q0,.39-.63.48v2.12h2.84v-2.84l2.4.24a.72.72,0,0,1-.67.52v2.08h.09l.74-1.17q.87.82,1.38,1.41c0,.2-.2.29-.49.29h-1.72v7.94h.07l.84-1.26c.53.48,1,.93,1.35,1.34a27.56,27.56,0,0,0,.22-3.88v-7.18l1.95.76h2.53l.83-1,1.87,1.44a1.33,1.33,0,0,1-.79.41V170.9a2.3,2.3,0,0,1-.45,1.57A3,3,0,0,1,491.12,173.12Zm-8.22-14h-2.84v2.12h2.84Zm-2.84,2.67v2.29h2.84V161.8Zm0,2.82v2.45h2.84v-2.45Zm2.1,3.66.19-.13c1.57.4,2.53,1,2.89,1.88a1.07,1.07,0,0,1-.18,1.27.84.84,0,0,1-1.17,0l-.1-.05a4.62,4.62,0,0,0-.58-1.56A7.84,7.84,0,0,0,482.16,168.28Zm6.55-2.93h3.06v-3.79h-3v1.69C488.77,164,488.75,164.64,488.71,165.35Zm3.06-7.94h-3V161h3Z" style="fill:#566c6c"/><path d="M426.46,186.23a7.41,7.41,0,0,1,3.89-6.59l.23.26a8.23,8.23,0,0,0,0,12.66l-.23.26A7.42,7.42,0,0,1,426.46,186.23Z" style="fill:#566c6c"/><path d="M433,181.22h6.36v.84l-3.64,9.49h-1.33l-.15-.14,4.27-8.86H433Z" style="fill:#566c6c"/><path d="M441.25,194l4.14-13.47h.91L442.17,194Z" style="fill:#566c6c"/><path d="M452.32,190.82l2.1.28v.45h-5.8v-.45l2.16-.28c0-1.11,0-1.95,0-2.53v-6l-2,.17v-.53l3.31-.81.19.15,0,2.23v4.84C452.3,188.85,452.3,189.69,452.32,190.82Z" style="fill:#566c6c"/><path d="M460.8,185.93a2.19,2.19,0,0,0,1.39.69q.9,0,1.08-1.53l.66.1a2.54,2.54,0,0,1-.53,1.6,1.61,1.61,0,0,1-1.3.55,2,2,0,0,1-.89-.2,4.82,4.82,0,0,1-.92-.65,2.1,2.1,0,0,0-1.38-.69c-.63,0-1,.51-1.09,1.52l-.67-.08a2.53,2.53,0,0,1,.53-1.61,1.64,1.64,0,0,1,1.31-.55A2.8,2.8,0,0,1,460.8,185.93Z" style="fill:#566c6c"/><path d="M467.1,191.82l-.1-.44a6.63,6.63,0,0,0,2.92-1.8,5.54,5.54,0,0,0,1.31-2.85,2.87,2.87,0,0,1-2,.72,2.91,2.91,0,0,1-3-3.09,3.19,3.19,0,0,1,3.35-3.35,3,3,0,0,1,2.46,1.12,4.85,4.85,0,0,1,.89,3.07,6.35,6.35,0,0,1-1.49,4.2A7.61,7.61,0,0,1,467.1,191.82Zm2.68-5.11a2.31,2.31,0,0,0,1.53-.56c0-.32,0-.64,0-1a5.88,5.88,0,0,0-.49-2.74,1.49,1.49,0,0,0-1.33-.89,1.52,1.52,0,0,0-1.28.67,3.11,3.11,0,0,0-.51,1.92,2.86,2.86,0,0,0,.56,1.89A1.85,1.85,0,0,0,469.78,186.71Z" style="fill:#566c6c"/><path d="M474.76,194l4.15-13.47h.9L475.68,194Z" style="fill:#566c6c"/><path d="M483.84,181.65l-.27,1c-.13.59-.42.89-.88.89a.69.69,0,0,1-.72-.48,2.13,2.13,0,0,1,1-1.56,3.52,3.52,0,0,1,2-.53,3.23,3.23,0,0,1,2.19.68,2.29,2.29,0,0,1,.79,1.83,2.38,2.38,0,0,1-.57,1.58,3.39,3.39,0,0,1-1.69,1,3.25,3.25,0,0,1,1.93,1,2.81,2.81,0,0,1-.33,3.89,3.84,3.84,0,0,1-2.55.81,3.64,3.64,0,0,1-2.09-.54,2.36,2.36,0,0,1-1-1.66.75.75,0,0,1,.75-.52.69.69,0,0,1,.55.23,1.91,1.91,0,0,1,.33.8l.25,1a3.49,3.49,0,0,0,.82.09,2.22,2.22,0,0,0,1.7-.64,2.81,2.81,0,0,0,0-3.5,2.3,2.3,0,0,0-1.75-.63h-.68v-.62h.58a2,2,0,0,0,2.2-2.22,2.1,2.1,0,0,0-.49-1.49,1.76,1.76,0,0,0-1.37-.52A3,3,0,0,0,483.84,181.65Z" style="fill:#566c6c"/><path d="M493.87,181a2.82,2.82,0,0,1,2.35,1.31,6.81,6.81,0,0,1,.95,4,7.13,7.13,0,0,1-.95,4.1,2.79,2.79,0,0,1-2.35,1.33,2.83,2.83,0,0,1-2.38-1.33,7.05,7.05,0,0,1-.95-4.1,6.81,6.81,0,0,1,.95-4A2.87,2.87,0,0,1,493.87,181Zm-1.79,5.29q0,4.88,1.79,4.87t1.77-4.87q0-4.74-1.77-4.74T492.08,186.32Z" style="fill:#566c6c"/><path d="M499.42,179.9l.23-.26a7.53,7.53,0,0,1,0,13.18l-.23-.26a8.23,8.23,0,0,0,0-12.66Z" style="fill:#566c6c"/><path d="M626.79,158.3h-.48a12,12,0,0,1-3.53,3.6l-.24-.19a14.21,14.21,0,0,0,1.77-2.75,19.39,19.39,0,0,0,1.35-3.46l2.3.85a.68.68,0,0,1-.73.33,9,9,0,0,1-.57,1.08h2.56l.91-1.19a17.39,17.39,0,0,1,1.61,1.43c0,.2-.19.3-.46.3h-3.66c.94.46,1.43,1,1.45,1.67a.82.82,0,0,1-.49.87.91.91,0,0,1-1.05-.24A3.87,3.87,0,0,0,626.79,158.3Zm10.43,8.51.94-.9,1.71,1.42a1.1,1.1,0,0,1-.71.28c-.19,2.42-.7,3.9-1.52,4.46a3.66,3.66,0,0,1-2,.5,1.76,1.76,0,0,0-.3-1.19,2.75,2.75,0,0,0-1.41-.58l0-.27,2,.11a1,1,0,0,0,.59-.13c.38-.31.66-1.36.84-3.14h-4.92v5.31s-.07.11-.18.17a1.85,1.85,0,0,1-.51.21,2.64,2.64,0,0,1-.76.1h-.3v-4.25a17.64,17.64,0,0,1-7.81,4.2l-.15-.25a17.13,17.13,0,0,0,3.86-2.4,14.08,14.08,0,0,0,2.84-3.09h-3.34c-.1.41-.21.85-.35,1.32a2.71,2.71,0,0,1-1.84,0c.58-1.85,1.07-3.68,1.45-5.47l1.91.89h3.43v-2.28h-6.1l-.17-.56h11.9l.83-.89,1.82,1.35a1.25,1.25,0,0,1-.71.36v3.13c0,.08-.19.18-.53.31a2.7,2.7,0,0,1-.93.19h-.32v-1.07h-4v2.2Zm-11,0h4.45v-2.2h-3.91s-.09.33-.22.89S626.31,166.49,626.23,166.81Zm11.38-9.05,1-1.26c.74.57,1.35,1.07,1.82,1.5q-.06.3-.51.3H635.3c.86.44,1.28,1,1.27,1.58a.82.82,0,0,1-.56.79.88.88,0,0,1-1-.22,4.09,4.09,0,0,0-.83-2.15h-.84a11,11,0,0,1-2.65,2.49l-.22-.19a15.42,15.42,0,0,0,2.3-5.12l2.39.87c-.1.24-.34.35-.74.33-.3.51-.52.87-.67,1.08Zm-5.18,4v2.28h4v-2.28Z" style="fill:#566c6c"/><path d="M643.35,169.78H657.1l1.3-1.7q1.47,1.14,2.34,1.95-.09.27-.54.27H643.5Zm1.8-10.66H655.3l1.26-1.66c1,.77,1.72,1.41,2.29,1.92q-.09.27-.54.27h-13Z" style="fill:#566c6c"/><path d="M663.69,173.18l-.24-.21a12,12,0,0,0,2.85-5l2.32,1c-.11.23-.37.33-.78.29A9.75,9.75,0,0,1,663.69,173.18Zm14.43-.06a2.09,2.09,0,0,0-.46-1.34,2.93,2.93,0,0,0-1.49-.51V171c1.2.07,1.93.11,2.17.11s.43-.13.43-.39v-4.78h-3.12a9.05,9.05,0,0,1-4.08,7.2l-.24-.19a10.17,10.17,0,0,0,2.51-5.34l-.28,0h-9.95l-.15-.54h1.93v-7.94h-1.46l-.15-.53h1.61v-2.84l2.3.24q0,.39-.63.48v2.12h2.84v-2.84l2.4.24a.72.72,0,0,1-.67.52v2.08h.09l.74-1.17q.87.82,1.38,1.41c0,.2-.2.29-.49.29h-1.72v7.94h.07l.84-1.26c.53.48,1,.93,1.35,1.34a27.56,27.56,0,0,0,.22-3.88v-7.18l1.95.76h2.53l.83-1,1.87,1.44a1.33,1.33,0,0,1-.79.41V170.9a2.3,2.3,0,0,1-.45,1.57A3,3,0,0,1,678.12,173.12Zm-8.22-14h-2.84v2.12h2.84Zm-2.84,2.67v2.29h2.84V161.8Zm0,2.82v2.45h2.84v-2.45Zm2.1,3.66.19-.13c1.57.4,2.53,1,2.89,1.88a1.07,1.07,0,0,1-.18,1.27.84.84,0,0,1-1.17,0l-.1-.05a4.62,4.62,0,0,0-.58-1.56A7.84,7.84,0,0,0,669.16,168.28Zm6.55-2.93h3.06v-3.79h-3v1.69C675.77,164,675.75,164.64,675.71,165.35Zm3.06-7.94h-3V161h3Z" style="fill:#566c6c"/><path d="M604.53,186.23a7.4,7.4,0,0,1,3.88-6.59l.23.26a8.23,8.23,0,0,0,0,12.66l-.23.26A7.41,7.41,0,0,1,604.53,186.23Z" style="fill:#566c6c"/><path d="M615.13,190.82l2.09.28v.45h-5.79v-.45l2.16-.28c0-1.11,0-1.95,0-2.53v-6l-2,.17v-.53l3.31-.81.19.15,0,2.23v4.84C615.11,188.85,615.11,189.69,615.13,190.82Z" style="fill:#566c6c"/><path d="M623.17,181a2.82,2.82,0,0,1,2.35,1.31,6.81,6.81,0,0,1,.94,4,7.14,7.14,0,0,1-.94,4.1,2.79,2.79,0,0,1-2.35,1.33,2.84,2.84,0,0,1-2.39-1.33,7.13,7.13,0,0,1-.95-4.1,6.73,6.73,0,0,1,1-4A2.87,2.87,0,0,1,623.17,181Zm-1.79,5.29c0,3.25.59,4.87,1.79,4.87s1.76-1.62,1.76-4.87-.59-4.74-1.76-4.74S621.38,183.16,621.38,186.32Z" style="fill:#566c6c"/><path d="M628.25,194l4.14-13.47h.91L629.17,194Z" style="fill:#566c6c"/><path d="M639.32,190.82l2.1.28v.45h-5.8v-.45l2.16-.28c0-1.11,0-1.95,0-2.53v-6l-2,.17v-.53l3.31-.81.19.15,0,2.23v4.84C639.3,188.85,639.31,189.69,639.32,190.82Z" style="fill:#566c6c"/><path d="M647.8,185.93a2.19,2.19,0,0,0,1.39.69q.9,0,1.08-1.53l.66.1a2.54,2.54,0,0,1-.53,1.6,1.61,1.61,0,0,1-1.3.55,2,2,0,0,1-.89-.2,4.82,4.82,0,0,1-.92-.65,2.1,2.1,0,0,0-1.38-.69c-.63,0-1,.51-1.09,1.52l-.67-.08a2.53,2.53,0,0,1,.53-1.61,1.64,1.64,0,0,1,1.31-.55A2.8,2.8,0,0,1,647.8,185.93Z" style="fill:#566c6c"/><path d="M657.58,190.82l2.1.28v.45h-5.8v-.45l2.16-.28c0-1.11,0-1.95,0-2.53v-6l-2,.17v-.53l3.31-.81.19.15,0,2.23v4.84C657.56,188.85,657.57,189.69,657.58,190.82Z" style="fill:#566c6c"/><path d="M663.45,190.23h5.45v1.32h-6.48v-1l1.13-1.28,1.21-1.38a13.72,13.72,0,0,0,1.69-2.24,3.78,3.78,0,0,0,.51-1.86,2.5,2.5,0,0,0-.5-1.61,1.68,1.68,0,0,0-1.36-.6,3.12,3.12,0,0,0-.74.09l-.34,1.19c-.14.68-.44,1-.87,1a.81.81,0,0,1-.78-.5,2.28,2.28,0,0,1,1-1.74,3.78,3.78,0,0,1,2.18-.61,3,3,0,0,1,2.21.75,2.75,2.75,0,0,1,.74,2,3.17,3.17,0,0,1-.68,1.88,29.71,29.71,0,0,1-2.61,2.81c-.16.14-.45.43-.86.85Z" style="fill:#566c6c"/><path d="M670.7,194l4.15-13.47h.9L671.62,194Z" style="fill:#566c6c"/><path d="M679.78,181.65l-.27,1c-.13.59-.42.89-.88.89a.69.69,0,0,1-.72-.48,2.13,2.13,0,0,1,1-1.56,3.52,3.52,0,0,1,2-.53,3.23,3.23,0,0,1,2.19.68,2.29,2.29,0,0,1,.79,1.83,2.38,2.38,0,0,1-.57,1.58,3.39,3.39,0,0,1-1.69,1,3.25,3.25,0,0,1,1.93,1,2.81,2.81,0,0,1-.33,3.89,3.86,3.86,0,0,1-2.55.81,3.64,3.64,0,0,1-2.09-.54,2.36,2.36,0,0,1-.95-1.66.75.75,0,0,1,.75-.52.69.69,0,0,1,.55.23,1.91,1.91,0,0,1,.33.8l.24,1a3.64,3.64,0,0,0,.83.09,2.24,2.24,0,0,0,1.7-.64,2.42,2.42,0,0,0,.61-1.72,2.48,2.48,0,0,0-.61-1.78,2.3,2.3,0,0,0-1.75-.63h-.68v-.62h.57a2,2,0,0,0,2.21-2.22,2.1,2.1,0,0,0-.49-1.49,1.76,1.76,0,0,0-1.37-.52A3,3,0,0,0,679.78,181.65Z" style="fill:#566c6c"/><path d="M690.71,190.82l2.1.28v.45H687v-.45l2.16-.28c0-1.11,0-1.95,0-2.53v-6l-2,.17v-.53l3.31-.81.19.15,0,2.23v4.84C690.69,188.85,690.7,189.69,690.71,190.82Z" style="fill:#566c6c"/><path d="M695.36,179.9l.23-.26a7.54,7.54,0,0,1,0,13.18l-.23-.26a8.23,8.23,0,0,0,0-12.66Z" style="fill:#566c6c"/><path d="M742.88,612.88H56.12V134.12H742.88Zm-686-.76H742.12V134.88H56.88Z" style="fill:#566c6c"/><path d="M178.33,253.2a12.18,12.18,0,0,1-4.83,7.44,7,7,0,0,0-1.25-1.19,9.88,9.88,0,0,0,4.08-5.15h-3.71v-1.5H177l.27-.05Zm9.1-1.38a41.66,41.66,0,0,1-4.32,3.52,10.5,10.5,0,0,0,4.91,3.91,7.09,7.09,0,0,0-1.1,1.39,11.8,11.8,0,0,1-5.88-5.93v5c0,.9-.21,1.36-.82,1.61a8.47,8.47,0,0,1-3,.29,5.34,5.34,0,0,0-.56-1.58c.94,0,2,0,2.26,0s.39-.1.39-.39V251h-4.48v-1.51H181v1.36a17,17,0,0,0,1.32,3.26,25.07,25.07,0,0,0,3.62-3.37Zm-4.93-2.09a29.55,29.55,0,0,0-6.19-2.31l.78-1.31a29.37,29.37,0,0,1,6.24,2.14Z" style="fill:#768e91"/><path d="M191.25,257.22a23.51,23.51,0,0,1-.83,4.36,5.76,5.76,0,0,0-1.19-.41A19.49,19.49,0,0,0,190,257Zm2.76-.69c0-.27-.11-.58-.17-.94-3.18.48-3.69.6-4,.78a8.31,8.31,0,0,0-.44-1.3c.35-.11.71-.51,1.2-1.16a18.92,18.92,0,0,0,1.19-1.75,8.26,8.26,0,0,0-2.07.37,11.64,11.64,0,0,0-.44-1.29c.3-.07.56-.41.88-.93a20.7,20.7,0,0,0,2-4.27l1.32.54a25.67,25.67,0,0,1-2.26,4.37l1.43-.12c.39-.73.8-1.53,1.14-2.29l1.22.71a31.27,31.27,0,0,1-3.43,5.41l2.07-.27c-.13-.51-.29-1-.44-1.5l1.09-.29a25.12,25.12,0,0,1,.93,3.55Zm-1.24.44a34.08,34.08,0,0,1,.44,3.89l-1.17.22a33.58,33.58,0,0,0-.36-3.92Zm1.47-.43a25.27,25.27,0,0,1,.89,3.1l-1.07.34a27.73,27.73,0,0,0-.84-3.15Zm7.31,2.69c1.21.43,2.49.94,3.32,1.31l-.65,1.12c-.9-.42-2.33-1.07-3.6-1.55l.51-.88h-2.75l.93.87c-1.29.59-2.94,1.22-4.13,1.66a6,6,0,0,0-.6-1.1,30.71,30.71,0,0,0,3.46-1.43h-2.49v-5H204v5ZM199.09,248h-4.18v-1.07h4.18v-.84h1.55v.84h4V248h-4v.75H204v1h-8.45v-1h3.52Zm-4.1,2.34h9.56v3.27H195Zm1.31,2.25h1.6v-1.23h-1.6Zm.66,3.16h5.56v-.61H197Zm0,1.29h5.56v-.63H197Zm0,1.34h5.56v-.68H197Zm3.62-5.79v-1.23h-1.47v1.23Zm2.59-1.23h-1.38v1.23h1.38Z" style="fill:#768e91"/><path d="M211.53,256l.29,1.45c-1.75.74-3.62,1.51-5.08,2.1l-.49-1.61c.58-.19,1.25-.44,2-.72v-5.57h-1.89v-1.5h1.89v-3.87h1.41v3.87h1.8v1.5h-1.8v5Zm10.37-3.35v1.43H211.43v-1.43h6.26a22.19,22.19,0,0,0,1.07-3.26l1.46.39c-.34.95-.75,2-1.1,2.87Zm-.56-3.28h-9.26V248H216a14.13,14.13,0,0,0-.44-1.73L217,246a16.71,16.71,0,0,1,.54,2h3.79Zm-8.5,6h7.72v6.22h-1.5V261h-4.77v.66h-1.45Zm1.18-2.79a11.58,11.58,0,0,0-.84-2.73l1.29-.39a12.87,12.87,0,0,1,.91,2.68Zm.27,4.2v2.82h4.77v-2.82Z" style="fill:#768e91"/><path d="M238,249.68s0,.56,0,.78c-.37,6.88-.7,9.4-1.44,10.27a2.09,2.09,0,0,1-1.57.78,20,20,0,0,1-2.7,0,3.83,3.83,0,0,0-.56-1.63c1.12.1,2.16.1,2.58.1a.92.92,0,0,0,.78-.26c.58-.54.94-2.87,1.23-8.43H231c-.26,3.5-1.41,7.62-6.24,10.47a7,7,0,0,0-1.22-1.27,10.92,10.92,0,0,0,5.78-9.2h-5.27v-1.61h5.35v-3.57h1.67v3.57Z" style="fill:#768e91"/><path d="M250.16,252.74v.13h4.89s0,.48,0,.7c-.21,4.84-.39,6.68-.94,7.29a1.65,1.65,0,0,1-1.31.65,19.54,19.54,0,0,1-2.34,0,3.42,3.42,0,0,0-.51-1.56c.92.09,1.78.1,2.14.1a.82.82,0,0,0,.66-.22c.33-.35.53-1.83.7-5.49h-3.33a9.44,9.44,0,0,1-4.37,7.35,6.57,6.57,0,0,0-1.19-1.09,8.69,8.69,0,0,0,4.05-7.91v-2.21H246v1.23h-1.85v4.55l2-.73.29,1.48c-2,.77-4.13,1.6-5.78,2.21l-.37-1.63,2.33-.8v-5.08h-2v-1.5h2v-3.87h1.53v3.87h1.8V249h10v1.51h-5.74Zm.42-3.84a21.24,21.24,0,0,0-.76-2.61l1.49-.32c.29.8.68,1.85.84,2.5Z" style="fill:#768e91"/><path d="M449,249.47h-5.88v-1.65h8.05V249c-2.94,3.68-3.4,6.43-3.6,11.32h-2C445.78,255.76,446.57,252.84,449,249.47Z" style="fill:#768e91"/><path d="M466,259.54c0,1-.28,1.51-1,1.76a11.07,11.07,0,0,1-3.63.33,7,7,0,0,0-.68-1.67c1.32.07,2.68.05,3.09,0s.51-.14.51-.5v-3H456.6a9.42,9.42,0,0,1-2.9,5.17,5.8,5.8,0,0,0-1.21-1.16c2.65-2.28,2.91-5.61,2.91-8.28v-5.34H466ZM464.32,255v-2.52H457a22.76,22.76,0,0,1-.15,2.52ZM457,248.45V251h7.31v-2.52Z" style="fill:#768e91"/><path d="M475.49,257.36c-.32-.51-1-1.36-1.61-2.12v6.44h-1.64v-6.26a13,13,0,0,1-1.9,1.84,6.66,6.66,0,0,0-.8-1.55,15.09,15.09,0,0,0,4.37-5.29h-4V249H473a15.59,15.59,0,0,0-1.41-2.26l1.21-.7a14.4,14.4,0,0,1,1.51,2.23l-1.14.73h1.57l.23-.07.89.63a19,19,0,0,1-2,3.77v.15c.13.14.28.28.45.45a13.87,13.87,0,0,0,1.31-1.65l1.06.86c-.58.55-1.16,1.09-1.65,1.52.59.61,1.17,1.22,1.37,1.46Zm9.13-9.89s0,.59,0,.81c-.2,8.62-.39,11.53-1,12.39a1.78,1.78,0,0,1-1.39.84,15.94,15.94,0,0,1-2.45,0,3.42,3.42,0,0,0-.48-1.51c1,.08,1.84.08,2.23.08a.66.66,0,0,0,.66-.3c.53-.6.73-3.42.9-10.83h-2.82c-.25,5.93-1.05,10-4.15,12.7a7.6,7.6,0,0,0-1.24-1.23c3-2.24,3.62-6.12,3.79-11.47h-2.49v-1.51Z" style="fill:#768e91"/><path d="M624.89,258.72h2.74V250h-2.25v-1.24a7.62,7.62,0,0,0,2.72-1h1.48v10.9H632v1.61h-7.14Z" style="fill:#768e91"/><path d="M633.92,254c0-4.34,1.58-6.44,4-6.44s4,2.12,4,6.44-1.6,6.53-4,6.53S633.92,258.38,633.92,254Zm6.22,0c0-3.59-.9-4.9-2.18-4.9s-2.17,1.31-2.17,4.9.9,5,2.17,5S640.14,257.65,640.14,254Z" style="fill:#768e91"/><path d="M656.83,259.54c0,1-.27,1.51-1,1.76a11.14,11.14,0,0,1-3.64.33,6.6,6.6,0,0,0-.68-1.67c1.33.07,2.69.05,3.1,0s.51-.14.51-.5v-3h-7.72a9.38,9.38,0,0,1-2.91,5.17,6,6,0,0,0-1.2-1.16c2.65-2.28,2.9-5.61,2.9-8.28v-5.34h10.59ZM655.17,255v-2.52h-7.31a20.67,20.67,0,0,1-.16,2.52Zm-7.31-6.55V251h7.31v-2.52Z" style="fill:#768e91"/><path d="M666.34,257.36c-.33-.51-1-1.36-1.62-2.12v6.44h-1.63v-6.26a13.55,13.55,0,0,1-1.9,1.84,7.53,7.53,0,0,0-.8-1.55,15.07,15.07,0,0,0,4.36-5.29h-4V249h3.1a16.51,16.51,0,0,0-1.41-2.26l1.2-.7a14.53,14.53,0,0,1,1.52,2.23l-1.14.73h1.56l.24-.07.88.63a18.54,18.54,0,0,1-2,3.77v.15l.46.45a15,15,0,0,0,1.31-1.65l1,.86c-.58.55-1.15,1.09-1.65,1.52.6.61,1.18,1.22,1.38,1.46Zm9.12-9.89s0,.59,0,.81c-.21,8.62-.39,11.53-1,12.39a1.78,1.78,0,0,1-1.4.84,15.78,15.78,0,0,1-2.44,0,3.55,3.55,0,0,0-.48-1.51c1,.08,1.84.08,2.23.08a.66.66,0,0,0,.66-.3c.53-.6.73-3.42.9-10.83h-2.82c-.26,5.93-1.06,10-4.15,12.7a8,8,0,0,0-1.24-1.23c2.94-2.24,3.62-6.12,3.79-11.47H667v-1.51Z" style="fill:#768e91"/><path d="M122.38,332.05a9.88,9.88,0,0,0,6.8,6.1,6,6,0,0,0-1.07,1.46,11,11,0,0,1-6.82-6.29c-.85,2.38-2.74,4.71-6.8,6.31a5.55,5.55,0,0,0-1-1.35c4.15-1.59,5.82-4,6.46-6.23h-6v-1.62h6.27a13.67,13.67,0,0,0,.08-1.65v-1.85h-5.74V325.3H127.9v1.63h-6v1.87c0,.51,0,1.07-.07,1.63h6.72v1.62Z" style="fill:#768e91"/><path d="M138.75,326.91v2.88l.29-.34a40,40,0,0,1,5.91,3.46l-1.15,1.45a37.7,37.7,0,0,0-5.05-3.27v8.55h-1.68V326.91h-6.31V325.3h15v1.61Z" style="fill:#768e91"/><path d="M152.54,334.39c0-.25-.11-.53-.17-.85-3.51.51-4.07.65-4.41.83a13,13,0,0,0-.47-1.42c.37-.09.74-.5,1.26-1.11a17.19,17.19,0,0,0,1.24-1.7,9.23,9.23,0,0,0-2.15.39,12.87,12.87,0,0,0-.46-1.36c.31-.07.58-.41.94-.92a19.44,19.44,0,0,0,2.12-4.21l1.42.58a27,27,0,0,1-2.49,4.3l1.5-.12a22.32,22.32,0,0,0,1.19-2.21l1.32.78a30.89,30.89,0,0,1-3.62,5.25l2.28-.29c-.15-.51-.32-1-.51-1.51l1.18-.32a24.22,24.22,0,0,1,1.08,3.45Zm-3.06.83a21.14,21.14,0,0,1-.84,4.25,6.51,6.51,0,0,0-1.24-.47,17.32,17.32,0,0,0,.77-4Zm1.68-.23a33,33,0,0,1,.46,3.51l-1.24.26a32.28,32.28,0,0,0-.41-3.55Zm1.6-.48a21.34,21.34,0,0,1,.83,2.74l-1.14.39a23.47,23.47,0,0,0-.78-2.79ZM163,337.84v1.45h-9.64v-1.45h4.08V335H154.2v-1.41h8.11V335H159v2.85Zm-7.38-4.71a17.57,17.57,0,0,0-2-3.33,26.6,26.6,0,0,0,1.76-3.09l1.36.34a30.3,30.3,0,0,1-1.65,2.72,18.46,18.46,0,0,1,1.82,2.82Zm7.19-6.85h-9v-1.41h9Zm-3.19.79c-.48.86-1.11,1.88-1.67,2.68a17.49,17.49,0,0,1,1.85,2.77l-1.25.56a16.73,16.73,0,0,0-2.11-3.29,27.06,27.06,0,0,0,1.82-3.06Zm1.9,6.06a16.7,16.7,0,0,0-2.24-3.33,27.38,27.38,0,0,0,1.87-3.09l1.37.36c-.51.86-1.15,1.88-1.71,2.7a18.45,18.45,0,0,1,2,2.77Z" style="fill:#768e91"/><path d="M166.9,331.81a15,15,0,0,0-2.55-1.94l.77-.94a16.39,16.39,0,0,1,2.6,1.82Zm-2.35,6.85c.62-1.28,1.5-3.44,2.16-5.29l1,.77c-.57,1.73-1.34,3.74-2,5.28Zm2.71-11.25a14.73,14.73,0,0,0-2.45-2.25l.83-.9a14.52,14.52,0,0,1,2.5,2.16Zm9.5,5.09h1.48v7.2h-1.48v-2.5h-5.88a4.65,4.65,0,0,1-1.84,2.51,6.81,6.81,0,0,0-1.17-.83,4.78,4.78,0,0,0,1.9-4.17V332.5h1.48v1h5.51Zm-6.19-3.31a4.59,4.59,0,0,1-1.94,3.35,2.94,2.94,0,0,0-.64-.83,3.48,3.48,0,0,0,1.51-2.52h-.87v-1h3.81v.46c-.07,2.09-.12,2.94-.37,3.25a1,1,0,0,1-.72.36,8.27,8.27,0,0,1-.93,0,3.14,3.14,0,0,0-.27-1,4.72,4.72,0,0,0,.73,0,.33.33,0,0,0,.29-.14,6.5,6.5,0,0,0,.18-1.95ZM173,327h-4.45v-1.27h4.69a10,10,0,0,0-.36-1.53l1.47-.19a10.19,10.19,0,0,1,.45,1.72h5V327h-4.57l1,.33c-.53.56-1.12,1.13-1.65,1.59h0v3.52h-1.18v-3.5h0v0a12.9,12.9,0,0,0,1.67-1.92h-2a5,5,0,0,1,.75,1.31l-.91.43a6,6,0,0,0-.69-1.4Zm3.76,9v-1.17h-5.51a8.13,8.13,0,0,1-.07,1.17Zm2.55-7.65a10.11,10.11,0,0,1-1,.47,5.26,5.26,0,0,0,1.67,2.78,3.15,3.15,0,0,0-.7.79,6.26,6.26,0,0,1-1.77-3.29c-.27.06-.54.15-.81.22v1.88l1.12-.32c0,.26.12.65.15.83a10.56,10.56,0,0,0-2.17.87v0a4.53,4.53,0,0,0-.48-1c.19-.12.41-.41.41-1.08v-1.87h0a10.1,10.1,0,0,0,2.68-1.06Z" style="fill:#768e91"/><path d="M186.76,328.17h-5.27v-1.26h2.61a14.28,14.28,0,0,0-1.22-2.29l1.22-.63a15.81,15.81,0,0,1,1.3,2.22l-1.26.7h2.62Zm-.38,10.52h-3.11v.77H182v-5.75h4.4Zm-.08-8.28h-4.22v-1.24h4.22Zm-4.22,1h4.22v1.21h-4.22Zm1.19,3.56v2.43h1.82V335Zm9.62-10.17c-.1.19-.2.34-.32.53a10.34,10.34,0,0,0,4.66,3.53,6.91,6.91,0,0,0-1.11,1.43,10.86,10.86,0,0,1-1.54-.88v.66h-5.7v-.73a15.05,15.05,0,0,1-1.7,1.16,5.9,5.9,0,0,0-.93-1.47,13.11,13.11,0,0,0,5.42-5Zm3.16,13.29c0,.62-.08,1-.42,1.21a2.75,2.75,0,0,1-1.51.26,4.6,4.6,0,0,0-.34-1.31h.81c.14,0,.17,0,.17-.18V336h-1.29v3.28h-1.12V336h-1.23v3.28H190V336h-1.2v3.76h-1.3v-8.4h8.55ZM190,334.66v-2h-1.2v2Zm3.71-5.91a11.92,11.92,0,0,1-2-2.21,15.68,15.68,0,0,1-2.11,2.21Zm-1.36,5.91v-2h-1.23v2Zm2.41,0v-2h-1.29v2Z" style="fill:#768e91"/><path d="M203.76,335.58c-1.67.68-3.44,1.43-4.85,2l-.53-1.61,2-.68v-5.61h-1.74v-1.5h1.74v-3.89h1.48v3.89h1.37v1.5h-1.37v5.06l1.56-.56Zm10.16,2.55v1.21H202.55v-1.21Zm-.12-11.44H203V325.5h4.58a8.33,8.33,0,0,0-.7-1.05l1.27-.6a6.65,6.65,0,0,1,1.08,1.65h4.6Zm-.75,5.95h-9.28V327.3h9.28Zm-8.77,4.85v-4.24h8.15v4.24Zm7.41-9.22h-6.62v3.4h6.62Zm-6,6.67h5.18v-.79h-5.18Zm0,1.64h5.18v-.79h-5.18Zm4.94-5.49h-4.62v-2.21h4.62Zm-1.1-1.46H207.1v.72h2.47Z" style="fill:#768e91"/><path d="M219.55,332.11c0-4.08,2.48-6.52,5.64-6.52a4.81,4.81,0,0,1,3.56,1.58l-1.08,1.25a3.31,3.31,0,0,0-2.44-1.12c-2.16,0-3.66,1.8-3.66,4.75s1.4,4.79,3.61,4.79a3.64,3.64,0,0,0,2.77-1.33l1.05,1.24a4.93,4.93,0,0,1-3.89,1.81C222,338.56,219.55,336.21,219.55,332.11Z" style="fill:#768e91"/><path d="M229.83,325.82h2l1.17,6.51.66,4h.07c.27-1.35.56-2.69.85-4l1.61-6.51H238l1.63,6.51c.29,1.31.56,2.66.85,4h.08c.21-1.36.43-2.71.63-4l1.19-6.51h1.89l-2.46,12.51h-2.44l-1.68-6.95c-.22-1-.41-1.92-.58-2.87H237c-.17.95-.38,1.89-.58,2.87l-1.65,6.95H232.4Z" style="fill:#768e91"/><path d="M246.31,325.82h7.39v1.65h-5.42V331h4.59v1.66h-4.59v4.05h5.61v1.66h-7.58Z" style="fill:#768e91"/><path d="M256.51,325.82h7.41v1.65h-5.44v3.83h4.62V333h-4.62v5.38h-2Z" style="fill:#768e91"/><path d="M278.62,334.61a9,9,0,0,1-3.45,2.88,33,33,0,0,0,5.53.71,5.83,5.83,0,0,0-.77,1.26,27.37,27.37,0,0,1-6.64-1.18,31.23,31.23,0,0,1-6.87,1.38,4.65,4.65,0,0,0-.56-1.22,31.28,31.28,0,0,0,5.57-.87,12.5,12.5,0,0,1-2.26-1.41,15.26,15.26,0,0,1-2.24,1.26,4.21,4.21,0,0,0-1-1.07,14,14,0,0,0,2.19-1.13,9.1,9.1,0,0,1-.88-1.07l1.16-.47a4.51,4.51,0,0,0,.69.85,7.6,7.6,0,0,0,1.23-1.26h-2.94v-6.34h4.4c.07-.27.12-.56.19-.83h-6.16v-1.3h14.33v1.3h-6.44c-.12.3-.22.57-.32.83h5.22v6.34h-6.5c-.2.27-.39.53-.61.8h5.92l.27-.07Zm-9.7-5.9H277v-.83h-8.11Zm0,1.81H277v-.85h-8.11Zm0,1.8H277v-.85h-8.11Zm1.22,3.09A11.93,11.93,0,0,0,273.3,337a10,10,0,0,0,3-1.77h-5.9Z" style="fill:#768e91"/><path d="M289.16,329.16a16.62,16.62,0,0,1-6,3.77,6.63,6.63,0,0,0-1-1.21,16,16,0,0,0,5.4-2.84h-5v-1.34h6.61v-1.39c-1.75.13-3.55.22-5.2.25a4.84,4.84,0,0,0-.35-1.26,64.76,64.76,0,0,0,10.84-1l1.31,1.13a39.72,39.72,0,0,1-5.05.78v1.51h6.73v1.34H292.8a38.65,38.65,0,0,1,5,3.3l-1,1.11a42.65,42.65,0,0,0-6.05-4.1v2.29h-1.55ZM290.8,335h6.66v1.36H290.8V338c0,.83-.21,1.21-.85,1.43a12.8,12.8,0,0,1-3.13.2,6.33,6.33,0,0,0-.55-1.37c1.13,0,2.27,0,2.57,0s.41-.08.41-.3v-1.65h-6.72V335h6.72v-1a18.06,18.06,0,0,0,2-.83h-5.8v-1.24h7.72l.34-.09,1,.83a16.66,16.66,0,0,1-3.65,2Z" style="fill:#768e91"/><path d="M304.63,334.27c-1.7.87-3.53,1.79-5,2.47l-.61-1.58c.61-.24,1.38-.56,2.21-.92v-5.07H299.4v-1.49h1.87v-3.44h1.46v3.44h1.72v1.49h-1.72v4.42l1.56-.71Zm3.3-2a9,9,0,0,1-.63,1h7.11s0,.39,0,.59c-.27,3.4-.52,4.73-1,5.24a1.48,1.48,0,0,1-1,.47,12.93,12.93,0,0,1-1.7,0,3.12,3.12,0,0,0-.36-1.28,11.12,11.12,0,0,0,1.33.07c.25,0,.39,0,.52-.18s.48-1.26.68-3.66h-1a11.76,11.76,0,0,1-3.41,5.17,5.49,5.49,0,0,0-1.14-.89,9.9,9.9,0,0,0,3.23-4.28h-1.34a13.14,13.14,0,0,1-4.05,4.44,4.17,4.17,0,0,0-1.05-.95,11.16,11.16,0,0,0,3.67-3.49H306.3a11.36,11.36,0,0,1-2.09,1.82,9.29,9.29,0,0,0-1.07-1,9.13,9.13,0,0,0,3.21-3.12h-2.18v-1.35H314.8v1.35Zm5.68-2.16h-7.85v-5.58h7.85Zm-1.46-4.44h-5v1.11h5Zm0,2.18h-5V329h5Z" style="fill:#768e91"/><path d="M544.56,335.22a3.82,3.82,0,0,1,2.24-3.36v-.09a3.51,3.51,0,0,1-1.68-2.92,3.56,3.56,0,0,1,7.1.08,3.91,3.91,0,0,1-1.65,2.95V332a3.69,3.69,0,0,1,2.11,3.32c0,1.85-1.63,3.28-4,3.28S544.56,337.16,544.56,335.22Zm6.27,0c0-1.53-1.38-2.1-3.08-2.8a3.18,3.18,0,0,0-1.46,2.62,2.19,2.19,0,0,0,2.38,2.11A1.94,1.94,0,0,0,550.83,335.22Zm-.26-6.17a1.85,1.85,0,0,0-1.92-2,1.71,1.71,0,0,0-1.78,1.82c0,1.36,1.19,2,2.58,2.53A3.14,3.14,0,0,0,550.57,329.05Z" style="fill:#768e91"/><path d="M567.49,337.54c0,1-.28,1.51-1,1.76a11.07,11.07,0,0,1-3.63.33,7,7,0,0,0-.68-1.67c1.32.07,2.68.05,3.09,0s.51-.14.51-.5v-3H558.1a9.42,9.42,0,0,1-2.9,5.17,5.8,5.8,0,0,0-1.21-1.16c2.65-2.28,2.91-5.61,2.91-8.28v-5.34h10.59ZM565.82,333v-2.52h-7.31a22.76,22.76,0,0,1-.15,2.52Zm-7.31-6.55V329h7.31v-2.52Z" style="fill:#768e91"/><path d="M182.1,412.11c0-4.08,2.48-6.52,5.64-6.52a4.77,4.77,0,0,1,3.55,1.58l-1.07,1.25a3.31,3.31,0,0,0-2.44-1.12c-2.16,0-3.66,1.8-3.66,4.75s1.4,4.79,3.61,4.79a3.65,3.65,0,0,0,2.77-1.33l1.05,1.24a4.93,4.93,0,0,1-3.89,1.81C184.51,418.56,182.1,416.21,182.1,412.11Z" style="fill:#768e91"/><path d="M192.4,416.72l1.16-1.36a4.84,4.84,0,0,0,3.33,1.48c1.51,0,2.36-.72,2.36-1.77s-.85-1.49-2-2l-1.74-.75A3.59,3.59,0,0,1,193,409c0-2,1.74-3.45,4.12-3.45a5.37,5.37,0,0,1,3.79,1.58l-1,1.25a4,4,0,0,0-2.75-1.12c-1.28,0-2.11.62-2.11,1.62s1,1.48,2,1.88l1.72.74c1.48.63,2.55,1.54,2.55,3.38,0,2-1.67,3.64-4.41,3.64A6.23,6.23,0,0,1,192.4,416.72Z" style="fill:#768e91"/><path d="M210.45,418.33l-2.83-5h-2v5h-2V405.82h4.1c2.58,0,4.52.92,4.52,3.63a3.48,3.48,0,0,1-2.62,3.58l3.06,5.3Zm-4.86-6.62h1.89c1.82,0,2.8-.75,2.8-2.26s-1-2-2.8-2h-1.89Z" style="fill:#768e91"/><path d="M227.54,418.11c.46,0,.56-.27.61-2a4.36,4.36,0,0,0,1.29.56c-.13,2.19-.51,2.76-1.77,2.76h-2c-1.49,0-1.87-.41-1.87-1.82v-1.74a8.06,8.06,0,0,1-4.59,3.85,3.86,3.86,0,0,0-.9-1.2,6.87,6.87,0,0,0,4.83-4.91H220V409.9l-.08.09a4.42,4.42,0,0,0-.9-1v7.45h-3.25v1.29h-1.37V405.3H219v3.43a11.7,11.7,0,0,0,3-4.62l1.56.24c-.13.37-.3.74-.47,1.13h3.19l.27-.06,1.18.39a27.7,27.7,0,0,1-1.75,2.58h2.48v5.2h-3.27v4c0,.49.09.54.63.54Zm-11.75-11.4v3.4h1.87v-3.4Zm1.87,8.31v-3.54h-1.87V415Zm4.81-8.24a13.44,13.44,0,0,1-1.05,1.61h2.85a16.37,16.37,0,0,0,1.18-1.61Zm.92,5.57c.14-.85.2-1.77.26-2.72h-2.21v2.72Zm3.64-2.72h-1.94a25.36,25.36,0,0,1-.26,2.72H227Z" style="fill:#768e91"/><path d="M242.36,415.55a7.49,7.49,0,0,1-1.8,1.75c2,.46,3.89.95,5.29,1.39l-1.33,1a45.65,45.65,0,0,0-5.47-1.53,23.37,23.37,0,0,1-7.24,1.55,3.9,3.9,0,0,0-.62-1.28,27.63,27.63,0,0,0,5.43-.8l-3.37-.65a16.91,16.91,0,0,0,1.34-1.42h-3.5v-1.24h4.52c.39-.51.75-1.06,1-1.53l1.51.42c-.22.38-.49.73-.76,1.11h4a6.68,6.68,0,0,0,.41-.8l1.46.42-.17.38H246v1.24Zm-9.48-6.89h-1.52v-3.24h6.52a8.06,8.06,0,0,0-.53-1.06l1.56-.3a8.1,8.1,0,0,1,.73,1.36h6.24v3.24H244.3v-2H232.88Zm10.38,4.12h-9.35v-5.09h9.35Zm-1.54-4h-6.31v1h6.31Zm0,2h-6.31v1h6.31Zm-5.31,4.83c-.24.27-.47.52-.68.78l2.86.54a7,7,0,0,0,1.89-1.32Z" style="fill:#768e91"/><path d="M545.76,416a2.8,2.8,0,0,0,2.06.94c1.51,0,2.82-1.23,2.94-4.79a3.76,3.76,0,0,1-2.75,1.46c-2.09,0-3.51-1.31-3.51-3.93a3.82,3.82,0,0,1,3.73-4.11c2.39,0,4.33,1.93,4.33,6.06,0,4.93-2.24,6.91-4.66,6.91a4.28,4.28,0,0,1-3.19-1.33Zm5-5.33c-.19-2.47-1.13-3.59-2.49-3.59-1.07,0-1.92,1-1.92,2.6s.72,2.52,2,2.52A3,3,0,0,0,550.73,410.69Z" style="fill:#768e91"/><path d="M567.49,417.54c0,1-.28,1.51-1,1.76a11.07,11.07,0,0,1-3.63.33,7,7,0,0,0-.68-1.67c1.32.07,2.68.05,3.09,0s.51-.14.51-.5v-3H558.1a9.42,9.42,0,0,1-2.9,5.17,5.8,5.8,0,0,0-1.21-1.16c2.65-2.28,2.91-5.61,2.91-8.28v-5.34h10.59ZM565.82,413v-2.52h-7.31a22.76,22.76,0,0,1-.15,2.52Zm-7.31-6.55V409h7.31v-2.52Z" style="fill:#768e91"/><path d="M99.89,493.05a9.9,9.9,0,0,0,6.8,6.1,6.25,6.25,0,0,0-1.07,1.46,11,11,0,0,1-6.81-6.29C98,496.7,96.07,499,92,500.63a5.8,5.8,0,0,0-1-1.35c4.15-1.59,5.81-4,6.46-6.23h-6v-1.62h6.28a16.08,16.08,0,0,0,.08-1.65v-1.85H92.08V486.3h13.34v1.63h-6v1.87c0,.51,0,1.07-.07,1.63h6.72v1.62Z" style="fill:#768e91"/><path d="M116.27,487.91v2.88l.28-.34a39.57,39.57,0,0,1,5.92,3.46l-1.16,1.45a36.89,36.89,0,0,0-5-3.27v8.55h-1.69V487.91h-6.3V486.3h15v1.61Z" style="fill:#768e91"/><path d="M131,492.2a12.18,12.18,0,0,1-4.83,7.44,6.78,6.78,0,0,0-1.26-1.19A9.78,9.78,0,0,0,129,493.3h-3.7v-1.5h4.38l.27-.05Zm9.09-1.38a41.66,41.66,0,0,1-4.32,3.52,10.52,10.52,0,0,0,4.92,3.91,7.53,7.53,0,0,0-1.11,1.39,11.84,11.84,0,0,1-5.88-5.93v5.05c0,.9-.2,1.36-.81,1.61a8.51,8.51,0,0,1-3,.29,5.64,5.64,0,0,0-.56-1.58c.93,0,2,0,2.26,0s.39-.1.39-.39V490H127.5v-1.51h6.19v1.36a17,17,0,0,0,1.33,3.26,25.6,25.6,0,0,0,3.62-3.37Zm-4.93-2.09a29.34,29.34,0,0,0-6.19-2.31l.79-1.31a29.37,29.37,0,0,1,6.24,2.14Z" style="fill:#768e91"/><path d="M143.91,496.22a24.37,24.37,0,0,1-.83,4.36,6,6,0,0,0-1.19-.41,20.13,20.13,0,0,0,.78-4.17Zm2.75-.69c0-.27-.1-.58-.17-.94-3.18.48-3.69.6-4,.78a7.39,7.39,0,0,0-.44-1.3c.36-.11.72-.51,1.21-1.16a18.92,18.92,0,0,0,1.19-1.75,8.41,8.41,0,0,0-2.08.37,8.58,8.58,0,0,0-.44-1.29c.31-.07.56-.41.89-.93a20.82,20.82,0,0,0,2-4.27l1.33.54a25.67,25.67,0,0,1-2.26,4.37l1.42-.12c.39-.73.8-1.53,1.14-2.29l1.23.71a31.92,31.92,0,0,1-3.44,5.41l2.08-.27c-.14-.51-.29-1-.45-1.5l1.09-.29a26.75,26.75,0,0,1,.94,3.55Zm-1.24.44a34.08,34.08,0,0,1,.44,3.89l-1.17.22a33.58,33.58,0,0,0-.36-3.92Zm1.48-.43a27,27,0,0,1,.88,3.1l-1.07.34a25.62,25.62,0,0,0-.83-3.15Zm7.31,2.69c1.21.43,2.48.94,3.31,1.31l-.64,1.12c-.9-.42-2.33-1.07-3.61-1.55l.51-.88H151l.94.87c-1.3.59-2.95,1.22-4.14,1.66a5.94,5.94,0,0,0-.59-1.1,29.81,29.81,0,0,0,3.45-1.43h-2.48v-5h8.43v5ZM151.74,487h-4.18v-1.07h4.18v-.84h1.55v.84h4V487h-4v.75h3.38v1h-8.44v-1h3.51Zm-4.09,2.34h9.55v3.27h-9.55Zm1.31,2.25h1.59v-1.23H149Zm.66,3.16h5.56v-.61h-5.56Zm0,1.29h5.56v-.63h-5.56Zm0,1.34h5.56v-.68h-5.56Zm3.62-5.79v-1.23h-1.48v1.23Zm2.58-1.23h-1.37v1.23h1.37Z" style="fill:#768e91"/><path d="M174.44,496.92h-6v3.76h-1.63v-3.76h-7.73v-1.53h2.73V490.9h5v-2.34H163a15.28,15.28,0,0,1-2.45,3.23,13.7,13.7,0,0,0-1.38-1,13.72,13.72,0,0,0,3.71-5.76l1.6.42c-.21.53-.45,1.09-.67,1.6h9.85v1.53h-5.14v2.34h4.74v1.48h-4.74v3h6Zm-7.6-1.53v-3h-3.42v3Z" style="fill:#768e91"/><path d="M179,491.19c0,2.76-.21,6.78-1.62,9.47a6.58,6.58,0,0,0-1.43-.71c1.36-2.55,1.5-6.21,1.5-8.76v-4.52h6.41a13.22,13.22,0,0,0-.56-1.31l1.58-.37a14.14,14.14,0,0,1,.78,1.68h5.74v1.46H179Zm11.2,4a8.1,8.1,0,0,1-3.28,3.23,22.44,22.44,0,0,0,4.72.85,7.57,7.57,0,0,0-.92,1.36,20.14,20.14,0,0,1-5.62-1.36,24.27,24.27,0,0,1-5.7,1.28,4.9,4.9,0,0,0-.64-1.35,22.45,22.45,0,0,0,4.65-.8,9.21,9.21,0,0,1-2.44-2.15l.66-.26h-2.06v-1.26h9.37l.27-.05Zm-8.3-1.36v-2.72h-2.51v-1.27h2.51v-1.31h1.5v1.31H187v-1.31h1.55v1.31h2.6v1.27h-2.6v2.72Zm.66,2.16a7.94,7.94,0,0,0,2.61,1.8,8.09,8.09,0,0,0,2.68-1.8Zm.84-4.88v1.5H187v-1.5Z" style="fill:#768e91"/><path d="M206.94,487.67v12.94h-1.66v-1.12h-9.06v1.19h-1.58v-13h4.18a18.31,18.31,0,0,0,.83-2.66l2,.32c-.34.8-.71,1.63-1.07,2.34Zm-10.72,1.58v3.49h9.06v-3.49Zm9.06,8.66V494.3h-9.06v3.61Z" style="fill:#768e91"/><path d="M224,492.16a11.6,11.6,0,0,1-3.64,5.34,16.08,16.08,0,0,0,5.24,1.75,7.88,7.88,0,0,0-1,1.5,15.71,15.71,0,0,1-5.64-2.23,18.71,18.71,0,0,1-5.42,2.14,5.07,5.07,0,0,0-.92-1.46,17.79,17.79,0,0,0,5-1.72,12.78,12.78,0,0,1-3.05-4.35h-1.27c-.14,2.47-.63,5.42-2.19,7.48a6.36,6.36,0,0,0-1.3-1c1.77-2.35,1.94-5.71,1.94-8.14V487.3h5.71v-2.23h1.62v2.23h4.54l.27-.07,1.22.31a25.1,25.1,0,0,1-1.53,3.65l-1.46-.4a17.8,17.8,0,0,0,.82-2h-3.86v2.84h3.57l.29,0Zm-10.64-.51h4.11v-2.84h-4.11v2.84Zm2.87,1.48a10.6,10.6,0,0,0,2.79,3.45,9.54,9.54,0,0,0,2.84-3.45Z" style="fill:#768e91"/><path d="M242.3,493.56v1.13H227.24v-1.13h6.67v-.82h-5.49v-1h5.49v-.78h-5.09v-1h5.09v-.83h-6.65V488h6.65v-.81H229v-1h4.88V485h1.59v1.16h4.78V488h2v1.14h-2v1.84H235.5v.78h5.61v1H235.5v.82Zm-12.92,1.83h11v5.31h-1.6v-.5h-7.84v.51h-1.55Zm1.55,1v.85h7.84v-.85Zm7.84,2.74v-.9h-7.84v.9ZM235.5,488h3.22v-.81H235.5Zm0,2h3.22v-.83H235.5Z" style="fill:#768e91"/><path d="M247.37,493.74h-3.45v-1.43h3.45v-3.67h1.5v3.67h3.45v1.43h-3.45v3.67h-1.5Z" style="fill:#768e91"/><path d="M264.23,486.82a29.92,29.92,0,0,1,4.47,4.93l-1.32,1a13.63,13.63,0,0,0-1-1.39c-9.35.49-10.43.52-11.2.79a15.28,15.28,0,0,0-.51-1.54,3.16,3.16,0,0,0,1.39-1,26.82,26.82,0,0,0,3.76-4.71l1.58.68a32.92,32.92,0,0,1-4.06,4.69l7.9-.32c-.73-.82-1.51-1.63-2.24-2.31ZM256,493.44h11v7.2h-1.68v-.86h-7.74v.9H256Zm1.59,1.51v3.3h7.74V495Z" style="fill:#768e91"/><path d="M276.08,495.48a18.05,18.05,0,0,0-1.24-1.84v7h-1.53V493.9a18.12,18.12,0,0,1-2.11,3.84,7.82,7.82,0,0,0-.78-1.46,17.37,17.37,0,0,0,2.77-5.09h-2.33v-1.48h2.45v-2.27c-.73.13-1.46.23-2.14.32a4.77,4.77,0,0,0-.46-1.22,23.78,23.78,0,0,0,5.13-1.25l1.09,1.21a16.87,16.87,0,0,1-2.09.63v2.58h1.72v-.29h4v-.74h-3.13v-1h3.13V487h-3.47v-1h3.47v-.87h1.58v.87h3.69v1h-3.69v.73h3.28v1h-3.28v.74h4.08v1h-9.55v.73h-1.82V492c.56.49,1.85,1.83,2.16,2.21Zm9.23,2.48h-5.66l1.18.75a14.67,14.67,0,0,1-4.05,2,8,8,0,0,0-1-1,11.79,11.79,0,0,0,3.68-1.77h-1.8v-6.77h7.65Zm-1.48-5.75h-4.74v.92h4.74Zm0,1.89h-4.74V495h4.74Zm0,1.9h-4.74v.94h4.74Zm-.64,2c1.12.64,2.43,1.44,3.21,2l-1.38.77c-.66-.52-1.85-1.33-2.89-2Z" style="fill:#768e91"/><path d="M289.72,491.41h-1.5v-3.7h6.41v-.9H289V485.7h13v1.11h-5.74v.9h6.56v3.7h-1.58v-2.63h-5v3.7h-1.55v-3.7h-4.91Zm11.13,7.81c.87,0,1-.28,1.14-1.86a3.76,3.76,0,0,0,1.33.51c-.21,2-.65,2.59-2.37,2.59h-3.72c-2.09,0-2.67-.41-2.67-1.94v-.32h-3.33V499h-1.51v-6h11.52v5.17h-5.17v.3c0,.6.21.72,1.26.72Zm-11-7.76c1.07-.13,2.51-.35,4-.57l.06.93c-1.3.31-2.55.58-3.66.78Zm.93-2.51a19,19,0,0,1,3.11.83l-.42.9a22.4,22.4,0,0,0-3.15-.92Zm.46,5.18v1h3.33v-1Zm3.33,3v-1h-3.33v1Zm5.13-3h-3.62v1h3.62Zm0,3v-1h-3.62v1Zm1-4.47a26,26,0,0,0-3.95-.93l.34-.9a19.56,19.56,0,0,1,3.93.81Zm0-2.91a20.92,20.92,0,0,1-3.19.89l-.53-.77c.92-.22,2.26-.69,3.06-1Z" style="fill:#768e91"/><path d="M318.79,492.35a7.73,7.73,0,0,0-.38-.77c-1.73.14-2.7.21-3.3.28a18.38,18.38,0,0,0,5.39,2.29,7.34,7.34,0,0,0-1,1.24,16.89,16.89,0,0,1-7.16-4.13,15,15,0,0,1-6.81,4.25,8,8,0,0,0-.89-1.24,14.81,14.81,0,0,0,5.09-2.41l-.06-.12a17.6,17.6,0,0,0-3.75.35,11.06,11.06,0,0,0-.5-1.27,1.2,1.2,0,0,0,.63-.43,8.11,8.11,0,0,0,1.33-1.85l1.41.6a12.19,12.19,0,0,1-1.26,1.53l1.62-.07c-.16-.26-.29-.48-.44-.7l1.12-.36a12.56,12.56,0,0,1,.86,1.47,8.75,8.75,0,0,0,1.31-1.76l1.45.43c-.09.17-.19.34-.29.51a7.27,7.27,0,0,0,.68.68l0-.12a1,1,0,0,0,.54-.41,6,6,0,0,0,1-1.73l1.42.58a12,12,0,0,1-1,1.41l1.9-.1a6.66,6.66,0,0,0-.61-.77l1.12-.48a10.74,10.74,0,0,1,1.81,2.57ZM317,488.86c-.21-.23-.45-.49-.75-.78-7.58.33-8.43.31-9.06.51a11.87,11.87,0,0,0-.44-1.31,3.51,3.51,0,0,0,1.07-.42,14.1,14.1,0,0,0,2.9-1.91l1.4.72a22.9,22.9,0,0,1-2.3,1.46l5.15-.15c-.46-.38-.93-.73-1.39-1l1.17-.58a21.86,21.86,0,0,1,3.5,2.84Zm.91,7.77c-2.14,2.26-6,3.47-10.31,4.07a4.14,4.14,0,0,0-.73-1.28c4.09-.46,7.88-1.48,9.75-3.42Zm-2-1.71a18.85,18.85,0,0,1-7.43,3.19,5.16,5.16,0,0,0-.82-1.12c2.59-.49,5.51-1.45,7-2.67ZM314,493.3a17.65,17.65,0,0,1-5.42,2.53,5.48,5.48,0,0,0-.87-1,16,16,0,0,0,5.15-2.14Z" style="fill:#768e91"/><path d="M327.88,489.17h-6.1v-1.26h2.84a16,16,0,0,0-1.12-2.29l1.12-.63a16.09,16.09,0,0,1,1.17,2.22l-1.14.7h3.23Zm4.17.27c0,.78-.07,1.55-.12,2.3h4.5s0,.47,0,.69c-.22,5-.4,6.84-.91,7.47a1.63,1.63,0,0,1-1.19.62,14.47,14.47,0,0,1-2.13,0,4,4,0,0,0-.46-1.51c.8.08,1.58.08,1.87.08a.6.6,0,0,0,.61-.22c.33-.35.55-1.87.7-5.67h-3.11c-.36,3.06-1.24,5.74-3.6,7.51a4.24,4.24,0,0,0-1-1.09v.05h-3.52v.77h-1.24v-5.75h4.76v4.86c3-2.16,3.26-6.07,3.35-10.13h-2.21V488h3.91a19.87,19.87,0,0,0-.71-2.38l1.32-.38a14.79,14.79,0,0,1,.89,2.69l-.23.07h3.61v1.49Zm-4.85.73v1.24h-4.76v-1.24Zm-4.76,2.25h4.78v1.22h-4.78Zm3.5,3.57h-2.26v2.43h2.26Z" style="fill:#768e91"/><path d="M540.39,497.72h2.74V489h-2.25v-1.24a7.62,7.62,0,0,0,2.72-1h1.48v10.9h2.45v1.61h-7.14Z" style="fill:#768e91"/><path d="M549.37,498.2c3.68-3.27,5.59-5.7,5.59-7.75a2,2,0,0,0-2.13-2.3,3.4,3.4,0,0,0-2.46,1.39l-1.11-1.08a4.9,4.9,0,0,1,3.81-1.87,3.54,3.54,0,0,1,3.78,3.75c0,2.42-1.93,4.92-4.58,7.45.65-.07,1.43-.12,2-.12h3.13v1.66h-8.07Z" style="fill:#768e91"/><path d="M572.33,498.54c0,1-.27,1.51-1,1.76a11.14,11.14,0,0,1-3.64.33,6.6,6.6,0,0,0-.68-1.67c1.33.07,2.69.05,3.1,0s.51-.14.51-.5v-3H563A9.38,9.38,0,0,1,560,500.7a6,6,0,0,0-1.2-1.16c2.65-2.28,2.9-5.61,2.9-8.28v-5.34h10.59ZM570.67,494v-2.52h-7.31a20.67,20.67,0,0,1-.16,2.52Zm-7.31-6.55V490h7.31v-2.52Z" style="fill:#768e91"/><path d="M102.44,573.05a9.9,9.9,0,0,0,6.8,6.1,6.25,6.25,0,0,0-1.07,1.46,11,11,0,0,1-6.81-6.29c-.85,2.38-2.74,4.71-6.8,6.31a5.8,5.8,0,0,0-1-1.35c4.15-1.59,5.81-4,6.46-6.23H94v-1.62h6.28a16.08,16.08,0,0,0,.08-1.65v-1.85H94.62V566.3H108v1.63h-6v1.87c0,.51,0,1.07-.07,1.63h6.72v1.62Z" style="fill:#768e91"/><path d="M118.82,567.91v2.88l.28-.34a39.57,39.57,0,0,1,5.92,3.46l-1.16,1.45a36.89,36.89,0,0,0-5-3.27v8.55h-1.69V567.91h-6.3V566.3h15v1.61Z" style="fill:#768e91"/><path d="M132.6,575.39c0-.25-.1-.53-.17-.85-3.5.51-4.06.65-4.4.83a13.24,13.24,0,0,0-.48-1.42c.38-.09.75-.5,1.26-1.11a14.38,14.38,0,0,0,1.24-1.7,9.21,9.21,0,0,0-2.14.39,12.87,12.87,0,0,0-.46-1.36c.31-.07.58-.41.94-.92a20.42,20.42,0,0,0,2.12-4.21l1.41.58a26.94,26.94,0,0,1-2.48,4.3l1.5-.12a22.32,22.32,0,0,0,1.19-2.21l1.32.78a31.47,31.47,0,0,1-3.62,5.25l2.28-.29c-.15-.51-.32-1-.51-1.51l1.17-.32a25.74,25.74,0,0,1,1.09,3.45Zm-3.06.83a21.91,21.91,0,0,1-.83,4.25,6.51,6.51,0,0,0-1.24-.47,16.83,16.83,0,0,0,.76-4Zm1.69-.23a32.8,32.8,0,0,1,.45,3.51l-1.24.26a32.15,32.15,0,0,0-.4-3.55Zm1.59-.48a21.48,21.48,0,0,1,.84,2.74l-1.14.39a23.47,23.47,0,0,0-.78-2.79Zm10.24,3.33v1.45h-9.64v-1.45h4.08V576h-3.23v-1.41h8.11V576h-3.3v2.85Zm-7.38-4.71a17.17,17.17,0,0,0-2-3.33,26.8,26.8,0,0,0,1.77-3.09l1.36.34c-.46.87-1.1,1.9-1.65,2.72a19.26,19.26,0,0,1,1.82,2.82Zm7.19-6.85h-9v-1.41h9Zm-3.2.79a30.66,30.66,0,0,1-1.66,2.68,18.21,18.21,0,0,1,1.85,2.77l-1.26.56a16.62,16.62,0,0,0-2.1-3.29,26.84,26.84,0,0,0,1.81-3.06Zm1.91,6.06a16.8,16.8,0,0,0-2.25-3.33,24.71,24.71,0,0,0,1.87-3.09l1.38.36c-.51.86-1.16,1.88-1.72,2.7a18.6,18.6,0,0,1,2,2.77Z" style="fill:#768e91"/><path d="M147,572.81a15,15,0,0,0-2.55-1.94l.76-.94a15.52,15.52,0,0,1,2.6,1.82Zm-2.35,6.85c.61-1.28,1.5-3.44,2.16-5.29l1,.77c-.58,1.73-1.34,3.74-2,5.28Zm2.71-11.25a15.14,15.14,0,0,0-2.45-2.25l.83-.9a14.91,14.91,0,0,1,2.5,2.16Zm9.5,5.09h1.48v7.2h-1.48v-2.5H151a4.65,4.65,0,0,1-1.84,2.51,7.22,7.22,0,0,0-1.17-.83,4.8,4.8,0,0,0,1.9-4.17V573.5h1.48v1h5.51Zm-6.19-3.31a4.59,4.59,0,0,1-1.94,3.35,2.94,2.94,0,0,0-.64-.83,3.51,3.51,0,0,0,1.51-2.52h-.87v-1h3.81v.46c-.07,2.09-.12,2.94-.37,3.25a1,1,0,0,1-.72.36,8.36,8.36,0,0,1-.93,0,2.92,2.92,0,0,0-.28-1,4.83,4.83,0,0,0,.74,0,.31.31,0,0,0,.28-.14,5.93,5.93,0,0,0,.19-1.95Zm2.43-2.23h-4.45v-1.27h4.69a13.09,13.09,0,0,0-.36-1.53l1.46-.19a9.39,9.39,0,0,1,.46,1.72h5V568H155.3l1,.33c-.53.56-1.13,1.13-1.65,1.59h0v3.52h-1.17v-3.5h0l0,0a12.9,12.9,0,0,0,1.67-1.92h-2a4.69,4.69,0,0,1,.75,1.31l-.9.43a6.09,6.09,0,0,0-.7-1.4Zm3.76,9v-1.17h-5.51a9.88,9.88,0,0,1-.07,1.17Zm2.55-7.65c-.33.17-.67.32-1,.47a5.19,5.19,0,0,0,1.67,2.78,3.15,3.15,0,0,0-.7.79,6.26,6.26,0,0,1-1.77-3.29c-.27.06-.54.15-.82.22v1.88l1.13-.32c0,.26.12.65.15.83a10.86,10.86,0,0,0-2.18.87v0a4.07,4.07,0,0,0-.47-1c.19-.12.41-.41.41-1.08v-1.87h0a10.1,10.1,0,0,0,2.68-1.06Z" style="fill:#768e91"/><path d="M166.82,569.17h-5.27v-1.26h2.62a14.28,14.28,0,0,0-1.22-2.29l1.22-.63a14.76,14.76,0,0,1,1.29,2.22l-1.25.7h2.61Zm-.37,10.52h-3.11v.77h-1.29v-5.75h4.4Zm-.09-8.28h-4.21v-1.24h4.21Zm-4.21,1h4.21v1.21h-4.21Zm1.19,3.56v2.43h1.82V576ZM173,565.82c-.1.19-.2.34-.32.53a10.31,10.31,0,0,0,4.65,3.53,6.87,6.87,0,0,0-1.1,1.43,11,11,0,0,1-1.55-.88v.66H169v-.73a15.05,15.05,0,0,1-1.7,1.16,6.24,6.24,0,0,0-.94-1.47,13.14,13.14,0,0,0,5.43-5Zm3.16,13.29c0,.62-.08,1-.42,1.21a2.79,2.79,0,0,1-1.52.26,4.3,4.3,0,0,0-.34-1.31h.82c.14,0,.17,0,.17-.18V577h-1.29v3.28h-1.12V577h-1.23v3.28h-1.12V577h-1.21v3.76h-1.29v-8.4h8.55Zm-6.05-3.45v-2h-1.21v2Zm3.71-5.91a11.92,11.92,0,0,1-2-2.21,16.27,16.27,0,0,1-2.11,2.21Zm-1.36,5.91v-2h-1.23v2Zm2.41,0v-2h-1.29v2Z" style="fill:#768e91"/><path d="M183.82,576.58c-1.66.68-3.43,1.43-4.84,2l-.53-1.61,2-.68v-5.61h-1.73v-1.5h1.73v-3.89H182v3.89h1.38v1.5H182v5.06l1.57-.56ZM194,579.13v1.21H182.62v-1.21Zm-.12-11.44H183V566.5h4.57a7.33,7.33,0,0,0-.69-1l1.27-.6a6.33,6.33,0,0,1,1.07,1.65h4.61Zm-.75,5.95h-9.28V568.3h9.28Zm-8.77,4.85v-4.24h8.14v4.24Zm7.41-9.22h-6.63v3.4h6.63Zm-6,6.67H191v-.79H185.8Zm0,1.64H191v-.79H185.8Zm4.94-5.49h-4.62v-2.21h4.62Zm-1.1-1.46h-2.47v.72h2.47Z" style="fill:#768e91"/><path d="M195.79,573.11c0-4.08,2.48-6.52,5.65-6.52a4.8,4.8,0,0,1,3.55,1.58l-1.07,1.25a3.35,3.35,0,0,0-2.45-1.12c-2.16,0-3.66,1.8-3.66,4.75s1.4,4.79,3.61,4.79a3.64,3.64,0,0,0,2.77-1.33l1.05,1.24a4.92,4.92,0,0,1-3.89,1.81C198.21,579.56,195.79,577.21,195.79,573.11Z" style="fill:#768e91"/><path d="M206.08,566.82h2l1.17,6.51.66,4H210c.27-1.35.56-2.69.85-4l1.62-6.51h1.73l1.63,6.51c.29,1.31.56,2.66.85,4h.09c.2-1.36.42-2.71.63-4l1.18-6.51h1.89L218,579.33H215.6l-1.69-7c-.22-1-.41-1.92-.58-2.87h-.08c-.17,1-.37,1.89-.58,2.87l-1.65,7h-2.38Z" style="fill:#768e91"/><path d="M222.55,566.82h7.39v1.65h-5.42V572h4.59v1.66h-4.59v4h5.61v1.66h-7.58Z" style="fill:#768e91"/><path d="M232.75,566.82h7.41v1.65h-5.44v3.83h4.62V574h-4.62v5.38h-2Z" style="fill:#768e91"/><path d="M254.51,567.25a12.59,12.59,0,0,1-3.86,4.3,21,21,0,0,0,6.37,1.89,6.08,6.08,0,0,0-1,1.51,19.71,19.71,0,0,1-6.78-2.48,25.18,25.18,0,0,1-6.9,2.58,6,6,0,0,0-.76-1.49,22.24,22.24,0,0,0,6.22-2.08,12.19,12.19,0,0,1-2-2,18.63,18.63,0,0,1-2.6,2.16,5.29,5.29,0,0,0-1.07-1.23,14.6,14.6,0,0,0,5.1-5.35l1.7.34c-.26.44-.53.88-.84,1.33h5.15l.26-.07ZM245,577a67.43,67.43,0,0,1,8.6,2.33l-.73,1.5a65.37,65.37,0,0,0-8.56-2.55Zm2.13-2.9c1.82.44,4.54,1.22,5.95,1.75l-.7,1.41c-1.34-.53-4-1.4-5.93-1.94Zm-.15-6c-.12.14-.23.27-.33.41a10.67,10.67,0,0,0,2.48,2.21,11.45,11.45,0,0,0,3-2.62Z" style="fill:#768e91"/><path d="M265.41,570.16a16.66,16.66,0,0,1-6,3.77,6.63,6.63,0,0,0-1-1.21,15.77,15.77,0,0,0,5.4-2.84h-5v-1.34h6.62v-1.39c-1.75.13-3.56.22-5.21.25a4.84,4.84,0,0,0-.35-1.26,64.76,64.76,0,0,0,10.84-1l1.31,1.13A39.72,39.72,0,0,1,267,567v1.51h6.73v1.34H269a38.65,38.65,0,0,1,5,3.3l-1,1.11a42.08,42.08,0,0,0-6.05-4.1v2.29h-1.54ZM267,576h6.66v1.36H267V579c0,.83-.21,1.21-.85,1.43a12.8,12.8,0,0,1-3.13.2,6.29,6.29,0,0,0-.54-1.37c1.12,0,2.26,0,2.56,0s.41-.08.41-.3v-1.65h-6.71V576h6.71v-1a17.27,17.27,0,0,0,2-.83h-5.79v-1.24h7.71l.34-.09,1,.83a16.43,16.43,0,0,1-3.65,2Z" style="fill:#768e91"/><path d="M280.88,575.27c-1.7.87-3.54,1.79-5,2.47l-.61-1.58c.61-.24,1.38-.56,2.21-.92v-5.07h-1.87v-1.49h1.87v-3.44H279v3.44h1.72v1.49H279v4.42l1.57-.71Zm3.29-2a7.79,7.79,0,0,1-.63,1h7.11l0,.59c-.28,3.4-.53,4.73-1,5.24a1.48,1.48,0,0,1-1,.47,12.93,12.93,0,0,1-1.7,0,3.12,3.12,0,0,0-.36-1.28,11.12,11.12,0,0,0,1.33.07c.25,0,.39,0,.53-.18s.47-1.26.68-3.66h-1a11.77,11.77,0,0,1-3.42,5.17,5.49,5.49,0,0,0-1.14-.89,9.75,9.75,0,0,0,3.23-4.28H285.4a13,13,0,0,1-4,4.44,4.17,4.17,0,0,0-1.05-1,11.06,11.06,0,0,0,3.67-3.49h-1.43a11,11,0,0,1-2.09,1.82,8.53,8.53,0,0,0-1.07-1,9,9,0,0,0,3.21-3.12h-2.17v-1.35H291v1.35Zm5.68-2.16H282v-5.58h7.85Zm-1.46-4.44h-5v1.11h5Zm0,2.18h-5V570h5Z" style="fill:#768e91"/><path d="M295.82,573.74h-3.45v-1.43h3.45v-3.67h1.5v3.67h3.45v1.43h-3.45v3.67h-1.5Z" style="fill:#768e91"/><path d="M315.84,579.11c.46,0,.57-.27.62-2a4.14,4.14,0,0,0,1.29.56c-.14,2.19-.51,2.76-1.77,2.76h-2c-1.5,0-1.87-.41-1.87-1.82v-1.74a8.09,8.09,0,0,1-4.59,3.85,3.86,3.86,0,0,0-.9-1.2,6.84,6.84,0,0,0,4.82-4.91h-3.09V570.9l-.08.09a4.67,4.67,0,0,0-.9-1v7.45H304.1v1.29h-1.38V566.3h4.63v3.43a11.56,11.56,0,0,0,3-4.62l1.57.24c-.14.37-.31.74-.48,1.13h3.2l.27-.06,1.17.39a24.28,24.28,0,0,1-1.75,2.58h2.48v5.2h-3.26v4c0,.49.08.54.63.54Zm-11.74-11.4v3.4H306v-3.4ZM306,576v-3.54H304.1V576Zm4.81-8.24a14.78,14.78,0,0,1-1,1.61h2.85a16.33,16.33,0,0,0,1.17-1.61Zm.92,5.57c.13-.85.2-1.77.25-2.72h-2.21v2.72Zm3.63-2.72H313.4a25.36,25.36,0,0,1-.26,2.72h2.19Z" style="fill:#768e91"/><path d="M330.67,576.55a7.49,7.49,0,0,1-1.8,1.75c2,.46,3.89,1,5.28,1.39l-1.32,1a45.88,45.88,0,0,0-5.48-1.53,23.31,23.31,0,0,1-7.24,1.55,3.69,3.69,0,0,0-.61-1.28,27.52,27.52,0,0,0,5.42-.8c-1.08-.22-2.22-.44-3.36-.65a18.72,18.72,0,0,0,1.34-1.42h-3.5v-1.24h4.52c.39-.51.75-1.06,1-1.53l1.51.42c-.22.38-.49.73-.76,1.11h4a5.43,5.43,0,0,0,.4-.8l1.47.42-.17.38h2.9v1.24Zm-9.49-6.89h-1.51v-3.24h6.51a7,7,0,0,0-.53-1.06l1.57-.3a8.9,8.9,0,0,1,.73,1.36h6.24v3.24h-1.58v-1.95H321.18Zm10.39,4.12h-9.35v-5.09h9.35Zm-1.55-4h-6.3v1H330Zm0,2h-6.3v1H330Zm-5.3,4.83c-.24.27-.48.52-.68.78l2.86.54a7,7,0,0,0,1.88-1.32Z" style="fill:#768e91"/><path d="M516.64,578.2c3.69-3.27,5.59-5.7,5.59-7.75a2,2,0,0,0-2.12-2.3,3.42,3.42,0,0,0-2.47,1.39l-1.1-1.08a4.89,4.89,0,0,1,3.81-1.87,3.53,3.53,0,0,1,3.77,3.75c0,2.42-1.92,4.92-4.57,7.45.64-.07,1.43-.12,2-.12h3.13v1.66h-8.08Z" style="fill:#768e91"/><path d="M526.38,573c0-4.34,1.58-6.44,4-6.44s4,2.12,4,6.44-1.59,6.53-4,6.53S526.38,577.38,526.38,573Zm6.22,0c0-3.59-.9-4.9-2.17-4.9s-2.18,1.31-2.18,4.9.9,5,2.18,5S532.6,576.65,532.6,573Z" style="fill:#768e91"/><path d="M536,578.2c3.69-3.27,5.59-5.7,5.59-7.75a2,2,0,0,0-2.12-2.3,3.42,3.42,0,0,0-2.47,1.39l-1.1-1.08a4.89,4.89,0,0,1,3.81-1.87,3.53,3.53,0,0,1,3.77,3.75c0,2.42-1.92,4.92-4.57,7.45.64-.07,1.43-.12,2-.12h3.13v1.66H536Z" style="fill:#768e91"/><path d="M545.71,578.2c3.69-3.27,5.59-5.7,5.59-7.75a2,2,0,0,0-2.12-2.3,3.42,3.42,0,0,0-2.47,1.39l-1.1-1.08a4.89,4.89,0,0,1,3.81-1.87,3.53,3.53,0,0,1,3.77,3.75c0,2.42-1.92,4.92-4.57,7.45a20.27,20.27,0,0,1,2-.12h3.13v1.66h-8.08Z" style="fill:#768e91"/><path d="M570.82,576.92h-6v3.76h-1.63v-3.76h-7.73v-1.53h2.73V570.9h5v-2.34h-3.89a15.28,15.28,0,0,1-2.45,3.23,13.7,13.7,0,0,0-1.38-1,13.72,13.72,0,0,0,3.71-5.76l1.6.42c-.21.53-.44,1.09-.67,1.6H570v1.53h-5.14v2.34h4.74v1.48h-4.74v3h6Zm-7.6-1.53v-3H559.8v3Z" style="fill:#768e91"/><path d="M573.12,577.72h2.73V569h-2.24v-1.24a7.77,7.77,0,0,0,2.72-1h1.48v10.9h2.44v1.61h-7.13Z" style="fill:#768e91"/><path d="M595.37,578.54c0,1-.28,1.51-1,1.76a11.11,11.11,0,0,1-3.63.33,7,7,0,0,0-.68-1.67c1.32.07,2.68,0,3.09,0s.51-.14.51-.5v-3H586a9.42,9.42,0,0,1-2.9,5.17,5.8,5.8,0,0,0-1.21-1.16c2.65-2.28,2.91-5.61,2.91-8.28v-5.34h10.59ZM593.7,574v-2.52h-7.31a22.76,22.76,0,0,1-.15,2.52Zm-7.31-6.55V570h7.31v-2.52Z" style="fill:#768e91"/></g></svg>