<svg xmlns="http://www.w3.org/2000/svg" viewBox="0 0 798 696"><g id="b8e961c2-3148-4081-a986-ede2b1b74193" data-name="圖層 1"><rect width="798" height="696" style="fill:#fff"/><path d="M0,0H798a0,0,0,0,1,0,0V0a54,54,0,0,1-54,54H54A54,54,0,0,1,0,0V0A0,0,0,0,1,0,0Z" style="fill:#566c6c"/></g><g id="f77762e2-ca79-4f38-9c83-6d62061601e7" data-name="圖層 2"><path d="M382.17,16.58l2.3,2.18a1.46,1.46,0,0,1-1.06.33,52.81,52.81,0,0,1-3.25,5.48,8,8,0,0,1,2.43,2.72,6.62,6.62,0,0,1,.82,3,4.09,4.09,0,0,1-.73,2.65,3.23,3.23,0,0,1-2.5.94,3.74,3.74,0,0,0-.28-1.76,1.73,1.73,0,0,0-1-.49v6.28c0,.06-.07.14-.2.25a2.32,2.32,0,0,1-.63.3,2.74,2.74,0,0,1-.9.15h-.38V16.81l2.42,1h1.71Zm-2,14.76A.9.9,0,0,0,381,31a2.42,2.42,0,0,0,.24-1.23,8.18,8.18,0,0,0-1.69-5.11,62.1,62.1,0,0,0,1.48-6.14h-2.16V31.34Zm6.35-15,3.19,1.08c-.1.28-.4.41-.92.4a26.8,26.8,0,0,1-2.9,5.36l1.76.64a.91.91,0,0,1-.73.47V37.81c0,.13-.2.28-.56.47a2.39,2.39,0,0,1-1.13.28h-.37V24.5a16.1,16.1,0,0,1-2.3,2.3l-.28-.24a22.2,22.2,0,0,0,2.58-4.87A34.89,34.89,0,0,0,386.53,16.32Zm6,22.27a3,3,0,0,0-.6-1.86,3.24,3.24,0,0,0-1.86-.75v-.35c1.52.11,2.43.17,2.74.17s.52-.15.52-.45V23h-5.42l-.18-.68h5.6V16.65l3.09.3c-.08.39-.37.62-.89.68v4.71h.28l1-1.57c.75.74,1.34,1.36,1.78,1.88-.06.25-.27.37-.63.37h-2.44V35.56a3.41,3.41,0,0,1-.56,2.15A3.67,3.67,0,0,1,392.53,38.59Zm-4.45-13.06.28-.14c1.91,1,3.05,2.1,3.44,3.4a1.68,1.68,0,0,1-.25,1.85,1,1,0,0,1-1.43-.05l-.14-.11A12.33,12.33,0,0,0,388.08,25.53Z" style="fill:#fff"/><path d="M409.12,33.1l.12.31q-3.28,2-7.45,4.33a.93.93,0,0,1-.52.61l-1.52-2.41c1-.24,2.23-.6,3.8-1.08V27.71h-3.31l-.19-.7h3.5V24h-1.76l-.19-.66a13.8,13.8,0,0,1-2,1.78l-.31-.23a19.43,19.43,0,0,0,2.42-4.08,25.57,25.57,0,0,0,1.62-4.48l3,1c-.08.3-.39.46-.94.47,2.14.68,3.41,1.53,3.8,2.58a1.06,1.06,0,0,1-.31,1.38,1.05,1.05,0,0,1-1.38,0,10.53,10.53,0,0,0-2.37-3.4,20.61,20.61,0,0,1-3.47,5h3.92l1.12-1.53c.83.72,1.5,1.33,2,1.83-.06.25-.28.38-.66.38h-2.57v3h.84l1.1-1.57c.84.75,1.52,1.38,2,1.9-.07.25-.27.37-.61.37h-3.35v6.56C405.71,34.2,406.94,33.8,409.12,33.1Zm-8.53-4.19.31-.07a4.92,4.92,0,0,1,2,3.77,1.46,1.46,0,0,1-.73,1.45c-.37.19-.74.06-1.1-.37A12.55,12.55,0,0,0,400.59,28.91Zm5.79,4.68-.4-.16c.3-1.45.55-3.05.75-4.78l2.54.75a.87.87,0,0,1-.89.49A22.43,22.43,0,0,1,406.38,33.59Zm13.08-6.91,2.7,1.55c-.14.31-.46.39-.94.25A24.37,24.37,0,0,1,418,30.8a9.55,9.55,0,0,0,4.43,3.92l-.05.21a2.59,2.59,0,0,0-1.73,2.2A11,11,0,0,1,418,33.66a18.75,18.75,0,0,1-1.44-5.18v7.11a3.18,3.18,0,0,1-.6,2.08,3.44,3.44,0,0,1-2.4.89,2.74,2.74,0,0,0-.49-1.64,3.9,3.9,0,0,0-2.06-.75V35.8c1.57.11,2.54.16,2.88.16s.49-.14.49-.42V31.39c-2.15,2.52-3.53,4.1-4.12,4.76a.82.82,0,0,1-.33.75l-1.83-2.11c.78-.39,2.88-1.7,6.28-3.91V26.21h-4.94l-.19-.7h7.12l.47-2.58h-4.22c-.11.45-.23.9-.37,1.34a2.85,2.85,0,0,1-2.2.09,40.57,40.57,0,0,0,1.06-4c.38-1.72.63-3,.74-4l3,.35c-.1.39-.4.6-.92.64-.12.65-.21,1.1-.26,1.33h3.71l1-1.08,2.18,1.76a1.31,1.31,0,0,1-.82.31l-1,5.81h.86l1-1.62c.73.77,1.32,1.41,1.75,1.92,0,.27-.24.4-.58.4h-5.23v.42a12.53,12.53,0,0,0,1.22,3.78A31,31,0,0,0,419.46,26.68Zm-9.68.61.24-.14c1.75.56,2.78,1.33,3.11,2.32a1.15,1.15,0,0,1-.33,1.43,1.13,1.13,0,0,1-1.52-.12l0-.05A7.24,7.24,0,0,0,409.78,27.29Zm3-5h4.15l.49-2.84h-4C413.25,20.3,413,21.25,412.78,22.25Z" style="fill:#fff"/><path d="M181.71,112h9.73v2.56H179.91v-1.88c.53-.62,1.26-1.46,2.2-2.52l1.78-2a24.38,24.38,0,0,0,2.94-3.88,6.39,6.39,0,0,0,.83-3.2,4.31,4.31,0,0,0-.82-2.77,2.75,2.75,0,0,0-2.27-1,6,6,0,0,0-1.12.12l-.59,2.2q-.33,1.83-1.59,1.83a1.45,1.45,0,0,1-1.43-.91,4,4,0,0,1,1.82-3,6.94,6.94,0,0,1,3.94-1.09,5.45,5.45,0,0,1,4,1.3,4.72,4.72,0,0,1,1.33,3.51,5.18,5.18,0,0,1-1.29,3.28,46.7,46.7,0,0,1-4.81,4.69Z" style="fill:#566c6c"/><path d="M199.59,96.41a5.08,5.08,0,0,1,4.23,2.29c1.14,1.53,1.7,3.83,1.7,6.89s-.56,5.45-1.7,7a5,5,0,0,1-8.48,0c-1.13-1.55-1.7-3.88-1.7-7s.57-5.38,1.7-6.9A5.12,5.12,0,0,1,199.59,96.41Zm-2.88,9.18q0,8.44,2.88,8.44t2.86-8.44q0-8.3-2.86-8.29T196.71,105.59Z" style="fill:#566c6c"/><path d="M209.74,112h9.73v2.56H207.94v-1.88c.53-.62,1.26-1.46,2.2-2.52l1.78-2a24.38,24.38,0,0,0,2.94-3.88,6.4,6.4,0,0,0,.84-3.2,4.37,4.37,0,0,0-.82-2.77,2.78,2.78,0,0,0-2.28-1,6,6,0,0,0-1.12.12l-.59,2.2q-.33,1.83-1.59,1.83a1.45,1.45,0,0,1-1.43-.91,4,4,0,0,1,1.83-3,6.9,6.9,0,0,1,3.93-1.09,5.45,5.45,0,0,1,4,1.3,4.72,4.72,0,0,1,1.33,3.51,5.18,5.18,0,0,1-1.29,3.28,45.66,45.66,0,0,1-4.81,4.69Z" style="fill:#566c6c"/><path d="M227.62,96.41a5.11,5.11,0,0,1,4.24,2.29q1.69,2.3,1.69,6.89c0,3.11-.56,5.45-1.69,7a5,5,0,0,1-8.49,0c-1.13-1.55-1.7-3.88-1.7-7s.57-5.38,1.7-6.9A5.12,5.12,0,0,1,227.62,96.41Zm-2.88,9.18q0,8.44,2.88,8.44t2.86-8.44q0-8.3-2.86-8.29T224.74,105.59Z" style="fill:#566c6c"/><path d="M253.2,109.86l1.66-2.09c1.23,1,2.24,1.76,3,2.42-.06.25-.29.37-.68.37h-7.47v5.28c0,.07-.09.17-.27.29a3.49,3.49,0,0,1-.87.35,4.58,4.58,0,0,1-1.32.18h-.59v-6.1H235.57l-.19-.7h4.08v-7.74l3.31,1.25h3.91V98.63h-4.43a21.45,21.45,0,0,1-6.68,5.89l-.23-.22a26.51,26.51,0,0,0,3.27-4.69,31.94,31.94,0,0,0,2.56-5.81l4,1.53c-.14.33-.47.47-1,.42a18,18,0,0,1-1.4,2.2h9.94l1.66-2.06c1.22.91,2.23,1.7,3,2.37-.06.25-.29.37-.7.37h-6.91v4.74h2.41l1.55-2c1.19.88,2.13,1.62,2.83,2.23-.06.25-.29.37-.7.37h-6.09v5.84Zm-10.74,0h4.22V104h-4.22Z" style="fill:#566c6c"/><path d="M262.17,109.48V94.13h7.71v.94h-6.72v14.41Z" style="fill:#566c6c"/><path d="M292.2,104.56h-8.54q1.62,6.42,10.27,9.24l0,.3a2.75,2.75,0,0,0-2.46,2.6q-6.69-3.37-8.14-11.86a15.29,15.29,0,0,1-1,3.71,12.79,12.79,0,0,1-2,3.14,13.27,13.27,0,0,1-3.48,2.75,28.55,28.55,0,0,1-5.24,2.22l-.21-.38a21.74,21.74,0,0,0,4-2.47A12.68,12.68,0,0,0,278,111a12.92,12.92,0,0,0,1.51-3,17.66,17.66,0,0,0,.75-3.42h-7.43l-.19-.68h7.69c.12-1.31.19-3.43.19-6.37H272l-.22-.71h17.11l1.69-2.1c1.25,1,2.26,1.76,3,2.43-.06.25-.29.38-.7.38h-9.12c-.06,3.09-.16,5.22-.3,6.37h4.8l1.62-2.08c1.25,1,2.25,1.75,3,2.39C292.79,104.44,292.57,104.56,292.2,104.56Z" style="fill:#566c6c"/><path d="M312.94,96.64l1.78-2.25c1.31,1,2.37,1.87,3.16,2.56-.08.26-.3.39-.68.39h-9.56v3.85q4.78.51,6.54,2.69a2.2,2.2,0,0,1,.54,2.3,1.29,1.29,0,0,1-1.45.8,2.09,2.09,0,0,1-.71-.19,14.1,14.1,0,0,0-2.11-2.65,20.09,20.09,0,0,0-2.81-2.41v14.08c0,.08-.09.18-.28.31a3.66,3.66,0,0,1-.88.37,4.09,4.09,0,0,1-1.28.19h-.56V97.34h-9.05l-.21-.7Z" style="fill:#566c6c"/><path d="M334.38,109.51l0,4.12A10.72,10.72,0,0,1,329,115a9.27,9.27,0,0,1-6.69-2.48,9.07,9.07,0,0,1-2.59-6.87,8.87,8.87,0,0,1,2.69-6.83,9.47,9.47,0,0,1,6.71-2.5,10.16,10.16,0,0,1,5.06,1.34l-.05,4.15h-1.38l-1.06-4.1a5.56,5.56,0,0,0-2.15-.4,5.49,5.49,0,0,0-4.51,2.14,9.74,9.74,0,0,0-1.73,6.22c0,2.74.57,4.81,1.7,6.23a5.55,5.55,0,0,0,4.54,2.12,6.48,6.48,0,0,0,2.34-.45l1.06-4Z" style="fill:#566c6c"/><path d="M342.59,103.7l1.19.51a10.77,10.77,0,0,1,3.77,2.39,5.06,5.06,0,0,1-.69,7A7.5,7.5,0,0,1,342,115a9.78,9.78,0,0,1-5.41-1.4l.14-4h1.36l1,3.87a6.57,6.57,0,0,0,2.58.47,4.57,4.57,0,0,0,2.88-.83,2.8,2.8,0,0,0,1.05-2.31,2.9,2.9,0,0,0-.65-2,6.26,6.26,0,0,0-2.28-1.42l-1.1-.49a10.51,10.51,0,0,1-3.58-2.35,4.65,4.65,0,0,1-1.18-3.28,4.33,4.33,0,0,1,1.73-3.64,7.14,7.14,0,0,1,4.51-1.33,8.2,8.2,0,0,1,4.64,1.34l-.17,3.77h-1.33l-1-3.7a4.22,4.22,0,0,0-1.8-.35,4.09,4.09,0,0,0-2.61.77,2.63,2.63,0,0,0-1,2.18,2.91,2.91,0,0,0,.68,2A5.79,5.79,0,0,0,342.59,103.7Z" style="fill:#566c6c"/><path d="M365.13,113.54l2.11.16v.85a9.71,9.71,0,0,1-2.51.3,4.25,4.25,0,0,1-2.27-.49,2.3,2.3,0,0,1-1-1.69l-.87-3.7a4,4,0,0,0-1-2.17,3,3,0,0,0-2.11-.62h-1.31c0,3.3,0,5.73.07,7.31l2.32.21v.85h-8v-.85l2.28-.21q0-2.37.05-7.24v-1.17q0-4.86-.05-7.27l-2.28-.21v-.87h8.11a8.07,8.07,0,0,1,4.75,1.21,4.08,4.08,0,0,1,.47,6.2,6.59,6.59,0,0,1-3.72,1.59,4.55,4.55,0,0,1,2.71,1.13,5.32,5.32,0,0,1,1.21,2.65Zm-8.88-8.25H358a3.78,3.78,0,0,0,3-1.09,4.15,4.15,0,0,0,1-2.87,3.61,3.61,0,0,0-1-2.71,4,4,0,0,0-2.87-1h-1.76Q356.25,100.09,356.25,105.29Z" style="fill:#566c6c"/><path d="M377.55,94,382,95.14c-.06.3-.46.48-1.21.54q2.69,3.72,10.31,6.07l-.05.4a2.84,2.84,0,0,0-1.53,1,3.83,3.83,0,0,0-.81,1.72,21,21,0,0,1-5.07-3.85,14.56,14.56,0,0,1-3.23-5.1,23.09,23.09,0,0,1-5.25,5.52,30.69,30.69,0,0,1-7,4.23l-.19-.23a30.69,30.69,0,0,0,6-5.51A17.68,17.68,0,0,0,377.55,94Zm8.18,21.12,1.72-2.25c1.26,1,2.28,1.86,3,2.55-.06.25-.29.38-.68.38H368.58l-.19-.68h3.66v-10l3.63.3c-.05.38-.34.6-.87.68v9h3.35V100.55l3.82.33c0,.38-.34.61-.89.71v5.55h2.11l1.67-2.2c1.26,1,2.27,1.82,3,2.51-.06.25-.29.37-.68.37h-6.12v7.27Z" style="fill:#566c6c"/><path d="M413.62,109.53h-7.94a14.48,14.48,0,0,0,4,2.44,24.33,24.33,0,0,0,5,1.52l0,.28a2.36,2.36,0,0,0-1.29.78,3.37,3.37,0,0,0-.75,1.54,14.82,14.82,0,0,1-7.71-6.56h-.21V116c0,.07-.11.15-.28.25a3.24,3.24,0,0,1-.82.29,4.75,4.75,0,0,1-1.22.14H402v-5.41A24.06,24.06,0,0,1,392.6,116l-.16-.3a22.46,22.46,0,0,0,4.3-2.76,18.56,18.56,0,0,0,3.31-3.41h-7.17l-.18-.7H402v-2.35h-6.75l-.19-.68H402v-2.13h-7.93l-.21-.68h6.07a2,2,0,0,1-.49-.3,5.41,5.41,0,0,0-1.19-3.1h-5.51l-.19-.68h5a1.83,1.83,0,0,1-.85-.37,4.7,4.7,0,0,0-.49-1.91A6.52,6.52,0,0,0,395,95l.21-.14c2,.35,3.2,1,3.66,2.07a1.44,1.44,0,0,1-.26,1.66,1.28,1.28,0,0,1-.73.37h2.28V94.16l3.18.28c0,.31-.28.51-.75.58v3.89h1.67V94.16l3.23.28c0,.31-.3.51-.77.58v3.89h.7a24.19,24.19,0,0,0,1.59-4.26l3.38,1c-.11.35-.41.49-.91.42a19.5,19.5,0,0,1-3.45,2.79h2.41l1.43-1.66a32.13,32.13,0,0,1,2.63,2c-.06.24-.29.35-.68.35h-6.35l2.08.57c-.11.32-.41.46-.91.42a19.73,19.73,0,0,1-3.09,2.41h3.65l1.46-1.73q1.64,1.17,2.64,2c-.06.25-.28.37-.65.37h-7.9v2.13h3.66l1.38-1.61q1.57,1.09,2.55,1.92c-.06.25-.29.37-.68.37h-6.91v2.35h5.3l1.5-1.83c1.11.83,2,1.55,2.69,2.16C414.23,109.41,414,109.53,413.62,109.53Zm-7.54-9.94h-6.49a3.81,3.81,0,0,1,1.86,1.18,1.53,1.53,0,0,1,.39,1.33,1.36,1.36,0,0,1-.73.89h3.73A25.11,25.11,0,0,0,406.08,99.59Z" style="fill:#566c6c"/><path d="M421.36,96.38l3.84,1.53q-.21.51-1,.42a19.69,19.69,0,0,1-7.87,8.27l-.24-.21a24.3,24.3,0,0,0,3-4.46A30.21,30.21,0,0,0,421.36,96.38Zm7.9,11.14.23-.14c3.28,1.28,5.49,2.94,6.61,5a3.64,3.64,0,0,1,.42,3.28,1.34,1.34,0,0,1-1.5.91,2.36,2.36,0,0,1-1.17-.54,13.64,13.64,0,0,0-1.31-3.61q-4.11,1.36-12.68,3.36a1.25,1.25,0,0,1-.73.56l-1.45-3.71q1.31,0,4.5-.18A62.71,62.71,0,0,0,425.09,102l4,1c-.1.37-.41.56-.94.56a44.29,44.29,0,0,1-4.95,8.86q2.25-.12,9-.61A25,25,0,0,0,429.26,107.52Zm1-13.57,2.41,1.66a3.32,3.32,0,0,1-2.06.61,11.94,11.94,0,0,0,3.27,4.3,16,16,0,0,0,5.21,3l-.07.26a3.72,3.72,0,0,0-1.51,1,3.78,3.78,0,0,0-.9,1.53,15.56,15.56,0,0,1-4.18-4.37,18.32,18.32,0,0,1-2.45-5.9h-5.72l-.21-.65h5.29Z" style="fill:#566c6c"/><path d="M462.19,110.33l-.4,3.14c.8.81,1,1.51.66,2.11a1.55,1.55,0,0,1-1.06.63,3.26,3.26,0,0,1-1.42-.07,8.74,8.74,0,0,1-1.49-.54,13,13,0,0,1-7.12-9.16h-5.27v6c.92-.15,3.09-.57,6.51-1.24l0,.28q-3.51,1.91-9.72,4.48a1.15,1.15,0,0,1-.59.63l-1.94-3.18c.26,0,.73-.11,1.39-.23s1.16-.2,1.49-.24V94.65l3.16,1.19h10.74l1.31-1.43,2.74,2.09a1.47,1.47,0,0,1-.93.49v5.28c0,.11-.31.26-.88.45a4.68,4.68,0,0,1-1.51.3h-.5v-1.36h-3.86a19.09,19.09,0,0,0,.51,4.1h4l1.62-2c1.2.92,2.18,1.7,2.93,2.32-.06.25-.3.38-.7.38H454.2a9.59,9.59,0,0,0,5.53,6.47.68.68,0,0,0,.93-.21,22.34,22.34,0,0,0,1.25-2.44Zm-4.81-13.81H446.09V101h11.29Zm-11.29,9.24h5.13a22.65,22.65,0,0,1-.49-4.1h-4.64Z" style="fill:#566c6c"/><path d="M464.32,109.11l-.28-.35a5.83,5.83,0,0,0,1.43-2.56,16.28,16.28,0,0,0,.37-3.42h-1.31l-.21-.66h5.3V99.45h-1.85v.73c0,.06-.1.14-.3.22a3.81,3.81,0,0,1-.76.24,3.94,3.94,0,0,1-.87.1h-.44v-6l3.12.28c0,.31-.3.51-.75.59v3.18h1.85V94.16l3.4.32c-.07.35-.32.55-.78.61v12.59q0,.18-.72.48a3.71,3.71,0,0,1-1.41.29h-.49v-5.67h-1.36a9.22,9.22,0,0,1-1,3.73A6.53,6.53,0,0,1,464.32,109.11Zm18.87-6v2.07a3.22,3.22,0,0,1-.51,2,3.31,3.31,0,0,1-2.12.9,1.12,1.12,0,0,1,.51,1,1.15,1.15,0,0,1-.65.88h1.9l1.48-1.9c1.12.88,2,1.62,2.72,2.23-.07.25-.3.38-.71.38h-9.3q2.67,2.79,10.24,3l0,.25a3.07,3.07,0,0,0-2,2.72,17.29,17.29,0,0,1-5.57-2.11,9,9,0,0,1-3.34-3.86h-.35a6.23,6.23,0,0,1-1.54,2.48,9.93,9.93,0,0,1-3.42,2,31.67,31.67,0,0,1-6.2,1.52l-.16-.38a20.33,20.33,0,0,0,5.82-2.47,6.66,6.66,0,0,0,2.55-3.1h-7.78l-.19-.71h8.18a14.07,14.07,0,0,0,.37-2.76l3.75.28c-.06.39-.33.61-.82.66a15.72,15.72,0,0,1-.35,1.82h3.38l-.1,0a3.55,3.55,0,0,0-.69-1.2,4.47,4.47,0,0,0-1-.94l.16-.18a6.09,6.09,0,0,1,2.42.07,2.64,2.64,0,0,0-.4-1.27,2.14,2.14,0,0,0-1-.63,1.21,1.21,0,0,1-.74.77,1.48,1.48,0,0,1-1.28-.21,3.76,3.76,0,0,0-.63-1.48,5.57,5.57,0,0,0-1.17-1.24l.21-.19a5.42,5.42,0,0,1,2.75.6,1.7,1.7,0,0,1,.93,1.35l.62,0,.65,0h.39c.25,0,.38-.11.38-.33v-2H472.8l-.18-.68h7.9V100a29,29,0,0,1-7.69,2l-.19-.28q6.24-1.85,9.45-5.11h-4l-.68.36c1.2,0,1.9.36,2.08,1a.73.73,0,0,1-.39.93,1.06,1.06,0,0,1-1.2,0,2.73,2.73,0,0,0-1-1.57,16.18,16.18,0,0,1-1.81.75c1.24.14,1.94.51,2.11,1.12a.79.79,0,0,1-.44,1,1.13,1.13,0,0,1-1.38-.16,2.56,2.56,0,0,0-.87-1.69,17.27,17.27,0,0,1-1.69.47l-.16-.26a14.79,14.79,0,0,0,2.86-2.06A11.9,11.9,0,0,0,477.56,94l3.54.94c-.09.29-.49.44-1.19.44-.24.19-.5.38-.78.56h3.38l1.31-1.29,2.58,2.07c-.17.22-.56.33-1.15.33a16.57,16.57,0,0,1-4.62,2.9l3.35.31c0,.31-.31.51-.79.61v1.61h.42l1.19-1.66c.94.76,1.68,1.41,2.23,1.94a.57.57,0,0,1-.63.4Z" style="fill:#566c6c"/><path d="M495.89,101.38v15.35h-7.71v-.94h6.73V101.38Z" style="fill:#566c6c"/><path d="M516.7,95.63l2.77,2.65a1.71,1.71,0,0,1-1.13.38,19.76,19.76,0,0,1-4.19,4.4,33.61,33.61,0,0,0,9,2.28l0,.25a3.21,3.21,0,0,0-2.37,2.58,27.16,27.16,0,0,1-3.3-1l2.11,1.59a1.52,1.52,0,0,1-1,.57v6.49c0,.09-.33.23-.91.41a5.26,5.26,0,0,1-1.53.27h-.49v-1.78h-7.69v1c0,.14-.27.33-.8.55a4.15,4.15,0,0,1-1.63.34h-.43v-9.07a37.72,37.72,0,0,1-4.92,1.1l-.14-.3a31.29,31.29,0,0,0,10.48-5.56,14.24,14.24,0,0,1-2.6-3.58,22.48,22.48,0,0,1-6.64,4.87l-.18-.25a21.65,21.65,0,0,0,4-4.42A23.79,23.79,0,0,0,508,94l3.91,1c-.12.27-.45.39-1,.38a23.79,23.79,0,0,1-1.39,2h5.25Zm-1.33,12.45,1.15-1.31a20.26,20.26,0,0,1-4.27-2.39,28.46,28.46,0,0,1-6.21,2.88l2.06.82Zm-7.46,5.9h7.69v-5.22h-7.69Zm6.85-16H509a4.46,4.46,0,0,0-.36.4,4.15,4.15,0,0,0-.36.42,12.33,12.33,0,0,0,3.39,3A18.7,18.7,0,0,0,514.76,98Z" style="fill:#566c6c"/><path d="M531.63,104.82l-1,.38V116c0,.06-.08.14-.24.25a2.66,2.66,0,0,1-.73.29,4.18,4.18,0,0,1-1.07.14h-.45v-7.83a.6.6,0,0,1-.23,0,13.28,13.28,0,0,1-3.45,5.71l-.35-.18a23.86,23.86,0,0,0,1.55-6.82l2.48.61V106l-1.24.38-1.29.41a.75.75,0,0,1-.65.52l-.8-2.74,2.67-.1a77.12,77.12,0,0,0,3.8-7.29l3.16,1.43c-.14.3-.47.42-1,.35a56.76,56.76,0,0,1-5,5.44c1.21,0,2.43-.12,3.65-.21a15,15,0,0,0-1-2l.26-.16q2.88,1.09,3.49,2.9a1.73,1.73,0,0,1-.3,1.86,1.13,1.13,0,0,1-1.57.09,2.64,2.64,0,0,1-.29-.21A7,7,0,0,0,531.63,104.82Zm-3.7-10.66,3.47,1.33c-.14.33-.47.46-1,.4a24.65,24.65,0,0,1-3,3.23,1.84,1.84,0,0,1,.71,2,1.12,1.12,0,0,1-1.06.79,1.73,1.73,0,0,1-1-.37,7.36,7.36,0,0,0-1.87-3.63l.21-.14a8.16,8.16,0,0,1,2.27.79C527.26,96.69,527.68,95.22,527.93,94.16Zm2.79,13.36.28-.12q2.7,1.3,3.12,3.14a1.66,1.66,0,0,1-.5,1.78,1.15,1.15,0,0,1-1.61-.09l-.19-.17A11,11,0,0,0,530.72,107.52Zm13.78,7.87,1-1.57a22.9,22.9,0,0,1,1.74,1.9.57.57,0,0,1-.61.4H532.27l-.19-.68h2.58V95.14l3,1.13h3.89l1.41-1.5,2.58,2.11a1.53,1.53,0,0,1-1,.53ZM541.76,97H537.3v5.55h4.46Zm0,11.9V103.2H537.3v5.65Zm-4.46.68v5.91h4.46v-5.91Z" style="fill:#566c6c"/><path d="M566.2,98.89l1.62-2.11c1.23,1,2.22,1.77,2.95,2.42-.06.23-.28.35-.65.35H548.39l-.19-.66h7.41a2.62,2.62,0,0,1-.73-.33,6.76,6.76,0,0,0-.79-2.17,9.54,9.54,0,0,0-1.43-2l.21-.14q3.5.39,4.45,2.13a1.68,1.68,0,0,1-.07,1.92,1.44,1.44,0,0,1-.77.54h4.4a26.3,26.3,0,0,0,1.74-4.76l4,1c-.11.31-.42.47-.94.47a29.63,29.63,0,0,1-4,3.28Zm-10.4,3.21,1.22-1.43,2.64,2.06a1.72,1.72,0,0,1-1,.5V113.7a3.2,3.2,0,0,1-.6,2.16,3.92,3.92,0,0,1-2.49.87,4.24,4.24,0,0,0-.36-1.81,1.91,1.91,0,0,0-1.45-.82v-.35c1,.08,1.57.12,1.85.12a.37.37,0,0,0,.42-.42V110.3a1,1,0,0,1-.69.85,1.33,1.33,0,0,1-1.27-.28,4.9,4.9,0,0,0-1.27-2.6v7.45c0,.16-.24.35-.71.57a3.48,3.48,0,0,1-1.52.34h-.39v-15.7l2.71,1.17Zm-3,6.1.21-.12a5.26,5.26,0,0,1,2.22.76,1.66,1.66,0,0,1,.8,1.14v-7.22h-3.23v1.54l.21-.11c1.66.17,2.63.65,2.93,1.43a.93.93,0,0,1-.33,1.15,1.15,1.15,0,0,1-1.5-.07,4.1,4.1,0,0,0-1.31-2.32Zm10.57-5.68v9.12c0,.11-.23.25-.69.41a4.18,4.18,0,0,1-1.37.25h-.49V101.54l3.44.3C564.23,102.22,563.94,102.45,563.39,102.52Zm2.39,10.86V100.79l3.54.35c-.08.34-.37.55-.87.61v11.77a6,6,0,0,1-.11,1.25,2.3,2.3,0,0,1-.48.91,2.33,2.33,0,0,1-1.08.67,8.11,8.11,0,0,1-1.89.33,3.24,3.24,0,0,0-.59-1.85,3.92,3.92,0,0,0-2.13-.89v-.31c1.72.1,2.76.14,3.12.14a.63.63,0,0,0,.39-.08A.37.37,0,0,0,565.78,113.38Z" style="fill:#566c6c"/><path d="M572.25,113.68H590l1.76-2.25c1.31,1,2.37,1.84,3.18,2.53-.07.27-.3.4-.68.4H572.44Zm1.29-16.59h15.23l1.74-2.21c1.29,1,2.33,1.84,3.11,2.51-.06.25-.29.38-.7.38H573.73Zm1.62,7.87H587l1.66-2.08c1.27,1,2.28,1.75,3,2.41-.06.25-.29.37-.68.37H575.34Z" style="fill:#566c6c"/><path d="M614.84,105.59l2.88,2.18a1.65,1.65,0,0,1-1.06.57v7.28c0,.13-.31.3-.89.52a4.42,4.42,0,0,1-1.57.33h-.49v-1.85h-7.94v1.26c0,.08-.09.19-.27.32a2.76,2.76,0,0,1-.85.37,4.15,4.15,0,0,1-1.25.18h-.56v-8a34.7,34.7,0,0,1-6.57,2l-.14-.31a35.75,35.75,0,0,0,9.39-5.22,24,24,0,0,0,6.34-7.13h-6.28c-.52.61-1.11,1.28-1.78,2,1.89.48,3,1.25,3.37,2.32a1.5,1.5,0,0,1-2.22,1.82,2.57,2.57,0,0,1-.38-.23,8.48,8.48,0,0,0-1.38-3.3,27.51,27.51,0,0,1-6.52,4.8l-.19-.23a25.72,25.72,0,0,0,4.57-5.06,28.14,28.14,0,0,0,3.4-6.12l3.94,1.1q-.17.38-1,.33c-.27.45-.7,1.07-1.29,1.87h5.72l1.85-1.66,2.74,2.62c-.15.22-.53.35-1.12.4a25,25,0,0,1-9.07,8.37h7.19Zm-9.07,8.32h7.94V107.8h-7.94Z" style="fill:#566c6c"/><path d="M64.75,215.34v.09a10.87,10.87,0,0,0,0,15.74v.08H59.58V215.34Z" style="fill:#768e91"/><path d="M75.49,221.83c1.16,3.54,3.3,6.41,6.51,7.76a6.21,6.21,0,0,0-1.17,1.47c-3.18-1.47-5.24-4.23-6.56-7.83a11.75,11.75,0,0,1-6.56,7.83,5.75,5.75,0,0,0-1.21-1.32,10.58,10.58,0,0,0,6.38-7.91h-6V220.2h6.32a42,42,0,0,0,.21-4.69h1.71a41.91,41.91,0,0,1-.23,4.69H81.7v1.63Z" style="fill:#768e91"/><path d="M99.68,229.06v1.46H84.49v-1.46h6.83v-1.8h-5.1v-1.45h5.1v-1.32H90V221h-1.9a5.22,5.22,0,0,1-2.6,3.87,6.75,6.75,0,0,0-1-1.1A4.05,4.05,0,0,0,86.64,221H84.72v-1.42h2.06v-2.07H85.3v-1.39h7.62v1.39h-1.4v2.07h1.77V221H91.52v3.14H93v1.63h5v1.45H93v1.8ZM90,219.62v-2.07h-1.8v2.07Zm5.6,2.52H94.19v-5.66h1.45Zm3.16.88c0,.8-.15,1.19-.72,1.43a7.62,7.62,0,0,1-2.58.26,5.84,5.84,0,0,0-.47-1.43c.86,0,1.69,0,1.93,0s.34-.07.34-.29v-7.36h1.5Z" style="fill:#768e91"/><path d="M111.23,216c-.12.19-.26.36-.39.55a18.12,18.12,0,0,0,7.13,4.7,3.83,3.83,0,0,0-1,1.38,20.73,20.73,0,0,1-7-5,20.74,20.74,0,0,1-6.88,5,6.61,6.61,0,0,0-1.09-1.34,17.16,17.16,0,0,0,7.82-5.95Zm-.33,13.16h6.28v1.44H102.81v-1.44h2v-6.09h1.55v6.09h2.86v-9h1.66v3.72h4.73v1.41H110.9Z" style="fill:#768e91"/><path d="M126.34,228.41a14.57,14.57,0,0,1-5.07,2.2,6.44,6.44,0,0,0-1-1.16,14,14,0,0,0,4.86-1.58Zm8.89-2.58v1.33h-6.7v3.94H127v-3.94h-6.6v-1.33H127v-1h-5v-1.19h5v-1h-5.85v-1.24h3.41a8.72,8.72,0,0,0-.74-1.46l1-.24h-4.33V218.4H123a12,12,0,0,0-1.24-2.29l1.38-.48a12.3,12.3,0,0,1,1.36,2.43l-.9.34h1.9v-2.92H127v2.92h1.68v-2.92h1.5v2.92H132l-.66-.22a14.9,14.9,0,0,0,1.19-2.52l1.63.43c-.46.83-1,1.68-1.41,2.31h2.43v1.26h-4.45l1.32.34c-.37.51-.76,1-1.1,1.36h3.6v1.24h-6v1h5.22v1.19h-5.22v1Zm-9.88-6.17a6.47,6.47,0,0,1,.8,1.49l-.76.21H130l-.61-.19a13.55,13.55,0,0,0,1-1.51Zm5.14,8.11c1.49.54,3.57,1.36,4.71,1.9l-1.06.92c-1-.53-3.13-1.43-4.67-2Z" style="fill:#768e91"/><path d="M142.44,231.25h-5.17v-.08a10.87,10.87,0,0,0,0-15.74v-.09h5.17Z" style="fill:#768e91"/><path d="M157.76,217.25a30.39,30.39,0,0,1,4.47,4.92l-1.33,1a14.83,14.83,0,0,0-1-1.39c-9.35.49-10.43.52-11.2.8a14.6,14.6,0,0,0-.51-1.55,3.18,3.18,0,0,0,1.4-1,27.36,27.36,0,0,0,3.75-4.71l1.58.68a32.92,32.92,0,0,1-4.06,4.69l7.91-.32c-.74-.82-1.52-1.63-2.25-2.31Zm-8.28,6.61h11v7.2h-1.68v-.86h-7.74v.9h-1.59Zm1.59,1.51v3.3h7.74v-3.3Z" style="fill:#768e91"/><path d="M167.38,223a11.12,11.12,0,0,0-2.43-1.76l.86-1.09a10.23,10.23,0,0,1,2.49,1.63Zm-2.09,7.08a54.2,54.2,0,0,0,2.1-5.39l1.26.81c-.54,1.75-1.27,3.79-2,5.37Zm2.38-11.44a10.86,10.86,0,0,0-2.37-1.89l.92-1a10.92,10.92,0,0,1,2.42,1.74Zm2,3.21a8.22,8.22,0,0,1-.72,2.29,4,4,0,0,0-.73-.49,6,6,0,0,0,.61-2Zm2.19-.68a4.35,4.35,0,0,0-.17-.51,12.9,12.9,0,0,0-2.89.49,5.09,5.09,0,0,0-.34-.73,1.47,1.47,0,0,0,.8-.56,10.33,10.33,0,0,0,.95-1.19,6.4,6.4,0,0,0-1.46.22,2.87,2.87,0,0,0-.34-.71,1.08,1.08,0,0,0,.56-.45,9,9,0,0,0,1-2.12l.94.32a10,10,0,0,1-1.12,1.94l1,0c.15-.26.31-.51.43-.76l.9.37a15.27,15.27,0,0,1-2,2.6l1.24-.15c-.08-.17-.18-.34-.27-.5l.71-.25a7.58,7.58,0,0,1,.79,1.72Zm8.06,6.42a3.38,3.38,0,0,1-.11.6,4.18,4.18,0,0,1-1.07,2.5,2.25,2.25,0,0,1-1.41.39c-.51,0-1.54,0-2.6,0a2.62,2.62,0,0,0-.42-1.21c1,.1,2.14.12,2.56.12a1.2,1.2,0,0,0,.73-.12,2.2,2.2,0,0,0,.62-1.21h-8.76a25.88,25.88,0,0,0,.75-2.68h7.44v-.73h-8v-.95h9.48v2.63h-7.68l-.2.71Zm-9.62-3.73a8.94,8.94,0,0,0-.34-2l.74-.18a7.64,7.64,0,0,1,.39,1.95Zm1.47-.43a8.32,8.32,0,0,0-.52-1.85l.68-.24a7.16,7.16,0,0,1,.56,1.77Zm4.63-5.39h-4v-.88h1.72a9.32,9.32,0,0,0-.6-1.3l1-.23a6.65,6.65,0,0,1,.68,1.32l-.78.21h2Zm-3.59,3.16H176v2.5H172.8Zm3.2-1.82h-3.17v-.79H176Zm-3.17.46H176v.8h-3.17Zm1,3.08H175V222h-1.2Zm3.77-1.14a9,9,0,0,1-.71,2.3,4.31,4.31,0,0,0-.73-.51,6.42,6.42,0,0,0,.61-2Zm2.23-.58c0-.15-.12-.35-.21-.58a16.9,16.9,0,0,0-2.9.5c-.06-.14-.22-.53-.33-.73a1.56,1.56,0,0,0,.8-.58,12.47,12.47,0,0,0,.94-1.17,6,6,0,0,0-1.47.23,3.78,3.78,0,0,0-.32-.73c.19,0,.36-.18.55-.44a8.56,8.56,0,0,0,1-2.11l.91.33a10,10,0,0,1-1.08,1.92l1-.05c.13-.26.28-.51.4-.77l.9.39A14.24,14.24,0,0,1,178,220l1.24-.15c-.09-.15-.19-.34-.27-.49l.7-.26a8.9,8.9,0,0,1,.85,1.79ZM178.17,224a9.13,9.13,0,0,0-.36-2.19l.75-.19a9.2,9.2,0,0,1,.39,2.13Zm1.63-2.69a7.65,7.65,0,0,1,.68,2.11l-.73.33a8.76,8.76,0,0,0-.64-2.18Z" style="fill:#768e91"/><path d="M188.3,225.9a16.07,16.07,0,0,0-1.24-1.84v7h-1.53v-6.74a17.69,17.69,0,0,1-2.1,3.84,8.19,8.19,0,0,0-.79-1.46,17.49,17.49,0,0,0,2.78-5.09h-2.33v-1.48h2.44v-2.27c-.73.13-1.46.24-2.14.32a4.77,4.77,0,0,0-.46-1.22,24,24,0,0,0,5.14-1.25l1.08,1.21a16.87,16.87,0,0,1-2.09.63v2.58h1.72v-.28h4v-.75h-3.13v-1h3.13v-.73h-3.47v-1h3.47v-.87h1.58v.87H198v1h-3.68v.73h3.28v1h-3.28v.75h4.08v1h-9.56v.73h-1.82v.84a29.09,29.09,0,0,1,2.16,2.21Zm9.24,2.48h-5.66l1.17.75a14.26,14.26,0,0,1-4.05,2,8,8,0,0,0-1-1,12,12,0,0,0,3.69-1.77h-1.8v-6.77h7.65Zm-1.48-5.75h-4.75v.92h4.75Zm0,1.89h-4.75v.94h4.75Zm0,1.9h-4.75v.94h4.75Zm-.65,2c1.12.65,2.43,1.44,3.21,2l-1.37.77c-.67-.51-1.86-1.33-2.89-2Z" style="fill:#768e91"/><path d="M206.75,223.31v6.31c0,.63-.12.95-.53,1.17a4.56,4.56,0,0,1-1.92.22,5.28,5.28,0,0,0-.42-1.19c.61,0,1.14,0,1.32,0s.22,0,.22-.22v-1.92l-2,1.23-.48-1a7.54,7.54,0,0,1-1,3.22,4.13,4.13,0,0,0-1.11-.8,7.9,7.9,0,0,0,.95-4.37v-2.69h-.83V220.8h.7v-4.75h5.18v4.75h.7v2.51Zm-.46-1.41h-4.21v.92h4.21Zm-3.43-1.1h.86v-2.67h1.77v-.9h-2.63ZM203,226a16.61,16.61,0,0,1-.08,1.8c.68-.29,1.55-.73,2.46-1.19v-2.72H203v1.17l.63-.64a10.47,10.47,0,0,1,1.74,1.29l-.72.81a11.63,11.63,0,0,0-1.65-1.37Zm2.45-5.22v-1.72h-.9v1.72Zm10.86,8.8v1.19H207.5V229.6h2.24c-.15-.46-.34-1-.53-1.43l1.14-.34h-1.92v-3.21h7v3.21h-2l1.29.36c-.29.48-.54,1-.8,1.41Zm-.15-5.67h-8.51v-1.18h8.51Zm-.41-1.93H208v-5.23h2.07v-1.26h1.26v1.26h1v-1.26h1.26v1.26h2.19Zm-6.59-3.14h1.12v-1H209.2Zm0,2.06h1.12v-1H209.2Zm.61,5.91H214v-1.19h-4.15Zm.59,1a17.74,17.74,0,0,1,.74,1.77h1.49a14.76,14.76,0,0,0,.68-1.77Zm2-9v-1h-1.07v1Zm-1.07,1v1h1.07v-1Zm3.23-2H213.4v1h1.15Zm0,2H213.4v1h1.15Z" style="fill:#768e91"/><path d="M220.64,221.83h-1.5v-3.7h6.41v-.9h-5.67v-1.11h13v1.11H227.1v.9h6.56v3.7h-1.58V219.2h-5v3.71h-1.55V219.2h-4.91Zm11.13,7.81c.87,0,1-.27,1.14-1.86a3.83,3.83,0,0,0,1.33.51c-.21,2-.65,2.59-2.36,2.59h-3.73c-2.09,0-2.67-.41-2.67-1.94v-.32h-3.33v.81h-1.51v-6h11.52v5.17H227v.3c0,.6.2.72,1.25.72Zm-11-7.75c1.07-.14,2.51-.36,4-.58l.05.93c-1.29.31-2.55.58-3.66.78Zm.93-2.52a19,19,0,0,1,3.11.83l-.42.9a21.21,21.21,0,0,0-3.15-.91Zm.46,5.18v1h3.33v-1Zm3.33,3v-1h-3.33v1Zm5.14-3H227v1h3.62Zm0,3v-1H227v1Zm.95-4.47a26.1,26.1,0,0,0-3.94-.93l.34-.9a19.45,19.45,0,0,1,3.92.81Zm0-2.91a21.36,21.36,0,0,1-3.2.89l-.53-.77c.92-.22,2.26-.69,3.06-1Z" style="fill:#768e91"/><path d="M251,217.53a12.76,12.76,0,0,1-2.43,4.54,10.88,10.88,0,0,0,3.71,2.23,6,6,0,0,0-1,1.31l-.34-.14V231h-1.52v-.55h-3.79v.6h-1.44v-5.56c-.26.12-.5.24-.75.34a5.25,5.25,0,0,0-.44-.7v0h-2v2.68l2.11-.49.15,1.4c-2.33.59-4.79,1.19-6.63,1.61l-.27-1.53.81-.15v-5.73h1.3v5.46l1.12-.26v-6.63h-2.36v-5.34h5.61v4.36a12.21,12.21,0,0,0,2.94-5l1.53.38c-.16.44-.33.88-.51,1.31h2.88l.28-.07Zm-12.36,2.62h2.77v-2.62h-2.77Zm4.39,4.3a11.7,11.7,0,0,0,3.58-2.41,14.24,14.24,0,0,1-1.34-2,12.75,12.75,0,0,1-1.31,1.6,11.94,11.94,0,0,0-1.08-.93v.76H241v2.25h2Zm6.9.48a11.88,11.88,0,0,1-2.35-1.8,12.58,12.58,0,0,1-2.34,1.8Zm-.48,4.16v-2.82h-3.79v2.82Zm-3.24-10.57-.16.31a11.94,11.94,0,0,0,1.48,2.17,10.62,10.62,0,0,0,1.51-2.48Z" style="fill:#768e91"/><path d="M260.44,224.69,259,225.93a30.89,30.89,0,0,0-3.72-3.77l1.39-1.21A31.83,31.83,0,0,1,260.44,224.69Z" style="fill:#768e91"/><path d="M279.05,228.92v1.53H263.87v-1.53h6.6v-5h-5.05v-1.55h5.05v-4.22h-5.82v-1.54h13.6v1.54h-6.07v4.22h5.37v1.55h-5.37v5Zm-4.4-4.52c1,.94,2.34,2.21,3,3l-1.17,1.05c-.65-.81-2-2.16-3-3.14Z" style="fill:#768e91"/><path d="M296,219v12h-1.64v-1.23H282.59V219.06h1.63v9.15h4.22V215.66h1.66v12.55h4.28V219Z" style="fill:#768e91"/><path d="M307.93,221.94V224h5.7v1.43h-5.7v3.79h6.51v1.45H299.86v-1.45h6.39v-3.79h-5.61V224h5.61v-2.05H302.7v-.89a18.72,18.72,0,0,1-2.47,1.09,6.06,6.06,0,0,0-1.05-1.46c3.16-1,6.24-2.84,7.85-5.34l1.48.66c-.15.22-.29.45-.44.65a18.38,18.38,0,0,0,7.07,4,6.57,6.57,0,0,0-1.09,1.37,16.73,16.73,0,0,1-2.53-1.17v1Zm-4.71,3.65a13.07,13.07,0,0,1,1.6,2.94l-1.37.6a14.52,14.52,0,0,0-1.52-3Zm7.54-5.12a18.58,18.58,0,0,1-3.61-2.75,15.19,15.19,0,0,1-3.41,2.75Zm-1.53,8.16a16.22,16.22,0,0,0,1.65-3l1.52.56a35.37,35.37,0,0,1-2,3Z" style="fill:#768e91"/><path d="M320.67,225.25v4.1c0,.78-.16,1.2-.62,1.44a4.65,4.65,0,0,1-2.2.31,5.25,5.25,0,0,0-.43-1.46c.68,0,1.31,0,1.5,0s.3,0,.3-.29v-3.66l-1.83.6-.31-1.55c.6-.15,1.33-.37,2.14-.61v-3.84h-2v-1.45h2v-3.33h1.45v3.33h1.56v1.45h-1.56v3.43l1.68-.51.25,1.43Zm12.12,3.93v1.44H322.11v-1.44h4.56V226h-3.52v-1.43H332V226h-3.72v3.2Zm-8.89-8.77h-1.38v-3h4.2c-.21-.51-.48-1.11-.72-1.57l1.47-.45a19.51,19.51,0,0,1,1,2h4.21v2.92h-1.44v-1.6h-1.59v2.62c0,.43.07.58.36.58h1.58a4.56,4.56,0,0,0,1-.09c0,.38.07.94.12,1.25a3.38,3.38,0,0,1-1.09.11h-1.65c-1.39,0-1.72-.51-1.72-1.87v-2.6H327c-.15,2.67-.76,4.13-3.65,4.9a3.89,3.89,0,0,0-.77-1.14c2.43-.58,2.87-1.63,3-3.76H323.9Z" style="fill:#768e91"/><path d="M341.19,224.69l-1.45,1.24a30.89,30.89,0,0,0-3.72-3.77l1.39-1.21A31.83,31.83,0,0,1,341.19,224.69Z" style="fill:#768e91"/><path d="M349.36,216A33.26,33.26,0,0,1,348,219.2v11.93h-1.45v-9.41a17.75,17.75,0,0,1-1.43,1.9,11,11,0,0,0-.85-1.51,19.27,19.27,0,0,0,3.68-6.55Zm10.44,2.22v1.3H349v-1.3h5a15,15,0,0,0-1.13-2.21l1.35-.52a15.15,15.15,0,0,1,1.23,2.21l-1.23.52ZM350,225.57h8.71V231h-1.4v-.56h-6v.61H350Zm8.52-3.63h-8.28v-1.26h8.28Zm-8.28,1.14h8.28v1.25h-8.28Zm1.1,3.77v2.35h6v-2.35Z" style="fill:#768e91"/><path d="M376.39,226.83a8.73,8.73,0,0,1-2.16,2,2.56,2.56,0,0,0,1.81.84c.44,0,.56-.36.64-1.45a3.37,3.37,0,0,0,1.19.61c-.24,1.84-.73,2.28-1.92,2.28a4,4,0,0,1-3-1.48,20.3,20.3,0,0,1-3.62,1.46,7,7,0,0,0-.81-1.25,16.62,16.62,0,0,0,3.65-1.28,10.22,10.22,0,0,1-1-2.24h-3.65v.92l2.8-.21v1.11l-2.8.24v1.27c0,.76-.17,1.1-.73,1.27a9.24,9.24,0,0,1-2.65.21,6.84,6.84,0,0,0-.46-1.24c.85,0,1.75,0,2,0s.34-.07.34-.3v-1.11l-3.4.27-.14-1.22c1-.05,2.2-.12,3.54-.22v-1h-3.47v-1.21H366v-1c-1,.1-2,.17-2.89.2a3.81,3.81,0,0,0-.34-1,40.53,40.53,0,0,0,6.39-.78l.94,1c-.75.19-1.64.32-2.57.46v1.1h3.35a15.55,15.55,0,0,1-.31-2.34h1.53a12.25,12.25,0,0,0,.31,2.34h3.4a12.61,12.61,0,0,0-2.74-1.56l.88-.92a10.47,10.47,0,0,1,2.79,1.5l-.9,1h1.79v1.21h-4.87a7.52,7.52,0,0,0,.7,1.51,6.38,6.38,0,0,0,1.6-1.43Zm1.16-4.33h-15v-1.24h6.66v-.87h-5v-1.14h5v-.87h-5.91v-1.19h3.26a7.18,7.18,0,0,0-.82-1.24l1.38-.46a5.82,5.82,0,0,1,1.12,1.67l-.08,0h3.77a14.35,14.35,0,0,0,.9-1.73l1.72.37c-.34.5-.66,1-1,1.36h3.25v1.19h-6v.87h5.1v1.14h-5.1v.87h6.73Z" style="fill:#768e91"/><path d="M388.28,225.22c-.06.4-.12.76-.21,1.14h5.71s0,.4,0,.59c-.22,2.25-.44,3.23-.88,3.67a1.76,1.76,0,0,1-1.21.44,15.51,15.51,0,0,1-2.18,0,3.4,3.4,0,0,0-.42-1.32c.81.08,1.61.08,1.92.08a.84.84,0,0,0,.59-.13,4.29,4.29,0,0,0,.55-2.09h-4.44c-.66,1.58-1.94,2.75-4.44,3.52a3.66,3.66,0,0,0-.86-1.23c3.19-.86,4-2.45,4.32-4.67h-3.34a11.6,11.6,0,0,1-2.17,6A5.12,5.12,0,0,0,380,230.1c1.79-2.25,1.94-5.51,1.94-8v-5.35h0a75.2,75.2,0,0,0,10.81-1.26l1.2,1.19a70.84,70.84,0,0,1-10.47,1.24v.75h10.81v3.86H383.53c0,.44,0,.92,0,1.41h4.9a8.63,8.63,0,0,0-.56-1.05l1.53-.36a8.43,8.43,0,0,1,.78,1.41h5.34v1.26Zm-4.75-5.29v1.38h9.27v-1.38Z" style="fill:#768e91"/><path d="M413.27,229.38v1.28H400.74v-1.28h5.42v-1.56H402v-1.26h4.21v-1.27a17.79,17.79,0,0,0-3.94.42,10.52,10.52,0,0,0-.48-1.39,2,2,0,0,0,.95-.51,10.84,10.84,0,0,0,1.4-1.21h-2.91c-.09,2.74-.49,6.14-1.94,8.48a6,6,0,0,0-1.41-.78c1.65-2.69,1.79-6.51,1.79-9.2v-4.77h12.69v4h-11.1v1h11.6v1.28h-3.15a20.6,20.6,0,0,1,3.1,2.65l-1.26.78c-.26-.29-.58-.64-1-1l-2.8.18v1.38H412v1.26h-4.3v1.56Zm-12.06-11.76V219h9.52v-1.39Zm4.87,5a20.36,20.36,0,0,1-1.7,1.51l4.82-.25c-.34-.27-.68-.55-1-.78l.8-.48Z" style="fill:#768e91"/><path d="M64.75,256.34v.09a10.87,10.87,0,0,0,0,15.74v.08H59.58V256.34Z" style="fill:#768e91"/><path d="M81.08,259.47v8.12H79.44v-.91H75v5.4H73.37v-5.4H69v1H67.38v-8.21h6v-3H75v3Zm-7.71,5.66V261H69v4.11Zm6.07,0V261H75v4.11Z" style="fill:#768e91"/><path d="M92.85,270.28h6.88v1.38H84.44v-1.38h6.79v-1.75h-5v-1.34h5V266h1.62v1.24H98v1.34H92.85Zm-.73-4.45h-7v-8.74h6.73v1.24h-2v1.22h2v3.71h-2v1.33h2.28Zm-5.56-7.5v1.22h1.9v-1.22Zm3.91,2.4H86.56v1.37h3.91Zm-3.91,3.86h1.9v-1.33h-1.9Zm12.77-7.13A14,14,0,0,1,96.78,263a8.7,8.7,0,0,0,3.07,2.08,4.71,4.71,0,0,0-1,1.24,10.56,10.56,0,0,1-3.1-2.21,11.12,11.12,0,0,1-2.68,1.93,5.65,5.65,0,0,0-1-1.29,8.76,8.76,0,0,0,2.65-1.83,14.18,14.18,0,0,1-2.06-4.22l.43-.12h-.75v-1.43h5.66l.25-.05Zm-5.15,1.14a12.29,12.29,0,0,0,1.58,3.23,11.58,11.58,0,0,0,1.71-3.23Z" style="fill:#768e91"/><path d="M111.23,257c-.12.19-.26.36-.39.55a18.12,18.12,0,0,0,7.13,4.7,3.83,3.83,0,0,0-1,1.38,20.73,20.73,0,0,1-7-5,20.74,20.74,0,0,1-6.88,5,6.61,6.61,0,0,0-1.09-1.34,17.16,17.16,0,0,0,7.82-6Zm-.33,13.16h6.28v1.44H102.81v-1.44h2v-6.09h1.55v6.09h2.86v-9h1.66v3.72h4.73v1.41H110.9Z" style="fill:#768e91"/><path d="M126.34,269.41a14.57,14.57,0,0,1-5.07,2.2,6.44,6.44,0,0,0-1-1.16,14,14,0,0,0,4.86-1.58Zm8.89-2.58v1.33h-6.7v3.94H127v-3.94h-6.6v-1.33H127v-1h-5v-1.19h5v-1h-5.85v-1.24h3.41a8.72,8.72,0,0,0-.74-1.46l1-.24h-4.33V259.4H123a12,12,0,0,0-1.24-2.29l1.38-.48a12.3,12.3,0,0,1,1.36,2.43l-.9.34h1.9v-2.92H127v2.92h1.68v-2.92h1.5v2.92H132l-.66-.22a14.9,14.9,0,0,0,1.19-2.52l1.63.43c-.46.83-1,1.68-1.41,2.31h2.43v1.26h-4.45l1.32.34c-.37.51-.76,1-1.1,1.36h3.6v1.24h-6v1h5.22v1.19h-5.22v1Zm-9.88-6.17a6.47,6.47,0,0,1,.8,1.49l-.76.21H130l-.61-.19a13.55,13.55,0,0,0,1-1.51Zm5.14,8.11c1.49.54,3.57,1.36,4.71,1.9l-1.06.92c-1-.53-3.13-1.43-4.67-2Z" style="fill:#768e91"/><path d="M142.44,272.25h-5.17v-.08a10.87,10.87,0,0,0,0-15.74v-.09h5.17Z" style="fill:#768e91"/><path d="M156.24,262.83c1.16,3.54,3.3,6.41,6.51,7.76a6.21,6.21,0,0,0-1.17,1.47c-3.18-1.47-5.24-4.23-6.56-7.83a11.75,11.75,0,0,1-6.56,7.83,5.75,5.75,0,0,0-1.21-1.32,10.54,10.54,0,0,0,6.37-7.91h-6V261.2h6.32a42,42,0,0,0,.21-4.69h1.71a41.91,41.91,0,0,1-.23,4.69h6.85v1.63Z" style="fill:#768e91"/><path d="M168.19,264.31a26.43,26.43,0,0,0-3.11-1.83l.85-1.16a21.42,21.42,0,0,1,3.15,1.68Zm1.81,2.2c-.89,1.75-2,3.79-3,5.38l-1.35-1.07a43.25,43.25,0,0,0,3.2-5.37Zm-1-6.65a25.77,25.77,0,0,0-3-2l.91-1.1A28.51,28.51,0,0,1,170,258.6Zm11.59,9.6V271H169.79v-1.58h4.42v-9.87h-3.57V258h9.11v1.58h-3.82v9.87Z" style="fill:#768e91"/><path d="M198.27,270v1.53h-15.1V270h6.73v-3.91h-4.84v-1.51h4.84v-3.4h-3.77a14.93,14.93,0,0,1-1.68,2.63,10.38,10.38,0,0,0-1.45-1,14.61,14.61,0,0,0,3.08-6.15l1.63.37c-.25.87-.56,1.74-.88,2.55h3.07v-3.16h1.64v3.16h5.91v1.55h-5.91v3.4h5.28v1.51h-5.28V270Z" style="fill:#768e91"/><path d="M210.68,265.66v.66h4v5.74h-1.47v-.57h-9.3v.57h-1.43v-5.74h4.27v-.66h-6V264.6h15.54v1.06Zm-9-7.7h-.52v-1h7.53v1h-5.76v4.36c0,.6.13.8.73.8H207a8.8,8.8,0,0,0,1.6-.1c0,.34.09.73.14,1a8.76,8.76,0,0,1-1.64.1h-3.53c-1.48,0-1.91-.49-1.91-1.82Zm2.83,1.51a6.65,6.65,0,0,1-.58.68,4.45,4.45,0,0,0-.82-.49,4.8,4.8,0,0,0,1.18-1.7l.93.22-.22.49h3.16v.8h-1.75v.76h2v.84h-2a13.76,13.76,0,0,1,1.84,1.27l-.65.7a9.85,9.85,0,0,0-1.7-1.26,4,4,0,0,1-2,1.34,3.1,3.1,0,0,0-.66-.74,2.78,2.78,0,0,0,1.88-1.31h-1.95v-.84h2.12v-.75Zm8.67,11.12v-1.86h-2.1c-1.32,0-1.64-.22-1.64-1.17v-.34h-1.52c-.18.87-1,1.5-3.36,1.85a4.35,4.35,0,0,0-.68-.9c1.82-.17,2.51-.53,2.75-.95h-2.75v3.37Zm-8-1.38h6.87V270H205.2Zm4.24-3.55H208v.66h1.48Zm-.23-5.34a4.59,4.59,0,0,0-.81-.92c1.29-.48,1.51-1,1.51-1.61v-.87h4.22v1.43c0,.32,0,.42.24.42H215a3.57,3.57,0,0,0,.74-.08c0,.32.06.75.1,1.05a2.57,2.57,0,0,1-.78.09h-.92c-1.07,0-1.29-.45-1.29-1.5V258h-1.75a2.53,2.53,0,0,1-1.36,2.08h4.28l.24,0,.76.33a5.93,5.93,0,0,1-1.7,2.29c.78.36,1.52.68,2,1l-.57.92c-.6-.32-1.48-.75-2.43-1.19a11.26,11.26,0,0,1-3,1.19,4.4,4.4,0,0,0-.64-1,11.64,11.64,0,0,0,2.38-.78c-.66-.29-1.31-.56-1.91-.8l.57-.8c.73.27,1.58.61,2.41,1a5.9,5.9,0,0,0,1.16-1.12h-4.14Zm1.47,6.9v.36c0,.32.08.37.54.37h1.7a.94.94,0,0,0,.26,0v-.71Z" style="fill:#768e91"/><path d="M224.74,265.69l-1.45,1.24a30.89,30.89,0,0,0-3.72-3.77L221,262A31.83,31.83,0,0,1,224.74,265.69Z" style="fill:#768e91"/><path d="M243.35,269.79v1.56H228.17v-1.56h6.71V265h-5.11v-1.55h5.11v-4.3H229v-1.55h13.47v1.55h-5.92v4.3h5.32V265h-5.32v4.81Z" style="fill:#768e91"/><path d="M250.2,264.5a21.66,21.66,0,0,1-1.37,4.39c.3.17.67.46,1.22.8,1.19.71,2.74.81,4.72.81a62.13,62.13,0,0,0,6.82-.39,6,6,0,0,0-.46,1.63c-1.32.09-4.43.19-6.42.19a9.57,9.57,0,0,1-4.93-.9c-.68-.39-1.29-1-1.67-1s-1,1.11-1.43,2.14l-1.07-1.46a8.32,8.32,0,0,1,1.72-1.77,15.68,15.68,0,0,0,1.12-3.29h-2.17c.4-1,.91-2.38,1.34-3.71H245.9v-1.43h3.67c-.37,1.21-.85,2.6-1.27,3.78h.95l.24-.07Zm-2.53-4.69c-.21-.75-.61-1.94-.88-2.84l1.37-.43c.33.89.72,2,.94,2.76Zm6.76,1.24c.11-.36.19-.75.28-1.12h-4.29v-1.29H253a10.11,10.11,0,0,0-1-1.59l1.24-.51a9.59,9.59,0,0,1,1.14,1.79l-.68.31h2.87a12.5,12.5,0,0,0,1.17-2.13l1.55.43c-.39.57-.78,1.19-1.16,1.7h3v1.29h-4.73c-.15.39-.34.76-.51,1.12h3.86v8h-8v-8Zm3.79,1.17h-5v1.18h5Zm0,2.23h-5v1.19h5Zm0,2.26h-5v1.21h5Z" style="fill:#768e91"/><path d="M278.9,259.57H269c.34.58.76,1.34,1,1.8l-1.25.48h4.07a17.78,17.78,0,0,0,1.1-2.24l1.58.34c-.37.64-.78,1.32-1.19,1.9H278v8.63c0,.79-.19,1.11-.73,1.31a9.35,9.35,0,0,1-2.84.22,4,4,0,0,0-.48-1.2c1,0,2,0,2.2,0s.39-.08.39-.34v-7.36h-3.1v.82c0,.37,0,.51.34.51H275a4.43,4.43,0,0,0,1-.09c0,.38.05.75.1,1.11a4.38,4.38,0,0,1-1,.08h-1.58c-1.17,0-1.39-.52-1.39-1.63v-.8h-1.61c-.26,1.67-1,2.6-3.35,3.11a3,3,0,0,0-.72-1.07v6.9h-1.49V261.85h3.6c-.2-.51-.63-1.33-.93-1.89l1.13-.39H264v-1.34h6.85c-.15-.48-.35-1-.52-1.46l1.51-.38c.24.58.51,1.29.68,1.84h6.36Zm-12.5,5.58c1.86-.34,2.47-.92,2.67-2H266.4Zm3.15,4.82v.75h-1.33V266h6.34v4Zm0-2.82v1.68h3.72v-1.68Z" style="fill:#768e91"/><path d="M288.06,268.8l.14,1.33c-2.16.52-4.46,1.1-6.19,1.51l-.39-1.53,2.72-.53v-4.5h-2.47V263.7h2.47v-1.6h-1.58v-.76c-.24.2-.48.41-.7.56a12.93,12.93,0,0,0-.68-1.51,11.93,11.93,0,0,0,3.62-3.91l1.31.49c-.1.17-.2.37-.32.56a23.24,23.24,0,0,1,2.63,2.33l-.95,1.12c-.59-.64-1.55-1.54-2.43-2.31a17.63,17.63,0,0,1-1.84,2.09h4v1.34h-1.64v1.6H288v1.38h-2.3v4.21Zm-4.78-3a18.06,18.06,0,0,1,.74,3l-1.14.32a18.59,18.59,0,0,0-.67-3.11Zm2.72,2.74a25.43,25.43,0,0,0,.73-3l1.19.34c-.32,1-.67,2.18-1,2.94Zm11-2.32a23,23,0,0,1-2.48,1.77,7.07,7.07,0,0,0,2.73,2.55,5.87,5.87,0,0,0-1.09,1.34c-2.29-1.34-3.65-4-4.45-7.13h-1.19v5.13l2.55-.7a8.62,8.62,0,0,0,.14,1.4c-3.45,1.05-4,1.27-4.35,1.54a5.32,5.32,0,0,0-.55-1.36,1,1,0,0,0,.68-1V257.22h7.41v7.54h-3.31a15.77,15.77,0,0,0,.78,2.09,20.27,20.27,0,0,0,2.11-1.7Zm-6.48-7.65v1.74h4.35v-1.74Zm0,4.8h4.35v-1.77h-4.35Z" style="fill:#768e91"/><path d="M305.49,265.69,304,266.93a30.89,30.89,0,0,0-3.72-3.77l1.39-1.21A31.83,31.83,0,0,1,305.49,265.69Z" style="fill:#768e91"/><path d="M316.4,269.89a10.26,10.26,0,0,0,.08,1.29c-5.11.53-5.77.65-6.23.83a5.1,5.1,0,0,0-.48-1.49.75.75,0,0,0,.63-.8v-3.64H312v1.05h4.25v1.26H312v1.89Zm6.83-9.91H309.89v-3h1.6v1.73h4.16v-2.18h1.62v2.18h4.31v-1.73h1.65Zm-12.64,5.64v-4.93h12.05v4.93Zm1.64-3h8.69v-1h-8.69Zm0,2h8.69v-1h-8.69Zm9.8,5.93c.62,0,.74-.25.81-1.63a5.5,5.5,0,0,0,1.4.54c-.17,1.86-.62,2.35-2,2.35h-2.89c-1.84,0-2.32-.39-2.32-1.82V266.1h1.59v1.07H323v1.26h-4.43V270c0,.5.15.58.91.58Z" style="fill:#768e91"/><path d="M329.2,264.55h4.06v7.53h-1.53v-3.77h-1.87c-.17,1.85-.69,3.18-2.34,4a3.69,3.69,0,0,0-.87-1.18,3,3,0,0,0,1.77-2.8h-1.75V267h5.06v-1.13h-4.06v-7.91h1.53Zm8.82-.73h-7.46V257H338Zm-1.58-5.74h-4.37v.86h4.37Zm0,1.87h-4.37v.9h4.37Zm0,1.9h-4.37v.92h4.37Zm4.88,5.15v5.12h-1.53v-3.76h-3v3.74h-1.53v-7.55h4.13v-6.63h1.54v7.91h-4.14V267Z" style="fill:#768e91"/><path d="M349.87,265.3c-.54.17-1.1.34-1.65.48v4.45c0,.81-.17,1.22-.66,1.44a5.63,5.63,0,0,1-2.41.29,5.6,5.6,0,0,0-.46-1.42h1.66c.24,0,.34-.08.34-.34v-4l-2,.54-.42-1.51c.68-.15,1.49-.36,2.39-.6v-3.36h-2.17v-1.46h2.17v-3.32h1.53v3.32h2v1.46h-2v3l1.45-.4Zm9-1.05a10.68,10.68,0,0,1-3.13,4.89,13.39,13.39,0,0,0,4.24,1.53,7.58,7.58,0,0,0-1,1.46,13.38,13.38,0,0,1-4.57-2,16.16,16.16,0,0,1-4.79,2,5.27,5.27,0,0,0-.78-1.44,14,14,0,0,0,4.3-1.57,11.7,11.7,0,0,1-2.6-3.62l.42-.15h-.85v-1.48h7.48l.27-.05ZM353.15,259a4.77,4.77,0,0,1-2.65,4.57,6.68,6.68,0,0,0-1-1.16,3.48,3.48,0,0,0,2.19-3.47v-1.83h5.6v3.81c0,.47,0,.66.3.66h1.14a3.74,3.74,0,0,0,.89-.1,13,13,0,0,0,.11,1.32,3.08,3.08,0,0,1-1,.11h-1.28c-1.37,0-1.68-.57-1.68-2v-2.33h-2.62Zm-1.08,6.37a8.74,8.74,0,0,0,2.38,2.87,9.12,9.12,0,0,0,2.34-2.87Z" style="fill:#768e91"/><path d="M365.72,266.25v4.1c0,.78-.16,1.2-.61,1.44a4.72,4.72,0,0,1-2.21.31,5.25,5.25,0,0,0-.43-1.46H364c.22,0,.3-.05.3-.29v-3.66l-1.83.6-.31-1.55c.6-.15,1.33-.37,2.14-.61v-3.84h-1.95v-1.45h1.95v-3.33h1.45v3.33h1.56v1.45h-1.56v3.43l1.68-.51.26,1.43Zm12.12,3.93v1.44H367.16v-1.44h4.56V267H368.2v-1.43H377V267h-3.72v3.2ZM369,261.41h-1.38v-3h4.2c-.21-.51-.48-1.11-.72-1.57l1.47-.45a19.51,19.51,0,0,1,1,2h4.21v2.92h-1.44v-1.6h-1.58v2.62c0,.43.06.58.35.58h1.58a4.56,4.56,0,0,0,1-.09c0,.38.07.94.12,1.25a3.38,3.38,0,0,1-1.09.11H375c-1.39,0-1.72-.51-1.72-1.87v-2.6h-1.17c-.15,2.67-.76,4.13-3.65,4.9a3.89,3.89,0,0,0-.77-1.14c2.43-.58,2.87-1.63,3-3.76H369Z" style="fill:#768e91"/><path d="M64.75,297.34v.09a10.87,10.87,0,0,0,0,15.74v.08H59.58V297.34Z" style="fill:#768e91"/><path d="M73.71,300l1.12.32c-.85,6.73-3.4,10.8-7,12.77a5.52,5.52,0,0,0-1.33-1.31,10.57,10.57,0,0,0,4.72-4.62,32.45,32.45,0,0,0-2.49-2.66c-.33.55-.65,1-1,1.47a11,11,0,0,0-1.35-1c1.53-1.73,2.55-4.52,3.15-7.44l1.58.29c-.17.76-.37,1.51-.58,2.24H73.4ZM70,301.51c-.22.56-.43,1.12-.66,1.63.83.73,1.81,1.65,2.53,2.41a18.86,18.86,0,0,0,1-4Zm8.16,1.07a38,38,0,0,1,4,3.82l-1.34,1.09a29.59,29.59,0,0,0-3.23-3.38v9H75.93V297.49H77.6V303Z" style="fill:#768e91"/><path d="M99.55,300.57H89.62c.34.58.76,1.34,1,1.8l-1.24.48h4.06a17.78,17.78,0,0,0,1.1-2.24l1.58.34c-.37.64-.78,1.32-1.19,1.9h3.76v8.63c0,.79-.19,1.11-.73,1.31a9.35,9.35,0,0,1-2.84.22,4,4,0,0,0-.48-1.2c1,0,2,0,2.2,0s.39-.08.39-.34v-7.36h-3.1v.82c0,.37,0,.51.34.51h1.21a4.43,4.43,0,0,0,1-.09c0,.38,0,.75.1,1.11a4.34,4.34,0,0,1-1,.08H94.12c-1.17,0-1.39-.52-1.39-1.63v-.8H91.12c-.26,1.67-1,2.6-3.35,3.11a3,3,0,0,0-.72-1.07v6.9H85.56V302.85h3.6c-.2-.51-.63-1.33-.93-1.89l1.14-.39h-4.7v-1.34h6.85c-.15-.48-.35-1-.52-1.46l1.51-.38c.24.58.51,1.29.68,1.84h6.36Zm-12.5,5.58c1.86-.34,2.47-.92,2.67-2H87.05ZM90.2,311v.75H88.87V307h6.34v4Zm0-2.82v1.68h3.72v-1.68Z" style="fill:#768e91"/><path d="M111.23,298c-.12.19-.26.36-.39.55a18.12,18.12,0,0,0,7.13,4.7,3.83,3.83,0,0,0-1,1.38,20.73,20.73,0,0,1-7-5,20.74,20.74,0,0,1-6.88,5,6.61,6.61,0,0,0-1.09-1.34,17.16,17.16,0,0,0,7.82-6Zm-.33,13.16h6.28v1.44H102.81v-1.44h2v-6.09h1.55v6.09h2.86v-9h1.66v3.72h4.73v1.41H110.9Z" style="fill:#768e91"/><path d="M126.34,310.41a14.57,14.57,0,0,1-5.07,2.2,6.44,6.44,0,0,0-1-1.16,14,14,0,0,0,4.86-1.58Zm8.89-2.58v1.33h-6.7v3.94H127v-3.94h-6.6v-1.33H127v-1h-5v-1.19h5v-1h-5.85v-1.24h3.41a8.72,8.72,0,0,0-.74-1.46l1-.24h-4.33V300.4H123a12,12,0,0,0-1.24-2.29l1.38-.48a12.3,12.3,0,0,1,1.36,2.43l-.9.34h1.9v-2.92H127v2.92h1.68v-2.92h1.5v2.92H132l-.66-.22a14.9,14.9,0,0,0,1.19-2.52l1.63.43c-.46.83-1,1.68-1.41,2.31h2.43v1.26h-4.45l1.32.34c-.37.51-.76,1-1.1,1.36h3.6v1.24h-6v1h5.22v1.19h-5.22v1Zm-9.88-6.17a6.47,6.47,0,0,1,.8,1.49l-.76.21H130l-.61-.19a13.55,13.55,0,0,0,1-1.51Zm5.14,8.11c1.49.54,3.57,1.36,4.71,1.9l-1.06.92c-1-.53-3.13-1.43-4.67-2Z" style="fill:#768e91"/><path d="M142.44,313.25h-5.17v-.08a10.87,10.87,0,0,0,0-15.74v-.09h5.17Z" style="fill:#768e91"/><path d="M160.7,298.58v14.26H159v-1h-8v1.1h-1.62V298.58Zm-9.69,1.6v4.15h8v-4.15Zm8,10v-4.32h-8v4.32Z" style="fill:#768e91"/><path d="M180.42,310.82v1.6H165.27v-1.6h8.23a50.48,50.48,0,0,0,2.36-7.87l1.78.34a72.47,72.47,0,0,1-2.44,7.53Zm-.7-8.62H166v-1.59h13.72Zm-10,8a56.43,56.43,0,0,0-1.53-6.92l1.6-.39a57.87,57.87,0,0,1,1.61,6.88Zm2.53-9.69a21.1,21.1,0,0,0-.82-2.77l1.57-.39c.32.84.71,2,.9,2.68Z" style="fill:#768e91"/><path d="M186,305.31a26.43,26.43,0,0,0-3.11-1.83l.85-1.16a21.42,21.42,0,0,1,3.15,1.68Zm1.81,2.2c-.89,1.75-2,3.79-3,5.38l-1.35-1.07a43.25,43.25,0,0,0,3.2-5.37Zm-1-6.65a25.12,25.12,0,0,0-3-2l.92-1.1a28.51,28.51,0,0,1,3,1.85Zm11.59,9.6V312H187.64v-1.58h4.42v-9.87h-3.57V299h9.11v1.58h-3.82v9.87Z" style="fill:#768e91"/><path d="M207,310.24c-.34-.3-1-.81-1.58-1.31v4H204v-3.66a10.47,10.47,0,0,1-2.63,2.64,8.65,8.65,0,0,0-.67-1.45,9.63,9.63,0,0,0,3.18-3.08h-2.6V306H204v-1.72h1.5V306H208v1.37h-2.58v.12c.68.39,2.33,1.57,2.75,1.91Zm.68-9.18a15.08,15.08,0,0,1-6,3.85,6.48,6.48,0,0,0-1-1.26,13.78,13.78,0,0,0,5.6-3.08h-4.85v-1.39h6.24v-1.7h1.56v1.7h6.29v1.39h-4.93c1.82.89,4.56,2.24,5.29,2.69l-.51,1.48c-1.26-.82-4.39-2.66-6.14-3.59V305h-1.56Zm5.22,6.4a13.08,13.08,0,0,0,3.6,3.24,6.91,6.91,0,0,0-1.12,1.24,14.56,14.56,0,0,1-2.69-2.85v4h-1.49v-3.93A12.41,12.41,0,0,1,208,312a5,5,0,0,0-1-1.14,10.7,10.7,0,0,0,4-3.41h-2.38v-1.38h2.62v-1.77h1.49v1.77h3.16v1.38Z" style="fill:#768e91"/><path d="M232.44,299.75v13.3h-1.67v-.85h-8.6v.92h-1.58V299.75h4.28a18.27,18.27,0,0,0,.56-2.27l1.89.22c-.27.71-.54,1.44-.83,2.05Zm-10.27,1.52v2.17h8.6v-2.17Zm0,3.64v2.17h8.6v-2.17Zm8.6,5.83v-2.2h-8.6v2.2Z" style="fill:#768e91"/><path d="M239.92,307.25v4.1c0,.78-.16,1.2-.62,1.44a4.65,4.65,0,0,1-2.2.31,5.25,5.25,0,0,0-.43-1.46h1.5c.22,0,.3-.05.3-.29v-3.66l-1.83.6-.31-1.55c.6-.15,1.33-.37,2.14-.61v-3.84h-1.95v-1.45h1.95v-3.33h1.45v3.33h1.56v1.45h-1.56v3.43l1.68-.51.25,1.43ZM252,311.18v1.44H241.36v-1.44h4.56V308H242.4v-1.43h8.8V308h-3.72v3.2Zm-8.89-8.77h-1.38v-3H246c-.21-.51-.48-1.11-.72-1.57l1.47-.45a19.51,19.51,0,0,1,1,2h4.21v2.92h-1.44v-1.6h-1.58v2.62c0,.43.06.58.35.58h1.58a4.56,4.56,0,0,0,1-.09c0,.38.07.94.12,1.25a3.38,3.38,0,0,1-1.09.11h-1.65c-1.39,0-1.72-.51-1.72-1.87v-2.6h-1.17c-.15,2.67-.76,4.13-3.65,4.9a3.89,3.89,0,0,0-.77-1.14c2.43-.58,2.87-1.63,3-3.76h-1.71Z" style="fill:#768e91"/><path d="M260.44,306.69,259,307.93a30.89,30.89,0,0,0-3.72-3.77l1.39-1.21A31.83,31.83,0,0,1,260.44,306.69Z" style="fill:#768e91"/><path d="M279.05,311.14v1.33H265.43v0h-1V298.11h14.28v1.32H266v11.71Zm-8.31-.54v-6.31a11.35,11.35,0,0,1-.94,1.09,10,10,0,0,0-.75-1l-.67.81a9.6,9.6,0,0,0-2.32-1.58l.82-.93a11.24,11.24,0,0,1,2.21,1.32,12.16,12.16,0,0,0,2.68-4.47l1.3.38a17.17,17.17,0,0,1-.7,1.66h2.29c-.18-.47-.42-1-.64-1.41l1.39-.39a9.58,9.58,0,0,1,.87,1.8h2.23v1.24h-2.77V304H278v1.14h-2.24v1.17H278v1.14h-2.24v1.27h2.82V310h-6.43v.65Zm-4.17-1.12a36.72,36.72,0,0,0,2.26-3.67l.92,1c-.61,1.18-1.37,2.56-2.09,3.7Zm2.55-7.35a10,10,0,0,0-2.22-1.56l.85-.92a9.88,9.88,0,0,1,2.27,1.47Zm5.19.68h-2.18V304h2.18Zm0,2.32h-2.18v1.17h2.18Zm0,2.31h-2.18v1.27h2.18Z" style="fill:#768e91"/><path d="M296.75,311.55v1.19H281.82v-1.19h4.34a8.77,8.77,0,0,0-.77-1.53l.31-.08h-1.79v-3.22h11v3.22h-1.75l.29.08c-.32.55-.64,1.09-.95,1.53Zm-.19-5.52H282.08v-1.12h14.48Zm-.71-1.84H282.74v-6.27h1.36v5.17h1.72v-.75h-1.29v-.8h1.29v-.66H284.7v-.8h1.12v-.66h-1.23v-.8h1.23v-.87h1v.87h1.26v.8H286.8v.66H288v.8H286.8v.66h1.35v.8H286.8v.75h1.77v-5.61H290v5.61h1.75v-.75h-1.33v-.8h1.33v-.66h-1.16v-.8h1.16v-.66h-1.26v-.8h1.26v-.87h1v.87h1.26v.8h-1.26v.66h1.16v.8h-1.16v.66H294v.8h-1.35v.75h1.76v-5.17h1.41ZM285.39,309h7.94v-1.24h-7.94Zm1.58,1a6.55,6.55,0,0,1,.73,1.53l-.27.08h3.71l-.17-.05a12.7,12.7,0,0,0,.86-1.56Z" style="fill:#768e91"/><path d="M305.91,309.8l.14,1.33c-2.16.52-4.46,1.1-6.19,1.51l-.39-1.53,2.72-.53v-4.5h-2.47V304.7h2.47v-1.6h-1.58v-.76c-.24.2-.48.41-.7.56a12.93,12.93,0,0,0-.68-1.51,11.93,11.93,0,0,0,3.62-3.91l1.31.49c-.1.17-.2.37-.32.56a23.24,23.24,0,0,1,2.63,2.33l-1,1.12c-.59-.64-1.55-1.54-2.43-2.31a17.63,17.63,0,0,1-1.84,2.09h3.95v1.34h-1.63v1.6h2.29v1.38h-2.29v4.21Zm-4.78-3a18.06,18.06,0,0,1,.74,3l-1.14.32a18.59,18.59,0,0,0-.67-3.11Zm2.72,2.74a25.43,25.43,0,0,0,.73-3l1.2.34c-.33,1-.68,2.18-1,2.94Zm11-2.32a24,24,0,0,1-2.48,1.77,7.07,7.07,0,0,0,2.73,2.55,5.58,5.58,0,0,0-1.08,1.34c-2.3-1.34-3.66-4-4.46-7.13h-1.19v5.13l2.55-.7a8.62,8.62,0,0,0,.14,1.4c-3.45,1.05-4,1.27-4.35,1.54a5.32,5.32,0,0,0-.55-1.36,1,1,0,0,0,.68-1V298.22h7.41v7.54h-3.31a15.77,15.77,0,0,0,.78,2.09,20.27,20.27,0,0,0,2.11-1.7Zm-6.48-7.65v1.74h4.35v-1.74Zm0,4.8h4.35v-1.77h-4.35Z" style="fill:#768e91"/><path d="M323.13,301.68a23.54,23.54,0,0,1-1.85,2.6v8.85H319.7V306c-.56.56-1.14,1.09-1.68,1.53a9.63,9.63,0,0,0-1.09-1.35,18.08,18.08,0,0,0,4.71-5.09Zm-.64-3.57a22.89,22.89,0,0,1-4.49,4.3,7.4,7.4,0,0,0-.9-1.28,15.41,15.41,0,0,0,3.87-3.65Zm10.19,6.52h-2.44v6.55c0,.9-.21,1.36-.85,1.61a10.54,10.54,0,0,1-3.22.26,6.06,6.06,0,0,0-.51-1.58c1.09,0,2.23,0,2.54,0s.42-.08.42-.32v-6.53h-5.37v-1.51h9.43Zm-.47-4.64H324v-1.51h8.25Z" style="fill:#768e91"/><path d="M341.19,306.69l-1.45,1.24a30.89,30.89,0,0,0-3.72-3.77l1.39-1.21A31.83,31.83,0,0,1,341.19,306.69Z" style="fill:#768e91"/><path d="M355,299.25a30.39,30.39,0,0,1,4.47,4.92l-1.33,1a11.87,11.87,0,0,0-1-1.39c-9.34.49-10.43.52-11.2.8a14.6,14.6,0,0,0-.51-1.55,3.18,3.18,0,0,0,1.4-1,27.36,27.36,0,0,0,3.75-4.71l1.58.68a32.92,32.92,0,0,1-4.06,4.69l7.9-.32c-.73-.82-1.51-1.63-2.24-2.31Zm-8.28,6.61h11v7.2H356v-.86h-7.73v.9h-1.6Zm1.6,1.51v3.3H356v-3.3Z" style="fill:#768e91"/><path d="M364.58,305a10.89,10.89,0,0,0-2.43-1.76l.86-1.09a10.23,10.23,0,0,1,2.49,1.63Zm-2.09,7.08a56.59,56.59,0,0,0,2.11-5.39l1.25.81c-.54,1.75-1.27,3.79-2,5.37Zm2.38-11.44a10.86,10.86,0,0,0-2.37-1.89l.92-1a10.92,10.92,0,0,1,2.42,1.74Zm2,3.21a8.22,8.22,0,0,1-.72,2.29,4,4,0,0,0-.73-.49,6,6,0,0,0,.61-2Zm2.19-.68a4.35,4.35,0,0,0-.17-.51,12.9,12.9,0,0,0-2.89.49,5.09,5.09,0,0,0-.34-.73,1.47,1.47,0,0,0,.8-.56,10.33,10.33,0,0,0,.95-1.19,6.4,6.4,0,0,0-1.46.22,2.87,2.87,0,0,0-.34-.71,1.08,1.08,0,0,0,.56-.45,9,9,0,0,0,1-2.12l.94.32a9.56,9.56,0,0,1-1.13,1.94l1-.05c.15-.26.31-.51.43-.76l.9.37a15.27,15.27,0,0,1-2,2.6l1.24-.15c-.08-.17-.18-.34-.27-.5l.71-.25a7.58,7.58,0,0,1,.79,1.72Zm8.06,6.42a3.38,3.38,0,0,1-.11.6,4.18,4.18,0,0,1-1.07,2.5,2.25,2.25,0,0,1-1.41.39c-.51,0-1.54,0-2.6-.05a2.74,2.74,0,0,0-.42-1.21c1,.1,2.14.12,2.56.12a1.2,1.2,0,0,0,.73-.12,2.2,2.2,0,0,0,.62-1.21h-8.76a25.88,25.88,0,0,0,.75-2.68h7.45v-.73h-8v-1h9.48v2.63h-7.68l-.2.71Zm-9.63-3.73a8.43,8.43,0,0,0-.34-2.05l.75-.18a7.64,7.64,0,0,1,.39,2Zm1.48-.43a8.32,8.32,0,0,0-.52-1.85l.68-.24a7.16,7.16,0,0,1,.56,1.77Zm4.63-5.39h-4v-.88h1.72a9.32,9.32,0,0,0-.6-1.3l1-.23a6.65,6.65,0,0,1,.68,1.32l-.78.21h2ZM370,303.22h3.21v2.5H370Zm3.2-1.82H370v-.79h3.16Zm-3.16.46h3.16v.8H370Zm.95,3.08h1.2V304H371Zm3.77-1.14a9,9,0,0,1-.71,2.3,4.31,4.31,0,0,0-.73-.51,6.42,6.42,0,0,0,.61-2Zm2.23-.58c-.05-.15-.12-.35-.21-.58a16.9,16.9,0,0,0-2.9.5,7.11,7.11,0,0,0-.33-.73,1.56,1.56,0,0,0,.8-.58,11,11,0,0,0,.94-1.17,5.74,5.74,0,0,0-1.46.23,4.61,4.61,0,0,0-.33-.73c.19,0,.36-.18.55-.44a8.56,8.56,0,0,0,1-2.11l.91.33a10,10,0,0,1-1.08,1.92l1-.05c.13-.26.28-.51.4-.77l.9.39a14.24,14.24,0,0,1-1.95,2.6l1.24-.15-.27-.49.69-.26a7.93,7.93,0,0,1,.85,1.79ZM375.37,306a9.6,9.6,0,0,0-.35-2.19l.74-.19a9.2,9.2,0,0,1,.39,2.13Zm1.63-2.69a7.65,7.65,0,0,1,.68,2.11l-.73.33a9.21,9.21,0,0,0-.64-2.18Z" style="fill:#768e91"/><path d="M392.78,303.65a13.21,13.21,0,0,1-3.54,5.69,15.5,15.5,0,0,0,6.29,2.16,7.41,7.41,0,0,0-1,1.55,15.29,15.29,0,0,1-6.66-2.62,18.91,18.91,0,0,1-6.75,2.7,10.76,10.76,0,0,0-.92-1.58,18.14,18.14,0,0,0,6.36-2.22,14.31,14.31,0,0,1-3.33-5.61l1.51-.41a11.11,11.11,0,0,0,3.18,5,10.61,10.61,0,0,0,3.15-5.11Zm-8.58-2.87h-3.69v-1.53h3.69v-1.76h1.56v1.76h1.82v1.53h-1.82v2.05H384.2Zm5.89,0h-1.85v-1.53h1.85v-1.74h1.59v1.74h3.63v1.53h-3.63v2.07h-1.59Z" style="fill:#768e91"/><path d="M406.35,309h-8.42v-1.38h1.55V301h-1.33v-1.37h1.33v-2h1.43v2h2.75v-2h1.46v2h1.13V301h-1.13v6.63h1.23Zm-4.68.68a10.69,10.69,0,0,1-2.36,3.26,9.51,9.51,0,0,0-1.26-.92,7.83,7.83,0,0,0,2.13-2.77Zm-.76-8.69v1.31h2.75V301Zm0,3.91h2.75v-1.36h-2.75Zm0,2.72h2.75v-1.48h-2.75Zm2.89,1.67a13.23,13.23,0,0,1,1.53,2.14l-1.33.68a13.86,13.86,0,0,0-1.46-2.24Zm9.74-4.73h-1.63v8.54h-1.5v-8.54h-2.07v.67c0,3.09-.36,5.86-2.47,8.14a6.06,6.06,0,0,0-1.12-1c1.87-2.07,2.12-4.57,2.12-7.15V299.3a24.7,24.7,0,0,0,5.33-1.81l1.25,1.13a25.32,25.32,0,0,1-5.11,1.66v2.84h5.2Z" style="fill:#768e91"/><path d="M418.47,300.11v4c0,2.63-.22,6.54-1.67,9.08a5.17,5.17,0,0,0-1.19-1c1.28-2.33,1.4-5.68,1.4-8.11V298.8h6.37c-.13-.37-.29-.75-.42-1.07l1.56-.37c.22.44.44,1,.63,1.44h6.05v1.31Zm12.78,10.52h-5.54v1c0,.8-.2,1.12-.82,1.31a12.91,12.91,0,0,1-3,.18,5.46,5.46,0,0,0-.49-1.22c1,0,2.12,0,2.39,0s.39-.08.39-.32v-1h-5.59v-1.05h5.59v-.92h-4.72v-1.05h4.72v-.85c-1.41.08-2.85.13-4.18.15a4,4,0,0,0-.3-1,65.94,65.94,0,0,0,9.12-.71l1,.86a37.48,37.48,0,0,1-4.06.55v.95h4.78v1.05h-4.78v.92h5.56Zm-10.84-7.29a2.66,2.66,0,0,1-1,2.3,2.93,2.93,0,0,0-.8-.65,1.85,1.85,0,0,0,.83-1.7v-.63h.94Zm.73,2.18v-3.25h-2V301.1h2v-.77h1.22v.77h2v1.17h-2v3.25Zm2.63-.44c-.71,0-.83-.34-.83-1.06V302.7h.9V304c0,.27,0,.36.19.36h.05a3,3,0,0,0,.56-.06c0,.21,0,.45,0,.68a2.23,2.23,0,0,1-.56.06Zm2.43-1.79a3.11,3.11,0,0,1-.69,2.19,3.75,3.75,0,0,0-.8-.64,2,2,0,0,0,.58-1.58v-.62h.91Zm.7,1.82v-2.84h-2.11V301.1h2.11v-.77h1.24v.77h2.52v1.17h-2.52v2.84Zm2.75.07c-.78,0-.91-.34-.91-1.09v-1.45h.95v1.45c0,.29,0,.37.22.37h.39a2.91,2.91,0,0,0,.65-.06,6.11,6.11,0,0,0,.05.73,3.81,3.81,0,0,1-.67.05Z" style="fill:#768e91"/><path d="M448.15,303l-.26-.19v8.72c0,.77-.18,1.16-.69,1.38a7.71,7.71,0,0,1-2.59.24,5.42,5.42,0,0,0-.47-1.31c.85,0,1.68,0,1.92,0s.34-.08.34-.32v-8.25h-4.25V313h-1.5v-9.76h-4.06v9.86h-1.46V303l-.43.22a9.75,9.75,0,0,0-1.17-1,11.26,11.26,0,0,0,3.72-2.26h-3.19v-1.41h14.82v1.41h-3.16a29.29,29.29,0,0,1,3.6,2.09Zm-8,4.69a11.88,11.88,0,0,1-.74,1.57,8.3,8.3,0,0,1,1,.83l-.59.83c-.22-.24-.55-.52-.9-.83a9.87,9.87,0,0,1-1.36,1.63,6.21,6.21,0,0,0-.84-.59,9.11,9.11,0,0,0,1.42-1.64c-.38-.27-.77-.52-1.13-.73l.6-.76c.32.18.68.42,1,.66a10.89,10.89,0,0,0,.54-1.21Zm-.45-.93a6.52,6.52,0,0,0-.88-.75,9.2,9.2,0,0,1-1.19,1.39,9.22,9.22,0,0,0-.83-.56A9.5,9.5,0,0,0,438,305.4c-.36-.22-.7-.43-1-.6l.59-.73c.31.16.63.34,1,.53a6.27,6.27,0,0,0,.57-1.09l1,.24a11.62,11.62,0,0,1-.74,1.39,9,9,0,0,1,1,.75Zm1-4.8v-2h-2.82l1,.38a12.41,12.41,0,0,1-2,1.64Zm5.93,0a29.34,29.34,0,0,0-2.75-1.47l.71-.55h-2.39v2Zm-1.13,8.81a10.1,10.1,0,0,0-1-.8,10.63,10.63,0,0,1-1.42,1.65,7.27,7.27,0,0,0-.84-.6,7.83,7.83,0,0,0,1.47-1.61c-.4-.26-.79-.49-1.16-.7l.58-.78c.35.19.73.41,1.1.65a8,8,0,0,0,.53-1.16l1,.25a9.68,9.68,0,0,1-.7,1.45,11.22,11.22,0,0,1,1,.8Zm-.16-3.94a11.52,11.52,0,0,0-.91-.82,13.2,13.2,0,0,1-1.25,1.44,5.47,5.47,0,0,0-.83-.57,8,8,0,0,0,1.31-1.41,9.06,9.06,0,0,0-1.12-.68l.59-.72c.34.17.7.38,1.06.6a10,10,0,0,0,.54-1.09l.95.22a10.1,10.1,0,0,1-.71,1.39,11.06,11.06,0,0,1,1,.82Z" style="fill:#768e91"/><path d="M457.11,307.9a25,25,0,0,0-1.33-2.25v7.43h-1.53V306.2a16.76,16.76,0,0,1-2.17,4,10.17,10.17,0,0,0-.77-1.46,16.84,16.84,0,0,0,2.72-5h-2.5v-1.48h2.72V300c-.73.14-1.46.24-2.14.34a4.71,4.71,0,0,0-.44-1.22,25.78,25.78,0,0,0,5.41-1.38L458,299a16,16,0,0,1-2.2.65v2.6h2.38v1.48h-2.38V304c.51.53,2,2.26,2.28,2.71Zm8,.83v4.35h-1.56V309l-5.36.9-.23-1.51,5.59-.93v-10h1.56v9.71l1.85-.31.24,1.48Zm-3.7-2.29a15.08,15.08,0,0,0-2.84-2.54l1-.92a16,16,0,0,1,2.91,2.42Zm.42-4.48a14.05,14.05,0,0,0-2.63-2.46l1-.9a14.34,14.34,0,0,1,2.71,2.36Z" style="fill:#768e91"/><path d="M475.06,306.25l-1.94.56v4.47c0,.82-.17,1.24-.66,1.48a5.75,5.75,0,0,1-2.41.27,6.51,6.51,0,0,0-.48-1.43c.75,0,1.46,0,1.67,0s.34-.08.34-.32v-4c-.67.19-1.28.36-1.87.51l-.41-1.51,2.28-.54v-3.42h-2.09v-1.46h2.09v-3.34h1.54v3.32h1.79v1.48h-1.79v3l1.75-.46Zm9.16-2.08a12.4,12.4,0,0,1-3.31,5.63,11.72,11.72,0,0,0,4.18,2,5.58,5.58,0,0,0-1,1.35,11.85,11.85,0,0,1-4.4-2.3,14.31,14.31,0,0,1-4.64,2.26,6.67,6.67,0,0,0-.85-1.43,13.51,13.51,0,0,0,4.37-1.92,13.65,13.65,0,0,1-2.64-4.4l.22-.07h-.68v-1.44H479v-2.33h-3.8V300H479v-2.55h1.57V300h3.92v1.45h-3.92v2.33h2.41l.27-.05Zm-6.76,1.09a10.54,10.54,0,0,0,2.28,3.5,10.19,10.19,0,0,0,2.48-3.5Z" style="fill:#768e91"/><path d="M488,306.44a16,16,0,0,1,2.51-8.69l1.23.53a16.61,16.61,0,0,0,0,16.31l-1.23.55A16,16,0,0,1,488,306.44Z" style="fill:#768e91"/><path d="M500.8,308.19h-4.35l-1.07,3.57h-2l4.15-12.51h2.28l4.14,12.51h-2.09Zm-.48-1.55-.49-1.68c-.42-1.36-.8-2.76-1.19-4.17h-.07c-.35,1.43-.75,2.81-1.15,4.17l-.51,1.68Z" style="fill:#768e91"/><path d="M505.56,310.14l1.16-1.36a4.84,4.84,0,0,0,3.33,1.48c1.51,0,2.36-.71,2.36-1.77s-.85-1.49-2-2l-1.73-.75a3.59,3.59,0,0,1-2.55-3.28c0-2,1.73-3.45,4.11-3.45a5.38,5.38,0,0,1,3.8,1.58l-1,1.26a4,4,0,0,0-2.76-1.13c-1.27,0-2.1.62-2.1,1.62s1,1.48,2,1.89l1.72.73c1.47.63,2.55,1.54,2.55,3.38,0,2-1.67,3.64-4.41,3.64A6.23,6.23,0,0,1,505.56,310.14Z" style="fill:#768e91"/><path d="M517.63,299.25h2.26l2.3,6.32c.28.83.54,1.68.83,2.53h.08c.29-.85.53-1.7.82-2.53l2.26-6.32h2.28v12.51h-1.84v-6.19c0-1.12.16-2.74.26-3.88h-.07l-1,2.89-2.18,6h-1.22l-2.2-6-1-2.89h-.07c.09,1.14.24,2.76.24,3.88v6.19h-1.77Z" style="fill:#768e91"/><path d="M532.59,299.25h2v10.84h5.29v1.67h-7.26Z" style="fill:#768e91"/><path d="M542,314.59a16.61,16.61,0,0,0,0-16.31l1.23-.53a16.21,16.21,0,0,1,0,17.39Z" style="fill:#768e91"/><path d="M64.75,338.34v.09a10.87,10.87,0,0,0,0,15.74v.08H59.58V338.34Z" style="fill:#768e91"/><path d="M70.82,343c-.56,2.48-1.52,5.56-3,7.44a7.06,7.06,0,0,0-1.52-.83A16.41,16.41,0,0,0,69,342.62Zm4.33-4.22V352c0,1.05-.27,1.51-.93,1.78a10.38,10.38,0,0,1-3.39.29,7.78,7.78,0,0,0-.62-1.65c1.15.05,2.39.05,2.75,0s.48-.12.48-.46V338.73ZM79,342.49A27.55,27.55,0,0,1,82.29,350l-1.72.68a28.39,28.39,0,0,0-3.07-7.61Z" style="fill:#768e91"/><path d="M99.43,351.63v1.53H84.76v-1.53h1.7V340.94H84.89v-1.51h14v1.51H88.11v2.11h9.36v6.07H88.11v2.51Zm-11.32-7.05v3h7.73v-3Z" style="fill:#768e91"/><path d="M110.75,338.54c0,.65,0,1.54-.12,2.54.24,2.12,1.28,8.91,7.21,11.54a4.77,4.77,0,0,0-1.16,1.34c-4-1.88-5.84-5.62-6.75-8.67a13.56,13.56,0,0,1-6.49,8.76,4.8,4.8,0,0,0-1.31-1.26c7-3.6,6.77-11.52,6.82-14.25Z" style="fill:#768e91"/><path d="M125.52,348.85a7.93,7.93,0,0,0-.22-1c-3.8.57-4.4.7-4.76.9a13.69,13.69,0,0,0-.49-1.44,3.69,3.69,0,0,0,1.33-1.1,20.72,20.72,0,0,0,1.34-1.7,8.24,8.24,0,0,0-2.3.39,13.33,13.33,0,0,0-.47-1.38c.32-.07.61-.41,1-.92a21.55,21.55,0,0,0,2.28-4.23l1.41.59a25.18,25.18,0,0,1-2.6,4.3l1.65-.13A20.42,20.42,0,0,0,125,341l1.34.82a33.47,33.47,0,0,1-3.84,5.2l2.51-.32a13.7,13.7,0,0,0-.47-1.45l1.19-.35a23.83,23.83,0,0,1,1.1,3.51Zm-3.48.81a19.42,19.42,0,0,1-.8,4.12,8.57,8.57,0,0,0-1.26-.46,17.31,17.31,0,0,0,.75-3.9Zm2-.29c.2,1.16.41,2.64.48,3.64l-1.29.27a33,33,0,0,0-.43-3.67Zm1.84-.46a21.1,21.1,0,0,1,.85,2.79l-1.23.43a24.36,24.36,0,0,0-.78-2.86Zm9.72,3.44v1.43h-9.49v-1.43h1.42v-13h7v13Zm-6.63-11.56v2.84h4v-2.84Zm4,4.25h-4V348h4Zm-4,7.31h4v-3h-4Z" style="fill:#768e91"/><path d="M142.44,354.25h-5.17v-.08a10.87,10.87,0,0,0,0-15.74v-.09h5.17Z" style="fill:#768e91"/><path d="M154.2,352.08c0,.76-.15,1.19-.63,1.42a5.15,5.15,0,0,1-2.31.28,5.84,5.84,0,0,0-.47-1.41h1.63c.22,0,.3-.08.3-.3v-3.74h-2.8a13.12,13.12,0,0,1-1.65,5.79,5.89,5.89,0,0,0-1.26-.8c1.45-2.24,1.57-5.5,1.57-7.95v-6h5.62Zm-1.48-5.17v-2.38H150v.83c0,.48,0,1,0,1.55ZM150,340.77v2.35h2.68v-2.35Zm11.88,11.32c0,.85-.15,1.33-.7,1.58a6.69,6.69,0,0,1-2.65.29,5.07,5.07,0,0,0-.47-1.54c.85,0,1.71,0,2,0s.36-.1.36-.35v-3.74h-3.18a12.26,12.26,0,0,1-1.91,5.83,5.8,5.8,0,0,0-1.3-.84c1.71-2.33,1.86-5.71,1.86-8.24v-5.75h6Zm-1.51-5.18v-2.38h-3v.56c0,.58,0,1.19,0,1.82Zm-3-6.14v2.35h3v-2.35Z" style="fill:#768e91"/><path d="M170.25,349.13c-.22-.52-.73-1.46-1.19-2.27v7.26h-1.5v-7.06a16.86,16.86,0,0,1-2,4.23,8,8,0,0,0-.73-1.54,17.46,17.46,0,0,0,2.36-5h-2.11V343.3h2.48v-2.41c-.62.12-1.25.22-1.85.31a5.43,5.43,0,0,0-.42-1.23,22,22,0,0,0,4.79-1.36l.88,1.3a17.74,17.74,0,0,1-1.9.61v2.78h2.06v1.47h-2.06v.35c.46.55,1.79,2.3,2.07,2.72Zm10.29,3.18v1.41h-9.73v-1.41H175v-1.95h-3.32V349H175v-1.75c-.95.1-1.92.17-2.81.2a4.07,4.07,0,0,0-.37-1.22,36.31,36.31,0,0,0,6.8-.94l1,1.19a23.91,23.91,0,0,1-3.06.58V349h3.27v1.36h-3.27v1.95Zm-.87-7.46h-7.84v-5.54h7.84Zm-1.53-4.2h-4.83v2.86h4.83Z" style="fill:#768e91"/><path d="M184.94,344.83h-1.5v-3.7h6.41v-.9h-5.68v-1.11h13v1.11H191.4v.9H198v3.7h-1.58V342.2h-5v3.71h-1.55V342.2h-4.91Zm11.13,7.81c.87,0,1-.27,1.14-1.86a3.83,3.83,0,0,0,1.33.51c-.21,2-.65,2.59-2.36,2.59h-3.73c-2.09,0-2.67-.41-2.67-1.94v-.32h-3.33v.81h-1.51v-6h11.52v5.17H191.3v.3c0,.6.2.72,1.25.72Zm-11-7.75c1.07-.14,2.51-.36,4-.58l0,.93c-1.29.31-2.55.58-3.66.78Zm.93-2.52a19,19,0,0,1,3.11.83l-.42.9a21.21,21.21,0,0,0-3.15-.91Zm.46,5.18v1h3.33v-1Zm3.33,3v-1h-3.33v1Zm5.14-3H191.3v1h3.62Zm0,3v-1H191.3v1Zm1-4.47a26.1,26.1,0,0,0-3.94-.93l.34-.9a19.45,19.45,0,0,1,3.92.81Zm0-2.91a21.36,21.36,0,0,1-3.2.89l-.53-.77c.92-.22,2.26-.69,3.06-1Z" style="fill:#768e91"/><path d="M216.18,347.49h-6.74v4.64c0,1-.24,1.44-1,1.68a11.74,11.74,0,0,1-3.41.29,6.72,6.72,0,0,0-.68-1.63c1.29,0,2.56,0,2.94,0s.46-.1.46-.41v-4.6h-6.85v-1.58h6.85v-2.4a21.41,21.41,0,0,0,3.84-2.4h-9v-1.54h10.74l.36-.09,1.19.92a26.18,26.18,0,0,1-5.47,3.94v1.57h6.74Z" style="fill:#768e91"/><path d="M224.74,347.69l-1.45,1.24a30.89,30.89,0,0,0-3.72-3.77L221,344A31.83,31.83,0,0,1,224.74,347.69Z" style="fill:#768e91"/><path d="M240.24,344.66c0,.36,0,.74,0,1.14.55,3.33,1.43,5.36,3.32,7.08a3.63,3.63,0,0,0-1,1.22,11,11,0,0,1-2.83-4.76,11,11,0,0,1-2.74,4.78,4.67,4.67,0,0,0-.82-1,13.47,13.47,0,0,1-1.53.07h-3.47c-1.95,0-2.65-.7-2.65-2.8v-9.74H228v-1.35h8.29v1.35H229.9v9.82c0,1,.29,1.4,1.18,1.4h3.6a9.53,9.53,0,0,0,1.6-.14c0,.19.05.46.08.71,2.23-2.5,2.45-5.67,2.45-7.8v-1.21h1.43Zm-9.83,1.84H233v4.28h-2.6Zm4.9-1H231v-3.86h4.32Zm-4.08,4.3h1v-2.31h-1Zm2.84-7.18h-1.9v1.89h1.9Zm2.11,8.18h-2.67v-4.26h2.67Zm-.87-3.28h-1v2.28h1Zm3.14-5a12.87,12.87,0,0,1-1.44,3.31,8.62,8.62,0,0,0-1.28-.85,15.1,15.1,0,0,0,2.13-6.51l1.44.24a21.89,21.89,0,0,1-.44,2.36h3.61l.23-.05,1,.31a37.15,37.15,0,0,1-1.27,4.59l-1.19-.41a29.54,29.54,0,0,0,.78-3Z" style="fill:#768e91"/><path d="M254.33,347.18a11.86,11.86,0,0,0,7.16,5.17,5.39,5.39,0,0,0-1,1.37,12.78,12.78,0,0,1-6.12-4.26v4.64h-1.56v-4.71a13.81,13.81,0,0,1-6,4.44,7.18,7.18,0,0,0-1.07-1.38,12.34,12.34,0,0,0,7.07-5.51v-2.39h-6.51v-1.4h6.51v-1.39h1.56v1.39H261v1.4h-6.62Zm-5.15-6.08h-3v-1.4h3v-1.22h1.57v1.22h2.49v1.4h-2.49v1.22h-1.57Zm1.11,4a9,9,0,0,1-.43,1.24,15.36,15.36,0,0,1,1.84,1.95l-1.16.78a11.77,11.77,0,0,0-1.26-1.53,8.4,8.4,0,0,1-1.83,2.21,8.59,8.59,0,0,0-1.19-.86,7,7,0,0,0,2.57-4Zm6.13-4h-2.51v-1.4h2.51v-1.22H258v1.22h3.09v1.4H258v1.24h-1.57Zm2.21,3.94a11.46,11.46,0,0,1-.32,1.22,27.44,27.44,0,0,1,2.53,2.33l-1.14.94a24.09,24.09,0,0,0-2-2,6.23,6.23,0,0,1-1.09,1.54,10.53,10.53,0,0,0-1.39-.68,6.52,6.52,0,0,0,1.92-3.58Z" style="fill:#768e91"/><path d="M268.68,342.69a25.17,25.17,0,0,1-1.36,2.33v9.1h-1.48v-7a15,15,0,0,1-1.49,1.69,14,14,0,0,0-.9-1.44,18.72,18.72,0,0,0,3.8-5.17Zm-.29-3.58a28.19,28.19,0,0,1-4.08,4.43,8.83,8.83,0,0,0-.75-1.29,18,18,0,0,0,3.39-3.74Zm-.69,13.7a10.29,10.29,0,0,0,1.42-3.15l1.19.48a10.74,10.74,0,0,1-1.43,3.35Zm11.54-4.12h-5.46a21.19,21.19,0,0,1,1.17,2l-1.22.47a20.09,20.09,0,0,0-1.16-2.11l1.09-.39h-5.25v-1.27h10.83Zm-6.55-6.56c.07-.32.12-.68.17-1.05H268.6V339.8H273c.05-.47.08-.95.1-1.34l1.67.05-.19,1.29h4.57v1.28h-4.77c-.06.39-.12.73-.17,1.05h4.36v4.34h-9.29v-4.34ZM272,343.3h-1.46v2H272Zm2.94,9.35c.51,0,.59-.18.66-1.51a3.79,3.79,0,0,0,1.24.49c-.15,1.81-.54,2.25-1.75,2.25h-2.33c-1.54,0-1.92-.39-1.92-1.65v-2.35h1.38v2.33c0,.39.12.44.71.44Zm-.31-9.35H273.1v2h1.51Zm1.13,2h1.54v-2h-1.54Zm1.83,4.24a15.79,15.79,0,0,1,1.77,3.21l-1.26.56A13.71,13.71,0,0,0,276.4,350Z" style="fill:#768e91"/><path d="M296.37,339.24v14.91h-1.56v-.75H283.69v.75H282.2V339.24ZM294.81,352v-11.3H283.69V352Zm-1.26-7.25a12.9,12.9,0,0,1-1.82,4c.29.73.67,1.19,1.11,1.28.2.07.35-.63.46-1.68a5.6,5.6,0,0,0,1,.74c-.24,1.94-.95,2.61-1.94,2.21a2.63,2.63,0,0,1-1.55-1.41,9.7,9.7,0,0,1-2,1.7,8.67,8.67,0,0,0-.88-1,9.88,9.88,0,0,0,1.31-.91c-1.67.27-3.39.59-4.75.83l-.17-1.19c1.24-.17,3.1-.46,4.93-.75l0,1.05a8,8,0,0,0,1-1.07,23,23,0,0,1-.83-4.74h-5v-1.17h4.88c0-.54-.06-1.09-.1-1.63h1.31c0,.54.05,1.1.08,1.63H293a6.14,6.14,0,0,0-1.68-1.17l.73-.74a6.91,6.91,0,0,1,1.73,1.13l-.74.78h1v1.17h-3.36a31.41,31.41,0,0,0,.49,3.33,10.76,10.76,0,0,0,1.05-2.7Zm-4.79,0V348H285v-3.27Zm-1.11.9h-1.6v1.47h1.6Z" style="fill:#768e91"/><path d="M304.81,339.67c-.46,1.41-1,3.09-1.52,4.45a5.63,5.63,0,0,1,1.33,3.59,2.52,2.52,0,0,1-.68,2.07,2,2,0,0,1-.89.32,4.66,4.66,0,0,1-1.07,0,3.19,3.19,0,0,0-.34-1.31,6.18,6.18,0,0,0,.84,0,.9.9,0,0,0,.47-.15,1.53,1.53,0,0,0,.33-1.13,5.1,5.1,0,0,0-1.31-3.28c.41-1.14.81-2.55,1.1-3.67h-1.75v13.45H300V339.17h3.64l.2-.05Zm2,4.48a7.1,7.1,0,0,0,.59-.91,13.57,13.57,0,0,0-1.34-1.19,11.4,11.4,0,0,1-1.16,1.31,5.59,5.59,0,0,0-1-.8,9.05,9.05,0,0,0,2.6-4.05l1.22.27q-.18.51-.39,1h1.55l.22,0,.82.29-.09.35.83-.2v-.77h2.94l.28-.06.88.51a13.18,13.18,0,0,1-2.16,3.89,7.58,7.58,0,0,0,2.48,2.38,3.82,3.82,0,0,0-.91,1.1,7.82,7.82,0,0,1-2-1.8v1H307.1v-.74a9.17,9.17,0,0,1-1.77,1.52,4.4,4.4,0,0,0-.81-1,7.65,7.65,0,0,0,2.09-1.85c-.78.13-1.46.25-2.18.35l-.17-1,2.48-.27Zm1.05,6.16a21.32,21.32,0,0,1-2.33,3.09,9.55,9.55,0,0,0-1.25-.81,13.54,13.54,0,0,0,2.15-2.76Zm2.62-1.21v5H309v-5h-3.46v-1.29h8.41v1.29Zm-3.67-8.26-.21.36c.45.3.92.71,1.33,1.05a14.69,14.69,0,0,0,.53-1.41Zm5.2,4.32a14.48,14.48,0,0,1-2.19-4.63,13,13,0,0,1-2.25,4.63ZM311,340.5a15,15,0,0,0,.85,2.07A12.52,12.52,0,0,0,313,340.5Zm1.6,9.18c.78.87,1.87,2.09,2.38,2.8l-1.2.8a36.08,36.08,0,0,0-2.33-2.9Z" style="fill:#768e91"/><path d="M323.34,347.69l-1.45,1.24a30.89,30.89,0,0,0-3.72-3.77l1.39-1.21A31.83,31.83,0,0,1,323.34,347.69Z" style="fill:#768e91"/><path d="M335.59,344.83c1.16,3.54,3.3,6.41,6.51,7.76a6.47,6.47,0,0,0-1.17,1.47c-3.18-1.47-5.24-4.23-6.56-7.83a11.75,11.75,0,0,1-6.56,7.83,5.75,5.75,0,0,0-1.21-1.32,10.57,10.57,0,0,0,6.37-7.91h-6V343.2h6.32a42,42,0,0,0,.21-4.69h1.71a41.91,41.91,0,0,1-.23,4.69h6.85v1.63Z" style="fill:#768e91"/><path d="M357.42,349.07a8.82,8.82,0,0,1-3.16,2.75,34.27,34.27,0,0,0,5.59.82,6.24,6.24,0,0,0-.88,1.46,27.52,27.52,0,0,1-6.75-1.36,31,31,0,0,1-6.78,1.43,4.45,4.45,0,0,0-.8-1.33,31.51,31.51,0,0,0,5.69-.9,15,15,0,0,1-2.21-1.39A21.49,21.49,0,0,1,346,351.6a8.38,8.38,0,0,0-1.09-1.05,16.69,16.69,0,0,0,2.13-.92A10,10,0,0,1,346,348.3l1.24-.52a9,9,0,0,0,1.07,1.15,9.42,9.42,0,0,0,1.85-1.53c-.7-.17-.92-.56-.92-1.43v-1.44h1.46V346c0,.35.12.4.77.4h2.18c.47,0,.57-.11.64-1a4.74,4.74,0,0,0,1.22.44c-.13,1.32-.54,1.66-1.69,1.66h-2.18l.17.07a8.56,8.56,0,0,1-.82.89h5.22l.27-.06Zm-10.86-3.66h-1.5v-3H348a6.67,6.67,0,0,0-.88-1.46l.88-.36c-.71,0-1.42.06-2.12.07a5.15,5.15,0,0,0-.33-1.19,81.56,81.56,0,0,0,11.87-1l1.05,1.09a56.6,56.6,0,0,1-6.35.79A5.5,5.5,0,0,1,353,342l-1,.37h2.91a20,20,0,0,0,1.42-2.43l1.53.55c-.44.64-.93,1.32-1.37,1.88h2.9v3.18h-1.56v-1.94h-5.63a10.92,10.92,0,0,1,1.74,1l-.82.92a12.58,12.58,0,0,0-2.46-1.48l.46-.48h-4.49Zm-.83,1.43a4.75,4.75,0,0,0,1.78-2.41l1.21.51a5.31,5.31,0,0,1-1.87,2.75Zm6-6.46c-1.07.09-2.18.14-3.25.19a5,5,0,0,1,.94,1.55l-.68.28h2.82a6.62,6.62,0,0,0-.8-1.66Zm-2.41,9.38a13,13,0,0,0,3,1.48,9.13,9.13,0,0,0,2.62-1.6h-5.49Zm6.85-5.49a14.47,14.47,0,0,1,2.67,2.62l-1.14.85a13.32,13.32,0,0,0-2.61-2.68Z" style="fill:#768e91"/><path d="M377,342.44a14.56,14.56,0,0,1-2.57,4.28c.48,3.44,1.19,5.78,1.84,5.78.25,0,.4-.87.47-2.79a3.57,3.57,0,0,0,1.19.87c-.22,2.69-.66,3.43-1.87,3.43-1.42,0-2.38-2.46-3-6a12.49,12.49,0,0,1-1.33,1,9.15,9.15,0,0,0-.83-.85h-5.26v-3.89h5.46v3.37a8.94,8.94,0,0,0,1.7-1.35c-.17-1.51-.31-3.18-.37-4.87h-7.4v.93h6.77v1.1h-6.77v.12c0,2.89-.24,7.48-1.75,10.54a5.49,5.49,0,0,0-1.24-.83c1.41-2.89,1.55-7,1.55-9.71v-3.43h8.78c0-.56,0-1.11,0-1.65H374c0,.54,0,1.09,0,1.65h1.56c-.44-.36-1.09-.78-1.56-1.11l.92-.67a21,21,0,0,1,1.87,1.22l-.68.56h1.51v1.28H374c.05,1.13.12,2.26.24,3.31a11.38,11.38,0,0,0,1.36-2.67Zm-12.56,10.64a32.23,32.23,0,0,0,.8-3.5l1,.37c-.17,1-.47,2.57-.73,3.57Zm5.73-.26c.44,0,.54-.23.59-1.88a3.26,3.26,0,0,0,1.12.49c-.13,2-.47,2.5-1.58,2.5h-2c-1.36,0-1.68-.36-1.68-1.56v-2.86H368v2.84c0,.41.09.47.58.47Zm-.28-7.41H367v1.65h2.89Zm-.56,5.9a27.63,27.63,0,0,0-1.41-2.52l1-.47a21.77,21.77,0,0,1,1.45,2.43Zm2.89-1.94c.56,1.07,1.28,2.54,1.6,3.39l-1.14.52a38,38,0,0,0-1.53-3.5Z" style="fill:#768e91"/><path d="M380.18,352.5a10.87,10.87,0,0,0,1.91-3.76l1.39.53a12.89,12.89,0,0,1-1.9,4Zm13.76-4.74H382v-8.69h12Zm-1.7-7.36h-8.69v6h8.69Zm-1.7,5.79c-.63-.56-1.82-1.42-2.86-2.14a4.93,4.93,0,0,1-2.87,2.11,3.88,3.88,0,0,0-.72-1,3.87,3.87,0,0,0,2.64-2.14h-2.38v-1.19h2.74c.06-.37.12-.75.15-1.16h1.32a10.18,10.18,0,0,1-.15,1.16h3v1.19h-3.17a37.58,37.58,0,0,1,3.2,2.23Zm-.7,6.18c.8,0,.92-.29,1-2.16a4.8,4.8,0,0,0,1.44.59c-.2,2.41-.64,3-2.36,3h-3.21c-2,0-2.53-.46-2.53-2v-3.07h1.59v3c0,.49.17.6,1.09.6Zm-1.92-4.44a11.55,11.55,0,0,1,2.16,2.68l-1.36.72a12.06,12.06,0,0,0-2.08-2.77Zm5.06.51a13.78,13.78,0,0,1,2.54,3.84l-1.46.71a14.86,14.86,0,0,0-2.42-3.92Z" style="fill:#768e91"/><path d="M403.56,348.9a25,25,0,0,0-1.33-2.25v7.43H400.7V347.2a16.41,16.41,0,0,1-2.17,4,9.26,9.26,0,0,0-.77-1.46,16.84,16.84,0,0,0,2.72-5H398v-1.48h2.72V341c-.73.14-1.46.24-2.14.34a4.71,4.71,0,0,0-.44-1.22,25.78,25.78,0,0,0,5.41-1.38l.9,1.29a16,16,0,0,1-2.2.65v2.6h2.38v1.48h-2.38V345c.51.53,2,2.26,2.28,2.71Zm8,.83v4.35H410V350l-5.36.9-.23-1.51,5.59-.93v-10h1.56v9.71l1.85-.31.24,1.48Zm-3.7-2.29A15.08,15.08,0,0,0,405,344.9l1-.92a16,16,0,0,1,2.91,2.42Zm.42-4.48a14.05,14.05,0,0,0-2.63-2.46l1-.9a14.34,14.34,0,0,1,2.71,2.36Z" style="fill:#768e91"/><path d="M421.51,347.25l-1.94.56v4.47c0,.82-.17,1.24-.66,1.48a5.75,5.75,0,0,1-2.41.27,6.51,6.51,0,0,0-.48-1.43c.75,0,1.46,0,1.67,0s.34-.08.34-.32v-4c-.67.19-1.28.36-1.87.51l-.41-1.51,2.28-.54v-3.42h-2.09v-1.46H418v-3.34h1.54v3.32h1.79v1.48h-1.79v3l1.75-.46Zm9.16-2.08a12.4,12.4,0,0,1-3.31,5.63,11.72,11.72,0,0,0,4.18,2,5.58,5.58,0,0,0-1,1.35,11.85,11.85,0,0,1-4.4-2.3,14.31,14.31,0,0,1-4.64,2.26,6.67,6.67,0,0,0-.85-1.43,13.51,13.51,0,0,0,4.37-1.92,13.65,13.65,0,0,1-2.64-4.4l.22-.07h-.68v-1.44h3.5v-2.33h-3.8V341h3.8v-2.55H427V341h3.92v1.45H427v2.33h2.41l.27-.05Zm-6.76,1.09a10.54,10.54,0,0,0,2.28,3.5,10.19,10.19,0,0,0,2.48-3.5Z" style="fill:#768e91"/><rect x="56.39" y="133.86" width="685.61" height="0.75" style="fill:#566c6c"/></g></svg>