<svg xmlns="http://www.w3.org/2000/svg" viewBox="0 0 732.679 65.94" preserveAspectRatio="xMinYMin meet">
    <defs>
        <style>
            .product-svg-1{
                fill: #262626
            }
            .product-svg-2{
                isolation: isolate
            }
        </style>
    </defs>
    <g id="Group_312" transform="translate(-601.321 -250.06)">
        <text id="天下永續會提供" fill="#262626" font-family="GenYoMinTW-SemiBold-TTF, GenYoMin TW TTF" font-size="41px" letter-spacing="0.116em" transform="translate(1018 305)">
            <tspan x="0" y="0">天下永續會提供</tspan>
        </text>
        <g id="WHY_NOW" class="product-svg-2" transform="translate(-454.816 -1314.528)">
            <g id="Group_300" class="product-svg-2">
                <path id="Path_417" d="M1071.313 1565.709q1.77.081 4.649.159t5.694.081q4.009 0 7.7-.081t5.226-.08q10.32 0 14.261 4.4t2.074 11.361a24.307 24.307 0 0 1-2.642 6.039 22.539 22.539 0 0 1-5.105 5.84 25.828 25.828 0 0 1-8.035 4.36 34.784 34.784 0 0 1-11.454 1.681h-8.19l.429-1.6h7.336a19.7 19.7 0 0 0 9.834-2.16 15.811 15.811 0 0 0 5.873-5.68 29.956 29.956 0 0 0 3.187-7.6q2.037-7.6-.154-11.361t-9.954-3.759q-3.926 0-5.484 1.36t-2.673 5.519l-10.632 39.681a10.909 10.909 0 0 0-.518 4.32 2.431 2.431 0 0 0 2 1.919 25.763 25.763 0 0 0 5.288.641l-.428 1.6q-2.176-.161-5.576-.2t-6.9-.039q-3.326 0-6.237.039t-4.745.2l.428-1.6a20.759 20.759 0 0 0 4.566-.641 4.318 4.318 0 0 0 2.517-1.919 16.484 16.484 0 0 0 1.67-4.32l10.633-39.681a13.7 13.7 0 0 0 .655-4.36 2.156 2.156 0 0 0-1.489-1.92 13.833 13.833 0 0 0-4.232-.6z" class="product-svg-1"/>
                <path id="Path_418" d="M1121.217 1565.709q1.768.081 4.648.159t5.7.081q4.008 0 7.7-.081t5.225-.08q10.32 0 14.369 4t2.46 9.92a18.414 18.414 0 0 1-2.4 5.119 20.466 20.466 0 0 1-4.913 5.121 26.783 26.783 0 0 1-7.929 3.959 36.9 36.9 0 0 1-11.422 1.561h-8.189l.429-1.6h7.335a22.292 22.292 0 0 0 9.739-1.8 13.713 13.713 0 0 0 5.636-4.8 23.036 23.036 0 0 0 2.942-6.681q1.692-6.317-.572-9.8t-10.031-3.48q-3.925 0-5.483 1.36t-2.673 5.519l-10.633 39.681a13.8 13.8 0 0 0-.644 4.32 2.079 2.079 0 0 0 1.49 1.919 16.334 16.334 0 0 0 4.222.641l-.429 1.6q-1.92-.161-4.852-.2t-5.918-.039q-3.327 0-6.238.039t-4.745.2l.429-1.6a20.736 20.736 0 0 0 4.564-.641 4.323 4.323 0 0 0 2.519-1.919 16.628 16.628 0 0 0 1.671-4.32l10.631-39.681a13.677 13.677 0 0 0 .656-4.36 2.159 2.159 0 0 0-1.489-1.92 13.848 13.848 0 0 0-4.234-.6zm5.953 28.4q4.564.162 7.154.361t4.213.359q1.618.162 3.091.4 5.478.881 7.364 3.24t1.75 7.319l-.054 8.161a17.492 17.492 0 0 0 .388 5.079 2.089 2.089 0 0 0 2.376 1.48 5.2 5.2 0 0 0 2.666-.879 22.414 22.414 0 0 0 2.669-2.16l1.044.881a23.3 23.3 0 0 1-4.728 3.8 11.361 11.361 0 0 1-5.771 1.321 7.208 7.208 0 0 1-5.074-1.76q-1.919-1.758-1.739-6.881l.266-8a36.7 36.7 0 0 0-.152-5.959 6.781 6.781 0 0 0-1.668-3.961q-1.363-1.438-4.776-1.439h-9.212z" class="product-svg-1"/>
                <path id="Path_419" d="M1204.86 1564.588q8.1 0 13.283 3.44a16.212 16.212 0 0 1 6.821 9.88q1.644 6.441-.82 15.641a43.364 43.364 0 0 1-7.657 15.68 38.3 38.3 0 0 1-12.406 10.48 31.944 31.944 0 0 1-15.083 3.76q-8.1 0-13.281-3.44a16.164 16.164 0 0 1-6.812-9.921q-1.633-6.48.812-15.6a42.953 42.953 0 0 1 7.7-15.68 38.9 38.9 0 0 1 12.4-10.48 31.717 31.717 0 0 1 15.043-3.76zm-.726 1.441a18.019 18.019 0 0 0-10.6 3.6 34.163 34.163 0 0 0-9.013 9.92 53.563 53.563 0 0 0-6.184 14.639 38.278 38.278 0 0 0-1.437 14.76q.831 6.283 4.23 9.681a11.645 11.645 0 0 0 8.6 3.4 18.014 18.014 0 0 0 10.6-3.6 34.142 34.142 0 0 0 9.024-9.959 53.686 53.686 0 0 0 6.172-14.6q2.3-8.561 1.45-14.8t-4.2-9.64a11.618 11.618 0 0 0-8.642-3.401z" class="product-svg-1"/>
                <path id="Path_420" d="M1262.314 1565.709q15.267 0 20.773 7.16t1.924 20.52a39.844 39.844 0 0 1-7.71 15.24 36.661 36.661 0 0 1-13.246 10.12 42.081 42.081 0 0 1-17.686 3.6q-1.876 0-5.513-.12t-6.366-.12q-2.985 0-5.9.039t-4.745.2l.428-1.6a20.749 20.749 0 0 0 4.565-.641 4.318 4.318 0 0 0 2.518-1.919 16.558 16.558 0 0 0 1.671-4.32l10.632-39.681a13.7 13.7 0 0 0 .655-4.36 2.157 2.157 0 0 0-1.489-1.92 13.835 13.835 0 0 0-4.233-.6l.429-1.6q1.77.081 4.638.2t5.705.04q3.006-.079 6.782-.161t6.168-.077zm-2.519 1.439q-3.926 0-5.483 1.361t-2.673 5.52l-10.719 40q-1.113 4.161-.241 5.52t4.8 1.359q9.3 0 15.263-3.16a24.592 24.592 0 0 0 9.642-9.239 57.2 57.2 0 0 0 6.013-14.8q3.6-13.441.112-20t-16.709-6.561z" class="product-svg-1"/>
                <path id="Path_421" d="M1352.4 1565.709l-.429 1.6a12.928 12.928 0 0 0-4.608.8 5.471 5.471 0 0 0-2.626 2.319 18.992 18.992 0 0 0-1.734 4.561l-6.452 24.079a63.77 63.77 0 0 1-3.383 9.76 27.218 27.218 0 0 1-4.658 7.2 22.214 22.214 0 0 1-7.675 5.4 24.423 24.423 0 0 1-9.931 2.04 29.49 29.49 0 0 1-7.558-.92 10.915 10.915 0 0 1-5.615-3.4 13.27 13.27 0 0 1-2.617-4.719 14.894 14.894 0 0 1-.291-6.081 70.1 70.1 0 0 1 1.911-9.039l6.731-25.121a13.709 13.709 0 0 0 .656-4.36 2.159 2.159 0 0 0-1.49-1.92 13.831 13.831 0 0 0-4.233-.6l.43-1.6q1.77.081 4.649.159t6.206.081q2.985 0 5.95-.081t4.947-.159l-.428 1.6a17.312 17.312 0 0 0-4.554.6 4.516 4.516 0 0 0-2.52 1.92 16.575 16.575 0 0 0-1.68 4.36l-7.095 26.481a56.54 56.54 0 0 0-1.826 10q-.37 4.56 1.76 7.279t8.186 2.72a19.82 19.82 0 0 0 10.741-2.68 20.454 20.454 0 0 0 6.932-7.4 45.321 45.321 0 0 0 4.258-10.641l6.687-24.959a11.106 11.106 0 0 0 .5-4.561 3.079 3.079 0 0 0-1.81-2.319 11.32 11.32 0 0 0-4.393-.8l.43-1.6q1.512.081 4.008.159t4.628.081q2.219 0 4.415-.081t3.581-.158z" class="product-svg-1"/>
                <path id="Path_422" d="M1386.138 1564.588a20.56 20.56 0 0 1 8.838 1.56 22.605 22.605 0 0 1 5.465 3.641q1.384 1.2 2.527.279t2.405-4.359h1.963q-.968 2.96-2.186 7.2t-3.087 11.2h-1.963q.322-3.439.359-5.48a14.359 14.359 0 0 0-.305-3.481 11.09 11.09 0 0 0-1.147-2.879 10.352 10.352 0 0 0-5.378-4.76 21.034 21.034 0 0 0-8.049-1.48 17.772 17.772 0 0 0-8.075 1.959 25.99 25.99 0 0 0-7.312 5.641 40.457 40.457 0 0 0-6.133 8.88 57.12 57.12 0 0 0-4.453 11.679 44.33 44.33 0 0 0-1.732 11.88 20.909 20.909 0 0 0 1.727 8.68 11.8 11.8 0 0 0 4.715 5.32 13.831 13.831 0 0 0 7.154 1.8 28.151 28.151 0 0 0 8.4-1.439 21.08 21.08 0 0 0 11.764-9.681 74.173 74.173 0 0 0 3.359-7.6h1.962q-1.952 7.281-3.055 11.72t-1.748 7.481h-1.953q.58-3.438.006-4.321t-2.751.242a62.936 62.936 0 0 1-7.673 3.639 25.912 25.912 0 0 1-9.5 1.56q-8.1 0-13.281-3.44a16.159 16.159 0 0 1-6.811-9.921q-1.633-6.48.811-15.6a42.969 42.969 0 0 1 7.7-15.68 38.9 38.9 0 0 1 12.406-10.48 31.713 31.713 0 0 1 15.031-3.76z" class="product-svg-1"/>
                <path id="Path_423" d="M1463.381 1565.709q-1.158 3.04-2.045 5.879t-1.3 4.36q-.515 1.922-.879 3.6t-.623 2.96h-1.962a45.213 45.213 0 0 0 .748-8.841 5.542 5.542 0 0 0-2.329-4.68q-2.173-1.44-7.547-1.439h-4.607l-12.2 45.519a13.534 13.534 0 0 0-.646 4.8 2.531 2.531 0 0 0 1.938 2.16 21.479 21.479 0 0 0 5.266.72l-.429 1.6q-2.176-.161-5.576-.2t-6.9-.039q-3.838 0-7.218.039t-5.471.2l.429-1.6a26.658 26.658 0 0 0 5.651-.72 5.254 5.254 0 0 0 3.1-2.16 16.668 16.668 0 0 0 1.926-4.8l12.2-45.519h-4.607a19.413 19.413 0 0 0-8.277 1.439 11.337 11.337 0 0 0-4.878 4.68 59.247 59.247 0 0 0-3.991 8.841h-1.962q.513-1.28 1.006-2.96t1.008-3.6q.408-1.518 1.04-4.36t1.107-5.879q3.561.081 7.762.159t8.467.081h15.483q4.222 0 8.509-.081t7.807-.159z" class="product-svg-1"/>
            </g>
        </g>
    </g>
</svg>
