<svg id="b14a8af0-85b1-490d-ab6c-e848e3dfc716" data-name="圖層 1" xmlns="http://www.w3.org/2000/svg" viewBox="0 0 111 111"><path d="M19.31,6c2.37-.6,4.14.31,4.64,2.28.4,1.58-.71,2.38-1.67,3.37-1.64,1.63-3.57,3.42-2.46,7.81.27,1.1,1.49,4.25,1.49,4.25l4.52-1.15-.77-4.33c-.23-1.48.27-2.26,1.88-3.84s3.41-3.89,2.5-7.49C28,1.22,23.19-.65,18,.67c-4.61,1.16-8.81,4.89-7.09,11.69L16.28,11C15.48,7.84,17.29,6.49,19.31,6Z" style="fill:#566c6c"/><path d="M24,25a3.67,3.67,0,1,0,4.49,2.64A3.68,3.68,0,0,0,24,25Z" style="fill:#566c6c"/><polygon points="111 67.75 105.71 63.4 110.88 51.89 96.56 63.24 100.75 67.1 96.38 78.31 111 67.75" style="fill:#566c6c"/><polygon points="65.45 19.58 59.15 16.9 60.85 4.4 50.33 19.34 55.44 21.85 54.41 33.84 65.45 19.58" style="fill:#566c6c"/><polygon points="5.98 35.23 0 52.5 5.61 53.5 7.94 65.3 14.6 48.54 7.8 47.72 5.98 35.23" style="fill:#566c6c"/><path d="M89.31,50.2H77.8a25.85,25.85,0,0,0-2.25-3L78,44.73l6.3,1.5a2.67,2.67,0,0,0,.56.06,2.39,2.39,0,0,0,1.7-.7L98.12,34A2.39,2.39,0,0,0,97,30L90.81,28.5l-1.46-6.16a2.4,2.4,0,0,0-4-1.14L73.73,32.78A2.41,2.41,0,0,0,73.09,35l1.5,6.29-2.48,2.48A26.59,26.59,0,0,0,32.82,50.2H21.31a2.39,2.39,0,0,0-2.4,2.4v46a2.4,2.4,0,0,0,2.4,2.4h22.1v5.2H35.66a2.4,2.4,0,1,0,0,4.8H75a2.4,2.4,0,1,0,0-4.8H67.21V101h22.1a2.41,2.41,0,0,0,2.4-2.4v-46A2.4,2.4,0,0,0,89.31,50.2ZM85.67,27.63l.82,3.42a2.41,2.41,0,0,0,1.78,1.78l3.42.82-7.6,7.6-4.86-1.16-1.16-4.86Zm-30.36,15A21.75,21.75,0,0,1,68.7,47.23l-2.56,2.56a18.27,18.27,0,1,0,3.46,3.33l2.55-2.55a22.21,22.21,0,0,1,2.29,3.37c.18.33.35.65.52,1l.09.19c.17.35.32.71.47,1.07a2.49,2.49,0,0,1,.11.29c.13.32.26.66.37,1l.07.22a21,21,0,0,1,.68,2.59s0,.07,0,.1c.07.39.13.77.18,1.16,0,.1,0,.2,0,.3,0,.34.08.67.1,1l0,.33c0,.43,0,.86,0,1.29a21.85,21.85,0,0,1-43.7,0c0-.43,0-.86,0-1.29l0-.33c0-.34,0-.67.09-1,0-.1,0-.2,0-.3.05-.39.11-.77.19-1.15a.5.5,0,0,1,0-.12,20.64,20.64,0,0,1,.67-2.57l.08-.24c.11-.33.23-.66.36-1l.12-.3c.14-.35.3-.71.46-1a2,2,0,0,0,.1-.21c.16-.33.33-.66.51-1A21.88,21.88,0,0,1,55.31,42.62ZM68.78,64.47A13.5,13.5,0,1,1,62.7,53.22l-2.6,2.6a9.94,9.94,0,1,0,3.51,3.28l2.56-2.56A13.34,13.34,0,0,1,68.78,64.47Zm-8.37,0a5.14,5.14,0,1,1-4-5l-3.05,3a2.4,2.4,0,0,0,1.7,4.1,2.36,2.36,0,0,0,1.69-.7l3.3-3.29A4.94,4.94,0,0,1,60.41,64.47Zm2,41.73H48.21V101h14.2Zm24.5-10H23.71V55H30.4s0,0,0,.07c-.27.7-.5,1.41-.71,2.14,0,0,0,.1,0,.15-.2.73-.37,1.46-.51,2.21l0,.18c-.14.73-.24,1.48-.31,2.23,0,.07,0,.14,0,.21-.06.75-.1,1.51-.1,2.28a26.65,26.65,0,1,0,53.3,0c0-.77,0-1.53-.11-2.28,0-.07,0-.14,0-.21-.07-.75-.18-1.5-.31-2.23l0-.17c-.14-.75-.31-1.5-.52-2.23l0-.12c-.21-.74-.45-1.47-.72-2.18a.43.43,0,0,1,0,0h6.69Z" style="fill:#566c6c"/></svg>