<svg id="ad0b24f5-96c3-43d7-bf21-0bafa168baf9" data-name="圖層 1" xmlns="http://www.w3.org/2000/svg" viewBox="0 0 111 111"><path d="M27.8,12.62A12.52,12.52,0,0,0,15.17.28,12.53,12.53,0,0,0,2.53,12.62,12.53,12.53,0,0,0,15.17,25,12.52,12.52,0,0,0,27.8,12.62ZM15.17,20a7.52,7.52,0,0,1-7.59-7.4,7.59,7.59,0,0,1,15.17,0A7.51,7.51,0,0,1,15.17,20Zm53.08-7.4a12.64,12.64,0,0,0-25.28,0,12.64,12.64,0,0,0,25.28,0ZM55.61,20A7.51,7.51,0,0,1,48,12.62a7.58,7.58,0,0,1,15.16,0A7.51,7.51,0,0,1,55.61,20Zm53.08-7.4a12.64,12.64,0,0,0-25.28,0,12.64,12.64,0,0,0,25.28,0ZM96.05,20a7.51,7.51,0,0,1-7.58-7.4,7.59,7.59,0,0,1,15.17,0A7.52,7.52,0,0,1,96.05,20Zm0,4.93A15,15,0,0,0,80.89,39.76v14.8H70.78V39.76a15.17,15.17,0,0,0-30.34,0v14.8H30.33V39.76A15,15,0,0,0,15.17,25,15,15,0,0,0,0,39.76V57c0,30,24.9,54.28,55.61,54.28S111.22,87,111.22,57V39.76A15,15,0,0,0,96.05,25Zm4,55.52H83a91.1,91.1,0,0,0,2.78-21H106A47.58,47.58,0,0,1,100.1,80.47Zm-94.92-21H25.4a91.1,91.1,0,0,0,2.78,21H11.12A47.58,47.58,0,0,1,5.18,59.49Zm25.15,0H53.08v21H33.49A89.71,89.71,0,0,1,30.33,59.49ZM53.08,85.4v20.73c-7.33-1.48-13.77-9.38-17.94-20.73Zm5.06,20.73V85.4H76.08C71.91,96.75,65.47,104.65,58.14,106.13Zm0-25.66v-21H80.89a83.83,83.83,0,0,1-3.16,21Zm27.8-40.71a10.11,10.11,0,0,1,20.22,0v14.8H85.94Zm-40.44,0a10.11,10.11,0,0,1,20.22,0v14.8H45.5Zm-40.44,0a10,10,0,0,1,10.11-9.87,10,10,0,0,1,10.11,9.87v14.8H5.06ZM14.28,85.4H29.57c2.66,7.77,6.2,14.06,10.62,18.63A51.59,51.59,0,0,1,14.28,85.4ZM71,104c4.42-4.57,8-10.86,10.61-18.63h15.3A51.59,51.59,0,0,1,71,104Z" style="fill:#566c6c"/></svg>