<svg xmlns="http://www.w3.org/2000/svg" viewBox="0 0 202.601 29.293" preserveAspectRatio="xMinYMin meet">
    <defs>
        <style>
            .product-eng-svg-1{isolation:isolate}.product-eng-svg-2{fill:#262626}
        </style>
    </defs>
    <g id="WHY_NOW" class="product-eng-svg-1">
        <g id="Group_300" class="product-eng-svg-1">
            <path id="Path_417" d="M1063.687 1565.709q.881.04 2.313.079t2.833.04q1.995 0 3.83-.04t2.6-.04q5.134 0 7.095 2.189a5.74 5.74 0 0 1 1.032 5.652 12.094 12.094 0 0 1-1.314 3 11.211 11.211 0 0 1-2.54 2.905 12.851 12.851 0 0 1-4 2.169 17.307 17.307 0 0 1-5.7.836h-4.074l.213-.8h3.65a9.8 9.8 0 0 0 4.892-1.075 7.865 7.865 0 0 0 2.922-2.826 14.9 14.9 0 0 0 1.586-3.781q1.013-3.781-.077-5.652t-4.952-1.87a4.2 4.2 0 0 0-2.728.677 5.678 5.678 0 0 0-1.33 2.746l-5.289 19.741a5.43 5.43 0 0 0-.258 2.149 1.21 1.21 0 0 0 1 .955 12.819 12.819 0 0 0 2.631.319l-.213.8q-1.083-.08-2.774-.1t-3.433-.019q-1.654 0-3.1.019t-2.361.1l.213-.8a10.328 10.328 0 0 0 2.272-.319 2.148 2.148 0 0 0 1.252-.955 8.2 8.2 0 0 0 .831-2.149l5.29-19.741a6.818 6.818 0 0 0 .326-2.169 1.072 1.072 0 0 0-.741-.955 6.88 6.88 0 0 0-2.105-.3z" class="product-eng-svg-2" transform="translate(-1056.137 -1565.151)"/>
            <path id="Path_418" d="M1113.591 1565.709q.88.04 2.312.079t2.833.04q1.994 0 3.83-.04t2.6-.04q5.134 0 7.149 1.991a4.75 4.75 0 0 1 1.224 4.935 9.162 9.162 0 0 1-1.192 2.547 10.181 10.181 0 0 1-2.444 2.548 13.326 13.326 0 0 1-3.945 1.97 18.361 18.361 0 0 1-5.682.777h-4.076l.213-.8h3.649a11.09 11.09 0 0 0 4.845-.9 6.824 6.824 0 0 0 2.8-2.387 11.465 11.465 0 0 0 1.464-3.324q.842-3.142-.285-4.875t-4.99-1.731a4.2 4.2 0 0 0-2.728.677 5.674 5.674 0 0 0-1.33 2.746l-5.29 19.741a6.868 6.868 0 0 0-.32 2.149 1.034 1.034 0 0 0 .741.955 8.128 8.128 0 0 0 2.1.319l-.214.8q-.955-.08-2.414-.1t-2.944-.019q-1.655 0-3.1.019t-2.361.1l.213-.8a10.318 10.318 0 0 0 2.271-.319 2.15 2.15 0 0 0 1.253-.955 8.275 8.275 0 0 0 .831-2.149l5.289-19.741a6.805 6.805 0 0 0 .326-2.169 1.074 1.074 0 0 0-.741-.955 6.889 6.889 0 0 0-2.106-.3zm2.961 14.128q2.271.081 3.559.18t2.1.179q.805.081 1.538.2a5.771 5.771 0 0 1 3.664 1.612 5.555 5.555 0 0 1 .871 3.641l-.027 4.06a8.705 8.705 0 0 0 .193 2.527 1.04 1.04 0 0 0 1.182.736 2.587 2.587 0 0 0 1.326-.437 11.159 11.159 0 0 0 1.328-1.075l.519.438a11.586 11.586 0 0 1-2.352 1.89 5.652 5.652 0 0 1-2.871.657 3.586 3.586 0 0 1-2.524-.876q-.954-.875-.865-3.423l.132-3.98a18.27 18.27 0 0 0-.076-2.965 3.374 3.374 0 0 0-.83-1.971 3.2 3.2 0 0 0-2.376-.716h-4.583z" class="product-eng-svg-2" transform="translate(-1081.214 -1565.151)"/>
            <path id="Path_419" d="M1186.464 1564.588a11.727 11.727 0 0 1 6.608 1.711 8.066 8.066 0 0 1 3.393 4.915 15.526 15.526 0 0 1-.408 7.781 21.573 21.573 0 0 1-3.809 7.8 19.049 19.049 0 0 1-6.172 5.214 15.89 15.89 0 0 1-7.5 1.871 11.718 11.718 0 0 1-6.607-1.711 8.041 8.041 0 0 1-3.389-4.936 15.544 15.544 0 0 1 .4-7.761 21.371 21.371 0 0 1 3.83-7.8 19.349 19.349 0 0 1 6.171-5.214 15.778 15.778 0 0 1 7.483-1.87zm-.361.717a8.964 8.964 0 0 0-5.276 1.791 16.994 16.994 0 0 0-4.484 4.935 26.65 26.65 0 0 0-3.076 7.283 19.043 19.043 0 0 0-.715 7.343 8.09 8.09 0 0 0 2.1 4.816 5.793 5.793 0 0 0 4.278 1.691 8.962 8.962 0 0 0 5.276-1.792 16.983 16.983 0 0 0 4.489-4.954 26.709 26.709 0 0 0 3.071-7.263 19.039 19.039 0 0 0 .721-7.363 8.18 8.18 0 0 0-2.089-4.8 5.779 5.779 0 0 0-4.298-1.687z" class="product-eng-svg-2" transform="translate(-1112.475 -1564.588)"/>
            <path id="Path_420" d="M1242.985 1565.709q7.6 0 10.334 3.562t.957 10.208a19.825 19.825 0 0 1-3.836 7.582 18.24 18.24 0 0 1-6.59 5.035 20.933 20.933 0 0 1-8.8 1.791q-.934 0-2.743-.06t-3.167-.06q-1.485 0-2.933.019t-2.361.1l.213-.8a10.322 10.322 0 0 0 2.271-.319 2.148 2.148 0 0 0 1.253-.955 8.24 8.24 0 0 0 .831-2.149l5.289-19.741a6.815 6.815 0 0 0 .326-2.169 1.073 1.073 0 0 0-.741-.955 6.881 6.881 0 0 0-2.106-.3l.213-.8q.881.04 2.307.1t2.838.02q1.5-.04 3.374-.08t3.071-.029zm-1.253.716a4.2 4.2 0 0 0-2.728.677 5.664 5.664 0 0 0-1.33 2.746l-5.333 19.9q-.554 2.07-.12 2.746t2.386.676a16.147 16.147 0 0 0 7.593-1.572 12.234 12.234 0 0 0 4.8-4.6 28.457 28.457 0 0 0 2.991-7.363q1.792-6.687.056-9.95t-8.315-3.26z" class="product-eng-svg-2" transform="translate(-1140.414 -1565.151)"/>
            <path id="Path_421" d="M1323.379 1565.709l-.213.8a6.428 6.428 0 0 0-2.292.4 2.721 2.721 0 0 0-1.306 1.154 9.454 9.454 0 0 0-.863 2.269l-3.21 11.979a31.728 31.728 0 0 1-1.683 4.856 13.54 13.54 0 0 1-2.317 3.582 11.052 11.052 0 0 1-3.818 2.687 12.151 12.151 0 0 1-4.941 1.015 14.673 14.673 0 0 1-3.76-.458 5.43 5.43 0 0 1-2.793-1.692 6.6 6.6 0 0 1-1.3-2.348 7.41 7.41 0 0 1-.145-3.025 34.847 34.847 0 0 1 .951-4.5l3.349-12.5a6.822 6.822 0 0 0 .326-2.169 1.074 1.074 0 0 0-.741-.955 6.88 6.88 0 0 0-2.106-.3l.214-.8q.88.04 2.313.079t3.087.04q1.485 0 2.96-.04t2.461-.079l-.213.8a8.612 8.612 0 0 0-2.266.3 2.245 2.245 0 0 0-1.254.955 8.243 8.243 0 0 0-.836 2.169l-3.53 13.174a28.141 28.141 0 0 0-.908 4.975 5.018 5.018 0 0 0 .876 3.621q1.059 1.354 4.072 1.353a9.86 9.86 0 0 0 5.344-1.333 10.176 10.176 0 0 0 3.449-3.681 22.553 22.553 0 0 0 2.118-5.294l3.327-12.417a5.525 5.525 0 0 0 .248-2.269 1.532 1.532 0 0 0-.9-1.154 5.629 5.629 0 0 0-2.185-.4l.214-.8q.752.04 1.994.079t2.3.04q1.1 0 2.2-.04t1.777-.073z" class="product-eng-svg-2" transform="translate(-1175.992 -1565.151)"/>
            <path id="Path_422" d="M1367.742 1564.588a10.228 10.228 0 0 1 4.4.776 11.242 11.242 0 0 1 2.719 1.811q.689.6 1.257.139a5.345 5.345 0 0 0 1.2-2.169h.977q-.481 1.472-1.088 3.582t-1.536 5.572h-.975q.16-1.711.179-2.726a7.145 7.145 0 0 0-.152-1.732 5.516 5.516 0 0 0-.571-1.432 5.15 5.15 0 0 0-2.675-2.368 10.464 10.464 0 0 0-4-.736 8.841 8.841 0 0 0-4.017.974 12.93 12.93 0 0 0-3.638 2.806 20.124 20.124 0 0 0-3.051 4.418 28.411 28.411 0 0 0-2.215 5.81 22.056 22.056 0 0 0-.862 5.91 10.4 10.4 0 0 0 .859 4.318 5.869 5.869 0 0 0 2.346 2.647 6.881 6.881 0 0 0 3.559.9 14 14 0 0 0 4.181-.716 10.488 10.488 0 0 0 5.853-4.816 36.893 36.893 0 0 0 1.671-3.781h.976q-.971 3.622-1.52 5.831t-.87 3.722h-.977a3.765 3.765 0 0 0 0-2.15q-.287-.437-1.369.12a31.291 31.291 0 0 1-3.817 1.81 12.892 12.892 0 0 1-4.728.776 11.718 11.718 0 0 1-6.607-1.711 8.039 8.039 0 0 1-3.388-4.936 15.54 15.54 0 0 1 .4-7.761 21.379 21.379 0 0 1 3.83-7.8 19.35 19.35 0 0 1 6.172-5.214 15.777 15.777 0 0 1 7.477-1.874z" class="product-eng-svg-2" transform="translate(-1203.568 -1564.588)"/>
            <path id="Path_423" d="M1437.156 1565.709q-.576 1.513-1.017 2.925t-.645 2.169q-.256.956-.437 1.791t-.31 1.473h-.976a22.5 22.5 0 0 0 .372-4.4 2.757 2.757 0 0 0-1.159-2.328 7.169 7.169 0 0 0-3.755-.716h-2.292l-6.068 22.645a6.736 6.736 0 0 0-.321 2.389 1.259 1.259 0 0 0 .964 1.075 10.683 10.683 0 0 0 2.62.358l-.214.8q-1.083-.08-2.774-.1t-3.433-.019q-1.91 0-3.591.019t-2.722.1l.213-.8a13.259 13.259 0 0 0 2.811-.358 2.614 2.614 0 0 0 1.54-1.075 8.294 8.294 0 0 0 .958-2.389l6.068-22.645h-2.288a9.658 9.658 0 0 0-4.118.716 5.639 5.639 0 0 0-2.427 2.328 29.477 29.477 0 0 0-1.985 4.4h-.976q.255-.637.5-1.473t.5-1.791q.2-.755.517-2.169t.551-2.925q1.772.04 3.862.079t4.212.04h7.7q2.1 0 4.233-.04t3.887-.079z" class="product-eng-svg-2" transform="translate(-1234.555 -1565.151)"/>
        </g>
    </g>
</svg>
