<svg id="b4ec01d0-5919-430e-9e7f-fb036c6afc78" data-name="圖層 1" xmlns="http://www.w3.org/2000/svg" viewBox="0 0 910.1 58.92"><g id="fa27f425-b1f8-41ce-9c82-5710c850a553" data-name="Group 323"><g id="a161bbfa-ae40-4c26-980f-fb7e724d5821" data-name="天下永續會會員時程表" style="isolation:isolate"><g style="isolation:isolate"><path d="M512.08,53.85H497.51q2.76,11.53,17.62,16.73l-.08.45a3.87,3.87,0,0,0-3.57,3.48q-12.28-6-14.69-20.66h-.2a27.1,27.1,0,0,1-1.66,6.38,21.12,21.12,0,0,1-3.31,5.43,21.93,21.93,0,0,1-5.74,4.8,44,44,0,0,1-8.67,3.89l-.4-.6a37.53,37.53,0,0,0,7-4.17,21.26,21.26,0,0,0,4.64-4.78,21.76,21.76,0,0,0,2.64-5.13,29.68,29.68,0,0,0,1.34-5.82H479.25l-.32-1.2h13.61q.29-2.88.37-10.77h-15.1l-.36-1.2h29.91l2.48-3.21a54.61,54.61,0,0,1,4.65,3.77c-.11.42-.5.64-1.16.64h-16c-.05,4.7-.23,8.29-.52,10.77h9.37l2.48-3.13c1.9,1.45,3.43,2.67,4.61,3.69C513.14,53.64,512.75,53.85,512.08,53.85Z" transform="translate(-17.07 -17.1)" style="fill:#262626"/><path d="M553.28,40.28l2.6-3.37c2,1.52,3.65,2.82,4.88,3.89-.13.45-.53.68-1.2.68H543v6.6q8.16,1.29,11.09,5c1.06,1.33,1.34,2.52.84,3.56-.43.88-1.23,1.16-2.41.84a1.51,1.51,0,0,1-.48-.16,20.28,20.28,0,0,0-3.78-4.28A42.93,42.93,0,0,0,543,49V73.19c0,.13-.14.29-.41.48a4.37,4.37,0,0,1-1.22.52,6.1,6.1,0,0,1-1.74.24h-.76v-33H523l-.32-1.2Z" transform="translate(-17.07 -17.1)" style="fill:#262626"/><path d="M580.33,50.73l3.61,3.16a2,2,0,0,1-1.6.56Q579,66.35,568.4,71.19l-.36-.52a23.06,23.06,0,0,0,6.63-7.19A32.36,32.36,0,0,0,578.41,54h-9.09l-.36-1.2h9.25Zm19.54-4.65,4.77,3c-.27.46-.8.58-1.6.36a53.89,53.89,0,0,1-10.13,6.73q4.44,7.29,13.85,10.89l-.12.44a3.84,3.84,0,0,0-2.08,1.18,5.25,5.25,0,0,0-1.24,2.39,29.42,29.42,0,0,1-8.77-8.21q-3.36-4.84-5-13V69.42a5,5,0,0,1-1.08,3.51c-.72.76-2.25,1.24-4.6,1.46a4.63,4.63,0,0,0-1.12-2.84,8.31,8.31,0,0,0-4-1.37v-.64q4.85.36,5.89.36c.66,0,1-.3,1-.92V46.92H575.41l-.36-1.2h10.17l1.88-2.16,4.16,3.2a2.91,2.91,0,0,1-1.72.8v.12a27.9,27.9,0,0,0,2.93,7.77,60.06,60.06,0,0,0,4.2-4.8A42.25,42.25,0,0,0,599.87,46.08Zm-19.78-9,.16-.56q8.61.09,11.61,3.24c1,1.07,1.3,2.1.85,3.09a1.69,1.69,0,0,1-2,1,3.38,3.38,0,0,1-.6-.16,18.39,18.39,0,0,0-3.94-3.44A28.17,28.17,0,0,0,580.09,37Z" transform="translate(-17.07 -17.1)" style="fill:#262626"/><path d="M647.23,46.68,648.87,45l3.48,2.6a2.24,2.24,0,0,1-1.32.68v6.33c0,.13-.33.32-.92.56a5.9,5.9,0,0,1-1.68.44l2.28,1.72a2,2,0,0,1-1.36.68V68.14c0,.16-.41.38-1.16.66a5.78,5.78,0,0,1-2,.42h-.68V67.86h-11v.8c0,.11-.16.26-.46.44a4.88,4.88,0,0,1-1.22.5,5.27,5.27,0,0,1-1.49.22h-.52V55.53a7,7,0,0,1-1.24.24,2,2,0,0,1-.88,2.16,1.71,1.71,0,0,1-2.2-.44,17.21,17.21,0,0,0-.56-2.68l-2.28.64V73.39c0,.1-.12.24-.34.4a3.85,3.85,0,0,1-1,.44,5.42,5.42,0,0,1-1.49.2h-.64V61.38a1.62,1.62,0,0,1-1.08.44,24.35,24.35,0,0,1-4.48,9.41l-.64-.32a43.11,43.11,0,0,0,2-11l4.16.81V56.45l-1.6.4-2,.52a1.42,1.42,0,0,1-1,.88l-1.44-3.92c.93,0,2.2,0,3.8-.12a119.71,119.71,0,0,0,6.21-13L629,43.08c-.24.56-.79.79-1.64.68a89.58,89.58,0,0,1-8.13,10.41q1.89-.08,6.37-.32a28.09,28.09,0,0,0-1.6-3.24l.44-.16a9.91,9.91,0,0,1,4.48,3.48V45.16l3.65,1.52ZM619.76,36.31l5.13,1.76c-.19.54-.71.79-1.56.76a49.38,49.38,0,0,1-4.85,6c1.28,1,1.79,2,1.52,3.16a1.62,1.62,0,0,1-1.4,1.32,2,2,0,0,1-1.56-.48,10,10,0,0,0-3-5.52l.4-.28a12.82,12.82,0,0,1,3.08,1.12C618.43,41.38,619.18,38.77,619.76,36.31Zm4.69,23.46.48-.16c2.72,1.63,4.22,3.46,4.48,5.49a2.41,2.41,0,0,1-1,2.56c-.72.46-1.45.3-2.2-.48A18.66,18.66,0,0,0,624.45,59.77Zm2.6,14.7-.36-.56A32.23,32.23,0,0,0,632,71.33a22.28,22.28,0,0,0,4.18-3.11l3.88,2.69c-.29.4-.78.49-1.48.28A32.6,32.6,0,0,1,627.05,74.47Zm1.48-33.55-.32-1.17h9.89v-3.2l5.09.44c-.06.59-.5.94-1.33,1v1.72h4.53l2.12-2.56c1.58,1.18,2.87,2.2,3.89,3.09-.11.42-.47.64-1.09.64h-9.45v2.52h3.49l2-2.48A43,43,0,0,1,651,44c-.08.45-.41.68-1,.68H630.57l-.32-1.2h7.85V40.92ZM647,54.45l.6.48V54H632.3v.72c0,.16-.18.32-.53.48l3,1.16h10.41ZM641,47.84h-2.08a4.08,4.08,0,0,1-1.62,2.62,12,12,0,0,1-4.66,1.71l-.36-.36v1h15.25V51.33a21.8,21.8,0,0,1-2.64.12h-1.6a2.75,2.75,0,0,1-1.87-.44,2.43,2.43,0,0,1-.42-1.65Zm-4.92,0h-3.8v3.65A7.25,7.25,0,0,0,635.12,50,3.67,3.67,0,0,0,636.1,47.84Zm-1.56,11.89h11v-2.2h-11Zm0,1.21v2.2h11v-2.2Zm0,5.76h11V64.34h-11Zm6.64,2.84.2-.6q8.61.48,10.25,3a1.33,1.33,0,0,1-.32,2,2.42,2.42,0,0,1-2.6.32,3.76,3.76,0,0,1-.72-.48A15.76,15.76,0,0,0,641.18,69.54Zm6.37-21.7h-4V49a.51.51,0,0,0,.1.38c.06.07.22.1.46.1h2.12a1.43,1.43,0,0,0,.48,0,3,3,0,0,0,.64-.08h.2Z" transform="translate(-17.07 -17.1)" style="fill:#262626"/><path d="M676.49,36.15l6.13,1.44q-.24.69-1.89.84a23.72,23.72,0,0,0,7.39,4.45,59.88,59.88,0,0,0,9.87,3v.64a3.92,3.92,0,0,0-2,1.36,4.77,4.77,0,0,0-1,2.25,39.09,39.09,0,0,1-4.41-2l3,2.29a2.62,2.62,0,0,1-1.16.52v8c0,.16-.4.38-1.11.64a5.25,5.25,0,0,1-1.86.4h-.6V58.73H669v.48c0,.22-.18.44-.56.68l3.93,1.57h13l1.76-1.85,3.72,2.77a2,2,0,0,1-1.24.64V73.11c0,.18-.42.43-1.18.74a5.79,5.79,0,0,1-2.1.46h-.64v-2H672.09v.88q0,.31-1.11.78a5.81,5.81,0,0,1-2.22.46h-.52V60a4.15,4.15,0,0,1-2.16.57h-.6V49.16c-2,.88-3.74,1.57-5.21,2.05l-.24-.56a45.85,45.85,0,0,0,10.07-6.79Q675.05,39.56,676.49,36.15Zm12,13.37,1.6-1.6a25.3,25.3,0,0,1-10-9.05,29.94,29.94,0,0,1-5.54,5,53.52,53.52,0,0,1-7.63,4.58l2.56,1ZM669,50.69v6.84h8.21V50.69Zm1.56.72.44-.28q3.64,1.44,4.17,3.64a1.72,1.72,0,0,1-.72,2,1.51,1.51,0,0,1-2.08-.36A8.82,8.82,0,0,0,670.52,51.41Zm15.1,11.21H672.09V66.3h13.53Zm-13.53,8.53h13.53V67.5H672.09ZM680.49,46l1.89-2.24q2.07,1.61,3.36,2.8c-.11.43-.46.64-1,.64H672.77l-.32-1.2Zm2.65,11.49h5.64V50.69h-8.25v6.84h1.57a51.38,51.38,0,0,0,2.16-6.4l4.32,1.44c-.19.59-.71.84-1.56.76A32.27,32.27,0,0,1,683.14,57.53Z" transform="translate(-17.07 -17.1)" style="fill:#262626"/><path d="M722.25,36.15l6.12,1.44c-.16.46-.79.74-1.88.84a23.72,23.72,0,0,0,7.39,4.45,59.29,59.29,0,0,0,9.87,3v.64a4,4,0,0,0-2,1.36,4.87,4.87,0,0,0-1,2.25,38.21,38.21,0,0,1-4.4-2l3,2.29a2.57,2.57,0,0,1-1.16.52v8c0,.16-.39.38-1.1.64a5.33,5.33,0,0,1-1.86.4h-.6V58.73H714.72v.48c0,.22-.19.44-.56.68l3.92,1.57h13l1.77-1.85,3.72,2.77a2.08,2.08,0,0,1-1.24.64V73.11c0,.18-.42.43-1.18.74a5.79,5.79,0,0,1-2.1.46h-.65v-2H717.84v.88c0,.21-.37.47-1.1.78a5.81,5.81,0,0,1-2.22.46H714V60a4.15,4.15,0,0,1-2.16.57h-.61V49.16c-2,.88-3.73,1.57-5.2,2.05l-.24-.56a46.08,46.08,0,0,0,10.07-6.79C719.16,41,721.28,38.42,722.25,36.15Zm12,13.37,1.6-1.6q-6.89-3.77-10-9.05a29.71,29.71,0,0,1-5.55,5,52.86,52.86,0,0,1-7.62,4.58l2.56,1Zm-19.54,1.17v6.84h8.21V50.69Zm1.56.72.44-.28q3.64,1.44,4.16,3.64a1.7,1.7,0,0,1-.72,2,1.52,1.52,0,0,1-2.08-.36A8.87,8.87,0,0,0,716.28,51.41Zm15.09,11.21H717.84V66.3h13.53Zm-13.53,8.53h13.53V67.5H717.84ZM726.25,46l1.88-2.24q2.08,1.61,3.36,2.8c-.1.43-.45.64-1,.64H718.52L718.2,46Zm2.64,11.49h5.65V50.69h-8.25v6.84h1.56a48.29,48.29,0,0,0,2.16-6.4l4.33,1.44c-.19.59-.71.84-1.56.76A32.45,32.45,0,0,1,728.89,57.53Z" transform="translate(-17.07 -17.1)" style="fill:#262626"/><path d="M751.91,74.43l-.24-.52a34.81,34.81,0,0,0,7.42-3.3,26.17,26.17,0,0,0,5.51-4.11l5.48,2.44q-.39.72-2.16.6A39.4,39.4,0,0,1,751.91,74.43Zm8.6-8.81v1.2c0,.22-.36.48-1.1.78a5.63,5.63,0,0,1-2.22.46h-.6V47.68l4.2,1.76h19.42l1.93-2.16,4.16,3.21a3.2,3.2,0,0,1-1.72.76V66.14c0,.16-.44.39-1.24.68a6.07,6.07,0,0,1-2.09.44h-.64V65.62ZM762,46.12v.72c0,.11-.17.26-.5.44a6.48,6.48,0,0,1-1.31.52,5.28,5.28,0,0,1-1.52.24h-.52V37l4.09,1.68h16.33l1.88-2,4.09,3a2.66,2.66,0,0,1-1.72.85v6c0,.14-.43.32-1.2.56a7.09,7.09,0,0,1-2,.36H779V46.12Zm18.61,4.49h-20.1v3.68h20.1Zm0,8.72V55.49h-20.1v3.84Zm-20.1,5.09h20.1V60.54h-20.1ZM779,39.83H762V45h17Zm-5.76,28.11.24-.56q9.12,0,12.93,3.08c1.25,1,1.75,2,1.48,3-.24.8-.93,1.16-2.08,1.08h-.12a38.71,38.71,0,0,0-5.83-3.63A49,49,0,0,0,773.21,67.94Z" transform="translate(-17.07 -17.1)" style="fill:#262626"/><path d="M808.15,38.23l4,3.09a2.7,2.7,0,0,1-1.73.84V67.58c0,.19-.4.43-1.12.72a5.18,5.18,0,0,1-2,.44h-.6V65.9h-4.52v3.56c0,.11-.12.26-.36.44a3.68,3.68,0,0,1-1.12.52,5.37,5.37,0,0,1-1.61.25h-.56v-32l4.17,1.65h3.6Zm-1.48,3.29h-4.52V52.37h4.52ZM802.15,64.7h4.52V53.57h-4.52Zm8.64-14.62h9.37v-6h-7.88L812,42.92h8.2V36.59l5.29.48c-.08.64-.57,1-1.48,1.16v4.69h4L830.17,40a40.34,40.34,0,0,1,4,3.4c-.11.43-.47.64-1.08.64H824v6h5.2l2.25-3c1.7,1.39,3.08,2.55,4.12,3.49-.11.42-.47.64-1.08.64H811.12Zm19.34,6.61,2-2.68q2.28,1.92,3.64,3.2c-.08.43-.44.64-1.08.64H829V69.58A4.91,4.91,0,0,1,828,73c-.68.72-2.15,1.18-4.42,1.4a4.09,4.09,0,0,0-1-2.6,7.44,7.44,0,0,0-3.73-1.37v-.6c3,.22,4.83.32,5.45.32s.92-.26.92-.8V57.85h-14l-.32-1.16h14.29V52l5.08.48c0,.53-.46.88-1.32,1v3.2Zm-16.53,2.8.44-.24c3.52,1,5.7,2.49,6.52,4.49a2.54,2.54,0,0,1-.36,2.92,2,2,0,0,1-2.64.24,2.67,2.67,0,0,1-.48-.32A14.32,14.32,0,0,0,813.6,59.49Z" transform="translate(-17.07 -17.1)" style="fill:#262626"/><path d="M853,49.88v2.49q4.6,1.68,5.52,4.44a2.21,2.21,0,0,1-.5,2.6,1.73,1.73,0,0,1-2.42-.12.34.34,0,0,0-.12-.12A13.67,13.67,0,0,0,853,53.45V73.23c0,.1-.13.24-.38.42a5.7,5.7,0,0,1-1.14.52,5.08,5.08,0,0,1-1.61.26h-.64V58.49a31.78,31.78,0,0,1-6.28,7.45l-.52-.48q4.25-5.85,6.28-15.58h-5.48l-.32-1.2h6.32V42.12q-3.52.6-6.28.88l-.16-.56a51.84,51.84,0,0,0,6.52-2.85,37.65,37.65,0,0,0,5.37-3.2l4.52,3.73c-.48.42-1.26.46-2.36.12q-2.28.72-3.84,1.08v7.36h.92l2-2.68c1.44,1.23,2.62,2.3,3.52,3.2a1,1,0,0,1-1.12.68Zm27.22,14.7H870.8v7.33h3.85L876.93,69q2.52,2,4,3.45c-.08.42-.42.64-1,.64H857.35L857,71.91h9.89V64.58h-9.77l-.28-1.16h10V57.77c-2.86.35-5.55.58-8.09.68l-.16-.64a80,80,0,0,0,8.75-2.54,67,67,0,0,0,7.43-3l4.24,4c-.5.4-1.33.39-2.48,0q-2.36.52-5.81,1v6.17h4.25l2.16-2.84a43.86,43.86,0,0,1,4,3.36C881.11,64.37,880.76,64.58,880.17,64.58ZM863.68,50.45v1.2c0,.21-.35.46-1,.74a5.57,5.57,0,0,1-2.09.42H860V37.91l3.85,1.6h9.93l1.88-2,3.92,3a2.57,2.57,0,0,1-1.64.84v9.73c0,.16-.41.39-1.14.7a5.31,5.31,0,0,1-2,.46h-.64V50.45Zm10.53-9.77H863.68v8.56h10.53Z" transform="translate(-17.07 -17.1)" style="fill:#262626"/><path d="M919.8,54.81l4.81,3c-.27.46-.79.6-1.56.44a41.43,41.43,0,0,1-8.81,4.25q4.63,5.09,12.93,6.76l0,.52a5.33,5.33,0,0,0-3.4,4.17A21.87,21.87,0,0,1,914,66.78,31.71,31.71,0,0,1,908.63,54h-.36a28,28,0,0,1-5.16,5v9c2.91-.56,5.92-1.19,9-1.88l.12.6q-6.21,2.85-16.06,6.77a1.48,1.48,0,0,1-1,1l-2.4-4.53c1.36-.18,3.51-.56,6.44-1.12V61.42a52.11,52.11,0,0,1-10.49,4.44l-.32-.56a40,40,0,0,0,8-5A37.52,37.52,0,0,0,902.63,54H889.41l-.32-1.2h16.7V48.16H893.5l-.36-1.2h12.65V42.4h-14l-.4-1.16h14.37V36.35l5.49.52c-.08.64-.59,1-1.53,1.16v3.21h8.53l2.28-3c1.69,1.36,3.05,2.53,4.09,3.49-.11.42-.48.64-1.12.64H909.75V47h7.41l2.16-2.84c1.61,1.31,2.91,2.43,3.93,3.36-.14.46-.52.68-1.16.68H909.75v4.65H920l2.33-3c1.7,1.37,3.07,2.54,4.08,3.53-.11.43-.49.64-1.16.64H909.55a21.83,21.83,0,0,0,4,7.73,46,46,0,0,0,3.5-3.49A29.76,29.76,0,0,0,919.8,54.81Z" transform="translate(-17.07 -17.1)" style="fill:#262626"/></g></g><g id="acbccc67-7c15-45db-981b-84bb4af647d8" data-name="WHY NOW"><g id="a835a750-0674-4730-86f1-916f89d16fdd" data-name="Group 322"><path id="bc1622ee-22df-4e41-a43f-8ffa1e9cc7d3" data-name="Path 460" d="M49.1,17.37a15.54,15.54,0,0,1,6.23.92,16.61,16.61,0,0,1,3.38,2q.69.45,1.44.84a2.75,2.75,0,0,0,1.16.28c.91,0,1.85-1.18,2.82-3.52h2L65,21.17q-.63,1.88-1.5,5t-2.22,8.12h-2a20.24,20.24,0,0,0,.18-7.36,10,10,0,0,0-2.94-5.76c-1.56-1.5-3.93-2.24-7.11-2.24a13.79,13.79,0,0,0-8.16,2.56,11.72,11.72,0,0,0-4.74,6.72,8.1,8.1,0,0,0,.34,6A13.09,13.09,0,0,0,41,38.61q2.76,1.95,6,4.2a60.43,60.43,0,0,1,6.53,5.08,14.69,14.69,0,0,1,4,5.56,11.72,11.72,0,0,1,0,7.36,18.44,18.44,0,0,1-4.74,8.48,22,22,0,0,1-7.92,5A27.19,27.19,0,0,1,35.35,76a19.47,19.47,0,0,1-6.91-1,23.62,23.62,0,0,1-4-2,4.91,4.91,0,0,0-2.6-1.12q-1.37,0-2.82,3.52h-2c.41-1.12.84-2.44,1.28-4l1.68-6c.68-2.46,1.53-5.55,2.53-9.28h2a29.28,29.28,0,0,0-.48,9,10.57,10.57,0,0,0,3.07,6.68q2.61,2.52,8.07,2.52a15.91,15.91,0,0,0,8.31-2.52,13,13,0,0,0,5.63-8.12q1.31-4.89-1.5-8.08a39.32,39.32,0,0,0-7.88-6.56q-3.39-2.33-6.24-4.72a13.77,13.77,0,0,1-4.1-5.56,12.17,12.17,0,0,1,0-7.64,16.93,16.93,0,0,1,4.35-7.8,19.35,19.35,0,0,1,7.15-4.56A23.69,23.69,0,0,1,49.1,17.37Z" transform="translate(-17.07 -17.1)" style="fill:#262626"/><path id="a6cd38f6-b6c5-4022-9ccd-8aa4a17cac60" data-name="Path 461" d="M105,17.13a20.4,20.4,0,0,1,8.83,1.56,22.48,22.48,0,0,1,5.47,3.64,1.81,1.81,0,0,0,2.53.28q1.14-.93,2.39-4.36h2c-.65,2-1.37,4.37-2.19,7.2S122.2,32,121,36.65h-2c.22-2.3.34-4.12.36-5.49a14,14,0,0,0-.3-3.47,11,11,0,0,0-1.14-2.88,10.35,10.35,0,0,0-5.38-4.76,20.94,20.94,0,0,0-8-1.48,17.62,17.62,0,0,0-8.08,2,25.87,25.87,0,0,0-7.31,5.63A40.56,40.56,0,0,0,83,35.05a56.49,56.49,0,0,0-4.45,11.68,44.22,44.22,0,0,0-1.74,11.88,20.91,20.91,0,0,0,1.73,8.68,11.88,11.88,0,0,0,4.72,5.32,14,14,0,0,0,7.15,1.8A28.21,28.21,0,0,0,98.77,73a21.06,21.06,0,0,0,11.76-9.68,71.34,71.34,0,0,0,3.36-7.6h2q-1.95,7.28-3,11.72t-1.75,7.48h-2c.38-2.3.39-3.74,0-4.32s-1.3-.51-2.76.24a63.29,63.29,0,0,1-7.67,3.64A26.25,26.25,0,0,1,89.17,76q-8.1,0-13.28-3.44a16.18,16.18,0,0,1-6.81-9.92q-1.64-6.48.81-15.6a42.73,42.73,0,0,1,7.7-15.68A38.77,38.77,0,0,1,90,20.89,31.62,31.62,0,0,1,105,17.13Z" transform="translate(-17.07 -17.1)" style="fill:#262626"/><path id="f07edb26-4f73-4256-b746-5ca4e3cc2b2c" data-name="Path 462" d="M120.18,74.89l.43-1.6a21.42,21.42,0,0,0,4.57-.64,4.32,4.32,0,0,0,2.51-1.92,16.46,16.46,0,0,0,1.67-4.32L140,26.73a13.76,13.76,0,0,0,.65-4.36,2.14,2.14,0,0,0-1.49-1.92,13.49,13.49,0,0,0-4.23-.6l.43-1.6c1.18.05,2.73.11,4.65.16s4,.07,6.2.08q3,0,5.95-.08l5-.16-.43,1.6a16.75,16.75,0,0,0-4.56.6,4.42,4.42,0,0,0-2.51,1.92,16.51,16.51,0,0,0-1.69,4.36L137.29,66.41a13.71,13.71,0,0,0-.64,4.32,2.08,2.08,0,0,0,1.49,1.92,16.71,16.71,0,0,0,4.22.64l-.43,1.6c-1.28-.11-2.9-.18-4.85-.2s-3.93,0-5.92,0q-3.33,0-6.24,0C123,74.71,121.4,74.78,120.18,74.89Zm19.28-27.68.43-1.6h33.69l-.42,1.6Zm16.38,27.68.43-1.6a21.24,21.24,0,0,0,4.56-.64,4.31,4.31,0,0,0,2.52-1.92A16.46,16.46,0,0,0,165,66.41l10.64-39.68a13.76,13.76,0,0,0,.65-4.36,2.14,2.14,0,0,0-1.49-1.92,13.49,13.49,0,0,0-4.23-.6l.43-1.6c1.29.05,2.93.11,4.9.16s3.93.07,5.87.08c2.21,0,4.3,0,6.25-.08l4.73-.16-.43,1.6a16.63,16.63,0,0,0-4.55.6,4.45,4.45,0,0,0-2.52,1.92,16.15,16.15,0,0,0-1.68,4.36L173,66.41a13.44,13.44,0,0,0-.65,4.32,2.08,2.08,0,0,0,1.49,1.92,16.71,16.71,0,0,0,4.22.64l-.43,1.6c-1.16-.11-2.71-.18-4.63-.2s-4,0-6.22,0c-1.94,0-3.9,0-5.9,0s-3.67.09-5,.2Z" transform="translate(-17.07 -17.1)" style="fill:#262626"/><path id="b85cc636-9f31-47d2-aa44-72c48c665103" data-name="Path 463" d="M242.5,18.25c-.73,1.86-1.37,3.68-1.92,5.44s-1,3.09-1.2,4-.48,1.88-.66,2.76-.32,1.61-.42,2.2h-2a34.15,34.15,0,0,0,.55-7.48,4.62,4.62,0,0,0-2.14-3.93c-1.3-.77-3.46-1.15-6.47-1.16H221.2a18.07,18.07,0,0,0-4.52.45,4.14,4.14,0,0,0-2.5,1.83,16.68,16.68,0,0,0-1.68,4.37L201.87,66.4a13.79,13.79,0,0,0-.64,4.32,2,2,0,0,0,1.5,1.89A15.42,15.42,0,0,0,207,73h6.22a21.84,21.84,0,0,0,8.51-1.35,11.9,11.9,0,0,0,5.2-4.45A42.56,42.56,0,0,0,231,58.88h2a58.18,58.18,0,0,0-1.8,5.76c-.27,1-.62,2.47-1,4.36s-.79,3.86-1.11,5.88q-4.31-.15-9.75-.2l-9.72,0h-6.78c-2.81,0-5.82,0-9,0s-6.2.1-9,.2l.43-1.6a20.06,20.06,0,0,0,4.56-.64,4.23,4.23,0,0,0,2.52-1.92,16.33,16.33,0,0,0,1.67-4.32l10.63-39.68a13.41,13.41,0,0,0,.66-4.36,2.17,2.17,0,0,0-1.49-1.92,14.1,14.1,0,0,0-4.23-.6l.43-1.6q4.16.09,8.91.16c3.17.06,6.16.08,9,.08h6.78l8.93,0Q238.54,18.41,242.5,18.25Zm-22,27.36-.43,1.6H204.46l.43-1.6Zm5.3-10.56q-1.56,4.56-2.16,7c-.4,1.6-.78,3.06-1.14,4.4s-.72,2.8-1.09,4.4-.85,3.92-1.44,7h-2c.23-1.71.4-3.38.53-5a5.73,5.73,0,0,0-1-4c-.77-1-2.41-1.57-4.91-1.56l.43-1.6a8.14,8.14,0,0,0,5.74-1.85,12.82,12.82,0,0,0,3.07-4.32l2-4.4Z" transform="translate(-17.07 -17.1)" style="fill:#262626"/><path id="a562c05f-6367-4a48-a1e2-a327e45e6a2b" data-name="Path 464" d="M275.17,18.25q15.27,0,20.78,7.16t1.92,20.52a40,40,0,0,1-7.71,15.24,36.78,36.78,0,0,1-13.25,10.12,42.18,42.18,0,0,1-17.68,3.6c-1.25,0-3.09,0-5.51-.12s-4.55-.12-6.37-.12c-2,0-4,0-5.9,0s-3.52.09-4.74.2l.42-1.6a21.33,21.33,0,0,0,4.57-.64,4.37,4.37,0,0,0,2.52-1.92,16.82,16.82,0,0,0,1.67-4.32l10.63-39.68a14.06,14.06,0,0,0,.66-4.36,2.16,2.16,0,0,0-1.49-1.92,13.51,13.51,0,0,0-4.24-.6l.43-1.6,4.64.2c1.91.07,3.81.09,5.7,0s4.27-.11,6.79-.16S273.58,18.24,275.17,18.25Zm-2.51,1.44q-3.93,0-5.49,1.36t-2.67,5.52l-10.72,40q-1.11,4.16-.24,5.52c.58.9,2.18,1.36,4.8,1.36q9.3,0,15.26-3.16a24.61,24.61,0,0,0,9.64-9.24,57.06,57.06,0,0,0,6-14.8q3.6-13.44.11-20t-16.71-6.56Z" transform="translate(-17.07 -17.1)" style="fill:#262626"/><path id="bc4d0d85-643d-4e7e-af91-0c10265ff38b" data-name="Path 465" d="M365.26,18.25l-.43,1.6a12.76,12.76,0,0,0-4.61.8A5.38,5.38,0,0,0,357.6,23a18.51,18.51,0,0,0-1.74,4.56l-6.45,24.08A64,64,0,0,1,346,61.37a27.28,27.28,0,0,1-4.66,7.2,22.31,22.31,0,0,1-7.68,5.4,24.38,24.38,0,0,1-9.93,2,28.7,28.7,0,0,1-7.55-.92,10.87,10.87,0,0,1-5.62-3.4A13.13,13.13,0,0,1,308,67a15,15,0,0,1-.29-6.08,71.55,71.55,0,0,1,1.91-9l6.73-25.12a13.45,13.45,0,0,0,.66-4.36,2.17,2.17,0,0,0-1.49-1.92,13.78,13.78,0,0,0-4.23-.6l.43-1.6c1.18.06,2.73.11,4.65.16s4,.08,6.2.08c2,0,4,0,5.95-.08s3.63-.1,4.95-.16l-.43,1.6a17.44,17.44,0,0,0-4.55.6,4.53,4.53,0,0,0-2.52,1.92,16.41,16.41,0,0,0-1.68,4.36l-7.1,26.48a56.59,56.59,0,0,0-1.83,10,10.07,10.07,0,0,0,1.76,7.28c1.42,1.82,4.15,2.72,8.19,2.72A19.73,19.73,0,0,0,336,70.52a20.42,20.42,0,0,0,6.93-7.4,45.18,45.18,0,0,0,4.26-10.64l6.69-25a11.18,11.18,0,0,0,.5-4.56,3.08,3.08,0,0,0-1.81-2.32,11.4,11.4,0,0,0-4.4-.8l.43-1.6c1,.06,2.35.11,4,.16s3.21.08,4.63.08,2.95,0,4.42-.08S364.33,18.3,365.26,18.25Z" transform="translate(-17.07 -17.1)" style="fill:#262626"/><path id="a2ed918e-43c2-477c-83af-f2f777d78acb" data-name="Path 466" d="M392.9,18.25l-.43,1.6a16.63,16.63,0,0,0-4.55.6,4.47,4.47,0,0,0-2.52,1.91,16.34,16.34,0,0,0-1.68,4.37L373.08,66.4a13.81,13.81,0,0,0-.64,4.33,2,2,0,0,0,1.5,1.88,15.78,15.78,0,0,0,4.27.44h6.23A20.9,20.9,0,0,0,393,71.61a12.43,12.43,0,0,0,5.28-4.72,48.26,48.26,0,0,0,4.19-8.8h2c-.61,1.65-1.28,3.83-2,6.56-.27,1-.62,2.46-1,4.35s-.79,3.86-1.11,5.89q-4.31-.17-9.76-.2t-9.71,0H374q-4.23,0-9,0c-3.19,0-6.2.09-9,.2l.43-1.6a21.24,21.24,0,0,0,4.56-.64,4.37,4.37,0,0,0,2.52-1.92,16.39,16.39,0,0,0,1.67-4.33l10.63-39.67a13.51,13.51,0,0,0,.66-4.37A2.16,2.16,0,0,0,375,20.45a13.49,13.49,0,0,0-4.23-.6l.42-1.6,4.65.16c1.92.05,4,.07,6.21.08q3,0,5.95-.08Z" transform="translate(-17.07 -17.1)" style="fill:#262626"/><path id="a3186fe1-cd29-432d-958b-620a08db2520" data-name="Path 467" d="M463.87,18.25c-.73,1.86-1.37,3.68-1.92,5.44s-1,3.09-1.2,4-.48,1.88-.66,2.76-.32,1.61-.42,2.2h-2a34.79,34.79,0,0,0,.56-7.48,4.66,4.66,0,0,0-2.15-3.93c-1.3-.77-3.46-1.15-6.47-1.16h-7.09a18,18,0,0,0-4.51.45,4.14,4.14,0,0,0-2.5,1.83,16.68,16.68,0,0,0-1.68,4.37L423.24,66.4a13.81,13.81,0,0,0-.64,4.33,2,2,0,0,0,1.5,1.88,15.7,15.7,0,0,0,4.27.44h6.23a22,22,0,0,0,8.51-1.36,11.94,11.94,0,0,0,5.2-4.44,42.8,42.8,0,0,0,4.07-8.36h2c-.69,1.88-1.29,3.81-1.8,5.76-.27,1-.61,2.46-1,4.35s-.79,3.86-1.1,5.89c-2.87-.11-6.13-.18-9.76-.2s-6.87,0-9.71,0h-6.79q-4.22,0-9,0t-9,.2l.43-1.6a21.42,21.42,0,0,0,4.57-.64,4.37,4.37,0,0,0,2.52-1.92,16.72,16.72,0,0,0,1.66-4.33l10.64-39.67a13.78,13.78,0,0,0,.65-4.37,2.13,2.13,0,0,0-1.49-1.91,13.49,13.49,0,0,0-4.23-.6l.43-1.6,8.91.16c3.18.05,6.17.07,9,.08H446c2.61,0,5.58,0,8.92,0S461.23,18.35,463.87,18.25Zm-22,27.36-.42,1.6H425.83l.43-1.6Zm5.3-10.56q-1.56,4.56-2.16,7c-.4,1.6-.78,3.06-1.14,4.4s-.72,2.8-1.09,4.4-.85,3.92-1.44,7h-2c.23-1.71.41-3.38.53-5a5.77,5.77,0,0,0-1-4c-.78-1-2.41-1.57-4.92-1.56l.43-1.6a8.14,8.14,0,0,0,5.74-1.85,13,13,0,0,0,3.08-4.32c.73-1.65,1.37-3.12,1.95-4.4Z" transform="translate(-17.07 -17.1)" style="fill:#262626"/></g></g></g></svg>