<?xml version="1.0" encoding="utf-8"?>
<!-- Generator: Adobe Illustrator 25.2.1, SVG Export Plug-In . SVG Version: 6.00 Build 0)  -->
<svg version="1.1" id="b5213e66-c74d-4b8c-b843-044b90d69834"
	 xmlns="http://www.w3.org/2000/svg" xmlns:xlink="http://www.w3.org/1999/xlink" x="0px" y="0px" viewBox="0 0 912 466.6"
	 style="enable-background:new 0 0 912 466.6;" xml:space="preserve">
<style type="text/css">
	.st0{fill:#FFFFFF;}
	.st1{fill:#566C6C;}
	.st2{fill:none;stroke:#959595;stroke-miterlimit:10;}
	.st3{fill:none;stroke:#959595;}
	.st4{fill:#768E91;}
</style>
<g id="a1432300-e42d-402f-a64f-288a0d61df85">
	<g id="b1004553-8e1c-498e-a3bf-2728083c3d77">
		<g id="ea4b4bae-5811-48c8-9703-fc94bfe7a6c5">
			<rect id="ad1f56c0-a2b2-46d1-b84d-b69b42409849" class="st0" width="912" height="78"/>
			<rect id="ae6df4ec-06bc-4255-a814-976a30f69815" y="155" class="st0" width="912" height="78"/>
			<rect id="b7488dce-24e6-4c8b-949e-33dc6a6f685a" y="310" class="st0" width="912" height="78"/>
			<g id="b5b45310-8df2-49d0-9b74-cbe1fa1141cc">
				<g id="e7e23e02-4295-4d41-af0a-9503aa4f2900">
					<path id="b3d2a823-5445-46ab-8472-bc30c001bdd3" class="st1" d="M167.1,28.3l3.8,0.9c-0.1,0.3-0.5,0.5-1.1,0.5
						c1.3,1.2,2.9,2.1,4.5,2.7c2,0.8,4,1.4,6.1,1.9v0.4c-0.5,0.1-0.9,0.4-1.3,0.8c-0.3,0.4-0.6,0.9-0.6,1.4
						c-0.9-0.4-1.8-0.8-2.7-1.2l1.9,1.4c-0.2,0.2-0.5,0.3-0.7,0.3v4.9c0,0.1-0.2,0.2-0.7,0.4c-0.4,0.2-0.8,0.2-1.1,0.2h-0.4v-0.8
						h-12.2v0.3c0,0.1-0.1,0.3-0.3,0.4l2.4,1h8l1.1-1.1l2.3,1.7c-0.2,0.2-0.5,0.4-0.8,0.4v6.2c0,0.1-0.3,0.3-0.7,0.4
						c-0.4,0.2-0.8,0.3-1.3,0.3h-0.4v-1.3h-8.3v0.5c0,0.1-0.2,0.3-0.7,0.5c-0.4,0.2-0.9,0.3-1.4,0.3h-0.3V43
						c-0.4,0.2-0.9,0.3-1.3,0.3h-0.4v-7c-1.2,0.5-2.3,1-3.2,1.2l-0.1-0.3c2.2-1.1,4.3-2.5,6.2-4.2C164.9,31.8,166.2,30.2,167.1,28.3
						z M174.5,36.6l1-1c-2.5-1.3-4.6-3.2-6.2-5.6c-1,1.2-2.1,2.2-3.4,3.1c-1.5,1.1-3.1,2-4.7,2.8l1.6,0.6L174.5,36.6z M162.5,37.3
						v4.2h5v-4.2H162.5z M163.5,37.7l0.3-0.2c1.5,0.6,2.4,1.3,2.6,2.2c0.2,0.5,0,1-0.4,1.3c-0.4,0.3-1,0.2-1.3-0.2
						C164.6,39.7,164.2,38.6,163.5,37.7L163.5,37.7z M172.8,44.6h-8.3v2.3h8.3V44.6z M164.5,49.9h8.3v-2.2h-8.3V49.9z M169.7,34.4
						l1.2-1.4c0.9,0.7,1.5,1.2,2.1,1.7c-0.1,0.3-0.3,0.4-0.6,0.4h-7.4l-0.2-0.7H169.7z M171.3,41.5h3.5v-4.2h-5.1v4.2h1
						c0.5-1.3,0.9-2.6,1.2-3.9l2.7,0.9c-0.1,0.4-0.4,0.5-1,0.5c-0.7,0.9-1.5,1.8-2.4,2.6L171.3,41.5z"/>
					<path id="acb8e3c6-b1ed-4cb2-bf72-699baa50d0be" class="st1" d="M184.4,51.9l-0.1-0.3c1.6-0.5,3.1-1.2,4.6-2
						c1.2-0.7,2.4-1.5,3.4-2.5l3.4,1.5c-0.2,0.3-0.6,0.4-1.3,0.4C191.2,50.6,187.8,51.6,184.4,51.9z M189.7,46.5v0.7
						c0,0.1-0.2,0.3-0.7,0.5c-0.4,0.2-0.9,0.3-1.4,0.3h-0.4V35.4l2.6,1.1h12l1.2-1.3l2.6,2c-0.3,0.3-0.7,0.4-1.1,0.5v9.2
						c0,0.1-0.3,0.2-0.8,0.4c-0.4,0.2-0.8,0.3-1.3,0.3h-0.4v-1L189.7,46.5z M190.6,34.5v0.4c0,0.1-0.1,0.2-0.3,0.3
						c-0.3,0.1-0.5,0.3-0.8,0.3c-0.3,0.1-0.6,0.1-0.9,0.1h-0.3v-6.8l2.5,1h10l1.2-1.3l2.6,2c-0.3,0.3-0.6,0.5-1.1,0.5v3.7
						c0,0.1-0.3,0.2-0.7,0.3c-0.4,0.1-0.8,0.2-1.3,0.2h-0.4v-0.8L190.6,34.5z M202.1,37.2h-12.4v2.3H202L202.1,37.2z M202.1,42.6
						v-2.4h-12.4v2.4L202.1,42.6z M189.7,45.7H202v-2.4h-12.4L189.7,45.7z M201,30.6h-10.5v3.2H201L201,30.6z M197.5,47.9l0.1-0.3
						c3.7,0,6.4,0.6,8,1.9c0.8,0.6,1.1,1.2,0.9,1.8s-0.6,0.7-1.3,0.7h-0.1c-1.1-0.8-2.3-1.6-3.6-2.2C200.3,49,198.9,48.4,197.5,47.9
						z"/>
					<path id="ba93a8a3-7503-466b-be26-1bf2d37c28d9" class="st1" d="M211.3,51.9l-0.3-0.3c1.8-1.9,3.1-4.1,3.8-6.6l3.1,1.3
						c-0.1,0.3-0.5,0.4-1,0.4C215.6,49,213.6,50.8,211.3,51.9z M230.5,51.8c0-0.6-0.2-1.3-0.6-1.8c-0.6-0.4-1.3-0.6-2-0.7V49
						c1.6,0.1,2.6,0.2,2.9,0.2c0.4,0,0.6-0.2,0.6-0.5v-6.4h-4.1c-0.4,4.3-2.2,7.5-5.4,9.6l-0.3-0.3c1.8-2,3-4.5,3.3-7.1
						c-0.1,0-0.2,0-0.4,0h-13.2l-0.2-0.7h2.6V33.3h-1.9l-0.2-0.7h2.1v-3.8l3.1,0.3c0,0.3-0.3,0.6-0.8,0.6v2.8h3.8v-3.8l3.2,0.3
						c-0.1,0.4-0.4,0.6-0.9,0.7v2.8h0.1l1-1.6c0.8,0.7,1.4,1.4,1.8,1.9c0,0.3-0.3,0.4-0.6,0.4h-2.3v10.6h0.1l1.1-1.7
						c0.7,0.6,1.3,1.2,1.8,1.8c0.2-1.7,0.3-3.4,0.3-5.2v-9.5l2.6,1h3.4l1.1-1.3l2.5,1.9c-0.3,0.3-0.7,0.5-1.1,0.5v17.5
						c0.1,0.7-0.1,1.5-0.6,2.1C232.3,51.6,231.4,51.9,230.5,51.8L230.5,51.8z M219.6,33.3h-3.8v2.8h3.8V33.3z M215.8,36.8v3h3.8v-3
						L215.8,36.8z M215.8,40.6v3.2h3.8v-3.3L215.8,40.6z M218.6,45.4l0.2-0.2c2.1,0.5,3.4,1.4,3.8,2.5c0.3,0.6,0.2,1.2-0.2,1.7
						c-0.4,0.4-1.1,0.4-1.6,0.1c0,0-0.1,0-0.1-0.1c-0.1-0.7-0.4-1.4-0.8-2.1C219.6,46.6,219.1,46,218.6,45.4z M227.3,41.5h4.1v-5h-4
						v2.2C227.4,39.7,227.4,40.6,227.3,41.5L227.3,41.5z M231.4,31h-4v4.8h4V31z"/>
					<path id="f9ffd51d-b167-45f8-a718-7955e1ddc0b3" class="st1" d="M249,44.3l1.5,0.5c-0.1,0.3-0.4,0.4-0.9,0.4
						c-0.5,1-1.1,1.9-1.9,2.7c1.3,0.6,2,1.3,2.2,2.1c0.2,0.5-0.1,1-0.5,1.1c-0.3,0.1-0.7,0.1-1,0c-0.7-0.7-1.4-1.3-2.2-1.8
						c-2.2,1.5-4.8,2.4-7.4,2.6l-0.1-0.4c2.3-0.5,4.4-1.5,6.2-3.1c-1.1-0.6-1.7-0.9-2-1l-0.4,0.6l-0.3,0.6c-0.7,0.2-1.5,0.1-2.1-0.2
						c0.7-1,1.3-2.1,1.8-3.2l-2.2,0.3c-0.1,0.3-0.4,0.5-0.7,0.5l-0.7-2.3h4.4c0.1-0.2,0.2-0.5,0.4-0.9s0.3-0.7,0.4-0.8h-1.8v0.4
						c0,0-0.1,0.1-0.2,0.2c-0.2,0.1-0.4,0.2-0.6,0.3c-0.3,0.1-0.6,0.1-0.9,0.1h-0.3v-5.6l0.4,0.1v-3.4h-1.5l-0.2-0.7h1.7v-3.5
						l2.4,0.9h1.6v-2.4l3,0.3c-0.1,0.4-0.4,0.6-0.9,0.7v1.4h1.9l1-1l2.1,1.6c-0.2,0.2-0.5,0.4-0.8,0.4v1.5h0.1l1-1.3
						c0.6,0.5,1.2,1.1,1.8,1.6c0,0.3-0.3,0.4-0.6,0.4h-2.3v2.6c0,0.1-0.2,0.2-0.6,0.4c-0.3,0.1-0.7,0.2-1.1,0.2h-0.3v-0.7H246v1.7
						h2.2l1-1l2.1,1.6c-0.2,0.2-0.5,0.4-0.8,0.4V42c0,0.1-0.2,0.2-0.6,0.3c-0.3,0.1-0.7,0.2-1.1,0.2h-0.3v-0.7h-3.3l1.2,0.2
						c-0.1,0.4-0.5,0.6-1,0.5c-0.1,0.1-0.2,0.4-0.4,0.9l7.5-0.2v0.4C250.9,44,249.7,44.2,249,44.3z M240.3,37.5H240l1.9,0.8h2v-1.7
						h-2v0.4c0,0-0.1,0.1-0.2,0.2c-0.2,0.1-0.4,0.2-0.6,0.2C240.8,37.4,240.5,37.4,240.3,37.5L240.3,37.5z M241.6,39v2.2h2.3V39
						H241.6z M242,31.6v1.8h2v-1.8L242,31.6z M244,34.1h-2v1.8h2V34.1z M244.3,44.9c-0.1,0.2-0.3,0.5-0.5,1s-0.4,0.7-0.5,1
						c0.9,0.1,1.8,0.2,2.7,0.5c0.7-0.8,1.2-1.8,1.6-2.8l-1,0.1l-1.2,0.2L244.3,44.9L244.3,44.9z M248.1,31.5h-2.1v1.8h2.1V31.5z
						 M248.1,35.8V34h-2.1v1.8H248.1z M248.5,39H246v2.2h2.5L248.5,39z M261.4,34.8h-1c-0.2,3.7-1.3,7.3-3,10.5
						c1.2,1.9,2.9,3.5,4.8,4.6l-0.1,0.2c-1,0.1-1.8,0.8-2,1.8c-1.6-1.3-2.9-3-3.8-4.9c-1.6,2.1-3.7,3.8-6.1,4.9l-0.2-0.3
						c2.3-1.7,4.2-3.9,5.5-6.5c-0.9-2.5-1.5-5.1-1.8-7.7c-0.6,1.1-1.3,2.1-2,3.1l-0.4-0.2c1.5-3.7,2.5-7.6,2.8-11.6l3.3,0.8
						c-0.1,0.4-0.4,0.5-0.9,0.6c-0.3,1.4-0.8,2.8-1.2,4.2h3l1.4-1.8c1,0.8,1.8,1.5,2.5,2.1C261.9,34.7,261.6,34.9,261.4,34.8
						L261.4,34.8z M257.8,34.8h-2.9c-0.1,0.3-0.4,0.9-0.8,1.7c0.4,2.3,1.1,4.6,2.1,6.7C257.2,40.5,257.7,37.6,257.8,34.8z"/>
				</g>
				<g id="b53511ec-fded-4218-ba3e-e2943c5284d7">
					<path id="bbd5e3f3-8a98-473d-88b7-a389496a47c9" class="st1" d="M509.3,18.9h-0.6c-1.2,1.9-2.8,3.5-4.7,4.8l-0.3-0.2
						c0.9-1.1,1.7-2.4,2.4-3.7c0.8-1.5,1.3-3,1.8-4.6l3,1.1c-0.2,0.4-0.6,0.5-1,0.4c-0.2,0.5-0.5,1-0.8,1.4h3.5l1.2-1.6
						c0.8,0.6,1.5,1.2,2.2,1.9c0,0.3-0.3,0.4-0.6,0.4h-4.8c1.2,0.6,1.9,1.3,1.9,2.2c0.1,0.5-0.2,1-0.7,1.2c-0.5,0.2-1.1,0.1-1.4-0.3
						C510.3,20.8,509.9,19.8,509.3,18.9z M523.1,30.2l1.3-1.2l2.3,1.9c-0.3,0.2-0.6,0.4-0.9,0.4c-0.3,3.2-0.9,5.2-2,5.9
						c-0.8,0.5-1.7,0.7-2.7,0.7c0.1-0.6-0.1-1.1-0.4-1.6c-0.5-0.4-1.2-0.7-1.9-0.8v-0.4c1.5,0.1,2.4,0.2,2.6,0.2
						c0.3,0,0.6,0,0.8-0.2c0.5-0.4,0.9-1.8,1.1-4.2h-6.5v7c0,0.1-0.1,0.2-0.2,0.2c-0.2,0.1-0.4,0.2-0.7,0.3c-0.3,0.1-0.7,0.1-1,0.1
						h-0.4V33c-2.9,2.7-6.5,4.6-10.4,5.6l-0.2-0.3c1.8-0.8,3.6-1.9,5.1-3.2c1.5-1.2,2.7-2.6,3.8-4.1h-4.4c-0.1,0.5-0.3,1.1-0.5,1.8
						c-0.8,0.3-1.7,0.2-2.4,0c0.8-2.5,1.4-4.9,1.9-7.3l2.5,1.2h4.6v-3h-8.1l-0.2-0.7h15.8l1.1-1.3l2.4,1.8c-0.3,0.3-0.6,0.4-0.9,0.5
						V28c0,0.1-0.2,0.2-0.7,0.4c-0.4,0.2-0.8,0.2-1.2,0.3h-0.4v-1.4h-5.4v2.9H523.1z M508.5,30.2h5.9v-2.9h-5.2c0,0-0.1,0.4-0.3,1.2
						S508.6,29.8,508.5,30.2z M523.6,18.2l1.3-1.7c1,0.8,1.8,1.4,2.4,2c0,0.3-0.3,0.4-0.7,0.4h-6.1c1.1,0.6,1.7,1.3,1.7,2.1
						c0,0.5-0.3,0.9-0.7,1.1c-0.4,0.2-0.9,0-1.3-0.3c-0.1-1-0.5-2-1.1-2.9H518c-1,1.3-2.2,2.4-3.5,3.3l-0.3-0.2
						c1.4-2.1,2.4-4.4,3-6.8l3.3,1.1c-0.1,0.3-0.5,0.5-1,0.4c-0.4,0.7-0.7,1.2-0.9,1.4L523.6,18.2z M516.8,23.5v3h5.4v-3H516.8z"/>
					<path id="a4609dcb-6d43-4dc5-ac8d-0f81f1fc86ab" class="st1" d="M531.1,25.7h18.1l1.9-2.6c1.4,1.2,2.6,2.2,3.4,3
						c-0.1,0.3-0.3,0.4-0.8,0.4h-22.3L531.1,25.7z"/>
					<path id="fcd616d3-60eb-4b22-b3cd-3d6b9bce64bd" class="st1" d="M558.3,38.6l-0.3-0.3c1.8-1.9,3.1-4.1,3.8-6.6l3.1,1.3
						c-0.2,0.3-0.5,0.4-1,0.4C562.5,35.7,560.6,37.5,558.3,38.6z M577.4,38.5c0-0.6-0.2-1.3-0.6-1.8c-0.6-0.4-1.3-0.6-2-0.7v-0.4
						c1.6,0.1,2.6,0.1,2.9,0.2c0.4,0,0.6-0.2,0.6-0.5V29h-4.1c-0.4,4.3-2.2,7.5-5.4,9.6l-0.3-0.2c1.8-2,3-4.5,3.3-7.1
						c-0.1,0-0.2,0-0.4,0h-13.2l-0.2-0.7h2.5V20h-2l-0.2-0.7h2.2v-3.8l3.1,0.3c0,0.3-0.3,0.6-0.8,0.6v2.8h3.8v-3.8l3.2,0.3
						c-0.1,0.4-0.4,0.6-0.9,0.7v2.8h0.1l1-1.5c0.8,0.7,1.4,1.4,1.8,1.9c0,0.3-0.3,0.4-0.6,0.4h-2.3v10.6h0.1l1.1-1.7
						c0.7,0.7,1.3,1.3,1.8,1.8c0.2-1.7,0.3-3.4,0.3-5.2v-9.5l2.6,1h3.3l1.1-1.3l2.5,1.9c-0.3,0.3-0.7,0.5-1.1,0.5v17.5
						c0.1,0.7-0.1,1.5-0.6,2.1C579.3,38.3,578.4,38.6,577.4,38.5L577.4,38.5z M566.5,20h-3.8v2.8h3.8V20z M562.8,23.5v3h3.8v-3
						H562.8z M562.8,27.3v3.3h3.8v-3.3L562.8,27.3z M565.5,32.1l0.2-0.2c2.1,0.5,3.4,1.4,3.8,2.5c0.3,0.6,0.2,1.2-0.2,1.7
						c-0.4,0.4-1.1,0.4-1.6,0c0,0-0.1,0-0.1-0.1c-0.1-0.7-0.4-1.4-0.8-2.1C566.5,33.3,566,32.7,565.5,32.1z M574.2,28.2h4.1v-5h-4
						v2.2C574.3,26.4,574.3,27.3,574.2,28.2L574.2,28.2z M578.3,17.7h-4v4.8h4V17.7z"/>
					<path id="b93507dd-8db4-41d3-b17b-cac02165be73" class="st1" d="M491.6,56c0-3.7,1.7-6.6,5.2-8.8l0.3,0.3
						c-4.6,3.9-5.3,10.8-1.4,15.4c0.4,0.5,0.9,1,1.4,1.4l-0.3,0.3C493.3,62.6,491.6,59.7,491.6,56z"/>
					<path id="bcfb1e17-278c-45d6-a424-b05c4c948a40" class="st1" d="M500.2,49.3h8.5v1.1L503.8,63h-1.8l-0.2-0.2l5.6-11.8h-7.3
						V49.3z"/>
					<path id="e445fb00-99dd-4aeb-bcec-14231d2cff9d" class="st1" d="M511.2,66.3l5.5-17.9h1.2l-5.5,17.9H511.2z"/>
					<path id="a4aeab36-ca8b-46a9-a84c-87cb9b3abb95" class="st1" d="M525.9,62.1l2.8,0.4V63H521v-0.6l2.9-0.4c0-1.5,0-2.6,0-3.4v-8
						l-2.6,0.2v-0.7l4.4-1.1l0.2,0.2v3v6.4C525.9,59.5,525.9,60.6,525.9,62.1z"/>
					<path id="fb760624-c308-48e7-b211-823bbf37cec7" class="st1" d="M537.2,55.5c0.5,0.5,1.1,0.8,1.8,0.9c0.8,0,1.3-0.7,1.4-2
						l0.9,0.1c0,0.8-0.2,1.5-0.7,2.1c-0.4,0.5-1.1,0.8-1.7,0.7c-0.4,0-0.8-0.1-1.2-0.3c-0.4-0.2-0.9-0.5-1.2-0.9
						c-0.5-0.5-1.1-0.8-1.8-0.9c-0.8,0-1.3,0.7-1.5,2l-0.9-0.1c0-0.8,0.2-1.5,0.7-2.1c0.4-0.5,1.1-0.8,1.7-0.7
						C535.7,54.5,536.5,54.9,537.2,55.5z"/>
					<path id="b4242050-f57b-4255-821b-cdebaff41b8f" class="st1" d="M545.5,63.4l-0.1-0.6c1.5-0.4,2.8-1.3,3.9-2.4
						c0.9-1.1,1.5-2.4,1.7-3.8c-0.7,0.6-1.7,1-2.7,0.9c-1.1,0-2.1-0.4-2.8-1.1c-0.8-0.8-1.2-1.9-1.1-3c0-1.2,0.4-2.4,1.3-3.2
						c0.9-0.8,2-1.2,3.2-1.2c1.3-0.1,2.5,0.5,3.3,1.5c0.8,1.2,1.3,2.6,1.2,4.1c0,2-0.7,4-2,5.6C549.8,61.9,547.7,63,545.5,63.4z
						 M549.1,56.6c0.7,0,1.4-0.3,2-0.7c0-0.4,0-0.8,0-1.2c0.1-1.3-0.1-2.5-0.7-3.7c-0.3-0.7-1-1.2-1.8-1.2c-0.7,0-1.3,0.3-1.7,0.9
						c-0.5,0.8-0.7,1.7-0.7,2.6c-0.1,0.9,0.2,1.8,0.7,2.5C547.5,56.3,548.2,56.6,549.1,56.6L549.1,56.6z"/>
					<path id="fe2f80f3-9220-45c5-84ab-cc96bf5ba61e" class="st1" d="M555.7,66.3l5.5-17.9h1.2l-5.5,17.9H555.7z"/>
					<path id="b4c5689b-8f58-41e2-b1c6-9dfc5bf3aa4c" class="st1" d="M567.8,49.9l-0.4,1.4c-0.2,0.8-0.6,1.2-1.2,1.2
						c-0.4,0.1-0.9-0.2-1-0.6c0.1-0.8,0.6-1.6,1.3-2.1c0.8-0.5,1.7-0.7,2.7-0.7c1-0.1,2.1,0.3,2.9,0.9c0.7,0.6,1.1,1.5,1,2.4
						c0,0.8-0.3,1.5-0.8,2.1c-0.6,0.7-1.4,1.1-2.2,1.3c1,0.1,1.9,0.6,2.6,1.3c1.3,1.6,1.1,3.8-0.4,5.2c-1,0.8-2.2,1.1-3.4,1.1
						c-1,0-1.9-0.2-2.8-0.7c-0.7-0.5-1.2-1.3-1.3-2.2c0.1-0.4,0.5-0.7,1-0.7c0.3,0,0.5,0.1,0.7,0.3c0.2,0.3,0.4,0.7,0.4,1.1l0.3,1.4
						c0.4,0.1,0.7,0.1,1.1,0.1c0.8,0,1.7-0.3,2.3-0.8c1.1-1.4,1.1-3.3,0-4.7c-0.6-0.6-1.5-0.9-2.3-0.8h-0.8v-0.8h0.8
						c1.5,0.1,2.8-1,2.9-2.5c0-0.2,0-0.4,0-0.5c0.1-0.7-0.2-1.4-0.6-2c-0.5-0.5-1.1-0.7-1.8-0.7C568.4,49.7,568.1,49.8,567.8,49.9z"
						/>
					<path id="a0ddfc88-1343-4c4f-8cc9-fe3f23b5b996" class="st1" d="M581.1,49.1c1.3,0,2.4,0.7,3.1,1.7c1,1.6,1.4,3.4,1.3,5.3
						c0.1,1.9-0.3,3.8-1.3,5.5c-0.7,1.1-1.8,1.8-3.1,1.8c-1.3,0-2.5-0.7-3.2-1.8c-1-1.6-1.4-3.5-1.3-5.4c-0.1-1.9,0.3-3.7,1.3-5.3
						C578.6,49.7,579.8,49.1,581.1,49.1z M578.7,56.1c0,4.3,0.8,6.5,2.4,6.5s2.4-2.2,2.3-6.5c0-4.2-0.8-6.3-2.3-6.3
						S578.7,51.9,578.7,56.1L578.7,56.1z"/>
					<path id="e4314de9-5263-4db7-93dd-e493a9497d84" class="st1" d="M588.5,47.5l0.3-0.3c3.4,2.1,5.2,5,5.2,8.8s-1.7,6.6-5.2,8.8
						l-0.3-0.3c4.6-3.9,5.3-10.8,1.4-15.4C589.5,48.4,589,48,588.5,47.5z"/>
				</g>
				<g id="bdf00f0d-0aea-4b84-ada9-7e51d9d4b818">
					<path id="ea1df34c-f468-4517-be91-a93f64ea6804" class="st1" d="M757.6,18.9H757c-1.2,1.9-2.8,3.5-4.7,4.8l-0.3-0.2
						c0.9-1.1,1.7-2.4,2.4-3.7c0.7-1.5,1.3-3,1.8-4.6l3.1,1.1c-0.2,0.3-0.6,0.5-1,0.4c-0.2,0.5-0.4,1-0.7,1.4h3.4l1.2-1.6
						c0.8,0.6,1.5,1.2,2.1,1.9c0,0.3-0.2,0.4-0.6,0.4h-4.9c1.2,0.6,1.9,1.3,1.9,2.2c0.1,0.5-0.2,1-0.7,1.2c-0.5,0.2-1,0.1-1.4-0.3
						C758.6,20.8,758.3,19.8,757.6,18.9z M771.5,30.2l1.3-1.2l2.3,1.9c-0.3,0.2-0.6,0.4-0.9,0.4c-0.3,3.2-0.9,5.2-2,5.9
						c-0.8,0.5-1.7,0.7-2.7,0.7c0.1-0.6-0.1-1.1-0.4-1.6c-0.5-0.4-1.2-0.7-1.9-0.8v-0.4c1.5,0.1,2.4,0.2,2.6,0.2
						c0.3,0,0.6,0,0.8-0.2c0.5-0.4,0.9-1.8,1.1-4.2h-6.5v7c0,0.1-0.1,0.2-0.2,0.2c-0.2,0.1-0.4,0.2-0.7,0.3c-0.3,0.1-0.7,0.1-1,0.1
						h-0.4V33c-2.9,2.7-6.5,4.6-10.3,5.6l-0.2-0.3c1.8-0.8,3.6-1.9,5.1-3.2c1.5-1.2,2.7-2.6,3.8-4.1h-4.4c-0.1,0.5-0.3,1.1-0.5,1.8
						c-0.8,0.3-1.7,0.2-2.4,0c0.8-2.5,1.4-4.9,1.9-7.3l2.5,1.2h4.6v-3h-8.1l-0.2-0.7h15.8l1.1-1.3l2.4,1.8c-0.3,0.3-0.6,0.4-0.9,0.5
						V28c0,0.1-0.3,0.2-0.7,0.4c-0.4,0.2-0.8,0.2-1.2,0.3h-0.4v-1.4h-5.4v2.9H771.5z M756.9,30.2h5.9v-2.9h-5.2c0,0-0.1,0.4-0.3,1.2
						S757,29.8,756.9,30.2z M772,18.2l1.3-1.7c1,0.8,1.8,1.4,2.4,2c0,0.3-0.3,0.4-0.7,0.4H769c1.1,0.6,1.7,1.3,1.7,2.1
						c0,0.5-0.3,0.9-0.7,1.1c-0.4,0.2-0.9,0-1.3-0.3c-0.1-1.1-0.5-2.1-1.1-2.9h-1.1c-1,1.3-2.2,2.4-3.5,3.3l-0.3-0.2
						c1.4-2.1,2.5-4.4,3.1-6.8l3.2,1.2c-0.1,0.3-0.5,0.5-1,0.4c-0.4,0.7-0.7,1.2-0.9,1.4L772,18.2z M765.1,23.5v3h5.4v-3H765.1z"/>
					<path id="aefffca5-7be4-4617-b314-cc3b3a03cdcc" class="st1" d="M779.7,34.1h18.3l1.7-2.3c1.3,1,2.3,1.9,3.1,2.6
						c-0.1,0.2-0.3,0.4-0.7,0.4h-22.2L779.7,34.1z M782,20h13.5l1.7-2.2c1.3,1,2.3,1.9,3,2.5c-0.1,0.2-0.3,0.4-0.7,0.4h-17.2L782,20
						z"/>
					<path id="bd3c0b1b-2166-4129-bfec-0faa0ff5c362" class="st1" d="M806.7,38.6l-0.3-0.3c1.8-1.9,3.1-4.1,3.8-6.6l3.1,1.3
						c-0.1,0.3-0.5,0.4-1,0.4C810.9,35.7,809,37.5,806.7,38.6z M825.8,38.5c0-0.7-0.2-1.3-0.6-1.8c-0.6-0.4-1.3-0.6-2-0.7v-0.4
						c1.6,0.1,2.5,0.1,2.9,0.2c0.4,0,0.6-0.2,0.6-0.5V29h-4.1c-0.4,4.3-2.2,7.5-5.4,9.6l-0.3-0.2c1.8-2,2.9-4.5,3.3-7.1
						c-0.1,0-0.2,0-0.4,0h-13.2l-0.2-0.7h2.6V20h-2l-0.2-0.7h2.2v-3.8l3,0.3c0,0.3-0.3,0.6-0.8,0.6v2.8h3.8v-3.8l3.2,0.3
						c-0.1,0.4-0.5,0.7-0.9,0.7v2.8h0.1l1-1.5c0.8,0.7,1.4,1.4,1.8,1.9c0,0.3-0.3,0.4-0.6,0.4h-2.3v10.6h0.1l1.1-1.7
						c0.7,0.7,1.3,1.3,1.8,1.8c0.2-1.7,0.3-3.4,0.3-5.2v-9.5l2.6,1h3.3l1.1-1.3l2.5,1.9c-0.3,0.3-0.7,0.5-1.1,0.5v17.5
						c0.1,0.7-0.1,1.5-0.6,2.1C827.7,38.3,826.8,38.6,825.8,38.5L825.8,38.5z M814.9,20h-3.8v2.8h3.8V20z M811.1,23.5v3h3.8v-3
						H811.1z M811.1,27.3v3.3h3.8v-3.3L811.1,27.3z M813.9,32.2l0.2-0.2c2.1,0.5,3.4,1.4,3.8,2.5c0.3,0.6,0.2,1.2-0.2,1.7
						c-0.4,0.4-1.1,0.4-1.6,0c0,0-0.1,0-0.1-0.1c-0.1-0.7-0.4-1.4-0.8-2.1C814.9,33.3,814.5,32.7,813.9,32.2L813.9,32.2z
						 M822.6,28.3h4.1v-5h-4v2.2C822.7,26.4,822.7,27.3,822.6,28.3L822.6,28.3z M826.7,17.7h-4v4.8h4V17.7z"/>
					<path id="eb884d41-5622-4f59-9d05-e985f9735624" class="st1" d="M728.1,56c0-3.7,1.7-6.6,5.2-8.8l0.3,0.3
						c-4.6,3.9-5.3,10.8-1.4,15.4c0.4,0.5,0.9,1,1.4,1.4l-0.3,0.3C729.8,62.6,728.1,59.7,728.1,56z"/>
					<path id="bdfc4b66-8990-405c-b5ec-f85e5e1ae29a" class="st1" d="M742.2,62.1l2.8,0.4V63h-7.7v-0.6l2.9-0.4c0-1.5,0-2.6,0-3.4
						v-8l-2.6,0.2v-0.7l4.4-1.1l0.3,0.2l-0.1,3v6.4C742.1,59.5,742.1,60.6,742.2,62.1z"/>
					<path id="fdd88e63-12f4-4d2c-a5d5-f2116f4e2835" class="st1" d="M752.8,49.1c1.3,0,2.4,0.7,3.1,1.7c1,1.6,1.4,3.4,1.2,5.3
						c0.1,1.9-0.3,3.8-1.2,5.5c-0.7,1.1-1.8,1.8-3.1,1.8c-1.3,0-2.5-0.7-3.2-1.8c-1-1.6-1.4-3.5-1.3-5.4c-0.1-1.9,0.3-3.7,1.3-5.3
						C750.4,49.7,751.6,49.1,752.8,49.1z M750.5,56.1c0,4.3,0.8,6.5,2.4,6.5c1.6,0,2.3-2.2,2.3-6.5c0-4.2-0.8-6.3-2.3-6.3
						C751.3,49.8,750.5,51.9,750.5,56.1L750.5,56.1z"/>
					<path id="eaac06ca-f17b-4e26-9549-53e4c78b6d5c" class="st1" d="M759.6,66.3l5.5-17.9h1.2l-5.5,17.9H759.6z"/>
					<path id="a7876985-5ced-4cfc-931e-db9594262573" class="st1" d="M774.3,62.1l2.8,0.4V63h-7.7v-0.6l2.9-0.4c0-1.5,0-2.6,0-3.4
						v-8l-2.6,0.2v-0.7l4.4-1.1l0.2,0.2v3v6.4C774.3,59.5,774.3,60.6,774.3,62.1z"/>
					<path id="b21ea9a3-228d-4a74-a013-2755e664d904" class="st1" d="M785.5,55.5c0.5,0.5,1.2,0.8,1.9,0.9c0.8,0,1.3-0.7,1.4-2
						l0.9,0.1c0,0.8-0.2,1.5-0.7,2.1c-0.4,0.5-1.1,0.8-1.7,0.7c-0.4,0-0.8-0.1-1.2-0.3c-0.4-0.2-0.9-0.5-1.2-0.9
						c-0.5-0.5-1.1-0.8-1.8-0.9c-0.8,0-1.3,0.7-1.5,2l-0.9-0.1c0-0.8,0.2-1.5,0.7-2.1c0.4-0.5,1.1-0.8,1.7-0.7
						C784.1,54.5,784.9,54.9,785.5,55.5z"/>
					<path id="b628236e-9bc8-450d-8808-51d9b016c0d2" class="st1" d="M798.5,62.1l2.8,0.4V63h-7.7v-0.6l2.9-0.4c0-1.5,0-2.6,0-3.4
						v-8l-2.6,0.2v-0.7l4.4-1.1l0.3,0.2l-0.1,3v6.4C798.5,59.5,798.5,60.5,798.5,62.1z"/>
					<path id="f33dbccc-813c-4a10-83bb-ffeb0ba20ef6" class="st1" d="M806.3,61.3h7.2V63H805v-1.3l1.5-1.7c0.7-0.8,1.3-1.4,1.6-1.8
						c0.8-0.9,1.6-1.9,2.2-3c0.4-0.7,0.7-1.6,0.7-2.5c0-0.8-0.2-1.5-0.7-2.1c-0.4-0.5-1.1-0.8-1.8-0.8c-0.3,0-0.7,0-1,0.1l-0.5,1.6
						c-0.2,0.9-0.6,1.3-1.2,1.3c-0.4,0-0.8-0.3-1-0.7c0.1-0.9,0.6-1.8,1.4-2.3c0.9-0.6,1.9-0.8,2.9-0.8c1.1-0.1,2.1,0.3,2.9,1
						c0.7,0.7,1,1.7,1,2.7c0,0.9-0.3,1.8-0.9,2.5c-1.1,1.3-2.2,2.6-3.5,3.7c-0.2,0.2-0.6,0.6-1.1,1.1L806.3,61.3z"/>
					<path id="a9d81995-52c0-49a8-b8f8-a7dbdabb0b4a" class="st1" d="M816,66.3l5.5-17.9h1.2l-5.5,17.9H816z"/>
					<path id="a11221b0-4484-420f-9eed-54dfa5bacbe5" class="st1" d="M828,49.9l-0.4,1.4c-0.2,0.8-0.6,1.2-1.2,1.2
						c-0.4,0.1-0.9-0.2-1-0.6c0.1-0.8,0.6-1.6,1.3-2.1c0.8-0.5,1.7-0.7,2.7-0.7c1-0.1,2.1,0.3,2.9,0.9c0.7,0.6,1.1,1.5,1.1,2.4
						c0,0.8-0.3,1.5-0.8,2.1c-0.6,0.7-1.4,1.1-2.2,1.3c1,0.1,1.9,0.6,2.6,1.3c1.3,1.6,1.1,3.8-0.4,5.2c-1,0.8-2.2,1.1-3.4,1.1
						c-1,0-1.9-0.2-2.8-0.7c-0.7-0.5-1.2-1.3-1.3-2.2c0.1-0.4,0.5-0.7,1-0.7c0.3,0,0.5,0.1,0.7,0.3c0.2,0.3,0.4,0.7,0.4,1.1l0.3,1.4
						c0.4,0.1,0.7,0.1,1.1,0.1c0.8,0,1.7-0.3,2.3-0.8c0.6-0.6,0.9-1.5,0.8-2.3c0-0.9-0.2-1.7-0.8-2.4c-0.6-0.6-1.5-0.9-2.3-0.8h-0.9
						v-0.8h0.8c1.5,0.1,2.8-1,2.9-2.5c0-0.2,0-0.4,0-0.5c0.1-0.7-0.2-1.4-0.6-2c-0.5-0.5-1.1-0.7-1.8-0.7
						C828.6,49.7,828.3,49.8,828,49.9z"/>
					<path id="a9d5d7cd-c71c-4468-913f-1ecbbb176a0d" class="st1" d="M842.5,62.1l2.8,0.4V63h-7.7v-0.6l2.9-0.4c0-1.5,0-2.6,0-3.4
						v-8l-2.6,0.2v-0.7l4.4-1.1l0.2,0.2l0,3v6.4C842.5,59.5,842.5,60.6,842.5,62.1z"/>
					<path id="b3693c5b-0dce-42ff-be44-fccee03d8871" class="st1" d="M848.7,47.5l0.3-0.3c3.4,2.1,5.2,5,5.2,8.8s-1.7,6.6-5.2,8.8
						l-0.3-0.3c4.6-3.9,5.3-10.8,1.4-15.4C849.7,48.4,849.2,48,848.7,47.5z"/>
				</g>
				<g id="f7621d5f-20d1-4017-93fa-009940f519ae">
					<line id="f00dd4f7-bba3-46e7-9245-915f21474184" class="st2" x1="419.5" y1="0" x2="419.5" y2="466.1"/>
					<line id="ed31e6aa-f649-4f55-96b6-47a89a906827" class="st2" x1="665.4" y1="0" x2="665.4" y2="155.6"/>
					<path id="b51749d2-e88b-4bc5-9263-9bf5c9592c01" class="st3" d="M910.7,155.2"/>
				</g>
				<g id="ef879a48-bfd5-4840-bd62-8b9fbfa657f9">
					<path id="b11dcc0d-a373-49f8-b56e-3fbd58e9607f" class="st1" d="M162,114.4c-0.8,4-3.1,7.5-6.4,9.9c-0.5-0.6-1-1.1-1.7-1.6
						c2.5-1.6,4.4-4,5.4-6.8h-4.9v-2h5.8l0.4-0.1L162,114.4z M174.1,112.6c-1.8,1.7-3.7,3.3-5.7,4.7c1.6,2.4,3.9,4.2,6.5,5.2
						c-0.6,0.5-1.1,1.2-1.5,1.9c-3.5-1.6-6.3-4.4-7.8-7.9v6.7c0,1.2-0.3,1.8-1.1,2.1c-1.3,0.4-2.6,0.5-3.9,0.4
						c-0.1-0.7-0.4-1.4-0.7-2.1c1.2,0,2.6,0,3,0s0.5-0.1,0.5-0.5v-11.5h-6v-2h8.2v1.8c0.4,1.5,1,3,1.8,4.3c1.7-1.3,3.4-2.8,4.8-4.5
						L174.1,112.6z M167.5,109.8c-2.6-1.3-5.4-2.4-8.2-3.1l1-1.7c2.9,0.6,5.6,1.6,8.3,2.9L167.5,109.8z"/>
					<path id="e9f1818f-72cd-494f-ac4c-b32d3828bf0b" class="st1" d="M179.1,119.7c-0.2,2-0.6,3.9-1.1,5.8c-0.5-0.2-1-0.4-1.6-0.5
						c0.5-1.8,0.9-3.7,1-5.5L179.1,119.7z M182.8,118.8c-0.1-0.4-0.1-0.8-0.2-1.2c-4.2,0.6-4.9,0.8-5.4,1c-0.2-0.6-0.3-1.2-0.6-1.7
						c0.5-0.1,1-0.7,1.6-1.5c0.6-0.7,1.1-1.5,1.6-2.3c-0.9,0.1-1.9,0.2-2.8,0.5c-0.2-0.6-0.4-1.2-0.6-1.7c0.4-0.1,0.8-0.6,1.2-1.2
						c1.1-1.8,2-3.7,2.6-5.7l1.8,0.7c-0.8,2-1.8,4-3,5.8l1.9-0.2c0.5-1,1.1-2,1.5-3.1l1.6,1c-1.3,2.5-2.8,4.9-4.6,7.2l2.8-0.4
						c-0.2-0.7-0.4-1.4-0.6-2l1.4-0.4c0.5,1.5,0.9,3.1,1.2,4.7L182.8,118.8z M181.2,119.4c0.3,1.7,0.5,3.4,0.6,5.2l-1.6,0.3
						c-0.1-1.7-0.2-3.5-0.5-5.2L181.2,119.4z M183.2,118.8c0.5,1.3,0.9,2.7,1.2,4.1l-1.4,0.4c-0.3-1.4-0.7-2.8-1.1-4.2L183.2,118.8z
						 M192.9,122.4c1.6,0.6,3.3,1.2,4.4,1.7l-0.9,1.5c-1.2-0.6-3.1-1.4-4.8-2.1l0.7-1.2h-3.7l1.2,1.1c-1.7,0.8-3.9,1.6-5.5,2.2
						c-0.2-0.5-0.5-1-0.8-1.5c1.6-0.5,3.1-1.2,4.6-1.9h-3.3v-6.6h11.2v6.6L192.9,122.4z M189.6,107.4H184V106h5.6v-1.1h2v1.1h5.3
						v1.4h-5.3v1h4.5v1.4h-11.2v-1.4h4.7L189.6,107.4z M184.1,110.6h12.7v4.3h-12.7V110.6z M185.9,113.6h2.1v-1.6h-2.1V113.6z
						 M186.7,117.8h7.4v-0.8h-7.4L186.7,117.8z M186.7,119.5h7.4v-0.8h-7.4L186.7,119.5z M186.7,121.2h7.4v-0.9h-7.4L186.7,121.2z
						 M191.5,113.6v-1.6h-2v1.6H191.5z M194.9,111.9h-1.8v1.6h1.8V111.9z"/>
					<path id="a78739a4-1281-4329-b265-fd7e5f0b914e" class="st1" d="M206.1,118.1l0.4,1.9c-2.3,1-4.8,2-6.8,2.8l-0.7-2.1
						c0.8-0.2,1.7-0.6,2.7-1v-7.4h-2.5v-2h2.5v-5.1h1.9v5.1h2.4v2h-2.4v6.7L206.1,118.1z M219.9,113.6v1.9h-13.9v-1.9h8.3
						c0.6-1.4,1.1-2.9,1.4-4.3l1.9,0.5c-0.4,1.3-1,2.7-1.5,3.8L219.9,113.6z M219.1,109.3h-12.3v-1.9h5.2c-0.2-0.8-0.4-1.5-0.6-2.3
						l1.9-0.3c0.3,0.9,0.5,1.7,0.7,2.6h5L219.1,109.3z M207.8,117.3h10.2v8.3h-2v-0.8h-6.4v0.9h-1.9L207.8,117.3z M209.4,113.6
						c-0.2-1.3-0.6-2.5-1.1-3.6l1.7-0.5c0.5,1.1,0.9,2.3,1.2,3.6L209.4,113.6z M209.7,119.2v3.8h6.4v-3.8H209.7z"/>
					<path id="a5a002aa-bdcc-46a1-9776-0781f9155308" class="st1" d="M241.3,109.7c0,0,0,0.8-0.1,1c-0.5,9.1-0.9,12.5-1.9,13.6
						c-0.5,0.6-1.3,1-2.1,1c-1.2,0.1-2.4,0.1-3.6,0c-0.1-0.8-0.3-1.5-0.8-2.2c1.5,0.1,2.9,0.1,3.4,0.1c0.4,0,0.7-0.1,1-0.3
						c0.8-0.7,1.2-3.8,1.6-11.2h-7.1c-0.3,4.6-1.9,10.1-8.3,13.9c-0.5-0.6-1-1.2-1.6-1.7c4.5-2.4,7.5-7.1,7.7-12.2h-7v-2.1h7.1v-4.7
						h2.2v4.7H241.3z"/>
					<path id="a86c10dd-e40f-4ced-895e-f4021a404307" class="st1" d="M257.4,113.8v0.2h6.5c0,0,0,0.6,0,0.9
						c-0.3,6.4-0.5,8.9-1.2,9.7c-0.4,0.5-1.1,0.9-1.7,0.9c-1,0.1-2.1,0.1-3.1,0c-0.1-0.7-0.3-1.5-0.7-2.1c1.2,0.1,2.4,0.1,2.8,0.1
						c0.3,0,0.7-0.1,0.9-0.3c0.4-0.5,0.7-2.4,0.9-7.3h-4.4c-0.3,4-2.4,7.6-5.8,9.8c-0.5-0.5-1-1-1.6-1.4c4.8-3.2,5.4-7.4,5.4-10.5
						v-2.9h-3.5v1.6h-2.5v6.1c0.9-0.3,1.8-0.6,2.7-1l0.4,2c-2.6,1-5.5,2.1-7.7,2.9l-0.5-2.2c0.9-0.3,1.9-0.6,3.1-1.1v-6.8h-2.7v-2
						h2.7v-5.1h2v5.1h2.4v-1.6H265v2h-7.6L257.4,113.8z M257.9,108.7c-0.3-1.2-0.6-2.3-1-3.5l2-0.4c0.4,1.1,0.9,2.5,1.1,3.3
						L257.9,108.7z"/>
				</g>
				<g id="e860e534-60ed-4cfd-8a22-1c98b4f82d47">
					<path id="f88e89b4-5597-483c-a430-667969ea2d0f" class="st1" d="M521.5,109.4h-7.8v-2.2h10.7v1.6c-3.9,4.9-4.5,8.5-4.8,15h-2.7
						C517.2,117.8,518.3,113.9,521.5,109.4z"/>
					<path id="a39ff9e6-9a06-411a-95aa-d88e4e823bf5" class="st1" d="M544.1,122.8c0,1.4-0.4,2-1.3,2.4c-1.6,0.4-3.2,0.5-4.8,0.4
						c-0.2-0.8-0.5-1.5-0.9-2.2c1.8,0.1,3.6,0.1,4.1,0s0.7-0.2,0.7-0.7v-3.9h-10.2c-0.5,2.6-1.9,5.1-3.9,6.9c-0.5-0.6-1-1.1-1.6-1.5
						c3.5-3,3.9-7.4,3.9-11V106h14.1V122.8z M541.8,116.8v-3.3h-9.7c0,1.1-0.1,2.2-0.2,3.3H541.8z M532.1,108.1v3.3h9.7v-3.3H532.1z
						"/>
					<path id="acf378b5-a35e-4373-8b7d-48210d879028" class="st1" d="M556.7,119.9c-0.4-0.7-1.3-1.8-2.1-2.8v8.6h-2.2v-8.3
						c-0.8,0.9-1.6,1.7-2.5,2.4c-0.3-0.7-0.6-1.4-1.1-2.1c2.4-1.9,4.4-4.3,5.8-7h-5.3v-1.9h4.1c-0.5-1.1-1.2-2.1-1.9-3l1.6-0.9
						c0.8,0.9,1.4,1.9,2,3l-1.5,1h2.1l0.3-0.1l1.2,0.8c-0.7,1.8-1.6,3.4-2.7,5v0.2c0.2,0.2,0.4,0.4,0.6,0.6c0.6-0.7,1.2-1.4,1.7-2.2
						l1.4,1.1c-0.8,0.7-1.5,1.4-2.2,2c0.8,0.8,1.6,1.6,1.8,1.9L556.7,119.9z M568.8,106.8c0,0,0,0.8,0,1.1
						c-0.3,11.4-0.5,15.3-1.3,16.5c-0.4,0.6-1.1,1.1-1.8,1.1c-1.1,0.1-2.2,0.1-3.2,0c-0.1-0.7-0.3-1.4-0.6-2c1.3,0.1,2.4,0.1,3,0.1
						c0.3,0,0.7-0.1,0.9-0.4c0.7-0.8,1-4.5,1.2-14.4h-3.8c-0.3,7.9-1.4,13.3-5.5,16.9c-0.5-0.6-1-1.1-1.6-1.6c3.9-3,4.8-8.1,5-15.2
						h-3.4v-2L568.8,106.8z"/>
				</g>
				<g id="bb3d8a9e-8b72-4cf8-9856-e9fb6bf5ae4c">
					<path id="fe0173b6-4c3f-4e40-9091-0e4c78aa330e" class="st1" d="M755.1,121.7h3.6v-11.6h-3v-1.6c1.3-0.2,2.5-0.6,3.6-1.3h2
						v14.5h3.2v2.1h-9.5L755.1,121.7z"/>
					<path id="abd34468-2053-4ec7-abb0-978fa7eccc8c" class="st1" d="M767.1,115.5c0-5.8,2.1-8.6,5.4-8.6s5.4,2.8,5.4,8.6
						s-2.1,8.7-5.4,8.7S767.1,121.2,767.1,115.5z M775.4,115.5c0-4.8-1.2-6.5-2.9-6.5s-2.9,1.7-2.9,6.5s1.2,6.6,2.9,6.6
						S775.4,120.3,775.4,115.5z"/>
					<path id="e6a6fcc0-3052-4d54-9362-afc4dac07ead" class="st1" d="M797.5,122.8c0,1.4-0.4,2-1.3,2.4c-1.6,0.4-3.2,0.5-4.8,0.4
						c-0.2-0.8-0.5-1.5-0.9-2.2c1.8,0.1,3.6,0.1,4.1,0s0.7-0.2,0.7-0.7v-3.9h-10.3c-0.5,2.6-1.9,5.1-3.9,6.9c-0.5-0.6-1-1.1-1.6-1.5
						c3.5-3,3.9-7.4,3.9-11V106h14.1L797.5,122.8z M795.3,116.8v-3.3h-9.7c0,1.1-0.1,2.2-0.2,3.3H795.3z M785.6,108.1v3.3h9.7v-3.3
						H785.6z"/>
					<path id="a2bf6c75-9a9b-44eb-9392-4a189741f68f" class="st1" d="M810.2,119.9c-0.4-0.7-1.3-1.8-2.1-2.8v8.6h-2.2v-8.3
						c-0.8,0.9-1.6,1.7-2.5,2.4c-0.3-0.7-0.6-1.4-1.1-2.1c2.4-1.9,4.4-4.3,5.8-7h-5.3v-1.9h4.1c-0.5-1-1.2-2.1-1.9-3l1.6-0.9
						c0.8,0.9,1.4,1.9,2,3l-1.5,1h2.1l0.3-0.1l1.2,0.8c-0.7,1.8-1.6,3.4-2.7,5v0.2l0.6,0.6c0.6-0.7,1.2-1.4,1.7-2.2l1.4,1.1
						c-0.8,0.7-1.5,1.4-2.2,2c0.8,0.8,1.5,1.6,1.8,1.9L810.2,119.9z M822.3,106.8c0,0,0,0.8,0,1.1c-0.3,11.4-0.5,15.3-1.4,16.5
						c-0.4,0.6-1.1,1.1-1.8,1.1c-1.1,0.1-2.2,0.1-3.2,0c-0.1-0.7-0.3-1.4-0.6-2c1.3,0.1,2.4,0.1,3,0.1c0.3,0.1,0.7-0.1,0.9-0.4
						c0.7-0.8,1-4.5,1.2-14.4h-3.8c-0.3,7.9-1.4,13.3-5.5,16.9c-0.5-0.6-1-1.1-1.7-1.6c3.9-3,4.8-8.1,5-15.2H811v-2L822.3,106.8z"/>
				</g>
				<g id="ba621dc9-5ce0-4387-b99c-521c24013894">
					<path id="e649818d-562b-4128-ba15-d8e897a9b972" class="st4" d="M87.7,195.2c1.5,4,4.9,7,9,8.1c-0.6,0.6-1,1.2-1.4,1.9
						c-4.1-1.3-7.4-4.4-9.1-8.4c-1.1,3.2-3.6,6.2-9,8.4c-0.4-0.7-0.8-1.3-1.4-1.8c5.5-2.1,7.7-5.3,8.6-8.3h-7.9v-2.1h8.3
						c0.1-0.7,0.1-1.5,0.1-2.2v-2.5h-7.7v-2.2H95v2.2h-7.9v2.5c0,0.7,0,1.4-0.1,2.2h8.9v2.1L87.7,195.2z"/>
					<path id="ae75ca09-75a3-4017-952e-16b14be8475e" class="st4" d="M109.4,188.4v3.8l0.4-0.4c2.7,1.3,5.4,2.8,7.9,4.6l-1.5,1.9
						c-2.1-1.6-4.4-3.1-6.7-4.3v11.4h-2.2v-16.9h-8.4v-2.1h19.9v2.1L109.4,188.4z"/>
					<path id="aa3ce97a-bd55-4164-81da-36b637a58c0f" class="st4" d="M127.7,198.3c0-0.3-0.1-0.7-0.2-1.1c-4.7,0.7-5.4,0.9-5.8,1.1
						c-0.2-0.6-0.4-1.3-0.6-1.9c0.5-0.1,1-0.6,1.7-1.5c0.6-0.7,1.1-1.5,1.6-2.3c-1,0.1-1.9,0.2-2.8,0.5c-0.2-0.6-0.4-1.2-0.6-1.8
						c0.4-0.1,0.8-0.5,1.2-1.2c1.2-1.7,2.1-3.6,2.8-5.6l1.9,0.8c-0.9,2-2,3.9-3.3,5.7l2-0.2c0.6-0.9,1.1-1.9,1.6-2.9l1.8,1
						c-1.4,2.5-3,4.8-4.8,7l3-0.4c-0.2-0.7-0.4-1.4-0.7-2l1.6-0.4c0.6,1.5,1.1,3,1.5,4.6L127.7,198.3z M123.7,199.4
						c-0.2,1.9-0.6,3.8-1.1,5.6c-0.5-0.3-1.1-0.5-1.7-0.6c0.5-1.7,0.9-3.5,1-5.3L123.7,199.4z M125.9,199.1c0.3,1.5,0.5,3.1,0.6,4.7
						l-1.6,0.3c-0.1-1.6-0.3-3.2-0.6-4.7L125.9,199.1z M128,198.5c0.5,1.2,0.8,2.4,1.1,3.6l-1.5,0.5c-0.3-1.3-0.6-2.5-1-3.7
						L128,198.5z M141.6,202.9v1.9h-12.8v-1.9h5.4v-3.8h-4.3v-1.9h10.8v1.9h-4.4v3.8H141.6z M131.8,196.6c-0.7-1.6-1.6-3.1-2.7-4.4
						c0.9-1.3,1.7-2.7,2.4-4.1l1.8,0.4c-0.6,1.2-1.5,2.5-2.2,3.6c0.9,1.2,1.7,2.4,2.4,3.8L131.8,196.6z M141.4,187.5h-11.9v-1.9
						h11.9V187.5z M137.1,188.5c-0.7,1.2-1.4,2.4-2.2,3.6c0.9,1.1,1.8,2.4,2.5,3.7l-1.7,0.8c-0.8-1.6-1.7-3-2.8-4.4
						c0.9-1.3,1.7-2.7,2.4-4.1L137.1,188.5z M139.6,196.6c-0.8-1.6-1.8-3.1-3-4.4c0.9-1.3,1.8-2.7,2.5-4.1l1.8,0.5
						c-0.7,1.1-1.5,2.5-2.3,3.6c1,1.1,1.9,2.4,2.6,3.7L139.6,196.6z"/>
					<path id="bcdd1a5b-19e6-4485-b973-cb3c174ab55c" class="st4" d="M146.8,194.9c-1-1-2.2-1.8-3.4-2.6l1-1.2
						c1.2,0.7,2.4,1.5,3.5,2.4L146.8,194.9z M143.7,204c0.8-1.7,2-4.6,2.9-7l1.4,1c-0.8,2.3-1.8,5-2.7,7L143.7,204z M147.3,189
						c-1-1.1-2.1-2.1-3.2-3l1.1-1.2c1.2,0.8,2.3,1.8,3.3,2.9L147.3,189z M159.9,195.8h2v9.6h-2V202h-7.8c-0.4,1.4-1.3,2.5-2.4,3.4
						c-0.5-0.4-1-0.8-1.6-1.1c1.7-1.3,2.7-3.4,2.5-5.5v-2.9h2v1.4h7.3L159.9,195.8z M151.7,191.4c-0.2,1.8-1.1,3.4-2.6,4.4
						c-0.2-0.4-0.5-0.8-0.9-1.1c1.1-0.8,1.9-2,2-3.4h-1.1V190h5.1v0.6c-0.1,2.8-0.1,3.9-0.5,4.3c-0.2,0.3-0.6,0.5-0.9,0.5
						c-0.4,0-0.8,0-1.2,0c0-0.5-0.2-0.9-0.4-1.4c0.3,0,0.7,0.1,1,0.1c0.2,0,0.3-0.1,0.4-0.2c0.2-0.8,0.3-1.7,0.2-2.6L151.7,191.4z
						 M154.9,188.4H149v-1.7h6.2c-0.1-0.7-0.3-1.3-0.5-2l1.9-0.2c0.3,0.7,0.5,1.5,0.6,2.3h6.6v1.7h-6.1l1.3,0.4
						c-0.7,0.7-1.5,1.5-2.2,2.1l0,0v4.7h-1.6V191l0,0l0,0c0.8-0.8,1.5-1.6,2.2-2.6L154.9,188.4c0.4,0.6,0.8,1.2,1,1.8l-1.2,0.6
						c-0.2-0.7-0.5-1.3-0.9-1.9L154.9,188.4z M159.9,200.3v-1.6h-7.3c0,0.5,0,1-0.1,1.6H159.9z M163.3,190.2
						c-0.4,0.2-0.9,0.4-1.4,0.6c0.3,1.4,1.1,2.7,2.2,3.7c-0.4,0.3-0.7,0.7-0.9,1.1c-1.2-1.2-2-2.7-2.3-4.4l-1.1,0.3v2.5l1.5-0.4
						c0,0.3,0.2,0.9,0.2,1.1c-1,0.3-2,0.7-2.9,1.1l0,0c-0.2-0.5-0.4-0.9-0.6-1.3c0.2-0.2,0.5-0.5,0.5-1.4v-2.5l0,0l0,0
						c1.2-0.3,2.5-0.8,3.6-1.4L163.3,190.2z"/>
					<path id="b11cd61a-43f7-44eb-b88e-a16e50f14ef9" class="st4" d="M173.2,190h-7v-1.7h3.5c-0.5-1-1-2-1.6-3l1.6-0.8
						c0.7,1,1.2,2,1.7,3l-1.7,0.9h3.5V190z M172.7,204h-4.2v1h-1.7v-7.6h5.9L172.7,204z M172.6,193h-5.6v-1.6h5.6V193z M166.9,194.4
						h5.6v1.6h-5.6V194.4z M168.5,199.1v3.2h2.4v-3.2L168.5,199.1z M181.3,185.6c-0.1,0.2-0.3,0.5-0.4,0.7c1.6,2.1,3.7,3.8,6.2,4.7
						c-0.6,0.6-1.1,1.2-1.5,1.9c-0.7-0.3-1.4-0.7-2-1.2v0.9H176v-1c-0.7,0.6-1.5,1.1-2.2,1.5c-0.3-0.7-0.7-1.4-1.2-2
						c3-1.5,5.5-3.8,7.2-6.7L181.3,185.6z M185.5,203.2c0,0.8-0.1,1.3-0.6,1.6c-0.6,0.3-1.3,0.4-2,0.3c-0.1-0.6-0.2-1.2-0.4-1.7
						c0.5,0,0.9,0,1.1,0s0.2-0.1,0.2-0.2v-2.8h-1.7v4.4h-1.5v-4.4H179v4.4h-1.5v-4.4h-1.6v5h-1.7v-11.1h11.3V203.2z M177.5,198.7
						V196h-1.6v2.7H177.5z M182.4,190.8c-1-0.9-1.9-1.8-2.6-2.9c-0.8,1.1-1.8,2-2.8,2.9H182.4z M180.6,198.7V196H179v2.7H180.6z
						 M183.8,198.7V196h-1.7v2.7H183.8z"/>
					<path id="ebcf5c5e-8526-4cfd-9e0b-8f0d41ce4760" class="st4" d="M195.8,199.9c-2.2,0.9-4.6,1.9-6.4,2.6l-0.7-2.1
						c0.8-0.2,1.7-0.6,2.7-0.9V192H189v-2h2.3v-5.2h2v5.2h1.8v2h-1.8v6.7l2.1-0.8L195.8,199.9z M209.2,203.3v1.6h-15.1v-1.6H209.2z
						 M209.1,188.1h-14.4v-1.6h6.1c-0.3-0.5-0.6-1-0.9-1.4l1.7-0.8c0.6,0.7,1.1,1.4,1.4,2.2h6.1L209.1,188.1z M208.1,196h-12.3v-7.1
						h12.3V196z M196.4,202.4v-5.6h10.8v5.6H196.4z M206.3,190.2h-8.8v4.5h8.8L206.3,190.2z M198.4,199h6.9v-1h-6.9V199z
						 M198.4,201.2h6.9v-1h-6.9V201.2z M204.9,193.9h-6.1V191h6.1V193.9z M203.5,192h-3.3v0.9h3.3V192z"/>
					<path id="fecca3e3-28b3-4ba7-b605-2e04634a68de" class="st4" d="M216.7,195.3c0-5.4,3.3-8.7,7.5-8.7c1.8,0,3.5,0.8,4.7,2.1
						l-1.4,1.7c-0.8-0.9-2-1.5-3.2-1.5c-2.9,0-4.9,2.4-4.9,6.3s1.9,6.4,4.8,6.4c1.4,0,2.8-0.7,3.7-1.8l1.4,1.6
						c-1.3,1.5-3.2,2.4-5.2,2.4C219.9,203.8,216.7,200.7,216.7,195.3z"/>
					<path id="a066d9f0-9b24-40c2-ac62-424511c2f770" class="st4" d="M230.4,186.9h2.7l1.6,8.6l0.9,5.3h0.1c0.4-1.8,0.8-3.6,1.1-5.3
						l2.1-8.6h2.3l2.2,8.6c0.4,1.7,0.8,3.5,1.1,5.3h0.1c0.3-1.8,0.6-3.6,0.8-5.3l1.6-8.6h2.5l-3.2,16.6H243l-2.2-9.2
						c-0.3-1.3-0.5-2.6-0.8-3.8h-0.1c-0.2,1.3-0.5,2.5-0.8,3.8l-2.2,9.2h-3.2L230.4,186.9z"/>
					<path id="aa61d94d-e11c-42ab-be1c-dce8d5b1b791" class="st4" d="M252.3,186.9h9.8v2.2h-7.2v4.6h6.1v2.2h-6.1v5.4h7.5v2.2h-10.1
						V186.9z"/>
					<path id="b50ac832-186e-4e32-964a-9a993c5a1d8e" class="st4" d="M265.8,186.9h9.9v2.2h-7.2v5.1h6.1v2.2h-6.1v7.2h-2.6V186.9z"
						/>
					<path id="f993f09e-c98d-4e71-8c06-272835086726" class="st4" d="M295.2,198.6c-1.2,1.6-2.8,3-4.6,3.8c2.4,0.5,4.9,0.8,7.3,0.9
						c-0.4,0.5-0.7,1.1-1,1.7c-3-0.2-6-0.7-8.8-1.6c-3,1-6,1.6-9.1,1.8c-0.2-0.6-0.4-1.1-0.8-1.6c2.5-0.2,5-0.5,7.4-1.1
						c-1.1-0.5-2.1-1.1-3-1.9c-1,0.6-2,1.2-3,1.7c-0.4-0.5-0.8-1-1.3-1.4c1-0.4,2-0.9,2.9-1.5c-0.4-0.4-0.8-0.9-1.2-1.4l1.5-0.6
						c0.3,0.4,0.6,0.8,0.9,1.1c0.6-0.5,1.1-1.1,1.6-1.7h-3.9v-8.4h5.9c0.1-0.4,0.2-0.7,0.2-1.1h-8.2v-1.7h19v1.7h-8.6
						c-0.1,0.4-0.3,0.8-0.4,1.1h6.9v8.4h-8.6c-0.3,0.4-0.5,0.7-0.8,1.1h7.9l0.4-0.1L295.2,198.6z M282.3,190.8h10.8v-1.1h-10.8
						V190.8z M282.3,193.2h10.8V192h-10.8V193.2z M282.3,195.6h10.8v-1.1h-10.8V195.6z M283.9,199.7c1.3,0.9,2.7,1.5,4.2,2
						c1.5-0.5,2.8-1.3,4-2.4h-7.8L283.9,199.7z"/>
					<path id="ac8327e4-1e55-47ef-b2c7-62364eb45314" class="st4" d="M309.2,191.4c-2.3,2.2-5,3.9-8,5c-0.4-0.6-0.8-1.1-1.3-1.6
						c2.6-0.8,5-2.1,7.2-3.8h-6.6v-1.8h8.8v-1.9c-2.3,0.2-4.7,0.3-6.9,0.3c-0.1-0.6-0.2-1.1-0.5-1.7c4.8,0,9.6-0.5,14.4-1.4l1.7,1.5
						c-2.2,0.5-4.4,0.8-6.7,1v2h8.9v1.8H314c2.3,1.3,4.5,2.7,6.6,4.4l-1.4,1.5c-2.5-2-5.2-3.8-8-5.4v3.1h-2.1L309.2,191.4z
						 M311.4,199.1h8.9v1.8h-8.9v2.2c0,1.1-0.3,1.6-1.1,1.9c-1.4,0.3-2.8,0.4-4.2,0.3c-0.2-0.6-0.4-1.3-0.7-1.8c1.5,0.1,3,0.1,3.4,0
						s0.5-0.1,0.5-0.4v-2.2h-8.9v-1.8h8.9v-1.3c0.9-0.3,1.8-0.7,2.6-1.1h-7.7V195h10.3l0.5-0.1l1.3,1.1c-1.5,1.1-3.1,1.9-4.9,2.6
						L311.4,199.1z"/>
					<path id="b02a2076-53f6-40d1-a082-02d5b1b897c7" class="st4" d="M329.7,198.2c-2.3,1.1-4.7,2.4-6.6,3.3l-0.8-2.1
						c0.8-0.3,1.8-0.7,2.9-1.2v-6.7h-2.5v-2h2.5v-4.6h1.9v4.6h2.3v2h-2.3v5.9l2.1-0.9L329.7,198.2z M334.1,195.5
						c-0.2,0.5-0.5,0.9-0.8,1.4h9.4c0,0,0,0.5,0,0.8c-0.4,4.5-0.7,6.3-1.3,7c-0.4,0.4-0.8,0.6-1.4,0.6c-0.8,0-1.5,0-2.3,0
						c0-0.6-0.2-1.2-0.5-1.7c0.6,0.1,1.2,0.1,1.8,0.1c0.3,0,0.5,0,0.7-0.2c0.3-0.4,0.6-1.7,0.9-4.9h-1.4c-0.9,2.6-2.4,5-4.5,6.9
						c-0.4-0.5-1-0.9-1.5-1.2c1.9-1.5,3.4-3.4,4.3-5.7h-1.8c-1.3,2.4-3.2,4.4-5.4,5.9c-0.4-0.5-0.9-0.9-1.4-1.3
						c2-1.1,3.6-2.7,4.9-4.6h-1.9c-0.8,0.9-1.8,1.7-2.8,2.4c-0.4-0.5-0.9-0.9-1.4-1.3c1.7-1,3.2-2.4,4.3-4.1h-2.9v-1.8h14.1v1.8
						L334.1,195.5z M341.7,192.6h-10.4v-7.4h10.4V192.6z M339.7,186.7h-6.6v1.5h6.6V186.7z M339.7,189.6h-6.6v1.5h6.6V189.6z"/>
				</g>
				<g id="b23fc367-f9c7-4d93-abe8-28516b31be5c">
					<path id="b798695b-833b-4040-b84a-7ffdb60e8e71" class="st1" d="M167,271c0-5.4,3.3-8.7,7.5-8.7c1.8,0,3.5,0.8,4.7,2.1
						l-1.4,1.7c-0.8-0.9-2-1.5-3.3-1.5c-2.9,0-4.9,2.4-4.9,6.3s1.9,6.4,4.8,6.4c1.4,0,2.8-0.7,3.7-1.8l1.4,1.6
						c-1.3,1.5-3.2,2.4-5.2,2.4C170.2,279.5,167,276.4,167,271z"/>
					<path id="ea3c72a2-5c87-4d6e-8cf2-b6ca9e2e3d1a" class="st1" d="M180.7,277.1l1.5-1.8c1.2,1.2,2.7,1.9,4.4,2c2,0,3.1-1,3.1-2.4
						s-1.1-2-2.7-2.7l-2.3-1c-1.6-0.7-3.4-1.9-3.4-4.4c0-2.6,2.3-4.6,5.5-4.6c1.9,0,3.7,0.8,5,2.1l-1.4,1.6c-1-0.9-2.3-1.5-3.6-1.5
						c-1.7,0-2.8,0.8-2.8,2.1s1.3,2,2.7,2.5l2.3,1c2,0.8,3.4,2,3.4,4.5c0,2.7-2.2,4.8-5.9,4.8C184.3,279.6,182.2,278.7,180.7,277.1z
						"/>
					<path id="abaef75a-31a0-47aa-8ad7-dcd278d856ce" class="st1" d="M204.6,279.3l-3.8-6.7h-2.7v6.7h-2.6v-16.6h5.4
						c3.4,0,6,1.2,6,4.8c0.1,2.2-1.3,4.2-3.5,4.8l4.1,7L204.6,279.3z M198.2,270.4h2.5c2.4,0,3.7-1,3.7-3s-1.3-2.7-3.7-2.7h-2.5
						V270.4z"/>
					<path id="f78c6287-0154-480e-8673-c329d539bfd9" class="st1" d="M227.3,279c0.6,0,0.8-0.4,0.8-2.7c0.5,0.3,1.1,0.6,1.7,0.7
						c-0.2,2.9-0.7,3.7-2.3,3.7h-2.7c-2,0-2.5-0.5-2.5-2.4V276c-1.3,2.4-3.5,4.3-6.1,5.1c-0.3-0.6-0.7-1.1-1.2-1.6
						c3.9-1.4,5.6-3.7,6.4-6.5h-4.1v-4.9l-0.1,0.1c-0.3-0.5-0.7-0.9-1.2-1.3v9.9h-4.3v1.7h-1.8v-16.5h6.1v4.6c1.8-1.7,3.2-3.8,4-6.1
						l2.1,0.3c-0.2,0.5-0.4,1-0.6,1.5h4.2l0.4-0.1l1.6,0.5c-0.7,1.2-1.5,2.3-2.3,3.4h3.3v6.9h-4.3v5.3c0,0.7,0.1,0.7,0.8,0.7
						L227.3,279z M211.7,263.8v4.5h2.5v-4.5H211.7z M214.2,274.9v-4.7h-2.5v4.7H214.2z M220.6,263.9c-0.4,0.7-0.9,1.5-1.4,2.1h3.8
						c0.6-0.7,1.1-1.4,1.6-2.1H220.6z M221.8,271.3c0.2-1.2,0.3-2.4,0.3-3.6h-2.9v3.6H221.8z M226.7,267.7h-2.6
						c-0.1,1.2-0.2,2.4-0.3,3.6h2.9V267.7z"/>
					<path id="be6fd311-6ad4-49be-8c9b-128676855b2f" class="st1" d="M247,275.5c-0.7,0.9-1.5,1.7-2.4,2.3c2.7,0.6,5.2,1.3,7,1.9
						l-1.8,1.3c-2.4-0.8-4.8-1.5-7.3-2c-3.1,1.2-6.3,1.9-9.6,2c-0.2-0.6-0.4-1.2-0.8-1.7c2.4-0.1,4.8-0.5,7.2-1.1
						c-1.4-0.3-3-0.6-4.5-0.9c0.6-0.6,1.2-1.2,1.8-1.9H232v-1.6h6c0.5-0.6,0.9-1.3,1.4-2l2,0.6c-0.3,0.5-0.7,1-1,1.5h5.3
						c0.2-0.3,0.4-0.7,0.5-1.1l1.9,0.6c-0.1,0.2-0.2,0.3-0.2,0.5h3.9v1.6H247z M234.4,266.4h-2v-4.3h8.6c-0.2-0.5-0.4-1-0.7-1.4
						l2.1-0.4c0.4,0.6,0.7,1.2,1,1.8h8.3v4.3h-2.1v-2.6h-15.2V266.4z M248.2,271.9h-12.4v-6.8h12.4V271.9z M246.2,266.5h-8.4v1.3
						h8.4V266.5z M246.2,269.2h-8.4v1.4h8.4V269.2z M239.2,275.6c-0.3,0.4-0.6,0.7-0.9,1c1.3,0.2,2.6,0.5,3.8,0.7
						c0.9-0.4,1.7-1,2.4-1.8L239.2,275.6z"/>
				</g>
				<g id="ef2a3f0c-5f9d-4c91-80f7-f4094c5a2aea">
					<path id="a2b9186a-4167-4b4b-a3f0-218e074d10cb" class="st1" d="M650,276.2c0.7,0.8,1.7,1.2,2.7,1.2c2,0,3.8-1.6,3.9-6.4
						c-0.9,1.1-2.2,1.9-3.7,1.9c-2.8,0-4.7-1.7-4.7-5.2c0-3.3,2.3-5.5,4.9-5.5c3.2,0,5.8,2.6,5.8,8.1c0,6.5-3,9.2-6.2,9.2
						c-1.6,0-3.1-0.6-4.2-1.8L650,276.2z M656.6,269.1c-0.2-3.3-1.5-4.8-3.3-4.8c-1.4,0-2.5,1.3-2.5,3.5s1,3.3,2.7,3.3
						C654.8,271,656,270.3,656.6,269.1L656.6,269.1z"/>
					<path id="e180a3fd-6017-43f2-a54e-ebf763faeae7" class="st1" d="M678.9,278.2c0,1.4-0.4,2-1.3,2.3c-1.6,0.4-3.2,0.6-4.8,0.4
						c-0.2-0.8-0.5-1.5-0.9-2.2c1.8,0.1,3.6,0.1,4.1,0s0.7-0.2,0.7-0.6v-4h-10.2c-0.5,2.6-1.9,5.1-3.9,6.9c-0.5-0.6-1-1.1-1.6-1.5
						c3.5-3,3.9-7.5,3.9-11v-7.1h14.1L678.9,278.2z M676.7,272.2v-3.4H667c0,1.1-0.1,2.2-0.2,3.4H676.7z M667,263.5v3.4h9.7v-3.3
						L667,263.5z"/>
				</g>
				<g id="b65dcd0d-bae6-4a91-aa16-55b7ab2a525f">
					<path id="ec615ec9-277c-4062-a860-fdd528302e76" class="st4" d="M57.8,346.6c1.5,4,4.9,7,9,8.1c-0.6,0.6-1,1.2-1.4,1.9
						c-4.1-1.3-7.4-4.4-9-8.4c-1.1,3.2-3.6,6.2-9,8.4c-0.4-0.7-0.8-1.3-1.4-1.8c5.5-2.1,7.7-5.3,8.6-8.3h-7.9v-2.1h8.3
						c0.1-0.7,0.1-1.5,0.1-2.2v-2.5h-7.6v-2.2h17.7v2.2h-7.9v2.5c0,0.7,0,1.4-0.1,2.2H66v2.1L57.8,346.6z"/>
					<path id="e47a048b-7a58-4467-88fe-a51f27fde05f" class="st4" d="M79.5,339.8v3.8l0.4-0.5c2.7,1.3,5.4,2.8,7.9,4.6l-1.5,1.9
						c-2.1-1.6-4.4-3.1-6.7-4.3v11.4h-2.2v-16.9h-8.4v-2.1h19.9v2.1L79.5,339.8z"/>
					<path id="b8f03ad1-7ccd-4b06-9767-7420b6bbeed9" class="st4" d="M99.1,345.5c-0.8,4-3.1,7.5-6.4,9.9c-0.5-0.6-1.1-1.1-1.7-1.6
						c2.5-1.6,4.4-4,5.4-6.8h-4.9v-2h5.8l0.4-0.1L99.1,345.5z M111.2,343.6c-1.8,1.7-3.7,3.3-5.7,4.7c1.6,2.4,3.9,4.2,6.5,5.2
						c-0.6,0.6-1.1,1.2-1.5,1.9c-3.5-1.6-6.2-4.4-7.8-7.9v6.7c0,1.2-0.3,1.8-1.1,2.1c-1.3,0.4-2.7,0.5-4,0.4
						c-0.1-0.7-0.4-1.4-0.7-2.1c1.2,0,2.6,0,3,0s0.5-0.1,0.5-0.5v-11.5h-5.9v-2h8.2v1.8c0.4,1.5,1,3,1.8,4.3
						c1.7-1.3,3.4-2.8,4.8-4.5L111.2,343.6z M104.6,340.9c-2.6-1.3-5.4-2.4-8.2-3.1l1-1.7c2.9,0.6,5.6,1.6,8.3,2.8L104.6,340.9z"/>
					<path id="bfc7e6e5-20aa-442d-be14-db19375adf57" class="st4" d="M116.2,350.8c-0.2,2-0.5,3.9-1.1,5.8c-0.5-0.2-1-0.4-1.6-0.5
						c0.5-1.8,0.9-3.7,1-5.5L116.2,350.8z M119.9,349.9c0-0.4-0.1-0.8-0.2-1.2c-4.2,0.6-4.9,0.8-5.3,1c-0.1-0.6-0.3-1.2-0.6-1.7
						c0.5-0.1,0.9-0.7,1.6-1.5c0.6-0.7,1.1-1.5,1.6-2.3c-0.9,0-1.9,0.2-2.8,0.5c-0.2-0.6-0.4-1.2-0.6-1.7c0.4-0.1,0.8-0.5,1.2-1.2
						c1.1-1.8,2-3.7,2.6-5.7l1.8,0.7c-0.8,2-1.8,4-3,5.8l1.9-0.2c0.5-1,1.1-2,1.5-3l1.6,1c-1.3,2.5-2.8,4.9-4.6,7.2l2.8-0.4
						c-0.2-0.7-0.4-1.4-0.6-2l1.4-0.4c0.5,1.5,0.9,3.1,1.2,4.7L119.9,349.9z M118.3,350.5c0.3,1.7,0.5,3.4,0.6,5.2l-1.6,0.3
						c-0.1-1.7-0.2-3.5-0.5-5.2L118.3,350.5z M120.3,349.9c0.5,1.3,0.9,2.7,1.2,4.1l-1.4,0.5c-0.3-1.4-0.7-2.8-1.1-4.2L120.3,349.9z
						 M130,353.5c1.6,0.6,3.3,1.2,4.4,1.7l-0.9,1.5c-1.2-0.6-3.1-1.4-4.8-2l0.7-1.2h-3.7l1.2,1.1c-1.7,0.8-3.9,1.6-5.5,2.2
						c-0.2-0.5-0.5-1-0.8-1.5c1.6-0.5,3.1-1.2,4.6-1.9H122v-6.6h11.2v6.7L130,353.5z M126.7,338.5h-5.6v-1.4h5.6V336h2.1v1.1h5.3
						v1.4h-5.3v1h4.5v1.4H122v-1.4h4.7V338.5z M121.2,341.7h12.7v4.3h-12.7V341.7z M123,344.7h2.1V343H123V344.7z M123.8,348.9h7.4
						V348h-7.4V348.9z M123.8,350.6h7.4v-0.8h-7.4V350.6z M123.8,352.4h7.4v-0.9h-7.4V352.4z M128.6,344.7V343h-2v1.6H128.6z
						 M132.1,343h-1.8v1.6h1.8V343z"/>
					<path id="bb58881f-72b2-40ae-b3d9-15e1c5954307" class="st4" d="M156.8,351.8h-7.9v5h-2.2v-5h-10.3v-2h3.6v-6h6.6v-3.1h-5.2
						c-0.9,1.6-2,3-3.2,4.3c-0.6-0.5-1.1-1-1.8-1.4c2.3-2.1,4-4.7,4.9-7.7l2.1,0.7c-0.3,0.7-0.6,1.4-0.9,2.1h13.1v2h-6.8v3.1h6.3v2
						h-6.3v4h7.9L156.8,351.8z M146.7,349.8v-4h-4.5v4H146.7z"/>
					<path id="bc128c50-5b64-468e-b931-e5ed01e4efed" class="st4" d="M162.8,344.1c0,3.7-0.3,9-2.1,12.6c-0.6-0.4-1.2-0.7-1.9-1
						c1.8-3.4,2-8.2,2-11.6v-6h8.5c-0.2-0.6-0.5-1.2-0.8-1.7l2.1-0.5c0.4,0.7,0.7,1.5,1,2.2h7.6v1.9h-16.5V344.1z M177.7,349.5
						c-1,1.8-2.5,3.3-4.4,4.3c2,0.6,4.2,1,6.3,1.1c-0.5,0.6-0.9,1.2-1.2,1.8c-2.6-0.2-5.1-0.9-7.5-1.8c-2.4,0.9-5,1.4-7.6,1.7
						c-0.2-0.6-0.5-1.2-0.9-1.8c2.1-0.1,4.2-0.5,6.2-1.1c-1.3-0.7-2.4-1.7-3.2-2.9l0.9-0.3h-2.7V349H176l0.4-0.1L177.7,349.5z
						 M166.7,347.8v-3.6h-3.3v-1.7h3.3v-1.8h2v1.7h4.8v-1.7h2v1.7h3.4v1.7h-3.4v3.6L166.7,347.8z M167.5,350.5c1,1,2.2,1.8,3.5,2.4
						c1.3-0.6,2.5-1.4,3.6-2.4H167.5z M168.6,344.1v2h4.9v-2H168.6z"/>
					<path id="bb456294-07d7-4256-a790-23918ed6550f" class="st4" d="M200,339.5v17.2h-2.2v-1.5h-12v1.6h-2.1v-17.3h5.6
						c0.5-1.2,0.8-2.3,1.1-3.5l2.7,0.4c-0.4,1.1-0.9,2.2-1.4,3.1H200z M185.7,341.5v4.6h12v-4.6H185.7z M197.7,353v-4.8h-12v4.8
						H197.7z"/>
					<path id="e5b06214-a321-419a-b3a0-a105cab2b68f" class="st4" d="M222.6,345.4c-0.9,2.8-2.6,5.2-4.8,7.1c2.2,1.2,4.5,2,7,2.3
						c-0.5,0.6-1,1.3-1.3,2c-2.7-0.5-5.2-1.5-7.5-3c-2.2,1.3-4.7,2.3-7.2,2.9c-0.3-0.7-0.7-1.4-1.2-1.9c2.3-0.4,4.6-1.2,6.7-2.3
						c-1.7-1.6-3.1-3.6-4.1-5.8h-1.7c-0.2,3.3-0.8,7.2-2.9,9.9c-0.5-0.5-1.1-1-1.7-1.4c2.4-3.1,2.6-7.6,2.6-10.8v-5.5h7.6v-3h2.1v3
						h6l0.4-0.1l1.6,0.4c-0.5,1.7-1.2,3.3-2,4.9l-1.9-0.5c0.4-0.8,0.8-1.7,1.1-2.6h-5.1v3.8h4.7l0.4-0.1L222.6,345.4z M208.5,344.8
						h5.5V341h-5.5V344.8z M212.3,346.8c0.9,1.8,2.2,3.3,3.7,4.6c1.6-1.2,2.9-2.8,3.8-4.6H212.3z"/>
					<path id="aa03ed0d-c457-4665-9a68-fd98e85950f3" class="st4" d="M246.9,347.3v1.5h-20v-1.5h8.9v-1.1h-7.3v-1.4h7.3v-1H229v-1.3
						h6.8v-1.1H227v-1.5h8.8v-1.1h-6.5v-1.3h6.5V336h2.1v1.5h6.3v2.4h2.7v1.5h-2.7v2.4h-6.3v1h7.4v1.4h-7.4v1.1L246.9,347.3z
						 M229.8,349.7h14.6v7h-2.1v-0.6h-10.4v0.7h-2.1V349.7z M231.8,351.1v1.1h10.4v-1.1H231.8z M242.2,354.7v-1.2h-10.4v1.2
						L242.2,354.7z M237.9,339.9h4.3v-1.1h-4.3V339.9z M237.9,342.5h4.3v-1.1h-4.3V342.5z"/>
					<path id="b5658022-0aae-4417-9cef-c2963cf17ffc" class="st4" d="M253.7,347.5h-4.6v-1.9h4.6v-4.9h2v4.9h4.6v1.9h-4.6v4.9h-2
						V347.5z"/>
					<path id="b8d9b349-4346-4637-be80-0fff014f3ef0" class="st4" d="M276.1,338.3c2.2,2,4.2,4.2,5.9,6.5l-1.8,1.3
						c-0.4-0.6-0.8-1.3-1.3-1.9c-12.4,0.6-13.9,0.7-14.9,1.1c-0.2-0.7-0.4-1.4-0.7-2c0.7-0.3,1.4-0.7,1.9-1.3c1.9-1.9,3.6-4,5-6.3
						l2.1,0.9c-1.6,2.2-3.4,4.3-5.4,6.2l10.5-0.4c-1-1.1-2-2.2-3-3.1L276.1,338.3z M265.1,347.1h14.6v9.6h-2.2v-1.2h-10.3v1.2h-2.1
						L265.1,347.1z M267.2,349.1v4.4h10.3v-4.4L267.2,349.1z"/>
					<path id="acf96fef-cb2e-4184-8ec7-1968403bbed6" class="st4" d="M291.8,349.8c-0.5-0.8-1-1.7-1.6-2.4v9.3h-2v-9
						c-0.7,1.8-1.7,3.5-2.8,5.1c-0.3-0.7-0.6-1.3-1-1.9c1.6-2,2.8-4.3,3.7-6.8H285v-2h3.2v-3c-1,0.2-1.9,0.3-2.8,0.4
						c-0.1-0.6-0.3-1.1-0.6-1.6c2.3-0.3,4.6-0.9,6.8-1.6l1.4,1.6c-0.9,0.3-1.8,0.6-2.8,0.8v3.4h2.3v-0.4h5.3v-1h-4.2v-1.2h4.1v-1
						h-4.6v-1.4h4.6V336h2.1v1.1h4.9v1.4h-4.9v1h4.4v1.3h-4.4v1h5.4v1.4h-12.7v1h-2.4v1.1c0.7,0.7,2.5,2.4,2.9,2.9L291.8,349.8z
						 M304.1,353.1h-7.5l1.5,1c-1.6,1.2-3.4,2.1-5.4,2.7c-0.4-0.5-0.8-0.9-1.3-1.4c1.8-0.5,3.4-1.3,4.9-2.4h-2.4v-9h10.2V353.1z
						 M302.1,345.5h-6.3v1.2h6.3V345.5z M302.1,348h-6.3v1.2h6.3V348z M302.1,350.5h-6.3v1.2h6.3V350.5z M301.2,353.1
						c1.5,0.9,3.2,1.9,4.3,2.6l-1.8,1c-0.9-0.7-2.5-1.8-3.8-2.6L301.2,353.1z"/>
					<path id="a193787e-f75b-43fb-81f6-83e297f87fcc" class="st4" d="M309.9,344.4h-2v-4.9h8.6v-1.2H309v-1.5h17.2v1.5h-7.7v1.2h8.7
						v4.9h-2.1V341h-6.6v4.9h-2v-4.9H310L309.9,344.4z M324.7,354.8c1.1,0,1.4-0.4,1.5-2.5c0.5,0.3,1.1,0.6,1.8,0.7
						c-0.3,2.7-0.9,3.4-3.1,3.4h-4.9c-2.8,0-3.5-0.5-3.5-2.6v-0.4h-4.4v1.1h-2v-8h15.3v6.9h-6.9v0.4c0,0.8,0.3,1,1.7,1L324.7,354.8z
						 M310.1,344.5c1.4-0.2,3.3-0.5,5.4-0.8l0.1,1.2c-1.7,0.4-3.4,0.8-4.9,1L310.1,344.5z M311.3,341.2c1.4,0.2,2.8,0.6,4.1,1.1
						l-0.6,1.2c-1.4-0.5-2.8-0.9-4.2-1.2L311.3,341.2z M311.9,348.1v1.3h4.4v-1.3H311.9z M316.4,352v-1.3h-4.4v1.3H316.4z
						 M323.2,348.1h-4.8v1.3h4.8V348.1z M323.2,352v-1.3h-4.8v1.3H323.2z M324.5,346c-1.7-0.5-3.5-1-5.2-1.2l0.5-1.2
						c1.8,0.2,3.5,0.6,5.2,1.1L324.5,346z M324.5,342.2c-1.4,0.5-2.8,0.9-4.2,1.2l-0.7-1c1.2-0.3,3-0.9,4.1-1.3L324.5,342.2z"/>
					<path id="a906bda0-807e-4cb0-83d8-2025a952853a" class="st4" d="M348.5,345.7c-0.1-0.3-0.3-0.7-0.5-1c-2.3,0.2-3.6,0.3-4.4,0.4
						c2.2,1.4,4.6,2.4,7.2,3c-0.5,0.5-0.9,1.1-1.3,1.6c-3.6-1-6.8-2.9-9.5-5.5c-2.4,2.7-5.6,4.6-9,5.6c-0.3-0.6-0.7-1.1-1.2-1.6
						c2.4-0.6,4.7-1.7,6.8-3.2l-0.1-0.2c-3.9,0.2-4.6,0.3-5,0.5c-0.2-0.6-0.4-1.1-0.6-1.7c0.3-0.1,0.6-0.3,0.8-0.6
						c0.7-0.7,1.3-1.6,1.8-2.5l1.9,0.8c-0.5,0.7-1.1,1.4-1.7,2l2.1-0.1c-0.2-0.3-0.4-0.6-0.6-0.9l1.5-0.5c0.4,0.6,0.8,1.3,1.1,2
						c0.7-0.7,1.3-1.5,1.8-2.3l1.9,0.6c-0.1,0.2-0.2,0.5-0.4,0.7c0.3,0.3,0.6,0.6,0.9,0.9l-0.1-0.2c0.3-0.1,0.5-0.3,0.7-0.5
						c0.6-0.7,1-1.5,1.3-2.3l1.9,0.8c-0.4,0.7-0.8,1.3-1.3,1.9l2.5-0.1c-0.3-0.3-0.5-0.7-0.8-1l1.5-0.6c1,1,1.8,2.2,2.4,3.4
						L348.5,345.7z M346.1,341.1c-0.3-0.3-0.7-0.7-1-1c-10.1,0.4-11.2,0.4-12,0.7c-0.2-0.6-0.4-1.2-0.6-1.7c0.5-0.1,1-0.3,1.4-0.6
						c1.4-0.7,2.7-1.5,3.9-2.5l1.9,0.9c-1,0.7-2,1.4-3,1.9l6.8-0.2c-0.6-0.5-1.2-0.9-1.9-1.4l1.6-0.8c1.7,1.1,3.2,2.4,4.6,3.8
						L346.1,341.1z M347.3,351.4c-2.9,3-8,4.6-13.7,5.4c-0.2-0.6-0.6-1.2-1-1.7c5.4-0.6,10.5-2,13-4.5L347.3,351.4z M344.6,349.1
						c-2.4,2-6.3,3.4-9.9,4.2c-0.3-0.5-0.7-1-1.1-1.5c3.4-0.6,7.3-1.9,9.4-3.5L344.6,349.1z M342.1,347c-2.2,1.5-4.6,2.7-7.2,3.4
						c-0.3-0.5-0.7-0.9-1.1-1.3c2.4-0.5,4.7-1.5,6.8-2.9L342.1,347z"/>
					<path id="e26f226b-0f86-4505-b4a5-975f0a1ca8fc" class="st4" d="M360.6,341.5h-8.1v-1.7h3.8c-0.4-1-0.9-2-1.5-3l1.5-0.8
						c0.6,1,1.1,2,1.6,3l-1.5,0.9h4.3L360.6,341.5z M366.1,341.8c0,1-0.1,2-0.2,3h6c0,0,0,0.6,0,0.9c-0.3,6.6-0.5,9.1-1.2,9.9
						c-0.4,0.5-1,0.8-1.6,0.8c-0.9,0.1-1.9,0.1-2.8,0c-0.1-0.7-0.3-1.4-0.6-2c0.8,0.1,1.7,0.1,2.5,0.1c0.3,0.1,0.6,0,0.8-0.3
						c0.4-0.5,0.7-2.5,0.9-7.5h-4.1c-0.5,4.1-1.6,7.6-4.8,10c-0.3-0.6-0.8-1-1.3-1.5v0.1h-4.7v1h-1.6v-7.6h6.3v6.5
						c4-2.9,4.3-8.1,4.5-13.5h-2.9v-2h5.2c-0.3-1.1-0.6-2.1-1-3.2l1.8-0.5c0.5,1.1,0.9,2.3,1.2,3.6l-0.3,0.1h4.8v2L366.1,341.8z
						 M359.7,342.8v1.6h-6.3v-1.6H359.7z M353.4,345.8h6.3v1.6h-6.3V345.8z M358,350.6h-3v3.2h3V350.6z"/>
				</g>
				<g id="ec78daaa-2780-4706-b87a-02b2da98f8a3">
					<path id="b91e130b-ecdf-4fb8-8bf8-9f4e48f44034" class="st4" d="M642.9,352.8h3.6v-11.6h-3v-1.6c1.3-0.2,2.5-0.6,3.6-1.3h2
						v14.5h3.2v2.1h-9.5L642.9,352.8z"/>
					<path id="ff31a135-a8dd-421d-951e-28722a8a8aba" class="st4" d="M654.8,353.5c4.9-4.3,7.4-7.6,7.4-10.3c0-1.8-1-3-2.8-3
						c-1.3,0.1-2.5,0.8-3.3,1.9l-1.5-1.4c1.2-1.6,3.1-2.5,5.1-2.5c2.6-0.2,4.8,1.8,5,4.4c0,0.2,0,0.4,0,0.6c0,3.2-2.5,6.5-6.1,9.9
						c0.9-0.1,1.9-0.2,2.7-0.2h4.1v2.2h-10.7V353.5z"/>
					<path id="fb76a871-a5bb-41ea-a138-7b47839efa92" class="st4" d="M685.3,353.9c0,1.4-0.4,2-1.3,2.3c-1.6,0.4-3.2,0.6-4.8,0.4
						c-0.2-0.8-0.5-1.5-0.9-2.2c1.8,0.1,3.6,0.1,4.1,0s0.7-0.2,0.7-0.6v-4h-10.2c-0.5,2.6-1.9,5.1-3.9,6.9c-0.5-0.6-1-1.1-1.6-1.5
						c3.5-3,3.9-7.5,3.9-11v-7h14.1V353.9z M683.1,347.9v-3.4h-9.7c0,1.1-0.1,2.2-0.2,3.3L683.1,347.9z M673.4,339.2v3.3h9.7v-3.3
						L673.4,339.2z"/>
				</g>
				<g id="e3daf201-7b55-4b22-b16d-5d8ec0fa1440">
					<path id="b0710971-28a9-44b0-9d1c-7b3dfa827a0c" class="st1" d="M61.2,423.6c1.5,4,4.9,7,9,8.1c-0.6,0.6-1,1.2-1.4,1.9
						c-4.1-1.3-7.4-4.4-9.1-8.4c-1.1,3.2-3.6,6.2-9,8.4c-0.4-0.7-0.8-1.3-1.4-1.8c5.5-2.1,7.7-5.3,8.6-8.3H50v-2.1h8.3
						c0.1-0.7,0.1-1.5,0.1-2.2v-2.5h-7.6v-2.2h17.7v2.2h-7.9v2.5c0,0.7,0,1.4-0.1,2.2h8.9v2.1L61.2,423.6z"/>
					<path id="a03b2c29-f96c-4cb0-8bd9-eb2e669b8726" class="st1" d="M82.9,416.8v3.8l0.4-0.5c2.7,1.3,5.4,2.8,7.8,4.6l-1.5,1.9
						c-2.1-1.6-4.4-3.1-6.7-4.3v11.4h-2.2v-16.9h-8.4v-2.1h19.9v2.1L82.9,416.8z"/>
					<path id="eca53fa7-5187-43d0-9b7b-a39b9ac754a8" class="st1" d="M101.2,426.8c0-0.3-0.1-0.7-0.2-1.1c-4.7,0.7-5.4,0.9-5.8,1.1
						c-0.2-0.6-0.4-1.3-0.6-1.9c0.5-0.1,1-0.7,1.7-1.5c0.6-0.7,1.1-1.5,1.7-2.3c-1,0.1-1.9,0.2-2.8,0.5c-0.2-0.6-0.4-1.2-0.6-1.8
						c0.4-0.1,0.8-0.5,1.2-1.2c1.2-1.8,2.1-3.6,2.8-5.6l1.9,0.8c-0.9,2-2,3.9-3.3,5.7l2-0.2c0.6-0.9,1.1-1.9,1.6-2.9l1.8,1
						c-1.4,2.5-3,4.8-4.8,7l3-0.4c-0.2-0.7-0.4-1.4-0.7-2l1.6-0.4c0.6,1.5,1.1,3,1.4,4.6L101.2,426.8z M97.2,427.9
						c-0.2,1.9-0.5,3.8-1.1,5.6c-0.5-0.3-1.1-0.5-1.7-0.6c0.5-1.7,0.9-3.5,1-5.3L97.2,427.9z M99.4,427.6c0.3,1.5,0.5,3.1,0.6,4.7
						l-1.7,0.3c-0.1-1.6-0.3-3.2-0.5-4.7L99.4,427.6z M101.5,426.9c0.5,1.2,0.8,2.4,1.1,3.6l-1.5,0.5c-0.2-1.3-0.6-2.5-1-3.7
						L101.5,426.9z M115.1,431.3v1.9h-12.8v-1.9h5.4v-3.8h-4.2v-1.9h10.8v1.9h-4.4v3.8L115.1,431.3z M105.3,425.1
						c-0.7-1.6-1.6-3.1-2.7-4.4c0.9-1.3,1.7-2.7,2.3-4.1l1.8,0.5c-0.6,1.1-1.5,2.5-2.2,3.6c0.9,1.2,1.7,2.4,2.4,3.8L105.3,425.1z
						 M114.9,416h-11.9v-1.9h11.9L114.9,416z M110.6,417c-0.7,1.2-1.4,2.4-2.2,3.6c0.9,1.1,1.8,2.4,2.5,3.7l-1.7,0.8
						c-0.8-1.6-1.7-3-2.8-4.4c0.9-1.3,1.7-2.7,2.4-4.1L110.6,417z M113.1,425.1c-0.8-1.6-1.8-3.1-3-4.4c0.9-1.3,1.8-2.7,2.5-4.1
						l1.8,0.5c-0.7,1.1-1.5,2.5-2.3,3.6c1,1.1,1.9,2.4,2.6,3.7L113.1,425.1z"/>
					<path id="ead448a2-866b-4241-be49-2ec1f103afc3" class="st1" d="M120.3,423.3c-1-1-2.2-1.8-3.4-2.6l1-1.2
						c1.2,0.7,2.4,1.5,3.4,2.4L120.3,423.3z M117.2,432.4c0.8-1.7,2-4.6,2.9-7l1.3,1c-0.8,2.3-1.8,5-2.7,7L117.2,432.4z
						 M120.8,417.5c-1-1.1-2.1-2.1-3.2-3l1.1-1.2c1.2,0.8,2.3,1.8,3.3,2.9L120.8,417.5z M133.4,424.3h2v9.5h-2v-3.3h-7.8
						c-0.4,1.4-1.3,2.5-2.4,3.3c-0.5-0.4-1-0.8-1.6-1.1c1.7-1.3,2.7-3.4,2.5-5.5v-2.9h2v1.4h7.3L133.4,424.3z M125.2,419.9
						c-0.2,1.8-1.1,3.4-2.6,4.4c-0.2-0.4-0.5-0.8-0.9-1.1c1.1-0.8,1.9-2,2-3.3h-1.2v-1.4h5.1v0.6c-0.1,2.8-0.2,3.9-0.5,4.3
						c-0.2,0.3-0.6,0.5-1,0.5c-0.4,0-0.8,0-1.2,0c0-0.5-0.2-0.9-0.4-1.4c0.3,0,0.7,0.1,1,0.1c0.1,0,0.3-0.1,0.4-0.2
						c0.2-0.8,0.3-1.7,0.2-2.6L125.2,419.9z M128.4,416.9h-5.9v-1.7h6.2c-0.1-0.7-0.3-1.3-0.5-2l1.9-0.2c0.3,0.7,0.5,1.5,0.6,2.3
						h6.7v1.7h-6.1l1.3,0.4c-0.7,0.7-1.5,1.5-2.2,2.1l0,0v4.7H129v-4.6l0,0l0,0c0.8-0.8,1.6-1.6,2.2-2.5L128.4,416.9
						c0.5,0.6,0.8,1.2,1.1,1.8l-1.2,0.6c-0.2-0.7-0.5-1.3-0.9-1.9L128.4,416.9z M133.4,428.8v-1.6h-7.3c0,0.5,0,1-0.1,1.6H133.4z
						 M136.8,418.6c-0.4,0.2-0.9,0.4-1.4,0.6c0.3,1.4,1.1,2.7,2.2,3.7c-0.4,0.3-0.7,0.7-0.9,1.1c-1.2-1.2-2-2.7-2.4-4.4
						c-0.4,0.1-0.7,0.2-1.1,0.3v2.5l1.5-0.4c0,0.3,0.1,0.9,0.2,1.1c-1,0.3-2,0.7-2.9,1.2l0,0c-0.2-0.5-0.4-0.9-0.6-1.3
						c0.2-0.2,0.6-0.5,0.6-1.4v-2.5l0,0l0,0c1.2-0.3,2.4-0.8,3.6-1.4L136.8,418.6z"/>
					<path id="e9dbcd89-be5e-4314-b3a5-08bf07abf5c2" class="st1" d="M146.7,418.5h-7v-1.7h3.5c-0.5-1.1-1-2.1-1.6-3l1.6-0.8
						c0.7,1,1.2,2,1.7,3l-1.7,0.9h3.5V418.5z M146.2,432.5h-4.1v1h-1.7v-7.6h5.9V432.5z M146.1,421.5h-5.6v-1.6h5.6L146.1,421.5z
						 M140.5,422.9h5.6v1.6h-5.6L140.5,422.9z M142.1,427.6v3.2h2.4v-3.3L142.1,427.6z M154.8,414.1c-0.1,0.2-0.3,0.5-0.4,0.7
						c1.6,2.1,3.7,3.8,6.2,4.7c-0.6,0.6-1.1,1.2-1.5,1.9c-0.7-0.3-1.4-0.7-2.1-1.2v0.9h-7.6v-1c-0.7,0.6-1.5,1.1-2.3,1.5
						c-0.3-0.7-0.7-1.4-1.2-1.9c3-1.5,5.5-3.8,7.2-6.7L154.8,414.1z M159,431.8c0,0.8-0.1,1.3-0.6,1.6c-0.6,0.3-1.3,0.4-2,0.3
						c-0.1-0.6-0.2-1.2-0.4-1.7c0.5,0,0.9,0,1.1,0s0.2-0.1,0.2-0.2v-2.8h-1.7v4.4h-1.5v-4.4h-1.6v4.4H151v-4.4h-1.6v5h-1.7v-11.2
						H159V431.8z M151,427.2v-2.7h-1.6v2.7H151z M156,419.3c-1-0.9-1.9-1.8-2.6-2.9c-0.8,1.1-1.8,2.1-2.8,2.9H156z M154.1,427.2
						v-2.7h-1.6v2.7H154.1z M157.4,427.2v-2.7h-1.8v2.7H157.4z"/>
					<path id="eb8005c1-a34c-4c26-9a51-fbcea253a7b9" class="st1" d="M169.3,428.3c-2.2,0.9-4.6,1.9-6.4,2.6l-0.7-2.1
						c0.8-0.2,1.7-0.6,2.7-0.9v-7.5h-2.3v-2h2.3v-5.2h2v5.2h1.8v2h-1.8v6.7l2.1-0.8L169.3,428.3z M182.8,431.7v1.6h-15.1v-1.6H182.8
						z M182.6,416.5h-14.4V415h6.1c-0.3-0.5-0.6-1-0.9-1.4l1.7-0.8c0.6,0.7,1.1,1.4,1.4,2.2h6.1V416.5z M181.6,424.4h-12.3v-7.1
						h12.3L181.6,424.4z M170,430.9v-5.6h10.8v5.6L170,430.9z M179.8,418.6H171v4.5h8.8V418.6z M171.9,427.5h6.9v-1h-6.9V427.5z
						 M171.9,429.7h6.9v-1h-6.9V429.7z M178.5,422.4h-6.1v-2.9h6.2L178.5,422.4z M177,420.4h-3.3v1h3.3V420.4z"/>
					<path id="ac8ee2ea-9e1f-4d95-ac3f-cc549b26cf12" class="st1" d="M185.2,423.7c0-5.4,3.3-8.7,7.5-8.7c1.8,0,3.5,0.8,4.7,2.1
						l-1.4,1.7c-0.8-0.9-2-1.5-3.2-1.5c-2.9,0-4.9,2.4-4.9,6.3s1.9,6.4,4.8,6.4c1.4,0,2.8-0.7,3.7-1.8l1.4,1.6
						c-1.3,1.5-3.2,2.4-5.2,2.4C188.4,432.3,185.2,429.2,185.2,423.7z"/>
					<path id="e77723c3-61d0-43d4-b7d5-68c27741ddc9" class="st1" d="M198.8,415.4h2.7l1.6,8.6l0.9,5.3h0.1c0.4-1.8,0.7-3.6,1.1-5.3
						l2.1-8.6h2.3l2.2,8.6c0.4,1.7,0.7,3.5,1.1,5.3h0.1c0.3-1.8,0.6-3.6,0.8-5.3l1.6-8.6h2.5l-3.3,16.6h-3.2l-2.2-9.2
						c-0.3-1.3-0.5-2.5-0.8-3.8h-0.1c-0.2,1.3-0.5,2.5-0.8,3.8l-2.2,9.2h-3.2L198.8,415.4z"/>
					<path id="f7745c48-228d-49eb-8be5-7c2f3c630f06" class="st1" d="M220.7,415.4h9.8v2.2h-7.2v4.6h6.1v2.2h-6.1v5.4h7.4v2.2h-10
						V415.4z"/>
					<path id="a9b054f8-2fd6-4a03-8dae-dbc1a2c98ba4" class="st1" d="M234.3,415.4h9.8v2.2h-7.2v5.1h6.1v2.2h-6.1v7.2h-2.6V415.4z"
						/>
					<path id="e83e1ef2-6eb4-4ed2-8247-7aa500674fbd" class="st1" d="M263.2,415.9c-1.2,2.3-3,4.2-5.1,5.7c2.7,1.3,5.5,2.1,8.5,2.5
						c-0.5,0.6-1,1.3-1.4,2c-3.2-0.5-6.2-1.6-9-3.3c-2.9,1.6-6,2.7-9.2,3.4c-0.2-0.7-0.6-1.4-1-2c2.9-0.5,5.7-1.4,8.3-2.8
						c-1-0.8-1.9-1.7-2.7-2.7c-1.1,1.1-2.2,2-3.5,2.9c-0.4-0.6-0.9-1.2-1.4-1.6c2.8-1.8,5.2-4.2,6.8-7.1l2.3,0.5
						c-0.3,0.6-0.7,1.2-1.1,1.8h6.9l0.3-0.1L263.2,415.9z M250.6,428.9c3.9,0.8,7.7,1.8,11.4,3.1l-1,2c-3.7-1.4-7.5-2.5-11.4-3.4
						L250.6,428.9z M253.4,425.1c2.4,0.6,6,1.6,7.9,2.3l-0.9,1.9c-1.8-0.7-5.4-1.9-7.9-2.6L253.4,425.1z M253.2,417.1
						c-0.2,0.2-0.3,0.4-0.4,0.5c0.9,1.1,2.1,2.1,3.3,2.9c1.5-0.9,2.8-2.1,3.9-3.5H253.2z"/>
					<path id="ba4f6b0b-74ff-4e60-9563-78850f0c6cd1" class="st1" d="M277.6,419.8c-2.3,2.2-5,3.9-8,5c-0.4-0.6-0.8-1.1-1.3-1.6
						c2.6-0.8,5.1-2.1,7.2-3.8h-6.6v-1.8h8.8v-1.9c-2.3,0.2-4.7,0.3-6.9,0.3c-0.1-0.6-0.2-1.1-0.5-1.7c4.8,0,9.6-0.5,14.4-1.4
						l1.7,1.5c-2.2,0.5-4.5,0.8-6.7,1v2h9v1.8h-6.1c2.3,1.3,4.5,2.7,6.6,4.4l-1.4,1.5c-2.5-2-5.2-3.9-8-5.5v3h-2.1L277.6,419.8z
						 M279.8,427.5h8.9v1.8h-8.9v2.2c0,1.1-0.3,1.6-1.1,1.9c-1.4,0.3-2.8,0.4-4.1,0.3c-0.2-0.6-0.4-1.2-0.7-1.8c1.5,0,3,0,3.4,0
						s0.5-0.1,0.5-0.4v-2.1h-8.9v-1.8h8.9v-1.3c0.9-0.3,1.8-0.7,2.6-1.1h-7.7v-1.6h10.2l0.5-0.1l1.3,1.1c-1.5,1.1-3.1,1.9-4.9,2.6
						L279.8,427.5z"/>
					<path id="b703d64f-e1c8-4dde-97bd-54a2ad82a103" class="st1" d="M298.2,426.6c-2.3,1.1-4.7,2.4-6.6,3.3l-0.8-2.1
						c0.8-0.3,1.8-0.7,2.9-1.2v-6.7h-2.5v-2h2.5v-4.6h1.9v4.6h2.3v2h-2.3v5.9l2.1-0.9L298.2,426.6z M302.6,423.9
						c-0.2,0.5-0.5,0.9-0.8,1.4h9.4c0,0,0,0.5,0,0.8c-0.4,4.5-0.7,6.3-1.3,7c-0.4,0.4-0.8,0.6-1.4,0.6c-0.7,0-1.5,0-2.2,0
						c0-0.6-0.2-1.2-0.5-1.7c0.6,0.1,1.2,0.1,1.8,0.1c0.3,0,0.5,0,0.7-0.2c0.3-0.4,0.6-1.7,0.9-4.9h-1.4c-0.9,2.7-2.4,5-4.5,6.9
						c-0.4-0.5-1-0.9-1.5-1.2c1.9-1.5,3.4-3.4,4.3-5.7h-1.8c-1.3,2.4-3.1,4.4-5.4,5.9c-0.4-0.5-0.9-0.9-1.4-1.3
						c2-1.1,3.6-2.7,4.9-4.6h-1.9c-0.8,0.9-1.8,1.7-2.8,2.4c-0.4-0.5-0.9-0.9-1.4-1.3c1.7-1,3.2-2.4,4.3-4.2h-2.9v-1.8h14.1v1.8
						H302.6z M310.1,421.1h-10.4v-7.4h10.4L310.1,421.1z M308.2,415.2h-6.6v1.5h6.6V415.2z M308.2,418.1h-6.6v1.5h6.6V418.1z"/>
					<path id="adebfa3d-7a13-4d49-9320-adab29577849" class="st1" d="M318,424.5h-4.5v-1.9h4.6v-4.9h2v4.9h4.6v1.9h-4.6v4.9h-2
						L318,424.5z"/>
					<path id="a1e162fb-4ba9-44cc-aaee-d2c16d6d633c" class="st1" d="M344.6,431.7c0.6,0,0.7-0.4,0.8-2.7c0.5,0.3,1.1,0.6,1.7,0.7
						c-0.2,2.9-0.7,3.7-2.4,3.7h-2.7c-2,0-2.5-0.5-2.5-2.4v-2.3c-1.3,2.4-3.5,4.3-6.1,5.1c-0.3-0.6-0.7-1.1-1.2-1.6
						c3.9-1.4,5.6-3.7,6.4-6.5h-4.1v-4.9l-0.1,0.1c-0.3-0.5-0.7-0.9-1.2-1.3v9.9H329v1.7h-1.8v-16.6h6.1v4.6c1.8-1.7,3.2-3.8,4-6.1
						l2.1,0.3c-0.2,0.5-0.4,1-0.6,1.5h4.2l0.4-0.1l1.6,0.5c-0.7,1.2-1.5,2.3-2.3,3.4h3.3v6.9h-4.3v5.3c0,0.7,0.1,0.7,0.8,0.7
						L344.6,431.7z M329,416.5v4.5h2.5v-4.5H329z M331.5,427.6v-4.7H329v4.7H331.5z M337.9,416.6c-0.4,0.8-0.9,1.5-1.4,2.1h3.8
						c0.6-0.7,1.1-1.4,1.6-2.1H337.9z M339.1,424c0.2-1.2,0.3-2.4,0.3-3.6h-3v3.6H339.1z M343.9,420.4h-2.6c0,1.2-0.2,2.4-0.3,3.6
						h2.9V420.4z"/>
					<path id="ebd8aed5-3186-4a0b-a031-bb84270cd88a" class="st1" d="M364.3,428.3c-0.7,0.9-1.5,1.7-2.4,2.3c2.7,0.6,5.2,1.3,7,1.9
						l-1.8,1.3c-2.4-0.8-4.8-1.5-7.3-2c-3.1,1.2-6.3,1.9-9.6,2.1c-0.2-0.6-0.4-1.2-0.8-1.7c2.4-0.1,4.8-0.5,7.2-1.1
						c-1.5-0.3-3-0.6-4.5-0.9c0.6-0.6,1.2-1.2,1.8-1.9h-4.6v-1.6h6c0.5-0.6,1-1.3,1.4-2l2,0.6c-0.3,0.5-0.6,1-1,1.5h5.3
						c0.2-0.3,0.4-0.7,0.5-1.1l2,0.6l-0.2,0.5h3.9v1.6L364.3,428.3z M351.7,419.2h-2v-4.3h8.6c-0.2-0.5-0.4-1-0.7-1.4l2.1-0.4
						c0.4,0.6,0.7,1.2,1,1.8h8.3v4.3h-2.1v-2.6h-15.2V419.2z M365.5,424.6h-12.4v-6.8h12.4V424.6z M363.5,419.3h-8.4v1.3h8.4V419.3z
						 M363.5,421.9h-8.4v1.4h8.4V421.9z M356.5,428.3c-0.3,0.4-0.6,0.7-0.9,1c1.3,0.2,2.5,0.5,3.8,0.7c0.9-0.4,1.8-1,2.5-1.8
						L356.5,428.3z"/>
				</g>
				<g id="b6c08d86-5309-49cc-a8f0-5408d392b081">
					<path id="ab98bf59-4723-4b8a-a8f4-392785fd5086" class="st1" d="M611.3,430.5c4.9-4.3,7.4-7.6,7.4-10.3c0-1.8-1-3-2.8-3
						c-1.3,0.1-2.5,0.8-3.3,1.9l-1.5-1.5c1.2-1.5,3.1-2.5,5.1-2.5c2.6-0.2,4.8,1.8,5,4.4c0,0,0,0,0,0c0,0.2,0,0.4,0,0.6
						c0,3.2-2.5,6.5-6.1,9.9c0.9-0.1,1.9-0.2,2.7-0.2h4.2v2.2h-10.7V430.5z"/>
					<path id="b3c579a7-2416-4650-bcb1-4ebcd09e78f4" class="st1" d="M624.3,423.6c0-5.8,2.1-8.6,5.4-8.6s5.4,2.8,5.4,8.6
						s-2.1,8.7-5.4,8.7S624.3,429.4,624.3,423.6z M632.5,423.6c0-4.8-1.2-6.5-2.9-6.5s-2.9,1.7-2.9,6.5s1.2,6.6,2.9,6.6
						S632.5,428.4,632.5,423.6L632.5,423.6z"/>
					<path id="f75075c4-9227-4468-bc85-8ccda12c27f0" class="st1" d="M637.1,430.5c4.9-4.3,7.4-7.6,7.4-10.3c0-1.8-1-3-2.8-3
						c-1.3,0.1-2.5,0.8-3.3,1.9l-1.5-1.5c1.2-1.5,3-2.4,5-2.5c2.6-0.2,4.8,1.8,5,4.4c0,0.2,0,0.4,0,0.6c0,3.2-2.6,6.5-6.1,9.9
						c0.9-0.1,1.9-0.2,2.7-0.2h4.2v2.2h-10.7V430.5z"/>
					<path id="e404244c-919b-4ec1-853d-abcddc57507d" class="st1" d="M650,430.5c4.9-4.3,7.4-7.6,7.4-10.3c0-1.8-1-3-2.8-3
						c-1.3,0.1-2.5,0.8-3.3,1.9l-1.5-1.5c1.2-1.5,3.1-2.5,5.1-2.5c2.6-0.2,4.8,1.8,5,4.4c0,0,0,0,0,0c0,0.2,0,0.4,0,0.6
						c0,3.2-2.5,6.5-6.1,9.9c0.9-0.1,1.9-0.2,2.7-0.2h4.2v2.2H650V430.5z"/>
					<path id="bf988932-9595-4847-9110-b9edb4fb85c7" class="st1" d="M683.3,428.8h-7.9v5h-2.2v-5h-10.3v-2h3.6v-6h6.6v-3.1H668
						c-0.9,1.6-2,3-3.2,4.3c-0.6-0.5-1.2-0.9-1.8-1.4c2.3-2.1,4-4.7,4.9-7.7l2.1,0.6c-0.3,0.7-0.6,1.4-0.9,2.1h13.1v2h-6.8v3.1h6.3
						v2h-6.3v4h7.9V428.8z M673.2,426.8v-4h-4.5v4H673.2z"/>
					<path id="e41c7370-8183-4c96-80d4-7dff9bdca150" class="st1" d="M686.3,429.9h3.6v-11.6h-3v-1.6c1.3-0.2,2.5-0.6,3.6-1.3h2
						v14.5h3.3v2.1h-9.5L686.3,429.9z"/>
					<path id="a5b2b644-5a70-466b-b7b6-328d0f2ffd4f" class="st1" d="M715.9,430.9c0,1.4-0.4,2-1.3,2.3c-1.6,0.4-3.2,0.6-4.8,0.4
						c-0.2-0.8-0.5-1.5-0.9-2.2c1.8,0.1,3.6,0.1,4.1,0s0.7-0.2,0.7-0.6v-4h-10.2c-0.5,2.6-1.9,5.1-3.9,6.9c-0.5-0.6-1-1.1-1.6-1.5
						c3.5-3,3.9-7.5,3.9-11v-7.1H716L715.9,430.9z M713.7,424.9v-3.4H704c0,1.1-0.1,2.2-0.2,3.4L713.7,424.9z M704,416.3v3.3h9.7
						v-3.3L704,416.3z"/>
				</g>
				<g>
					<path class="st4" d="M582,202.3c5-4.5,7.6-7.8,7.6-10.6c0-1.9-1-3.1-2.9-3.1c-1.3,0-2.5,0.9-3.4,1.9l-1.5-1.5
						c1.5-1.6,3-2.6,5.2-2.6c3.1,0,5.2,2,5.2,5.1c0,3.3-2.6,6.7-6.2,10.2c0.9-0.1,2-0.2,2.8-0.2h4.3v2.3h-11V202.3z"/>
					<path class="st4" d="M595.3,195.3c0-5.9,2.2-8.8,5.5-8.8c3.3,0,5.5,2.9,5.5,8.8c0,5.9-2.2,8.9-5.5,8.9
						C597.5,204.2,595.3,201.2,595.3,195.3z M603.8,195.3c0-4.9-1.2-6.7-3-6.7c-1.7,0-3,1.8-3,6.7c0,4.9,1.2,6.8,3,6.8
						C602.6,202.1,603.8,200.2,603.8,195.3z"/>
					<path class="st4" d="M608.5,202.3c5-4.5,7.6-7.8,7.6-10.6c0-1.9-1-3.1-2.9-3.1c-1.3,0-2.5,0.9-3.4,1.9l-1.5-1.5
						c1.5-1.6,3-2.6,5.2-2.6c3.1,0,5.2,2,5.2,5.1c0,3.3-2.6,6.7-6.2,10.2c0.9-0.1,2-0.2,2.8-0.2h4.3v2.3h-11V202.3z"/>
					<path class="st4" d="M622.7,201.7h3.7v-11.9h-3.1v-1.7c1.6-0.3,2.7-0.7,3.7-1.3h2v14.9h3.3v2.2h-9.8V201.7z"/>
					<path class="st4" d="M656,200.6h-8.2v5.1h-2.2v-5.1h-10.6v-2.1h3.7v-6.1h6.8v-3.2h-5.3c-1,1.7-2.2,3.3-3.3,4.4
						c-0.4-0.4-1.3-1.1-1.9-1.4c2.1-1.8,4-4.8,5.1-7.9l2.2,0.6c-0.3,0.7-0.6,1.5-0.9,2.2h13.4v2.1h-7v3.2h6.5v2h-6.5v4.1h8.2V200.6z
						 M645.7,198.5v-4.1H641v4.1H645.7z"/>
					<path class="st4" d="M658.3,195.3c0-5.9,2.2-8.8,5.5-8.8c3.3,0,5.5,2.9,5.5,8.8c0,5.9-2.2,8.9-5.5,8.9
						C660.4,204.2,658.3,201.2,658.3,195.3z M666.8,195.3c0-4.9-1.2-6.7-3-6.7c-1.7,0-3,1.8-3,6.7c0,4.9,1.2,6.8,3,6.8
						C665.5,202.1,666.8,200.2,666.8,195.3z"/>
					<path class="st4" d="M679.6,189h-8v-2.3h11v1.6c-4,5-4.6,8.8-4.9,15.5h-2.7C675.2,197.6,676.3,193.6,679.6,189z"/>
					<path class="st4" d="M702.8,202.8c0,1.4-0.4,2.1-1.3,2.4c-1,0.4-2.6,0.4-5,0.4c-0.1-0.6-0.6-1.7-0.9-2.3c1.8,0.1,3.7,0.1,4.2,0
						c0.5,0,0.7-0.2,0.7-0.7v-4.1H690c-0.6,2.6-1.8,5.2-4,7.1c-0.3-0.5-1.2-1.3-1.6-1.6c3.6-3.1,4-7.7,4-11.3v-7.3h14.5V202.8z
						 M700.5,196.6v-3.4h-10c0,1.1-0.1,2.2-0.2,3.4H700.5z M690.5,187.7v3.4h10v-3.4H690.5z"/>
					<path class="st4" d="M708.9,201.7h3.7v-11.9h-3.1v-1.7c1.6-0.3,2.7-0.7,3.7-1.3h2v14.9h3.3v2.2h-9.8V201.7z"/>
					<path class="st4" d="M720.7,201.9l1.3-1.7c1,1,2.2,1.8,4,1.8c1.9,0,3.4-1.4,3.4-3.6s-1.3-3.6-3.3-3.6c-1.1,0-1.7,0.3-2.7,1
						l-1.3-0.9l0.5-8.1h8.7v2.3h-6.3l-0.4,4.4c0.7-0.4,1.4-0.6,2.3-0.6c2.9,0,5.2,1.7,5.2,5.4c0,3.8-2.8,5.9-5.8,5.9
						C723.6,204.2,721.9,203.1,720.7,201.9z"/>
					<path class="st4" d="M752.7,185.9v19.5h-2.3V204h-10.9v1.5h-2.2v-19.6H752.7z M739.5,188.1v5.7h10.9v-5.7H739.5z M750.5,201.8
						v-5.9h-10.9v5.9H750.5z"/>
				</g>
			</g>
		</g>
		<line id="b28efc65-b670-4a72-afbc-4d9ee4b8fc94" class="st2" x1="911.5" y1="466.1" x2="0.5" y2="466.1"/>
	</g>
</g>
</svg>
