<svg id="f8196ed3-f2e2-4b03-b707-339b03ecaf0e" data-name="圖層 1" xmlns="http://www.w3.org/2000/svg" viewBox="0 0 367.5 320"><g id="a33da3c6-3d83-43ad-a38d-db7bf23938d7" data-name="Group 355"><rect id="f465ac5a-054a-4cc5-9a58-1b5e3ec9a998" data-name="Rectangle 204" width="367" height="48" style="fill:#fff"/><rect id="f524ebd5-94f6-48d4-856d-8b3844db4c26" data-name="Rectangle 206" y="191" width="367" height="64" style="fill:#fff"/><g id="bf4ecfdc-f7b7-4756-820c-07e8c76eb7c1" data-name="Group 354"><rect id="e1aa462a-6590-4d2d-935b-490fdf474204" data-name="Rectangle 205" y="96" width="367" height="48" style="fill:#fff"/><g id="f0a7b203-f957-40e8-a183-100803192201" data-name="Group 325"><path id="fb0b7c6b-c620-424e-9e94-7742d42f2f45" data-name="Path 468" d="M78.39,21.73l2.33.54c-.06.17-.3.28-.72.32a9.16,9.16,0,0,0,2.81,1.69,22.26,22.26,0,0,0,3.75,1.15v.25a1.47,1.47,0,0,0-.78.51,1.84,1.84,0,0,0-.39.85,13.94,13.94,0,0,1-1.67-.75l1.14.86a.84.84,0,0,1-.44.2v3c0,.07-.15.15-.42.25a2.2,2.2,0,0,1-.71.15h-.23V30.3H75.54v.19c0,.08-.07.16-.22.26l1.49.59h4.93l.67-.7,1.41,1.05a.76.76,0,0,1-.47.24v3.83c0,.07-.16.17-.45.28a2.17,2.17,0,0,1-.8.18h-.24v-.75H76.72v.34q0,.12-.42.3a2.21,2.21,0,0,1-.84.17h-.2V30.79a1.59,1.59,0,0,1-.82.21h-.23V26.67c-.76.34-1.42.59-2,.78l-.09-.22A17.29,17.29,0,0,0,76,24.66,8.7,8.7,0,0,0,78.39,21.73ZM83,26.8l.6-.6a9.68,9.68,0,0,1-3.8-3.44,11.23,11.23,0,0,1-2.1,1.91,19.71,19.71,0,0,1-2.9,1.74l1,.39Zm-7.42.45v2.6h3.11v-2.6Zm.59.27.17-.11c.92.37,1.45.83,1.58,1.39a.64.64,0,0,1-.28.77.59.59,0,0,1-.79-.13,3.32,3.32,0,0,0-.68-1.92Zm5.73,4.26H76.72v1.4h5.14ZM76.72,35h5.14V33.63H76.72Zm3.2-9.53.71-.85c.53.4,1,.76,1.28,1.06,0,.17-.17.25-.4.25H77l-.12-.46Zm1,4.36h2.14v-2.6H79.93v2.6h.59a18.76,18.76,0,0,0,.82-2.43L83,28c-.07.22-.27.32-.59.29a12.31,12.31,0,0,1-1.47,1.59Z" transform="translate(-3.25 -4.25)" style="fill:#566c6c"/><path id="a919cda0-882e-4964-b9df-1344e2c6d910" data-name="Path 469" d="M89,36.26l-.09-.2a12.9,12.9,0,0,0,2.82-1.25,10.25,10.25,0,0,0,2.09-1.56l2.08.93c-.1.18-.38.26-.82.22A14.86,14.86,0,0,1,89,36.26Zm3.27-3.34v.45q0,.14-.42.3a2,2,0,0,1-.84.18H90.8V26.11l1.6.67h7.37l.73-.82,1.58,1.21a1.08,1.08,0,0,1-.65.29v5.66c0,.06-.17.15-.47.26a2.42,2.42,0,0,1-.8.16h-.24v-.62Zm.56-7.4v.27s-.06.1-.19.17a3,3,0,0,1-.49.2,2,2,0,0,1-.58.09h-.2v-4.2l1.55.64h6.2l.71-.78,1.55,1.16a1.06,1.06,0,0,1-.65.32v2.26c0,.05-.17.12-.46.22a2.54,2.54,0,0,1-.77.13h-.23v-.48Zm7.07,1.7H92.29v1.4h7.63Zm0,3.31V29.07H92.29v1.46Zm-7.63,1.93h7.63V31H92.29Zm7-9.33H92.85v1.94H99.3ZM97.11,33.8l.09-.21q3.47,0,4.91,1.17c.47.38.66.76.56,1.12s-.35.44-.79.41h0a14.3,14.3,0,0,0-2.21-1.37,18.13,18.13,0,0,0-2.51-1.12Z" transform="translate(-3.25 -4.25)" style="fill:#566c6c"/><path id="ab7afec5-85c3-4958-af2c-c0e301f79efa" data-name="Path 470" d="M105.63,36.28l-.2-.17A9.83,9.83,0,0,0,107.77,32l1.9.81q-.14.28-.63.24A8,8,0,0,1,105.63,36.28Zm11.83-.05a1.69,1.69,0,0,0-.38-1.1,2.41,2.41,0,0,0-1.22-.42v-.24c1,.06,1.58.09,1.78.09s.35-.11.35-.32V30.32h-2.55a7.4,7.4,0,0,1-3.35,5.9l-.2-.15A8.26,8.26,0,0,0,114,31.69a.91.91,0,0,1-.23,0h-8.15l-.12-.44H107V24.77h-1.2l-.12-.44H107V22l1.89.2c0,.21-.2.35-.52.4v1.73h2.32V22l2,.2c0,.24-.24.38-.55.43v1.7h.08l.6-1c.48.46.85.84,1.13,1.16,0,.16-.16.24-.4.24h-1.41v6.51h.06l.69-1c.43.4.8.76,1.11,1.1a24.22,24.22,0,0,0,.18-3.18V22.27l1.6.63h2.07l.68-.81,1.53,1.19a1.13,1.13,0,0,1-.65.33v10.8a1.91,1.91,0,0,1-.36,1.29,2.56,2.56,0,0,1-1.59.53Zm-6.73-11.46H108.4V26.5h2.33ZM108.4,27v1.87h2.33V27Zm0,2.31v2h2.33v-2Zm1.72,3,.15-.11a3.18,3.18,0,0,1,2.37,1.54.88.88,0,0,1-.14,1,.7.7,0,0,1-1,0,.1.1,0,0,1-.07,0,4.22,4.22,0,0,0-.48-1.28,6.33,6.33,0,0,0-.86-1.19Zm5.36-2.4H118v-3.1h-2.46v1.37c0,.57,0,1.14,0,1.72ZM118,23.36h-2.46v3H118Z" transform="translate(-3.25 -4.25)" style="fill:#566c6c"/><path id="f9a6f3c3-d7de-4fce-9834-5ebc279c351d" data-name="Path 471" d="M128.86,31.56l.93.29c-.07.18-.26.27-.55.26a5.63,5.63,0,0,1-1.14,1.67c.8.37,1.25.8,1.35,1.31a.55.55,0,0,1-.32.7.75.75,0,0,1-.62,0,7.54,7.54,0,0,0-1.38-1.14,9,9,0,0,1-4.58,1.6l-.07-.24a8.14,8.14,0,0,0,3.81-1.9c-.66-.34-1.06-.55-1.21-.61a3.63,3.63,0,0,0-.23.38c-.1.17-.18.28-.22.35a1.66,1.66,0,0,1-1.29-.15,21,21,0,0,0,1.13-2l-1.37.17a.56.56,0,0,1-.44.3l-.43-1.43,2.74,0c0-.12.13-.3.25-.55s.2-.41.24-.51h-1.13v.26s0,.07-.12.13a1.37,1.37,0,0,1-.38.15,1.7,1.7,0,0,1-.55.08h-.2V27.26l.22.09V25.27h-.93l-.12-.44h1V22.7l1.46.58h1V21.8l1.85.18c0,.25-.22.4-.56.44v.86h1.15l.61-.63,1.31,1a.9.9,0,0,1-.52.24v1h.09l.63-.8a12.78,12.78,0,0,1,1.09,1q0,.24-.39.24h-1.42v1.6c0,.06-.14.13-.39.22a2.09,2.09,0,0,1-.66.13h-.21v-.4h-1.29v1h1.37l.6-.62,1.27,1a.8.8,0,0,1-.49.23v1.76s-.14.12-.38.21a1.85,1.85,0,0,1-.65.14h-.22v-.43h-2l.75.15c-.07.23-.29.34-.64.33,0,.09-.13.27-.28.54L131,31l0,.28C130.05,31.39,129.34,31.5,128.86,31.56Zm-5.34-4.21h-.21l1.2.49h1.26v-1h-1.21v.23s0,.07-.12.11a1.71,1.71,0,0,1-.38.13A2.35,2.35,0,0,1,123.52,27.35Zm.81.94v1.34h1.44V28.29Zm.23-4.56v1.1h1.21v-1.1Zm1.21,1.54h-1.21v1.11h1.21Zm.17,6.67-.33.59c-.15.27-.25.47-.32.6a9.2,9.2,0,0,1,1.65.29,6.13,6.13,0,0,0,1-1.74l-.6.09-.74.09Zm2.42-8.21h-1.29v1.1h1.29Zm0,2.65V25.27h-1.29v1.11Zm.21,1.91h-1.5v1.34h1.5Zm7.94-2.58h-.61A15.67,15.67,0,0,1,134,32.19,8.84,8.84,0,0,0,137,35l-.06.14a1.52,1.52,0,0,0-1.26,1.11,8.82,8.82,0,0,1-2.36-3,10.45,10.45,0,0,1-3.77,3l-.12-.19a11,11,0,0,0,3.38-4,19.52,19.52,0,0,1-1.08-4.77,11.43,11.43,0,0,1-1.26,1.88l-.23-.12A23,23,0,0,0,132,21.83l2.05.47c-.05.22-.24.34-.57.35a23.45,23.45,0,0,1-.76,2.6h1.87l.86-1.09c.62.5,1.13.93,1.52,1.29a.39.39,0,0,1-.41.26Zm-2.19,0h-1.81c-.08.19-.24.55-.49,1.06a15.44,15.44,0,0,0,1.31,4.15,17.8,17.8,0,0,0,1-5.21Z" transform="translate(-3.25 -4.25)" style="fill:#566c6c"/></g><g id="b37e6ccb-2238-4d08-ac35-1b68c6617240" data-name="Group 326"><path id="ad4ec832-6c57-4028-8045-a27e5e8709ce" data-name="Path 472" d="M221.4,15.89H221a9.91,9.91,0,0,1-2.89,2.95l-.2-.15a12.23,12.23,0,0,0,1.45-2.26,15.31,15.31,0,0,0,1.1-2.84l1.88.7a.56.56,0,0,1-.59.28c-.14.3-.3.59-.47.88h2.1l.75-1a14.53,14.53,0,0,1,1.32,1.17c0,.16-.16.24-.38.24h-3c.77.37,1.17.83,1.19,1.37a.67.67,0,0,1-.4.71.74.74,0,0,1-.86-.2A3.2,3.2,0,0,0,221.4,15.89Zm8.54,7,.78-.75,1.4,1.17a.88.88,0,0,1-.58.23c-.16,2-.58,3.19-1.24,3.65a3.07,3.07,0,0,1-1.65.41,1.39,1.39,0,0,0-.24-1,2.13,2.13,0,0,0-1.15-.47v-.23l1.61.09a.77.77,0,0,0,.49-.11c.31-.25.54-1.11.68-2.57h-4v4.35s-.05.09-.14.15a1.52,1.52,0,0,1-.42.16,2.16,2.16,0,0,1-.62.09h-.25V24.59a14.36,14.36,0,0,1-6.4,3.43l-.12-.2a13.88,13.88,0,0,0,3.17-2,11.4,11.4,0,0,0,2.32-2.53h-2.74c-.08.34-.17.7-.28,1.08a2.27,2.27,0,0,1-1.5,0c.47-1.52.87-3,1.18-4.48l1.57.73h2.81V18.75h-5l-.14-.46h9.75l.68-.73,1.49,1.11a1,1,0,0,1-.57.29v2.57c0,.06-.16.14-.45.25a2.15,2.15,0,0,1-.76.16h-.25v-.88H226v1.81Zm-9,0h3.65V21.06h-3.2l-.19.73c-.11.45-.19.81-.26,1.08Zm9.32-7.42.83-1c.6.47,1.1.88,1.49,1.23,0,.17-.17.25-.41.25h-3.79c.7.36,1,.79,1,1.29a.66.66,0,0,1-.45.65.73.73,0,0,1-.78-.18,3.41,3.41,0,0,0-.68-1.76h-.69a8.92,8.92,0,0,1-2.17,2l-.18-.15a12.43,12.43,0,0,0,1.88-4.2l2,.72q-.12.29-.6.27c-.25.42-.43.71-.55.88ZM226,18.75v1.87h3.32V18.75Z" transform="translate(-3.25 -4.25)" style="fill:#566c6c"/><path id="bdc01d54-8dd1-46f4-8c16-c1f100801628" data-name="Path 473" d="M234.9,20.12h11.16l1.15-1.59c.87.74,1.57,1.35,2.1,1.84,0,.18-.2.26-.49.26H235.05Z" transform="translate(-3.25 -4.25)" style="fill:#566c6c"/><path id="ac6a1503-3597-4e1d-a1c4-10e4c1d032ee" data-name="Path 474" d="M251.63,28.08l-.2-.17a9.92,9.92,0,0,0,2.35-4.07l1.9.81c-.1.19-.31.27-.64.24A8,8,0,0,1,251.63,28.08Zm11.83,0a1.74,1.74,0,0,0-.38-1.11,2.4,2.4,0,0,0-1.21-.41v-.25c1,.06,1.57.1,1.77.1s.35-.11.35-.32V22.12h-2.55a7.39,7.39,0,0,1-3.35,5.9l-.2-.15A8.23,8.23,0,0,0,260,23.49a.91.91,0,0,1-.23,0h-8.15l-.12-.44H253V16.57h-1.2l-.12-.44H253V13.81l1.89.2c0,.21-.2.34-.52.39v1.74h2.32V13.81l2,.2c-.05.23-.24.37-.55.42v1.7h.08l.6-.95c.48.45.85.84,1.13,1.15,0,.16-.16.24-.4.24h-1.41v6.51h.06l.68-1A14.54,14.54,0,0,1,260,23.14a22.44,22.44,0,0,0,.19-3.18V14.08l1.6.62h2.06l.69-.8,1.53,1.18a1.14,1.14,0,0,1-.65.34V26.21a2,2,0,0,1-.36,1.3,2.55,2.55,0,0,1-1.59.52Zm-6.73-11.47H254.4v1.74h2.33Zm-2.33,2.19v1.87h2.33V18.76Zm0,2.31v2h2.33v-2Zm1.72,3,.15-.1a3.17,3.17,0,0,1,2.37,1.53.89.89,0,0,1-.14,1.05.7.7,0,0,1-1,0l-.07,0a3.81,3.81,0,0,0-.48-1.28,6.33,6.33,0,0,0-.86-1.19Zm5.37-2.4H264v-3.1h-2.46V20c0,.57,0,1.14,0,1.72Zm2.5-6.51h-2.46v3H264Z" transform="translate(-3.25 -4.25)" style="fill:#566c6c"/><path id="b6aba541-3002-4b3f-8ea0-3290442d6e19" data-name="Path 475" d="M210.48,38.77a6.08,6.08,0,0,1,3.19-5.4l.19.22a6.75,6.75,0,0,0,0,10.37l-.19.21A6.08,6.08,0,0,1,210.48,38.77Z" transform="translate(-3.25 -4.25)" style="fill:#566c6c"/><path id="bf8fc01e-f71e-4d37-a967-725f7a927db9" data-name="Path 476" d="M215.81,34.67H221v.69l-3,7.77H217l-.13-.11,3.5-7.26h-4.52Z" transform="translate(-3.25 -4.25)" style="fill:#566c6c"/><path id="bb0da690-ca38-4b73-a9f3-d6f64fdc320f" data-name="Path 477" d="M222.6,45.16l3.4-11h.73l-3.38,11Z" transform="translate(-3.25 -4.25)" style="fill:#566c6c"/><path id="b604b1c6-bac6-486c-bdec-23dd8ac31206" data-name="Path 478" d="M231.67,42.54l1.72.22v.37h-4.75v-.37l1.77-.22c0-.91,0-1.61,0-2.08v-5l-1.61.15v-.44l2.71-.66.15.12,0,1.83v4C231.65,40.92,231.66,41.61,231.67,42.54Z" transform="translate(-3.25 -4.25)" style="fill:#566c6c"/><path id="e804c055-bb8a-4ecf-aa96-4b3fe6e23509" data-name="Path 479" d="M238.62,38.53a1.81,1.81,0,0,0,1.14.57c.49,0,.79-.42.88-1.26l.54.08a2.09,2.09,0,0,1-.43,1.32,1.36,1.36,0,0,1-1.07.44,1.61,1.61,0,0,1-.72-.16,4.12,4.12,0,0,1-.76-.53,1.66,1.66,0,0,0-1.13-.56c-.52,0-.82.41-.9,1.24l-.55-.07a2.1,2.1,0,0,1,.44-1.32,1.37,1.37,0,0,1,1.07-.45A2.29,2.29,0,0,1,238.62,38.53Z" transform="translate(-3.25 -4.25)" style="fill:#566c6c"/><path id="b6c24c00-9dac-42a4-b71b-3be9cc84e373" data-name="Path 480" d="M243.78,43.36,243.7,43a5.58,5.58,0,0,0,2.39-1.48,4.62,4.62,0,0,0,1.07-2.33,2.39,2.39,0,0,1-1.64.58,2.43,2.43,0,0,1-1.77-.69,2.48,2.48,0,0,1-.7-1.84,2.67,2.67,0,0,1,.78-2,2.76,2.76,0,0,1,2-.75,2.44,2.44,0,0,1,2,.93,4,4,0,0,1,.73,2.51,5.2,5.2,0,0,1-1.22,3.44A6.25,6.25,0,0,1,243.78,43.36Zm2.2-4.19a1.91,1.91,0,0,0,1.25-.46c0-.27,0-.52,0-.78a4.9,4.9,0,0,0-.4-2.24,1.22,1.22,0,0,0-1.09-.74,1.29,1.29,0,0,0-1.05.55,2.6,2.6,0,0,0-.42,1.58,2.39,2.39,0,0,0,.46,1.55,1.54,1.54,0,0,0,1.2.54Z" transform="translate(-3.25 -4.25)" style="fill:#566c6c"/><path id="a84ccd74-e9fb-419d-82b6-f699e41e2e90" data-name="Path 481" d="M250.06,45.16l3.39-11h.74l-3.38,11Z" transform="translate(-3.25 -4.25)" style="fill:#566c6c"/><path id="e185ff55-ae12-4d93-b64f-d7e91217973f" data-name="Path 482" d="M257.5,35l-.23.85c-.1.49-.34.73-.72.73a.57.57,0,0,1-.59-.39,1.78,1.78,0,0,1,.79-1.28,3,3,0,0,1,1.63-.44,2.73,2.73,0,0,1,1.79.56,1.85,1.85,0,0,1,.65,1.5,1.93,1.93,0,0,1-.47,1.3,2.71,2.71,0,0,1-1.37.81,2.55,2.55,0,0,1,1.57.79,2.14,2.14,0,0,1,.52,1.47,2.11,2.11,0,0,1-.79,1.71,3.1,3.1,0,0,1-2.09.67,3,3,0,0,1-1.71-.45,1.93,1.93,0,0,1-.78-1.35.62.62,0,0,1,.62-.43.59.59,0,0,1,.45.18,1.74,1.74,0,0,1,.27.66l.2.85a3,3,0,0,0,.67.08,1.83,1.83,0,0,0,1.4-.53,2,2,0,0,0,.5-1.41,2,2,0,0,0-.5-1.45,1.85,1.85,0,0,0-1.43-.52h-.56v-.5h.47a1.66,1.66,0,0,0,1.8-1.83,1.7,1.7,0,0,0-.4-1.22,1.41,1.41,0,0,0-1.12-.42A2.62,2.62,0,0,0,257.5,35Z" transform="translate(-3.25 -4.25)" style="fill:#566c6c"/><path id="b364f5d9-46d1-49e5-848a-388dfa5654aa" data-name="Path 483" d="M265.72,34.52a2.29,2.29,0,0,1,1.93,1.06,5.69,5.69,0,0,1,.77,3.27,5.93,5.93,0,0,1-.77,3.35,2.32,2.32,0,0,1-1.93,1.1,2.34,2.34,0,0,1-2-1.1,5.77,5.77,0,0,1-.77-3.35,5.52,5.52,0,0,1,.78-3.27A2.33,2.33,0,0,1,265.72,34.52Zm-1.47,4.33q0,4,1.47,4t1.44-4c0-2.59-.48-3.89-1.44-3.89s-1.47,1.3-1.47,3.89Z" transform="translate(-3.25 -4.25)" style="fill:#566c6c"/><path id="b7b31085-c622-4072-9576-dfeaba452021" data-name="Path 484" d="M270.26,33.59l.19-.22a6.17,6.17,0,0,1,0,10.8l-.19-.21a6.75,6.75,0,0,0,0-10.37Z" transform="translate(-3.25 -4.25)" style="fill:#566c6c"/></g><g id="f160663e-15ab-4af5-af4f-7a9ff2d4fcd5" data-name="Group 342"><path id="b6c0d659-7c0e-4ab5-ab35-3b6922e0144a" data-name="Path 500" d="M75.2,74.8a10,10,0,0,1-4,6.1,5.32,5.32,0,0,0-1-1,8,8,0,0,0,3.35-4.22h-3V74.48h3.59l.23,0Zm7.45-1.13a31.56,31.56,0,0,1-3.54,2.88,8.57,8.57,0,0,0,4,3.2,5.85,5.85,0,0,0-.9,1.15A9.65,9.65,0,0,1,77.42,76v4.14c0,.74-.17,1.11-.67,1.32a6.7,6.7,0,0,1-2.44.24,4.39,4.39,0,0,0-.46-1.3c.77,0,1.62,0,1.86,0s.32-.09.32-.32V73H72.35V71.77h5.07v1.11a14.45,14.45,0,0,0,1.08,2.68,21.59,21.59,0,0,0,3-2.76Zm-4-1.71a24,24,0,0,0-5.07-1.9L74.18,69a23.28,23.28,0,0,1,5.12,1.75Z" transform="translate(-3.25 -4.25)" style="fill:#566c6c"/><path id="f7a27b11-4ed2-464f-93dc-a315932c44ff" data-name="Path 501" d="M85.79,78.1a19.65,19.65,0,0,1-.69,3.56,5.54,5.54,0,0,0-1-.33,15.88,15.88,0,0,0,.64-3.42ZM88,77.52c0-.22-.08-.47-.14-.76a13.43,13.43,0,0,0-3.3.64,6.41,6.41,0,0,0-.36-1.07c.3-.09.59-.42,1-1a15.85,15.85,0,0,0,1-1.44,6.54,6.54,0,0,0-1.7.31,8.33,8.33,0,0,0-.37-1.06c.25,0,.46-.33.73-.76a17.55,17.55,0,0,0,1.6-3.5l1.08.44A20.91,20.91,0,0,1,85.7,73l1.17-.1c.32-.6.66-1.25.93-1.88l1,.59A26.32,26.32,0,0,1,86,76l1.7-.23c-.11-.41-.24-.85-.36-1.22l.89-.24A20.74,20.74,0,0,1,89,77.22Zm-1,.37a28.3,28.3,0,0,1,.36,3.19l-1,.18a26.77,26.77,0,0,0-.3-3.22Zm1.21-.35A22.11,22.11,0,0,1,89,80.07l-.88.28a20.68,20.68,0,0,0-.68-2.57Zm6,2.2c1,.35,2,.76,2.71,1.07l-.53.92c-.74-.35-1.91-.88-3-1.27l.42-.72H91.62l.77.71c-1.06.49-2.41,1-3.39,1.36a5.18,5.18,0,0,0-.48-.9,26.59,26.59,0,0,0,2.82-1.17h-2v-4.1h6.91v4.1Zm-2-9.22H88.78v-.88h3.43V69h1.26v.68h3.26v.88H93.47v.61h2.78V72H89.32v-.84h2.89Zm-3.36,1.92h7.83v2.67H88.85Zm1.07,1.84h1.31v-1H89.92Zm.54,2.59H95v-.5H90.46Zm0,1.06H95v-.52H90.46Zm0,1.1H95v-.56H90.46Zm3-4.75v-1H92.22v1Zm2.12-1H94.42v1h1.13Z" transform="translate(-3.25 -4.25)" style="fill:#566c6c"/><path id="befa52e4-6064-41e3-948b-a6a8fcb7bfb6" data-name="Path 502" d="M102.4,77.1l.24,1.18c-1.43.61-3,1.24-4.16,1.73l-.4-1.32,1.65-.59V73.53H98.19V72.3h1.54V69.13h1.16V72.3h1.48v1.23h-1.48v4.14Zm8.5-2.75v1.17h-8.57V74.35h5.12a17.75,17.75,0,0,0,.88-2.67l1.2.32c-.28.78-.61,1.66-.91,2.35Zm-.45-2.69h-7.6V70.51h3.24a11,11,0,0,0-.37-1.42l1.17-.2a12.35,12.35,0,0,1,.45,1.61h3.11Zm-7,4.92h6.32v5.1h-1.22v-.49h-3.92v.55h-1.18Zm1-2.28a9.28,9.28,0,0,0-.68-2.25l1.06-.32a11.62,11.62,0,0,1,.74,2.2Zm.22,3.44v2.31h3.92V77.74Z" transform="translate(-3.25 -4.25)" style="fill:#566c6c"/><path id="b26417db-815d-4a98-a50b-a6afbd0bb373" data-name="Path 503" d="M124.12,71.92s0,.46,0,.64c-.3,5.64-.57,7.7-1.18,8.41a1.69,1.69,0,0,1-1.28.64,16.45,16.45,0,0,1-2.22,0,3.25,3.25,0,0,0-.46-1.34c.92.09,1.77.09,2.12.09a.8.8,0,0,0,.64-.21c.47-.45.76-2.35,1-6.91h-4.36a10.09,10.09,0,0,1-5.11,8.58,5.48,5.48,0,0,0-1-1A9,9,0,0,0,117,73.24h-4.31V71.92H117V69h1.37v2.93Z" transform="translate(-3.25 -4.25)" style="fill:#566c6c"/><path id="f545c8c5-dd8b-45cb-ab98-330862fe2c39" data-name="Path 504" d="M134.05,74.42v.11h4s0,.39,0,.57c-.16,4-.32,5.48-.76,6a1.36,1.36,0,0,1-1.07.53,17.75,17.75,0,0,1-1.93,0,2.8,2.8,0,0,0-.41-1.28c.75.07,1.46.09,1.75.09a.67.67,0,0,0,.54-.19c.27-.29.44-1.5.57-4.5H134a7.71,7.71,0,0,1-3.58,6,5.93,5.93,0,0,0-1-.89,7.13,7.13,0,0,0,3.32-6.48V72.58h-2.15v1h-1.52v3.74l1.65-.61.23,1.22c-1.63.62-3.38,1.31-4.73,1.81l-.31-1.34c.53-.17,1.19-.4,1.91-.65V73.58h-1.67V72.36h1.67V69.18h1.25v3.18h1.48v-1h8.19v1.24h-4.71Zm.35-3.14a15.91,15.91,0,0,0-.63-2.14l1.23-.26c.23.66.55,1.52.68,2.05Z" transform="translate(-3.25 -4.25)" style="fill:#566c6c"/></g><g id="ef3e43a8-e0c8-41c2-b2e2-fdfbcdc41223" data-name="Group 340"><path id="eb514fe9-688f-4364-87dc-c6a18b758685" data-name="Path 505" d="M229.94,71.75h-4.82V70.4h6.6v1c-2.41,3-2.79,5.27-2.95,9.28h-1.65C227.31,76.9,228,74.51,229.94,71.75Z" transform="translate(-3.25 -4.25)" style="fill:#566c6c"/><path id="b0194a47-631d-477d-bde7-2351a8631a45" data-name="Path 506" d="M243.87,80c0,.84-.23,1.24-.78,1.45a9.37,9.37,0,0,1-3,.27,5.64,5.64,0,0,0-.56-1.37c1.09.06,2.2,0,2.53,0s.42-.11.42-.4V77.53h-6.32a7.72,7.72,0,0,1-2.38,4.24,5.24,5.24,0,0,0-1-1c2.17-1.87,2.38-4.6,2.38-6.78V69.66h8.68Zm-1.37-3.72V74.21h-6a17.66,17.66,0,0,1-.13,2.06Zm-6-5.36V73h6V70.91Z" transform="translate(-3.25 -4.25)" style="fill:#566c6c"/><path id="bf70c56d-9d32-4277-8697-1027d0145176" data-name="Path 507" d="M251.65,78.21c-.26-.42-.82-1.11-1.32-1.74v5.28H249V76.62a10.53,10.53,0,0,1-1.56,1.5,5.57,5.57,0,0,0-.65-1.26,12.59,12.59,0,0,0,3.58-4.33h-3.25V71.36h2.54a13.76,13.76,0,0,0-1.16-1.86l1-.57a11.32,11.32,0,0,1,1.24,1.83l-.93.6h1.28l.2-.06.72.52a15.82,15.82,0,0,1-1.65,3.09V75c.11.12.23.23.37.37A11.63,11.63,0,0,0,251.78,74l.87.72c-.48.44-1,.89-1.35,1.23.48.5,1,1,1.12,1.2Zm7.48-8.11s0,.49,0,.67c-.17,7.07-.32,9.45-.84,10.16a1.43,1.43,0,0,1-1.14.68,13.49,13.49,0,0,1-2,0,2.74,2.74,0,0,0-.39-1.24c.81.07,1.5.07,1.83.07a.55.55,0,0,0,.54-.25c.43-.49.6-2.8.74-8.87h-2.31c-.21,4.86-.87,8.23-3.4,10.4a6,6,0,0,0-1-1c2.41-1.84,3-5,3.11-9.4h-2V70.11Z" transform="translate(-3.25 -4.25)" style="fill:#566c6c"/></g><g id="b74db825-22b4-4618-a6ef-0484819ad0b5" data-name="Group 332"><path id="a3571727-83bd-4041-9954-6d158f9a29c5" data-name="Path 512" d="M29.35,124.66a8.12,8.12,0,0,0,5.57,5,4.91,4.91,0,0,0-.87,1.2,9,9,0,0,1-5.59-5.15c-.7,2-2.24,3.85-5.57,5.16a4.76,4.76,0,0,0-.85-1.1c3.4-1.31,4.76-3.24,5.29-5.11H22.44v-1.33h5.15a12.21,12.21,0,0,0,.07-1.35v-1.52H23v-1.33H33.88v1.34H29V122a12.45,12.45,0,0,1-.06,1.34h5.5v1.32Z" transform="translate(-3.25 -4.25)" style="fill:#768e91"/><path id="e02fdd30-fabe-4477-93d3-4223fa67c9a8" data-name="Path 513" d="M42.77,120.45v2.35l.23-.27a31.39,31.39,0,0,1,4.85,2.84l-1,1.18a30.34,30.34,0,0,0-4.13-2.67v7H41.39V120.45H36.22v-1.32h12.3v1.32Z" transform="translate(-3.25 -4.25)" style="fill:#768e91"/><path id="f5592b52-7942-48bf-8143-e04ab3498d9f" data-name="Path 514" d="M54.06,126.58c0-.21-.09-.43-.14-.7-2.87.42-3.33.53-3.61.68q-.16-.59-.39-1.17c.31-.07.61-.4,1-.9a12.73,12.73,0,0,0,1-1.39,7,7,0,0,0-1.76.32,10.32,10.32,0,0,0-.37-1.11c.25-.06.47-.34.76-.76a16.46,16.46,0,0,0,1.75-3.45l1.15.47a21.68,21.68,0,0,1-2,3.53l1.22-.1a18.63,18.63,0,0,0,1-1.81l1.09.64a26.52,26.52,0,0,1-3,4.3l1.87-.24c-.13-.42-.27-.85-.42-1.24l1-.26a21.46,21.46,0,0,1,.89,2.82Zm-2.51.68a18.1,18.1,0,0,1-.68,3.49,4.87,4.87,0,0,0-1-.39,14.19,14.19,0,0,0,.63-3.28Zm1.38-.2A25.66,25.66,0,0,1,53.3,130l-1,.21a26.11,26.11,0,0,0-.34-2.92Zm1.31-.39a17.66,17.66,0,0,1,.68,2.25l-.93.32a18.07,18.07,0,0,0-.64-2.29Zm8.38,2.73v1.19h-7.9V129.4h3.34v-2.34H55.42v-1.15h6.64v1.15h-2.7v2.34Zm-6-3.85a13.46,13.46,0,0,0-1.64-2.73,22.71,22.71,0,0,0,1.44-2.54l1.12.28c-.38.71-.9,1.56-1.35,2.23a16,16,0,0,1,1.49,2.31Zm5.89-5.62H55.1v-1.16h7.37Zm-2.62.64a23.65,23.65,0,0,1-1.36,2.2A15.77,15.77,0,0,1,60,125l-1,.46a13.42,13.42,0,0,0-1.72-2.7,21.69,21.69,0,0,0,1.49-2.5Zm1.56,5a13.48,13.48,0,0,0-1.84-2.73,21.6,21.6,0,0,0,1.54-2.53l1.12.29c-.42.71-.94,1.55-1.4,2.22a14.61,14.61,0,0,1,1.62,2.27Z" transform="translate(-3.25 -4.25)" style="fill:#768e91"/><path id="ee472a6c-4640-477c-8da3-1f658eb62cf8" data-name="Path 515" d="M65.83,124.46a11.88,11.88,0,0,0-2.08-1.58l.62-.77a12.15,12.15,0,0,1,2.13,1.49Zm-1.92,5.62c.5-1.05,1.23-2.82,1.77-4.33l.84.62c-.48,1.42-1.1,3.07-1.65,4.33Zm2.22-9.22a11.69,11.69,0,0,0-2-1.84l.68-.74a12,12,0,0,1,2,1.77ZM73.91,125h1.22v5.89H73.91v-2.05H69.09a3.71,3.71,0,0,1-1.5,2.06,5,5,0,0,0-1-.68,3.9,3.9,0,0,0,1.56-3.41V125H69.4v.83h4.52Zm-5.07-2.72a3.77,3.77,0,0,1-1.58,2.74,2.9,2.9,0,0,0-.53-.68A2.83,2.83,0,0,0,68,122.32h-.71v-.85h3.12v.38c-.06,1.71-.1,2.41-.31,2.66a.75.75,0,0,1-.59.29,6.44,6.44,0,0,1-.76,0,2.43,2.43,0,0,0-.22-.84,3.94,3.94,0,0,0,.6,0,.24.24,0,0,0,.23-.11,5.07,5.07,0,0,0,.16-1.6Zm2-1.83H67.19v-1H71a10.78,10.78,0,0,0-.29-1.25l1.2-.16a8.61,8.61,0,0,1,.37,1.41h4.1v1H72.67l.79.27c-.43.46-.92.93-1.35,1.31h0V125h-1v-2.87h0a10.86,10.86,0,0,0,1.37-1.58H70.87a3.85,3.85,0,0,1,.61,1.08l-.74.35a4.57,4.57,0,0,0-.57-1.15Zm3.07,7.36v-1H69.4c0,.32,0,.64-.05,1ZM76,121.58a7.47,7.47,0,0,1-.85.39,4.22,4.22,0,0,0,1.37,2.27,2.56,2.56,0,0,0-.57.66,5.15,5.15,0,0,1-1.45-2.7l-.67.18v1.54l.92-.26c0,.21.1.53.13.68a8.9,8.9,0,0,0-1.79.71h0a3.49,3.49,0,0,0-.39-.8c.16-.1.33-.33.33-.87v-1.54h0a8.62,8.62,0,0,0,2.21-.87Z" transform="translate(-3.25 -4.25)" style="fill:#768e91"/><path id="b63a6b7d-7084-4348-b112-a3305832235b" data-name="Path 516" d="M82.1,121.48H77.78v-1h2.15a13.54,13.54,0,0,0-1-1.88l1-.51A14.38,14.38,0,0,1,81,119.88l-1,.57H82.1Zm-.31,8.62H79.24v.63H78.18V126h3.61Zm-.07-6.78H78.27v-1h3.45Zm-3.45.84h3.45v1H78.27Zm1,2.91v2h1.49v-2Zm7.89-8.33-.27.43a8.51,8.51,0,0,0,3.82,2.9,5.41,5.41,0,0,0-.91,1.17,10.62,10.62,0,0,1-1.27-.72v.54H83.84v-.6a13.12,13.12,0,0,1-1.39,1,5,5,0,0,0-.77-1.2,10.7,10.7,0,0,0,4.45-4.14Zm2.59,10.89c0,.5-.07.82-.35,1a2.32,2.32,0,0,1-1.24.21,3.6,3.6,0,0,0-.28-1.07h.67c.1,0,.14,0,.14-.15v-1.74H87.6v2.69h-.92v-2.69h-1v2.69h-.92v-2.69h-1V131H82.71v-6.88h7Zm-5-2.83v-1.66h-1v1.66Zm3-4.84a9.7,9.7,0,0,1-1.63-1.82A13.54,13.54,0,0,1,84.44,122Zm-1.12,4.84v-1.66h-1v1.66Zm2,0v-1.66H87.6v1.66Z" transform="translate(-3.25 -4.25)" style="fill:#768e91"/><path id="bc60f3ef-c3ec-487c-a199-068361dc55ab" data-name="Path 517" d="M96,127.56c-1.36.55-2.81,1.17-4,1.61l-.43-1.32c.48-.15,1.05-.35,1.66-.56v-4.6H91.87v-1.22h1.42v-3.19H94.5v3.19h1.13v1.22H94.5v4.15l1.28-.46Zm8.33,2.08v1H95.05v-1Zm-.1-9.37H95.39v-1h3.74a5.34,5.34,0,0,0-.57-.86l1-.49a5.51,5.51,0,0,1,.88,1.35h3.77Zm-.61,4.88h-7.6v-4.38h7.6Zm-7.19,4v-3.46h6.67v3.46Zm6.07-7.55H97.1v2.79h5.43ZM97.65,127h4.24v-.65H97.65Zm0,1.35h4.24v-.66H97.65Zm4-4.5H97.91v-1.82h3.79Zm-.91-1.2h-2v.58h2Z" transform="translate(-3.25 -4.25)" style="fill:#768e91"/><path id="a391c150-be64-4938-b84d-f22df73abec5" data-name="Path 518" d="M109,124.71c0-3.34,2-5.34,4.63-5.34a3.91,3.91,0,0,1,2.91,1.3l-.88,1a2.71,2.71,0,0,0-2-.92c-1.77,0-3,1.47-3,3.88s1.14,3.93,3,3.93a3,3,0,0,0,2.27-1.09l.86,1a4,4,0,0,1-3.19,1.48C111,130,109,128.07,109,124.71Z" transform="translate(-3.25 -4.25)" style="fill:#768e91"/><path id="adcd2164-aa30-48da-827e-373ca494e9d0" data-name="Path 519" d="M117.4,119.56h1.67l1,5.33.55,3.29h0c.23-1.1.46-2.2.7-3.29l1.32-5.33h1.43l1.33,5.33c.24,1.08.46,2.18.7,3.29h.07c.17-1.11.35-2.21.52-3.29l1-5.33h1.55l-2,10.25h-2l-1.38-5.7c-.18-.81-.34-1.57-.48-2.35h-.07c-.14.78-.3,1.54-.47,2.35l-1.35,5.7h-1.95Z" transform="translate(-3.25 -4.25)" style="fill:#768e91"/><path id="b320188b-6418-41a7-9f5f-d89d7d941157" data-name="Path 520" d="M130.9,119.56h6v1.35h-4.44v2.86h3.76v1.36h-3.76v3.32h4.6v1.36H130.9Z" transform="translate(-3.25 -4.25)" style="fill:#768e91"/><path id="b1b1da1e-4a2f-41c5-b9ad-c73f7351e173" data-name="Path 521" d="M139.26,119.56h6.07v1.35h-4.46v3.14h3.79v1.35h-3.79v4.41h-1.61Z" transform="translate(-3.25 -4.25)" style="fill:#768e91"/><path id="fe550cd7-049d-4f7f-a2dd-f266a5176795" data-name="Path 522" d="M157.38,126.76a7.53,7.53,0,0,1-2.83,2.36,27.54,27.54,0,0,0,4.52.58,5.63,5.63,0,0,0-.62,1,22.42,22.42,0,0,1-5.45-1,25,25,0,0,1-5.63,1.13,3.37,3.37,0,0,0-.46-1,25.88,25.88,0,0,0,4.57-.71,10.44,10.44,0,0,1-1.85-1.16,11.85,11.85,0,0,1-1.84,1,3.35,3.35,0,0,0-.81-.87,12.7,12.7,0,0,0,1.8-.92,8.64,8.64,0,0,1-.72-.88L149,126a3.8,3.8,0,0,0,.57.7,7,7,0,0,0,1-1h-2.41v-5.2h3.61l.15-.68h-5v-1.07h11.74v1.06h-5.28c-.1.25-.18.47-.26.68h4.27v5.2H152c-.17.22-.32.43-.5.65h4.85l.22,0Zm-8-4.83h6.65v-.68h-6.65Zm0,1.47h6.65v-.7h-6.65Zm0,1.48h6.65v-.7h-6.65Zm1,2.54a10,10,0,0,0,2.59,1.26,8.17,8.17,0,0,0,2.47-1.44h-4.83Z" transform="translate(-3.25 -4.25)" style="fill:#768e91"/><path id="a7353d36-4e20-4b74-9d2a-56ec2b282409" data-name="Path 523" d="M166,122.29a13.49,13.49,0,0,1-4.94,3.09,5.53,5.53,0,0,0-.82-1,13.15,13.15,0,0,0,4.43-2.32H160.6V121H166v-1.14c-1.43.11-2.91.18-4.26.2a4.16,4.16,0,0,0-.29-1,53.93,53.93,0,0,0,8.88-.83l1.08.92a34.23,34.23,0,0,1-4.14.64V121h5.52v1.1H169a30.65,30.65,0,0,1,4.08,2.7l-.84.9a34.84,34.84,0,0,0-5-3.36v1.88H166Zm1.34,4.76h5.46v1.12h-5.46v1.37c0,.69-.17,1-.7,1.17a10,10,0,0,1-2.56.17,4.76,4.76,0,0,0-.45-1.13c.92,0,1.86,0,2.1,0s.34-.07.34-.25v-1.36h-5.5v-1.11h5.5v-.8a13.38,13.38,0,0,0,1.61-.68h-4.75v-1h6.33l.27-.07.8.68a14.17,14.17,0,0,1-3,1.6Z" transform="translate(-3.25 -4.25)" style="fill:#768e91"/><path id="b6091a4b-1c34-43f7-b8e3-a74ebe846e0b" data-name="Path 524" d="M178.69,126.48c-1.39.71-2.9,1.47-4.07,2l-.5-1.3,1.81-.75V122.3H174.4v-1.23h1.53v-2.81h1.2v2.81h1.41v1.23h-1.41v3.62l1.28-.58Zm2.7-1.64a5.5,5.5,0,0,1-.52.83h5.83l0,.49c-.23,2.79-.43,3.88-.81,4.29a1.19,1.19,0,0,1-.84.39,10.72,10.72,0,0,1-1.39,0,2.53,2.53,0,0,0-.29-1.05,9.82,9.82,0,0,0,1.09.06c.21,0,.32,0,.43-.16s.39-1,.55-3h-.83a9.63,9.63,0,0,1-2.8,4.23,4.63,4.63,0,0,0-.93-.72,8.05,8.05,0,0,0,2.64-3.51h-1.1a10.79,10.79,0,0,1-3.31,3.64,3.58,3.58,0,0,0-.87-.78,9,9,0,0,0,3-2.86h-1.17a9.73,9.73,0,0,1-1.71,1.49,7.55,7.55,0,0,0-.88-.81,7.52,7.52,0,0,0,2.64-2.56h-1.79v-1.1H187v1.1Zm4.65-1.77h-6.43V118.5H186Zm-1.2-3.64h-4.07v.91h4.07Zm0,1.79h-4.07v.92h4.07Z" transform="translate(-3.25 -4.25)" style="fill:#768e91"/></g><g id="b1405659-fe81-4af9-8484-c7b51c9ade57" data-name="Group 334"><path id="a148a8ad-ebc6-404b-9b00-b4cd535b5262" data-name="Path 527" d="M78.29,171.42c0-3.34,2-5.35,4.62-5.35a4,4,0,0,1,2.91,1.3l-.87,1a2.75,2.75,0,0,0-2-.92c-1.77,0-3,1.48-3,3.89s1.14,3.92,3,3.92a3,3,0,0,0,2.27-1.08l.86,1a4,4,0,0,1-3.19,1.48C80.27,176.7,78.29,174.77,78.29,171.42Z" transform="translate(-3.25 -4.25)" style="fill:#566c6c"/><path id="ac9b3bc1-066d-4ec5-99c3-33b0a5a431de" data-name="Path 528" d="M86.73,175.19l1-1.11a3.94,3.94,0,0,0,2.72,1.21c1.24,0,1.94-.58,1.94-1.45s-.7-1.22-1.64-1.64l-1.42-.62a2.92,2.92,0,0,1-2.09-2.68c0-1.62,1.42-2.83,3.37-2.83a4.37,4.37,0,0,1,3.1,1.3l-.85,1a3.21,3.21,0,0,0-2.25-.92c-1,0-1.73.5-1.73,1.32s.82,1.21,1.66,1.55l1.4.6A2.86,2.86,0,0,1,94,173.72c0,1.65-1.36,3-3.6,3A5.1,5.1,0,0,1,86.73,175.19Z" transform="translate(-3.25 -4.25)" style="fill:#566c6c"/><path id="e5bf77ab-7784-4afe-a84d-9680308a5ec6" data-name="Path 529" d="M101.52,176.52l-2.33-4.14H97.54v4.14H95.92V166.26h3.36c2.11,0,3.7.76,3.7,3a2.86,2.86,0,0,1-2.15,2.94l2.51,4.35Zm-4-5.44h1.54c1.49,0,2.3-.61,2.3-1.85s-.81-1.67-2.3-1.67H97.54Z" transform="translate(-3.25 -4.25)" style="fill:#566c6c"/><path id="b102a1fe-5a48-419a-aa3e-6c5609812a13" data-name="Path 530" d="M115.52,176.33c.38,0,.46-.22.5-1.65a3.59,3.59,0,0,0,1.06.46c-.11,1.8-.42,2.25-1.45,2.25H114c-1.22,0-1.53-.33-1.53-1.49v-1.42a6.55,6.55,0,0,1-3.76,3.15,3.06,3.06,0,0,0-.74-1,5.66,5.66,0,0,0,4-4h-2.54v-3l-.07.07a3.35,3.35,0,0,0-.74-.81V175h-2.66V176h-1.12v-10.2h3.78v2.81a9.42,9.42,0,0,0,2.47-3.79l1.28.2c-.11.31-.25.62-.39.94h2.62l.22-.06,1,.32a21.27,21.27,0,0,1-1.43,2.12h2v4.26h-2.67v3.26c0,.4.07.44.51.44ZM105.9,167v2.78h1.53V167Zm1.53,6.81v-2.9H105.9v2.9Zm3.94-6.76a13.14,13.14,0,0,1-.86,1.33h2.33a14.13,14.13,0,0,0,1-1.33Zm.75,4.57a20.77,20.77,0,0,0,.21-2.23h-1.81v2.23Zm3-2.23h-1.59a20.77,20.77,0,0,1-.21,2.23h1.8Z" transform="translate(-3.25 -4.25)" style="fill:#566c6c"/><path id="a7c2617e-f9e1-416d-aedf-12293ce9d606" data-name="Path 531" d="M127.67,174.23a6.13,6.13,0,0,1-1.48,1.44c1.67.37,3.19.78,4.33,1.14l-1.09.81a38.13,38.13,0,0,0-4.48-1.26,18.9,18.9,0,0,1-5.93,1.27,3,3,0,0,0-.5-1,22.25,22.25,0,0,0,4.44-.66c-.89-.18-1.82-.36-2.76-.53a13.48,13.48,0,0,0,1.1-1.17h-2.87v-1h3.7A14.64,14.64,0,0,0,123,172l1.24.35c-.18.31-.4.6-.62.91h3.28a5.13,5.13,0,0,0,.34-.66l1.2.35-.14.3h2.38v1Zm-7.78-5.64h-1.24v-2.66H124a6.27,6.27,0,0,0-.43-.86l1.28-.25a7.4,7.4,0,0,1,.6,1.11h5.11v2.66h-1.3V167h-9.36ZM128.4,172h-7.66V167.8h7.66Zm-1.26-3.3H122v.81h5.17Zm0,1.62H122v.83h5.17Zm-4.35,3.95c-.2.22-.39.43-.56.64.78.14,1.58.3,2.34.45a5.43,5.43,0,0,0,1.55-1.09Z" transform="translate(-3.25 -4.25)" style="fill:#566c6c"/></g><g id="a4300c84-cd87-4241-90dc-d2dd08db5d2a" data-name="Group 348"><g id="fbc4209e-ef34-44a4-a1f2-c030eac81d3c" data-name="Group 347"><path id="f87d30d1-cda3-46df-a50c-94711787ad82" data-name="Path 534" d="M49.67,218.07a8.12,8.12,0,0,0,5.57,5,4.91,4.91,0,0,0-.87,1.2,9,9,0,0,1-5.59-5.16c-.7,1.95-2.24,3.86-5.57,5.17a4.56,4.56,0,0,0-.85-1.1c3.4-1.31,4.76-3.24,5.29-5.11H42.76v-1.33H47.9a10.18,10.18,0,0,0,.07-1.35v-1.52h-4.7v-1.33H54.2v1.34H49.33v1.53c0,.42,0,.88-.06,1.34h5.5v1.32Z" transform="translate(-3.25 -4.25)" style="fill:#768e91"/><path id="ba16f55e-007f-40db-bc7d-857d1d572329" data-name="Path 535" d="M63.09,213.86v2.35l.24-.27a31.77,31.77,0,0,1,4.84,2.84L67.23,220a30.1,30.1,0,0,0-4.14-2.67v7H61.71V213.86H56.54v-1.32h12.3v1.32Z" transform="translate(-3.25 -4.25)" style="fill:#768e91"/><path id="f8805012-e1b5-4163-8d07-e0e0f18f704c" data-name="Path 536" d="M75.15,217.37a10,10,0,0,1-4,6.1,5.62,5.62,0,0,0-1-1,8.12,8.12,0,0,0,3.35-4.22h-3v-1.22h3.6l.22-.05Zm7.45-1.13a33.69,33.69,0,0,1-3.53,2.89,8.56,8.56,0,0,0,4,3.2,5.52,5.52,0,0,0-.9,1.14,9.67,9.67,0,0,1-4.82-4.86v4.13c0,.74-.17,1.12-.67,1.33a6.92,6.92,0,0,1-2.44.23,4.69,4.69,0,0,0-.46-1.3c.77,0,1.62,0,1.86,0s.31-.08.31-.32v-7.13H72.3v-1.24h5.07v1.11a14.17,14.17,0,0,0,1.08,2.68,21,21,0,0,0,3-2.76Zm-4-1.71a24.12,24.12,0,0,0-5.06-1.9l.64-1.07a24.29,24.29,0,0,1,5.11,1.75Z" transform="translate(-3.25 -4.25)" style="fill:#768e91"/><path id="f8a5aa24-ecd6-4736-bc3c-188781ea7177" data-name="Path 537" d="M85.74,220.67a20.34,20.34,0,0,1-.68,3.56,5.65,5.65,0,0,0-1-.33,15.9,15.9,0,0,0,.64-3.41ZM88,220.1c0-.23-.08-.48-.13-.77a13.27,13.27,0,0,0-3.3.64,8,8,0,0,0-.37-1.07c.3-.08.59-.42,1-1a17.22,17.22,0,0,0,1-1.43,6.52,6.52,0,0,0-1.7.3,8.33,8.33,0,0,0-.37-1.06c.26,0,.46-.33.73-.76a17.29,17.29,0,0,0,1.6-3.5l1.08.44a20.91,20.91,0,0,1-1.85,3.58l1.17-.1c.32-.6.66-1.25.93-1.88l1,.59a25.3,25.3,0,0,1-2.81,4.43l1.7-.22c-.11-.42-.24-.85-.36-1.23l.89-.24a21.11,21.11,0,0,1,.76,2.91Zm-1,.36a28.3,28.3,0,0,1,.36,3.19l-1,.18a29,29,0,0,0-.29-3.22Zm1.21-.35a22.28,22.28,0,0,1,.72,2.54l-.88.27a20.68,20.68,0,0,0-.68-2.57Zm6,2.2c1,.35,2,.77,2.71,1.07l-.52.92c-.74-.35-1.91-.88-3-1.27l.42-.72H91.57l.77.71c-1.06.49-2.41,1-3.38,1.37a5.66,5.66,0,0,0-.49-.91,23.93,23.93,0,0,0,2.82-1.17h-2v-4.1h6.91v4.1Zm-2-9.22H88.73v-.88h3.43v-.68h1.27v.68h3.25v.88H93.43v.61H96.2v.84H89.27v-.84h2.89ZM88.8,215h7.83v2.68H88.8Zm1.07,1.84h1.31v-1H89.87Zm.55,2.59H95v-.5H90.42Zm0,1.06H95V220H90.42Zm0,1.1H95V221H90.42Zm3-4.75v-1H92.17v1Zm2.12-1H94.37v1H95.5Z" transform="translate(-3.25 -4.25)" style="fill:#768e91"/><path id="e62e46b8-ef6e-42d1-8fd9-e4768240aca7" data-name="Path 538" d="M110.75,221.24h-4.88v3.08h-1.34v-3.08H98.19V220h2.24v-3.68h4.1v-1.92h-3.19a12.64,12.64,0,0,1-2,2.65,10,10,0,0,0-1.13-.84,11.29,11.29,0,0,0,3-4.72l1.31.35c-.17.43-.37.89-.55,1.31h8.07v1.25h-4.21v1.92h3.89v1.22h-3.89V220h4.89ZM104.53,220v-2.47h-2.8V220Z" transform="translate(-3.25 -4.25)" style="fill:#768e91"/><path id="be2af00b-69dd-4b7d-9ce0-dfce4803983d" data-name="Path 539" d="M114.45,216.55c0,2.26-.17,5.56-1.32,7.76a5.84,5.84,0,0,0-1.17-.59c1.11-2.09,1.22-5.08,1.22-7.17v-3.7h5.26a9.36,9.36,0,0,0-.47-1.07l1.3-.31a10.84,10.84,0,0,1,.64,1.38h4.71v1.2H114.45Zm9.18,3.3a6.64,6.64,0,0,1-2.69,2.64,18.18,18.18,0,0,0,3.87.7,6.08,6.08,0,0,0-.75,1.12,16.71,16.71,0,0,1-4.61-1.12,19.63,19.63,0,0,1-4.67,1.05,3.61,3.61,0,0,0-.53-1.1,19,19,0,0,0,3.82-.66,7.33,7.33,0,0,1-2-1.76l.54-.21h-1.69v-1h7.68l.22,0Zm-6.8-1.12v-2.22h-2.06v-1h2.06v-1.07h1.22v1.07h3v-1.07h1.27v1.07h2.13v1h-2.13v2.22Zm.54,1.77A6.69,6.69,0,0,0,119.5,222a6.57,6.57,0,0,0,2.2-1.48Zm.69-4v1.23h3v-1.22Z" transform="translate(-3.25 -4.25)" style="fill:#768e91"/><path id="f601e41c-a58f-4af1-836d-7ab49ebe0e5c" data-name="Path 540" d="M137.39,213.67v10.6H136v-.92H128.6v1h-1.3V213.67h3.42a15.05,15.05,0,0,0,.69-2.19l1.66.26c-.28.66-.59,1.34-.88,1.93ZM128.6,215v2.85H136V215Zm7.42,7.08v-3H128.6v3Z" transform="translate(-3.25 -4.25)" style="fill:#768e91"/><path id="bf7a7c61-e063-4fc2-aeb2-4839105587a9" data-name="Path 541" d="M151.33,217.34a9.61,9.61,0,0,1-3,4.38,13.08,13.08,0,0,0,4.29,1.43,6.28,6.28,0,0,0-.82,1.23,12.73,12.73,0,0,1-4.63-1.83,15.2,15.2,0,0,1-4.44,1.76,4,4,0,0,0-.75-1.2,14.61,14.61,0,0,0,4.11-1.41,10.63,10.63,0,0,1-2.5-3.57h-1a11.37,11.37,0,0,1-1.8,6.13,5.32,5.32,0,0,0-1.06-.83c1.45-1.93,1.59-4.68,1.59-6.68v-3.4H146v-1.82h1.32v1.83H151l.22-.06,1,.26a21.2,21.2,0,0,1-1.25,3l-1.2-.33a14.18,14.18,0,0,0,.67-1.62H147.3v2.33h2.92l.24,0Zm-8.72-.42H146V214.6h-3.37Zm2.36,1.22a8.65,8.65,0,0,0,2.28,2.82,7.77,7.77,0,0,0,2.33-2.82Z" transform="translate(-3.25 -4.25)" style="fill:#768e91"/><path id="b8577496-a059-43dd-816d-1b4c23fae3c3" data-name="Path 542" d="M166.36,218.49v.93H154v-.93h5.46v-.67H155V217h4.5v-.64h-4.16v-.82h4.16v-.68H154v-.94h5.44v-.66h-4v-.8h4v-.95h1.31v.95h3.91v1.46h1.65v.94H164.7v1.5h-3.91V217h4.6v.83h-4.6v.67ZM155.78,220h9v4.34h-1.31v-.4h-6.42v.42h-1.27Zm1.26.83v.7h6.43v-.7Zm6.43,2.24v-.73H157v.73Zm-2.68-9.16h2.63v-.67h-2.63Zm0,1.62h2.63v-.69h-2.63Z" transform="translate(-3.25 -4.25)" style="fill:#768e91"/></g><g id="a3249a2b-ce72-4686-a851-d2809e692982" data-name="Group 346"><path id="f0b937e9-5610-4220-8358-6612885a16ef" data-name="Path 543" d="M69,237.51H66.17v-1.17H69v-3h1.23v3h2.83v1.17H70.23v3H69Z" transform="translate(-3.25 -4.25)" style="fill:#768e91"/><path id="f0f1246a-bfdd-4499-8936-82d195b2f1cf" data-name="Path 544" d="M82.82,231.84a24.18,24.18,0,0,1,3.66,4l-1.08.81a11.7,11.7,0,0,0-.81-1.14c-7.66.4-8.55.43-9.18.65q-.18-.64-.42-1.26a2.55,2.55,0,0,0,1.14-.8,22,22,0,0,0,3.08-3.86l1.3.56a27.71,27.71,0,0,1-3.33,3.85l6.48-.27c-.6-.67-1.24-1.34-1.84-1.89ZM76,237.26h9v5.9H83.68v-.71H77.35v.74H76Zm1.31,1.24v2.7h6.33v-2.7Z" transform="translate(-3.25 -4.25)" style="fill:#768e91"/><path id="b110c093-d82d-4ee1-97a5-cbcd60c25cc9" data-name="Path 545" d="M92.53,238.93a15.22,15.22,0,0,0-1-1.5v5.74H90.26v-5.54a14.83,14.83,0,0,1-1.73,3.15,6.91,6.91,0,0,0-.64-1.2,14.4,14.4,0,0,0,2.27-4.16H88.25V234.2h2v-1.86c-.6.11-1.2.2-1.76.27a3.87,3.87,0,0,0-.37-1,18.94,18.94,0,0,0,4.2-1l.9,1a14.8,14.8,0,0,1-1.72.52v2.11h1.41V234h3.27v-.62H93.63v-.81h2.56V232H93.35v-.83h2.84v-.71h1.3v.71h3V232h-3v.6h2.69v.81H97.49V234h3.34v.85H93v.6H91.52v.68a24.12,24.12,0,0,1,1.76,1.81Zm7.56,2H95.45l1,.61a11.33,11.33,0,0,1-3.31,1.67,6.43,6.43,0,0,0-.82-.83,9.69,9.69,0,0,0,3-1.45H93.82v-5.55h6.27Zm-1.21-4.71H95V237h3.89Zm0,1.55H95v.76h3.89Zm0,1.55H95v.77h3.89Zm-.53,1.6c.92.53,2,1.19,2.63,1.62l-1.13.63c-.54-.42-1.51-1.09-2.36-1.62Z" transform="translate(-3.25 -4.25)" style="fill:#768e91"/><path id="ee852602-4533-43f3-9564-273d86315bba" data-name="Path 546" d="M103.7,235.6h-1.23v-3h5.25v-.74h-4.65v-.91H113.7v.91H109v.73h5.38v3h-1.3v-2.16H109v3h-1.27v-3h-4Zm9.12,6.4c.71,0,.85-.23.94-1.52a3.47,3.47,0,0,0,1.08.42c-.17,1.67-.53,2.11-1.93,2.11h-3.06c-1.71,0-2.18-.33-2.18-1.58v-.27h-2.73v.67H103.7v-4.9h9.44v4.23h-4.23v.25c0,.49.16.59,1,.59Zm-9-6.36c.88-.11,2.06-.29,3.3-.47l0,.77c-1.06.25-2.09.47-3,.64Zm.76-2.06a14.14,14.14,0,0,1,2.55.69l-.35.73a17.24,17.24,0,0,0-2.57-.75Zm.38,4.25v.79h2.73v-.79Zm2.73,2.42v-.8h-2.73v.8Zm4.21-2.42h-3v.79h3Zm0,2.42v-.8h-3v.8Zm.78-3.66a22.45,22.45,0,0,0-3.24-.77l.28-.73a16,16,0,0,1,3.22.67Zm0-2.38a16.93,16.93,0,0,1-2.62.72l-.43-.62c.75-.19,1.85-.58,2.51-.81Z" transform="translate(-3.25 -4.25)" style="fill:#768e91"/><path id="ebc71ae2-39ac-414e-b205-d36dff45abbd" data-name="Path 547" d="M127.52,236.37a4.6,4.6,0,0,0-.31-.63c-1.42.11-2.21.17-2.7.22a14.53,14.53,0,0,0,4.42,1.88,5.73,5.73,0,0,0-.82,1,13.86,13.86,0,0,1-5.87-3.38,12.33,12.33,0,0,1-5.58,3.48,6.55,6.55,0,0,0-.73-1,11.79,11.79,0,0,0,4.17-2l0-.1a14.4,14.4,0,0,0-3.07.3,9.47,9.47,0,0,0-.4-1,1,1,0,0,0,.51-.35,6.59,6.59,0,0,0,1.09-1.52l1.15.49a9.6,9.6,0,0,1-1,1.26l1.32-.06a6.19,6.19,0,0,0-.36-.57l.92-.29a10.23,10.23,0,0,1,.71,1.2,6.82,6.82,0,0,0,1.07-1.44l1.19.35c-.07.14-.16.28-.24.42a7.27,7.27,0,0,0,.56.55l0-.1a.77.77,0,0,0,.44-.33,4.79,4.79,0,0,0,.82-1.42l1.16.47a8.59,8.59,0,0,1-.81,1.16l1.56-.08a6,6,0,0,0-.5-.63l.92-.39a8.85,8.85,0,0,1,1.48,2.1ZM126,233.51c-.19-.22-.4-.44-.61-.64-6.22.27-6.91.25-7.43.42a10.34,10.34,0,0,0-.36-1.07,3.06,3.06,0,0,0,.88-.35,12.06,12.06,0,0,0,2.38-1.56l1.14.58a17.59,17.59,0,0,1-1.88,1.2l4.22-.12a12.47,12.47,0,0,0-1.14-.85l1-.48a18.39,18.39,0,0,1,2.87,2.33Zm.75,6.37c-1.75,1.85-4.93,2.84-8.45,3.33a3.42,3.42,0,0,0-.6-1.05c3.35-.37,6.46-1.21,8-2.8Zm-1.64-1.41a15.38,15.38,0,0,1-6.09,2.62,4.61,4.61,0,0,0-.67-.92,14.65,14.65,0,0,0,5.77-2.19Zm-1.55-1.32a14.4,14.4,0,0,1-4.44,2.07,5.34,5.34,0,0,0-.71-.79,13.57,13.57,0,0,0,4.22-1.75Z" transform="translate(-3.25 -4.25)" style="fill:#768e91"/><path id="e849e6ed-5ac2-4169-9bbd-4e7bacd889a2" data-name="Path 548" d="M135,233.77h-5v-1h2.33a14.22,14.22,0,0,0-.92-1.88l.92-.51a13.73,13.73,0,0,1,1,1.82l-.94.58H135Zm3.41.22c0,.64,0,1.27-.1,1.88H142s0,.39,0,.57c-.18,4.08-.33,5.6-.75,6.11a1.32,1.32,0,0,1-1,.52,12.63,12.63,0,0,1-1.74,0,3.42,3.42,0,0,0-.37-1.24,13.06,13.06,0,0,0,1.53.07.5.5,0,0,0,.5-.18c.26-.29.44-1.53.57-4.65h-2.55c-.29,2.51-1,4.71-2.95,6.16a3.44,3.44,0,0,0-.81-.89v0h-2.88V243h-1v-4.71h3.9v4c2.44-1.77,2.67-5,2.74-8.3h-1.81v-1.22h3.2a15.68,15.68,0,0,0-.58-2l1.08-.31a12.08,12.08,0,0,1,.73,2.2l-.18.06h2.95V234Zm-4,.6v1h-3.9v-1Zm-3.9,1.84h3.92v1h-3.92Zm2.87,2.92h-1.85v2h1.85Z" transform="translate(-3.25 -4.25)" style="fill:#768e91"/></g></g><g id="a1f8649e-3d6c-4e11-a6ac-73fe1e0499af" data-name="Group 337"><path id="bd50cfe1-d1c5-4a9e-8fad-ec84c0a78a10" data-name="Path 549" d="M270.83,230.86h2.24v-7.13h-1.83v-1a6.07,6.07,0,0,0,2.22-.78h1.22v8.93h2v1.32h-5.85Z" transform="translate(-3.25 -4.25)" style="fill:#768e91"/><path id="adaf6f5c-3f6b-4bd8-bc61-06dd3b709023" data-name="Path 550" d="M278.19,231.26c3-2.68,4.58-4.67,4.58-6.36a1.67,1.67,0,0,0-1.45-1.87H281a2.79,2.79,0,0,0-2,1.14l-.91-.89a4,4,0,0,1,3.12-1.53,2.9,2.9,0,0,1,3.09,2.7c0,.12,0,.25,0,.38,0,2-1.58,4-3.75,6.1a16.07,16.07,0,0,1,1.67-.1h2.56v1.36h-6.61Z" transform="translate(-3.25 -4.25)" style="fill:#768e91"/><path id="a26784b9-a6eb-4d04-8433-01f029ecd66f" data-name="Path 551" d="M297,231.53c0,.84-.22,1.24-.78,1.45a9.35,9.35,0,0,1-3,.27,5.61,5.61,0,0,0-.55-1.37c1.08.06,2.2,0,2.53,0s.42-.11.42-.4v-2.44h-6.32a7.77,7.77,0,0,1-2.39,4.24,4.9,4.9,0,0,0-1-.95c2.17-1.87,2.38-4.6,2.38-6.78V221.2H297Zm-1.36-3.72v-2.06h-6a17.66,17.66,0,0,1-.13,2.06Zm-6-5.36v2.06h6v-2.06Z" transform="translate(-3.25 -4.25)" style="fill:#768e91"/></g><g id="eba51760-c746-47fa-92c4-e67288388f56" data-name="Group 351"><g id="b2896247-cba1-4154-9c90-97a22ae498a0" data-name="Group 350"><path id="b5799379-0c20-42a0-8572-29ca7a5c814d" data-name="Path 552" d="M70.92,283.83a8.12,8.12,0,0,0,5.57,5,4.76,4.76,0,0,0-.88,1.2A9,9,0,0,1,70,284.87c-.7,1.95-2.25,3.86-5.58,5.17a4.52,4.52,0,0,0-.84-1.1c3.4-1.31,4.76-3.24,5.29-5.11H64V282.5h5.14a12.21,12.21,0,0,0,.07-1.35v-1.52H64.51V278.3H75.45v1.34H70.57v1.53a12.45,12.45,0,0,1-.06,1.34H76v1.32Z" transform="translate(-3.25 -4.25)" style="fill:#566c6c"/><path id="a4872140-998c-4796-a72d-3deca43f9903" data-name="Path 553" d="M84.33,279.62V282l.24-.28a33.29,33.29,0,0,1,4.85,2.85l-1,1.18A31.14,31.14,0,0,0,84.33,283v7H83V279.62H77.79V278.3h12.3v1.32Z" transform="translate(-3.25 -4.25)" style="fill:#566c6c"/><path id="e654393e-121a-401b-a370-f5f06328770e" data-name="Path 554" d="M95.63,285.75c0-.21-.08-.44-.14-.7-2.87.42-3.33.53-3.61.68a11.46,11.46,0,0,0-.39-1.17c.31-.07.62-.4,1-.9a13.77,13.77,0,0,0,1-1.39,7,7,0,0,0-1.75.32c-.11-.38-.24-.75-.38-1.12.25-.05.47-.33.77-.75a17.17,17.17,0,0,0,1.74-3.45l1.15.47a21,21,0,0,1-2,3.53l1.23-.1a17.61,17.61,0,0,0,1-1.82l1.09.65a25.91,25.91,0,0,1-3,4.3l1.87-.24c-.13-.42-.27-.85-.42-1.24l1-.27a21.59,21.59,0,0,1,.89,2.83Zm-2.51.68a17.85,17.85,0,0,1-.68,3.48,6.3,6.3,0,0,0-1-.39,14,14,0,0,0,.63-3.27Zm1.38-.2a25.51,25.51,0,0,1,.38,2.88l-1,.21a28.79,28.79,0,0,0-.33-2.91Zm1.31-.39a16,16,0,0,1,.68,2.24l-.93.32a18.4,18.4,0,0,0-.64-2.28Zm8.39,2.73v1.18H96.3v-1.18h3.34v-2.34H97v-1.16h6.65v1.16h-2.7v2.34Zm-6-3.86A14,14,0,0,0,96.51,282,21.79,21.79,0,0,0,98,279.45l1.11.28A25.42,25.42,0,0,1,97.72,282a16.53,16.53,0,0,1,1.49,2.31ZM104,279.1H96.68v-1.16H104Zm-2.62.64a23.65,23.65,0,0,1-1.36,2.2,15.77,15.77,0,0,1,1.52,2.27l-1,.46a13.93,13.93,0,0,0-1.73-2.7,21.82,21.82,0,0,0,1.49-2.51Zm1.56,5a13.57,13.57,0,0,0-1.83-2.73,22.38,22.38,0,0,0,1.53-2.53l1.13.29c-.42.71-1,1.55-1.41,2.22a13.92,13.92,0,0,1,1.61,2.27Z" transform="translate(-3.25 -4.25)" style="fill:#566c6c"/><path id="a6edccdd-6267-45e9-a1cd-2ebd6077963e" data-name="Path 555" d="M107.4,283.63a13,13,0,0,0-2.09-1.59l.63-.76a12.53,12.53,0,0,1,2.13,1.49Zm-1.92,5.62c.5-1.05,1.22-2.82,1.77-4.34l.83.63c-.47,1.42-1.1,3.06-1.64,4.33Zm2.21-9.22a11.62,11.62,0,0,0-2-1.84l.68-.74a12.29,12.29,0,0,1,2,1.77Zm7.79,4.17h1.21v5.89h-1.21v-2h-4.82a3.84,3.84,0,0,1-1.5,2.06,5.76,5.76,0,0,0-1-.68,4,4,0,0,0,1.56-3.42V284.2H111V285h4.51Zm-5.07-2.71a3.77,3.77,0,0,1-1.59,2.74,2.19,2.19,0,0,0-.53-.68,2.82,2.82,0,0,0,1.24-2.06h-.71v-.85h3.12V281c-.06,1.71-.1,2.41-.31,2.66a.73.73,0,0,1-.58.29c-.26,0-.51,0-.77,0a2.43,2.43,0,0,0-.22-.84,4,4,0,0,0,.6,0,.29.29,0,0,0,.24-.11,5.37,5.37,0,0,0,.15-1.6Zm2-1.83h-3.65v-1h3.85a8.89,8.89,0,0,0-.3-1.26l1.2-.15a8.64,8.64,0,0,1,.38,1.41H118v1h-3.74l.79.27c-.43.46-.92.93-1.35,1.31h0v2.88h-1v-2.87h0a10.86,10.86,0,0,0,1.37-1.58h-1.66a3.94,3.94,0,0,1,.61,1.07l-.74.35a5.07,5.07,0,0,0-.57-1.14Zm3.08,7.36v-1H111a7.73,7.73,0,0,1-.06,1Zm2.09-6.27c-.27.14-.55.27-.85.39a4.27,4.27,0,0,0,1.36,2.27,2.93,2.93,0,0,0-.57.65,5.18,5.18,0,0,1-1.45-2.7l-.67.19v1.54l.92-.26c0,.21.1.53.13.68a8.35,8.35,0,0,0-1.79.71h0a3.12,3.12,0,0,0-.39-.8c.16-.1.34-.33.34-.88V281h0a8.7,8.7,0,0,0,2.2-.87Z" transform="translate(-3.25 -4.25)" style="fill:#566c6c"/><path id="a10547f1-3338-4dd5-addd-1aa295953282" data-name="Path 556" d="M123.67,280.65h-4.32v-1h2.15a13.54,13.54,0,0,0-1-1.88l1-.52a13.83,13.83,0,0,1,1.06,1.83l-1,.57h2.15Zm-.31,8.62h-2.55v.63h-1.06v-4.71h3.61Zm-.07-6.78h-3.45v-1h3.45Zm-3.45.84h3.45v1h-3.45Zm1,2.91v2h1.49v-2Zm7.89-8.33-.27.43a8.51,8.51,0,0,0,3.82,2.9,5.41,5.41,0,0,0-.91,1.17,10.62,10.62,0,0,1-1.27-.72v.54h-4.66v-.6a13.12,13.12,0,0,1-1.39.95,5,5,0,0,0-.77-1.2,10.77,10.77,0,0,0,4.45-4.14Zm2.59,10.89c0,.5-.07.82-.35,1a2.42,2.42,0,0,1-1.24.21,3.66,3.66,0,0,0-.28-1.08c.29,0,.57,0,.67,0s.14,0,.14-.16V287h-1.06v2.7h-.92v-2.69h-1v2.69h-.92v-2.69h-1v3.08h-1.06v-6.88h7Zm-5-2.83v-1.66h-1V286Zm3-4.85a10,10,0,0,1-1.63-1.81,12.28,12.28,0,0,1-1.72,1.81ZM128.25,286v-1.66h-1V286Zm2,0v-1.66h-1.06V286Z" transform="translate(-3.25 -4.25)" style="fill:#566c6c"/><path id="aad5a03c-f27b-4882-b706-49f884b87bf9" data-name="Path 557" d="M137.6,286.72c-1.37.56-2.81,1.17-4,1.62L133.2,287l1.66-.56v-4.6h-1.43v-1.23h1.43v-3.18h1.21v3.18h1.13v1.23h-1.13V286l1.28-.46Zm8.33,2.09v1h-9.32v-1Zm-.1-9.37H137v-1h3.74a7.12,7.12,0,0,0-.57-.86l1.05-.49a5.2,5.2,0,0,1,.87,1.35h3.78Zm-.61,4.87h-7.6v-4.37h7.6Zm-7.19,4v-3.47h6.67v3.47Zm6.07-7.55h-5.43v2.79h5.43Zm-4.89,5.46h4.25v-.64h-4.25Zm0,1.35h4.25v-.65h-4.25Zm4.06-4.5h-3.79v-1.81h3.79Zm-.91-1.2h-2v.59h2Z" transform="translate(-3.25 -4.25)" style="fill:#566c6c"/></g><g id="a10db5e6-450d-4007-b689-f9ce1f8d4696" data-name="Group 349"><path id="a8b961be-c4f4-4665-ae61-8e954d1dc114" data-name="Path 558" d="M47.61,302.53c0-3.34,2-5.35,4.62-5.35a4,4,0,0,1,2.91,1.3l-.87,1a2.74,2.74,0,0,0-2-.91c-1.77,0-3,1.47-3,3.88s1.14,3.93,3,3.93a3,3,0,0,0,2.27-1.09l.87,1a4.06,4.06,0,0,1-3.19,1.48C49.59,307.81,47.61,305.89,47.61,302.53Z" transform="translate(-3.25 -4.25)" style="fill:#566c6c"/><path id="a619edcd-5747-44e3-8e3b-473632400645" data-name="Path 559" d="M56,297.38h1.68l1,5.33.54,3.29h.06c.22-1.1.46-2.2.7-3.29l1.32-5.33h1.42l1.34,5.33c.23,1.08.46,2.18.7,3.29h.07c.17-1.11.35-2.21.51-3.29l1-5.33h1.54l-2,10.25h-2l-1.38-5.7c-.18-.81-.33-1.57-.47-2.35h-.07c-.14.78-.31,1.54-.47,2.35l-1.36,5.7H58.15Z" transform="translate(-3.25 -4.25)" style="fill:#566c6c"/><path id="a77f0e71-a2df-43dd-a5a5-b277fc8553aa" data-name="Path 560" d="M69.53,297.38h6.06v1.35H71.15v2.86h3.76V303H71.15v3.32h4.6v1.36H69.53Z" transform="translate(-3.25 -4.25)" style="fill:#566c6c"/><path id="a95301ca-7caf-403c-b1a0-43bac202a4cc" data-name="Path 561" d="M77.89,297.38H84v1.35H79.51v3.13h3.78v1.35H79.51v4.42H77.89Z" transform="translate(-3.25 -4.25)" style="fill:#566c6c"/><path id="eb4b5671-627e-4445-a77e-2557f6312aa4" data-name="Path 562" d="M95.72,297.73a10.37,10.37,0,0,1-3.16,3.52,17.28,17.28,0,0,0,5.22,1.55,4.84,4.84,0,0,0-.84,1.24,16,16,0,0,1-5.55-2,20.16,20.16,0,0,1-5.66,2.12,4.74,4.74,0,0,0-.62-1.23,18.13,18.13,0,0,0,5.1-1.7,10.49,10.49,0,0,1-1.68-1.65,15.16,15.16,0,0,1-2.13,1.77,4,4,0,0,0-.87-1,12.06,12.06,0,0,0,4.18-4.39l1.39.28c-.21.36-.43.72-.68,1.08h4.22l.2,0Zm-7.77,8a53.38,53.38,0,0,1,7,1.9l-.6,1.23a53.41,53.41,0,0,0-7-2.09Zm1.74-2.39c1.49.37,3.72,1,4.87,1.44L94,306c-1.1-.44-3.3-1.15-4.86-1.59Zm-.13-4.94a3.75,3.75,0,0,0-.26.33,8.6,8.6,0,0,0,2,1.82,9.74,9.74,0,0,0,2.42-2.15Z" transform="translate(-3.25 -4.25)" style="fill:#566c6c"/><path id="aa32e447-2f2e-4bdc-8f06-c6a8aeddd947" data-name="Path 563" d="M104.65,300.11a13.53,13.53,0,0,1-5,3.09,5.53,5.53,0,0,0-.82-1,13.06,13.06,0,0,0,4.43-2.32H99.23v-1.1h5.42v-1.15c-1.44.12-2.91.19-4.27.21a3.77,3.77,0,0,0-.29-1A54.15,54.15,0,0,0,109,296l1.07.92a33.63,33.63,0,0,1-4.14.64v1.24h5.52v1.1h-3.8a30.65,30.65,0,0,1,4.08,2.7l-.84.9a35.32,35.32,0,0,0-5-3.36V302h-1.27Zm1.33,4.76h5.46V306H106v1.37c0,.69-.16,1-.7,1.17a10.45,10.45,0,0,1-2.56.17,5.19,5.19,0,0,0-.44-1.13c.92,0,1.85,0,2.1,0s.33-.07.33-.26V306h-5.5v-1.11h5.5v-.8a14.25,14.25,0,0,0,1.62-.68h-4.75v-1h6.32l.28-.07.79.69a14.1,14.1,0,0,1-3,1.6Z" transform="translate(-3.25 -4.25)" style="fill:#566c6c"/><path id="e8c04526-1b71-413b-8253-3ffec29da8ec" data-name="Path 564" d="M117.32,304.3c-1.39.71-2.9,1.47-4.06,2l-.5-1.3,1.81-.75v-4.15H113v-1.23h1.53v-2.81h1.2v2.81h1.4v1.23h-1.4v3.62c.41-.2.85-.39,1.28-.58Zm2.7-1.64a6.36,6.36,0,0,1-.51.83h5.82s0,.33,0,.49c-.22,2.79-.43,3.87-.81,4.29a1.15,1.15,0,0,1-.83.39,9.22,9.22,0,0,1-1.39,0,2.71,2.71,0,0,0-.3-1,10,10,0,0,0,1.09.06c.21,0,.32,0,.43-.16s.39-1,.56-3h-.84a9.54,9.54,0,0,1-2.8,4.23,4.07,4.07,0,0,0-.93-.72,8.07,8.07,0,0,0,2.65-3.51H121a10.82,10.82,0,0,1-3.32,3.64,3.37,3.37,0,0,0-.86-.78,9,9,0,0,0,3-2.86h-1.17A9.73,9.73,0,0,1,117,306a7.55,7.55,0,0,0-.88-.81,7.52,7.52,0,0,0,2.64-2.56h-1.79v-1.1h8.71v1.1Zm4.66-1.77h-6.44v-4.57h6.44Zm-1.2-3.64h-4.07v.91h4.07Zm0,1.79h-4.07V300h4.07Z" transform="translate(-3.25 -4.25)" style="fill:#566c6c"/><path id="e321bc55-b8d3-4009-ad10-6d859b8763e3" data-name="Path 565" d="M129.57,303.05h-2.83v-1.17h2.83v-3h1.23v3h2.83v1.17H130.8v3h-1.23Z" transform="translate(-3.25 -4.25)" style="fill:#566c6c"/><path id="f10c127e-598a-41a3-9e00-a661f7173757" data-name="Path 566" d="M146,307.45c.37,0,.45-.22.5-1.66a3.39,3.39,0,0,0,1.05.46c-.11,1.8-.41,2.26-1.44,2.26h-1.66c-1.23,0-1.53-.34-1.53-1.49V305.6a6.65,6.65,0,0,1-3.76,3.15,3,3,0,0,0-.74-1,5.63,5.63,0,0,0,3.95-4h-2.53v-3l-.07.07A4,4,0,0,0,139,300v6.1h-2.66v1.06h-1.13v-10.2H139v2.82a9.67,9.67,0,0,0,2.47-3.79l1.28.2c-.11.3-.25.61-.39.93H145l.22-.06,1,.32a23.82,23.82,0,0,1-1.43,2.12h2v4.26h-2.68V307c0,.4.07.45.52.45Zm-9.63-9.35v2.79h1.53V298.1Zm1.53,6.81V302h-1.53v2.9Zm3.94-6.75a10.29,10.29,0,0,1-.86,1.32h2.34a12.34,12.34,0,0,0,1-1.32Zm.76,4.57c.1-.74.17-1.49.21-2.23H141v2.23Zm3-2.23H144a21,21,0,0,1-.21,2.23h1.8Z" transform="translate(-3.25 -4.25)" style="fill:#566c6c"/><path id="a5946135-597f-405a-8db5-4c03f278f031" data-name="Path 567" d="M158.12,305.35a5.88,5.88,0,0,1-1.47,1.43c1.67.38,3.19.78,4.33,1.14l-1.09.81a39.2,39.2,0,0,0-4.48-1.25,19.18,19.18,0,0,1-5.94,1.27,3.08,3.08,0,0,0-.5-1.05,22.35,22.35,0,0,0,4.45-.66c-.89-.18-1.83-.36-2.76-.52a15.21,15.21,0,0,0,1.1-1.17h-2.87v-1h3.7a13.09,13.09,0,0,0,.85-1.25l1.24.34c-.18.31-.4.6-.62.91h3.28a5.13,5.13,0,0,0,.34-.66l1.2.35c0,.1-.1.21-.14.31h2.38v1Zm-7.77-5.65h-1.24V297h5.34a7.75,7.75,0,0,0-.44-.86l1.28-.25a6,6,0,0,1,.6,1.11H161v2.66h-1.3v-1.6h-9.35Zm8.51,3.37H151.2v-4.16h7.66Zm-1.27-3.29h-5.17v.8h5.17Zm0,1.61h-5.17v.84h5.17Zm-4.34,4c-.2.22-.39.43-.56.64l2.34.44a5.71,5.71,0,0,0,1.54-1.08Z" transform="translate(-3.25 -4.25)" style="fill:#566c6c"/></g></g><g id="a848b197-3269-44bb-b4cc-f5f1189051a1" data-name="Group 339"><path id="b18671a5-1acd-4753-84c6-4bc682a28cb9" data-name="Path 568" d="M254.42,297.37c3-2.67,4.59-4.66,4.59-6.35a1.69,1.69,0,0,0-1.45-1.87h-.3a2.79,2.79,0,0,0-2,1.14l-.91-.89a4,4,0,0,1,3.12-1.53,2.9,2.9,0,0,1,3.09,2.7,2.41,2.41,0,0,1,0,.38c0,2-1.57,4-3.75,6.1a16.09,16.09,0,0,1,1.68-.1H261v1.36h-6.62Z" transform="translate(-3.25 -4.25)" style="fill:#566c6c"/><path id="aa836fd7-d60f-499a-909e-98e07fb5d487" data-name="Path 569" d="M262.4,293.14c0-3.55,1.3-5.28,3.32-5.28s3.31,1.74,3.31,5.28-1.3,5.35-3.31,5.35S262.4,296.7,262.4,293.14Zm5.11,0c0-2.94-.74-4-1.79-4s-1.78,1.07-1.78,4,.74,4.08,1.78,4.08,1.78-1.12,1.78-4.08Z" transform="translate(-3.25 -4.25)" style="fill:#566c6c"/><path id="f39c4ef0-1555-45ef-a5c0-8b9038ba1360" data-name="Path 570" d="M270.3,297.37c3-2.67,4.58-4.66,4.58-6.35a1.67,1.67,0,0,0-1.44-1.87h-.3a2.83,2.83,0,0,0-2,1.14l-.9-.89a4,4,0,0,1,3.12-1.53,2.9,2.9,0,0,1,3.09,2.7,2.41,2.41,0,0,1,0,.38c0,2-1.57,4-3.75,6.1a16.09,16.09,0,0,1,1.68-.1h2.56v1.36H270.3Z" transform="translate(-3.25 -4.25)" style="fill:#566c6c"/><path id="f12d9d5c-f876-4ab2-8113-3ce2641ca975" data-name="Path 571" d="M278.24,297.37c3-2.67,4.58-4.66,4.58-6.35a1.67,1.67,0,0,0-1.44-1.87h-.3a2.83,2.83,0,0,0-2,1.14l-.9-.89a4,4,0,0,1,3.12-1.53,2.9,2.9,0,0,1,3.09,2.7,2.41,2.41,0,0,1,0,.38c0,2-1.57,4-3.75,6.1a16.07,16.07,0,0,1,1.67-.1h2.57v1.36h-6.62Z" transform="translate(-3.25 -4.25)" style="fill:#566c6c"/><path id="e4fba79a-fb29-49b1-b155-7f08b4b60801" data-name="Path 572" d="M298.82,296.33h-4.89v3.08h-1.34v-3.08h-6.34v-1.26h2.24V291.4h4.11v-1.92h-3.2a12.49,12.49,0,0,1-2,2.64,10.25,10.25,0,0,0-1.13-.83,11.31,11.31,0,0,0,3-4.72l1.31.34c-.17.43-.37.9-.55,1.31h8.07v1.26h-4.21v1.92h3.89v1.21h-3.89v2.47h4.89Zm-6.23-1.26v-2.46h-2.8v2.46Z" transform="translate(-3.25 -4.25)" style="fill:#566c6c"/><path id="e8e7c4ca-5425-46f3-a915-cec426b6dc04" data-name="Path 573" d="M300.7,297h2.24v-7.13H301.1v-1a6.31,6.31,0,0,0,2.23-.78h1.21V297h2v1.32H300.7Z" transform="translate(-3.25 -4.25)" style="fill:#566c6c"/><path id="fdc4ead4-db36-4166-8bf3-302915b7bce5" data-name="Path 574" d="M318.93,297.65c0,.84-.22,1.24-.78,1.45a9.06,9.06,0,0,1-3,.26,5.35,5.35,0,0,0-.56-1.36c1.09.06,2.2,0,2.54,0s.41-.11.41-.4v-2.44h-6.32a7.63,7.63,0,0,1-2.38,4.23,4.64,4.64,0,0,0-1-.94c2.17-1.87,2.38-4.6,2.38-6.79v-4.37h8.68Zm-1.37-3.72v-2.06h-6a20.16,20.16,0,0,1-.13,2.06Zm-6-5.36v2.06h6v-2.06Z" transform="translate(-3.25 -4.25)" style="fill:#566c6c"/></g><g id="f62f1a6a-0032-4282-95b7-212753a71b38" data-name="Group 333"><path id="b16aad8d-5e47-4dc1-aa62-079fc4944083" data-name="Path 525" d="M274.24,127.26a3.17,3.17,0,0,1,1.84-2.76v-.07a2.91,2.91,0,0,1-1.38-2.4,2.68,2.68,0,0,1,2.69-2.66l.24,0a2.65,2.65,0,0,1,2.89,2.38c0,.11,0,.22,0,.33a3.18,3.18,0,0,1-1.35,2.41v.07a3,3,0,0,1,1.72,2.72c0,1.52-1.33,2.69-3.31,2.69S274.24,128.85,274.24,127.26Zm5.14,0c0-1.25-1.12-1.73-2.52-2.3a2.63,2.63,0,0,0-1.2,2.15,1.8,1.8,0,0,0,1.87,1.73h.08a1.59,1.59,0,0,0,1.77-1.38,1.21,1.21,0,0,0,0-.19Zm-.21-5.05a1.52,1.52,0,0,0-1.37-1.66h-.2a1.39,1.39,0,0,0-1.46,1.33.43.43,0,0,0,0,.16c0,1.11,1,1.63,2.12,2.07a2.58,2.58,0,0,0,.91-1.9Z" transform="translate(-3.25 -4.25)" style="fill:#768e91"/><path id="fb7c99e1-53e9-4fd2-8bbb-f0b77f6ac92c" data-name="Path 526" d="M293,129.16c0,.83-.22,1.24-.78,1.45a9.06,9.06,0,0,1-3,.26,5.39,5.39,0,0,0-.55-1.36c1.08.05,2.2,0,2.53,0s.42-.11.42-.4V126.7h-6.32a7.74,7.74,0,0,1-2.39,4.23,4.9,4.9,0,0,0-1-1c2.17-1.86,2.38-4.6,2.38-6.78v-4.37H293Zm-1.36-3.72v-2.06h-6a17.79,17.79,0,0,1-.12,2.06Zm-6-5.36v2.06h6v-2.06Z" transform="translate(-3.25 -4.25)" style="fill:#768e91"/></g><g id="a6c7394a-5c02-4ac5-8964-f90d9f8a6052" data-name="Group 335"><path id="ba1c2d04-5a7b-48bd-8469-28af81407b64" data-name="Path 532" d="M275.23,174.62a2.31,2.31,0,0,0,1.69.77c1.24,0,2.31-1,2.41-3.93a3.06,3.06,0,0,1-2.26,1.2c-1.71,0-2.87-1.07-2.87-3.22a3.14,3.14,0,0,1,2.89-3.36h.16c2,0,3.56,1.59,3.56,5,0,4-1.84,5.66-3.82,5.66a3.5,3.5,0,0,1-2.62-1.09Zm4.07-4.37c-.15-2-.92-2.94-2-2.94-.88,0-1.58.79-1.58,2.13s.59,2.06,1.66,2.06a2.48,2.48,0,0,0,1.95-1.25Z" transform="translate(-3.25 -4.25)" style="fill:#566c6c"/><path id="ea0f4edc-e960-4bdd-9dfb-e54518af39ed" data-name="Path 533" d="M293,175.86c0,.84-.22,1.24-.78,1.45a9.35,9.35,0,0,1-3,.27,5.61,5.61,0,0,0-.55-1.37c1.08.06,2.2,0,2.53,0s.42-.11.42-.4V173.4h-6.32a7.77,7.77,0,0,1-2.39,4.24,4.64,4.64,0,0,0-1-.95c2.17-1.87,2.38-4.6,2.38-6.78v-4.38H293Zm-1.36-3.72v-2.06h-6a17.66,17.66,0,0,1-.12,2.06Zm-6-5.36v2.06h6v-2.06Z" transform="translate(-3.25 -4.25)" style="fill:#566c6c"/></g><g id="bcf584a7-ca38-4731-bf03-35ba5f0b0182" data-name="Group 341"><path id="b88ff903-fe42-482f-ac6d-798fe1c85545" data-name="Path 508" d="M306.83,79.33h2.24V72.2h-1.83v-1a6.07,6.07,0,0,0,2.22-.78h1.22v8.93h2v1.33h-5.85Z" transform="translate(-3.25 -4.25)" style="fill:#566c6c"/><path id="b9051bce-d49e-4dee-a1b1-157bef3b9ed0" data-name="Path 509" d="M314.23,75.48c0-3.55,1.3-5.28,3.31-5.28s3.32,1.74,3.32,5.28-1.31,5.35-3.32,5.35S314.23,79.05,314.23,75.48Zm5.1,0c0-2.94-.74-4-1.78-4s-1.79,1.07-1.79,4,.74,4.08,1.79,4.08,1.78-1.11,1.78-4.08Z" transform="translate(-3.25 -4.25)" style="fill:#566c6c"/><path id="af49cc51-16cb-4d15-8423-02c9822b02c9" data-name="Path 510" d="M333,80c0,.84-.22,1.24-.78,1.45a9.35,9.35,0,0,1-3,.27,5.61,5.61,0,0,0-.55-1.37c1.08.06,2.2,0,2.53,0s.42-.11.42-.4V77.53h-6.32a7.77,7.77,0,0,1-2.39,4.24,4.9,4.9,0,0,0-1-1c2.17-1.87,2.38-4.6,2.38-6.78V69.66H333Zm-1.36-3.72V74.21h-6a17.66,17.66,0,0,1-.12,2.06Zm-6-5.36V73h6V70.91Z" transform="translate(-3.25 -4.25)" style="fill:#566c6c"/><path id="ae9af5a9-8210-40f4-921e-4072bec69ca0" data-name="Path 511" d="M340.79,78.21c-.26-.42-.82-1.11-1.32-1.74v5.28h-1.34V76.62a10.53,10.53,0,0,1-1.56,1.5,5.57,5.57,0,0,0-.65-1.26,12.56,12.56,0,0,0,3.57-4.33h-3.24V71.36h2.54a14.84,14.84,0,0,0-1.16-1.86l1-.57a12,12,0,0,1,1.24,1.83l-.94.6h1.29l.2-.06.72.52a15.34,15.34,0,0,1-1.66,3.09V75c.11.12.24.23.38.37A11.63,11.63,0,0,0,340.92,74l.86.72c-.47.44-.94.89-1.35,1.23.49.5,1,1,1.13,1.2Zm7.48-8.11s0,.49,0,.67c-.17,7.07-.32,9.45-.84,10.16a1.45,1.45,0,0,1-1.14.68,13.49,13.49,0,0,1-2,0,2.74,2.74,0,0,0-.39-1.24c.81.07,1.5.07,1.83.07a.56.56,0,0,0,.54-.25c.43-.49.6-2.8.74-8.87h-2.31c-.21,4.86-.87,8.23-3.4,10.4a6.43,6.43,0,0,0-1-1c2.41-1.84,3-5,3.1-9.4h-2V70.11Z" transform="translate(-3.25 -4.25)" style="fill:#566c6c"/></g><g id="a7f507ec-8ed7-4f42-8c74-67bdfcca0b6d" data-name="Group 327"><path id="fc42d0af-a325-4096-a142-becba567c049" data-name="Path 485" d="M304.88,15.89h-.4a9.8,9.8,0,0,1-2.89,2.95l-.2-.15a11.73,11.73,0,0,0,1.45-2.26,15.31,15.31,0,0,0,1.1-2.84l1.89.7a.57.57,0,0,1-.59.28c-.14.3-.3.59-.47.88h2.1l.74-1a13.3,13.3,0,0,1,1.32,1.17c0,.16-.15.24-.38.24h-3c.77.37,1.17.83,1.19,1.37a.66.66,0,0,1-.4.71.74.74,0,0,1-.86-.2A3.26,3.26,0,0,0,304.88,15.89Zm8.54,7,.77-.75,1.4,1.17a.88.88,0,0,1-.57.23c-.17,2-.58,3.19-1.25,3.65a3.06,3.06,0,0,1-1.64.41,1.4,1.4,0,0,0-.25-1,2.13,2.13,0,0,0-1.15-.47v-.23l1.62.09a.73.73,0,0,0,.48-.11c.32-.25.55-1.11.69-2.57h-4v4.35s-.06.09-.15.15a1.59,1.59,0,0,1-.41.16,2.28,2.28,0,0,1-.63.09h-.24V24.59a14.47,14.47,0,0,1-6.4,3.43l-.12-.2a13.82,13.82,0,0,0,3.16-2A11.45,11.45,0,0,0,307,23.32H304.3c-.08.34-.18.7-.29,1.08a2.27,2.27,0,0,1-1.5,0c.48-1.52.87-3,1.19-4.48l1.56.73h2.81V18.75h-5l-.13-.46h9.74l.69-.73,1.49,1.11a1,1,0,0,1-.58.29v2.57c0,.06-.16.14-.44.25a2.2,2.2,0,0,1-.76.16h-.26v-.88h-3.31v1.81Zm-9,0h3.65V21.06h-3.21s-.07.27-.18.73-.2.81-.26,1.08Zm9.32-7.42.82-1c.61.47,1.11.88,1.49,1.23,0,.17-.17.25-.41.25h-3.79c.7.36,1,.79,1,1.29a.67.67,0,0,1-.46.65.73.73,0,0,1-.78-.18,3.33,3.33,0,0,0-.68-1.76h-.68a9,9,0,0,1-2.18,2l-.18-.15a12.65,12.65,0,0,0,1.89-4.2l2,.72c-.08.19-.29.28-.61.27-.24.42-.43.71-.55.88Zm-4.24,3.3v1.87h3.31V18.75Z" transform="translate(-3.25 -4.25)" style="fill:#566c6c"/><path id="eb721f8d-11bd-499d-93e3-8d18e18fe34c" data-name="Path 486" d="M318.45,25.3h11.27l1.06-1.4c.8.63,1.44,1.16,1.92,1.6-.05.15-.2.23-.45.23H318.57Zm1.47-8.74h8.32l1-1.36c.78.63,1.41,1.15,1.87,1.57-.05.15-.2.23-.44.23H320.06Z" transform="translate(-3.25 -4.25)" style="fill:#566c6c"/><path id="f45f7d35-7b45-4cf3-9713-7b94e6f29e7d" data-name="Path 487" d="M335.11,28.08l-.2-.17a9.79,9.79,0,0,0,2.34-4.07l1.9.81c-.09.19-.3.27-.64.24A7.93,7.93,0,0,1,335.11,28.08Zm11.83,0a1.8,1.8,0,0,0-.38-1.11,2.4,2.4,0,0,0-1.22-.41v-.25c1,.06,1.58.1,1.78.1s.35-.11.35-.32V22.12h-2.55a7.42,7.42,0,0,1-3.35,5.9l-.2-.15a8.21,8.21,0,0,0,2.05-4.38.83.83,0,0,1-.22,0h-8.15l-.13-.44h1.59V16.57h-1.2l-.13-.44h1.33V13.81l1.88.2c0,.21-.2.34-.52.39v1.74h2.33V13.81l2,.2q-.07.35-.54.42v1.7h.07l.61-.95c.48.45.85.84,1.12,1.15q0,.24-.39.24h-1.41v6.51h.06l.68-1a14.54,14.54,0,0,1,1.11,1.09,22.44,22.44,0,0,0,.18-3.18V14.08l1.6.62h2.07l.68-.8,1.54,1.18a1.21,1.21,0,0,1-.65.34V26.21a2,2,0,0,1-.37,1.3,2.5,2.5,0,0,1-1.58.52ZM340.2,16.57h-2.32v1.74h2.32Zm-2.32,2.19v1.87h2.32V18.76Zm0,2.31v2h2.32v-2Zm1.71,3,.16-.1a3.19,3.19,0,0,1,2.37,1.53.91.91,0,0,1-.15,1.05.69.69,0,0,1-1,0,.2.2,0,0,1-.08,0,3.6,3.6,0,0,0-.48-1.28,5.55,5.55,0,0,0-.86-1.19Zm5.37-2.4h2.51v-3.1H345V20c0,.57,0,1.14,0,1.72Zm2.51-6.51H345v3h2.47Z" transform="translate(-3.25 -4.25)" style="fill:#566c6c"/><path id="a6c13c46-056c-4986-9197-72827545ad96" data-name="Path 488" d="M286.63,38.77a6.08,6.08,0,0,1,3.19-5.4l.19.22A6.75,6.75,0,0,0,290,44l-.19.21A6.08,6.08,0,0,1,286.63,38.77Z" transform="translate(-3.25 -4.25)" style="fill:#566c6c"/><path id="ae642856-7784-41e5-b91e-99c122879566" data-name="Path 489" d="M295.32,42.54l1.72.22v.37h-4.75v-.37l1.77-.22c0-.91,0-1.61,0-2.08v-5l-1.61.15v-.44l2.71-.66.15.12,0,1.83v4C295.3,40.92,295.31,41.61,295.32,42.54Z" transform="translate(-3.25 -4.25)" style="fill:#566c6c"/><path id="fc08c4c5-e6b5-4ce7-8c39-cbc42792da1d" data-name="Path 490" d="M301.91,34.52a2.3,2.3,0,0,1,1.93,1.07,5.63,5.63,0,0,1,.77,3.26,6,6,0,0,1-.77,3.36,2.31,2.31,0,0,1-1.93,1.09,2.36,2.36,0,0,1-2-1.09,5.82,5.82,0,0,1-.77-3.36,5.49,5.49,0,0,1,.78-3.26A2.31,2.31,0,0,1,301.91,34.52Zm-1.47,4.33q0,4,1.47,4t1.44-4c0-2.59-.48-3.89-1.44-3.89s-1.47,1.3-1.47,3.89Z" transform="translate(-3.25 -4.25)" style="fill:#566c6c"/><path id="e463f465-7d56-47b0-a10f-a1805587b9c0" data-name="Path 491" d="M306.08,45.16l3.39-11h.74l-3.39,11Z" transform="translate(-3.25 -4.25)" style="fill:#566c6c"/><path id="a198faaf-299a-422b-b291-f2e13c58bd6b" data-name="Path 492" d="M315.15,42.54l1.71.22v.37h-4.75v-.37l1.77-.22c0-.91,0-1.61,0-2.08v-5l-1.61.15v-.44l2.71-.66.16.12,0,1.83v4Q315.12,41.15,315.15,42.54Z" transform="translate(-3.25 -4.25)" style="fill:#566c6c"/><path id="e388e43e-f2c1-48b5-aa26-0adbb52c1bb0" data-name="Path 493" d="M322.09,38.53a1.84,1.84,0,0,0,1.14.57c.5,0,.79-.42.89-1.26l.53.08a2.09,2.09,0,0,1-.43,1.32,1.34,1.34,0,0,1-1.07.44,1.64,1.64,0,0,1-.72-.16,4.49,4.49,0,0,1-.76-.53,1.64,1.64,0,0,0-1.13-.56c-.51,0-.81.41-.9,1.24l-.55-.07a2.16,2.16,0,0,1,.44-1.32,1.37,1.37,0,0,1,1.08-.45A2.27,2.27,0,0,1,322.09,38.53Z" transform="translate(-3.25 -4.25)" style="fill:#566c6c"/><path id="bccb255a-6dc9-4384-a8bf-8ff7ecd8bda1" data-name="Path 494" d="M330.11,42.54l1.71.22v.37h-4.75v-.37l1.77-.22c0-.91,0-1.61,0-2.08v-5l-1.62.15v-.44l2.71-.66.16.12,0,1.83v4C330.09,40.92,330.09,41.61,330.11,42.54Z" transform="translate(-3.25 -4.25)" style="fill:#566c6c"/><path id="e11bb3ec-c8a1-4211-a8eb-0b9177f66e3e" data-name="Path 495" d="M334.91,42.06h4.47v1.07h-5.31V42.3c.17-.18.47-.53.93-1l1-1.12a11.33,11.33,0,0,0,1.38-1.84,3.13,3.13,0,0,0,.42-1.52,2,2,0,0,0-.41-1.32,1.36,1.36,0,0,0-1.11-.5,2.49,2.49,0,0,0-.61.08l-.28,1c-.12.55-.36.82-.71.82a.65.65,0,0,1-.64-.41,1.85,1.85,0,0,1,.84-1.42,3.08,3.08,0,0,1,1.79-.5,2.46,2.46,0,0,1,1.81.61,2.23,2.23,0,0,1,.61,1.65,2.61,2.61,0,0,1-.56,1.54,24.48,24.48,0,0,1-2.14,2.3l-.71.7Z" transform="translate(-3.25 -4.25)" style="fill:#566c6c"/><path id="ee179b44-4e72-43bd-9b3e-d3dd1f096ceb" data-name="Path 496" d="M340.85,45.16l3.4-11H345l-3.38,11Z" transform="translate(-3.25 -4.25)" style="fill:#566c6c"/><path id="f3f37d39-8b3e-43f0-a03a-050456e80ab2" data-name="Path 497" d="M348.3,35l-.23.85c-.1.49-.34.73-.72.73a.57.57,0,0,1-.59-.39,1.78,1.78,0,0,1,.79-1.28,3,3,0,0,1,1.63-.44,2.73,2.73,0,0,1,1.79.56,1.85,1.85,0,0,1,.65,1.5,1.93,1.93,0,0,1-.47,1.3,2.71,2.71,0,0,1-1.37.81,2.63,2.63,0,0,1,1.58.79,2.18,2.18,0,0,1,.51,1.47,2.13,2.13,0,0,1-.79,1.71,3.1,3.1,0,0,1-2.09.67,3,3,0,0,1-1.71-.45,1.88,1.88,0,0,1-.77-1.35.6.6,0,0,1,.61-.43.57.57,0,0,1,.45.18,1.74,1.74,0,0,1,.27.66l.2.85a3,3,0,0,0,.67.08,1.83,1.83,0,0,0,1.4-.53,2,2,0,0,0,.5-1.41,2,2,0,0,0-.5-1.45,1.85,1.85,0,0,0-1.43-.52h-.56v-.5h.47a1.66,1.66,0,0,0,1.8-1.83,1.7,1.7,0,0,0-.4-1.22,1.46,1.46,0,0,0-1.12-.42A2.62,2.62,0,0,0,348.3,35Z" transform="translate(-3.25 -4.25)" style="fill:#566c6c"/><path id="a88be301-49d1-43e4-acd3-492dde111285" data-name="Path 498" d="M357.25,42.54l1.72.22v.37h-4.75v-.37l1.77-.22c0-.91,0-1.61,0-2.08v-5l-1.61.15v-.44l2.71-.66.15.12,0,1.83v4C357.23,40.92,357.24,41.61,357.25,42.54Z" transform="translate(-3.25 -4.25)" style="fill:#566c6c"/><path id="b6a372f7-34b4-45bc-89f6-3efef3d7c2fd" data-name="Path 499" d="M361.06,33.59l.19-.22a6.17,6.17,0,0,1,0,10.8l-.19-.21a6.75,6.75,0,0,0,0-10.37Z" transform="translate(-3.25 -4.25)" style="fill:#566c6c"/></g><g id="fb829253-5b77-48fd-b745-6df923dab619" data-name="Group 353"><line id="b7d36a98-01e9-4f3d-ad2f-ad1360d180b3" data-name="Line 119" x1="199.76" x2="199.76" y2="319.5" style="fill:none;stroke:#959595;stroke-miterlimit:10"/><line id="aaabf39a-9239-4505-a1d6-aaa0b7cb632f" data-name="Line 120" x1="277.48" x2="277.48" y2="96" style="fill:none;stroke:#959595;stroke-miterlimit:10"/><line id="fe46162d-f9fc-4843-b26f-19177d53ee49" data-name="Line 135" x1="0.5" y1="319.5" x2="367.5" y2="319.5" style="fill:none;stroke:#959595"/></g></g></g></svg>