<svg id="f0a7d4e9-71cb-4acf-90e2-185498f7e2e6" data-name="圖層 1" xmlns="http://www.w3.org/2000/svg" viewBox="0 0 221.4 29.2"><g id="b17bbcc1-aa57-4942-9953-c65b2e7f976a" data-name="WHY NOW"><g id="f0213d16-dbf8-4328-a755-81dc4b8d90a5" data-name="Group 322"><path id="bb33e72d-bbbf-42bf-a81b-17956b01ee62" data-name="Path 460" d="M26.34,13.32a7.75,7.75,0,0,1,3.09.46,8.64,8.64,0,0,1,1.67,1,7.24,7.24,0,0,0,.71.41,1.18,1.18,0,0,0,.58.14c.45,0,.92-.58,1.4-1.74h1l-.54,1.6c-.2.62-.45,1.44-.74,2.46s-.65,2.36-1.1,4h-1A10.18,10.18,0,0,0,31.5,18a4.46,4.46,0,0,0-4.9-4h-.08a6.79,6.79,0,0,0-4,1.26,5.81,5.81,0,0,0-2.35,3.33,4,4,0,0,0,.17,3,6.46,6.46,0,0,0,2,2.18c.91.65,1.9,1.34,3,2.08a28.12,28.12,0,0,1,3.24,2.52,7.3,7.3,0,0,1,2,2.75,5.84,5.84,0,0,1,0,3.65,9.1,9.1,0,0,1-2.35,4.2,10.81,10.81,0,0,1-3.92,2.5,13.49,13.49,0,0,1-4.7.83,9.75,9.75,0,0,1-3.43-.47,11.05,11.05,0,0,1-2-1,2.49,2.49,0,0,0-1.29-.55c-.45,0-.92.58-1.4,1.74h-1c.2-.55.41-1.21.63-2s.49-1.74.83-3,.76-2.75,1.26-4.6h1A14.38,14.38,0,0,0,13.92,37a5.21,5.21,0,0,0,1.52,3.31,5.58,5.58,0,0,0,4,1.25,7.93,7.93,0,0,0,4.12-1.25,6.4,6.4,0,0,0,2.79-4,4.1,4.1,0,0,0-.75-4,19.64,19.64,0,0,0-3.9-3.25,35.64,35.64,0,0,1-3.09-2.34,6.82,6.82,0,0,1-2-2.75,6,6,0,0,1,0-3.79,8.52,8.52,0,0,1,2.16-3.86,9.54,9.54,0,0,1,3.54-2.26A12.12,12.12,0,0,1,26.34,13.32Z" transform="translate(-10.47 -13.19)" style="fill:#262626"/><path id="acbbdf49-710c-479c-9b60-8b5c8e577737" data-name="Path 461" d="M54.05,13.2a10.25,10.25,0,0,1,4.38.78,10.93,10.93,0,0,1,2.71,1.8c.46.4.88.44,1.25.14a5.34,5.34,0,0,0,1.19-2.16h1c-.32,1-.68,2.16-1.08,3.56s-.91,3.25-1.53,5.55H61c.1-1.13.16-2,.18-2.71A6.72,6.72,0,0,0,61,18.43,5.46,5.46,0,0,0,60.44,17a5.14,5.14,0,0,0-2.67-2.36,10.66,10.66,0,0,0-4-.74,8.85,8.85,0,0,0-4,1,12.76,12.76,0,0,0-3.62,2.79,19.62,19.62,0,0,0-3,4.4,27.78,27.78,0,0,0-2.21,5.79,22.06,22.06,0,0,0-.86,5.88,10.39,10.39,0,0,0,.86,4.3,5.88,5.88,0,0,0,2.34,2.64,6.86,6.86,0,0,0,3.54.89A13.77,13.77,0,0,0,51,40.87a10.49,10.49,0,0,0,5.83-4.8,36.21,36.21,0,0,0,1.66-3.77h1c-.64,2.41-1.15,4.34-1.51,5.81s-.65,2.7-.87,3.71h-1a3.71,3.71,0,0,0,0-2.14c-.19-.29-.64-.25-1.36.12a33.79,33.79,0,0,1-3.8,1.8,13,13,0,0,1-4.71.77,11.71,11.71,0,0,1-6.58-1.7,8,8,0,0,1-3.38-4.92,15.58,15.58,0,0,1,.4-7.73,21.39,21.39,0,0,1,3.82-7.77,19.24,19.24,0,0,1,6.15-5.19A15.72,15.72,0,0,1,54.05,13.2Z" transform="translate(-10.47 -13.19)" style="fill:#262626"/><path id="e2039b21-7549-4258-bab3-2f4bc4f3523e" data-name="Path 462" d="M61.56,41.82l.21-.79A10.1,10.1,0,0,0,64,40.71a2.06,2.06,0,0,0,1.25-1,8.19,8.19,0,0,0,.83-2.14L71.38,18a6.9,6.9,0,0,0,.32-2.16,1.05,1.05,0,0,0-.74-1,6.75,6.75,0,0,0-2.1-.3l.22-.79,2.3.07c1,0,2,0,3.07,0s2,0,3,0l2.45-.07-.21.79a8.66,8.66,0,0,0-2.26.3,2.18,2.18,0,0,0-1.24,1A8.35,8.35,0,0,0,75.3,18L70,37.62a7.07,7.07,0,0,0-.32,2.14,1,1,0,0,0,.74,1,7.84,7.84,0,0,0,2.09.32l-.21.79c-.63,0-1.43-.08-2.4-.1L67,41.7l-3.09,0C63,41.74,62.16,41.77,61.56,41.82Zm9.55-13.71.21-.79H88l-.21.79Zm8.12,13.71.21-.79a10.18,10.18,0,0,0,2.26-.32,2.06,2.06,0,0,0,1.25-1,8.19,8.19,0,0,0,.83-2.14L89.05,18a6.9,6.9,0,0,0,.32-2.16,1.05,1.05,0,0,0-.74-1,6.75,6.75,0,0,0-2.1-.3l.22-.79,2.43.07c1,0,1.94,0,2.9,0s2.13,0,3.1,0l2.35-.07-.21.79a8.61,8.61,0,0,0-2.26.3,2.2,2.2,0,0,0-1.25,1A8,8,0,0,0,93,18L87.71,37.62a6.77,6.77,0,0,0-.32,2.14,1,1,0,0,0,.74,1,7.78,7.78,0,0,0,2.09.32l-.21.79c-.58,0-1.35-.08-2.3-.1l-3.08,0-2.92,0c-1,0-1.82.05-2.48.1Z" transform="translate(-10.47 -13.19)" style="fill:#262626"/><path id="b2da1d7c-9feb-41ad-b719-be0910557304" data-name="Path 463" d="M122.17,13.76c-.36.92-.68,1.82-1,2.7s-.47,1.53-.59,2-.24.93-.33,1.37-.16.8-.21,1.09h-1a17.09,17.09,0,0,0,.28-3.71,2.28,2.28,0,0,0-1.07-1.94,6.56,6.56,0,0,0-3.21-.58h-3.5a9.31,9.31,0,0,0-2.24.22,2.08,2.08,0,0,0-1.24.91,8.11,8.11,0,0,0-.83,2.16L102,37.63a6.73,6.73,0,0,0-.32,2.14,1,1,0,0,0,.74.93,8,8,0,0,0,2.12.22h3.09a10.79,10.79,0,0,0,4.21-.68,5.82,5.82,0,0,0,2.58-2.2,21.15,21.15,0,0,0,2-4.14h1c-.34.94-.64,1.89-.89,2.85q-.19.77-.51,2.16c-.21.94-.4,1.91-.55,2.92-1.43,0-3-.09-4.84-.1l-4.81,0h-3.36l-4.47,0c-1.58,0-3.07.05-4.46.1l.21-.79A10.71,10.71,0,0,0,96,40.72a2.14,2.14,0,0,0,1.25-.95,7.86,7.86,0,0,0,.83-2.14L103.38,18a6.81,6.81,0,0,0,.32-2.16,1.06,1.06,0,0,0-.73-1,6.8,6.8,0,0,0-2.1-.3l.21-.79,4.41.08c1.58,0,3.06,0,4.45,0h3.36l4.43,0C119.38,13.85,120.86,13.81,122.17,13.76Zm-10.9,13.56-.21.79h-7.73l.21-.79Zm2.63-5.24c-.51,1.51-.87,2.66-1.07,3.45s-.39,1.52-.56,2.18-.36,1.39-.55,2.18-.42,1.94-.71,3.45h-1c.11-.84.2-1.67.26-2.48a2.85,2.85,0,0,0-.48-2,3,3,0,0,0-2.44-.77l.22-.79a4,4,0,0,0,2.84-.92A6.34,6.34,0,0,0,112,24.26c.36-.82.69-1.54,1-2.18Z" transform="translate(-10.47 -13.19)" style="fill:#262626"/><path id="e99ba51f-1ae6-455b-a4ff-f218528238d6" data-name="Path 464" d="M138.37,13.76q7.56,0,10.29,3.55t1,10.17A19.71,19.71,0,0,1,145.79,35a18.12,18.12,0,0,1-6.56,5,21,21,0,0,1-8.77,1.79q-.93,0-2.73-.06t-3.15-.06c-1,0-2,0-2.92,0s-1.75,0-2.35.1l.21-.8a10.17,10.17,0,0,0,2.26-.31,2.17,2.17,0,0,0,1.25-.95,8.78,8.78,0,0,0,.83-2.15L129.12,18a6.63,6.63,0,0,0,.33-2.16,1.07,1.07,0,0,0-.74-1,6.8,6.8,0,0,0-2.1-.3l.21-.79,2.3.1c.95,0,1.89,0,2.83,0l3.36-.08C136.56,13.77,137.58,13.76,138.37,13.76Zm-1.25.71a4.21,4.21,0,0,0-2.72.68,5.63,5.63,0,0,0-1.32,2.73L127.76,37.7c-.36,1.38-.4,2.29-.12,2.74s1.08.67,2.38.67a16.11,16.11,0,0,0,7.57-1.57A12.18,12.18,0,0,0,142.36,35a28,28,0,0,0,3-7.34q1.78-6.66.06-9.91c-1.15-2.16-3.91-3.25-8.29-3.25Z" transform="translate(-10.47 -13.19)" style="fill:#262626"/><path id="f8a4d282-e56c-4227-baa5-863b6b79a90b" data-name="Path 465" d="M183,13.76l-.21.79a6.39,6.39,0,0,0-2.29.4,2.79,2.79,0,0,0-1.3,1.15,9.5,9.5,0,0,0-.86,2.26l-3.2,11.93a30.41,30.41,0,0,1-1.67,4.84,13.75,13.75,0,0,1-2.31,3.57,11,11,0,0,1-3.8,2.67,12.08,12.08,0,0,1-4.92,1,14.86,14.86,0,0,1-3.75-.45,5.44,5.44,0,0,1-2.78-1.69,6.57,6.57,0,0,1-1.3-2.34,7.44,7.44,0,0,1-.14-3,34.28,34.28,0,0,1,.94-4.48L158.75,18a6.81,6.81,0,0,0,.32-2.16,1.06,1.06,0,0,0-.73-1,6.8,6.8,0,0,0-2.1-.3l.21-.79,2.3.08c.95,0,2,0,3.07,0s2,0,3,0l2.45-.08-.21.79a8.66,8.66,0,0,0-2.26.3,2.27,2.27,0,0,0-1.24,1,8.49,8.49,0,0,0-.84,2.16l-3.51,13.13a27.8,27.8,0,0,0-.9,4.95,5,5,0,0,0,.87,3.61c.7.9,2.05,1.35,4.06,1.35a9.83,9.83,0,0,0,5.32-1.33A10.23,10.23,0,0,0,171.94,36a21.84,21.84,0,0,0,2.11-5.27l3.32-12.37a5.42,5.42,0,0,0,.24-2.26,1.52,1.52,0,0,0-.9-1.15,5.57,5.57,0,0,0-2.17-.4l.21-.79,2,.08,2.29,0c.73,0,1.46,0,2.19,0Z" transform="translate(-10.47 -13.19)" style="fill:#262626"/><path id="b335d111-72cd-4b4e-9bd6-d70153d6d058" data-name="Path 466" d="M196.69,13.76l-.21.79a8.53,8.53,0,0,0-2.25.3,2.21,2.21,0,0,0-1.25,1,8.49,8.49,0,0,0-.84,2.16l-5.26,19.67a6.74,6.74,0,0,0-.33,2.14,1,1,0,0,0,.75.93,7.92,7.92,0,0,0,2.12.22h3.08a10.4,10.4,0,0,0,4.23-.72,6.09,6.09,0,0,0,2.61-2.34,23.26,23.26,0,0,0,2.08-4.36h1c-.3.82-.63,1.91-1,3.25q-.19.77-.51,2.16c-.21.94-.4,1.91-.55,2.92-1.42-.06-3-.09-4.84-.1s-3.4,0-4.81,0h-3.36c-1.39,0-2.88,0-4.47,0s-3.07,0-4.46.1l.21-.8a10.09,10.09,0,0,0,2.26-.31,2.14,2.14,0,0,0,1.25-.95,8,8,0,0,0,.83-2.14L188.21,18a6.81,6.81,0,0,0,.32-2.16,1.06,1.06,0,0,0-.74-1,6.75,6.75,0,0,0-2.1-.3l.22-.79,2.3.08c.95,0,2,0,3.07,0s2,0,2.95,0Z" transform="translate(-10.47 -13.19)" style="fill:#262626"/><path id="b462e433-71ac-46c7-b408-634084fc7c77" data-name="Path 467" d="M231.86,13.76c-.36.92-.68,1.82-1,2.7s-.47,1.53-.59,2-.24.93-.33,1.37-.16.8-.21,1.09h-1a17.09,17.09,0,0,0,.28-3.71A2.28,2.28,0,0,0,228,15.25a6.66,6.66,0,0,0-3.2-.58h-3.51a9.31,9.31,0,0,0-2.24.22,2.08,2.08,0,0,0-1.24.91A8.85,8.85,0,0,0,217,18l-5.27,19.67a6.73,6.73,0,0,0-.32,2.14,1,1,0,0,0,.75.93,7.89,7.89,0,0,0,2.11.22h3.09a10.84,10.84,0,0,0,4.22-.68,5.84,5.84,0,0,0,2.57-2.2,20.6,20.6,0,0,0,2-4.14h1c-.34.94-.64,1.89-.89,2.85q-.19.77-.51,2.16c-.21.94-.39,1.91-.55,2.92-1.42,0-3-.09-4.84-.1l-4.81,0h-3.36l-4.46,0c-1.59,0-3.07.05-4.47.1l.21-.79a10.71,10.71,0,0,0,2.26-.32,2.14,2.14,0,0,0,1.25-.95,7.86,7.86,0,0,0,.83-2.14L213.07,18a6.81,6.81,0,0,0,.32-2.16,1.06,1.06,0,0,0-.73-1,6.8,6.8,0,0,0-2.1-.3l.21-.79,4.42.08c1.57,0,3.05,0,4.44,0H223l4.42,0C229.07,13.85,230.55,13.81,231.86,13.76ZM221,27.32l-.21.79H213l.21-.79Zm2.63-5.24c-.51,1.51-.87,2.66-1.07,3.45s-.39,1.52-.56,2.18-.36,1.39-.54,2.18-.43,1.94-.72,3.45h-1c.11-.84.2-1.67.26-2.48a2.85,2.85,0,0,0-.48-2,3,3,0,0,0-2.44-.77l.22-.79a4,4,0,0,0,2.84-.92,6.51,6.51,0,0,0,1.53-2.14l1-2.18Z" transform="translate(-10.47 -13.19)" style="fill:#262626"/></g></g></svg>