<?xml version="1.0" encoding="utf-8"?>
<!-- Generator: Adobe Illustrator 25.2.1, SVG Export Plug-In . SVG Version: 6.00 Build 0)  -->
<svg version="1.1" id="f8196ed3-f2e2-4b03-b707-339b03ecaf0e"
	 xmlns="http://www.w3.org/2000/svg" xmlns:xlink="http://www.w3.org/1999/xlink" x="0px" y="0px" viewBox="0 0 367.5 320"
	 style="enable-background:new 0 0 367.5 320;" xml:space="preserve">
<style type="text/css">
	.st0{fill:#FFFFFF;}
	.st1{fill:#566C6C;}
	.st2{fill:#768E91;}
	.st3{fill:none;stroke:#959595;stroke-miterlimit:10;}
	.st4{fill:none;stroke:#959595;}
</style>
<g id="a33da3c6-3d83-43ad-a38d-db7bf23938d7">
	<rect id="f465ac5a-054a-4cc5-9a58-1b5e3ec9a998" class="st0" width="367" height="48"/>
	<rect id="f524ebd5-94f6-48d4-856d-8b3844db4c26" y="191" class="st0" width="367" height="64"/>
	<g id="bf4ecfdc-f7b7-4756-820c-07e8c76eb7c1">
		<rect id="e1aa462a-6590-4d2d-935b-490fdf474204" y="96" class="st0" width="367" height="48"/>
		<g id="f0a7b203-f957-40e8-a183-100803192201">
			<path id="fb0b7c6b-c620-424e-9e94-7742d42f2f45" class="st1" d="M75.1,17.5l2.3,0.5c-0.1,0.2-0.3,0.3-0.7,0.3
				c0.8,0.7,1.8,1.3,2.8,1.7c1.2,0.5,2.5,0.9,3.8,1.1v0.2c-0.3,0.1-0.6,0.3-0.8,0.5c-0.2,0.2-0.3,0.5-0.4,0.9
				c-0.6-0.2-1.1-0.5-1.7-0.8l1.1,0.9c-0.1,0.1-0.3,0.2-0.4,0.2v3c0,0.1-0.2,0.1-0.4,0.2c-0.2,0.1-0.5,0.1-0.7,0.1h-0.2V26h-7.5v0.2
				c0,0.1-0.1,0.2-0.2,0.3l1.5,0.6h4.9l0.7-0.7l1.4,1c-0.1,0.1-0.3,0.2-0.5,0.2v3.8c0,0.1-0.2,0.2-0.4,0.3c-0.3,0.1-0.5,0.2-0.8,0.2
				h-0.2v-0.8h-5.1v0.3c0,0.1-0.1,0.2-0.4,0.3C72.8,32,72.5,32,72.2,32H72v-5.5c-0.2,0.1-0.5,0.2-0.8,0.2H71v-4.3
				c-0.8,0.3-1.4,0.6-2,0.8L68.9,23c1.4-0.7,2.7-1.5,3.9-2.6C73.8,19.6,74.6,18.6,75.1,17.5z M79.8,22.5l0.6-0.6
				c-1.6-0.8-2.9-2-3.8-3.4c-0.6,0.7-1.3,1.4-2.1,1.9c-0.9,0.7-1.9,1.2-2.9,1.7l1,0.4L79.8,22.5z M72.3,23v2.6h3.1V23H72.3z
				 M72.9,23.3l0.2-0.1c0.9,0.4,1.4,0.8,1.6,1.4c0.1,0.3,0,0.6-0.3,0.8c-0.3,0.2-0.6,0.1-0.8-0.1C73.6,24.5,73.3,23.8,72.9,23.3z
				 M78.7,27.5h-5.2v1.4h5.1L78.7,27.5z M73.5,30.8h5.1v-1.4h-5.1V30.8z M76.7,21.2l0.7-0.9c0.5,0.4,1,0.8,1.3,1.1
				c0,0.2-0.2,0.2-0.4,0.2h-4.5l-0.1-0.5H76.7z M77.7,25.6h2.1V23h-3.1v2.6h0.6c0.3-0.8,0.6-1.6,0.8-2.4l1.7,0.6
				c-0.1,0.2-0.3,0.3-0.6,0.3C78.7,24.6,78.2,25.1,77.7,25.6L77.7,25.6z"/>
			<path id="a919cda0-882e-4964-b9df-1344e2c6d910" class="st1" d="M85.8,32l-0.1-0.2c1-0.3,1.9-0.7,2.8-1.2c0.8-0.4,1.5-1,2.1-1.6
				l2.1,0.9c-0.1,0.2-0.4,0.3-0.8,0.2C90,31.2,87.9,31.8,85.8,32z M89,28.7v0.5c0,0.1-0.1,0.2-0.4,0.3c-0.3,0.1-0.6,0.2-0.8,0.2
				h-0.2v-7.7l1.6,0.7h7.4l0.7-0.8l1.6,1.2c-0.2,0.2-0.4,0.3-0.7,0.3v5.7c0,0.1-0.2,0.2-0.5,0.3c-0.3,0.1-0.5,0.2-0.8,0.2h-0.2v-0.6
				L89,28.7z M89.6,21.3v0.3c0,0-0.1,0.1-0.2,0.2c-0.2,0.1-0.3,0.1-0.5,0.2C88.7,22,88.5,22,88.3,22h-0.2v-4.2l1.6,0.6h6.2l0.7-0.8
				l1.6,1.2c-0.2,0.2-0.4,0.3-0.7,0.3v2.3c0,0-0.2,0.1-0.5,0.2c-0.2,0.1-0.5,0.1-0.8,0.1H96v-0.5L89.6,21.3z M96.6,23H89v1.4h7.6
				L96.6,23z M96.6,26.3v-1.5H89v1.5H96.6z M89,28.2h7.6v-1.5H89L89,28.2z M96,18.9h-6.4v1.9h6.5L96,18.9z M93.9,29.5l0.1-0.2
				c2.3,0,4,0.4,4.9,1.2c0.5,0.4,0.7,0.8,0.6,1.1s-0.3,0.4-0.8,0.4l0,0c-0.7-0.5-1.4-1-2.2-1.4C95.6,30.2,94.8,29.9,93.9,29.5
				L93.9,29.5z"/>
			<path id="ab7afec5-85c3-4958-af2c-c0e301f79efa" class="st1" d="M102.4,32l-0.2-0.2c1.1-1.2,1.9-2.6,2.3-4.1l1.9,0.8
				c-0.1,0.2-0.3,0.3-0.6,0.2C105,30.2,103.8,31.3,102.4,32z M114.2,32c0-0.4-0.1-0.8-0.4-1.1c-0.4-0.2-0.8-0.4-1.2-0.4v-0.2
				c1,0.1,1.6,0.1,1.8,0.1s0.3-0.1,0.3-0.3v-3.9h-2.6c-0.1,2.4-1.3,4.6-3.3,5.9l-0.2-0.2c1.1-1.2,1.9-2.7,2.1-4.4
				c-0.1,0-0.2,0-0.2,0h-8.2l-0.1-0.4h1.5v-6.5h-1.2l-0.1-0.4h1.3v-2.3l1.9,0.2c0,0.2-0.2,0.4-0.5,0.4v1.7h2.3v-2.3l2,0.2
				c0,0.2-0.2,0.4-0.6,0.4v1.7h0.1l0.6-1c0.5,0.5,0.8,0.8,1.1,1.2c0,0.2-0.2,0.2-0.4,0.2h-1.4V27h0.1l0.7-1c0.4,0.4,0.8,0.8,1.1,1.1
				c0.1-1.1,0.2-2.1,0.2-3.2V18l1.6,0.6h2.1l0.7-0.8l1.5,1.2c-0.2,0.2-0.4,0.3-0.7,0.3v10.8c0,0.5-0.1,0.9-0.4,1.3
				C115.3,31.8,114.8,32,114.2,32z M107.5,20.5h-2.3v1.7h2.3L107.5,20.5z M105.2,22.8v1.9h2.3v-1.9H105.2z M105.2,25.1v2h2.3v-2
				H105.2z M106.9,28.1l0.2-0.1c1,0.1,1.9,0.7,2.4,1.5c0.2,0.3,0.1,0.7-0.1,1c-0.3,0.3-0.7,0.3-1,0c0,0,0,0,0,0c0,0,0,0-0.1,0
				c-0.1-0.4-0.3-0.9-0.5-1.3C107.5,28.8,107.2,28.4,106.9,28.1L106.9,28.1z M112.2,25.7h2.5v-3.1h-2.5v1.4
				C112.3,24.5,112.3,25.1,112.2,25.7L112.2,25.7z M114.8,19.1h-2.5v3h2.5V19.1z"/>
			<path id="f9a6f3c3-d7de-4fce-9834-5ebc279c351d" class="st1" d="M125.6,27.3l0.9,0.3c-0.1,0.2-0.3,0.3-0.6,0.3
				c-0.3,0.6-0.7,1.2-1.1,1.7c0.8,0.4,1.2,0.8,1.4,1.3c0.1,0.3,0,0.6-0.3,0.7c-0.2,0.1-0.4,0.1-0.6,0c-0.4-0.4-0.9-0.8-1.4-1.1
				c-1.4,0.9-2.9,1.5-4.6,1.6l-0.1-0.2c1.4-0.3,2.7-0.9,3.8-1.9c-0.7-0.3-1.1-0.5-1.2-0.6c-0.1,0.1-0.2,0.2-0.2,0.4
				c-0.1,0.2-0.2,0.3-0.2,0.3c-0.4,0.1-0.9,0.1-1.3-0.2c0.4-0.6,0.8-1.3,1.1-2l-1.4,0.2c-0.1,0.2-0.3,0.3-0.4,0.3l-0.4-1.4h2.7
				c0-0.1,0.1-0.3,0.2-0.5s0.2-0.4,0.2-0.5h-1.1v0.3c0,0,0,0.1-0.1,0.1c-0.1,0.1-0.2,0.1-0.4,0.1c-0.2,0.1-0.4,0.1-0.6,0.1h-0.2V23
				l0.2,0.1V21h-0.9l-0.1-0.4h1v-2.1l1.5,0.6h1v-1.5l1.8,0.2c0,0.2-0.2,0.4-0.6,0.4V19h1.2l0.6-0.6l1.3,1c-0.1,0.1-0.3,0.2-0.5,0.2
				v1h0.1l0.6-0.8c0.4,0.3,0.7,0.6,1.1,1c0,0.2-0.1,0.2-0.4,0.2h-1.4v1.6c0,0.1-0.1,0.1-0.4,0.2c-0.2,0.1-0.4,0.1-0.7,0.1H125v-0.4
				h-1.3v1h1.4l0.6-0.6l1.3,1c-0.1,0.1-0.3,0.2-0.5,0.2V26c0,0-0.1,0.1-0.4,0.2c-0.2,0.1-0.4,0.1-0.6,0.1h-0.2v-0.4h-2l0.8,0.1
				c-0.1,0.2-0.3,0.3-0.6,0.3c0,0.1-0.1,0.3-0.3,0.5l4.7-0.2V27C126.8,27.1,126.1,27.2,125.6,27.3z M120.3,23.1h-0.2l1.2,0.5h1.3v-1
				h-1.2v0.2c0,0,0,0.1-0.1,0.1c-0.1,0.1-0.2,0.1-0.4,0.1C120.6,23.1,120.5,23.1,120.3,23.1z M121.1,24v1.3h1.4V24L121.1,24z
				 M121.3,19.5v1.1h1.2v-1.1H121.3z M122.5,21h-1.2v1.1h1.2V21z M122.7,27.7l-0.3,0.6c-0.2,0.3-0.2,0.5-0.3,0.6
				c0.6,0,1.1,0.1,1.7,0.3c0.4-0.5,0.8-1.1,1-1.7l-0.6,0.1l-0.7,0.1L122.7,27.7z M125.1,19.5h-1.3v1.1h1.3V19.5z M125.1,22.1V21
				h-1.3v1.1L125.1,22.1z M125.3,24h-1.5v1.3h1.5V24z M133.3,21.5h-0.6c-0.2,2.3-0.8,4.5-1.9,6.5c0.8,1.2,1.8,2.1,3,2.8l-0.1,0.1
				c-0.6,0.1-1.1,0.5-1.3,1.1c-1-0.8-1.8-1.8-2.4-3c-1,1.3-2.3,2.3-3.8,3l-0.1-0.2c1.4-1,2.6-2.4,3.4-4c-0.6-1.5-0.9-3.1-1.1-4.8
				c-0.4,0.7-0.8,1.3-1.3,1.9l-0.2-0.1c1-2.3,1.6-4.7,1.8-7.2l2.1,0.5c-0.1,0.2-0.2,0.3-0.6,0.4c-0.2,0.9-0.5,1.7-0.8,2.6h1.9
				l0.9-1.1c0.6,0.5,1.1,0.9,1.5,1.3C133.7,21.4,133.5,21.5,133.3,21.5L133.3,21.5z M131.1,21.5h-1.8c-0.1,0.2-0.2,0.5-0.5,1.1
				c0.2,1.4,0.7,2.8,1.3,4.1C130.7,25,131,23.2,131.1,21.5L131.1,21.5z"/>
		</g>
		<g id="b37e6ccb-2238-4d08-ac35-1b68c6617240">
			<path id="ad4ec832-6c57-4028-8045-a27e5e8709ce" class="st1" d="M218.1,11.6h-0.4c-0.7,1.2-1.7,2.2-2.9,2.9l-0.2-0.1
				c0.6-0.7,1.1-1.5,1.4-2.3c0.5-0.9,0.8-1.9,1.1-2.8l1.9,0.7c-0.1,0.2-0.4,0.3-0.6,0.3c-0.1,0.3-0.3,0.6-0.5,0.9h2.1l0.8-1
				c0.5,0.4,0.9,0.8,1.3,1.2c0,0.2-0.2,0.2-0.4,0.2h-3c0.8,0.4,1.2,0.8,1.2,1.4c0,0.3-0.1,0.6-0.4,0.7c-0.3,0.1-0.6,0-0.9-0.2
				C218.7,12.8,218.5,12.2,218.1,11.6z M226.7,18.6l0.8-0.8l1.4,1.2c-0.2,0.1-0.4,0.2-0.6,0.2c-0.2,2-0.6,3.2-1.2,3.6
				c-0.5,0.3-1.1,0.4-1.6,0.4c0.1-0.4,0-0.7-0.2-1c-0.3-0.3-0.7-0.4-1.1-0.5v-0.2l1.6,0.1c0.2,0,0.3,0,0.5-0.1
				c0.3-0.2,0.5-1.1,0.7-2.6h-4v4.4c0,0-0.1,0.1-0.1,0.1c-0.1,0.1-0.3,0.1-0.4,0.2c-0.2,0.1-0.4,0.1-0.6,0.1h-0.2v-3.5
				c-1.8,1.7-4,2.9-6.4,3.4l-0.1-0.2c1.1-0.5,2.2-1.2,3.2-2c0.9-0.7,1.7-1.6,2.3-2.5h-2.7c-0.1,0.3-0.2,0.7-0.3,1.1
				c-0.5,0.2-1,0.2-1.5,0c0.5-1.5,0.9-3,1.2-4.5l1.6,0.7h2.8v-1.9h-5l-0.1-0.5h9.8l0.7-0.7l1.5,1.1c-0.2,0.2-0.4,0.3-0.6,0.3v2.6
				c0,0.1-0.2,0.1-0.4,0.2c-0.2,0.1-0.5,0.2-0.8,0.2h-0.2v-0.9h-3.4v1.8L226.7,18.6z M217.7,18.6h3.6v-1.8h-3.2l-0.2,0.7
				C217.8,18,217.8,18.3,217.7,18.6L217.7,18.6z M227,11.2l0.8-1c0.6,0.5,1.1,0.9,1.5,1.2c0,0.2-0.2,0.2-0.4,0.2h-3.8
				c0.7,0.4,1,0.8,1,1.3c0,0.3-0.2,0.6-0.4,0.6c-0.3,0.1-0.6,0-0.8-0.2c-0.1-0.6-0.3-1.2-0.7-1.8h-0.7c-0.6,0.8-1.3,1.5-2.2,2
				l-0.2-0.1c0.9-1.3,1.5-2.7,1.9-4.2l2,0.7c-0.1,0.2-0.3,0.3-0.6,0.3c-0.2,0.4-0.4,0.7-0.6,0.9L227,11.2z M222.8,14.5v1.9h3.3v-1.9
				H222.8z"/>
			<path id="bdc01d54-8dd1-46f4-8c16-c1f100801628" class="st1" d="M231.6,15.9h11.2l1.1-1.6c0.9,0.7,1.6,1.4,2.1,1.8
				c0,0.2-0.2,0.3-0.5,0.3h-13.8L231.6,15.9z"/>
			<path id="ac6a1503-3597-4e1d-a1c4-10e4c1d032ee" class="st1" d="M248.4,23.8l-0.2-0.2c1.1-1.1,1.9-2.5,2.4-4.1l1.9,0.8
				c-0.1,0.2-0.3,0.3-0.6,0.2C251,22,249.8,23.1,248.4,23.8z M260.2,23.8c0-0.4-0.1-0.8-0.4-1.1c-0.4-0.2-0.8-0.4-1.2-0.4v-0.2
				c1,0.1,1.6,0.1,1.8,0.1s0.4-0.1,0.4-0.3v-4h-2.5c-0.1,2.4-1.3,4.6-3.4,5.9l-0.2-0.1c1.1-1.2,1.9-2.7,2.1-4.4c-0.1,0-0.2,0-0.2,0
				h-8.1l-0.1-0.4h1.5v-6.5h-1.2l-0.1-0.4h1.3V9.6l1.9,0.2c0,0.2-0.2,0.3-0.5,0.4v1.7h2.3V9.6l2,0.2c0,0.2-0.2,0.4-0.5,0.4v1.7h0.1
				l0.6-0.9c0.5,0.4,0.9,0.8,1.1,1.2c0,0.2-0.2,0.2-0.4,0.2h-1.4v6.5h0.1l0.7-1c0.4,0.3,0.8,0.7,1.1,1.1c0.1-1.1,0.2-2.1,0.2-3.2
				V9.8l1.6,0.6h2.1l0.7-0.8l1.5,1.2c-0.2,0.2-0.4,0.3-0.6,0.3V22c0,0.5-0.1,0.9-0.4,1.3C261.4,23.6,260.8,23.8,260.2,23.8
				L260.2,23.8z M253.5,12.4h-2.3v1.7h2.3V12.4z M251.1,14.6v1.9h2.3v-1.9L251.1,14.6z M251.1,16.9v2h2.3v-2H251.1z M252.9,19.9
				l0.1-0.1c1,0.1,1.9,0.7,2.4,1.5c0.2,0.3,0.1,0.8-0.1,1c-0.3,0.3-0.7,0.3-1,0c0,0,0,0,0,0h-0.1c-0.1-0.5-0.2-0.9-0.5-1.3
				C253.5,20.6,253.2,20.2,252.9,19.9L252.9,19.9z M258.2,17.5h2.5v-3.1h-2.5v1.4C258.3,16.3,258.3,16.9,258.2,17.5L258.2,17.5z
				 M260.7,11h-2.5v3h2.5L260.7,11z"/>
			<path id="b6aba541-3002-4b3f-8ea0-3290442d6e19" class="st1" d="M207.2,34.5c0-2.3,1.2-4.3,3.2-5.4l0.2,0.2
				c-2.9,2.4-3.3,6.6-0.9,9.5c0.3,0.3,0.5,0.6,0.9,0.9l-0.2,0.2C208.4,38.8,207.2,36.8,207.2,34.5z"/>
			<path id="bf8fc01e-f71e-4d37-a967-725f7a927db9" class="st1" d="M212.6,30.4h5.2v0.7l-3,7.8h-1l-0.1-0.1l3.5-7.3h-4.5L212.6,30.4
				z"/>
			<path id="bb0da690-ca38-4b73-a9f3-d6f64fdc320f" class="st1" d="M219.4,40.9l3.4-11h0.7l-3.4,11H219.4z"/>
			<path id="b604b1c6-bac6-486c-bdec-23dd8ac31206" class="st1" d="M228.4,38.3l1.7,0.2v0.4h-4.8v-0.4l1.8-0.2c0-0.9,0-1.6,0-2.1v-5
				l-1.6,0.2v-0.4l2.7-0.7l0.1,0.1v1.8v4C228.4,36.7,228.4,37.4,228.4,38.3z"/>
			<path id="e804c055-bb8a-4ecf-aa96-4b3fe6e23509" class="st1" d="M235.4,34.3c0.3,0.3,0.7,0.5,1.1,0.6c0.5,0,0.8-0.4,0.9-1.3
				l0.5,0.1c0,0.5-0.1,0.9-0.4,1.3c-0.3,0.3-0.7,0.5-1.1,0.4c-0.2,0-0.5-0.1-0.7-0.2c-0.3-0.1-0.5-0.3-0.8-0.5
				c-0.3-0.3-0.7-0.5-1.1-0.6c-0.5,0-0.8,0.4-0.9,1.2l-0.6-0.1c0-0.5,0.1-0.9,0.4-1.3c0.3-0.3,0.7-0.5,1.1-0.5
				C234.4,33.6,235,33.9,235.4,34.3z"/>
			<path id="b6c24c00-9dac-42a4-b71b-3be9cc84e373" class="st1" d="M240.5,39.1l-0.1-0.4c0.9-0.3,1.7-0.8,2.4-1.5
				c0.6-0.7,0.9-1.5,1.1-2.3c-0.5,0.4-1,0.6-1.6,0.6c-0.7,0-1.3-0.2-1.8-0.7c-0.5-0.5-0.7-1.2-0.7-1.8c0-0.7,0.3-1.5,0.8-2
				c0.5-0.5,1.3-0.8,2-0.8c0.8,0,1.5,0.3,2,0.9c0.5,0.7,0.8,1.6,0.7,2.5c0,1.3-0.4,2.5-1.2,3.4C243.2,38.2,241.9,38.9,240.5,39.1z
				 M242.7,34.9c0.5,0,0.9-0.2,1.2-0.5c0-0.3,0-0.5,0-0.8c0-0.8-0.1-1.5-0.4-2.2c-0.2-0.4-0.6-0.7-1.1-0.7c-0.4,0-0.8,0.2-1.1,0.5
				c-0.3,0.5-0.5,1-0.4,1.6c0,0.6,0.1,1.1,0.5,1.5C241.8,34.7,242.2,34.9,242.7,34.9L242.7,34.9z"/>
			<path id="a84ccd74-e9fb-419d-82b6-f699e41e2e90" class="st1" d="M246.8,40.9l3.4-11h0.7l-3.4,11H246.8z"/>
			<path id="e185ff55-ae12-4d93-b64f-d7e91217973f" class="st1" d="M254.2,30.8l-0.2,0.8c-0.1,0.5-0.3,0.7-0.7,0.7
				c-0.3,0-0.5-0.1-0.6-0.4c0.1-0.5,0.4-1,0.8-1.3c0.5-0.3,1.1-0.5,1.6-0.4c0.6,0,1.3,0.2,1.8,0.6c0.4,0.4,0.7,0.9,0.6,1.5
				c0,0.5-0.2,0.9-0.5,1.3c-0.4,0.4-0.8,0.7-1.4,0.8c0.6,0.1,1.2,0.3,1.6,0.8c0.4,0.4,0.5,0.9,0.5,1.5c0,0.7-0.3,1.3-0.8,1.7
				c-0.6,0.5-1.3,0.7-2.1,0.7c-0.6,0-1.2-0.1-1.7-0.5c-0.4-0.3-0.7-0.8-0.8-1.3c0.1-0.3,0.3-0.4,0.6-0.4c0.2,0,0.3,0.1,0.5,0.2
				c0.1,0.2,0.2,0.4,0.3,0.7l0.2,0.8c0.2,0.1,0.4,0.1,0.7,0.1c0.5,0,1-0.2,1.4-0.5c0.3-0.4,0.5-0.9,0.5-1.4c0-0.5-0.1-1.1-0.5-1.5
				c-0.4-0.4-0.9-0.6-1.4-0.5h-0.6v-0.5h0.5c0.9,0.1,1.7-0.6,1.8-1.5c0-0.1,0-0.2,0-0.3c0-0.4-0.1-0.9-0.4-1.2
				c-0.3-0.3-0.7-0.5-1.1-0.4C254.6,30.7,254.4,30.7,254.2,30.8z"/>
			<path id="b364f5d9-46d1-49e5-848a-388dfa5654aa" class="st1" d="M262.5,30.3c0.8,0,1.5,0.4,1.9,1.1c0.6,1,0.8,2.1,0.8,3.3
				c0.1,1.2-0.2,2.3-0.8,3.3c-0.4,0.7-1.1,1.1-1.9,1.1c-0.8,0-1.6-0.4-2-1.1c-0.6-1-0.9-2.2-0.8-3.3c-0.1-1.1,0.2-2.3,0.8-3.3
				C260.9,30.7,261.7,30.3,262.5,30.3z M261,34.6c0,2.7,0.5,4,1.5,4c1,0,1.5-1.3,1.4-4c0-2.6-0.5-3.9-1.4-3.9S261,32,261,34.6z"/>
			<path id="b7b31085-c622-4072-9576-dfeaba452021" class="st1" d="M267,29.3l0.2-0.2c3,1.6,4.1,5.4,2.4,8.4c-0.6,1-1.4,1.9-2.4,2.4
				l-0.2-0.2c2.9-2.4,3.3-6.6,0.9-9.5C267.6,29.9,267.3,29.6,267,29.3z"/>
		</g>
		<g id="f160663e-15ab-4af5-af4f-7a9ff2d4fcd5">
			<path id="b6c0d659-7c0e-4ab5-ab35-3b6922e0144a" class="st1" d="M71.9,70.6c-0.5,2.5-1.9,4.6-4,6.1c-0.3-0.4-0.6-0.7-1-1
				c1.6-1,2.8-2.5,3.3-4.2h-3v-1.2h3.6h0.2L71.9,70.6z M79.4,69.4c-1.1,1-2.3,2-3.5,2.9c1,1.4,2.4,2.6,4,3.2
				c-0.3,0.3-0.6,0.7-0.9,1.2c-2.1-1-3.8-2.7-4.8-4.9v4.1c0,0.7-0.2,1.1-0.7,1.3c-0.8,0.2-1.6,0.3-2.4,0.2c-0.1-0.5-0.2-0.9-0.5-1.3
				c0.8,0,1.6,0,1.9,0s0.3-0.1,0.3-0.3v-7.1h-3.7v-1.2h5.1v1.1c0.3,0.9,0.6,1.8,1.1,2.7c1.1-0.8,2.1-1.7,3-2.8L79.4,69.4z
				 M75.4,67.7c-1.6-0.8-3.3-1.5-5.1-1.9l0.6-1.1c1.8,0.4,3.5,1,5.1,1.8L75.4,67.7z"/>
			<path id="f7a27b11-4ed2-464f-93dc-a315932c44ff" class="st1" d="M82.5,73.8c-0.1,1.2-0.4,2.4-0.7,3.6c-0.3-0.1-0.7-0.3-1-0.3
				c0.3-1.1,0.6-2.3,0.6-3.4L82.5,73.8z M84.8,73.3c0-0.2-0.1-0.5-0.1-0.8c-1.1,0.1-2.2,0.3-3.3,0.6c-0.1-0.4-0.2-0.7-0.4-1.1
				c0.3-0.1,0.6-0.4,1-1c0.4-0.5,0.7-0.9,1-1.4c-0.6,0-1.1,0.1-1.7,0.3c-0.1-0.4-0.2-0.7-0.4-1.1c0.2,0,0.5-0.3,0.7-0.8
				c0.7-1.1,1.2-2.3,1.6-3.5l1.1,0.4c-0.5,1.3-1.1,2.5-1.8,3.7l1.2-0.1c0.3-0.6,0.7-1.2,0.9-1.9l1,0.6c-0.8,1.6-1.7,3-2.8,4.4
				l1.7-0.2c-0.1-0.4-0.2-0.8-0.4-1.2l0.9-0.2c0.3,1,0.6,1.9,0.8,2.9L84.8,73.3z M83.8,73.6c0.2,1.1,0.3,2.1,0.4,3.2l-1,0.2
				c0-1.1-0.1-2.2-0.3-3.2L83.8,73.6z M85,73.3c0.3,0.8,0.6,1.7,0.8,2.5l-0.9,0.3c-0.2-0.9-0.4-1.7-0.7-2.6L85,73.3z M91,75.5
				c1,0.3,2,0.8,2.7,1.1l-0.5,0.9c-0.7-0.3-1.9-0.9-3-1.3l0.4-0.7h-2.2l0.8,0.7c-1.1,0.5-2.4,1-3.4,1.4c-0.1-0.3-0.3-0.6-0.5-0.9
				c1-0.3,1.9-0.7,2.8-1.2h-2v-4.1H93v4.1H91z M89,66.3h-3.4v-0.9H89v-0.6h1.3v0.7h3.3v0.9h-3.3v0.6H93v0.8h-6.9v-0.8H89V66.3z
				 M85.6,68.2h7.8v2.7h-7.8V68.2z M86.7,70H88v-1h-1.3V70z M87.2,72.6h4.5v-0.5h-4.5V72.6z M87.2,73.7h4.5v-0.5h-4.5V73.7z
				 M87.2,74.8h4.5v-0.6h-4.5V74.8z M90.2,70v-1H89v1H90.2z M92.3,69h-1.2v1h1.1L92.3,69z"/>
			<path id="befa52e4-6064-41e3-948b-a6a8fcb7bfb6" class="st1" d="M99.2,72.8l0.2,1.2c-1.4,0.6-3,1.2-4.2,1.7l-0.4-1.3l1.7-0.6
				v-4.6h-1.5v-1.2h1.5v-3.2h1.2v3.2h1.5v1.2h-1.5v4.1L99.2,72.8z M107.7,70.1v1.2h-8.6v-1.2h5.1c0.4-0.9,0.7-1.8,0.9-2.7l1.2,0.3
				c-0.3,0.8-0.6,1.7-0.9,2.3H107.7z M107.2,67.4h-7.6v-1.1h3.2c-0.1-0.5-0.2-1-0.4-1.4l1.2-0.2c0.2,0.5,0.3,1.1,0.4,1.6h3.1
				L107.2,67.4z M100.2,72.3h6.3v5.1h-1.2v-0.5h-3.9v0.6h-1.2V72.3z M101.2,70c-0.1-0.8-0.4-1.5-0.7-2.2l1.1-0.3
				c0.3,0.7,0.6,1.4,0.7,2.2L101.2,70z M101.4,73.5v2.3h3.9v-2.3H101.4z"/>
			<path id="b26417db-815d-4a98-a50b-a6afbd0bb373" class="st1" d="M120.9,67.7c0,0,0,0.5,0,0.6c-0.3,5.6-0.6,7.7-1.2,8.4
				c-0.3,0.4-0.8,0.6-1.3,0.6c-0.7,0-1.5,0-2.2,0c-0.1-0.5-0.2-0.9-0.5-1.3c0.9,0.1,1.8,0.1,2.1,0.1c0.2,0,0.5,0,0.6-0.2
				c0.5-0.4,0.8-2.3,1-6.9h-4.4c-0.1,3.6-2,6.8-5.1,8.6c-0.3-0.4-0.6-0.7-1-1c2.8-1.5,4.6-4.4,4.7-7.6h-4.3v-1.3h4.3v-2.9h1.4v2.9
				L120.9,67.7z"/>
			<path id="f545c8c5-dd8b-45cb-ab98-330862fe2c39" class="st1" d="M130.8,70.2v0.1h4c0,0,0,0.4,0,0.6c-0.2,4-0.3,5.5-0.8,6
				c-0.3,0.3-0.7,0.5-1.1,0.5c-0.6,0-1.3,0-1.9,0c0-0.5-0.2-0.9-0.4-1.3c0.8,0.1,1.5,0.1,1.8,0.1c0.2,0,0.4,0,0.5-0.2
				c0.3-0.3,0.4-1.5,0.6-4.5h-2.7c-0.2,2.5-1.5,4.7-3.6,6c-0.3-0.3-0.6-0.6-1-0.9c2.2-1.4,3.5-3.9,3.3-6.5v-1.8h-2.1v1h-1.5v3.7
				l1.6-0.6l0.2,1.2c-1.6,0.6-3.4,1.3-4.7,1.8l-0.3-1.3c0.5-0.2,1.2-0.4,1.9-0.7v-4.2h-1.7v-1.2h1.7v-3.2h1.3v3.2h1.5v-1h8.2v1.2
				h-4.7L130.8,70.2z M131.2,67c-0.2-0.7-0.4-1.4-0.6-2.1l1.2-0.3c0.2,0.7,0.6,1.5,0.7,2.1L131.2,67z"/>
		</g>
		<g id="ef3e43a8-e0c8-41c2-b2e2-fdfbcdc41223">
			<path id="eb514fe9-688f-4364-87dc-c6a18b758685" class="st1" d="M226.7,67.5h-4.8v-1.3h6.6v1c-2.4,3-2.8,5.3-2.9,9.3h-1.6
				C224.1,72.7,224.8,70.3,226.7,67.5z"/>
			<path id="b0194a47-631d-477d-bde7-2351a8631a45" class="st1" d="M240.6,75.8c0,0.8-0.2,1.2-0.8,1.4c-1,0.3-2,0.3-3,0.3
				c-0.1-0.5-0.3-0.9-0.6-1.4c1.1,0.1,2.2,0,2.5,0s0.4-0.1,0.4-0.4v-2.4h-6.3c-0.3,1.6-1.2,3.1-2.4,4.2c-0.3-0.4-0.6-0.7-1-1
				c2.2-1.9,2.4-4.6,2.4-6.8v-4.3h8.7L240.6,75.8z M239.2,72V70h-6c0,0.7,0,1.4-0.1,2.1L239.2,72z M233.2,66.7v2.1h6v-2.1
				L233.2,66.7z"/>
			<path id="bf70c56d-9d32-4277-8697-1027d0145176" class="st1" d="M248.4,74c-0.3-0.4-0.8-1.1-1.3-1.7v5.3h-1.3v-5.1
				c-0.5,0.6-1,1.1-1.6,1.5c-0.2-0.4-0.4-0.9-0.6-1.3c1.5-1.2,2.7-2.6,3.6-4.3h-3.2v-1.2h2.5c-0.3-0.6-0.7-1.3-1.2-1.9l1-0.6
				c0.5,0.6,0.9,1.2,1.2,1.8l-0.9,0.6h1.3l0.2-0.1l0.7,0.5c-0.4,1.1-1,2.1-1.6,3.1v0.1c0.1,0.1,0.2,0.2,0.4,0.4
				c0.4-0.4,0.7-0.9,1-1.4l0.9,0.7c-0.5,0.4-1,0.9-1.4,1.2c0.5,0.5,1,1,1.1,1.2L248.4,74z M255.9,65.8c0,0,0,0.5,0,0.7
				c-0.2,7.1-0.3,9.4-0.8,10.2c-0.2,0.4-0.7,0.7-1.1,0.7c-0.7,0-1.3,0-2,0c0-0.4-0.2-0.9-0.4-1.2c0.8,0.1,1.5,0.1,1.8,0.1
				c0.2,0,0.4-0.1,0.5-0.2c0.4-0.5,0.6-2.8,0.7-8.9h-2.3c-0.2,4.9-0.9,8.2-3.4,10.4c-0.3-0.4-0.6-0.7-1-1c2.4-1.8,3-5,3.1-9.4h-2
				v-1.2L255.9,65.8z"/>
		</g>
		<g id="b74db825-22b4-4618-a6ef-0484819ad0b5">
			<path id="a3571727-83bd-4041-9954-6d158f9a29c5" class="st2" d="M26.1,120.4c0.9,2.5,3,4.3,5.6,5c-0.3,0.4-0.6,0.8-0.9,1.2
				c-2.5-0.8-4.6-2.7-5.6-5.2c-0.7,2-2.2,3.8-5.6,5.2c-0.2-0.4-0.5-0.8-0.9-1.1c3.4-1.3,4.8-3.2,5.3-5.1h-4.9v-1.3h5.1
				c0-0.4,0.1-0.9,0.1-1.3v-1.5h-4.7v-1.3h10.9v1.3h-4.9v1.5c0,0.4,0,0.9-0.1,1.3h5.5v1.3L26.1,120.4z"/>
			<path id="e02fdd30-fabe-4477-93d3-4223fa67c9a8" class="st2" d="M39.5,116.2v2.3l0.2-0.3c1.7,0.8,3.3,1.8,4.8,2.8l-1,1.2
				c-1.3-1-2.7-1.9-4.1-2.7v7h-1.3v-10.4H33v-1.3h12.3v1.3H39.5z"/>
			<path id="f5592b52-7942-48bf-8143-e04ab3498d9f" class="st2" d="M50.8,122.3c0-0.2-0.1-0.4-0.1-0.7c-2.9,0.4-3.3,0.5-3.6,0.7
				c-0.1-0.4-0.2-0.8-0.4-1.2c0.3-0.1,0.6-0.4,1-0.9c0.4-0.4,0.7-0.9,1-1.4c-0.6,0-1.2,0.1-1.8,0.3c-0.1-0.4-0.2-0.7-0.4-1.1
				c0.2-0.1,0.5-0.3,0.8-0.8c0.7-1.1,1.3-2.2,1.8-3.4l1.2,0.5c-0.6,1.2-1.2,2.4-2,3.5l1.2-0.1c0.4-0.6,0.7-1.2,1-1.8l1.1,0.6
				c-0.9,1.5-1.9,3-3,4.3l1.9-0.2c-0.1-0.4-0.3-0.8-0.4-1.2l1-0.3c0.4,0.9,0.7,1.9,0.9,2.8L50.8,122.3z M48.3,123
				c-0.1,1.2-0.3,2.4-0.7,3.5c-0.3-0.2-0.7-0.3-1-0.4c0.3-1.1,0.5-2.2,0.6-3.3L48.3,123z M49.7,122.8c0.2,1,0.3,2,0.4,2.9l-1,0.2
				c-0.1-1-0.2-2-0.3-2.9L49.7,122.8z M51,122.4c0.3,0.7,0.5,1.5,0.7,2.3l-0.9,0.3c-0.2-0.8-0.4-1.5-0.6-2.3L51,122.4z M59.4,125.2
				v1.2h-7.9v-1.2h3.3v-2.3h-2.6v-1.2h6.6v1.2h-2.7v2.3L59.4,125.2z M53.4,121.3c-0.4-1-1-1.9-1.6-2.7c0.5-0.8,1-1.7,1.4-2.5
				l1.1,0.3c-0.4,0.7-0.9,1.6-1.3,2.2c0.6,0.7,1.1,1.5,1.5,2.3L53.4,121.3z M59.3,115.7h-7.4v-1.2h7.4L59.3,115.7z M56.6,116.3
				c-0.4,0.8-0.9,1.5-1.4,2.2c0.6,0.7,1,1.4,1.5,2.2l-1,0.5c-0.5-1-1-1.9-1.7-2.7c0.6-0.8,1-1.6,1.5-2.5L56.6,116.3z M58.2,121.3
				c-0.5-1-1.1-1.9-1.8-2.7c0.6-0.8,1.1-1.7,1.5-2.5l1.1,0.3c-0.4,0.7-0.9,1.6-1.4,2.2c0.6,0.7,1.2,1.5,1.6,2.3L58.2,121.3z"/>
			<path id="ee472a6c-4640-477c-8da3-1f658eb62cf8" class="st2" d="M62.6,120.2c-0.6-0.6-1.3-1.1-2.1-1.6l0.6-0.8
				c0.8,0.4,1.5,0.9,2.1,1.5L62.6,120.2z M60.7,125.8c0.5-1.1,1.2-2.8,1.8-4.3l0.8,0.6c-0.5,1.4-1.1,3.1-1.7,4.3L60.7,125.8z
				 M62.9,116.6c-0.6-0.7-1.3-1.3-2-1.8l0.7-0.7c0.7,0.5,1.4,1.1,2,1.8L62.9,116.6z M70.7,120.8h1.2v5.9h-1.2v-2.1h-4.8
				c-0.2,0.8-0.8,1.6-1.5,2.1c-0.3-0.3-0.6-0.5-1-0.7c1.1-0.8,1.7-2.1,1.6-3.4v-1.8h1.3v0.8h4.5L70.7,120.8z M65.6,118
				c-0.1,1.1-0.7,2.1-1.6,2.7c-0.1-0.3-0.3-0.5-0.5-0.7c0.7-0.5,1.2-1.2,1.3-2H64v-0.8h3.1v0.4c-0.1,1.7-0.1,2.4-0.3,2.7
				c-0.1,0.2-0.4,0.3-0.6,0.3c-0.3,0-0.5,0-0.8,0c0-0.3-0.1-0.6-0.2-0.8c0.2,0,0.4,0,0.6,0c0.1,0,0.2,0,0.2-0.1
				c0.1-0.5,0.2-1.1,0.2-1.6L65.6,118z M67.6,116.2h-3.7v-1h3.8c-0.1-0.4-0.2-0.8-0.3-1.2l1.2-0.2c0.2,0.5,0.3,0.9,0.4,1.4h4.1v1
				h-3.7l0.8,0.3c-0.4,0.5-0.9,0.9-1.3,1.3l0,0v3h-1v-2.9l0,0c0.5-0.5,1-1,1.4-1.6L67.6,116.2c0.3,0.4,0.5,0.8,0.6,1.2l-0.7,0.3
				c-0.1-0.4-0.3-0.8-0.6-1.2L67.6,116.2z M70.7,123.6v-1h-4.5c0,0.3,0,0.6-0.1,1H70.7z M72.8,117.3c-0.3,0.1-0.6,0.3-0.8,0.4
				c0.2,0.9,0.7,1.7,1.4,2.3c-0.2,0.2-0.4,0.4-0.6,0.7c-0.7-0.7-1.3-1.7-1.4-2.7l-0.7,0.2v1.5l0.9-0.3c0,0.2,0.1,0.5,0.1,0.7
				c-0.6,0.2-1.2,0.4-1.8,0.7l0,0c-0.1-0.3-0.2-0.6-0.4-0.8c0.2-0.1,0.3-0.3,0.3-0.9v-1.5l0,0c0.8-0.2,1.5-0.5,2.2-0.9L72.8,117.3z"
				/>
			<path id="b63a6b7d-7084-4348-b112-a3305832235b" class="st2" d="M78.8,117.2h-4.3v-1h2.2c-0.3-0.7-0.6-1.3-1-1.9l1-0.5
				c0.4,0.6,0.8,1.2,1.1,1.8l-1,0.6h2.1V117.2z M78.5,125.9H76v0.6h-1.1v-4.7h3.6V125.9z M78.5,119.1H75v-1h3.4L78.5,119.1z
				 M75,119.9h3.4v1H75L75,119.9z M76,122.8v2h1.5v-2H76z M83.9,114.5l-0.3,0.4c1,1.3,2.3,2.3,3.8,2.9c-0.4,0.3-0.7,0.7-0.9,1.2
				c-0.4-0.2-0.9-0.5-1.3-0.7v0.5h-4.7v-0.6c-0.4,0.4-0.9,0.7-1.4,1c-0.2-0.4-0.5-0.8-0.8-1.2c1.9-0.9,3.4-2.4,4.4-4.1L83.9,114.5z
				 M86.5,125.4c0,0.5-0.1,0.8-0.3,1c-0.4,0.2-0.8,0.3-1.2,0.2c0-0.4-0.1-0.7-0.3-1.1h0.7c0.1,0,0.1,0,0.1-0.1v-1.7h-1.1v2.7h-0.9
				v-2.7h-1v2.7h-0.9v-2.7h-1v3.1h-1.1v-6.9h7L86.5,125.4z M81.5,122.6v-1.7h-1v1.7H81.5z M84.5,117.7c-0.6-0.5-1.2-1.1-1.6-1.8
				c-0.5,0.7-1.1,1.3-1.7,1.9L84.5,117.7z M83.4,122.6v-1.7h-1v1.7H83.4z M85.4,122.6v-1.7h-1v1.7H85.4z"/>
			<path id="bc60f3ef-c3ec-487c-a199-068361dc55ab" class="st2" d="M92.8,123.3c-1.4,0.6-2.8,1.2-4,1.6l-0.4-1.3
				c0.5-0.2,1.1-0.3,1.7-0.6v-4.6h-1.4v-1.2H90V114h1.2v3.2h1.1v1.2h-1.1v4.2l1.3-0.5L92.8,123.3z M101.1,125.4v1h-9.3v-1H101.1z
				 M101,116h-8.8v-1h3.7c-0.2-0.3-0.4-0.6-0.6-0.9l1-0.5c0.4,0.4,0.7,0.9,0.9,1.3h3.8L101,116z M100.4,120.9h-7.6v-4.4h7.6V120.9z
				 M93.2,124.9v-3.5h6.7v3.5H93.2z M99.2,117.3h-5.4v2.8h5.4L99.2,117.3z M94.4,122.8h4.2v-0.7h-4.2V122.8z M94.4,124.1h4.2v-0.7
				h-4.2V124.1z M98.4,119.6h-3.7v-1.8h3.8L98.4,119.6z M97.5,118.4h-2v0.6h2V118.4z"/>
			<path id="a391c150-be64-4938-b84d-f22df73abec5" class="st2" d="M105.8,120.5c0-3.3,2-5.3,4.6-5.3c1.1,0,2.2,0.5,2.9,1.3l-0.9,1
				c-0.5-0.6-1.2-0.9-2-0.9c-1.8,0-3,1.5-3,3.9s1.1,3.9,3,3.9c0.9,0,1.7-0.4,2.3-1.1l0.9,1c-0.8,1-2,1.5-3.2,1.5
				C107.8,125.8,105.8,123.8,105.8,120.5z"/>
			<path id="adcd2164-aa30-48da-827e-373ca494e9d0" class="st2" d="M114.2,115.3h1.7l1,5.3l0.6,3.3l0,0c0.2-1.1,0.5-2.2,0.7-3.3
				l1.3-5.3h1.4l1.3,5.3c0.2,1.1,0.5,2.2,0.7,3.3h0.1c0.2-1.1,0.3-2.2,0.5-3.3l1-5.3h1.5l-2,10.3h-2l-1.4-5.7
				c-0.2-0.8-0.3-1.6-0.5-2.3h-0.1c-0.1,0.8-0.3,1.5-0.5,2.3l-1.3,5.7h-1.9L114.2,115.3z"/>
			<path id="b320188b-6418-41a7-9f5f-d89d7d941157" class="st2" d="M127.6,115.3h6v1.3h-4.4v2.9h3.8v1.4h-3.8v3.3h4.6v1.4h-6.2
				V115.3z"/>
			<path id="b1b1da1e-4a2f-41c5-b9ad-c73f7351e173" class="st2" d="M136,115.3h6.1v1.3h-4.5v3.1h3.8v1.3h-3.8v4.4H136V115.3z"/>
			<path id="fe550cd7-049d-4f7f-a2dd-f266a5176795" class="st2" d="M154.1,122.5c-0.7,1-1.7,1.8-2.8,2.4c1.5,0.3,3,0.5,4.5,0.6
				c-0.2,0.3-0.4,0.6-0.6,1c-1.9-0.1-3.7-0.4-5.4-1c-1.8,0.6-3.7,1-5.6,1.1c-0.1-0.4-0.3-0.7-0.5-1c1.5-0.1,3.1-0.3,4.6-0.7
				c-0.7-0.3-1.3-0.7-1.9-1.2c-0.6,0.4-1.2,0.7-1.8,1c-0.2-0.3-0.5-0.6-0.8-0.9c0.6-0.3,1.2-0.6,1.8-0.9c-0.3-0.3-0.5-0.6-0.7-0.9
				l0.9-0.3c0.2,0.3,0.4,0.5,0.6,0.7c0.4-0.3,0.7-0.6,1-1h-2.4v-5.2h3.6l0.1-0.7h-5v-1.1h11.7v1.1h-5.3c-0.1,0.2-0.2,0.5-0.3,0.7
				h4.3v5.2h-5.4c-0.2,0.2-0.3,0.4-0.5,0.7h4.9h0.2L154.1,122.5z M146.1,117.7h6.6V117h-6.6V117.7z M146.1,119.2h6.6v-0.7h-6.6
				V119.2z M146.1,120.6h6.6v-0.7h-6.6V120.6z M147.1,123.2c0.8,0.5,1.7,1,2.6,1.3c0.9-0.3,1.7-0.8,2.5-1.4h-4.8L147.1,123.2z"/>
			<path id="a7353d36-4e20-4b74-9d2a-56ec2b282409" class="st2" d="M162.8,118c-1.4,1.4-3.1,2.4-4.9,3.1c-0.2-0.4-0.5-0.7-0.8-1
				c1.6-0.5,3.1-1.3,4.4-2.3h-4.1v-1.1h5.4v-1.1c-1.4,0.1-2.9,0.2-4.3,0.2c-0.1-0.3-0.2-0.7-0.3-1c3,0,5.9-0.3,8.9-0.8l1.1,0.9
				c-1.4,0.3-2.7,0.5-4.1,0.6v1.2h5.5v1.1h-3.8c1.4,0.8,2.8,1.7,4.1,2.7l-0.8,0.9c-1.6-1.3-3.2-2.4-5-3.4v1.9h-1.2V118z
				 M164.1,122.8h5.5v1.1h-5.5v1.4c0,0.7-0.2,1-0.7,1.2c-0.8,0.2-1.7,0.2-2.6,0.2c-0.1-0.4-0.3-0.8-0.4-1.1c0.9,0,1.9,0,2.1,0
				s0.3-0.1,0.3-0.2v-1.4h-5.5v-1.1h5.5V122c0.6-0.2,1.1-0.4,1.6-0.7h-4.8v-1h6.3l0.3-0.1l0.8,0.7c-0.9,0.7-1.9,1.2-3,1.6
				L164.1,122.8z"/>
			<path id="b6091a4b-1c34-43f7-b8e3-a74ebe846e0b" class="st2" d="M175.4,122.2c-1.4,0.7-2.9,1.5-4.1,2l-0.5-1.3l1.8-0.8v-4.1h-1.5
				v-1.2h1.5V114h1.2v2.8h1.4v1.2h-1.4v3.6l1.3-0.6L175.4,122.2z M178.1,120.6c-0.1,0.3-0.3,0.6-0.5,0.8h5.8v0.5
				c-0.2,2.8-0.4,3.9-0.8,4.3c-0.2,0.2-0.5,0.4-0.8,0.4c-0.5,0-0.9,0-1.4,0c0-0.4-0.1-0.7-0.3-1.1c0.4,0,0.7,0.1,1.1,0.1
				c0.2,0,0.3,0,0.4-0.2s0.4-1,0.6-3h-0.8c-0.5,1.6-1.5,3.1-2.8,4.2c-0.3-0.3-0.6-0.5-0.9-0.7c1.2-0.9,2.1-2.1,2.6-3.5h-1.1
				c-0.8,1.5-1.9,2.7-3.3,3.6c-0.2-0.3-0.5-0.6-0.9-0.8c1.2-0.7,2.2-1.7,3-2.9h-1.2c-0.5,0.6-1.1,1.1-1.7,1.5
				c-0.3-0.3-0.6-0.6-0.9-0.8c1.1-0.6,2-1.5,2.6-2.6h-1.8v-1.1h8.7v1.1L178.1,120.6z M182.8,118.8h-6.4v-4.6h6.4L182.8,118.8z
				 M181.6,115.2h-4.1v0.9h4.1V115.2z M181.6,117h-4.1v0.9h4.1V117z"/>
		</g>
		<g id="b1405659-fe81-4af9-8484-c7b51c9ade57">
			<path id="a148a8ad-ebc6-404b-9b00-b4cd535b5262" class="st1" d="M75,167.2c0-3.3,2-5.4,4.6-5.4c1.1,0,2.2,0.5,2.9,1.3l-0.9,1
				c-0.5-0.6-1.2-0.9-2-0.9c-1.8,0-3,1.5-3,3.9s1.1,3.9,3,3.9c0.9,0,1.7-0.4,2.3-1.1l0.9,1c-0.8,1-2,1.5-3.2,1.5
				C77,172.4,75,170.5,75,167.2z"/>
			<path id="ac9b3bc1-066d-4ec5-99c3-33b0a5a431de" class="st1" d="M83.5,170.9l1-1.1c0.7,0.7,1.7,1.2,2.7,1.2
				c1.2,0,1.9-0.6,1.9-1.4s-0.7-1.2-1.6-1.6l-1.4-0.6c-1.2-0.4-2-1.4-2.1-2.7c0-1.6,1.4-2.8,3.4-2.8c1.2,0,2.3,0.5,3.1,1.3l-0.8,1
				c-0.6-0.6-1.4-0.9-2.2-0.9c-1,0-1.7,0.5-1.7,1.3s0.8,1.2,1.7,1.6l1.4,0.6c1.2,0.4,2.1,1.5,2.1,2.8c0,1.6-1.4,3-3.6,3
				C85.8,172.5,84.4,171.9,83.5,170.9z"/>
			<path id="e5bf77ab-7784-4afe-a84d-9680308a5ec6" class="st1" d="M98.3,172.3l-2.3-4.1h-1.6v4.1h-1.6V162H96c2.1,0,3.7,0.8,3.7,3
				c0.1,1.4-0.8,2.6-2.2,2.9l2.5,4.4L98.3,172.3z M94.3,166.8h1.5c1.5,0,2.3-0.6,2.3-1.9s-0.8-1.7-2.3-1.7h-1.5L94.3,166.8z"/>
			<path id="b102a1fe-5a48-419a-aa3e-6c5609812a13" class="st1" d="M112.3,172.1c0.4,0,0.5-0.2,0.5-1.6c0.3,0.2,0.7,0.4,1.1,0.5
				c-0.1,1.8-0.4,2.2-1.4,2.2h-1.6c-1.2,0-1.5-0.3-1.5-1.5v-1.4c-0.8,1.5-2.1,2.6-3.8,3.1c-0.2-0.4-0.4-0.7-0.7-1c2-0.5,3.5-2,4-4
				h-2.5v-3l-0.1,0.1c-0.2-0.3-0.5-0.6-0.7-0.8v6.1h-2.7v1h-1.1v-10.2h3.8v2.8c1.1-1,2-2.3,2.5-3.8l1.3,0.2
				c-0.1,0.3-0.2,0.6-0.4,0.9h2.6l0.2-0.1l1,0.3c-0.4,0.7-0.9,1.4-1.4,2.1h2v4.3h-2.7v3.3c0,0.4,0.1,0.4,0.5,0.4L112.3,172.1z
				 M102.7,162.8v2.8h1.5v-2.8H102.7z M104.2,169.6v-2.9h-1.5v2.9H104.2z M108.1,162.8c-0.3,0.5-0.5,0.9-0.9,1.3h2.3
				c0.4-0.4,0.7-0.9,1-1.3H108.1z M108.9,167.4c0.1-0.7,0.2-1.5,0.2-2.2h-1.8v2.2H108.9z M111.9,165.1h-1.6c0,0.7-0.1,1.5-0.2,2.2
				h1.8L111.9,165.1z"/>
			<path id="a7c2617e-f9e1-416d-aedf-12293ce9d606" class="st1" d="M124.4,170c-0.4,0.6-0.9,1-1.5,1.4c1.7,0.4,3.2,0.8,4.3,1.1
				l-1.1,0.8c-1.5-0.5-3-0.9-4.5-1.3c-1.9,0.7-3.9,1.2-5.9,1.3c-0.1-0.4-0.3-0.7-0.5-1c1.5-0.1,3-0.3,4.4-0.7
				c-0.9-0.2-1.8-0.4-2.8-0.5c0.4-0.4,0.8-0.8,1.1-1.2h-2.9v-1h3.7c0.3-0.4,0.6-0.8,0.9-1.3l1.2,0.4c-0.2,0.3-0.4,0.6-0.6,0.9h3.3
				c0.1-0.2,0.2-0.4,0.3-0.7l1.2,0.4L125,169h2.4v1L124.4,170z M116.6,164.3h-1.2v-2.7h5.3c-0.1-0.3-0.3-0.6-0.4-0.9l1.3-0.2
				c0.2,0.4,0.4,0.7,0.6,1.1h5.1v2.7H126v-1.6h-9.4L116.6,164.3z M125.1,167.8h-7.7v-4.2h7.7V167.8z M123.9,164.4h-5.1v0.8h5.2
				L123.9,164.4z M123.9,166.1h-5.1v0.8h5.2L123.9,166.1z M119.5,170c-0.2,0.2-0.4,0.4-0.6,0.6c0.8,0.1,1.6,0.3,2.3,0.4
				c0.6-0.3,1.1-0.6,1.6-1.1H119.5z"/>
		</g>
		<g id="a4300c84-cd87-4241-90dc-d2dd08db5d2a">
			<g id="fbc4209e-ef34-44a4-a1f2-c030eac81d3c">
				<path id="f87d30d1-cda3-46df-a50c-94711787ad82" class="st2" d="M46.4,213.8c0.9,2.5,3,4.3,5.6,5c-0.3,0.4-0.6,0.8-0.9,1.2
					c-2.5-0.8-4.6-2.7-5.6-5.2c-0.7,1.9-2.2,3.9-5.6,5.2c-0.2-0.4-0.5-0.8-0.8-1.1c3.4-1.3,4.8-3.2,5.3-5.1h-4.9v-1.3h5.1
					c0.1-0.4,0.1-0.9,0.1-1.4v-1.5H40v-1.3H51v1.3h-4.9v1.5c0,0.4,0,0.9-0.1,1.3h5.5v1.3L46.4,213.8z"/>
				<path id="ba16f55e-007f-40db-bc7d-857d1d572329" class="st2" d="M59.8,209.6v2.4l0.2-0.3c1.7,0.8,3.3,1.8,4.8,2.8l-0.9,1.2
					c-1.3-1-2.7-1.9-4.1-2.7v7h-1.4v-10.5h-5.2v-1.3h12.3v1.3H59.8z"/>
				<path id="f8805012-e1b5-4163-8d07-e0e0f18f704c" class="st2" d="M71.9,213.1c-0.5,2.5-1.9,4.6-4,6.1c-0.3-0.4-0.6-0.7-1-1
					c1.6-1,2.7-2.5,3.3-4.2h-3v-1.2h3.6l0.2-0.1L71.9,213.1z M79.3,212c-1.1,1-2.3,2-3.5,2.9c1,1.4,2.4,2.6,4,3.2
					c-0.3,0.3-0.7,0.7-0.9,1.1c-2.1-1-3.9-2.7-4.8-4.9v4.1c0,0.7-0.2,1.1-0.7,1.3c-0.8,0.2-1.6,0.3-2.4,0.2
					c-0.1-0.5-0.2-0.9-0.5-1.3c0.8,0,1.6,0,1.9,0s0.3-0.1,0.3-0.3v-7.1h-3.6v-1.2h5.1v1.1c0.3,0.9,0.6,1.8,1.1,2.7
					c1.1-0.8,2.1-1.7,3-2.8L79.3,212z M75.3,210.3c-1.6-0.8-3.3-1.5-5.1-1.9l0.6-1.1c1.8,0.4,3.5,1,5.1,1.8L75.3,210.3z"/>
				<path id="f8a5aa24-ecd6-4736-bc3c-188781ea7177" class="st2" d="M82.5,216.4c-0.1,1.2-0.3,2.4-0.7,3.6c-0.3-0.1-0.7-0.3-1-0.3
					c0.3-1.1,0.6-2.3,0.6-3.4L82.5,216.4z M84.8,215.9c0-0.2-0.1-0.5-0.1-0.8c-1.1,0.1-2.2,0.3-3.3,0.6c-0.1-0.4-0.2-0.7-0.4-1.1
					c0.3-0.1,0.6-0.4,1-1c0.4-0.5,0.7-0.9,1-1.4c-0.6,0-1.1,0.1-1.7,0.3c-0.1-0.4-0.2-0.7-0.4-1.1c0.3,0,0.5-0.3,0.7-0.8
					c0.7-1.1,1.2-2.3,1.6-3.5l1.1,0.4c-0.5,1.3-1.1,2.4-1.8,3.6l1.2-0.1c0.3-0.6,0.7-1.2,0.9-1.9l1,0.6c-0.8,1.6-1.7,3.1-2.8,4.4
					l1.7-0.2c-0.1-0.4-0.2-0.9-0.4-1.2l0.9-0.2c0.3,1,0.6,1.9,0.8,2.9L84.8,215.9z M83.8,216.2c0.2,1.1,0.3,2.1,0.4,3.2l-1,0.2
					c0-1.1-0.1-2.2-0.3-3.2L83.8,216.2z M85,215.9c0.3,0.8,0.5,1.7,0.7,2.5l-0.9,0.3c-0.2-0.9-0.4-1.7-0.7-2.6L85,215.9z M91,218.1
					c1,0.4,2,0.8,2.7,1.1l-0.5,0.9c-0.7-0.4-1.9-0.9-3-1.3l0.4-0.7h-2.2l0.8,0.7c-1.1,0.5-2.4,1-3.4,1.4c-0.1-0.3-0.3-0.6-0.5-0.9
					c1-0.3,1.9-0.7,2.8-1.2h-2V214h6.9v4.1H91z M89,208.8h-3.5V208h3.4v-0.7h1.3v0.7h3.2v0.9h-3.2v0.6h2.8v0.8H86v-0.8h2.9L89,208.8
					z M85.6,210.8h7.8v2.7h-7.8V210.8z M86.6,212.6h1.3v-1h-1.3V212.6z M87.2,215.2h4.6v-0.5h-4.6L87.2,215.2z M87.2,216.2h4.6v-0.5
					h-4.6L87.2,216.2z M87.2,217.3h4.6v-0.6h-4.6L87.2,217.3z M90.2,212.6v-1h-1.3v1H90.2z M92.3,211.6h-1.2v1h1.1L92.3,211.6z"/>
				<path id="e62e46b8-ef6e-42d1-8fd9-e4768240aca7" class="st2" d="M107.5,217h-4.9v3.1h-1.3V217h-6.3v-1.2h2.2v-3.7h4.1v-1.9h-3.2
					c-0.5,1-1.2,1.9-2,2.6c-0.4-0.3-0.7-0.6-1.1-0.8c1.4-1.3,2.4-2.9,3-4.7l1.3,0.4c-0.2,0.4-0.4,0.9-0.6,1.3h8.1v1.2h-4.2v1.9h3.9
					v1.2h-3.9v2.5h4.9L107.5,217z M101.3,215.8v-2.5h-2.8v2.5H101.3z"/>
				<path id="be2af00b-69dd-4b7d-9ce0-dfce4803983d" class="st2" d="M111.2,212.3c0,2.3-0.2,5.6-1.3,7.8c-0.4-0.2-0.8-0.4-1.2-0.6
					c1.1-2.1,1.2-5.1,1.2-7.2v-3.7h5.3c-0.1-0.4-0.3-0.7-0.5-1.1l1.3-0.3c0.2,0.4,0.5,0.9,0.6,1.4h4.7v1.2h-10.2V212.3z
					 M120.4,215.6c-0.6,1.1-1.6,2-2.7,2.6c1.3,0.4,2.6,0.6,3.9,0.7c-0.3,0.3-0.5,0.7-0.8,1.1c-1.6-0.2-3.1-0.5-4.6-1.1
					c-1.5,0.5-3.1,0.9-4.7,1.1c-0.1-0.4-0.3-0.8-0.5-1.1c1.3-0.1,2.6-0.3,3.8-0.7c-0.8-0.5-1.4-1.1-2-1.8l0.5-0.2h-1.7v-1h7.7h0.2
					L120.4,215.6z M113.6,214.5v-2.2h-2.1v-1h2.1v-1.1h1.2v1.1h3v-1.1h1.3v1.1h2.1v1h-2.1v2.2H113.6z M114.1,216.3
					c0.6,0.6,1.3,1.1,2.1,1.5c0.8-0.3,1.6-0.8,2.2-1.5L114.1,216.3z M114.8,212.3v1.2h3v-1.2L114.8,212.3z"/>
				<path id="f601e41c-a58f-4af1-836d-7ab49ebe0e5c" class="st2" d="M134.1,209.4V220h-1.4v-0.9h-7.4v1h-1.3v-10.7h3.4
					c0.3-0.7,0.5-1.4,0.7-2.2l1.7,0.3c-0.3,0.7-0.6,1.3-0.9,1.9L134.1,209.4z M125.4,210.8v2.9h7.4v-2.9H125.4z M132.8,217.8v-3
					h-7.4v3H132.8z"/>
				<path id="bf7a7c61-e063-4fc2-aeb2-4839105587a9" class="st2" d="M148.1,213.1c-0.6,1.7-1.6,3.2-3,4.4c1.3,0.7,2.8,1.2,4.3,1.4
					c-0.3,0.4-0.6,0.8-0.8,1.2c-1.6-0.3-3.2-0.9-4.6-1.8c-1.4,0.8-2.9,1.4-4.4,1.8c-0.2-0.4-0.4-0.8-0.8-1.2
					c1.4-0.3,2.8-0.7,4.1-1.4c-1.1-1-1.9-2.2-2.5-3.6h-1c0,2.2-0.6,4.3-1.8,6.1c-0.3-0.3-0.7-0.6-1.1-0.8c1.4-1.9,1.6-4.7,1.6-6.7
					v-3.4h4.7v-1.8h1.3v1.8h3.7l0.2-0.1l1,0.3c-0.3,1-0.8,2-1.2,3l-1.2-0.3c0.3-0.5,0.5-1.1,0.7-1.6h-3.1v2.3h2.9h0.2L148.1,213.1z
					 M139.4,212.7h3.4v-2.3h-3.4L139.4,212.7z M141.7,213.9c0.6,1.1,1.3,2.1,2.3,2.8c1-0.7,1.8-1.7,2.3-2.8H141.7z"/>
				<path id="b8577496-a059-43dd-816d-1b4c23fae3c3" class="st2" d="M163.1,214.2v0.9h-12.4v-0.9h5.5v-0.7h-4.5v-0.8h4.5v-0.6h-4.2
					v-0.8h4.2v-0.7h-5.5v-0.9h5.4V209h-4v-0.8h4v-0.9h1.3v0.9h3.9v1.5h1.6v0.9h-1.6v1.5h-3.9v0.6h4.6v0.8h-4.6v0.7L163.1,214.2z
					 M152.5,215.8h9v4.3h-1.3v-0.4h-6.4v0.4h-1.3V215.8z M153.8,216.6v0.7h6.4v-0.7H153.8z M160.2,218.8v-0.7h-6.5v0.7H160.2z
					 M157.5,209.7h2.6V209h-2.6V209.7z M157.5,211.3h2.6v-0.7h-2.6V211.3z"/>
			</g>
			<g id="a3249a2b-ce72-4686-a851-d2809e692982">
				<path id="f0b937e9-5610-4220-8358-6612885a16ef" class="st2" d="M65.8,233.3h-2.8v-1.2h2.8v-3H67v3h2.8v1.2H67v3h-1.2V233.3z"/>
				<path id="f0f1246a-bfdd-4499-8936-82d195b2f1cf" class="st2" d="M79.6,227.6c1.4,1.2,2.6,2.5,3.7,4l-1.1,0.8
					c-0.2-0.4-0.5-0.8-0.8-1.1c-7.7,0.4-8.6,0.4-9.2,0.6c-0.1-0.4-0.3-0.8-0.4-1.3c0.4-0.2,0.8-0.4,1.1-0.8c1.2-1.2,2.2-2.5,3.1-3.9
					l1.3,0.6c-1,1.4-2.1,2.7-3.3,3.9l6.5-0.3c-0.6-0.7-1.2-1.3-1.8-1.9L79.6,227.6z M72.8,233h9v5.9h-1.3v-0.7h-6.3v0.7h-1.3V233z
					 M74.1,234.2v2.7h6.3v-2.7H74.1z"/>
				<path id="b110c093-d82d-4ee1-97a5-cbcd60c25cc9" class="st2" d="M89.3,234.7c-0.3-0.5-0.6-1-1-1.5v5.7H87v-5.5
					c-0.4,1.1-1,2.2-1.7,3.1c-0.2-0.4-0.4-0.8-0.6-1.2c1-1.3,1.7-2.7,2.3-4.2H85v-1.2h2v-1.9c-0.6,0.1-1.2,0.2-1.8,0.3
					c-0.1-0.3-0.2-0.7-0.4-1c1.4-0.2,2.8-0.5,4.2-1l0.9,1c-0.6,0.2-1.1,0.4-1.7,0.5v2.1h1.4v-0.2h3.3v-0.6h-2.5v-0.8h2.6v-0.6h-2.8
					v-0.8h2.8v-0.7h1.3v0.7h3v0.8h-3v0.6h2.7v0.8h-2.7v0.6h3.3v0.9h-7.8v0.6h-1.5v0.7c0.6,0.6,1.2,1.2,1.8,1.8L89.3,234.7z
					 M96.8,236.7h-4.6l1,0.6c-1,0.7-2.1,1.3-3.3,1.7c-0.2-0.3-0.5-0.6-0.8-0.8c1.1-0.3,2.1-0.8,3-1.4h-1.5v-5.6h6.3V236.7z
					 M95.6,232h-3.9v0.8h3.9L95.6,232z M95.6,233.5h-3.9v0.8h3.9L95.6,233.5z M95.6,235.1h-3.9v0.8h3.9L95.6,235.1z M95.1,236.7
					c0.9,0.5,2,1.2,2.6,1.6l-1.1,0.6c-0.5-0.4-1.5-1.1-2.4-1.6L95.1,236.7z"/>
				<path id="ee852602-4533-43f3-9564-273d86315bba" class="st2" d="M100.4,231.4h-1.2v-3h5.2v-0.7h-4.7v-0.9h10.6v0.9h-4.7v0.7h5.4
					v3h-1.3v-2.2h-4.1v3h-1.3v-3h-4L100.4,231.4z M109.6,237.8c0.7,0,0.8-0.2,0.9-1.5c0.3,0.2,0.7,0.3,1.1,0.4
					c-0.2,1.7-0.5,2.1-1.9,2.1h-3.1c-1.7,0-2.2-0.3-2.2-1.6v-0.3h-2.7v0.7h-1.2v-4.9h9.4v4.2h-4.2v0.2c0,0.5,0.2,0.6,1,0.6
					L109.6,237.8z M100.6,231.4c0.9-0.1,2.1-0.3,3.3-0.5v0.8c-1.1,0.2-2.1,0.5-3,0.6L100.6,231.4z M101.3,229.3
					c0.9,0.1,1.7,0.4,2.6,0.7l-0.3,0.7c-0.8-0.3-1.7-0.6-2.6-0.8L101.3,229.3z M101.7,233.6v0.8h2.7v-0.8H101.7z M104.4,236v-0.8
					h-2.7v0.8H104.4z M108.7,233.6h-3v0.8h3V233.6z M108.7,236v-0.8h-3v0.8H108.7z M109.4,232.3c-1.1-0.3-2.1-0.6-3.2-0.8l0.3-0.7
					c1.1,0.1,2.2,0.3,3.2,0.7L109.4,232.3z M109.4,230c-0.9,0.3-1.7,0.6-2.6,0.7l-0.4-0.6c0.8-0.2,1.8-0.6,2.5-0.8L109.4,230z"/>
				<path id="ebc71ae2-39ac-414e-b205-d36dff45abbd" class="st2" d="M124.3,232.1c-0.1-0.2-0.2-0.4-0.3-0.6
					c-1.4,0.1-2.2,0.2-2.7,0.2c1.4,0.9,2.9,1.5,4.4,1.9c-0.3,0.3-0.6,0.6-0.8,1c-2.2-0.6-4.2-1.8-5.9-3.4c-1.5,1.6-3.4,2.8-5.6,3.5
					c-0.2-0.4-0.5-0.7-0.7-1c1.5-0.4,2.9-1.1,4.2-2v-0.1c-1,0-2.1,0.1-3.1,0.3c-0.1-0.3-0.2-0.7-0.4-1c0.2-0.1,0.4-0.2,0.5-0.4
					c0.4-0.5,0.8-1,1.1-1.5l1.2,0.5c-0.3,0.4-0.6,0.9-1,1.3l1.3-0.1c-0.1-0.2-0.2-0.4-0.4-0.6l0.9-0.3c0.3,0.4,0.5,0.8,0.7,1.2
					c0.4-0.4,0.8-0.9,1.1-1.4l1.2,0.4c-0.1,0.1-0.2,0.3-0.2,0.4c0.2,0.2,0.4,0.4,0.6,0.6v-0.1c0.2-0.1,0.3-0.2,0.4-0.3
					c0.4-0.4,0.6-0.9,0.8-1.4l1.2,0.5c-0.2,0.4-0.5,0.8-0.8,1.2l1.6-0.1c-0.2-0.2-0.3-0.4-0.5-0.6l0.9-0.4c0.6,0.6,1.1,1.3,1.5,2.1
					L124.3,232.1z M122.8,229.3c-0.2-0.2-0.4-0.4-0.6-0.6c-6.2,0.3-6.9,0.2-7.4,0.4c-0.1-0.4-0.2-0.7-0.4-1.1
					c0.3-0.1,0.6-0.2,0.9-0.4c0.9-0.4,1.7-0.9,2.4-1.6l1.1,0.6c-0.6,0.4-1.2,0.8-1.9,1.2l4.2-0.1c-0.4-0.3-0.7-0.6-1.1-0.9l1-0.5
					c1,0.7,2,1.5,2.9,2.3L122.8,229.3z M123.5,235.6c-1.8,1.9-4.9,2.8-8.4,3.3c-0.1-0.4-0.3-0.7-0.6-1.1c3.3-0.4,6.5-1.2,8-2.8
					L123.5,235.6z M121.9,234.2c-1.8,1.3-3.9,2.2-6.1,2.6c-0.2-0.3-0.4-0.6-0.7-0.9c2.1-0.3,4-1.1,5.8-2.2L121.9,234.2z
					 M120.3,232.9c-1.4,0.9-2.9,1.6-4.4,2.1c-0.2-0.3-0.4-0.6-0.7-0.8c1.5-0.3,2.9-0.9,4.2-1.8L120.3,232.9z"/>
				<path id="e849e6ed-5ac2-4169-9bbd-4e7bacd889a2" class="st2" d="M131.8,229.5h-5v-1h2.3c-0.3-0.6-0.6-1.3-0.9-1.9l0.9-0.5
					c0.4,0.6,0.7,1.2,1,1.8l-0.9,0.6h2.6V229.5z M135.2,229.7c0,0.6,0,1.3-0.1,1.9h3.7c0,0,0,0.4,0,0.6c-0.2,4.1-0.3,5.6-0.8,6.1
					c-0.2,0.3-0.6,0.5-1,0.5c-0.6,0-1.2,0-1.7,0c0-0.4-0.2-0.9-0.4-1.2c0.5,0.1,1,0.1,1.5,0.1c0.2,0,0.4,0,0.5-0.2
					c0.3-0.3,0.4-1.5,0.6-4.6h-2.6c-0.3,2.5-1,4.7-2.9,6.2c-0.2-0.3-0.5-0.6-0.8-0.9l0,0h-2.9v0.7h-1V234h3.9v4
					c2.4-1.8,2.7-5,2.7-8.3h-1.8v-1.2h3.2c-0.1-0.7-0.3-1.3-0.6-2l1.1-0.3c0.3,0.7,0.6,1.4,0.7,2.2l-0.2,0.1h2.9v1.3L135.2,229.7z
					 M131.2,230.3v1h-3.9v-1H131.2z M127.3,232.2h3.9v1h-3.9V232.2z M130.1,235.1h-1.9v2h1.9V235.1z"/>
			</g>
		</g>
		<g id="a1f8649e-3d6c-4e11-a6ac-73fe1e0499af">
			<path id="bd50cfe1-d1c5-4a9e-8fad-ec84c0a78a10" class="st2" d="M267.6,226.6h2.2v-7.1H268v-1c0.8-0.1,1.5-0.4,2.2-0.8h1.2v8.9h2
				v1.3h-5.9V226.6z"/>
			<path id="adaf6f5c-3f6b-4bd8-bc61-06dd3b709023" class="st2" d="M274.9,227c3-2.7,4.6-4.7,4.6-6.4c0.1-0.9-0.5-1.8-1.4-1.9
				c0,0,0,0,0,0h-0.3c-0.8,0.1-1.5,0.5-2,1.1l-0.9-0.9c0.8-1,1.9-1.5,3.1-1.5c1.6-0.1,3,1.1,3.1,2.7c0,0,0,0,0,0c0,0.1,0,0.2,0,0.4
				c0,2-1.6,4-3.8,6.1c0.6-0.1,1.1-0.1,1.7-0.1h2.6v1.4h-6.6L274.9,227z"/>
			<path id="a26784b9-a6eb-4d04-8433-01f029ecd66f" class="st2" d="M293.8,227.3c0,0.8-0.2,1.2-0.8,1.4c-1,0.3-2,0.3-3,0.3
				c-0.1-0.5-0.3-0.9-0.5-1.4c1.1,0.1,2.2,0,2.5,0s0.4-0.1,0.4-0.4v-2.4h-6.3c-0.3,1.6-1.2,3.1-2.4,4.2c-0.3-0.4-0.6-0.7-1-0.9
				c2.2-1.9,2.4-4.6,2.4-6.8v-4.4h8.7V227.3z M292.4,223.6v-2.1h-6c0,0.7,0,1.4-0.1,2.1H292.4z M286.4,218.2v2.1h6v-2.1H286.4z"/>
		</g>
		<g id="eba51760-c746-47fa-92c4-e67288388f56">
			<g id="b2896247-cba1-4154-9c90-97a22ae498a0">
				<path id="b5799379-0c20-42a0-8572-29ca7a5c814d" class="st1" d="M67.7,279.6c0.9,2.5,3,4.3,5.6,5c-0.4,0.4-0.7,0.8-0.9,1.2
					c-2.5-0.8-4.6-2.7-5.6-5.2c-0.7,2-2.2,3.9-5.6,5.2c-0.2-0.4-0.5-0.8-0.8-1.1c3.4-1.3,4.8-3.2,5.3-5.1h-4.9v-1.3h5.1
					c0-0.4,0.1-0.9,0.1-1.4v-1.5h-4.7V274h10.9v1.3h-4.9v1.5c0,0.4,0,0.9-0.1,1.3h5.5v1.3H67.7z"/>
				<path id="a4872140-998c-4796-a72d-3deca43f9903" class="st1" d="M81.1,275.4v2.4l0.2-0.3c1.7,0.8,3.3,1.8,4.8,2.9l-1,1.2
					c-1.3-1-2.7-1.9-4.1-2.8v7h-1.3v-10.4h-5.2V274h12.3v1.3H81.1z"/>
				<path id="e654393e-121a-401b-a370-f5f06328770e" class="st1" d="M92.4,281.5c0-0.2-0.1-0.4-0.1-0.7c-2.9,0.4-3.3,0.5-3.6,0.7
					c-0.1-0.4-0.2-0.8-0.4-1.2c0.3-0.1,0.6-0.4,1-0.9c0.4-0.4,0.7-0.9,1-1.4c-0.6,0-1.2,0.1-1.8,0.3c-0.1-0.4-0.2-0.8-0.4-1.1
					c0.2,0,0.5-0.3,0.8-0.8c0.7-1.1,1.3-2.2,1.7-3.5l1.2,0.5c-0.6,1.2-1.2,2.4-2,3.5l1.2-0.1c0.4-0.6,0.7-1.2,1-1.8l1.1,0.6
					c-0.9,1.5-1.9,3-3,4.3l1.9-0.2c-0.1-0.4-0.3-0.9-0.4-1.2l1-0.3c0.4,0.9,0.7,1.9,0.9,2.8L92.4,281.5z M89.9,282.2
					c-0.1,1.2-0.3,2.3-0.7,3.5c-0.3-0.2-0.7-0.3-1-0.4c0.3-1.1,0.6-2.2,0.6-3.3L89.9,282.2z M91.2,282c0.2,1,0.3,1.9,0.4,2.9l-1,0.2
					c-0.1-1-0.2-1.9-0.3-2.9L91.2,282z M92.6,281.6c0.3,0.7,0.5,1.5,0.7,2.2l-0.9,0.3c-0.2-0.8-0.4-1.5-0.6-2.3L92.6,281.6z
					 M100.9,284.3v1.2h-7.9v-1.2h3.3V282h-2.6v-1.2h6.7v1.2h-2.7v2.3H100.9z M94.9,280.5c-0.5-1-1-1.9-1.7-2.7
					c0.6-0.8,1.1-1.7,1.5-2.5l1.1,0.3c-0.4,0.8-0.9,1.5-1.4,2.3c0.6,0.7,1.1,1.5,1.5,2.3L94.9,280.5z M100.8,274.9h-7.3v-1.2h7.3
					V274.9z M98.1,275.5c-0.4,0.8-0.9,1.5-1.4,2.2c0.6,0.7,1.1,1.5,1.5,2.3l-1,0.5c-0.5-1-1.1-1.9-1.7-2.7c0.6-0.8,1-1.6,1.5-2.5
					L98.1,275.5z M99.7,280.5c-0.5-1-1.1-1.9-1.8-2.7c0.6-0.8,1.1-1.7,1.5-2.5l1.1,0.3c-0.4,0.7-1,1.5-1.4,2.2
					c0.6,0.7,1.2,1.5,1.6,2.3L99.7,280.5z"/>
				<path id="a6edccdd-6267-45e9-a1cd-2ebd6077963e" class="st1" d="M104.2,279.4c-0.6-0.6-1.3-1.1-2.1-1.6l0.6-0.8
					c0.8,0.4,1.5,0.9,2.1,1.5L104.2,279.4z M102.2,285c0.5-1,1.2-2.8,1.8-4.3l0.8,0.6c-0.5,1.4-1.1,3.1-1.6,4.3L102.2,285z
					 M104.4,275.8c-0.6-0.7-1.3-1.3-2-1.8l0.7-0.7c0.7,0.5,1.4,1.1,2,1.8L104.4,275.8z M112.2,280h1.2v5.9h-1.2v-2h-4.8
					c-0.3,0.8-0.8,1.6-1.5,2.1c-0.3-0.3-0.6-0.5-1-0.7c1.1-0.8,1.6-2.1,1.6-3.4V280h1.3v0.8h4.5L112.2,280z M107.2,277.2
					c-0.1,1.1-0.7,2.1-1.6,2.7c-0.1-0.3-0.3-0.5-0.5-0.7c0.7-0.5,1.2-1.2,1.2-2.1h-0.7v-0.9h3.1v0.4c-0.1,1.7-0.1,2.4-0.3,2.7
					c-0.1,0.2-0.4,0.3-0.6,0.3c-0.3,0-0.5,0-0.8,0c0-0.3-0.1-0.6-0.2-0.8c0.2,0,0.4,0,0.6,0c0.1,0,0.2,0,0.2-0.1
					c0.1-0.5,0.2-1.1,0.2-1.6L107.2,277.2z M109.2,275.4h-3.7v-1h3.8c-0.1-0.4-0.2-0.8-0.3-1.3l1.2-0.1c0.2,0.5,0.3,0.9,0.4,1.4h4.1
					v1H111l0.8,0.3c-0.4,0.5-0.9,0.9-1.3,1.3l0,0v2.9h-1V277l0,0c0.5-0.5,1-1,1.4-1.6L109.2,275.4c0.3,0.3,0.5,0.7,0.6,1.1l-0.7,0.4
					c-0.1-0.4-0.3-0.8-0.6-1.1L109.2,275.4z M112.2,282.8v-1h-4.5c0,0.3,0,0.7-0.1,1H112.2z M114.3,276.5c-0.3,0.1-0.6,0.3-0.8,0.4
					c0.2,0.9,0.7,1.7,1.4,2.3c-0.2,0.2-0.4,0.4-0.6,0.6c-0.7-0.7-1.3-1.7-1.4-2.7l-0.7,0.2v1.5l0.9-0.3c0,0.2,0.1,0.5,0.1,0.7
					c-0.6,0.2-1.2,0.4-1.8,0.7l0,0c-0.1-0.3-0.2-0.6-0.4-0.8c0.2-0.1,0.3-0.3,0.3-0.9v-1.5l0,0c0.8-0.2,1.5-0.5,2.2-0.9L114.3,276.5
					z"/>
				<path id="a10547f1-3338-4dd5-addd-1aa295953282" class="st1" d="M120.4,276.4h-4.3v-1h2.2c-0.3-0.7-0.6-1.3-1-1.9l1-0.5
					c0.4,0.6,0.8,1.2,1.1,1.8l-1,0.6h2.2L120.4,276.4z M120.1,285h-2.6v0.6h-1.1v-4.7h3.6V285z M120,278.2h-3.4v-1h3.4V278.2z
					 M116.6,279.1h3.4v1h-3.4V279.1z M117.6,282v2h1.5v-2H117.6z M125.5,273.7l-0.3,0.4c1,1.3,2.3,2.3,3.8,2.9
					c-0.4,0.3-0.7,0.7-0.9,1.2c-0.4-0.2-0.9-0.5-1.3-0.7v0.5h-4.7v-0.6c-0.4,0.3-0.9,0.7-1.4,1c-0.2-0.4-0.5-0.8-0.8-1.2
					c1.9-0.9,3.4-2.4,4.4-4.1L125.5,273.7z M128.1,284.6c0,0.5-0.1,0.8-0.4,1c-0.4,0.2-0.8,0.3-1.2,0.2c0-0.4-0.1-0.7-0.3-1.1
					c0.3,0,0.6,0,0.7,0s0.1,0,0.1-0.2v-1.8h-1.1v2.7H125v-2.7h-1v2.7h-0.9v-2.7h-1v3.1h-1.1V279h7L128.1,284.6z M123.1,281.7v-1.7
					h-1v1.7L123.1,281.7z M126.1,276.9c-0.6-0.5-1.2-1.1-1.6-1.8c-0.5,0.7-1.1,1.3-1.7,1.8H126.1z M125,281.8v-1.7h-1v1.7H125z
					 M127,281.8v-1.7h-1.1v1.7H127z"/>
				<path id="aad5a03c-f27b-4882-b706-49f884b87bf9" class="st1" d="M134.4,282.5c-1.4,0.6-2.8,1.2-4,1.6l-0.4-1.3l1.7-0.6v-4.6
					h-1.4v-1.2h1.4v-3.2h1.2v3.2h1.1v1.2h-1.1v4.2l1.3-0.5L134.4,282.5z M142.7,284.6v1h-9.3v-1H142.7z M142.6,275.2h-8.8v-1h3.7
					c-0.2-0.3-0.4-0.6-0.6-0.9l1.1-0.5c0.4,0.4,0.7,0.9,0.9,1.4h3.8L142.6,275.2z M142,280.1h-7.6v-4.4h7.6V280.1z M134.8,284.1
					v-3.5h6.7v3.5H134.8z M140.9,276.5h-5.4v2.8h5.4V276.5z M136,282h4.2v-0.6H136V282z M136,283.3h4.2v-0.6H136V283.3z M140,278.8
					h-3.8V277h3.8V278.8z M139.1,277.6h-2v0.6h2V277.6z"/>
			</g>
			<g id="a10db5e6-450d-4007-b689-f9ce1f8d4696">
				<path id="a8b961be-c4f4-4665-ae61-8e954d1dc114" class="st1" d="M44.4,298.3c0-3.3,2-5.4,4.6-5.4c1.1,0,2.2,0.5,2.9,1.3l-0.9,1
					c-0.5-0.6-1.2-0.9-2-0.9c-1.8,0-3,1.5-3,3.9s1.1,3.9,3,3.9c0.9,0,1.7-0.4,2.3-1.1l0.9,1c-0.8,1-2,1.5-3.2,1.5
					C46.3,303.6,44.4,301.6,44.4,298.3z"/>
				<path id="a619edcd-5747-44e3-8e3b-473632400645" class="st1" d="M52.8,293.1h1.7l1,5.3l0.5,3.3H56c0.2-1.1,0.5-2.2,0.7-3.3
					l1.3-5.3h1.4l1.3,5.3c0.2,1.1,0.5,2.2,0.7,3.3h0.1c0.2-1.1,0.3-2.2,0.5-3.3l1-5.3h1.5l-2,10.2h-2l-1.4-5.7
					c-0.2-0.8-0.3-1.6-0.5-2.4h-0.1c-0.1,0.8-0.3,1.5-0.5,2.4l-1.4,5.7h-2L52.8,293.1z"/>
				<path id="a77f0e71-a2df-43dd-a5a5-b277fc8553aa" class="st1" d="M66.3,293.1h6.1v1.4h-4.4v2.9h3.8v1.4h-3.8v3.3h4.6v1.4h-6.2
					V293.1z"/>
				<path id="a95301ca-7caf-403c-b1a0-43bac202a4cc" class="st1" d="M74.6,293.1h6.1v1.4h-4.5v3.1H80v1.4h-3.8v4.4h-1.6V293.1z"/>
				<path id="eb4b5671-627e-4445-a77e-2557f6312aa4" class="st1" d="M92.5,293.5c-0.8,1.4-1.8,2.6-3.2,3.5c1.6,0.8,3.4,1.3,5.2,1.5
					c-0.3,0.4-0.6,0.8-0.8,1.2c-2-0.3-3.8-1-5.6-2c-1.8,1-3.7,1.7-5.7,2.1c-0.1-0.4-0.4-0.9-0.6-1.2c1.8-0.3,3.5-0.9,5.1-1.7
					c-0.6-0.5-1.2-1-1.7-1.6c-0.7,0.7-1.4,1.2-2.1,1.8c-0.2-0.4-0.5-0.7-0.9-1c1.7-1.1,3.2-2.6,4.2-4.4l1.4,0.3
					c-0.2,0.4-0.4,0.7-0.7,1.1h4.2h0.2L92.5,293.5z M84.7,301.5c2.4,0.5,4.7,1.1,7,1.9l-0.6,1.2c-2.3-0.9-4.6-1.6-7-2.1L84.7,301.5z
					 M86.4,299.1c1.5,0.4,3.7,1,4.9,1.4l-0.6,1.2c-1.1-0.4-3.3-1.1-4.9-1.6L86.4,299.1z M86.3,294.1c-0.1,0.1-0.2,0.2-0.3,0.3
					c0.6,0.7,1.2,1.3,2,1.8c0.9-0.6,1.7-1.3,2.4-2.1H86.3z"/>
				<path id="aa32e447-2f2e-4bdc-8f06-c6a8aeddd947" class="st1" d="M101.4,295.9c-1.4,1.4-3.1,2.4-5,3.1c-0.2-0.4-0.5-0.7-0.8-1
					c1.6-0.5,3.1-1.3,4.4-2.3h-4v-1.1h5.4v-1.1c-1.4,0.1-2.9,0.2-4.3,0.2c0-0.3-0.1-0.7-0.3-1c3,0,6-0.3,8.9-0.8l1.1,0.9
					c-1.4,0.3-2.7,0.5-4.1,0.6v1.2h5.5v1.1h-3.8c1.4,0.8,2.8,1.7,4.1,2.7l-0.8,0.9c-1.6-1.3-3.2-2.4-5-3.4v1.9h-1.3L101.4,295.9z
					 M102.7,300.6h5.5v1.1h-5.4v1.4c0,0.7-0.2,1-0.7,1.2c-0.8,0.2-1.7,0.2-2.6,0.2c-0.1-0.4-0.2-0.8-0.4-1.1c0.9,0,1.8,0,2.1,0
					s0.3-0.1,0.3-0.3v-1.3H96v-1.1h5.5v-0.8c0.6-0.2,1.1-0.4,1.6-0.7h-4.8v-1h6.3l0.3-0.1l0.8,0.7c-0.9,0.7-1.9,1.2-3,1.6
					L102.7,300.6z"/>
				<path id="e8c04526-1b71-413b-8253-3ffec29da8ec" class="st1" d="M114.1,300c-1.4,0.7-2.9,1.5-4.1,2l-0.5-1.3l1.8-0.8v-4.1h-1.6
					v-1.2h1.5v-2.8h1.2v2.8h1.4v1.2h-1.4v3.6c0.4-0.2,0.8-0.4,1.3-0.6L114.1,300z M116.8,298.4c-0.1,0.3-0.3,0.6-0.5,0.8h5.8
					c0,0,0,0.3,0,0.5c-0.2,2.8-0.4,3.9-0.8,4.3c-0.2,0.2-0.5,0.4-0.8,0.4c-0.5,0-0.9,0-1.4,0c0-0.3-0.1-0.7-0.3-1
					c0.4,0,0.7,0.1,1.1,0.1c0.2,0,0.3,0,0.4-0.2s0.4-1,0.6-3H120c-0.5,1.6-1.5,3.1-2.8,4.2c-0.3-0.3-0.6-0.5-0.9-0.7
					c1.2-0.9,2.1-2.1,2.7-3.5h-1.2c-0.8,1.5-1.9,2.7-3.3,3.6c-0.2-0.3-0.5-0.6-0.9-0.8c1.2-0.7,2.2-1.7,3-2.9h-1.2
					c-0.5,0.5-1,1-1.7,1.4c-0.3-0.3-0.6-0.6-0.9-0.8c1.1-0.6,2-1.5,2.6-2.6h-1.8v-1.1h8.7v1.1L116.8,298.4z M121.4,296.6H115v-4.6
					h6.4V296.6z M120.2,293h-4.1v0.9h4.1V293z M120.2,294.8h-4.1v1h4.1V294.8z"/>
				<path id="e321bc55-b8d3-4009-ad10-6d859b8763e3" class="st1" d="M126.3,298.8h-2.8v-1.2h2.8v-3h1.2v3h2.8v1.2h-2.8v3h-1.2V298.8
					z"/>
				<path id="f10c127e-598a-41a3-9e00-a661f7173757" class="st1" d="M142.8,303.2c0.4,0,0.4-0.2,0.5-1.7c0.3,0.2,0.7,0.4,1.1,0.5
					c-0.1,1.8-0.4,2.3-1.4,2.3h-1.7c-1.2,0-1.5-0.3-1.5-1.5v-1.4c-0.8,1.5-2.2,2.6-3.8,3.1c-0.2-0.4-0.4-0.7-0.7-1
					c1.9-0.5,3.4-2.1,3.9-4h-2.5v-3l-0.1,0.1c-0.2-0.3-0.5-0.6-0.8-0.8v6.1h-2.7v1.1H132v-10.2h3.8v2.8c1.1-1.1,2-2.3,2.5-3.8
					l1.3,0.2c-0.1,0.3-0.2,0.6-0.4,0.9h2.6l0.2-0.1l1,0.3c-0.4,0.7-0.9,1.4-1.4,2.1h2v4.3h-2.7v3.2c0,0.4,0.1,0.5,0.5,0.5H142.8z
					 M133.1,293.9v2.8h1.5v-2.8H133.1z M134.6,300.7v-2.9h-1.5v2.9L134.6,300.7z M138.6,293.9c-0.3,0.5-0.5,0.9-0.9,1.3h2.3
					c0.4-0.4,0.7-0.9,1-1.3H138.6z M139.3,298.5c0.1-0.7,0.2-1.5,0.2-2.2h-1.8v2.2H139.3z M142.3,296.2h-1.6c0,0.7-0.1,1.5-0.2,2.2
					h1.8L142.3,296.2z"/>
				<path id="a5946135-597f-405a-8db5-4c03f278f031" class="st1" d="M154.9,301.1c-0.4,0.6-0.9,1-1.5,1.4c1.7,0.4,3.2,0.8,4.3,1.1
					l-1.1,0.8c-1.5-0.5-3-0.9-4.5-1.2c-1.9,0.7-3.9,1.2-5.9,1.3c-0.1-0.4-0.3-0.7-0.5-1c1.5-0.1,3-0.3,4.4-0.7
					c-0.9-0.2-1.8-0.4-2.8-0.5c0.4-0.4,0.8-0.8,1.1-1.2h-2.9v-1h3.7c0.3-0.4,0.6-0.8,0.9-1.2l1.2,0.3c-0.2,0.3-0.4,0.6-0.6,0.9h3.3
					c0.1-0.2,0.2-0.4,0.3-0.7l1.2,0.4c0,0.1-0.1,0.2-0.1,0.3h2.4v1H154.9z M147.1,295.5h-1.2v-2.7h5.3c-0.1-0.3-0.3-0.6-0.4-0.9
					l1.3-0.2c0.2,0.3,0.4,0.7,0.6,1.1h5.1v2.7h-1.3v-1.6h-9.4V295.5z M155.6,298.8h-7.7v-4.2h7.7L155.6,298.8z M154.3,295.5h-5.2
					v0.8h5.2V295.5z M154.3,297.1h-5.2v0.8h5.2V297.1z M150,301.1c-0.2,0.2-0.4,0.4-0.6,0.6l2.3,0.4c0.6-0.3,1.1-0.6,1.5-1.1
					L150,301.1z"/>
			</g>
		</g>
		<g id="a848b197-3269-44bb-b4cc-f5f1189051a1">
			<path id="b18671a5-1acd-4753-84c6-4bc682a28cb9" class="st1" d="M251.2,293.1c3-2.7,4.6-4.7,4.6-6.4c0.1-0.9-0.5-1.7-1.5-1.9H254
				c-0.8,0.1-1.5,0.5-2,1.1l-0.9-0.9c0.8-1,1.9-1.5,3.1-1.5c1.6-0.1,3,1.1,3.1,2.7c0,0,0,0,0,0c0,0.1,0,0.3,0,0.4c0,2-1.6,4-3.8,6.1
				c0.6-0.1,1.1-0.1,1.7-0.1h2.5v1.4h-6.6L251.2,293.1z"/>
			<path id="aa836fd7-d60f-499a-909e-98e07fb5d487" class="st1" d="M259.1,288.9c0-3.5,1.3-5.3,3.3-5.3s3.3,1.7,3.3,5.3
				s-1.3,5.4-3.3,5.4S259.1,292.5,259.1,288.9z M264.3,288.9c0-2.9-0.7-4-1.8-4s-1.8,1.1-1.8,4s0.7,4.1,1.8,4.1
				S264.2,291.9,264.3,288.9L264.3,288.9z"/>
			<path id="f39c4ef0-1555-45ef-a5c0-8b9038ba1360" class="st1" d="M267,293.1c3-2.7,4.6-4.7,4.6-6.4c0.1-0.9-0.5-1.8-1.4-1.9h-0.3
				c-0.8,0.1-1.5,0.5-2,1.1l-0.9-0.9c0.8-1,1.9-1.5,3.1-1.5c1.6-0.1,3,1.1,3.1,2.7c0,0,0,0,0,0c0,0.1,0,0.3,0,0.4c0,2-1.6,4-3.8,6.1
				c0.6-0.1,1.1-0.1,1.7-0.1h2.6v1.4H267V293.1z"/>
			<path id="f12d9d5c-f876-4ab2-8113-3ce2641ca975" class="st1" d="M275,293.1c3-2.7,4.6-4.7,4.6-6.4c0.1-0.9-0.5-1.8-1.4-1.9h-0.3
				c-0.8,0.1-1.5,0.5-2,1.1l-0.9-0.9c0.8-1,1.9-1.5,3.1-1.5c1.6-0.1,3,1.1,3.1,2.7c0,0,0,0,0,0c0,0.1,0,0.3,0,0.4c0,2-1.6,4-3.8,6.1
				c0.6-0.1,1.1-0.1,1.7-0.1h2.6v1.4H275L275,293.1z"/>
			<path id="e4fba79a-fb29-49b1-b155-7f08b4b60801" class="st1" d="M295.6,292.1h-4.9v3.1h-1.3v-3.1H283v-1.3h2.2v-3.7h4.1v-1.9
				h-3.2c-0.5,1-1.2,1.9-2,2.6c-0.4-0.3-0.7-0.6-1.1-0.8c1.4-1.3,2.4-2.9,3-4.7l1.3,0.3c-0.2,0.4-0.4,0.9-0.5,1.3h8.1v1.3h-4.2v1.9
				h3.9v1.2h-3.9v2.5h4.9L295.6,292.1z M289.3,290.8v-2.5h-2.8v2.5H289.3z"/>
			<path id="e8e7c4ca-5425-46f3-a915-cec426b6dc04" class="st1" d="M297.5,292.8h2.2v-7.1h-1.8v-1c0.8-0.1,1.5-0.4,2.2-0.8h1.2v8.9
				h2v1.3h-5.8V292.8z"/>
			<path id="fdc4ead4-db36-4166-8bf3-302915b7bce5" class="st1" d="M315.7,293.4c0,0.8-0.2,1.2-0.8,1.5c-1,0.3-2,0.3-3,0.3
				c-0.1-0.5-0.3-0.9-0.6-1.4c1.1,0.1,2.2,0,2.5,0s0.4-0.1,0.4-0.4v-2.4H308c-0.3,1.6-1.1,3.1-2.4,4.2c-0.3-0.4-0.6-0.7-1-0.9
				c2.2-1.9,2.4-4.6,2.4-6.8V283h8.7L315.7,293.4z M314.3,289.7v-2.1h-6c0,0.7-0.1,1.4-0.1,2.1H314.3z M308.3,284.3v2.1h6v-2.1
				H308.3z"/>
		</g>
		<g id="a6c7394a-5c02-4ac5-8964-f90d9f8a6052">
			<path id="ba1c2d04-5a7b-48bd-8469-28af81407b64" class="st1" d="M272,170.4c0.4,0.5,1,0.8,1.7,0.8c1.2,0,2.3-1,2.4-3.9
				c-0.5,0.7-1.4,1.1-2.3,1.2c-1.7,0-2.9-1.1-2.9-3.2c-0.1-1.7,1.2-3.2,2.9-3.4h0.2c2,0,3.6,1.6,3.6,5c0,4-1.8,5.7-3.8,5.7
				c-1,0-1.9-0.4-2.6-1.1L272,170.4z M276.1,166c-0.1-2-0.9-2.9-2-2.9c-0.9,0-1.6,0.8-1.6,2.1s0.6,2.1,1.7,2.1
				C274.9,167.2,275.7,166.7,276.1,166L276.1,166z"/>
			<path id="ea0f4edc-e960-4bdd-9dfb-e54518af39ed" class="st1" d="M289.8,171.6c0,0.8-0.2,1.2-0.8,1.4c-1,0.3-2,0.3-3,0.3
				c-0.1-0.5-0.3-0.9-0.5-1.4c1.1,0.1,2.2,0,2.5,0s0.4-0.1,0.4-0.4v-2.4h-6.3c-0.3,1.6-1.2,3.1-2.4,4.2c-0.3-0.4-0.6-0.7-1-0.9
				c2.2-1.9,2.4-4.6,2.4-6.8v-4.4h8.7V171.6z M288.4,167.9v-2.1h-6c0,0.7,0,1.4-0.1,2.1H288.4z M282.4,162.5v2.1h6v-2.1H282.4z"/>
		</g>
		<g id="bcf584a7-ca38-4731-bf03-35ba5f0b0182">
			<path id="b88ff903-fe42-482f-ac6d-798fe1c85545" class="st1" d="M303.6,75.1h2.2v-7.1H304v-1c0.8-0.1,1.5-0.4,2.2-0.8h1.2v8.9h2
				v1.3h-5.9V75.1z"/>
			<path id="b9051bce-d49e-4dee-a1b1-157bef3b9ed0" class="st1" d="M311,71.2c0-3.6,1.3-5.3,3.3-5.3s3.3,1.7,3.3,5.3
				s-1.3,5.3-3.3,5.3S311,74.8,311,71.2z M316.1,71.2c0-2.9-0.7-4-1.8-4s-1.8,1.1-1.8,4s0.7,4.1,1.8,4.1S316.1,74.2,316.1,71.2z"/>
			<path id="af49cc51-16cb-4d15-8423-02c9822b02c9" class="st1" d="M329.8,75.8c0,0.8-0.2,1.2-0.8,1.4c-1,0.3-2,0.3-3,0.3
				c-0.1-0.5-0.3-0.9-0.5-1.4c1.1,0.1,2.2,0,2.5,0s0.4-0.1,0.4-0.4v-2.4h-6.3c-0.3,1.6-1.2,3.1-2.4,4.2c-0.3-0.4-0.6-0.7-1-1
				c2.2-1.9,2.4-4.6,2.4-6.8v-4.3h8.7V75.8z M328.4,72V70h-6c0,0.7,0,1.4-0.1,2.1L328.4,72z M322.4,66.7v2.1h6v-2.1L322.4,66.7z"/>
			<path id="ae9af5a9-8210-40f4-921e-4072bec69ca0" class="st1" d="M337.5,74c-0.3-0.4-0.8-1.1-1.3-1.7v5.3h-1.3v-5.1
				c-0.5,0.6-1,1.1-1.6,1.5c-0.2-0.4-0.4-0.9-0.6-1.3c1.5-1.2,2.7-2.6,3.6-4.3H333v-1.2h2.5c-0.3-0.6-0.7-1.3-1.2-1.9l1-0.6
				c0.5,0.6,0.9,1.2,1.2,1.8l-0.9,0.6h1.3l0.2-0.1l0.7,0.5c-0.4,1.1-1,2.1-1.7,3.1v0.1c0.1,0.1,0.2,0.2,0.4,0.4
				c0.4-0.4,0.7-0.9,1.1-1.4l0.9,0.7c-0.5,0.4-0.9,0.9-1.4,1.2c0.5,0.5,1,1,1.1,1.2L337.5,74z M345,65.8c0,0,0,0.5,0,0.7
				c-0.2,7.1-0.3,9.4-0.8,10.2c-0.2,0.4-0.7,0.7-1.1,0.7c-0.7,0-1.3,0-2,0c0-0.4-0.2-0.9-0.4-1.2c0.8,0.1,1.5,0.1,1.8,0.1
				c0.2,0,0.4-0.1,0.5-0.2c0.4-0.5,0.6-2.8,0.7-8.9h-2.3c-0.2,4.9-0.9,8.2-3.4,10.4c-0.3-0.4-0.6-0.7-1-1c2.4-1.8,3-5,3.1-9.4h-2
				v-1.2L345,65.8z"/>
		</g>
		<g id="a7f507ec-8ed7-4f42-8c74-67bdfcca0b6d">
			<path id="fc42d0af-a325-4096-a142-becba567c049" class="st1" d="M301.6,11.6h-0.4c-0.7,1.2-1.7,2.2-2.9,2.9l-0.2-0.1
				c0.6-0.7,1.1-1.5,1.5-2.3c0.5-0.9,0.8-1.9,1.1-2.8l1.9,0.7c-0.1,0.2-0.4,0.3-0.6,0.3c-0.1,0.3-0.3,0.6-0.5,0.9h2.1l0.7-1
				c0.5,0.4,0.9,0.8,1.3,1.2c0,0.2-0.1,0.2-0.4,0.2h-3c0.8,0.4,1.2,0.8,1.2,1.4c0,0.3-0.1,0.6-0.4,0.7c-0.3,0.1-0.6,0-0.9-0.2
				C302.2,12.8,302,12.2,301.6,11.6z M310.2,18.6l0.8-0.8l1.4,1.2c-0.2,0.1-0.4,0.2-0.6,0.2c-0.2,2-0.6,3.2-1.2,3.6
				c-0.5,0.3-1.1,0.4-1.6,0.4c0-0.4,0-0.7-0.2-1c-0.3-0.3-0.7-0.4-1.1-0.5v-0.2l1.6,0.1c0.2,0,0.3,0,0.5-0.1
				c0.3-0.2,0.5-1.1,0.7-2.6h-4v4.4c0,0-0.1,0.1-0.1,0.1c-0.1,0.1-0.3,0.1-0.4,0.2c-0.2,0.1-0.4,0.1-0.6,0.1h-0.2v-3.5
				c-1.8,1.7-4,2.8-6.4,3.4l-0.1-0.2c1.1-0.5,2.2-1.2,3.2-2c0.9-0.7,1.6-1.6,2.3-2.5H301c-0.1,0.3-0.2,0.7-0.3,1.1
				c-0.5,0.2-1,0.2-1.5,0c0.5-1.5,0.9-3,1.2-4.5l1.6,0.7h2.8v-1.9h-5l-0.1-0.5h9.7l0.7-0.7l1.5,1.1c-0.2,0.2-0.4,0.3-0.6,0.3v2.6
				c0,0.1-0.2,0.1-0.4,0.2c-0.2,0.1-0.5,0.2-0.8,0.2h-0.3v-0.9h-3.3v1.8L310.2,18.6z M301.2,18.6h3.6v-1.8h-3.2c0,0-0.1,0.3-0.2,0.7
				S301.2,18.3,301.2,18.6L301.2,18.6z M310.5,11.2l0.8-1c0.6,0.5,1.1,0.9,1.5,1.2c0,0.2-0.2,0.2-0.4,0.2h-3.8c0.7,0.4,1,0.8,1,1.3
				c0,0.3-0.2,0.6-0.5,0.6c-0.3,0.1-0.6,0-0.8-0.2c-0.1-0.6-0.3-1.3-0.7-1.8H307c-0.6,0.8-1.3,1.5-2.2,2l-0.2-0.1
				c0.9-1.3,1.5-2.7,1.9-4.2l2,0.7c-0.1,0.2-0.3,0.3-0.6,0.3c-0.2,0.4-0.4,0.7-0.5,0.9L310.5,11.2z M306.3,14.5v1.9h3.3v-1.9
				L306.3,14.5z"/>
			<path id="eb721f8d-11bd-499d-93e3-8d18e18fe34c" class="st1" d="M315.2,21h11.3l1.1-1.4c0.8,0.6,1.4,1.2,1.9,1.6
				c0,0.1-0.2,0.2-0.5,0.2h-13.7L315.2,21z M316.7,12.3h8.3l1-1.4c0.8,0.6,1.4,1.2,1.9,1.6c0,0.1-0.2,0.2-0.4,0.2h-10.6L316.7,12.3z
				"/>
			<path id="f45f7d35-7b45-4cf3-9713-7b94e6f29e7d" class="st1" d="M331.9,23.8l-0.2-0.2c1.1-1.1,1.9-2.5,2.3-4.1l1.9,0.8
				c-0.1,0.2-0.3,0.3-0.6,0.2C334.5,22,333.3,23.1,331.9,23.8z M343.7,23.8c0-0.4-0.1-0.8-0.4-1.1c-0.4-0.2-0.8-0.4-1.2-0.4v-0.2
				c1,0.1,1.6,0.1,1.8,0.1s0.4-0.1,0.4-0.3v-4h-2.5c-0.1,2.4-1.3,4.6-3.4,5.9l-0.2-0.1c1.1-1.2,1.8-2.7,2-4.4c-0.1,0-0.1,0-0.2,0
				h-8.1l-0.1-0.4h1.6v-6.5h-1.2l-0.1-0.4h1.3V9.6l1.9,0.2c0,0.2-0.2,0.3-0.5,0.4v1.7h2.3V9.6l2,0.2c0,0.2-0.2,0.4-0.5,0.4v1.7h0.1
				l0.6-0.9c0.5,0.4,0.9,0.8,1.1,1.2c0,0.2-0.1,0.2-0.4,0.2h-1.4v6.5h0.1l0.7-1c0.4,0.3,0.8,0.7,1.1,1.1c0.1-1.1,0.2-2.1,0.2-3.2
				V9.8l1.6,0.6h2.1l0.7-0.8l1.5,1.2c-0.2,0.2-0.4,0.3-0.6,0.3V22c0,0.5-0.1,0.9-0.4,1.3C344.9,23.6,344.3,23.8,343.7,23.8
				L343.7,23.8z M337,12.3h-2.3v1.7h2.3V12.3z M334.6,14.5v1.9h2.3v-1.9H334.6z M334.6,16.8v2h2.3v-2H334.6z M336.3,19.8l0.2-0.1
				c1,0.1,1.9,0.7,2.4,1.5c0.2,0.3,0.1,0.8-0.1,1c-0.3,0.3-0.7,0.3-1,0c0,0,0,0,0,0c0,0-0.1,0-0.1,0c-0.1-0.5-0.2-0.9-0.5-1.3
				C336.9,20.6,336.6,20.2,336.3,19.8L336.3,19.8z M341.7,17.4h2.5v-3.1h-2.5v1.4C341.8,16.3,341.8,16.9,341.7,17.4L341.7,17.4z
				 M344.2,10.9h-2.5v3h2.5V10.9z"/>
			<path id="a6c13c46-056c-4986-9197-72827545ad96" class="st1" d="M283.4,34.5c0-2.3,1.2-4.3,3.2-5.4l0.2,0.2
				c-2.9,2.4-3.3,6.6-0.9,9.5c0.3,0.3,0.6,0.6,0.9,0.9l-0.2,0.2C284.6,38.9,283.3,36.8,283.4,34.5z"/>
			<path id="ae642856-7784-41e5-b91e-99c122879566" class="st1" d="M292.1,38.3l1.7,0.2v0.4H289v-0.4l1.8-0.2c0-0.9,0-1.6,0-2.1v-5
				l-1.6,0.2v-0.4l2.7-0.7l0.1,0.1v1.8v4C292,36.7,292.1,37.4,292.1,38.3z"/>
			<path id="fc08c4c5-e6b5-4ce7-8c39-cbc42792da1d" class="st1" d="M298.7,30.3c0.8,0,1.5,0.4,1.9,1.1c0.6,1,0.9,2.1,0.8,3.3
				c0.1,1.2-0.2,2.3-0.8,3.4c-0.4,0.7-1.1,1.1-1.9,1.1c-0.8,0-1.6-0.4-2-1.1c-0.6-1-0.9-2.2-0.8-3.4c-0.1-1.1,0.2-2.3,0.8-3.3
				C297.1,30.7,297.9,30.3,298.7,30.3z M297.2,34.6c0,2.7,0.5,4,1.5,4c1,0,1.5-1.3,1.4-4c0-2.6-0.5-3.9-1.4-3.9S297.2,32,297.2,34.6
				z"/>
			<path id="e463f465-7d56-47b0-a10f-a1805587b9c0" class="st1" d="M302.8,40.9l3.4-11h0.7l-3.4,11H302.8z"/>
			<path id="a198faaf-299a-422b-b291-f2e13c58bd6b" class="st1" d="M311.9,38.3l1.7,0.2v0.4h-4.8v-0.4l1.8-0.2c0-0.9,0-1.6,0-2.1v-5
				l-1.6,0.2v-0.4l2.7-0.7l0.2,0.1v1.8v4C311.9,36.7,311.9,37.4,311.9,38.3z"/>
			<path id="e388e43e-f2c1-48b5-aa26-0adbb52c1bb0" class="st1" d="M318.8,34.3c0.3,0.3,0.7,0.5,1.1,0.6c0.5,0,0.8-0.4,0.9-1.3
				l0.5,0.1c0,0.5-0.1,0.9-0.4,1.3c-0.3,0.3-0.7,0.5-1.1,0.4c-0.2,0-0.5-0.1-0.7-0.2c-0.3-0.1-0.5-0.3-0.8-0.5
				c-0.3-0.3-0.7-0.5-1.1-0.6c-0.5,0-0.8,0.4-0.9,1.2l-0.5-0.1c0-0.5,0.2-0.9,0.4-1.3c0.3-0.3,0.7-0.5,1.1-0.5
				C317.9,33.6,318.5,33.9,318.8,34.3z"/>
			<path id="bccb255a-6dc9-4384-a8bf-8ff7ecd8bda1" class="st1" d="M326.9,38.3l1.7,0.2v0.4h-4.8v-0.4l1.8-0.2c0-0.9,0-1.6,0-2.1v-5
				l-1.6,0.2v-0.4l2.7-0.7l0.2,0.1v1.8v4C326.8,36.7,326.8,37.4,326.9,38.3z"/>
			<path id="e11bb3ec-c8a1-4211-a8eb-0b9177f66e3e" class="st1" d="M331.7,37.8h4.5v1.1h-5.3V38c0.2-0.2,0.5-0.5,0.9-1l1-1.1
				c0.5-0.6,1-1.2,1.4-1.8c0.3-0.5,0.4-1,0.4-1.5c0-0.5-0.1-0.9-0.4-1.3c-0.3-0.3-0.7-0.5-1.1-0.5c-0.2,0-0.4,0-0.6,0.1l-0.3,1
				c-0.1,0.5-0.4,0.8-0.7,0.8c-0.3,0-0.5-0.1-0.6-0.4c0-0.6,0.4-1.1,0.8-1.4c0.5-0.3,1.2-0.5,1.8-0.5c0.7,0,1.3,0.2,1.8,0.6
				c0.4,0.4,0.6,1,0.6,1.7c0,0.6-0.2,1.1-0.6,1.5c-0.7,0.8-1.4,1.6-2.1,2.3l-0.7,0.7L331.7,37.8z"/>
			<path id="ee179b44-4e72-43bd-9b3e-d3dd1f096ceb" class="st1" d="M337.6,40.9l3.4-11h0.8l-3.4,11H337.6z"/>
			<path id="f3f37d39-8b3e-43f0-a03a-050456e80ab2" class="st1" d="M345,30.8l-0.2,0.8c-0.1,0.5-0.3,0.7-0.7,0.7
				c-0.3,0-0.5-0.1-0.6-0.4c0.1-0.5,0.4-1,0.8-1.3c0.5-0.3,1.1-0.5,1.6-0.4c0.6,0,1.3,0.2,1.8,0.6c0.4,0.4,0.7,0.9,0.6,1.5
				c0,0.5-0.2,0.9-0.5,1.3c-0.4,0.4-0.8,0.7-1.4,0.8c0.6,0.1,1.2,0.4,1.6,0.8c0.3,0.4,0.5,0.9,0.5,1.5c0,0.7-0.3,1.3-0.8,1.7
				c-0.6,0.5-1.3,0.7-2.1,0.7c-0.6,0-1.2-0.1-1.7-0.5c-0.4-0.3-0.7-0.8-0.8-1.3c0.1-0.3,0.3-0.4,0.6-0.4c0.2,0,0.3,0.1,0.5,0.2
				c0.1,0.2,0.2,0.4,0.3,0.7l0.2,0.8c0.2,0.1,0.4,0.1,0.7,0.1c0.5,0,1-0.2,1.4-0.5c0.3-0.4,0.5-0.9,0.5-1.4c0-0.5-0.1-1.1-0.5-1.5
				c-0.4-0.4-0.9-0.6-1.4-0.5h-0.6v-0.5h0.5c0.9,0.1,1.7-0.6,1.8-1.5c0-0.1,0-0.2,0-0.3c0-0.4-0.1-0.9-0.4-1.2
				c-0.3-0.3-0.7-0.4-1.1-0.4C345.4,30.7,345.2,30.7,345,30.8z"/>
			<path id="a88be301-49d1-43e4-acd3-492dde111285" class="st1" d="M354,38.3l1.7,0.2v0.4H351v-0.4l1.8-0.2c0-0.9,0-1.6,0-2.1v-5
				l-1.6,0.2v-0.4l2.7-0.7l0.1,0.1v1.8v4C354,36.7,354,37.4,354,38.3z"/>
			<path id="b6a372f7-34b4-45bc-89f6-3efef3d7c2fd" class="st1" d="M357.8,29.3l0.2-0.2c3,1.6,4.1,5.4,2.4,8.4
				c-0.6,1-1.4,1.9-2.4,2.4l-0.2-0.2c2.9-2.4,3.3-6.6,0.9-9.5C358.4,29.9,358.1,29.6,357.8,29.3z"/>
		</g>
		<g id="fb829253-5b77-48fd-b745-6df923dab619">
			<line id="b7d36a98-01e9-4f3d-ad2f-ad1360d180b3" class="st3" x1="199.8" y1="0" x2="199.8" y2="319.5"/>
			<line id="aaabf39a-9239-4505-a1d6-aaa0b7cb632f" class="st3" x1="277.5" y1="0" x2="277.5" y2="96"/>
			<line id="fe46162d-f9fc-4843-b26f-19177d53ee49" class="st4" x1="0.5" y1="319.5" x2="367.5" y2="319.5"/>
		</g>
		<g>
			<path class="st2" d="M235.7,124.7c2.9-2.5,4.3-4.4,4.3-6c0-1.1-0.6-1.8-1.6-1.8c-0.8,0-1.4,0.5-1.9,1.1l-0.9-0.8
				c0.8-0.9,1.7-1.5,3-1.5c1.8,0,2.9,1.2,2.9,2.9c0,1.9-1.5,3.8-3.6,5.8c0.5-0.1,1.1-0.1,1.6-0.1h2.4v1.3h-6.3V124.7z"/>
			<path class="st2" d="M243.2,120.7c0-3.4,1.2-5,3.1-5c1.9,0,3.1,1.6,3.1,5c0,3.4-1.2,5.1-3.1,5.1
				C244.4,125.7,243.2,124,243.2,120.7z M248,120.7c0-2.8-0.7-3.8-1.7-3.8s-1.7,1-1.7,3.8c0,2.8,0.7,3.9,1.7,3.9
				S248,123.5,248,120.7z"/>
			<path class="st2" d="M250.7,124.7c2.9-2.5,4.3-4.4,4.3-6c0-1.1-0.6-1.8-1.6-1.8c-0.8,0-1.4,0.5-1.9,1.1l-0.9-0.8
				c0.8-0.9,1.7-1.5,3-1.5c1.8,0,2.9,1.2,2.9,2.9c0,1.9-1.5,3.8-3.6,5.8c0.5-0.1,1.1-0.1,1.6-0.1h2.4v1.3h-6.3V124.7z"/>
			<path class="st2" d="M258.8,124.3h2.1v-6.8h-1.7v-1c0.9-0.2,1.6-0.4,2.1-0.7h1.1v8.5h1.9v1.3h-5.5V124.3z"/>
			<path class="st2" d="M277.7,123.7h-4.6v2.9h-1.3v-2.9h-6v-1.2h2.1V119h3.9v-1.8h-3c-0.6,1-1.2,1.8-1.9,2.5
				c-0.2-0.2-0.8-0.6-1.1-0.8c1.2-1,2.3-2.7,2.9-4.5l1.2,0.3c-0.2,0.4-0.3,0.8-0.5,1.2h7.6v1.2h-4v1.8h3.7v1.1h-3.7v2.3h4.6V123.7z
				 M271.8,122.5v-2.3h-2.7v2.3H271.8z"/>
			<path class="st2" d="M279,120.7c0-3.4,1.2-5,3.1-5c1.9,0,3.1,1.6,3.1,5c0,3.4-1.2,5.1-3.1,5.1C280.2,125.7,279,124,279,120.7z
				 M283.8,120.7c0-2.8-0.7-3.8-1.7-3.8s-1.7,1-1.7,3.8c0,2.8,0.7,3.9,1.7,3.9S283.8,123.5,283.8,120.7z"/>
			<path class="st2" d="M291.1,117.1h-4.6v-1.3h6.3v0.9c-2.3,2.9-2.6,5-2.8,8.8h-1.6C288.6,122,289.2,119.7,291.1,117.1z"/>
			<path class="st2" d="M304.3,124.9c0,0.8-0.2,1.2-0.7,1.4c-0.6,0.2-1.5,0.3-2.8,0.3c-0.1-0.4-0.3-1-0.5-1.3c1,0.1,2.1,0,2.4,0
				c0.3,0,0.4-0.1,0.4-0.4v-2.3h-6c-0.3,1.5-1,2.9-2.3,4c-0.2-0.3-0.7-0.7-0.9-0.9c2.1-1.8,2.3-4.4,2.3-6.4v-4.1h8.2V124.9z
				 M303,121.4v-2h-5.7c0,0.6,0,1.3-0.1,2H303z M297.3,116.3v2h5.7v-2H297.3z"/>
			<path class="st2" d="M307.7,124.3h2.1v-6.8h-1.7v-1c0.9-0.2,1.6-0.4,2.1-0.7h1.1v8.5h1.9v1.3h-5.5V124.3z"/>
			<path class="st2" d="M314.5,124.4l0.7-1c0.6,0.6,1.3,1,2.3,1c1.1,0,1.9-0.8,1.9-2.1c0-1.3-0.7-2-1.8-2c-0.6,0-1,0.2-1.6,0.6
				l-0.7-0.5l0.3-4.6h4.9v1.3h-3.6l-0.2,2.5c0.4-0.2,0.8-0.3,1.3-0.3c1.6,0,3,1,3,3.1c0,2.2-1.6,3.4-3.3,3.4
				C316.1,125.7,315.2,125.1,314.5,124.4z"/>
			<path class="st2" d="M332.7,115.3v11.1h-1.3v-0.8h-6.2v0.9h-1.3v-11.1H332.7z M325.2,116.6v3.2h6.2v-3.2H325.2z M331.4,124.4V121
				h-6.2v3.4H331.4z"/>
		</g>
	</g>
</g>
</svg>
