<svg id="b5213e66-c74d-4b8c-b843-044b90d69834" data-name="圖層 1" xmlns="http://www.w3.org/2000/svg" viewBox="0 0 912 466.59"><g id="a1432300-e42d-402f-a64f-288a0d61df85" data-name="Group 348"><g id="b1004553-8e1c-498e-a3bf-2728083c3d77" data-name="Group 347"><g id="ea4b4bae-5811-48c8-9703-fc94bfe7a6c5" data-name="Group 344"><rect id="ad1f56c0-a2b2-46d1-b84d-b69b42409849" data-name="Rectangle 204" width="912" height="78" style="fill:#fff"/><rect id="ae6df4ec-06bc-4255-a814-976a30f69815" data-name="Rectangle 205" y="155" width="912" height="78" style="fill:#fff"/><rect id="b7488dce-24e6-4c8b-949e-33dc6a6f685a" data-name="Rectangle 206" y="310" width="912" height="78" style="fill:#fff"/><g id="b5b45310-8df2-49d0-9b74-cbe1fa1141cc" data-name="Group 343"><g id="e7e23e02-4295-4d41-af0a-9503aa4f2900" data-name="Group 325"><path id="b3d2a823-5445-46ab-8472-bc30c001bdd3" data-name="Path 468" d="M171.65,53.78l3.77.89c-.09.28-.48.45-1.15.52a14.71,14.71,0,0,0,4.54,2.73,35.9,35.9,0,0,0,6.08,1.87v.4a2.36,2.36,0,0,0-1.26.84,2.93,2.93,0,0,0-.64,1.38,24.52,24.52,0,0,1-2.71-1.24l1.85,1.41a1.47,1.47,0,0,1-.72.32v4.93c0,.1-.24.23-.67.39a3.3,3.3,0,0,1-1.15.25h-.37v-.79H167V68c0,.13-.11.27-.34.42l2.41,1h8l1.08-1.14,2.29,1.7a1.26,1.26,0,0,1-.76.4v6.21c0,.11-.26.26-.73.45a3.41,3.41,0,0,1-1.29.29h-.4V76.06h-8.33v.54c0,.13-.22.29-.67.48a3.62,3.62,0,0,1-1.37.29h-.32v-8.9a2.61,2.61,0,0,1-1.33.34h-.37v-7c-1.24.54-2.3,1-3.2,1.25l-.15-.34a28.24,28.24,0,0,0,6.2-4.18A14.38,14.38,0,0,0,171.65,53.78Zm7.4,8.23,1-1a15.6,15.6,0,0,1-6.16-5.57,18.2,18.2,0,0,1-3.41,3.09,32,32,0,0,1-4.7,2.82l1.58.64Zm-12,.72v4.21h5V62.73Zm1,.44.27-.17c1.5.59,2.35,1.34,2.57,2.24a1.06,1.06,0,0,1-.45,1.26,1,1,0,0,1-1.28-.22A5.47,5.47,0,0,0,168,63.17Zm9.29,6.9h-8.33v2.27h8.33Zm-8.33,5.25h8.33V73.08h-8.33Zm5.18-15.45,1.16-1.38c.85.65,1.54,1.23,2.07,1.72-.07.27-.28.4-.64.4h-7.35l-.2-.74Zm1.63,7.07h3.47V62.73h-5.08v4.21h1A30.46,30.46,0,0,0,176.44,63l2.66.88c-.12.37-.44.52-1,.47a20.22,20.22,0,0,1-2.39,2.59Z" transform="translate(-4.5 -25.45)" style="fill:#566c6c"/><path id="acb8e3c6-b1ed-4cb2-bf72-699baa50d0be" data-name="Path 469" d="M188.88,77.34l-.15-.32a20.75,20.75,0,0,0,4.57-2,15.85,15.85,0,0,0,3.39-2.53l3.38,1.5c-.17.3-.61.42-1.34.37A24.11,24.11,0,0,1,188.88,77.34Zm5.3-5.42v.74c0,.13-.23.29-.68.48a3.58,3.58,0,0,1-1.37.29h-.37V60.88L194.35,62h12l1.18-1.33,2.57,2a1.93,1.93,0,0,1-1.06.47v9.17c0,.1-.27.24-.77.42a4,4,0,0,1-1.28.27h-.39v-1Zm.91-12v.44c0,.07-.1.16-.31.27a3.74,3.74,0,0,1-.8.33,3.29,3.29,0,0,1-.94.14h-.32V54.3l2.52,1h10l1.16-1.26L209,56a1.58,1.58,0,0,1-1.05.52v3.67c0,.09-.27.2-.74.35a4.51,4.51,0,0,1-1.26.22h-.37v-.79Zm11.46,2.76H194.18V65h12.36Zm0,5.37V65.69H194.18v2.36Zm-12.37,3.13h12.36V68.79H194.17Zm11.36-15.13H195.09V59.2h10.45ZM202,73.35l.15-.34c3.74,0,6.4.61,8,1.9.77.62,1.07,1.23.91,1.82s-.58.71-1.28.66h-.08a23.55,23.55,0,0,0-3.58-2.23A30.32,30.32,0,0,0,202,73.35Z" transform="translate(-4.5 -25.45)" style="fill:#566c6c"/><path id="ba93a8a3-7503-466b-be26-1bf2d37c28d9" data-name="Path 470" d="M215.81,77.37l-.32-.27a16.07,16.07,0,0,0,3.8-6.61l3.08,1.31c-.15.31-.49.44-1,.39A13,13,0,0,1,215.81,77.37ZM235,77.29a2.79,2.79,0,0,0-.61-1.78,3.92,3.92,0,0,0-2-.68v-.4q2.39.15,2.88.15c.38,0,.57-.17.57-.52V67.71h-4.14q-.61,6.48-5.43,9.56L226,77a13.28,13.28,0,0,0,3.33-7.1,1.5,1.5,0,0,1-.37,0H215.71l-.2-.72h2.56V58.71h-1.94l-.2-.71h2.14V54.23l3.06.32c0,.34-.33.56-.84.64V58h3.77V54.23l3.18.32c-.08.37-.38.6-.89.69V58h.13l1-1.56c.78.74,1.38,1.37,1.83,1.88,0,.26-.27.39-.64.39h-2.29V69.26h.1l1.11-1.68c.7.64,1.3,1.24,1.8,1.78a37,37,0,0,0,.29-5.15V54.67l2.59,1h3.35l1.11-1.31,2.49,1.92a1.82,1.82,0,0,1-1.06.55v17.5a3.15,3.15,0,0,1-.59,2.1,4,4,0,0,1-2.57.85ZM224.07,58.71H220.3v2.81h3.77Zm-3.77,3.55v3h3.77v-3Zm0,3.75v3.25h3.77V66Zm2.78,4.85.25-.17q3.12.8,3.84,2.49a1.46,1.46,0,0,1-.23,1.7,1.15,1.15,0,0,1-1.57.05.32.32,0,0,1-.12-.08,6.06,6.06,0,0,0-.78-2.06,9.75,9.75,0,0,0-1.39-1.93Zm8.7-3.89h4.07v-5h-4v2.24c0,.92,0,1.85-.08,2.79Zm4.07-10.55h-4v4.8h4Z" transform="translate(-4.5 -25.45)" style="fill:#566c6c"/><path id="f9ffd51d-b167-45f8-a718-7955e1ddc0b3" data-name="Path 471" d="M253.46,69.73l1.5.46c-.11.3-.41.44-.88.43a9.45,9.45,0,0,1-1.85,2.71c1.3.59,2,1.29,2.19,2.12a.9.9,0,0,1-.52,1.13,1.23,1.23,0,0,1-1,0,11.32,11.32,0,0,0-2.24-1.84,14.75,14.75,0,0,1-7.42,2.58l-.12-.39a13.23,13.23,0,0,0,6.19-3.08q-1.61-.84-2-1l-.37.6-.34.58a2.71,2.71,0,0,1-2.1-.25,31.87,31.87,0,0,0,1.83-3.15l-2.22.27a.94.94,0,0,1-.71.49l-.7-2.31,4.44,0c.08-.2.22-.5.41-.89s.31-.67.38-.84h-1.82v.42s-.07.12-.2.21a2.1,2.1,0,0,1-.62.26,3.36,3.36,0,0,1-.89.13h-.32v-5.6l.35.14V59.52h-1.5l-.2-.72h1.7V55.35l2.36.94h1.65V53.9l3,.29c-.05.4-.35.64-.91.72v1.38h1.87l1-1,2.12,1.58a1.46,1.46,0,0,1-.84.39V58.8h.15l1-1.3a21,21,0,0,1,1.77,1.63c-.05.26-.26.39-.64.39h-2.29v2.59c0,.1-.23.21-.63.36a3.83,3.83,0,0,1-1.07.21h-.34V62h-2.1v1.65h2.22l1-1,2.05,1.55a1.2,1.2,0,0,1-.79.37v2.86c0,.08-.22.2-.61.34a3,3,0,0,1-1.06.22H253v-.69h-3.28l1.21.25c-.11.38-.46.56-1,.54q-.1.22-.45.87l7.47-.25,0,.44C255.39,69.45,254.24,69.63,253.46,69.73Zm-8.65-6.83h-.34l1.95.79h2V62h-2v.37c0,.05-.07.11-.2.18a2.26,2.26,0,0,1-.6.21,3.71,3.71,0,0,1-.88.1Zm1.31,1.53V66.6h2.34V64.43Zm.37-7.4v1.78h2V57Zm2,2.49h-2v1.8h2Zm.27,10.82c-.11.22-.29.54-.53,1s-.41.74-.53,1a16.26,16.26,0,0,1,2.69.46,10.12,10.12,0,0,0,1.6-2.8l-1,.13-1.19.15-1.06.13ZM252.65,57h-2.09v1.78h2.09Zm0,4.29v-1.8h-2.09v1.8Zm.34,3.11h-2.44V66.6H253Zm12.87-4.19h-1a25.46,25.46,0,0,1-3,10.5,14.31,14.31,0,0,0,4.83,4.58l-.1.22a2.49,2.49,0,0,0-2.05,1.8,14.18,14.18,0,0,1-3.82-4.9,16.69,16.69,0,0,1-6.11,4.88l-.2-.3a18.13,18.13,0,0,0,5.47-6.48,32.16,32.16,0,0,1-1.75-7.74,18,18,0,0,1-2.05,3.06l-.37-.2A37.19,37.19,0,0,0,258.46,54l3.33.76c-.09.36-.39.55-.91.57a41.4,41.4,0,0,1-1.24,4.21h3l1.38-1.77q1.51,1.23,2.46,2.1a.6.6,0,0,1-.66.41Zm-3.55,0h-2.93c-.13.31-.4.88-.79,1.72a24.88,24.88,0,0,0,2.12,6.73,29,29,0,0,0,1.6-8.45Z" transform="translate(-4.5 -25.45)" style="fill:#566c6c"/></g><g id="b53511ec-fded-4218-ba3e-e2943c5284d7" data-name="Group 326"><path id="bbd5e3f3-8a98-473d-88b7-a389496a47c9" data-name="Path 472" d="M513.76,44.32h-.64a15.81,15.81,0,0,1-4.68,4.78l-.32-.25a18.71,18.71,0,0,0,2.35-3.66,24.49,24.49,0,0,0,1.79-4.6l3,1.14a.92.92,0,0,1-1,.44,15,15,0,0,1-.76,1.43H517l1.2-1.58a24.32,24.32,0,0,1,2.15,1.9c-.05.26-.26.4-.62.4h-4.85c1.25.6,1.89,1.34,1.92,2.21a1.09,1.09,0,0,1-.65,1.16,1.22,1.22,0,0,1-1.4-.32A5.16,5.16,0,0,0,513.76,44.32Zm13.85,11.31,1.26-1.21,2.27,1.9a1.51,1.51,0,0,1-.94.38c-.26,3.2-.94,5.17-2,5.91a4.88,4.88,0,0,1-2.66.66,2.31,2.31,0,0,0-.4-1.57,3.48,3.48,0,0,0-1.87-.76l0-.38c1.53.1,2.4.15,2.62.15a1.29,1.29,0,0,0,.79-.17q.77-.61,1.11-4.17h-6.54v7.05c0,.07-.1.15-.23.24a2.68,2.68,0,0,1-.68.27,3.46,3.46,0,0,1-1,.13h-.39V58.42A23.4,23.4,0,0,1,508.56,64l-.2-.32a23.05,23.05,0,0,0,5.13-3.19,19.08,19.08,0,0,0,3.77-4.1h-4.44c-.13.54-.29,1.12-.47,1.75a3.65,3.65,0,0,1-2.44-.05q1.17-3.7,1.93-7.27L514.37,52h4.56V49h-8.1l-.23-.74h15.8L527.51,47l2.42,1.8a1.69,1.69,0,0,1-.94.47v4.16c0,.1-.25.24-.71.41a3.53,3.53,0,0,1-1.24.26h-.41V52.7h-5.38v2.93Zm-14.59,0h5.92V52.7h-5.2s-.12.44-.3,1.18-.32,1.33-.42,1.75Zm15.11-12,1.33-1.67c1,.76,1.79,1.42,2.42,2,0,.26-.28.39-.67.39h-6.13c1.13.59,1.69,1.29,1.67,2.1a1.1,1.1,0,0,1-.74,1.06,1.19,1.19,0,0,1-1.26-.3,5.51,5.51,0,0,0-1.1-2.86h-1.11a15,15,0,0,1-3.53,3.3l-.29-.25a20.25,20.25,0,0,0,3-6.8L525,41.73c-.13.31-.46.46-1,.44-.4.68-.69,1.15-.89,1.43ZM521.25,49v3h5.38V49Z" transform="translate(-4.5 -25.45)" style="fill:#566c6c"/><path id="a4609dcb-6d43-4dc5-ac8d-0f81f1fc86ab" data-name="Path 473" d="M535.64,51.17h18.09l1.87-2.56q2.13,1.77,3.4,3c-.06.28-.33.42-.79.42H535.88Z" transform="translate(-4.5 -25.45)" style="fill:#566c6c"/><path id="fcd616d3-60eb-4b22-b3cd-3d6b9bce64bd" data-name="Path 474" d="M562.77,64.09l-.32-.28a16,16,0,0,0,3.8-6.6l3.08,1.31c-.15.31-.49.44-1,.39A12.9,12.9,0,0,1,562.77,64.09ZM581.94,64a2.83,2.83,0,0,0-.61-1.79,3.91,3.91,0,0,0-2-.67v-.4q2.39.15,2.88.15c.38,0,.57-.17.57-.52V54.42h-4.14q-.61,6.48-5.43,9.56l-.32-.24a13.31,13.31,0,0,0,3.33-7.1,1.5,1.5,0,0,1-.37,0H562.67l-.2-.72H565V45.43h-1.95l-.2-.71H565V40.94l3.06.32c-.05.35-.33.56-.84.64v2.82H571V40.94l3.18.32c-.08.38-.38.61-.89.7v2.75h.13l1-1.55c.78.74,1.38,1.36,1.83,1.87,0,.27-.26.4-.64.4h-2.29V56h.1l1.1-1.68q1.07,1,1.8,1.77a36.8,36.8,0,0,0,.3-5.15V41.39l2.59,1h3.35l1.11-1.31L586.16,43a1.84,1.84,0,0,1-1.06.54v17.5a3.14,3.14,0,0,1-.59,2.1,4.13,4.13,0,0,1-2.57.86ZM571,45.43h-3.78v2.81H571ZM567.25,49v3H571V49Zm0,3.74V56H571V52.72ZM570,57.58l.25-.18q3.12.8,3.84,2.5a1.46,1.46,0,0,1-.23,1.7,1.15,1.15,0,0,1-1.57,0,.21.21,0,0,1-.12-.07,6.19,6.19,0,0,0-.78-2.07A9.68,9.68,0,0,0,570,57.58Zm8.7-3.89h4.07v-5h-4V50.9c0,.92,0,1.85-.08,2.79Zm4.07-10.55h-4v4.8h4Z" transform="translate(-4.5 -25.45)" style="fill:#566c6c"/><path id="b93507dd-8db4-41d3-b17b-cac02165be73" data-name="Path 475" d="M496.06,81.42q0-5.57,5.16-8.76l.31.35a10.95,10.95,0,0,0,0,16.82l-.31.34Q496.06,87,496.06,81.42Z" transform="translate(-4.5 -25.45)" style="fill:#566c6c"/><path id="bcfb1e17-278c-45d6-a424-b05c4c948a40" data-name="Path 476" d="M504.7,74.77h8.45v1.11l-4.83,12.6h-1.76l-.2-.18L512,76.53H504.7Z" transform="translate(-4.5 -25.45)" style="fill:#566c6c"/><path id="e445fb00-99dd-4aeb-bcec-14231d2cff9d" data-name="Path 477" d="M515.7,91.77l5.5-17.89h1.2l-5.48,17.89Z" transform="translate(-4.5 -25.45)" style="fill:#566c6c"/><path id="a4aeab36-ca8b-46a9-a84c-87cb9b3abb95" data-name="Path 478" d="M530.41,87.52l2.78.36v.6h-7.7v-.6l2.87-.36q0-2.22,0-3.36v-8l-2.61.23v-.71l4.4-1.07.25.2,0,3v6.43Q530.37,85.27,530.41,87.52Z" transform="translate(-4.5 -25.45)" style="fill:#566c6c"/><path id="fb760624-c308-48e7-b211-823bbf37cec7" data-name="Path 479" d="M541.67,81a2.91,2.91,0,0,0,1.85.92c.8,0,1.28-.67,1.44-2l.87.13a3.41,3.41,0,0,1-.7,2.13,2.19,2.19,0,0,1-1.73.72,2.68,2.68,0,0,1-1.18-.27,5.73,5.73,0,0,1-1.22-.86,2.87,2.87,0,0,0-1.84-.91c-.83,0-1.31.68-1.45,2l-.89-.11a3.44,3.44,0,0,1,.71-2.14,2.18,2.18,0,0,1,1.74-.73A3.71,3.71,0,0,1,541.67,81Z" transform="translate(-4.5 -25.45)" style="fill:#566c6c"/><path id="b4242050-f57b-4255-821b-cdebaff41b8f" data-name="Path 480" d="M550,88.85l-.12-.59a9,9,0,0,0,3.87-2.38,7.47,7.47,0,0,0,1.74-3.79,3.79,3.79,0,0,1-2.65.94A3.94,3.94,0,0,1,550,81.92a4,4,0,0,1-1.14-3,4.39,4.39,0,0,1,1.27-3.24,4.44,4.44,0,0,1,3.18-1.21,3.91,3.91,0,0,1,3.27,1.5,6.41,6.41,0,0,1,1.18,4.08,8.41,8.41,0,0,1-2,5.57A10,10,0,0,1,550,88.85Zm3.56-6.8a3.05,3.05,0,0,0,2-.74c0-.43,0-.84,0-1.25a7.9,7.9,0,0,0-.65-3.65,2,2,0,0,0-1.76-1.18,2,2,0,0,0-1.71.89,4.12,4.12,0,0,0-.67,2.56,3.75,3.75,0,0,0,.74,2.5,2.44,2.44,0,0,0,2,.87Z" transform="translate(-4.5 -25.45)" style="fill:#566c6c"/><path id="fe2f80f3-9220-45c5-84ab-cc96bf5ba61e" data-name="Path 481" d="M560.22,91.77l5.5-17.89h1.2l-5.49,17.89Z" transform="translate(-4.5 -25.45)" style="fill:#566c6c"/><path id="b4c5689b-8f58-41e2-b1c6-9dfc5bf3aa4c" data-name="Path 482" d="M572.27,75.33l-.36,1.38c-.17.79-.56,1.18-1.16,1.18a.93.93,0,0,1-1-.63,2.86,2.86,0,0,1,1.28-2.07,4.76,4.76,0,0,1,2.65-.71,4.3,4.3,0,0,1,2.9.91,3,3,0,0,1,1,2.43,3.16,3.16,0,0,1-.76,2.1,4.5,4.5,0,0,1-2.24,1.32,4.18,4.18,0,0,1,2.56,1.27,3.73,3.73,0,0,1-.44,5.17,5.12,5.12,0,0,1-3.39,1.08,4.77,4.77,0,0,1-2.77-.73,3.12,3.12,0,0,1-1.26-2.2,1,1,0,0,1,1-.69.89.89,0,0,1,.73.3,2.59,2.59,0,0,1,.43,1.06l.33,1.38a4.45,4.45,0,0,0,1.09.13,3,3,0,0,0,2.26-.85,3.76,3.76,0,0,0,0-4.65,3.07,3.07,0,0,0-2.32-.84H572v-.81h.76a2.7,2.7,0,0,0,2.92-3,2.79,2.79,0,0,0-.64-2,2.36,2.36,0,0,0-1.83-.69A4.05,4.05,0,0,0,572.27,75.33Z" transform="translate(-4.5 -25.45)" style="fill:#566c6c"/><path id="a0ddfc88-1343-4c4f-8cc9-fe3f23b5b996" data-name="Path 483" d="M585.6,74.52a3.74,3.74,0,0,1,3.12,1.73A9,9,0,0,1,590,81.54,9.48,9.48,0,0,1,588.72,87a3.7,3.7,0,0,1-3.12,1.77A3.75,3.75,0,0,1,582.43,87a9.41,9.41,0,0,1-1.26-5.44,8.94,8.94,0,0,1,1.27-5.29A3.79,3.79,0,0,1,585.6,74.52Zm-2.38,7q0,6.46,2.38,6.47t2.34-6.47q0-6.3-2.34-6.3T583.22,81.54Z" transform="translate(-4.5 -25.45)" style="fill:#566c6c"/><path id="e4314de9-5263-4db7-93dd-e493a9497d84" data-name="Path 484" d="M593,73l.31-.34q5.15,3.18,5.15,8.75t-5.15,8.75l-.31-.34A10.95,10.95,0,0,0,593,73Z" transform="translate(-4.5 -25.45)" style="fill:#566c6c"/></g><g id="bdf00f0d-0aea-4b84-ada9-7e51d9d4b818" data-name="Group 327"><path id="ea1df34c-f468-4517-be91-a93f64ea6804" data-name="Path 485" d="M762.14,44.32h-.64a15.81,15.81,0,0,1-4.68,4.78l-.32-.25a19.23,19.23,0,0,0,2.36-3.66,25.16,25.16,0,0,0,1.78-4.6l3.06,1.14a.94.94,0,0,1-1,.44A13,13,0,0,1,762,43.6h3.4L766.58,42a24.19,24.19,0,0,1,2.14,1.9c-.05.26-.25.4-.61.4h-4.86c1.25.6,1.89,1.34,1.92,2.21a1.07,1.07,0,0,1-.65,1.16,1.2,1.2,0,0,1-1.39-.32A5.17,5.17,0,0,0,762.14,44.32ZM776,55.63l1.26-1.21,2.27,1.9a1.49,1.49,0,0,1-.94.38q-.39,4.8-2,5.91a4.86,4.86,0,0,1-2.66.66,2.36,2.36,0,0,0-.39-1.57,3.51,3.51,0,0,0-1.88-.76l0-.38q2.3.15,2.61.15a1.28,1.28,0,0,0,.79-.17q.77-.61,1.11-4.17h-6.53v7.05q0,.11-.24.24a2.77,2.77,0,0,1-.67.27,3.48,3.48,0,0,1-1,.13h-.39V58.42A23.42,23.42,0,0,1,757,64l-.21-.32a22.83,22.83,0,0,0,5.13-3.19,18.83,18.83,0,0,0,3.77-4.1h-4.43c-.14.54-.29,1.12-.47,1.75a3.65,3.65,0,0,1-2.44-.05q1.16-3.7,1.92-7.27L762.76,52h4.56V49h-8.11l-.22-.74h15.8L775.9,47l2.41,1.8a1.66,1.66,0,0,1-.93.47v4.16c0,.1-.26.24-.72.41a3.47,3.47,0,0,1-1.23.26H775V52.7h-5.37v2.93Zm-14.59,0h5.92V52.7h-5.2s-.12.44-.3,1.18-.32,1.33-.42,1.75Zm15.11-12,1.33-1.67c1,.76,1.79,1.42,2.42,2,0,.26-.27.39-.67.39h-6.13q1.69.88,1.68,2.1a1.11,1.11,0,0,1-.74,1.06,1.18,1.18,0,0,1-1.26-.3A5.52,5.52,0,0,0,772,44.32h-1.11a14.73,14.73,0,0,1-3.52,3.3l-.3-.25a20.28,20.28,0,0,0,3.06-6.8l3.18,1.16c-.13.31-.46.46-1,.44-.39.68-.69,1.15-.89,1.43ZM769.64,49v3H775V49Z" transform="translate(-4.5 -25.45)" style="fill:#566c6c"/><path id="aefffca5-7be4-4617-b314-cc3b3a03cdcc" data-name="Path 486" d="M784.15,59.57h18.26l1.72-2.26c1.3,1,2.34,1.88,3.11,2.59q-.12.36-.72.36H784.34Zm2.39-14.17H800l1.67-2.19c1.27,1,2.28,1.86,3,2.54-.09.25-.32.37-.72.37H786.76Z" transform="translate(-4.5 -25.45)" style="fill:#566c6c"/><path id="bd3c0b1b-2166-4129-bfec-0faa0ff5c362" data-name="Path 487" d="M811.15,64.09l-.32-.28a15.93,15.93,0,0,0,3.8-6.6l3.08,1.31c-.14.31-.49.44-1,.39A12.93,12.93,0,0,1,811.15,64.09ZM830.33,64a2.79,2.79,0,0,0-.62-1.79,3.84,3.84,0,0,0-2-.67v-.4q2.38.15,2.88.15c.38,0,.57-.17.57-.52V54.42h-4.14q-.62,6.48-5.42,9.56l-.32-.24a13.46,13.46,0,0,0,3.33-7.1,1.57,1.57,0,0,1-.37,0H811.06l-.2-.72h2.56V45.43h-1.95l-.2-.71h2.15V40.94l3.05.32c-.05.35-.33.56-.84.64v2.82h3.78V40.94l3.18.32a1,1,0,0,1-.89.7v2.75h.12l1-1.55c.77.74,1.38,1.36,1.82,1.87,0,.27-.26.4-.64.4H821.7V56h.1l1.11-1.68q1.05,1,1.8,1.77a35.34,35.34,0,0,0,.29-5.15V41.39l2.59,1h3.35l1.11-1.31L834.54,43a1.78,1.78,0,0,1-1.06.54v17.5a3,3,0,0,1-.59,2.1,4.08,4.08,0,0,1-2.56.86ZM819.41,45.43h-3.77v2.81h3.77ZM815.64,49v3h3.77V49Zm0,3.74V56h3.77V52.72Zm2.78,4.86.25-.18q3.14.8,3.84,2.5a1.44,1.44,0,0,1-.23,1.7,1.14,1.14,0,0,1-1.56,0,.24.24,0,0,1-.13-.07,6.17,6.17,0,0,0-.77-2.07,10.15,10.15,0,0,0-1.4-1.92Zm8.7-3.89h4.07v-5h-4V50.9c0,.92,0,1.85-.08,2.79Zm4.07-10.55h-4v4.8h4Z" transform="translate(-4.5 -25.45)" style="fill:#566c6c"/><path id="eb884d41-5622-4f59-9d05-e985f9735624" data-name="Path 488" d="M732.57,81.42q0-5.57,5.16-8.76L738,73a10.95,10.95,0,0,0,0,16.82l-.31.34Q732.57,87,732.57,81.42Z" transform="translate(-4.5 -25.45)" style="fill:#566c6c"/><path id="bdfc4b66-8990-405c-b5ec-f85e5e1ae29a" data-name="Path 489" d="M746.66,87.52l2.78.36v.6h-7.7v-.6l2.87-.36c0-1.48,0-2.6,0-3.36v-8l-2.62.23v-.71l4.4-1.07.26.2-.06,3v6.43Q746.63,85.27,746.66,87.52Z" transform="translate(-4.5 -25.45)" style="fill:#566c6c"/><path id="fdd88e63-12f4-4d2c-a5d5-f2116f4e2835" data-name="Path 490" d="M757.34,74.52a3.74,3.74,0,0,1,3.12,1.73,9,9,0,0,1,1.25,5.29A9.5,9.5,0,0,1,760.46,87a3.7,3.7,0,0,1-3.12,1.77A3.78,3.78,0,0,1,754.17,87a9.41,9.41,0,0,1-1.26-5.44,8.94,8.94,0,0,1,1.27-5.29A3.79,3.79,0,0,1,757.34,74.52Zm-2.38,7Q755,88,757.34,88t2.34-6.47q0-6.3-2.34-6.3T755,81.54Z" transform="translate(-4.5 -25.45)" style="fill:#566c6c"/><path id="eaac06ca-f17b-4e26-9549-53e4c78b6d5c" data-name="Path 491" d="M764.09,91.77l5.5-17.89h1.2L765.3,91.77Z" transform="translate(-4.5 -25.45)" style="fill:#566c6c"/><path id="a7876985-5ced-4cfc-931e-db9594262573" data-name="Path 492" d="M778.79,87.52l2.78.36v.6h-7.7v-.6l2.87-.36c0-1.48,0-2.6,0-3.36v-8l-2.62.23v-.71l4.4-1.07.25.2,0,3v6.43Q778.76,85.27,778.79,87.52Z" transform="translate(-4.5 -25.45)" style="fill:#566c6c"/><path id="b21ea9a3-228d-4a74-a013-2755e664d904" data-name="Path 493" d="M790.05,81a3,3,0,0,0,1.86.92c.8,0,1.27-.67,1.43-2l.87.13a3.35,3.35,0,0,1-.7,2.13,2.18,2.18,0,0,1-1.73.72,2.64,2.64,0,0,1-1.17-.27,5.79,5.79,0,0,1-1.23-.86,2.85,2.85,0,0,0-1.83-.91c-.84,0-1.32.68-1.45,2l-.89-.11a3.33,3.33,0,0,1,.71-2.14,2.18,2.18,0,0,1,1.74-.73A3.69,3.69,0,0,1,790.05,81Z" transform="translate(-4.5 -25.45)" style="fill:#566c6c"/><path id="b628236e-9bc8-450d-8808-51d9b016c0d2" data-name="Path 494" d="M803.05,87.52l2.78.36v.6h-7.7v-.6l2.87-.36q0-2.22,0-3.36v-8l-2.61.23v-.71l4.39-1.07.26.2-.06,3v6.43C803,84.9,803,86,803.05,87.52Z" transform="translate(-4.5 -25.45)" style="fill:#566c6c"/><path id="f33dbccc-813c-4a10-83bb-ffeb0ba20ef6" data-name="Path 495" d="M810.83,86.74h7.25v1.74h-8.61V87.14l1.5-1.7c.74-.83,1.27-1.44,1.61-1.83a17.93,17.93,0,0,0,2.24-3,4.91,4.91,0,0,0,.68-2.47,3.23,3.23,0,0,0-.66-2.14,2.2,2.2,0,0,0-1.81-.8,4,4,0,0,0-1,.12l-.45,1.58c-.19.9-.58,1.35-1.16,1.35a1.11,1.11,0,0,1-1-.67,3.05,3.05,0,0,1,1.37-2.31,5.07,5.07,0,0,1,2.9-.82,4,4,0,0,1,2.94,1,3.66,3.66,0,0,1,1,2.67,4.21,4.21,0,0,1-.91,2.5,37.1,37.1,0,0,1-3.47,3.73c-.21.19-.59.57-1.14,1.13Z" transform="translate(-4.5 -25.45)" style="fill:#566c6c"/><path id="a9d81995-52c0-49a8-b8f8-a7dbdabb0b4a" data-name="Path 496" d="M820.47,91.77,826,73.88h1.2l-5.48,17.89Z" transform="translate(-4.5 -25.45)" style="fill:#566c6c"/><path id="a11221b0-4484-420f-9eed-54dfa5bacbe5" data-name="Path 497" d="M832.53,75.33l-.36,1.38c-.17.79-.56,1.18-1.16,1.18a.93.93,0,0,1-1-.63,2.86,2.86,0,0,1,1.28-2.07,4.78,4.78,0,0,1,2.65-.71,4.28,4.28,0,0,1,2.9.91,3.06,3.06,0,0,1,1.06,2.43,3.12,3.12,0,0,1-.77,2.1,4.43,4.43,0,0,1-2.23,1.32,4.21,4.21,0,0,1,2.56,1.27,3.73,3.73,0,0,1-.44,5.17,5.12,5.12,0,0,1-3.39,1.08,4.75,4.75,0,0,1-2.77-.73,3.06,3.06,0,0,1-1.26-2.2,1,1,0,0,1,1-.69.9.9,0,0,1,.73.3,2.73,2.73,0,0,1,.43,1.06l.33,1.38a4.45,4.45,0,0,0,1.09.13,3,3,0,0,0,2.26-.85,3.21,3.21,0,0,0,.81-2.29,3.33,3.33,0,0,0-.8-2.36,3.1,3.1,0,0,0-2.33-.84h-.9v-.81H833a2.7,2.7,0,0,0,2.92-3,2.79,2.79,0,0,0-.64-2,2.36,2.36,0,0,0-1.83-.69A4.2,4.2,0,0,0,832.53,75.33Z" transform="translate(-4.5 -25.45)" style="fill:#566c6c"/><path id="a9d5d7cd-c71c-4468-913f-1ecbbb176a0d" data-name="Path 498" d="M847.05,87.52l2.78.36v.6h-7.7v-.6l2.87-.36c0-1.48,0-2.6,0-3.36v-8l-2.62.23v-.71l4.4-1.07.25.2-.05,3v6.43Q847,85.27,847.05,87.52Z" transform="translate(-4.5 -25.45)" style="fill:#566c6c"/><path id="b3693c5b-0dce-42ff-be44-fccee03d8871" data-name="Path 499" d="M853.22,73l.31-.34q5.16,3.18,5.16,8.75t-5.16,8.75l-.31-.34a10.95,10.95,0,0,0,0-16.82Z" transform="translate(-4.5 -25.45)" style="fill:#566c6c"/></g><g id="f7621d5f-20d1-4017-93fa-009940f519ae" data-name="Group 328"><line id="f00dd4f7-bba3-46e7-9245-915f21474184" data-name="Line 119" x1="419.48" x2="419.48" y2="466.09" style="fill:none;stroke:#959595;stroke-miterlimit:10"/><line id="ed31e6aa-f649-4f55-96b6-47a89a906827" data-name="Line 120" x1="665.41" x2="665.41" y2="155.63" style="fill:none;stroke:#959595;stroke-miterlimit:10"/><path id="b51749d2-e88b-4bc5-9263-9bf5c9592c01" data-name="Path 575" d="M915.18,180.66" transform="translate(-4.5 -25.45)" style="fill:none;stroke:#959595"/></g><g id="ef879a48-bfd5-4840-bd62-8b9fbfa657f9" data-name="Group 342"><path id="b11dcc0d-a373-49f8-b56e-3fbd58e9607f" data-name="Path 500" d="M166.48,139.82a16.21,16.21,0,0,1-6.42,9.89,8.62,8.62,0,0,0-1.67-1.58,13.1,13.1,0,0,0,5.42-6.84h-4.92v-2h5.83l.36-.07ZM178.56,138a52.47,52.47,0,0,1-5.74,4.67,13.93,13.93,0,0,0,6.53,5.2,9.07,9.07,0,0,0-1.47,1.85,15.7,15.7,0,0,1-7.81-7.88v6.7c0,1.2-.27,1.81-1.09,2.15a11.19,11.19,0,0,1-3.95.38,7.51,7.51,0,0,0-.74-2.1c1.24,0,2.61,0,3,0s.52-.14.52-.52V136.93h-6v-2h8.21v1.8a23.08,23.08,0,0,0,1.76,4.34,33.4,33.4,0,0,0,4.81-4.47ZM172,135.21a40.06,40.06,0,0,0-8.22-3.07l1-1.74a38.7,38.7,0,0,1,8.29,2.85Z" transform="translate(-4.5 -25.45)" style="fill:#566c6c"/><path id="e9f1818f-72cd-494f-ac4c-b32d3828bf0b" data-name="Path 501" d="M183.64,145.17a31.55,31.55,0,0,1-1.11,5.78,8.66,8.66,0,0,0-1.58-.54,25.46,25.46,0,0,0,1-5.53Zm3.66-.93c-.05-.36-.14-.76-.23-1.24-4.22.63-4.9.79-5.35,1a11.88,11.88,0,0,0-.59-1.74c.48-.13,1-.67,1.6-1.53a24.44,24.44,0,0,0,1.58-2.33,11.2,11.2,0,0,0-2.75.5,15,15,0,0,0-.59-1.71c.41-.09.75-.55,1.18-1.25a27.36,27.36,0,0,0,2.6-5.66l1.76.72a35,35,0,0,1-3,5.8l1.9-.16c.52-1,1.06-2,1.51-3.05l1.62,1a41.7,41.7,0,0,1-4.56,7.18l2.76-.36c-.18-.68-.39-1.38-.59-2l1.45-.38a34.86,34.86,0,0,1,1.24,4.72Zm-1.65.59a47.28,47.28,0,0,1,.59,5.17l-1.56.3a45.61,45.61,0,0,0-.48-5.22Zm2-.56a36.4,36.4,0,0,1,1.18,4.11l-1.42.45a37.84,37.84,0,0,0-1.11-4.18Zm9.71,3.56c1.6.57,3.3,1.25,4.4,1.74l-.85,1.49c-1.2-.56-3.1-1.42-4.79-2.05l.68-1.17H193.1l1.24,1.15c-1.72.79-3.91,1.62-5.49,2.21a8.33,8.33,0,0,0-.79-1.47,39.94,39.94,0,0,0,4.59-1.9h-3.3v-6.64h11.2v6.64Zm-3.27-14.94h-5.56v-1.43h5.56v-1.1h2v1.1h5.29v1.43H196.1v1h4.5v1.36H189.37v-1.36h4.68ZM188.61,136H201.3v4.34H188.61Zm1.74,3h2.12v-1.62h-2.12Zm.88,4.2h7.38v-.81h-7.39Zm0,1.72h7.38v-.84h-7.39Zm0,1.78h7.38v-.9h-7.39ZM196,139v-1.62h-2V139Zm3.43-1.62h-1.83V139h1.83Z" transform="translate(-4.5 -25.45)" style="fill:#566c6c"/><path id="a78739a4-1281-4329-b265-fd7e5f0b914e" data-name="Path 502" d="M210.58,143.54l.38,1.92c-2.33,1-4.81,2-6.75,2.8l-.66-2.14c.77-.25,1.68-.59,2.69-1v-7.41h-2.5v-2h2.5v-5.15h1.88v5.15h2.39v2h-2.39v6.71Zm13.77-4.44V141H210.44v-1.9h8.31a29,29,0,0,0,1.42-4.34l1.94.52c-.45,1.26-1,2.69-1.46,3.82Zm-.75-4.36H211.3v-1.88h5.24a21,21,0,0,0-.59-2.3l1.9-.31a19.51,19.51,0,0,1,.72,2.62h5Zm-11.28,8h10.25V151h-2v-.79h-6.35v.88h-1.91Zm1.55-3.7a14.86,14.86,0,0,0-1.1-3.64l1.71-.52a17.44,17.44,0,0,1,1.2,3.57Zm.36,5.57v3.75h6.35v-3.75Z" transform="translate(-4.5 -25.45)" style="fill:#566c6c"/><path id="a5a002aa-bdcc-46a1-9776-0781f9155308" data-name="Path 503" d="M245.78,135.14s0,.75-.05,1c-.5,9.15-.92,12.49-1.92,13.64a2.71,2.71,0,0,1-2.07,1,26.88,26.88,0,0,1-3.59,0,5.26,5.26,0,0,0-.75-2.17c1.49.14,2.87.14,3.43.14a1.28,1.28,0,0,0,1-.34c.77-.73,1.24-3.82,1.63-11.2h-7.07c-.34,4.65-1.87,10.11-8.28,13.91a9.06,9.06,0,0,0-1.63-1.7,14.5,14.5,0,0,0,7.68-12.21h-7v-2.15h7.11V130.4h2.21v4.74Z" transform="translate(-4.5 -25.45)" style="fill:#566c6c"/><path id="a86c10dd-e40f-4ced-895e-f4021a404307" data-name="Path 504" d="M261.88,139.21v.18h6.5s0,.63-.05.92c-.27,6.44-.51,8.88-1.24,9.69a2.19,2.19,0,0,1-1.74.86,26.91,26.91,0,0,1-3.11,0,4.65,4.65,0,0,0-.68-2.08c1.22.12,2.37.14,2.84.14a1.12,1.12,0,0,0,.89-.3c.42-.47.7-2.44.92-7.29h-4.42a12.49,12.49,0,0,1-5.8,9.75,9.08,9.08,0,0,0-1.59-1.44c4.79-3.16,5.38-7.36,5.38-10.5v-2.94H256.3v1.63h-2.46v6.05c.88-.34,1.78-.65,2.66-1l.39,2c-2.64,1-5.49,2.12-7.68,2.93l-.5-2.17c.86-.27,1.92-.65,3.1-1.06v-6.75H249.1v-2h2.71v-5.14h2v5.14h2.39v-1.64h13.28v2h-7.63Zm.56-5.1a27.44,27.44,0,0,0-1-3.46l2-.43c.39,1.06.9,2.46,1.11,3.32Z" transform="translate(-4.5 -25.45)" style="fill:#566c6c"/></g><g id="e860e534-60ed-4cfd-8a22-1c98b4f82d47" data-name="Group 340"><path id="f88e89b4-5597-483c-a430-667969ea2d0f" data-name="Path 505" d="M526,134.87h-7.81v-2.19h10.7v1.58c-3.91,4.87-4.52,8.53-4.79,15h-2.66C521.71,143.23,522.77,139.34,526,134.87Z" transform="translate(-4.5 -25.45)" style="fill:#566c6c"/><path id="a39ff9e6-9a06-411a-95aa-d88e4e823bf5" data-name="Path 506" d="M548.56,148.24c0,1.35-.36,2-1.27,2.35a15.1,15.1,0,0,1-4.83.43,8.77,8.77,0,0,0-.9-2.22c1.76.09,3.57.07,4.11,0s.68-.18.68-.66v-3.95H536.1a12.5,12.5,0,0,1-3.87,6.87,7.55,7.55,0,0,0-1.6-1.54c3.53-3,3.86-7.45,3.86-11v-7.09h14.07Zm-2.22-6v-3.34h-9.7a28.78,28.78,0,0,1-.2,3.34Zm-9.7-8.69v3.34h9.7v-3.34Z" transform="translate(-4.5 -25.45)" style="fill:#566c6c"/><path id="acf378b5-a35e-4373-8b7d-48210d879028" data-name="Path 507" d="M561.18,145.35c-.43-.68-1.33-1.81-2.14-2.82v8.55h-2.17v-8.31a18.25,18.25,0,0,1-2.53,2.44,9.34,9.34,0,0,0-1.06-2.06,20,20,0,0,0,5.8-7h-5.26v-1.9h4.11a21.23,21.23,0,0,0-1.88-3l1.6-.92a18.64,18.64,0,0,1,2,3l-1.52,1h2.08l.31-.09,1.18.83a24.42,24.42,0,0,1-2.69,5v.2c.18.19.38.37.61.59a17.42,17.42,0,0,0,1.74-2.19l1.4,1.15c-.77.72-1.53,1.45-2.19,2,.79.82,1.56,1.63,1.83,1.94Zm12.13-13.14s0,.79,0,1.08c-.27,11.45-.52,15.31-1.35,16.46a2.35,2.35,0,0,1-1.85,1.11,20.75,20.75,0,0,1-3.25,0,4.61,4.61,0,0,0-.64-2c1.31.12,2.44.12,3,.12a.89.89,0,0,0,.88-.41c.7-.79,1-4.54,1.2-14.38h-3.75c-.33,7.88-1.4,13.34-5.51,16.86a9.67,9.67,0,0,0-1.64-1.62c3.9-3,4.81-8.13,5-15.24H562v-2Z" transform="translate(-4.5 -25.45)" style="fill:#566c6c"/></g><g id="bb3d8a9e-8b72-4cf8-9856-e9fb6bf5ae4c" data-name="Group 341"><path id="fe0173b6-4c3f-4e40-9091-0e4c78aa330e" data-name="Path 508" d="M759.62,147.16h3.64V135.6h-3V134a10.29,10.29,0,0,0,3.61-1.26h2v14.47h3.25v2.14h-9.48Z" transform="translate(-4.5 -25.45)" style="fill:#566c6c"/><path id="abd34468-2053-4ec7-abb0-978fa7eccc8c" data-name="Path 509" d="M771.61,140.92c0-5.75,2.1-8.55,5.38-8.55s5.37,2.82,5.37,8.55-2.12,8.67-5.37,8.67S771.61,146.7,771.61,140.92Zm8.27,0c0-4.76-1.2-6.5-2.89-6.5s-2.89,1.74-2.89,6.5,1.2,6.62,2.89,6.62S779.88,145.73,779.88,140.92Z" transform="translate(-4.5 -25.45)" style="fill:#566c6c"/><path id="e6a6fcc0-3052-4d54-9362-afc4dac07ead" data-name="Path 510" d="M802.05,148.24c0,1.35-.36,2-1.26,2.35A15.16,15.16,0,0,1,796,151a8.42,8.42,0,0,0-.9-2.22c1.77.09,3.57.07,4.11,0s.68-.18.68-.66v-3.95H789.59a12.48,12.48,0,0,1-3.86,6.87,8.05,8.05,0,0,0-1.6-1.54c3.52-3,3.86-7.45,3.86-11v-7.09h14.06Zm-2.21-6v-3.34h-9.71a28.78,28.78,0,0,1-.2,3.34Zm-9.71-8.69v3.34h9.71v-3.34Z" transform="translate(-4.5 -25.45)" style="fill:#566c6c"/><path id="a2bf6c75-9a9b-44eb-9392-4a189741f68f" data-name="Path 511" d="M814.67,145.35c-.42-.68-1.33-1.81-2.14-2.82v8.55h-2.17v-8.31a18.25,18.25,0,0,1-2.53,2.44,8.93,8.93,0,0,0-1.06-2.06,19.92,19.92,0,0,0,5.8-7h-5.26v-1.9h4.11a22.11,22.11,0,0,0-1.87-3l1.6-.92a19.27,19.27,0,0,1,2,3l-1.51,1h2.08l.31-.09,1.18.84a25.71,25.71,0,0,1-2.69,5v.2l.61.59a19.22,19.22,0,0,0,1.74-2.19l1.4,1.15c-.77.72-1.54,1.44-2.19,2,.79.81,1.55,1.62,1.83,1.94Zm12.13-13.14s0,.79,0,1.08c-.28,11.45-.52,15.31-1.36,16.46a2.35,2.35,0,0,1-1.85,1.11,20.75,20.75,0,0,1-3.25,0,4.61,4.61,0,0,0-.64-2c1.32.12,2.44.12,3,.12a.88.88,0,0,0,.88-.41c.7-.79,1-4.54,1.2-14.38H821c-.33,7.88-1.4,13.34-5.5,16.86a10.11,10.11,0,0,0-1.65-1.62c3.91-3,4.81-8.13,5-15.24h-3.32v-2Z" transform="translate(-4.5 -25.45)" style="fill:#566c6c"/></g><g id="ba621dc9-5ce0-4387-b99c-521c24013894" data-name="Group 332"><path id="e649818d-562b-4128-ba15-d8e897a9b972" data-name="Path 512" d="M92.15,220.64a13.15,13.15,0,0,0,9,8.11,8.28,8.28,0,0,0-1.42,1.94,14.63,14.63,0,0,1-9.05-8.35c-1.13,3.16-3.64,6.25-9,8.37a7.46,7.46,0,0,0-1.38-1.78c5.51-2.12,7.72-5.26,8.58-8.29H81V218.5h8.34a20.07,20.07,0,0,0,.11-2.19v-2.46H81.77v-2.17H99.49v2.17h-7.9v2.48c0,.68,0,1.43-.09,2.17h8.92v2.15Z" transform="translate(-4.5 -25.45)" style="fill:#768e91"/><path id="ae75ca09-75a3-4017-952e-16b14be8475e" data-name="Path 513" d="M113.9,213.82v3.82l.38-.45a53.66,53.66,0,0,1,7.86,4.6l-1.53,1.92a49.84,49.84,0,0,0-6.71-4.33v11.36h-2.24V213.82h-8.37v-2.14h19.94v2.15Z" transform="translate(-4.5 -25.45)" style="fill:#768e91"/><path id="aa3ce97a-bd55-4164-81da-36b637a58c0f" data-name="Path 514" d="M132.21,223.76c0-.34-.13-.7-.22-1.13-4.66.68-5.4.86-5.85,1.1-.18-.64-.39-1.27-.63-1.9.5-.11,1-.65,1.67-1.46a22.83,22.83,0,0,0,1.64-2.26,12,12,0,0,0-2.84.52c-.17-.61-.38-1.21-.61-1.81.41-.09.77-.54,1.24-1.21a26.26,26.26,0,0,0,2.82-5.6l1.88.76a35.69,35.69,0,0,1-3.3,5.72l2-.16a27.8,27.8,0,0,0,1.59-2.94l1.76,1a42.85,42.85,0,0,1-4.81,7l3-.38c-.2-.68-.43-1.38-.67-2l1.55-.42a33.41,33.41,0,0,1,1.46,4.58Zm-4.06,1.1a28.53,28.53,0,0,1-1.11,5.65,8,8,0,0,0-1.65-.63,22.87,22.87,0,0,0,1-5.31Zm2.23-.31a40.58,40.58,0,0,1,.61,4.67l-1.64.34a44,44,0,0,0-.55-4.72Zm2.13-.63a27.1,27.1,0,0,1,1.1,3.63l-1.51.52a29.9,29.9,0,0,0-1-3.7Zm13.59,4.42v1.92H133.3v-1.92h5.42v-3.79h-4.29v-1.88H145.2v1.88h-4.38v3.79Zm-9.8-6.25a22.68,22.68,0,0,0-2.67-4.43,34.07,34.07,0,0,0,2.35-4.11l1.8.45c-.61,1.16-1.46,2.53-2.19,3.62a26.36,26.36,0,0,1,2.42,3.75Zm9.55-9.1H133.91v-1.88h11.94Zm-4.25,1a41.38,41.38,0,0,1-2.21,3.57,23.28,23.28,0,0,1,2.46,3.67l-1.67.75a22,22,0,0,0-2.8-4.38,34,34,0,0,0,2.42-4.06Zm2.53,8.06a22,22,0,0,0-3-4.43,35.66,35.66,0,0,0,2.49-4.11l1.82.48c-.67,1.15-1.53,2.5-2.28,3.59a23.84,23.84,0,0,1,2.62,3.68Z" transform="translate(-4.5 -25.45)" style="fill:#768e91"/><path id="bcdd1a5b-19e6-4485-b973-cb3c174ab55c" data-name="Path 515" d="M151.29,220.33a20.15,20.15,0,0,0-3.38-2.58l1-1.24a20.66,20.66,0,0,1,3.46,2.42Zm-3.11,9.1c.81-1.7,2-4.56,2.86-7l1.36,1c-.77,2.3-1.78,5-2.67,7Zm3.59-15a20,20,0,0,0-3.25-3l1.1-1.2a19.73,19.73,0,0,1,3.32,2.87Zm12.62,6.77h2v9.55h-2v-3.32h-7.81a6.21,6.21,0,0,1-2.44,3.35,8.5,8.5,0,0,0-1.56-1.11,6.39,6.39,0,0,0,2.53-5.53v-2.93h2v1.35h7.32Zm-8.22-4.4a6.13,6.13,0,0,1-2.57,4.45,4,4,0,0,0-.86-1.1,4.61,4.61,0,0,0,2-3.35H153.6v-1.37h5.05v.61c-.09,2.77-.15,3.9-.5,4.31a1.2,1.2,0,0,1-.94.48,10.44,10.44,0,0,1-1.25,0,3.71,3.71,0,0,0-.36-1.35,6.32,6.32,0,0,0,1,.06.46.46,0,0,0,.39-.18,8.71,8.71,0,0,0,.25-2.6Zm3.23-2.95h-5.92v-1.7h6.23a16.11,16.11,0,0,0-.47-2l1.94-.25a14,14,0,0,1,.61,2.28h6.64v1.7h-6.08l1.29.43c-.7.74-1.49,1.51-2.19,2.12h0v4.67h-1.55v-4.65h0l0,0a19.16,19.16,0,0,0,2.21-2.55h-2.69a6.35,6.35,0,0,1,1,1.73l-1.2.57a7.83,7.83,0,0,0-.93-1.85Zm5,11.92v-1.56h-7.32a13.6,13.6,0,0,1-.09,1.56Zm3.39-10.16q-.65.33-1.38.63a6.85,6.85,0,0,0,2.21,3.68,4.27,4.27,0,0,0-.93,1.06,8.32,8.32,0,0,1-2.34-4.38l-1.09.29v2.51l1.49-.43c0,.34.16.86.2,1.1a13.83,13.83,0,0,0-2.89,1.15v0a5.64,5.64,0,0,0-.63-1.28c.25-.16.54-.54.54-1.42v-2.49h0l0,0a13.89,13.89,0,0,0,3.57-1.4Z" transform="translate(-4.5 -25.45)" style="fill:#768e91"/><path id="b11cd61a-43f7-44eb-b88e-a16e50f14ef9" data-name="Path 516" d="M177.67,215.49h-7v-1.67h3.47a19.25,19.25,0,0,0-1.62-3l1.62-.84a21.32,21.32,0,0,1,1.72,3l-1.67.93h3.48Zm-.5,14H173v1h-1.71v-7.64h5.85Zm-.12-11h-5.6v-1.65h5.6Zm-5.6,1.36h5.6v1.6h-5.6Zm1.58,4.71v3.23h2.42v-3.22ZM185.81,211a7.31,7.31,0,0,1-.43.7,13.78,13.78,0,0,0,6.19,4.7,9.29,9.29,0,0,0-1.47,1.9,13.89,13.89,0,0,1-2-1.17v.88h-7.57v-1a20.32,20.32,0,0,1-2.25,1.54,8,8,0,0,0-1.25-2,17.3,17.3,0,0,0,7.2-6.7ZM190,228.7c0,.81-.11,1.33-.56,1.6a3.67,3.67,0,0,1-2,.34,6.46,6.46,0,0,0-.45-1.74c.47,0,.92,0,1.08,0s.23-.06.23-.24v-2.82h-1.72v4.35h-1.49v-4.35h-1.63v4.35H182v-4.35h-1.6v5h-1.71V219.7H190Zm-8-4.58v-2.69h-1.6v2.69Zm4.93-7.86a15.29,15.29,0,0,1-2.64-2.93,21.56,21.56,0,0,1-2.8,2.93Zm-1.81,7.86v-2.69h-1.62v2.69Zm3.21,0v-2.69h-1.72v2.69Z" transform="translate(-4.5 -25.45)" style="fill:#768e91"/><path id="ebcf5c5e-8526-4cfd-9e0b-8f0d41ce4760" data-name="Path 517" d="M200.25,225.34c-2.22.9-4.57,1.9-6.44,2.62l-.7-2.15c.77-.24,1.69-.56,2.69-.9v-7.45h-2.3v-2h2.3V210.3h2v5.17h1.83v2h-1.83v6.73l2.08-.75Zm13.5,3.39v1.6h-15.1v-1.6Zm-.16-15.2H199.21v-1.59h6.07a10.62,10.62,0,0,0-.93-1.4l1.7-.78a8.7,8.7,0,0,1,1.42,2.18h6.12Zm-1,7.9H200.27v-7.09h12.32Zm-11.65,6.43v-5.62h10.82v5.62Zm9.85-12.24H202v4.52h8.8Zm-7.93,8.85h6.89v-1h-6.89Zm0,2.19h6.89v-1h-6.89Zm6.57-7.29h-6.14v-2.93h6.14ZM208,217.43h-3.28v.95H208Z" transform="translate(-4.5 -25.45)" style="fill:#768e91"/><path id="fecca3e3-28b3-4ba7-b605-2e04634a68de" data-name="Path 518" d="M221.22,220.73c0-5.41,3.3-8.67,7.5-8.67a6.41,6.41,0,0,1,4.72,2.1L232,215.83a4.42,4.42,0,0,0-3.25-1.49c-2.87,0-4.86,2.4-4.86,6.3s1.86,6.37,4.79,6.37a4.85,4.85,0,0,0,3.68-1.76l1.4,1.65a6.57,6.57,0,0,1-5.17,2.39C224.43,229.29,221.22,226.18,221.22,220.73Z" transform="translate(-4.5 -25.45)" style="fill:#768e91"/><path id="a066d9f0-9b24-40c2-ac62-424511c2f770" data-name="Path 519" d="M234.89,212.38h2.71l1.55,8.65.88,5.33h.09q.56-2.69,1.13-5.33l2.15-8.65h2.3l2.16,8.65c.39,1.74.75,3.52,1.13,5.33h.12c.27-1.81.56-3.59.83-5.33l1.58-8.65H254L250.75,229h-3.23l-2.23-9.24c-.3-1.31-.54-2.55-.77-3.81h-.11c-.23,1.26-.5,2.5-.77,3.81L241.45,229h-3.16Z" transform="translate(-4.5 -25.45)" style="fill:#768e91"/><path id="aa61d94d-e11c-42ab-be1c-dce8d5b1b791" data-name="Path 520" d="M256.77,212.38h9.82v2.19h-7.2v4.63h6.1v2.21h-6.1v5.37h7.45V229H256.77Z" transform="translate(-4.5 -25.45)" style="fill:#768e91"/><path id="b50ac832-186e-4e32-964a-9a993c5a1d8e" data-name="Path 521" d="M270.31,212.38h9.85v2.19h-7.23v5.08h6.14v2.19h-6.14V229h-2.62Z" transform="translate(-4.5 -25.45)" style="fill:#768e91"/><path id="f993f09e-c98d-4e71-8c06-272835086726" data-name="Path 522" d="M299.69,224.05a12,12,0,0,1-4.58,3.82,44,44,0,0,0,7.33.95,8.07,8.07,0,0,0-1,1.67,36.77,36.77,0,0,1-8.83-1.56,41.1,41.1,0,0,1-9.12,1.83,6.18,6.18,0,0,0-.75-1.63,41.24,41.24,0,0,0,7.41-1.15,16,16,0,0,1-3-1.87,22.28,22.28,0,0,1-3,1.67,5.76,5.76,0,0,0-1.31-1.43,19,19,0,0,0,2.91-1.49,10.64,10.64,0,0,1-1.17-1.42l1.53-.63a5.89,5.89,0,0,0,.93,1.13,10.24,10.24,0,0,0,1.62-1.67h-3.91v-8.43h5.85c.09-.36.16-.74.25-1.1h-8.17V211h19v1.72h-8.56c-.15.4-.29.76-.43,1.1h6.94v8.42H291c-.27.36-.52.7-.81,1.06h7.86l.36-.09Zm-12.89-7.83h10.77v-1.11H286.8Zm0,2.39h10.77v-1.12H286.8Zm0,2.4h10.77v-1.13H286.8Zm1.62,4.11a15.74,15.74,0,0,0,4.2,2,13,13,0,0,0,4-2.35h-7.83Z" transform="translate(-4.5 -25.45)" style="fill:#768e91"/><path id="ac8327e4-1e55-47ef-b2c7-62364eb45314" data-name="Path 523" d="M313.69,216.8a21.9,21.9,0,0,1-8,5,8.14,8.14,0,0,0-1.33-1.6,21.41,21.41,0,0,0,7.18-3.77h-6.61v-1.79h8.78v-1.85c-2.33.18-4.72.3-6.91.34a6.38,6.38,0,0,0-.47-1.67,85.83,85.83,0,0,0,14.4-1.36l1.74,1.49a50.7,50.7,0,0,1-6.7,1v2h8.93v1.79h-6.16a49.25,49.25,0,0,1,6.62,4.38l-1.36,1.46a59,59,0,0,0-8-5.44v3.05h-2.06Zm2.17,7.73h8.85v1.8h-8.85v2.24c0,1.1-.27,1.6-1.13,1.9a16.59,16.59,0,0,1-4.16.27,8,8,0,0,0-.72-1.83c1.49.05,3,.05,3.41,0s.54-.11.54-.4v-2.19h-8.92v-1.81h8.92v-1.29a24.21,24.21,0,0,0,2.62-1.11h-7.7v-1.64H319l.45-.12,1.29,1.11a22.63,22.63,0,0,1-4.85,2.6Z" transform="translate(-4.5 -25.45)" style="fill:#768e91"/><path id="b02a2076-53f6-40d1-a082-02d5b1b897c7" data-name="Path 524" d="M334.24,223.6c-2.26,1.15-4.7,2.37-6.6,3.27l-.81-2.1c.81-.31,1.83-.74,2.94-1.22v-6.72h-2.49v-2h2.49v-4.57h1.94v4.57H334v2h-2.28v5.87l2.08-.94Zm4.38-2.66a10.47,10.47,0,0,1-.84,1.35h9.44s0,.52-.05.79c-.36,4.52-.7,6.28-1.31,7a2,2,0,0,1-1.35.63,18.94,18.94,0,0,1-2.26,0,4,4,0,0,0-.47-1.69,17.14,17.14,0,0,0,1.76.09c.34,0,.52,0,.7-.25.34-.39.63-1.67.9-4.85h-1.36a15.66,15.66,0,0,1-4.53,6.86,7,7,0,0,0-1.52-1.18A13,13,0,0,0,342,224h-1.78a17.35,17.35,0,0,1-5.38,5.89,5.66,5.66,0,0,0-1.4-1.27,14.48,14.48,0,0,0,4.88-4.62h-1.9a15.58,15.58,0,0,1-2.78,2.41,11.79,11.79,0,0,0-1.42-1.31,12.12,12.12,0,0,0,4.27-4.15h-2.89v-1.79h14.11v1.79Zm7.54-2.87H335.73v-7.41h10.43Zm-1.94-5.89h-6.59v1.46h6.59Zm0,2.89h-6.59v1.49h6.59Z" transform="translate(-4.5 -25.45)" style="fill:#768e91"/></g><g id="e1bde96b-4a87-4985-a6c9-8e5b9ee47034" data-name="Group 333"><path id="a45b174e-1990-4912-8065-c8d5f1bad6c2" data-name="Path 525" d="M652.92,224.87a5.09,5.09,0,0,1,3-4.48v-.11a4.68,4.68,0,0,1-2.24-3.88c0-2.6,2-4.29,4.74-4.29,2.89,0,4.7,1.8,4.7,4.4a5.14,5.14,0,0,1-2.19,3.9v.12a4.85,4.85,0,0,1,2.8,4.4c0,2.46-2.17,4.36-5.37,4.36S652.92,227.44,652.92,224.87Zm8.33,0c0-2-1.83-2.8-4.09-3.73a4.25,4.25,0,0,0-1.94,3.48,2.92,2.92,0,0,0,3,2.81h.15a2.57,2.57,0,0,0,2.85-2.27A2.64,2.64,0,0,0,661.25,224.87Zm-.34-8.2a2.47,2.47,0,0,0-2.23-2.68,1.71,1.71,0,0,0-.32,0,2.26,2.26,0,0,0-2.37,2.17,1,1,0,0,0,0,.24c0,1.81,1.58,2.65,3.43,3.37a4.24,4.24,0,0,0,1.49-3.09Z" transform="translate(-4.5 -25.45)" style="fill:#768e91"/><path id="b8984c84-4c5a-4437-a00d-70dd8e86df1e" data-name="Path 526" d="M683.37,227.93c0,1.36-.36,2-1.26,2.35a14.85,14.85,0,0,1-4.83.43,8.85,8.85,0,0,0-.9-2.21c1.76.09,3.56.07,4.11,0s.67-.18.67-.65v-3.95H670.92a12.5,12.5,0,0,1-3.87,6.86,7.74,7.74,0,0,0-1.6-1.53c3.53-3,3.86-7.45,3.86-11v-7.09h14.07Zm-2.21-6v-3.35h-9.7a28.82,28.82,0,0,1-.2,3.35Zm-9.7-8.7v3.35h9.71v-3.34Z" transform="translate(-4.5 -25.45)" style="fill:#768e91"/></g><g id="b23fc367-f9c7-4d93-abe8-28516b31be5c" data-name="Group 334"><path id="b798695b-833b-4040-b84a-7ffdb60e8e71" data-name="Path 527" d="M171.48,296.44c0-5.41,3.3-8.67,7.5-8.67a6.42,6.42,0,0,1,4.72,2.1l-1.42,1.67a4.46,4.46,0,0,0-3.26-1.49c-2.86,0-4.85,2.4-4.85,6.3s1.85,6.37,4.79,6.37a4.87,4.87,0,0,0,3.68-1.76l1.4,1.65a6.58,6.58,0,0,1-5.17,2.39C174.69,305,171.48,301.89,171.48,296.44Z" transform="translate(-4.5 -25.45)" style="fill:#566c6c"/><path id="ea3c72a2-5c87-4d6e-8cf2-b6ca9e2e3d1a" data-name="Path 528" d="M185.16,302.56l1.54-1.8a6.43,6.43,0,0,0,4.42,2c2,0,3.14-1,3.14-2.35s-1.13-2-2.66-2.66l-2.3-1c-1.6-.67-3.39-1.94-3.39-4.35,0-2.62,2.3-4.59,5.46-4.59a7.16,7.16,0,0,1,5,2.1L195,291.54a5.3,5.3,0,0,0-3.65-1.49c-1.7,0-2.8.82-2.8,2.15s1.33,2,2.68,2.51l2.28,1c2,.83,3.39,2.05,3.39,4.49,0,2.66-2.21,4.83-5.85,4.83A8.32,8.32,0,0,1,185.16,302.56Z" transform="translate(-4.5 -25.45)" style="fill:#566c6c"/><path id="abaef75a-31a0-47aa-8ad7-dcd278d856ce" data-name="Path 529" d="M209.15,304.71,205.37,298h-2.68v6.71h-2.62V288.09h5.44c3.43,0,6,1.22,6,4.81a4.61,4.61,0,0,1-3.47,4.76l4.06,7Zm-6.46-8.81h2.5c2.42,0,3.73-1,3.73-3s-1.31-2.71-3.73-2.71h-2.5Z" transform="translate(-4.5 -25.45)" style="fill:#566c6c"/><path id="f78c6287-0154-480e-8673-c329d539bfd9" data-name="Path 530" d="M231.83,304.41c.61,0,.75-.36.82-2.68a5.65,5.65,0,0,0,1.71.74c-.18,2.91-.67,3.66-2.34,3.66h-2.69c-2,0-2.49-.54-2.49-2.42v-2.3a10.62,10.62,0,0,1-6.1,5.1,4.88,4.88,0,0,0-1.2-1.58c3.93-1.4,5.63-3.68,6.42-6.52h-4.11v-4.9l-.12.11a6,6,0,0,0-1.2-1.31v9.89h-4.31v1.72h-1.83V287.39h6.14V292a15.41,15.41,0,0,0,4-6.14l2.08.31c-.18.5-.41,1-.63,1.52h4.24l.37-.09,1.55.52a36.18,36.18,0,0,1-2.32,3.43h3.3v6.91h-4.33v5.28c0,.66.11.72.83.72Zm-15.6-15.15v4.52h2.49v-4.52Zm2.49,11.05v-4.7h-2.49v4.7Zm6.39-11a18,18,0,0,1-1.4,2.15h3.79a20.66,20.66,0,0,0,1.56-2.15Zm1.22,7.41c.17-1.2.29-2.4.34-3.61h-2.94v3.61Zm4.83-3.61h-2.57c-.06,1.21-.17,2.41-.34,3.61h2.91Z" transform="translate(-4.5 -25.45)" style="fill:#566c6c"/><path id="be6fd311-6ad4-49be-8c9b-128676855b2f" data-name="Path 531" d="M251.52,301a9.45,9.45,0,0,1-2.39,2.33c2.71.61,5.17,1.26,7,1.85l-1.76,1.31a63.19,63.19,0,0,0-7.27-2,30.48,30.48,0,0,1-9.62,2.05,5.17,5.17,0,0,0-.81-1.69,36.49,36.49,0,0,0,7.2-1.06c-1.44-.29-3-.59-4.47-.86a22.85,22.85,0,0,0,1.78-1.9h-4.65v-1.65h6a23.27,23.27,0,0,0,1.37-2l2,.57c-.3.5-.66,1-1,1.46h5.33a6.6,6.6,0,0,0,.54-1.06l1.94.57c-.07.16-.16.34-.22.5h3.86V301Zm-12.6-9.14h-2v-4.31h8.65a8.71,8.71,0,0,0-.7-1.4l2.08-.41a11.24,11.24,0,0,1,1,1.81h8.29v4.31h-2.1v-2.6H238.92Zm13.8,5.46H240.3v-6.75h12.42ZM250.67,292h-8.38v1.32h8.38Zm0,2.62h-8.38V296h8.38Zm-7,6.41c-.32.36-.64.7-.9,1,1.26.23,2.55.48,3.79.73A9.2,9.2,0,0,0,249,301Z" transform="translate(-4.5 -25.45)" style="fill:#566c6c"/></g><g id="ef2a3f0c-5f9d-4c91-80f7-f4094c5a2aea" data-name="Group 335"><path id="a2b9186a-4167-4b4b-a3f0-218e074d10cb" data-name="Path 532" d="M654.52,301.64a3.72,3.72,0,0,0,2.73,1.24c2,0,3.75-1.63,3.91-6.37a5,5,0,0,1-3.66,1.94c-2.78,0-4.65-1.74-4.65-5.21,0-3.3,2.26-5.47,4.94-5.47,3.19,0,5.76,2.58,5.76,8.06,0,6.55-3,9.17-6.19,9.17a5.65,5.65,0,0,1-4.24-1.76Zm6.59-7.09c-.24-3.28-1.49-4.77-3.3-4.77-1.42,0-2.55,1.29-2.55,3.46s1,3.34,2.69,3.34a4,4,0,0,0,3.16-2Z" transform="translate(-4.5 -25.45)" style="fill:#566c6c"/><path id="e180a3fd-6017-43f2-a54e-ebf763faeae7" data-name="Path 533" d="M683.37,303.65c0,1.35-.36,2-1.26,2.34a14.85,14.85,0,0,1-4.83.43,8.85,8.85,0,0,0-.9-2.21c1.76.09,3.56.07,4.11,0s.67-.18.67-.65v-4H670.92a12.5,12.5,0,0,1-3.87,6.86,7.74,7.74,0,0,0-1.6-1.53c3.53-3,3.86-7.45,3.86-11v-7.09h14.07Zm-2.21-6v-3.35h-9.7a28.82,28.82,0,0,1-.2,3.35Zm-9.7-8.7v3.35h9.71v-3.34Z" transform="translate(-4.5 -25.45)" style="fill:#566c6c"/></g><g id="b65dcd0d-bae6-4a91-aa16-55b7ab2a525f" data-name="Group 336"><path id="ec615ec9-277c-4062-a860-fdd528302e76" data-name="Path 534" d="M62.29,372.06a13.12,13.12,0,0,0,9,8.11,7.94,7.94,0,0,0-1.42,1.94,14.63,14.63,0,0,1-9.05-8.35c-1.13,3.16-3.64,6.25-9,8.37a7.42,7.42,0,0,0-1.37-1.78c5.51-2.12,7.72-5.26,8.58-8.29H51.09v-2.14h8.33a17.85,17.85,0,0,0,.11-2.19v-2.46H51.9V363.1H69.63v2.17h-7.9v2.49c0,.67,0,1.42-.09,2.16h8.91v2.15Z" transform="translate(-4.5 -25.45)" style="fill:#768e91"/><path id="e47a048b-7a58-4467-88fe-a51f27fde05f" data-name="Path 535" d="M84,365.24v3.82l.38-.45a53.66,53.66,0,0,1,7.86,4.6l-1.54,1.92A49.11,49.11,0,0,0,84,370.8v11.36H81.8V365.24H73.42V363.1H93.36v2.15Z" transform="translate(-4.5 -25.45)" style="fill:#768e91"/><path id="b8f03ad1-7ccd-4b06-9767-7420b6bbeed9" data-name="Path 536" d="M103.59,370.93a16.19,16.19,0,0,1-6.41,9.89,9.62,9.62,0,0,0-1.67-1.58,13.06,13.06,0,0,0,5.41-6.84H96v-2h5.82l.36-.07Zm12.08-1.83a53.42,53.42,0,0,1-5.73,4.68,13.82,13.82,0,0,0,6.52,5.19,10,10,0,0,0-1.47,1.85,15.72,15.72,0,0,1-7.81-7.87v6.7c0,1.2-.27,1.81-1.08,2.15a11.27,11.27,0,0,1-4,.38,7.51,7.51,0,0,0-.74-2.1c1.24,0,2.62,0,3,0s.52-.13.52-.51V368.05H99v-2h8.21v1.8a22.72,22.72,0,0,0,1.77,4.34,34.49,34.49,0,0,0,4.81-4.47Zm-6.55-2.77a38.73,38.73,0,0,0-8.22-3.07l1-1.74a38.67,38.67,0,0,1,8.29,2.84Z" transform="translate(-4.5 -25.45)" style="fill:#768e91"/><path id="bfc7e6e5-20aa-442d-be14-db19375adf57" data-name="Path 537" d="M120.75,376.29a30.71,30.71,0,0,1-1.1,5.78,8.93,8.93,0,0,0-1.58-.54,26,26,0,0,0,1-5.54Zm3.66-.93c0-.36-.13-.77-.23-1.24-4.22.63-4.9.79-5.35,1a11.46,11.46,0,0,0-.58-1.74c.47-.13.94-.68,1.6-1.54a26.21,26.21,0,0,0,1.57-2.32,10.75,10.75,0,0,0-2.75.5,15.17,15.17,0,0,0-.59-1.72c.41-.09.75-.54,1.18-1.24a27.2,27.2,0,0,0,2.6-5.67l1.76.73a35.39,35.39,0,0,1-3,5.8l1.9-.16c.52-1,1.06-2,1.51-3.05l1.63.95a42.37,42.37,0,0,1-4.57,7.18l2.76-.36c-.18-.68-.38-1.38-.59-2l1.45-.38a34.86,34.86,0,0,1,1.24,4.72Zm-1.65.59a45,45,0,0,1,.59,5.17l-1.56.3a43.45,43.45,0,0,0-.47-5.22Zm2-.57a37,37,0,0,1,1.17,4.11l-1.42.46a33.41,33.41,0,0,0-1.11-4.18Zm9.71,3.57c1.6.57,3.3,1.24,4.4,1.74l-.86,1.49c-1.2-.56-3.09-1.42-4.79-2.05l.68-1.18h-3.66l1.24,1.15c-1.71.79-3.9,1.63-5.48,2.22a8.64,8.64,0,0,0-.79-1.47,40.55,40.55,0,0,0,4.58-1.9h-3.3v-6.64h11.2V379ZM131.16,364h-5.55v-1.43h5.55v-1.1h2.06v1.1h5.28V364h-5.28v1h4.49v1.35H126.49V365h4.67Zm-5.44,3.11h12.69v4.34H125.72Zm1.74,3h2.12v-1.62h-2.12Zm.88,4.2h7.38v-.81h-7.38Zm0,1.72h7.38v-.84h-7.38Zm0,1.78h7.38v-.9h-7.38Zm4.81-7.7v-1.63h-2v1.63Zm3.43-1.63h-1.83v1.63h1.83Z" transform="translate(-4.5 -25.45)" style="fill:#768e91"/><path id="bb58881f-72b2-40ae-b3d9-15e1c5954307" data-name="Path 538" d="M161.3,377.21h-7.92v5h-2.17v-5H140.94v-2h3.63v-6h6.64V366.1H146a20.29,20.29,0,0,1-3.25,4.29A17.26,17.26,0,0,0,141,369a18.3,18.3,0,0,0,4.92-7.66L148,362c-.27.7-.59,1.44-.88,2.12H160.2v2h-6.82v3.12h6.3v2h-6.3v4h7.92Zm-10.09-2v-4h-4.54v4Z" transform="translate(-4.5 -25.45)" style="fill:#768e91"/><path id="bc128c50-5b64-468e-b931-e5ed01e4efed" data-name="Path 539" d="M167.29,369.6c0,3.66-.27,9-2.14,12.58a9.37,9.37,0,0,0-1.9-.95c1.8-3.39,2-8.24,2-11.63v-6h8.52a16.88,16.88,0,0,0-.75-1.74l2.1-.5a18.79,18.79,0,0,1,1,2.23h7.63v1.94H167.29ZM182.17,375a10.66,10.66,0,0,1-4.36,4.29,29.78,29.78,0,0,0,6.28,1.13,9.12,9.12,0,0,0-1.22,1.81,26.76,26.76,0,0,1-7.47-1.81,32.29,32.29,0,0,1-7.57,1.7,6.29,6.29,0,0,0-.86-1.79,30.83,30.83,0,0,0,6.19-1.06,11.89,11.89,0,0,1-3.25-2.87l.88-.33h-2.73v-1.67H180.5l.36-.07Zm-11-1.8v-3.62h-3.34v-1.69h3.34V366.1h2v1.74H178V366.1h2v1.74h3.45v1.7h-3.45v3.61ZM172,376a10.62,10.62,0,0,0,3.46,2.39,10.89,10.89,0,0,0,3.56-2.39Zm1.11-6.49v2H178v-2Z" transform="translate(-4.5 -25.45)" style="fill:#768e91"/><path id="bb456294-07d7-4256-a790-23918ed6550f" data-name="Path 540" d="M204.48,364.93v17.18h-2.21v-1.49h-12v1.58h-2.1V364.93h5.56a25.59,25.59,0,0,0,1.1-3.55l2.69.43c-.45,1.06-.95,2.17-1.42,3.12ZM190.23,367v4.63h12V367Zm12,11.49v-4.79h-12v4.79Z" transform="translate(-4.5 -25.45)" style="fill:#768e91"/><path id="e5b06214-a321-419a-b3a0-a105cab2b68f" data-name="Path 541" d="M227.08,370.89a15.53,15.53,0,0,1-4.83,7.09,21.17,21.17,0,0,0,7,2.32,10.21,10.21,0,0,0-1.34,2,20.81,20.81,0,0,1-7.5-3,24.24,24.24,0,0,1-7.2,2.85,6.55,6.55,0,0,0-1.22-1.94,24.15,24.15,0,0,0,6.67-2.28,17,17,0,0,1-4.05-5.78h-1.69c-.18,3.27-.84,7.2-2.91,9.93a8,8,0,0,0-1.72-1.35c2.35-3.12,2.57-7.59,2.57-10.82v-5.51h7.59v-3h2.15v3h6l.37-.09,1.62.41a33.79,33.79,0,0,1-2,4.85l-1.94-.54a20.62,20.62,0,0,0,1.08-2.62h-5.12v3.77h4.74l.38-.06ZM213,370.21h5.46v-3.77H213Zm3.81,2a14.17,14.17,0,0,0,3.7,4.58,12.57,12.57,0,0,0,3.77-4.58Z" transform="translate(-4.5 -25.45)" style="fill:#768e91"/><path id="aa03ed0d-c457-4665-9a68-fd98e85950f3" data-name="Path 542" d="M251.45,372.74v1.51h-20v-1.51h8.85v-1.08H233V370.3h7.29v-1h-6.75v-1.33h6.75v-1.1h-8.82v-1.52h8.82v-1.08h-6.48v-1.29h6.48v-1.53h2.13v1.53h6.34v2.37h2.66v1.52h-2.66v2.43h-6.34v1h7.45v1.36h-7.45v1.08Zm-17.16,2.44h14.58v7h-2.12v-.65H236.34v.68h-2.05Zm2.05,1.35v1.13h10.41v-1.13Zm10.41,3.64V379H236.34v1.2Zm-4.33-14.86h4.26v-1.08h-4.26Zm0,2.62h4.26v-1.1h-4.26Z" transform="translate(-4.5 -25.45)" style="fill:#768e91"/><path id="b5658022-0aae-4417-9cef-c2963cf17ffc" data-name="Path 543" d="M258.17,373h-4.58v-1.9h4.58v-4.88h2v4.88h4.58V373h-4.58v4.88h-2Z" transform="translate(-4.5 -25.45)" style="fill:#768e91"/><path id="b8d9b349-4346-4637-be80-0fff014f3ef0" data-name="Path 544" d="M280.57,363.8a39.7,39.7,0,0,1,5.94,6.55l-1.76,1.31a18.2,18.2,0,0,0-1.31-1.85c-12.41.65-13.86.7-14.88,1.06a18.18,18.18,0,0,0-.67-2.05,4.21,4.21,0,0,0,1.85-1.29,36.3,36.3,0,0,0,5-6.26l2.1.9a44.54,44.54,0,0,1-5.4,6.23l10.5-.42c-1-1.09-2-2.17-3-3.08Zm-11,8.78h14.63v9.58H282V381H271.71v1.2h-2.13Zm2.12,2V379H282v-4.38Z" transform="translate(-4.5 -25.45)" style="fill:#768e91"/><path id="acf96fef-cb2e-4184-8ec7-1968403bbed6" data-name="Path 545" d="M296.31,375.29a26.66,26.66,0,0,0-1.64-2.44v9.3h-2v-9a23.65,23.65,0,0,1-2.8,5.1,12.45,12.45,0,0,0-1-1.94,23.18,23.18,0,0,0,3.67-6.75h-3.09v-2h3.25v-3c-1,.18-1.94.32-2.84.43a6.75,6.75,0,0,0-.61-1.62,32,32,0,0,0,6.82-1.65l1.44,1.6a23.87,23.87,0,0,1-2.77.83v3.44H297v-.39h5.3v-1H298.1V365h4.15v-1h-4.6v-1.36h4.6v-1.15h2.1v1.15h4.9V364h-4.9v1h4.36v1.31h-4.36v1h5.42v1.38H297.08v1h-2.41v1.1c.74.66,2.46,2.44,2.86,2.94Zm12.26,3.3h-7.51l1.55,1a18.85,18.85,0,0,1-5.37,2.71,10.68,10.68,0,0,0-1.33-1.36,15.41,15.41,0,0,0,4.9-2.35h-2.4v-9h10.16Zm-2-7.63h-6.3v1.22h6.3Zm0,2.51h-6.3v1.23h6.3Zm0,2.53h-6.3v1.24h6.3Zm-.86,2.6c1.49.85,3.23,1.92,4.27,2.61l-1.83,1c-.88-.68-2.46-1.76-3.84-2.62Z" transform="translate(-4.5 -25.45)" style="fill:#768e91"/><path id="a193787e-f75b-43fb-81f6-83e297f87fcc" data-name="Path 546" d="M314.42,369.9h-2V365H321v-1.2h-7.54v-1.46h17.23v1.47H323V365h8.71v4.92h-2.1v-3.5H323v4.92H321V366.4h-6.52Zm14.8,10.36c1.15,0,1.37-.36,1.51-2.46a5.32,5.32,0,0,0,1.76.68c-.27,2.71-.86,3.43-3.14,3.43h-4.94c-2.78,0-3.55-.54-3.55-2.57v-.43h-4.42V380h-2V372h15.31v6.87h-6.87v.4c0,.79.27.95,1.67.95ZM314.59,370c1.42-.18,3.34-.48,5.35-.77l.06,1.24c-1.71.41-3.38.77-4.85,1Zm1.24-3.34a23.74,23.74,0,0,1,4.13,1.1l-.57,1.2a27.27,27.27,0,0,0-4.17-1.21Zm.61,6.89v1.28h4.42v-1.28Zm4.42,3.92v-1.31h-4.42v1.31Zm6.82-3.92h-4.81v1.28h4.81Zm0,3.92v-1.31h-4.81v1.31ZM329,371.5a35.33,35.33,0,0,0-5.24-1.25l.45-1.2a26.62,26.62,0,0,1,5.22,1.09Zm0-3.86a28.12,28.12,0,0,1-4.25,1.17l-.7-1c1.22-.29,3-.92,4.07-1.31Z" transform="translate(-4.5 -25.45)" style="fill:#768e91"/><path id="a906bda0-807e-4cb0-83d8-2025a952853a" data-name="Path 547" d="M353,371.14a8,8,0,0,0-.5-1c-2.3.18-3.58.27-4.38.36a24.11,24.11,0,0,0,7.16,3,9.61,9.61,0,0,0-1.33,1.65,22.55,22.55,0,0,1-9.51-5.49,20,20,0,0,1-9.05,5.65,10.69,10.69,0,0,0-1.17-1.65,19.36,19.36,0,0,0,6.75-3.21l-.07-.16c-3.91.23-4.58.32-5,.48a14.52,14.52,0,0,0-.65-1.7,1.67,1.67,0,0,0,.83-.56,10.72,10.72,0,0,0,1.76-2.46l1.87.79a15.4,15.4,0,0,1-1.67,2l2.15-.09c-.2-.34-.39-.63-.59-.92l1.49-.48a18.13,18.13,0,0,1,1.15,1.95A11.32,11.32,0,0,0,344,367l1.92.56c-.11.23-.25.46-.38.68a9.56,9.56,0,0,0,.9.9l-.07-.16a1.34,1.34,0,0,0,.72-.54,8,8,0,0,0,1.33-2.3l1.88.77a15.28,15.28,0,0,1-1.31,1.87l2.53-.13a11.79,11.79,0,0,0-.82-1l1.49-.63a14,14,0,0,1,2.4,3.41Zm-2.41-4.63a14,14,0,0,0-1-1c-10.06.43-11.2.41-12,.68a13.19,13.19,0,0,0-.59-1.74,4.56,4.56,0,0,0,1.43-.57,19.27,19.27,0,0,0,3.86-2.52l1.85.94a31.4,31.4,0,0,1-3.05,1.94l6.84-.2a22,22,0,0,0-1.85-1.37l1.56-.77a29.5,29.5,0,0,1,4.65,3.77Zm1.22,10.32c-2.85,3-8,4.6-13.71,5.4a5.32,5.32,0,0,0-1-1.7c5.44-.61,10.48-2,13-4.54Zm-2.67-2.28c-2.37,2-6.27,3.43-9.86,4.24a7.22,7.22,0,0,0-1.09-1.49c3.43-.65,7.32-1.92,9.35-3.54Zm-2.5-2.15a23.56,23.56,0,0,1-7.2,3.36,7.79,7.79,0,0,0-1.15-1.28,21.63,21.63,0,0,0,6.84-2.85Z" transform="translate(-4.5 -25.45)" style="fill:#768e91"/><path id="e26f226b-0f86-4505-b4a5-975f0a1ca8fc" data-name="Path 548" d="M365.12,366.92H357v-1.68h3.77a20.37,20.37,0,0,0-1.49-3l1.49-.84a20.37,20.37,0,0,1,1.56,3l-1.51.93h4.29Zm5.53.36c0,1-.09,2.05-.16,3h6s0,.64,0,.93c-.29,6.62-.54,9.08-1.22,9.91a2.14,2.14,0,0,1-1.58.84,24.12,24.12,0,0,1-2.82,0,5.46,5.46,0,0,0-.61-2,22.86,22.86,0,0,0,2.48.11.83.83,0,0,0,.82-.29c.43-.48.72-2.49.92-7.54h-4.13c-.47,4.06-1.65,7.63-4.79,10a5.5,5.5,0,0,0-1.31-1.45v.07h-4.67v1h-1.65v-7.64h6.32v6.46c4-2.87,4.34-8.06,4.45-13.46h-2.93v-2h5.19a26.71,26.71,0,0,0-.95-3.16l1.76-.5a20.35,20.35,0,0,1,1.18,3.56l-.3.09h4.79v2Zm-6.44,1v1.65h-6.32v-1.65Zm-6.32,3h6.34v1.62h-6.34Zm4.65,4.74h-3v3.23h3Z" transform="translate(-4.5 -25.45)" style="fill:#768e91"/></g><g id="ec78daaa-2780-4706-b87a-02b2da98f8a3" data-name="Group 337"><path id="b91e130b-ecdf-4fb8-8bf8-9f4e48f44034" data-name="Path 549" d="M647.39,378.28H651V366.72h-3v-1.65a10.11,10.11,0,0,0,3.61-1.27h2v14.48h3.25v2.14h-9.48Z" transform="translate(-4.5 -25.45)" style="fill:#768e91"/><path id="ff31a135-a8dd-421d-951e-28722a8a8aba" data-name="Path 550" d="M659.31,378.91c4.9-4.34,7.43-7.57,7.43-10.3,0-1.81-1-3.05-2.83-3.05a4.48,4.48,0,0,0-3.27,1.85L659.17,366a6.52,6.52,0,0,1,5.06-2.48,4.7,4.7,0,0,1,5,4.37,3.21,3.21,0,0,1,0,.62c0,3.21-2.55,6.53-6.07,9.89.86-.09,1.9-.16,2.71-.16H670v2.21H659.31Z" transform="translate(-4.5 -25.45)" style="fill:#768e91"/><path id="fb76a871-a5bb-41ea-a138-7b47839efa92" data-name="Path 551" d="M689.81,379.36c0,1.35-.36,2-1.26,2.34a14.85,14.85,0,0,1-4.83.43,8.85,8.85,0,0,0-.9-2.21c1.76.09,3.56.07,4.11,0s.67-.18.67-.65v-3.95H677.35a12.46,12.46,0,0,1-3.86,6.86,8,8,0,0,0-1.6-1.53c3.52-3,3.86-7.45,3.86-11V362.6h14.06Zm-2.21-6V370h-9.71a28.78,28.78,0,0,1-.2,3.34Zm-9.71-8.69V368h9.71v-3.34Z" transform="translate(-4.5 -25.45)" style="fill:#768e91"/></g><g id="e3daf201-7b55-4b22-b16d-5d8ec0fa1440" data-name="Group 338"><path id="b0710971-28a9-44b0-9d1c-7b3dfa827a0c" data-name="Path 552" d="M65.68,449.1a13.11,13.11,0,0,0,9,8.11,7.94,7.94,0,0,0-1.42,1.94,14.65,14.65,0,0,1-9.06-8.35c-1.13,3.16-3.63,6.25-9,8.37a7.42,7.42,0,0,0-1.37-1.78c5.5-2.12,7.72-5.26,8.57-8.29H54.48V447h8.33a17.85,17.85,0,0,0,.11-2.19v-2.46H55.29v-2.17H73v2.17h-7.9v2.48c0,.68,0,1.43-.1,2.17h8.92v2.15Z" transform="translate(-4.5 -25.45)" style="fill:#566c6c"/><path id="a03b2c29-f96c-4cb0-8bd9-eb2e669b8726" data-name="Path 553" d="M87.42,442.28v3.82l.39-.45a54.09,54.09,0,0,1,7.85,4.6l-1.53,1.92a49.84,49.84,0,0,0-6.71-4.33V459.2H85.18V442.28H76.81v-2.14H96.74v2.15Z" transform="translate(-4.5 -25.45)" style="fill:#566c6c"/><path id="eca53fa7-5187-43d0-9b7b-a39b9ac754a8" data-name="Path 554" d="M105.74,452.22c0-.34-.14-.7-.23-1.13-4.65.68-5.4.86-5.85,1.11a17.61,17.61,0,0,0-.63-1.9c.5-.12,1-.66,1.67-1.47a21.41,21.41,0,0,0,1.65-2.26,12,12,0,0,0-2.85.52,16.57,16.57,0,0,0-.61-1.8c.41-.1.77-.55,1.25-1.22a27.22,27.22,0,0,0,2.82-5.6l1.87.77a35.29,35.29,0,0,1-3.3,5.71l2-.16a30.66,30.66,0,0,0,1.58-2.93l1.76,1a41.23,41.23,0,0,1-4.81,7l3-.38c-.2-.68-.43-1.38-.68-2l1.56-.43a33.32,33.32,0,0,1,1.44,4.58Zm-4.07,1.11a29.3,29.3,0,0,1-1.1,5.64,8.91,8.91,0,0,0-1.65-.63,22.25,22.25,0,0,0,1-5.31Zm2.24-.32a43.23,43.23,0,0,1,.61,4.67l-1.65.34a41.57,41.57,0,0,0-.54-4.72Zm2.12-.63a27.1,27.1,0,0,1,1.1,3.63l-1.51.52a28.25,28.25,0,0,0-1-3.7Zm13.59,4.42v1.92h-12.8V456.8h5.42V453H108v-1.88h10.77V453h-4.38v3.79Zm-9.8-6.25a22.64,22.64,0,0,0-2.66-4.43A35.4,35.4,0,0,0,109.5,442l1.81.46c-.61,1.15-1.47,2.52-2.19,3.61a26.36,26.36,0,0,1,2.42,3.75Zm9.55-9.1H107.43v-1.87h11.94Zm-4.24,1c-.68,1.22-1.42,2.42-2.22,3.57a22.61,22.61,0,0,1,2.46,3.67l-1.67.75a21.71,21.71,0,0,0-2.8-4.38,33.19,33.19,0,0,0,2.42-4.06Zm2.52,8.06a22,22,0,0,0-3-4.43,33,33,0,0,0,2.49-4.11l1.83.48c-.68,1.15-1.54,2.5-2.28,3.59a23.78,23.78,0,0,1,2.61,3.68Z" transform="translate(-4.5 -25.45)" style="fill:#566c6c"/><path id="ead448a2-866b-4241-be49-2ec1f103afc3" data-name="Path 555" d="M124.82,448.79a20.22,20.22,0,0,0-3.39-2.58l1-1.24a21.18,21.18,0,0,1,3.45,2.42Zm-3.12,9.1c.81-1.7,2-4.56,2.87-7l1.35,1c-.76,2.3-1.78,5-2.66,7Zm3.59-14.95a20,20,0,0,0-3.25-3l1.11-1.2a19.27,19.27,0,0,1,3.31,2.87Zm12.62,6.77h2v9.55h-2V456H130.1a6.22,6.22,0,0,1-2.44,3.34,8.5,8.5,0,0,0-1.56-1.11,6.35,6.35,0,0,0,2.53-5.53v-2.93h2v1.35h7.31Zm-8.22-4.39a6.09,6.09,0,0,1-2.57,4.44,4,4,0,0,0-.86-1.1,4.58,4.58,0,0,0,2-3.34h-1.15v-1.38h5.06v.61c-.09,2.78-.16,3.9-.5,4.31a1.23,1.23,0,0,1-1,.48,10.28,10.28,0,0,1-1.24,0,3.92,3.92,0,0,0-.36-1.35,6.24,6.24,0,0,0,1,.06.43.43,0,0,0,.38-.17,8.45,8.45,0,0,0,.25-2.6Zm3.23-3H127v-1.7h6.23a16.11,16.11,0,0,0-.47-2l1.94-.25a14.23,14.23,0,0,1,.61,2.28H142v1.7h-6.08l1.29.43c-.7.74-1.49,1.51-2.19,2.12h0v4.67h-1.55v-4.65h0l0,0a18.55,18.55,0,0,0,2.21-2.55H133a6.5,6.5,0,0,1,1,1.73l-1.2.57a8,8,0,0,0-.93-1.85Zm5,11.92v-1.56H130.6a13.6,13.6,0,0,1-.09,1.56Zm3.39-10.16a13.61,13.61,0,0,1-1.38.63,6.87,6.87,0,0,0,2.22,3.68,4.27,4.27,0,0,0-.93,1.06,8.33,8.33,0,0,1-2.35-4.38c-.36.09-.72.2-1.08.3v2.5l1.49-.43c0,.34.15.86.2,1.1a12.94,12.94,0,0,0-2.89,1.16v0a5.68,5.68,0,0,0-.64-1.28c.25-.16.55-.54.55-1.42v-2.49h0l0,0a13.68,13.68,0,0,0,3.56-1.4Z" transform="translate(-4.5 -25.45)" style="fill:#566c6c"/><path id="e9dbcd89-be5e-4314-b3a5-08bf07abf5c2" data-name="Path 556" d="M151.19,444h-7v-1.67h3.48a19.79,19.79,0,0,0-1.63-3.05l1.63-.84a21.25,21.25,0,0,1,1.71,3l-1.67.93h3.48Zm-.5,14h-4.13v1h-1.72v-7.64h5.85Zm-.11-11H145v-1.65h5.6Zm-5.6,1.36h5.6v1.6H145Zm1.58,4.72v3.22H149V453Zm12.78-13.5c-.14.24-.27.45-.43.7a13.79,13.79,0,0,0,6.19,4.7,8.48,8.48,0,0,0-1.47,1.9,14.45,14.45,0,0,1-2.06-1.18v.88H154v-1a20.45,20.45,0,0,1-2.26,1.54,8,8,0,0,0-1.24-1.94,17.45,17.45,0,0,0,7.2-6.71Zm4.2,17.65c0,.82-.12,1.33-.57,1.6a3.66,3.66,0,0,1-2,.34,5.88,5.88,0,0,0-.45-1.74c.48,0,.93,0,1.09,0s.22-.07.22-.25v-2.82h-1.71v4.35h-1.49v-4.35H157v4.35H155.5v-4.35h-1.6v5h-1.72V448.16h11.36Zm-8-4.58v-2.69h-1.6v2.69Zm4.92-7.86a15.63,15.63,0,0,1-2.64-2.93,19.9,19.9,0,0,1-2.8,2.93Zm-1.81,7.86v-2.69H157v2.69Zm3.21,0v-2.69H160.1v2.69Z" transform="translate(-4.5 -25.45)" style="fill:#566c6c"/><path id="eb8005c1-a34c-4c26-9a51-fbcea253a7b9" data-name="Path 557" d="M173.77,453.8c-2.21.9-4.56,1.9-6.43,2.62l-.7-2.15c.76-.24,1.69-.56,2.68-.9v-7.45H167v-2h2.3v-5.17h2v5.17h1.83v2h-1.84v6.73l2.08-.75Zm13.5,3.39v1.6h-15.1v-1.6Zm-.16-15.2H172.73v-1.58h6.07a10.9,10.9,0,0,0-.92-1.4l1.69-.79a8.58,8.58,0,0,1,1.42,2.19h6.12Zm-1,7.9H173.79V442.8h12.33Zm-11.65,6.43V450.7h10.81v5.62Zm9.84-12.24h-8.8v4.52h8.8Zm-7.92,8.85h6.88v-1h-6.88Zm0,2.19h6.88v-1.05h-6.88Zm6.57-7.29h-6.14V444.9H183Zm-1.47-1.94h-3.27v.95h3.27Z" transform="translate(-4.5 -25.45)" style="fill:#566c6c"/><path id="ac8ee2ea-9e1f-4d95-ac3f-cc549b26cf12" data-name="Path 558" d="M189.67,449.19c0-5.41,3.3-8.67,7.5-8.67a6.42,6.42,0,0,1,4.72,2.1l-1.43,1.67a4.42,4.42,0,0,0-3.25-1.49c-2.86,0-4.85,2.4-4.85,6.3s1.85,6.37,4.79,6.37a4.83,4.83,0,0,0,3.67-1.76l1.4,1.65a6.56,6.56,0,0,1-5.17,2.39C192.88,457.75,189.67,454.64,189.67,449.19Z" transform="translate(-4.5 -25.45)" style="fill:#566c6c"/><path id="e77723c3-61d0-43d4-b7d5-68c27741ddc9" data-name="Path 559" d="M203.33,440.84H206l1.56,8.65.88,5.33h.09q.54-2.69,1.13-5.33l2.14-8.65h2.3l2.17,8.65c.38,1.74.74,3.52,1.13,5.33h.11c.27-1.81.56-3.59.84-5.33l1.57-8.65h2.51l-3.27,16.62H216l-2.24-9.24c-.29-1.31-.54-2.55-.76-3.81h-.12c-.22,1.26-.5,2.5-.76,3.81l-2.2,9.24h-3.16Z" transform="translate(-4.5 -25.45)" style="fill:#566c6c"/><path id="f7745c48-228d-49eb-8be5-7c2f3c630f06" data-name="Path 560" d="M225.21,440.84H235V443h-7.2v4.63h6.1v2.21h-6.1v5.37h7.45v2.22H225.21Z" transform="translate(-4.5 -25.45)" style="fill:#566c6c"/><path id="a9b054f8-2fd6-4a03-8dae-dbc1a2c98ba4" data-name="Path 561" d="M238.76,440.84h9.84V443h-7.22v5.08h6.14v2.19h-6.14v7.16h-2.62Z" transform="translate(-4.5 -25.45)" style="fill:#566c6c"/><path id="e83e1ef2-6eb4-4ed2-8247-7aa500674fbd" data-name="Path 562" d="M267.66,441.4a16.67,16.67,0,0,1-5.13,5.72,27.84,27.84,0,0,0,8.47,2.5,8,8,0,0,0-1.35,2,25.88,25.88,0,0,1-9-3.3,33.07,33.07,0,0,1-9.17,3.43,7.29,7.29,0,0,0-1-2,29.83,29.83,0,0,0,8.27-2.76,16.82,16.82,0,0,1-2.71-2.69,24.41,24.41,0,0,1-3.46,2.87,6.65,6.65,0,0,0-1.42-1.62,19.35,19.35,0,0,0,6.77-7.12l2.26.46c-.34.58-.7,1.17-1.11,1.76h6.85l.33-.09Zm-12.6,13a86.74,86.74,0,0,1,11.42,3.09l-1,2a86.49,86.49,0,0,0-11.38-3.39Zm2.82-3.87c2.42.59,6,1.63,7.9,2.33l-.93,1.87c-1.78-.7-5.35-1.85-7.87-2.57Zm-.2-8c-.16.18-.29.36-.43.54a14,14,0,0,0,3.3,2.94,15.56,15.56,0,0,0,3.93-3.48Z" transform="translate(-4.5 -25.45)" style="fill:#566c6c"/><path id="ba4f6b0b-74ff-4e60-9563-78850f0c6cd1" data-name="Path 563" d="M282.13,445.27a22,22,0,0,1-8,5,8.9,8.9,0,0,0-1.33-1.6,21.14,21.14,0,0,0,7.18-3.77h-6.62v-1.79h8.78v-1.85c-2.32.18-4.71.3-6.91.34a6.49,6.49,0,0,0-.47-1.67,85.83,85.83,0,0,0,14.4-1.36l1.74,1.49a50.59,50.59,0,0,1-6.71,1v2h8.95v1.79H287a50.23,50.23,0,0,1,6.62,4.38l-1.36,1.47a58.15,58.15,0,0,0-8-5.45v3.05h-2.06ZM284.3,453h8.85v1.8H284.3V457c0,1.1-.27,1.6-1.13,1.9a16.51,16.51,0,0,1-4.15.27,8.7,8.7,0,0,0-.72-1.83c1.49.05,3,.05,3.41,0s.54-.11.54-.4V454.8h-8.92V453h8.92V451.7a23.11,23.11,0,0,0,2.62-1.11h-7.7V449h10.25l.45-.12,1.29,1.11a22.94,22.94,0,0,1-4.86,2.6Z" transform="translate(-4.5 -25.45)" style="fill:#566c6c"/><path id="b703d64f-e1c8-4dde-97bd-54a2ad82a103" data-name="Path 564" d="M302.68,452.06c-2.26,1.15-4.7,2.37-6.59,3.27l-.81-2.1c.81-.31,1.82-.74,2.93-1.21v-6.73h-2.48v-2h2.48v-4.56h1.94v4.56h2.28v2h-2.28v5.87l2.08-.94Zm4.38-2.66a10.4,10.4,0,0,1-.83,1.35h9.43s0,.52,0,.79c-.36,4.52-.7,6.28-1.31,7a2,2,0,0,1-1.36.63,18.77,18.77,0,0,1-2.25,0,4.16,4.16,0,0,0-.48-1.69,17.44,17.44,0,0,0,1.76.09c.34,0,.52,0,.7-.25.34-.38.64-1.67.9-4.85h-1.35a15.59,15.59,0,0,1-4.54,6.86,6.58,6.58,0,0,0-1.51-1.17,13.26,13.26,0,0,0,4.29-5.69h-1.79a17.42,17.42,0,0,1-5.37,5.89,6,6,0,0,0-1.4-1.27,14.67,14.67,0,0,0,4.88-4.62h-1.9a15.58,15.58,0,0,1-2.78,2.41,11.73,11.73,0,0,0-1.42-1.31A12.09,12.09,0,0,0,305,449.4h-2.89v-1.79h14.12v1.79Zm7.54-2.87H304.18v-7.41h10.43Zm-1.94-5.89h-6.59v1.46h6.59Zm0,2.89h-6.59V445h6.59Z" transform="translate(-4.5 -25.45)" style="fill:#566c6c"/><path id="adebfa3d-7a13-4d49-9320-adab29577849" data-name="Path 565" d="M322.53,450H318v-1.9h4.58v-4.88h2v4.88h4.58V450h-4.58v4.88h-2Z" transform="translate(-4.5 -25.45)" style="fill:#566c6c"/><path id="a1e162fb-4ba9-44cc-aaee-d2c16d6d633c" data-name="Path 566" d="M349.13,457.16c.61,0,.74-.36.81-2.68a5.71,5.71,0,0,0,1.72.74c-.18,2.91-.68,3.66-2.35,3.66h-2.69c-2,0-2.48-.54-2.48-2.42v-2.3a10.65,10.65,0,0,1-6.1,5.1,5.13,5.13,0,0,0-1.2-1.58c3.93-1.4,5.62-3.68,6.41-6.52h-4.11v-4.9l-.11.11a6.21,6.21,0,0,0-1.2-1.31V455h-4.31v1.72h-1.83V440.14h6.14v4.56a15.41,15.41,0,0,0,4-6.14l2.08.32c-.19.5-.41,1-.64,1.51h4.25l.36-.09,1.56.52a36.28,36.28,0,0,1-2.33,3.43h3.3v6.91h-4.33v5.28c0,.66.11.73.83.73ZM333.53,442v4.52H336V442ZM336,453.06v-4.7h-2.48v4.7Zm6.39-11a16.85,16.85,0,0,1-1.4,2.15h3.79a19.29,19.29,0,0,0,1.56-2.15Zm1.22,7.41a33.64,33.64,0,0,0,.34-3.61H341v3.61Zm4.83-3.61h-2.57c-.05,1.21-.17,2.41-.34,3.61h2.91Z" transform="translate(-4.5 -25.45)" style="fill:#566c6c"/><path id="ebd8aed5-3186-4a0b-a031-bb84270cd88a" data-name="Path 567" d="M368.82,453.75a9.79,9.79,0,0,1-2.39,2.33c2.71.61,5.17,1.26,7,1.85l-1.76,1.31a63.19,63.19,0,0,0-7.27-2,30.89,30.89,0,0,1-9.62,2.06,5.13,5.13,0,0,0-.81-1.7,36.49,36.49,0,0,0,7.2-1.06c-1.45-.29-3-.59-4.47-.86a24.67,24.67,0,0,0,1.78-1.9h-4.65v-1.64h6a22.82,22.82,0,0,0,1.38-2l2,.57a14.84,14.84,0,0,1-1,1.46h5.33a6.6,6.6,0,0,0,.54-1.06l2,.57-.23.5h3.86v1.65Zm-12.6-9.14h-2V440.3h8.65a10.16,10.16,0,0,0-.7-1.4l2.08-.41a12.09,12.09,0,0,1,1,1.81h8.28v4.31h-2.1V442H356.22ZM370,450.07H357.6v-6.75H370ZM368,444.72h-8.38V446H368Zm0,2.62h-8.38v1.36H368Zm-7,6.41c-.32.37-.64.7-.9,1,1.26.23,2.55.48,3.79.73a9.39,9.39,0,0,0,2.51-1.76Z" transform="translate(-4.5 -25.45)" style="fill:#566c6c"/></g><g id="b6c08d86-5309-49cc-a8f0-5408d392b081" data-name="Group 339"><path id="ab98bf59-4723-4b8a-a8f4-392785fd5086" data-name="Path 568" d="M615.84,455.94c4.9-4.33,7.43-7.56,7.43-10.3,0-1.8-1-3-2.82-3a4.5,4.5,0,0,0-3.28,1.85L615.7,443a6.55,6.55,0,0,1,5.06-2.48,4.69,4.69,0,0,1,5,4.37,3.21,3.21,0,0,1,0,.62c0,3.21-2.55,6.53-6.07,9.89.86-.09,1.9-.16,2.71-.16h4.16v2.21H615.84Z" transform="translate(-4.5 -25.45)" style="fill:#566c6c"/><path id="b3c579a7-2416-4650-bcb1-4ebcd09e78f4" data-name="Path 569" d="M628.78,449.08c0-5.76,2.1-8.56,5.37-8.56s5.37,2.83,5.37,8.56-2.12,8.67-5.37,8.67S628.78,454.86,628.78,449.08Zm8.26,0c0-4.76-1.2-6.5-2.89-6.5s-2.89,1.74-2.89,6.5,1.2,6.62,2.89,6.62S637,453.89,637,449.08Z" transform="translate(-4.5 -25.45)" style="fill:#566c6c"/><path id="f75075c4-9227-4468-bc85-8ccda12c27f0" data-name="Path 570" d="M641.58,455.94c4.9-4.33,7.43-7.56,7.43-10.3,0-1.8-1-3-2.82-3a4.5,4.5,0,0,0-3.28,1.85L641.45,443a6.51,6.51,0,0,1,5-2.48,4.71,4.71,0,0,1,5,4.37c0,.2,0,.41,0,.62,0,3.21-2.56,6.53-6.08,9.89.86-.09,1.9-.16,2.71-.16h4.16v2.21H641.58Z" transform="translate(-4.5 -25.45)" style="fill:#566c6c"/><path id="e404244c-919b-4ec1-853d-abcddc57507d" data-name="Path 571" d="M654.45,455.94c4.9-4.33,7.43-7.56,7.43-10.3,0-1.8-1-3-2.82-3a4.5,4.5,0,0,0-3.28,1.85L654.31,443a6.55,6.55,0,0,1,5.06-2.48,4.69,4.69,0,0,1,5,4.37,4.26,4.26,0,0,1,0,.62c0,3.21-2.55,6.53-6.08,9.89.86-.09,1.9-.16,2.71-.16h4.16v2.21H654.45Z" transform="translate(-4.5 -25.45)" style="fill:#566c6c"/><path id="bf988932-9595-4847-9110-b9edb4fb85c7" data-name="Path 572" d="M687.8,454.25h-7.92v5h-2.17v-5H667.44v-2h3.63v-6h6.64v-3.12h-5.17a20.63,20.63,0,0,1-3.25,4.29,17.26,17.26,0,0,0-1.83-1.35,18.3,18.3,0,0,0,4.92-7.66l2.12.57c-.27.7-.58,1.44-.88,2.12h13.07v2h-6.81v3.12h6.3v2h-6.3v4h7.92Zm-10.09-2v-4h-4.54v4Z" transform="translate(-4.5 -25.45)" style="fill:#566c6c"/><path id="e41c7370-8183-4c96-80d4-7dff9bdca150" data-name="Path 573" d="M690.85,455.32h3.64V443.76h-3v-1.65a10.11,10.11,0,0,0,3.61-1.27h2v14.48h3.26v2.14h-9.49Z" transform="translate(-4.5 -25.45)" style="fill:#566c6c"/><path id="a5b2b644-5a70-466b-b7b6-328d0f2ffd4f" data-name="Path 574" d="M720.41,456.4c0,1.35-.36,2-1.26,2.34a14.88,14.88,0,0,1-4.84.43,8.49,8.49,0,0,0-.9-2.21c1.76.09,3.57.07,4.11,0s.68-.18.68-.65v-4H708a12.46,12.46,0,0,1-3.86,6.86,8,8,0,0,0-1.6-1.53c3.52-3,3.86-7.45,3.86-11v-7.09h14.06Zm-2.21-6V447h-9.71a28.82,28.82,0,0,1-.2,3.35Zm-9.71-8.69V445h9.71v-3.34Z" transform="translate(-4.5 -25.45)" style="fill:#566c6c"/></g></g></g><line id="b28efc65-b670-4a72-afbc-4d9ee4b8fc94" data-name="Line 121" x1="911.5" y1="466.09" x2="0.5" y2="466.09" style="fill:none;stroke:#959595;stroke-miterlimit:10"/></g></g></svg>