<svg xmlns="http://www.w3.org/2000/svg" width="538.494" height="65.94" viewBox="0 0 538.494 65.94">
    <defs>
        <style>
            .cls-3{fill:#262626}.cls-2{isolation:isolate}
        </style>
    </defs>
    <g id="Group_314" transform="translate(-580.846 -250.06)">
        <text id="永續會價值" fill="#262626" font-family="GenYoMinTW-SemiBold-TTF, GenYoMin TW TTF" font-size="41px" letter-spacing="0.116em" transform="translate(894.34 305)">
            <tspan x="0" y="0">永續會價值</tspan>
        </text>
        <g id="WHY_NOW" class="cls-2" transform="translate(-485.943 -1598.769)">
            <g id="Group_304" class="cls-2">
                <path id="Path_442" d="M1122.07 1849.709l-.427 1.6a10.982 10.982 0 0 0-3.949 1.839 18.71 18.71 0 0 0-4.656 5.121L1080 1906.748h-1.364l-7.332-50.319q-.465-3.04-1.819-4.04a5.058 5.058 0 0 0-2.7-1.08l.43-1.6q1.683.081 4.179.159t4.884.081q3.327 0 6.249-.081t4.735-.159l-.43 1.6q-4.394.161-5.877 1.4t-.956 5.32l5.3 39.44-1.73 1.359 24.533-36.159a22.779 22.779 0 0 0 3.518-6.761q.567-2.439-1.03-3.479a10.21 10.21 0 0 0-5.159-1.12l.427-1.6q2.454.081 4.992.159t4.755.081q2.219 0 3.69-.081t2.775-.159z" class="cls-3"/>
                <path id="Path_443" d="M1143.674 1849.309l7.332 50.32q.465 3.04 1.818 4.04a5.046 5.046 0 0 0 2.7 1.08l-.429 1.6q-1.665-.161-4.126-.2t-4.939-.039q-3.324 0-6.237.039t-4.745.2l.429-1.6q4.392-.159 5.92-1.4t.913-5.321l-5.213-39.76 1.643-1.04-24.532 36.16a22.656 22.656 0 0 0-3.517 6.759q-.571 2.442 1.029 3.481a10.2 10.2 0 0 0 5.16 1.12l-.429 1.6q-2.346-.161-4.936-.2t-4.811-.039q-2.133 0-3.635.039t-2.826.2l.429-1.6a11.961 11.961 0 0 0 4-1.88 18.559 18.559 0 0 0 4.6-5.081l33.039-48.479h1.364zm1.3 34l-.43 1.6h-25.422l1.283-1.6z" class="cls-3"/>
                <path id="Path_444" d="M1193.387 1849.709l-.43 1.6a17.331 17.331 0 0 0-4.554.6 4.508 4.508 0 0 0-2.518 1.92 16.5 16.5 0 0 0-1.681 4.36l-10.632 39.681a13.753 13.753 0 0 0-.645 4.32 2.006 2.006 0 0 0 1.5 1.879 15.157 15.157 0 0 0 4.276.44h6.228a20.879 20.879 0 0 0 8.532-1.44 12.374 12.374 0 0 0 5.274-4.719 47.272 47.272 0 0 0 4.192-8.8h1.962q-.921 2.48-2.014 6.559-.408 1.523-1.04 4.361t-1.106 5.88q-4.308-.161-9.756-.2t-9.715-.039h-6.781q-4.226 0-9.011.039t-9.011.2l.429-1.6a20.749 20.749 0 0 0 4.565-.641 4.324 4.324 0 0 0 2.518-1.919 16.562 16.562 0 0 0 1.67-4.32l10.632-39.681a13.677 13.677 0 0 0 .656-4.36 2.159 2.159 0 0 0-1.489-1.92 13.845 13.845 0 0 0-4.233-.6l.428-1.6q1.77.081 4.649.159t6.206.081q2.986 0 5.95-.081t4.949-.159z" class="cls-3"/>
                <path id="Path_445" d="M1274.086 1849.709l-.428 1.6a12.923 12.923 0 0 0-4.608.8 5.47 5.47 0 0 0-2.626 2.319 19.03 19.03 0 0 0-1.735 4.561l-6.451 24.079a63.981 63.981 0 0 1-3.383 9.76 27.2 27.2 0 0 1-4.659 7.2 22.2 22.2 0 0 1-7.675 5.4 24.414 24.414 0 0 1-9.929 2.04 29.5 29.5 0 0 1-7.56-.92 10.923 10.923 0 0 1-5.615-3.4 13.282 13.282 0 0 1-2.616-4.719 14.9 14.9 0 0 1-.291-6.081 70.236 70.236 0 0 1 1.91-9.039l6.731-25.121a13.714 13.714 0 0 0 .657-4.36 2.158 2.158 0 0 0-1.491-1.92 13.82 13.82 0 0 0-4.231-.6l.428-1.6q1.77.081 4.649.159t6.206.081q2.985 0 5.95-.081t4.949-.159l-.43 1.6a17.317 17.317 0 0 0-4.554.6 4.51 4.51 0 0 0-2.519 1.92 16.541 16.541 0 0 0-1.68 4.36l-7.1 26.481a56.543 56.543 0 0 0-1.825 10 10.082 10.082 0 0 0 1.76 7.279q2.127 2.721 8.185 2.72a19.819 19.819 0 0 0 10.742-2.68 20.449 20.449 0 0 0 6.93-7.4 45.275 45.275 0 0 0 4.259-10.641l6.688-24.959a11.107 11.107 0 0 0 .5-4.561 3.08 3.08 0 0 0-1.811-2.319 11.318 11.318 0 0 0-4.392-.8l.428-1.6q1.515.081 4.01.159t4.628.081q2.217 0 4.415-.081t3.584-.158z" class="cls-3"/>
                <path id="Path_446" d="M1322.541 1849.709q-1.094 2.8-1.928 5.439t-1.2 4q-.387 1.442-.655 2.76c-.179.881-.32 1.614-.418 2.2h-1.962a34.521 34.521 0 0 0 .554-7.479 4.612 4.612 0 0 0-2.15-3.92q-1.948-1.159-6.47-1.16h-7.081a18.041 18.041 0 0 0-4.511.439 4.152 4.152 0 0 0-2.5 1.84 16.5 16.5 0 0 0-1.681 4.36l-10.633 39.681a13.774 13.774 0 0 0-.644 4.32 2.007 2.007 0 0 0 1.5 1.879 15.152 15.152 0 0 0 4.276.44h6.228a21.777 21.777 0 0 0 8.51-1.36 11.889 11.889 0 0 0 5.2-4.439 42.58 42.58 0 0 0 4.075-8.36h1.962a58.724 58.724 0 0 0-1.8 5.759q-.41 1.523-1.041 4.361t-1.106 5.88q-4.308-.161-9.757-.2t-9.713-.039h-6.784q-4.221 0-9.009.039t-9.011.2l.429-1.6a20.736 20.736 0 0 0 4.564-.641 4.323 4.323 0 0 0 2.519-1.919 16.628 16.628 0 0 0 1.671-4.32l10.631-39.681a13.706 13.706 0 0 0 .656-4.36 2.158 2.158 0 0 0-1.49-1.92 13.835 13.835 0 0 0-4.233-.6l.43-1.6q4.156.081 8.914.159t8.978.081h6.782q3.924 0 8.925-.04t8.973-.199zm-22 27.359l-.43 1.6H1284.5l.43-1.6zm5.3-10.559q-1.563 4.56-2.164 6.96t-1.136 4.4q-.536 2-1.094 4.4t-1.438 6.96h-1.962q.342-2.561.529-5a5.776 5.776 0 0 0-.975-4q-1.163-1.562-4.914-1.56l.429-1.6a8.146 8.146 0 0 0 5.739-1.839 12.952 12.952 0 0 0 3.078-4.321q1.087-2.478 1.946-4.4z" class="cls-3"/>
                <path id="Path_447" d="M1350.415 1848.829a15.719 15.719 0 0 1 6.237.919 17.007 17.007 0 0 1 3.377 2.041 15.9 15.9 0 0 0 1.438.84 2.584 2.584 0 0 0 1.163.279q1.363 0 2.819-3.519h1.963q-.452 1.36-1.082 3.24t-1.5 4.959q-.87 3.082-2.22 8.121h-1.961a20.111 20.111 0 0 0 .18-7.36 10.007 10.007 0 0 0-2.935-5.76q-2.343-2.238-7.12-2.24a13.805 13.805 0 0 0-8.15 2.559 11.736 11.736 0 0 0-4.743 6.721 8.066 8.066 0 0 0 .343 6.039 13.017 13.017 0 0 0 4.067 4.4q2.758 1.963 6 4.2a60.461 60.461 0 0 1 6.529 5.081 14.79 14.79 0 0 1 3.97 5.558 11.723 11.723 0 0 1 .033 7.36 18.416 18.416 0 0 1-4.746 8.48 21.781 21.781 0 0 1-7.92 5.04 27.126 27.126 0 0 1-9.492 1.681 19.321 19.321 0 0 1-6.908-.96 23.093 23.093 0 0 1-3.985-2 4.921 4.921 0 0 0-2.6-1.119q-1.365 0-2.82 3.52h-1.962q.62-1.682 1.274-3.96t1.683-5.961q1.028-3.68 2.529-9.279h1.962a29.426 29.426 0 0 0-.482 8.959 10.571 10.571 0 0 0 3.074 6.682q2.607 2.519 8.068 2.519a15.837 15.837 0 0 0 8.311-2.519 12.931 12.931 0 0 0 5.63-8.121q1.308-4.88-1.5-8.081a39.661 39.661 0 0 0-7.882-6.56q-3.39-2.318-6.242-4.72a13.83 13.83 0 0 1-4.1-5.559 12.133 12.133 0 0 1-.042-7.64 16.952 16.952 0 0 1 4.351-7.8 19.4 19.4 0 0 1 7.15-4.56 23.925 23.925 0 0 1 8.241-1.48z" class="cls-3"/>
            </g>
        </g>
    </g>
</svg>
