<svg xmlns="http://www.w3.org/2000/svg" viewBox="0 0 149.558 29.173" preserveAspectRatio="xMinYMin meet">
    <defs>
        <style>
            .cls-1{isolation:isolate}.cls-2{fill:#262626}
        </style>
    </defs>
    <g id="WHY_NOW" class="cls-1">
        <g id="Group_304" class="cls-1">
            <path id="Path_442" d="M1094.291 1849.709l-.212.8a5.462 5.462 0 0 0-1.965.915 9.306 9.306 0 0 0-2.316 2.548l-16.436 24.118h-.679l-3.648-25.033a2.987 2.987 0 0 0-.905-2.01 2.516 2.516 0 0 0-1.341-.537l.214-.8q.837.04 2.079.079t2.43.04q1.655 0 3.109-.04t2.356-.079l-.214.8a5.145 5.145 0 0 0-2.924.7q-.737.617-.476 2.647l2.636 19.621-.861.676 12.2-17.989a11.333 11.333 0 0 0 1.75-3.363 1.468 1.468 0 0 0-.513-1.731 5.079 5.079 0 0 0-2.566-.557l.212-.8q1.221.04 2.483.079t2.366.04q1.1 0 1.836-.04t1.385-.084z" class="cls-2" transform="translate(-1066.789 -1849.271)"/>
            <path id="Path_443" d="M1121.848 1849.309l3.647 25.034a2.988 2.988 0 0 0 .9 2.01 2.511 2.511 0 0 0 1.342.537l-.214.8q-.828-.08-2.053-.1t-2.457-.019q-1.654 0-3.1.019t-2.361.1l.213-.8a5.266 5.266 0 0 0 2.945-.7q.758-.618.454-2.647l-2.594-19.78.817-.517-12.2 17.989a11.273 11.273 0 0 0-1.75 3.362 1.465 1.465 0 0 0 .512 1.732 5.076 5.076 0 0 0 2.567.557l-.214.8q-1.167-.08-2.456-.1t-2.393-.019q-1.061 0-1.808.019t-1.406.1l.213-.8a5.953 5.953 0 0 0 1.991-.935 9.231 9.231 0 0 0 2.289-2.528l16.437-24.118h.679zm.646 16.915l-.214.8h-12.647l.638-.8z" class="cls-2" transform="translate(-1083.598 -1849.07)"/>
            <path id="Path_444" d="M1174.829 1849.709l-.214.8a8.622 8.622 0 0 0-2.266.3 2.242 2.242 0 0 0-1.253.955 8.212 8.212 0 0 0-.836 2.169l-5.289 19.741a6.838 6.838 0 0 0-.321 2.149 1 1 0 0 0 .746.935 7.543 7.543 0 0 0 2.127.219h3.1a10.388 10.388 0 0 0 4.245-.716 6.155 6.155 0 0 0 2.624-2.348 23.527 23.527 0 0 0 2.086-4.378h.976q-.458 1.234-1 3.263-.2.758-.517 2.17t-.55 2.925q-2.143-.08-4.854-.1t-4.833-.019h-3.374q-2.1 0-4.483.019t-4.483.1l.213-.8a10.314 10.314 0 0 0 2.271-.319 2.151 2.151 0 0 0 1.253-.955 8.245 8.245 0 0 0 .831-2.149l5.289-19.741a6.8 6.8 0 0 0 .326-2.169 1.074 1.074 0 0 0-.741-.955 6.887 6.887 0 0 0-2.106-.3l.213-.8q.88.04 2.313.079t3.087.04q1.486 0 2.96-.04t2.46-.075z" class="cls-2" transform="translate(-1111.848 -1849.271)"/>
            <path id="Path_445" d="M1245.068 1849.709l-.213.8a6.43 6.43 0 0 0-2.292.4 2.722 2.722 0 0 0-1.307 1.154 9.466 9.466 0 0 0-.863 2.269l-3.209 11.979a31.838 31.838 0 0 1-1.683 4.856 13.529 13.529 0 0 1-2.318 3.582 11.047 11.047 0 0 1-3.818 2.686 12.146 12.146 0 0 1-4.94 1.015 14.676 14.676 0 0 1-3.761-.458 5.433 5.433 0 0 1-2.793-1.692 6.607 6.607 0 0 1-1.3-2.348 7.414 7.414 0 0 1-.145-3.025 34.957 34.957 0 0 1 .95-4.5l3.349-12.5a6.823 6.823 0 0 0 .327-2.169 1.074 1.074 0 0 0-.742-.955 6.876 6.876 0 0 0-2.1-.3l.213-.8q.881.04 2.313.079t3.087.04q1.485 0 2.96-.04t2.462-.079l-.214.8a8.613 8.613 0 0 0-2.266.3 2.243 2.243 0 0 0-1.253.955 8.234 8.234 0 0 0-.836 2.169l-3.53 13.174a28.116 28.116 0 0 0-.908 4.975 5.015 5.015 0 0 0 .875 3.621q1.058 1.354 4.072 1.353a9.859 9.859 0 0 0 5.344-1.333 10.172 10.172 0 0 0 3.448-3.681 22.528 22.528 0 0 0 2.119-5.294l3.327-12.417a5.525 5.525 0 0 0 .248-2.269 1.532 1.532 0 0 0-.9-1.154 5.634 5.634 0 0 0-2.185-.4l.213-.8q.754.04 1.995.079t2.3.04q1.1 0 2.2-.04t1.774-.072z" class="cls-2" transform="translate(-1141.939 -1849.271)"/>
            <path id="Path_446" d="M1293.524 1849.709q-.544 1.393-.959 2.706t-.6 1.99q-.193.717-.326 1.373c-.089.438-.159.8-.208 1.095h-.976a17.18 17.18 0 0 0 .276-3.721 2.3 2.3 0 0 0-1.07-1.95 6.631 6.631 0 0 0-3.219-.577h-3.523a8.975 8.975 0 0 0-2.244.219 2.065 2.065 0 0 0-1.242.915 8.207 8.207 0 0 0-.836 2.169l-5.29 19.741a6.853 6.853 0 0 0-.32 2.149 1 1 0 0 0 .746.935 7.541 7.541 0 0 0 2.127.219h3.1a10.833 10.833 0 0 0 4.234-.677 5.914 5.914 0 0 0 2.586-2.208 21.185 21.185 0 0 0 2.027-4.159h.976a29.275 29.275 0 0 0-.895 2.865q-.2.758-.518 2.17t-.55 2.925q-2.143-.08-4.854-.1t-4.832-.019h-3.375q-2.1 0-4.482.019t-4.483.1l.214-.8a10.308 10.308 0 0 0 2.271-.319 2.15 2.15 0 0 0 1.253-.955 8.273 8.273 0 0 0 .831-2.149l5.289-19.741a6.816 6.816 0 0 0 .326-2.169 1.074 1.074 0 0 0-.741-.955 6.882 6.882 0 0 0-2.106-.3l.214-.8q2.068.04 4.435.079t4.466.04h3.374q1.952 0 4.44-.02t4.464-.09zm-10.947 13.611l-.214.8h-7.763l.214-.8zm2.638-5.253q-.778 2.268-1.077 3.462t-.565 2.189q-.267 1-.544 2.189t-.715 3.463h-.976q.17-1.274.263-2.488a2.872 2.872 0 0 0-.485-1.99 2.952 2.952 0 0 0-2.445-.776l.213-.8a4.052 4.052 0 0 0 2.855-.915 6.444 6.444 0 0 0 1.531-2.15q.541-1.233.968-2.188z" class="cls-2" transform="translate(-1166.289 -1849.271)"/>
            <path id="Path_447" d="M1334.321 1848.829a7.821 7.821 0 0 1 3.1.457 8.465 8.465 0 0 1 1.68 1.015 7.952 7.952 0 0 0 .715.418 1.286 1.286 0 0 0 .578.139q.678 0 1.4-1.751h.977l-.538 1.612q-.313.935-.746 2.467-.433 1.534-1.1 4.04h-.976a10 10 0 0 0 .089-3.662 4.478 4.478 0 0 0-5-3.98 6.867 6.867 0 0 0-4.055 1.273 5.838 5.838 0 0 0-2.36 3.344 4.013 4.013 0 0 0 .171 3 6.475 6.475 0 0 0 2.023 2.189q1.372.977 2.984 2.09a30.08 30.08 0 0 1 3.248 2.528 7.36 7.36 0 0 1 1.975 2.765 5.832 5.832 0 0 1 .016 3.661 9.161 9.161 0 0 1-2.361 4.219 10.835 10.835 0 0 1-3.94 2.507 13.5 13.5 0 0 1-4.722.836 9.611 9.611 0 0 1-3.437-.478 11.48 11.48 0 0 1-1.983-1 2.448 2.448 0 0 0-1.294-.557q-.679 0-1.4 1.751h-.976q.308-.836.634-1.97t.837-2.965q.511-1.831 1.258-4.616h.976a14.639 14.639 0 0 0-.24 4.457 5.258 5.258 0 0 0 1.529 3.324 5.592 5.592 0 0 0 4.014 1.253 7.879 7.879 0 0 0 4.135-1.253 6.433 6.433 0 0 0 2.8-4.04 4.121 4.121 0 0 0-.748-4.02 19.739 19.739 0 0 0-3.921-3.264q-1.686-1.153-3.105-2.348a6.88 6.88 0 0 1-2.039-2.766 6.036 6.036 0 0 1-.021-3.8 8.434 8.434 0 0 1 2.165-3.88 9.653 9.653 0 0 1 3.557-2.269 11.9 11.9 0 0 1 4.101-.726z" class="cls-2" transform="translate(-1193.219 -1848.829)"/>
        </g>
    </g>
</svg>
