<svg xmlns="http://www.w3.org/2000/svg" width="95.998" height="28.377" viewBox="0 0 95.998 28.377">
    <defs>
        <style>
            .cls-1{isolation:isolate}.cls-2{fill:#262626}
        </style>
    </defs>
    <g id="WHY_NOW" class="cls-1">
        <g id="Group_296" class="cls-1">
            <path id="Path_405" d="M1076.043 1283.709l-.214.8a4.2 4.2 0 0 0-1.7.4 1.5 1.5 0 0 0-.739 1.014 6.6 6.6 0 0 0-.071 1.931l1.534 18.825-1.327.995 10.708-17.791.381.956-12.7 21.252h-.68l-2.289-25.033a2.591 2.591 0 0 0-.857-2.03 2.847 2.847 0 0 0-1.388-.517l.213-.8q.838.04 2.079.079t2.429.04q1.4 0 2.621-.04t2-.081zm29.665 0l-.214.8a6.131 6.131 0 0 0-2.022.9 7.416 7.416 0 0 0-2.258 2.568l-14.484 24.118h-.679l-2.289-25.033a3.082 3.082 0 0 0-.687-2.03 1.937 1.937 0 0 0-1.134-.517l.213-.8q.754.04 1.889.079t2.2.04q1.655 0 3.109-.04t2.355-.079l-.213.8a10.12 10.12 0 0 0-2.079.239 1.488 1.488 0 0 0-1.083.876 5.359 5.359 0 0 0-.194 2.229l1.407 18.347-.722.478 10.028-16.517a12.2 12.2 0 0 0 1.612-3.4 1.482 1.482 0 0 0-.5-1.711 5.02 5.02 0 0 0-2.529-.537l.213-.8 2.483.079q1.262.04 2.366.04t1.835-.04q.729-.049 1.377-.089z" class="cls-2" transform="translate(-1066.705 -1283.709)"/>
            <path id="Path_406" d="M1133.339 1311.887l.213-.8a10.318 10.318 0 0 0 2.271-.319 2.15 2.15 0 0 0 1.253-.955 8.253 8.253 0 0 0 .831-2.149l5.289-19.741a6.819 6.819 0 0 0 .326-2.169 1.074 1.074 0 0 0-.741-.955 6.88 6.88 0 0 0-2.106-.3l.214-.8q.88.04 2.312.079t3.088.04q1.485 0 2.96-.04t2.462-.079l-.213.8a8.619 8.619 0 0 0-2.266.3 2.24 2.24 0 0 0-1.253.955 8.212 8.212 0 0 0-.836 2.169l-5.29 19.741a6.853 6.853 0 0 0-.32 2.149 1.034 1.034 0 0 0 .741.955 8.128 8.128 0 0 0 2.1.319l-.213.8q-.955-.08-2.414-.1t-2.944-.019q-1.655 0-3.1.019t-2.364.1zm9.589-13.771l.213-.8h16.759l-.214.8zm8.151 13.771l.214-.8a10.319 10.319 0 0 0 2.271-.319 2.151 2.151 0 0 0 1.253-.955 8.273 8.273 0 0 0 .831-2.149l5.289-19.741a6.817 6.817 0 0 0 .326-2.169 1.073 1.073 0 0 0-.741-.955 6.888 6.888 0 0 0-2.106-.3l.214-.8q.965.04 2.44.079t2.918.04q1.655 0 3.109-.04t2.355-.079l-.213.8a8.62 8.62 0 0 0-2.266.3 2.242 2.242 0 0 0-1.253.955 8.213 8.213 0 0 0-.836 2.169l-5.289 19.741a6.849 6.849 0 0 0-.321 2.149 1.034 1.034 0 0 0 .741.955 8.125 8.125 0 0 0 2.1.319l-.213.8q-.87-.08-2.307-.1t-3.093-.019q-1.443 0-2.934.019t-2.489.1z" class="cls-2" transform="translate(-1100.189 -1283.709)"/>
            <path id="Path_407" d="M1234.108 1283.709l-.213.8a4.446 4.446 0 0 0-1.874.976 17.993 17.993 0 0 0-2.47 2.567l-12.839 15.92h-.721l-5.324-17.193a4.084 4.084 0 0 0-.926-1.851 1.505 1.505 0 0 0-.938-.378l.224-.836q.838.04 1.74.079t1.963.04q1.4 0 3-.02t2.976-.1l-.224.836a7.287 7.287 0 0 0-1.931.239 2.179 2.179 0 0 0-1.3.876 2.13 2.13 0 0 0-.1 1.791l3.718 12.894-.4.24 8.471-10.547a10.34 10.34 0 0 0 2.073-3.382 1.3 1.3 0 0 0-.555-1.652 6.08 6.08 0 0 0-2.626-.5l.214-.8 2.482.079q1.263.04 2.366.04t1.835-.04c.487-.025.948-.051 1.379-.078zm-14.366 16.079l-2.111 7.88a6.854 6.854 0 0 0-.322 2.149 1.035 1.035 0 0 0 .742.955 8.125 8.125 0 0 0 2.1.319l-.213.8q-.956-.08-2.414-.1t-2.945-.019q-1.654 0-3.1.019t-2.36.1l.213-.8a10.306 10.306 0 0 0 2.271-.319 2.148 2.148 0 0 0 1.253-.955 8.24 8.24 0 0 0 .831-2.149l2.186-8.159 1.631 2.467z" class="cls-2" transform="translate(-1138.11 -1283.709)"/>
        </g>
    </g>
</svg>
