<svg xmlns="http://www.w3.org/2000/svg" viewBox="0 0 95.998 28.377" preserveAspectRatio="xMinYMin meet">
    <defs>
        <style>
            .cls-1{isolation:isolate}.cls-2{fill:#262626}
        </style>
    </defs>
    <g id="WHY_NOW" class="cls-1">
        <g id="Group_294" class="cls-1">
            <path id="Path_399" d="M397.042 1283.709l-.213.8a4.2 4.2 0 0 0-1.7.4 1.5 1.5 0 0 0-.739 1.014 6.6 6.6 0 0 0-.071 1.931l1.534 18.825-1.328.995 10.709-17.791.381.956-12.7 21.252h-.68l-2.289-25.033a2.589 2.589 0 0 0-.857-2.03 2.848 2.848 0 0 0-1.389-.517l.213-.8q.838.04 2.08.079t2.429.04q1.4 0 2.621-.04t1.999-.081zm29.665 0l-.213.8a6.132 6.132 0 0 0-2.022.9 7.415 7.415 0 0 0-2.258 2.568l-14.483 24.118h-.679l-2.289-25.033a3.083 3.083 0 0 0-.688-2.03 1.936 1.936 0 0 0-1.134-.517l.213-.8q.754.04 1.889.079t2.2.04q1.655 0 3.109-.04t2.355-.079l-.213.8a10.119 10.119 0 0 0-2.08.239 1.488 1.488 0 0 0-1.084.876 5.36 5.36 0 0 0-.194 2.229l1.407 18.347-.722.478 10.028-16.517a12.2 12.2 0 0 0 1.612-3.4 1.482 1.482 0 0 0-.5-1.711 5.021 5.021 0 0 0-2.53-.537l.213-.8 2.483.079q1.262.04 2.366.04t1.835-.04q.732-.049 1.379-.089z" class="cls-2" transform="translate(-387.705 -1283.709)"/>
            <path id="Path_400" d="M454.339 1311.887l.213-.8a10.328 10.328 0 0 0 2.271-.319 2.151 2.151 0 0 0 1.253-.955 8.256 8.256 0 0 0 .831-2.149l5.289-19.741a6.82 6.82 0 0 0 .326-2.169 1.073 1.073 0 0 0-.741-.955 6.881 6.881 0 0 0-2.106-.3l.213-.8q.881.04 2.313.079t3.087.04q1.485 0 2.96-.04t2.462-.079l-.213.8a8.619 8.619 0 0 0-2.266.3 2.24 2.24 0 0 0-1.253.955 8.207 8.207 0 0 0-.836 2.169l-5.289 19.741a6.841 6.841 0 0 0-.321 2.149 1.034 1.034 0 0 0 .741.955 8.139 8.139 0 0 0 2.1.319l-.213.8q-.955-.08-2.414-.1t-2.944-.019q-1.655 0-3.1.019t-2.363.1zm9.589-13.771l.213-.8H480.9l-.213.8zm8.151 13.771l.213-.8a10.323 10.323 0 0 0 2.271-.319 2.151 2.151 0 0 0 1.253-.955 8.238 8.238 0 0 0 .831-2.149l5.29-19.741a6.816 6.816 0 0 0 .326-2.169 1.074 1.074 0 0 0-.741-.955 6.886 6.886 0 0 0-2.106-.3l.213-.8q.966.04 2.44.079t2.918.04q1.655 0 3.109-.04t2.355-.079l-.213.8a8.62 8.62 0 0 0-2.266.3 2.242 2.242 0 0 0-1.253.955 8.211 8.211 0 0 0-.836 2.169l-5.289 19.741a6.845 6.845 0 0 0-.321 2.149 1.034 1.034 0 0 0 .741.955 8.131 8.131 0 0 0 2.1.319l-.213.8q-.87-.08-2.307-.1t-3.093-.019q-1.444 0-2.934.019t-2.488.1z" class="cls-2" transform="translate(-421.189 -1283.709)"/>
            <path id="Path_401" d="M555.108 1283.709l-.213.8a4.446 4.446 0 0 0-1.874.976 18 18 0 0 0-2.471 2.567l-12.839 15.92h-.721l-5.324-17.193a4.085 4.085 0 0 0-.926-1.851 1.505 1.505 0 0 0-.938-.378l.223-.836q.838.04 1.74.079t1.963.04q1.4 0 3-.02t2.976-.1l-.224.836a7.286 7.286 0 0 0-1.931.239 2.178 2.178 0 0 0-1.3.876 2.13 2.13 0 0 0-.1 1.791l3.718 12.894-.4.24 8.471-10.547a10.341 10.341 0 0 0 2.073-3.382 1.3 1.3 0 0 0-.555-1.652 6.079 6.079 0 0 0-2.626-.5l.214-.8 2.482.079q1.263.04 2.366.04t1.835-.04c.489-.025.95-.051 1.381-.078zm-14.366 16.079l-2.111 7.88a6.848 6.848 0 0 0-.322 2.149 1.035 1.035 0 0 0 .742.955 8.126 8.126 0 0 0 2.1.319l-.213.8q-.956-.08-2.414-.1t-2.945-.019q-1.654 0-3.1.019t-2.361.1l.213-.8a10.308 10.308 0 0 0 2.271-.319 2.147 2.147 0 0 0 1.253-.955 8.236 8.236 0 0 0 .831-2.149l2.186-8.159 1.631 2.467z" class="cls-2" transform="translate(-459.11 -1283.709)"/>
        </g>
    </g>
</svg>
