<svg xmlns="http://www.w3.org/2000/svg" viewBox="0 0 555.111 66" >
    <defs>
        <style>
            .cls-3{fill:#262626}.cls-2{isolation:isolate}
        </style>
    </defs>
    <g id="Group_306" transform="translate(-681.889 -210)">
        <text id="為什麼是天下雜誌" fill="#262626" font-family="GenYoMinTW-SemiBold-TTF, GenYoMin TW TTF" font-size="41px" letter-spacing="0.116em" transform="translate(875 265)">
            <tspan x="0" y="0">為什麼是天下雜誌</tspan>
        </text>
        <g id="WHY_NOW" class="cls-2" transform="translate(-384.816 -1073.709)">
            <g id="Group_296" class="cls-2">
                <path id="Path_405" d="M1085.475 1283.709l-.43 1.6a8.453 8.453 0 0 0-3.413.8 3.006 3.006 0 0 0-1.486 2.039 13.258 13.258 0 0 0-.143 3.881l3.083 37.84-2.668 2 21.524-35.761.765 1.921-25.521 42.719h-1.366l-4.6-50.319q-.276-3.118-1.723-4.081a5.724 5.724 0 0 0-2.791-1.039l.428-1.6q1.684.081 4.18.159t4.883.081q2.815 0 5.269-.081t4.009-.159zm59.629 0l-.43 1.6a12.326 12.326 0 0 0-4.065 1.8 14.906 14.906 0 0 0-4.539 5.161l-29.113 48.479h-1.364l-4.6-50.319q-.273-3.118-1.382-4.081a3.891 3.891 0 0 0-2.279-1.039l.428-1.6q1.515.081 3.8.159t4.414.081q3.327 0 6.249-.081t4.733-.159l-.428 1.6a20.345 20.345 0 0 0-4.18.48 2.991 2.991 0 0 0-2.178 1.76 10.774 10.774 0 0 0-.39 4.48l2.829 36.879-1.452.961 20.157-33.2a24.513 24.513 0 0 0 3.24-6.84q.523-2.439-1-3.44a10.092 10.092 0 0 0-5.084-1.08l.428-1.6q2.451.081 4.991.159t4.756.081q2.216 0 3.689-.081t2.766-.16z" class="cls-3"/>
                <path id="Path_406" d="M1133.339 1340.349l.429-1.6a20.738 20.738 0 0 0 4.564-.641 4.323 4.323 0 0 0 2.519-1.919 16.6 16.6 0 0 0 1.67-4.32l10.632-39.681a13.706 13.706 0 0 0 .656-4.36 2.158 2.158 0 0 0-1.49-1.92 13.835 13.835 0 0 0-4.233-.6l.43-1.6q1.768.081 4.648.159t6.206.081q2.985 0 5.95-.081t4.948-.159l-.428 1.6a17.332 17.332 0 0 0-4.555.6 4.505 4.505 0 0 0-2.518 1.92 16.5 16.5 0 0 0-1.681 4.36l-10.633 39.681a13.774 13.774 0 0 0-.644 4.32 2.079 2.079 0 0 0 1.49 1.919 16.335 16.335 0 0 0 4.222.641l-.429 1.6q-1.92-.161-4.852-.2t-5.918-.039q-3.327 0-6.238.039t-4.745.2zm19.274-27.68l.428-1.6h33.7l-.429 1.6zm16.384 27.68l.429-1.6a20.738 20.738 0 0 0 4.564-.641 4.323 4.323 0 0 0 2.519-1.919 16.633 16.633 0 0 0 1.671-4.32l10.632-39.681a13.7 13.7 0 0 0 .655-4.36 2.159 2.159 0 0 0-1.489-1.92 13.849 13.849 0 0 0-4.234-.6l.43-1.6q1.94.081 4.9.159t5.865.081q3.327 0 6.249-.081t4.734-.159l-.428 1.6a17.333 17.333 0 0 0-4.555.6 4.508 4.508 0 0 0-2.518 1.92 16.5 16.5 0 0 0-1.68 4.36l-10.632 39.681a13.76 13.76 0 0 0-.646 4.32 2.079 2.079 0 0 0 1.49 1.919 16.333 16.333 0 0 0 4.222.641l-.429 1.6q-1.749-.161-4.638-.2t-6.217-.039q-2.9 0-5.9.039t-4.991.2z" class="cls-3"/>
                <path id="Path_407" d="M1259.668 1283.709l-.428 1.6a8.938 8.938 0 0 0-3.766 1.961 36.19 36.19 0 0 0-4.966 5.159l-25.807 32h-1.45l-10.7-34.56q-.914-2.96-1.861-3.721a3.025 3.025 0 0 0-1.885-.759l.449-1.68q1.685.081 3.5.159t3.945.081q2.816 0 6.026-.04t5.982-.2l-.451 1.68a14.652 14.652 0 0 0-3.882.48 4.381 4.381 0 0 0-2.6 1.76 4.282 4.282 0 0 0-.2 3.6l7.473 25.919-.812.481 17.028-21.2q3.564-4.4 4.167-6.8t-1.115-3.32a12.222 12.222 0 0 0-5.278-1l.43-1.6q2.451.081 4.99.159t4.756.081q2.217 0 3.689-.081c.974-.052 1.898-.105 2.766-.159zm-28.877 32.32l-4.244 15.84a13.768 13.768 0 0 0-.647 4.32 2.081 2.081 0 0 0 1.491 1.919 16.334 16.334 0 0 0 4.222.641l-.428 1.6q-1.922-.161-4.852-.2t-5.919-.039q-3.325 0-6.237.039t-4.745.2l.428-1.6a20.718 20.718 0 0 0 4.564-.641 4.317 4.317 0 0 0 2.519-1.919 16.562 16.562 0 0 0 1.67-4.32l4.394-16.4 3.278 4.959z" class="cls-3"/>
            </g>
        </g>
    </g>
</svg>
