<?xml version="1.0" encoding="utf-8"?>
<!-- Generator: Adobe Illustrator 25.2.3, SVG Export Plug-In . SVG Version: 6.00 Build 0)  -->
<svg version="1.1" id="a9a893cc-ecfb-44bf-bd63-98ad0d86baab"
	 xmlns="http://www.w3.org/2000/svg" xmlns:xlink="http://www.w3.org/1999/xlink" x="0px" y="0px" viewBox="0 0 47.1 50"
	 style="enable-background:new 0 0 47.1 50;" xml:space="preserve">
<g id="f15c7c1a-ee8e-4ef4-8605-0d9d4031eeff">
	<g id="e3f4824f-7dff-4b29-aced-981c9523f9fd">
		<path id="b5413500-e8de-4c51-86db-2873bed829f9" d="M12.3,50v-3.1C10.1,46.7,7.9,46,6,44.8C2.3,42.4,0,38.4,0,34
			c0-1.6,0.3-3.3,0.8-4.8c1.9-5.2,6.9-8.7,12.5-8.5h19.5v-2.3l-2-1.6l1-1.3l1,0.8V12h1.7v1.6l0.9-0.7l1,1.3l-1.9,1.4v5
			c2.9-0.2,5.3-2.1,6.3-4.8c0.3-0.9,0.5-1.8,0.5-2.7c0-2.5-1.3-4.8-3.4-6.1c-1.2-0.7-2.6-1.1-4-1.2c-2.9,0-5.5,1.6-6.8,4.2
			c-0.5,1.1-0.8,2.4-0.7,3.6V19h-5.8v-5.2c0-2.2,0.4-4.4,1.3-6.4c2.3-4.5,6.9-7.4,12-7.4c2.6,0,5.1,0.8,7.2,2.2
			c3.7,2.4,5.9,6.4,6,10.8c0,1.6-0.3,3.3-0.8,4.8c-1.8,4.9-6.4,8.3-11.7,8.5v3.4h-1.7v-3.4H12.6c-2.9,0.2-5.3,2.1-6.3,4.8
			C6,32,5.8,32.9,5.8,33.8c0,2.5,1.3,4.8,3.4,6.1c1,0.6,2,1,3.1,1.2v-4.8l-1.9-1.4l0.9-1.3l1,0.7v-2.1h1.6v4.1l0.8-0.8l1.2,1.1
			l-2,2.1v2.5c2.6-0.3,4.9-1.8,6-4.2c0.5-1.1,0.8-2.4,0.7-3.6V28h5.8v5.2c0,2.2-0.4,4.4-1.3,6.4C23,43.9,18.8,46.7,14,47v3H12.3z"/>
	</g>
</g>
</svg>
